<svg xmlns="http://www.w3.org/2000/svg" viewBox="0 0 160 160"><g fill="#163F2A"><path stroke="#163F2A" stroke-width="2" stroke-miterlimit="10" d="M29.302 83.183H22.78a3.039 3.039 0 0 1-3.03-3.03V68.972a3.039 3.039 0 0 1 3.03-3.03h6.522a3.039 3.039 0 0 1 3.03 3.03v11.182a3.038 3.038 0 0 1-3.03 3.029zm107.943 0h-6.522a3.039 3.039 0 0 1-3.03-3.03V68.972a3.039 3.039 0 0 1 3.03-3.03h6.522a3.039 3.039 0 0 1 3.03 3.03v11.182a3.038 3.038 0 0 1-3.03 3.029z"/><path d="M115.354 12H46.867C41.269 12 36 15.986 36 21.162v100.244c0 4.264 4 7.991 7 9.307v9.868c0 3.168 1.413 7.419 4.394 7.419h7.445c3.064 0 4.161-4.369 4.161-7.419V132h44v8.581c0 2.827.475 7.419 3.693 7.419h7.445c3.214 0 3.862-4.633 3.862-7.419v-9.923c4-1.234 6-4.494 6-9.253V21.162c0-5.351-3.234-9.162-8.646-9.162zM51.918 116.213a5.068 5.068 0 1 1 0-10.136 5.068 5.068 0 0 1 0 10.136zm57.286 0a5.068 5.068 0 1 1 0-10.136 5.068 5.068 0 0 1 0 10.136zM116 86.842A3.158 3.158 0 0 1 112.842 90H48.158A3.158 3.158 0 0 1 45 86.842V45.158A3.158 3.158 0 0 1 48.158 42h64.684A3.158 3.158 0 0 1 116 45.158v41.684z"/></g></svg>