<?xml version="1.0" encoding="utf-8"?>
<!-- Generator: Adobe Illustrator 18.0.0, SVG Export Plug-In . SVG Version: 6.00 Build 0)  -->
<!DOCTYPE svg PUBLIC "-//W3C//DTD SVG 1.1//EN" "http://www.w3.org/Graphics/SVG/1.1/DTD/svg11.dtd">
<svg version="1.1" xmlns="http://www.w3.org/2000/svg" xmlns:xlink="http://www.w3.org/1999/xlink" x="0px" y="0px"
	 viewBox="0 0 250 250" enable-background="new 0 0 250 250" xml:space="preserve">
<g id="Guides">
</g>
<g id="_x31_2_Col_Grid" opacity="0.1" enable-background="new    ">
</g>
<g id="Layer_3">
	<g>
		<path fill="#163F2A" stroke="#163F2A" stroke-width="2" stroke-miterlimit="10" d="M84.561,220.399H78.08
			c-3.721,0-6.765-3.044-6.765-6.765v-34.375c0-3.721,3.044-6.765,6.765-6.765h6.481c3.721,0,6.765,3.044,6.765,6.765v34.375
			C91.326,217.354,88.282,220.399,84.561,220.399z"/>
		<path fill="#163F2A" stroke="#163F2A" stroke-width="2" stroke-miterlimit="10" d="M171.018,220.399h-6.481
			c-3.721,0-6.765-3.044-6.765-6.765v-34.375c0-3.721,3.044-6.765,6.765-6.765h6.481c3.721,0,6.765,3.044,6.765,6.765v34.375
			C177.783,217.354,174.739,220.399,171.018,220.399z"/>
	</g>
	<path fill="#163F2A" stroke="#163F2A" stroke-width="2" stroke-miterlimit="10" d="M48.788,129.949h-9.509
		c-2.43,0-4.418-1.988-4.418-4.418v-16.303c0-2.43,1.988-4.418,4.418-4.418h9.509c2.43,0,4.418,1.988,4.418,4.418v16.303
		C53.205,127.961,51.217,129.949,48.788,129.949z"/>
	<path fill="#163F2A" stroke="#163F2A" stroke-width="2" stroke-miterlimit="10" d="M174.25,198.692H74.397
		c-7.158,0-13.015-5.857-13.015-13.015V39.522c0-7.158,5.857-13.015,13.015-13.015h99.853c7.158,0,13.015,5.857,13.015,13.015
		v146.155C187.265,192.835,181.408,198.692,174.25,198.692z"/>
	<path fill="#FFFFFF" d="M171.212,139.542H77.434c-3.239,0-5.889-2.65-5.889-5.889V73.197c0-3.239,2.65-5.889,5.889-5.889h93.778
		c3.239,0,5.889,2.65,5.889,5.889v60.456C177.102,136.892,174.452,139.542,171.212,139.542z"/>
	<circle fill="#FFFFFF" cx="81.243" cy="169.6" r="6.683"/>
	<circle fill="#FFFFFF" cx="165.169" cy="169.6" r="6.683"/>
	<path fill="#163F2A" stroke="#163F2A" stroke-width="2" stroke-miterlimit="10" d="M209.082,129.949h-9.509
		c-2.43,0-4.418-1.988-4.418-4.418v-16.303c0-2.43,1.988-4.418,4.418-4.418h9.509c2.43,0,4.418,1.988,4.418,4.418v16.303
		C213.5,127.961,211.512,129.949,209.082,129.949z"/>
</g>
<g id="Layer_4">
</g>
</svg>
