<svg xmlns="http://www.w3.org/2000/svg" viewBox="0 0 250 250"><g fill="#163F2A" stroke="#163F2A" stroke-width="2" stroke-miterlimit="10"><path d="M84.561 220.399H78.08c-3.721 0-6.765-3.044-6.765-6.765v-34.375c0-3.721 3.044-6.765 6.765-6.765h6.481c3.721 0 6.765 3.044 6.765 6.765v34.375c0 3.72-3.044 6.765-6.765 6.765zM171.018 220.399h-6.481c-3.721 0-6.765-3.044-6.765-6.765v-34.375c0-3.721 3.044-6.765 6.765-6.765h6.481c3.721 0 6.765 3.044 6.765 6.765v34.375c0 3.72-3.044 6.765-6.765 6.765z"/></g><path fill="#163F2A" stroke="#163F2A" stroke-width="2" stroke-miterlimit="10" d="M48.788 129.949h-9.509a4.43 4.43 0 0 1-4.418-4.418v-16.303a4.43 4.43 0 0 1 4.418-4.418h9.509a4.43 4.43 0 0 1 4.418 4.418v16.303a4.432 4.432 0 0 1-4.418 4.418zM174.25 198.692H74.397c-7.158 0-13.015-5.857-13.015-13.015V39.522c0-7.158 5.857-13.015 13.015-13.015h99.853c7.158 0 13.015 5.857 13.015 13.015v146.155c0 7.158-5.857 13.015-13.015 13.015z"/><path fill="#FFF" d="M171.212 139.542H77.434c-3.239 0-5.889-2.65-5.889-5.889V73.197c0-3.239 2.65-5.889 5.889-5.889h93.778c3.239 0 5.889 2.65 5.889 5.889v60.456c.001 3.239-2.649 5.889-5.889 5.889z"/><circle fill="#FFF" cx="81.243" cy="169.6" r="6.683"/><circle fill="#FFF" cx="165.169" cy="169.6" r="6.683"/><path fill="#163F2A" stroke="#163F2A" stroke-width="2" stroke-miterlimit="10" d="M209.082 129.949h-9.509a4.43 4.43 0 0 1-4.418-4.418v-16.303a4.43 4.43 0 0 1 4.418-4.418h9.509a4.43 4.43 0 0 1 4.418 4.418v16.303a4.43 4.43 0 0 1-4.418 4.418z"/></svg>