<svg xmlns="http://www.w3.org/2000/svg" viewBox="0 0 250 250"><g fill="#163F2A" stroke="#163F2A" stroke-width="2" stroke-miterlimit="10"><path d="M156.307 129.375h-3.645a3.816 3.816 0 0 1-3.805-3.805v-19.334a3.816 3.816 0 0 1 3.805-3.805h3.645a3.816 3.816 0 0 1 3.805 3.805v19.334a3.816 3.816 0 0 1-3.805 3.805zM204.934 129.375h-3.645a3.816 3.816 0 0 1-3.805-3.805v-19.334a3.816 3.816 0 0 1 3.805-3.805h3.645a3.816 3.816 0 0 1 3.805 3.805v19.334a3.817 3.817 0 0 1-3.805 3.805z"/></g><path fill="#163F2A" stroke="#163F2A" stroke-width="2" stroke-miterlimit="10" d="M136.187 78.502h-5.348a2.492 2.492 0 0 1-2.485-2.485v-9.169a2.492 2.492 0 0 1 2.485-2.485h5.348a2.492 2.492 0 0 1 2.485 2.485v9.169a2.493 2.493 0 0 1-2.485 2.485zM206.751 117.166H150.59c-4.026 0-7.32-3.294-7.32-7.32V27.643c0-4.026 3.294-7.32 7.32-7.32h56.161c4.026 0 7.32 3.294 7.32 7.32v82.203c.001 4.026-3.294 7.32-7.32 7.32z"/><path fill="#FFF" d="M205.043 83.898h-52.744a3.322 3.322 0 0 1-3.312-3.312V46.583a3.322 3.322 0 0 1 3.312-3.312h52.744a3.322 3.322 0 0 1 3.312 3.312v34.003a3.321 3.321 0 0 1-3.312 3.312z"/><circle fill="#FFF" cx="154.441" cy="100.804" r="3.759"/><circle fill="#FFF" cx="201.644" cy="100.804" r="3.759"/><path fill="#163F2A" stroke="#163F2A" stroke-width="2" stroke-miterlimit="10" d="M226.343 78.502h-5.348a2.492 2.492 0 0 1-2.485-2.485v-9.169a2.492 2.492 0 0 1 2.485-2.485h5.348a2.492 2.492 0 0 1 2.485 2.485v9.169a2.493 2.493 0 0 1-2.485 2.485z"/><path fill-rule="evenodd" clip-rule="evenodd" fill="#163F2A" d="M79.555 218.493h-7.254l.604-19.038h6.65z"/><circle fill-rule="evenodd" clip-rule="evenodd" fill="#163F2A" cx="52.807" cy="176.746" r="17.076"/><path fill="#183F2A" d="M253.174 133.414H-1.213c-1.596 0-2.891-1.404-2.891-3s1.294-3 2.891-3h254.387c1.597 0 2.891 1.404 2.891 3s-1.294 3-2.891 3z"/><path fill-rule="evenodd" clip-rule="evenodd" fill="#163F2A" d="M100.613 161.237s.534-6.102-6.627-6.449c-8.49-.411-7.103 7.151-7.103 7.151s-.425 24.602-.647 31.441c-.135 4.146-2.69 5.033-4.611 6.033h-8.882c-1.099 0-1.93-.276-3.017-.278-9.716-.008-19.437-.068-29.137-.068-9.521.008-18.148 4.002-19.492 14.338-.093.272.207.063.078.335 0 .006-.098.418-.123.402-.055-.03-.156-.532-.156-.554v37.825h12.861c.002-9.829.003-18.675.019-27.966 0-.498-.344-1.321.385-1.466.705-.148 1.477-.078 2.218-.017-.606-.014.452.563.452.644.028.449.065.891.065 1.342v27.463h37v-27.705c0-1.67.183-5.17 1.918-4.946l.222-.349h3.86v.276c13-.143 19.591-7.71 20.434-15.939 1.018-9.932.283-41.513.283-41.513z"/></svg>