<?xml version="1.0" encoding="utf-8"?>
<!-- Generator: Adobe Illustrator 18.0.0, SVG Export Plug-In . SVG Version: 6.00 Build 0)  -->
<!DOCTYPE svg PUBLIC "-//W3C//DTD SVG 1.1//EN" "http://www.w3.org/Graphics/SVG/1.1/DTD/svg11.dtd">
<svg version="1.1" xmlns="http://www.w3.org/2000/svg" xmlns:xlink="http://www.w3.org/1999/xlink" x="0px" y="0px"
	 viewBox="0 0 250 250" enable-background="new 0 0 250 250" xml:space="preserve">
<g id="Guides">
</g>
<g id="_x31_2_Col_Grid" opacity="0.1" enable-background="new    ">
</g>
<g id="Layer_3">
</g>
<g id="Layer_4">
	<g>
		<path fill="#163F2A" stroke="#163F2A" stroke-width="2" stroke-miterlimit="10" d="M156.307,129.375h-3.645
			c-2.093,0-3.805-1.712-3.805-3.805v-19.334c0-2.093,1.712-3.805,3.805-3.805h3.645c2.093,0,3.805,1.712,3.805,3.805v19.334
			C160.112,127.663,158.4,129.375,156.307,129.375z"/>
		<path fill="#163F2A" stroke="#163F2A" stroke-width="2" stroke-miterlimit="10" d="M204.934,129.375h-3.645
			c-2.093,0-3.805-1.712-3.805-3.805v-19.334c0-2.093,1.712-3.805,3.805-3.805h3.645c2.093,0,3.805,1.712,3.805,3.805v19.334
			C208.738,127.663,207.026,129.375,204.934,129.375z"/>
	</g>
	<path fill="#163F2A" stroke="#163F2A" stroke-width="2" stroke-miterlimit="10" d="M136.187,78.502h-5.348
		c-1.367,0-2.485-1.118-2.485-2.485v-9.169c0-1.367,1.118-2.485,2.485-2.485h5.348c1.367,0,2.485,1.118,2.485,2.485v9.169
		C138.671,77.384,137.553,78.502,136.187,78.502z"/>
	<path fill="#163F2A" stroke="#163F2A" stroke-width="2" stroke-miterlimit="10" d="M206.751,117.166H150.59
		c-4.026,0-7.32-3.294-7.32-7.32V27.643c0-4.026,3.294-7.32,7.32-7.32h56.161c4.026,0,7.32,3.294,7.32,7.32v82.203
		C214.072,113.872,210.777,117.166,206.751,117.166z"/>
	<path fill="#FFFFFF" d="M205.043,83.898h-52.744c-1.822,0-3.312-1.491-3.312-3.312V46.583c0-1.822,1.491-3.312,3.312-3.312h52.744
		c1.822,0,3.312,1.491,3.312,3.312v34.003C208.355,82.408,206.865,83.898,205.043,83.898z"/>
	<circle fill="#FFFFFF" cx="154.441" cy="100.804" r="3.759"/>
	<circle fill="#FFFFFF" cx="201.644" cy="100.804" r="3.759"/>
	<path fill="#163F2A" stroke="#163F2A" stroke-width="2" stroke-miterlimit="10" d="M226.343,78.502h-5.348
		c-1.367,0-2.485-1.118-2.485-2.485v-9.169c0-1.367,1.118-2.485,2.485-2.485h5.348c1.367,0,2.485,1.118,2.485,2.485v9.169
		C228.827,77.384,227.709,78.502,226.343,78.502z"/>
	<polygon fill-rule="evenodd" clip-rule="evenodd" fill="#163F2A" points="79.555,218.493 72.301,218.493 72.905,199.455 
		79.555,199.455 	"/>
	<circle fill-rule="evenodd" clip-rule="evenodd" fill="#163F2A" cx="52.807" cy="176.746" r="17.076"/>
	<g>
		<path fill="#183F2A" d="M253.174,133.414H-1.213c-1.596,0-2.891-1.404-2.891-3s1.294-3,2.891-3h254.387
			c1.597,0,2.891,1.404,2.891,3S254.771,133.414,253.174,133.414z"/>
	</g>
	<path fill-rule="evenodd" clip-rule="evenodd" fill="#163F2A" d="M100.613,161.237c0,0,0.534-6.102-6.627-6.449
		c-8.49-0.411-7.103,7.151-7.103,7.151s-0.425,24.602-0.647,31.441c-0.135,4.146-2.69,5.033-4.611,6.033h-8.882
		c-1.099,0-1.93-0.276-3.017-0.278c-9.716-0.008-19.437-0.068-29.137-0.068c-9.521,0.008-18.148,4.002-19.492,14.338
		c-0.093,0.272,0.207,0.063,0.078,0.335c0,0.006-0.098,0.418-0.123,0.402c-0.055-0.03-0.156-0.532-0.156-0.554
		c0,12.399,0,25.106,0,37.825h12.861c0.002-9.829,0.003-18.675,0.019-27.966c0-0.498-0.344-1.321,0.385-1.466
		c0.705-0.148,1.477-0.078,2.218-0.017c-0.606-0.014,0.452,0.563,0.452,0.644c0.028,0.449,0.065,0.891,0.065,1.342
		c0,9.094,0,18.213,0,27.463h37c0-9.25,0-18.529,0-27.705c0-1.67,0.183-5.17,1.918-4.946l0.222-0.349h3.86v0.276
		c13-0.143,19.591-7.71,20.434-15.939C101.348,192.818,100.613,161.237,100.613,161.237z"/>
</g>
</svg>
