<svg xmlns="http://www.w3.org/2000/svg" viewBox="0 0 250 250"><path fill="#163F2A" d="M106.453 135.4c0 13.816-11.2 25.016-25.017 25.016-13.816 0-25.016-11.2-25.016-25.016s11.2-25.017 25.016-25.017c13.817 0 25.017 11.201 25.017 25.017M53.896 205.414v41h57v-41.435c0-2.11.309-3.4 1.681-3.627 1.761-.617 2.98 1.047 2.98 1.047l8.787 16.367c1.353 3.494 3.276 4.566 8.377 5.758l17.136 2.347 20.035 3.349s13.239 4.258 15.102-6.888c1.863-11.146-11.315-12.393-11.315-12.393l-18.937-3.165-14.36-2.4s-8.109-20.552-11.813-26.924c-3.681-6.331-10.532-9.718-14.559-10.251l-9.655-.331c-14.603-.012-29.185-.012-43.763-.012-14.309.012-24.647 5.775-28.6 19.526-.14.409-.363 3.81-.558 4.219l-.125 54.812H50.35c.003-14.628.004-27.965.028-41.928 0-.748-.117-2.044.579-2.153 1.152-.18 2.065-.038 3.256.056M213.805 204.823l-9.797 11.556a4.565 4.565 0 0 1-6.416.529l-22.931-19.439a4.565 4.565 0 0 1-.529-6.416l9.797-11.556a4.565 4.565 0 0 1 6.416-.529l22.931 19.439a4.565 4.565 0 0 1 .529 6.416z"/><path fill="#183F2A" d="M85.325 102.883L71.566 79.832c-4.463-.268-18.067-1.513-27.107-6.982-14.042-8.496-17.18-21.065-17.307-21.596a2.612 2.612 0 0 1 5.079-1.221c.04.159 2.867 11.048 14.931 18.347 9.546 5.775 25.837 6.294 26 6.299l1.435.04 8.644 14.48 3.213-13.367 2.159.103c.09.004 9.128.429 18.039.429a2.612 2.612 0 0 1 0 5.224c-6.405 0-12.869-.216-16.125-.344l-5.202 21.639z"/><g fill="#163F2A"><path d="M68.129 39.597c-.115-.759-.736-2.046-2.713-2.046-1.357 0-2.23.851-2.23 1.747 0 .782.483 1.357 1.609 1.563l2.184.414c3.104.575 4.713 2.575 4.713 4.897 0 2.552-2.138 5.15-6.023 5.15-4.506 0-6.438-2.92-6.667-5.219l3.334-.805c.138 1.494 1.149 2.805 3.379 2.805 1.425 0 2.299-.69 2.299-1.701 0-.828-.667-1.425-1.747-1.632l-2.23-.414c-2.759-.529-4.437-2.368-4.437-4.782 0-3.081 2.713-5.242 5.84-5.242 4.069 0 5.61 2.437 5.954 4.345l-3.265.92zM76.61 44.379l2.69-.414c.62-.092.828-.391.828-.782 0-.667-.574-1.242-1.679-1.242-1.218 0-1.885.828-1.954 1.678L73.461 43c.138-1.632 1.655-3.793 5.012-3.793 3.701 0 5.057 2.069 5.057 4.414v5.587c0 .897.115 1.655.138 1.77h-3.15c-.023-.092-.115-.506-.115-1.287-.598.966-1.701 1.609-3.219 1.609-2.506 0-3.954-1.655-3.954-3.472 0-2.024 1.495-3.173 3.38-3.449zm3.518 2.115v-.506l-2.161.345c-.736.115-1.287.46-1.287 1.264 0 .598.391 1.172 1.356 1.172 1.034.001 2.092-.505 2.092-2.275zM99.896 34.332c4.575 0 8.46 3.334 8.46 8.506 0 2.184-.69 4.023-1.839 5.426l2 2.184-2.391 2.023-2-2.207c-1.242.69-2.713 1.058-4.23 1.058-4.598 0-8.483-3.334-8.483-8.483-.001-5.173 3.885-8.507 8.483-8.507zm0 13.403a5.21 5.21 0 0 0 1.656-.276l-2.391-2.621 2.414-2.023 2.391 2.621c.391-.713.621-1.563.621-2.621 0-3.403-2.437-4.943-4.69-4.943-2.276 0-4.713 1.54-4.713 4.943-.001 3.403 2.436 4.92 4.712 4.92zM117.895 49.828c-.598.988-1.908 1.402-3.058 1.402-2.782 0-4.345-2.023-4.345-4.46v-7.219h3.494v6.483c0 1.104.598 1.977 1.839 1.977 1.173 0 1.909-.805 1.909-1.954v-6.506h3.494v9.38c0 1.034.092 1.862.115 2.046h-3.357c-.045-.207-.091-.851-.091-1.149zM126.032 34.01c1.149 0 2.069.92 2.069 2.046s-.919 2.046-2.069 2.046c-1.104 0-2.023-.92-2.023-2.046s.919-2.046 2.023-2.046zm-1.725 16.967V39.551h3.495v11.426h-3.495zM133.548 44.379l2.69-.414c.62-.092.828-.391.828-.782 0-.667-.574-1.242-1.679-1.242-1.218 0-1.885.828-1.954 1.678L130.398 43c.138-1.632 1.655-3.793 5.012-3.793 3.701 0 5.057 2.069 5.057 4.414v5.587c0 .897.115 1.655.138 1.77h-3.15c-.023-.092-.115-.506-.115-1.287-.598.966-1.701 1.609-3.219 1.609-2.506 0-3.954-1.655-3.954-3.472.001-2.024 1.496-3.173 3.381-3.449zm3.517 2.115v-.506l-2.161.345c-.736.115-1.287.46-1.287 1.264 0 .598.391 1.172 1.356 1.172 1.035.001 2.092-.505 2.092-2.275zM143.409 55.345V39.551h3.379v1.172c.483-.736 1.724-1.448 3.357-1.448 3.311 0 5.311 2.529 5.311 5.955 0 3.495-2.253 6-5.449 6-1.471 0-2.575-.506-3.103-1.149v5.265h-3.495zm6.023-12.92c-1.357 0-2.575.919-2.575 2.828 0 1.885 1.218 2.851 2.575 2.851 1.379 0 2.598-.943 2.598-2.851 0-1.909-1.219-2.828-2.598-2.828zM169.018 45.253c0 3.54-2.644 6.069-6.07 6.069-3.402 0-6.069-2.529-6.069-6.069s2.667-6.046 6.069-6.046c3.426-.001 6.07 2.505 6.07 6.046zm-3.495 0c0-1.931-1.241-2.828-2.575-2.828-1.31 0-2.575.896-2.575 2.828 0 1.908 1.265 2.851 2.575 2.851 1.334-.001 2.575-.92 2.575-2.851zM176.923 55.345V39.551h3.379v1.172c.483-.736 1.724-1.448 3.357-1.448 3.31 0 5.311 2.529 5.311 5.955 0 3.495-2.253 6-5.449 6-1.471 0-2.575-.506-3.103-1.149v5.265h-3.495zm6.024-12.92c-1.357 0-2.575.919-2.575 2.828 0 1.885 1.218 2.851 2.575 2.851 1.379 0 2.598-.943 2.598-2.851 0-1.909-1.219-2.828-2.598-2.828zM202.532 45.253c0 3.54-2.644 6.069-6.07 6.069-3.402 0-6.069-2.529-6.069-6.069s2.667-6.046 6.069-6.046c3.426-.001 6.07 2.505 6.07 6.046zm-3.495 0c0-1.931-1.241-2.828-2.575-2.828-1.31 0-2.575.896-2.575 2.828 0 1.908 1.265 2.851 2.575 2.851 1.334-.001 2.575-.92 2.575-2.851zM208.094 45.873h-2.575l-.805-11.196h4.184l-.804 11.196zm-1.31 1.357a2 2 0 0 1 2 2c0 1.081-.896 1.977-2 1.977a1.977 1.977 0 0 1-1.977-1.977c0-1.104.873-2 1.977-2z"/></g></svg>