<?xml version="1.0" encoding="utf-8"?>
<!-- Generator: Adobe Illustrator 18.0.0, SVG Export Plug-In . SVG Version: 6.00 Build 0)  -->
<!DOCTYPE svg PUBLIC "-//W3C//DTD SVG 1.1//EN" "http://www.w3.org/Graphics/SVG/1.1/DTD/svg11.dtd">
<svg version="1.1" xmlns="http://www.w3.org/2000/svg" xmlns:xlink="http://www.w3.org/1999/xlink" x="0px" y="0px"
	 viewBox="0 0 250 250" enable-background="new 0 0 250 250" xml:space="preserve">
<g id="Guides">
</g>
<g id="_x31_2_Col_Grid" opacity="0.1" enable-background="new    ">
</g>
<g id="Layer_3">
</g>
<g id="Layer_4">
	<path fill="#163F2A" d="M106.453,135.4c0,13.816-11.2,25.016-25.017,25.016c-13.816,0-25.016-11.2-25.016-25.016
		s11.2-25.017,25.016-25.017C95.253,110.383,106.453,121.584,106.453,135.4"/>
	<path fill="#163F2A" d="M53.896,205.414c0,0,0,27.417,0,41h57c0-13.583,0-27.644,0-41.435c0-2.11,0.309-3.4,1.681-3.627
		c1.761-0.617,2.98,1.047,2.98,1.047l8.787,16.367c1.353,3.494,3.276,4.566,8.377,5.758l17.136,2.347l20.035,3.349
		c0,0,13.239,4.258,15.102-6.888c1.863-11.146-11.315-12.393-11.315-12.393l-18.937-3.165l-14.36-2.4
		c0,0-8.109-20.552-11.813-26.924c-3.681-6.331-10.532-9.718-14.559-10.251l-9.655-0.331c-14.603-0.012-29.185-0.012-43.763-0.012
		c-14.309,0.012-24.647,5.775-28.6,19.526c-0.14,0.409-0.363,3.81-0.558,4.219l-0.125,54.812H50.35
		c0.003-14.628,0.004-27.965,0.028-41.928c0-0.748-0.117-2.044,0.579-2.153c1.152-0.18,2.065-0.038,3.256,0.056"/>
	<path fill="#163F2A" d="M213.805,204.823l-9.797,11.556c-1.619,1.91-4.506,2.148-6.416,0.529l-22.931-19.439
		c-1.91-1.619-2.148-4.506-0.529-6.416l9.797-11.556c1.619-1.91,4.506-2.148,6.416-0.529l22.931,19.439
		C215.186,200.026,215.424,202.913,213.805,204.823z"/>
	<g>
		<path fill="#183F2A" d="M85.325,102.883L71.566,79.832c-4.463-0.268-18.067-1.513-27.107-6.982
			c-14.042-8.496-17.18-21.065-17.307-21.596c-0.335-1.403,0.531-2.812,1.934-3.147c1.399-0.335,2.807,0.528,3.145,1.926
			c0.04,0.159,2.867,11.048,14.931,18.347c9.546,5.775,25.837,6.294,26,6.299l1.435,0.04l8.644,14.48l3.213-13.367l2.159,0.103
			c0.09,0.004,9.128,0.429,18.039,0.429c1.443,0,2.612,1.17,2.612,2.612s-1.169,2.612-2.612,2.612
			c-6.405,0-12.869-0.216-16.125-0.344L85.325,102.883z"/>
	</g>
	<g>
		<path fill="#163F2A" d="M68.129,39.597c-0.115-0.759-0.736-2.046-2.713-2.046c-1.357,0-2.23,0.851-2.23,1.747
			c0,0.782,0.483,1.357,1.609,1.563l2.184,0.414c3.104,0.575,4.713,2.575,4.713,4.897c0,2.552-2.138,5.15-6.023,5.15
			c-4.506,0-6.438-2.92-6.667-5.219l3.334-0.805c0.138,1.494,1.149,2.805,3.379,2.805c1.425,0,2.299-0.69,2.299-1.701
			c0-0.828-0.667-1.425-1.747-1.632l-2.23-0.414c-2.759-0.529-4.437-2.368-4.437-4.782c0-3.081,2.713-5.242,5.84-5.242
			c4.069,0,5.61,2.437,5.954,4.345L68.129,39.597z"/>
		<path fill="#163F2A" d="M76.61,44.379l2.69-0.414c0.62-0.092,0.828-0.391,0.828-0.782c0-0.667-0.574-1.242-1.679-1.242
			c-1.218,0-1.885,0.828-1.954,1.678L73.461,43c0.138-1.632,1.655-3.793,5.012-3.793c3.701,0,5.057,2.069,5.057,4.414v5.587
			c0,0.897,0.115,1.655,0.138,1.77h-3.15c-0.023-0.092-0.115-0.506-0.115-1.287c-0.598,0.966-1.701,1.609-3.219,1.609
			c-2.506,0-3.954-1.655-3.954-3.472C73.23,45.804,74.725,44.655,76.61,44.379z M80.128,46.494v-0.506l-2.161,0.345
			c-0.736,0.115-1.287,0.46-1.287,1.264c0,0.598,0.391,1.172,1.356,1.172C79.07,48.77,80.128,48.264,80.128,46.494z"/>
		<path fill="#163F2A" d="M99.896,34.332c4.575,0,8.46,3.334,8.46,8.506c0,2.184-0.69,4.023-1.839,5.426l2,2.184l-2.391,2.023
			l-2-2.207c-1.242,0.69-2.713,1.058-4.23,1.058c-4.598,0-8.483-3.334-8.483-8.483C91.412,37.666,95.298,34.332,99.896,34.332z
			 M99.896,47.735c0.552,0,1.104-0.092,1.656-0.276l-2.391-2.621l2.414-2.023l2.391,2.621c0.391-0.713,0.621-1.563,0.621-2.621
			c0-3.403-2.437-4.943-4.69-4.943c-2.276,0-4.713,1.54-4.713,4.943C95.183,46.218,97.62,47.735,99.896,47.735z"/>
		<path fill="#163F2A" d="M117.895,49.828c-0.598,0.988-1.908,1.402-3.058,1.402c-2.782,0-4.345-2.023-4.345-4.46v-7.219h3.494
			v6.483c0,1.104,0.598,1.977,1.839,1.977c1.173,0,1.909-0.805,1.909-1.954v-6.506h3.494v9.38c0,1.034,0.092,1.862,0.115,2.046
			h-3.357C117.941,50.77,117.895,50.126,117.895,49.828z"/>
		<path fill="#163F2A" d="M126.032,34.01c1.149,0,2.069,0.92,2.069,2.046s-0.919,2.046-2.069,2.046c-1.104,0-2.023-0.92-2.023-2.046
			S124.928,34.01,126.032,34.01z M124.307,50.977V39.551h3.495v11.426H124.307z"/>
		<path fill="#163F2A" d="M133.548,44.379l2.69-0.414c0.62-0.092,0.828-0.391,0.828-0.782c0-0.667-0.574-1.242-1.679-1.242
			c-1.218,0-1.885,0.828-1.954,1.678L130.398,43c0.138-1.632,1.655-3.793,5.012-3.793c3.701,0,5.057,2.069,5.057,4.414v5.587
			c0,0.897,0.115,1.655,0.138,1.77h-3.15c-0.023-0.092-0.115-0.506-0.115-1.287c-0.598,0.966-1.701,1.609-3.219,1.609
			c-2.506,0-3.954-1.655-3.954-3.472C130.168,45.804,131.663,44.655,133.548,44.379z M137.065,46.494v-0.506l-2.161,0.345
			c-0.736,0.115-1.287,0.46-1.287,1.264c0,0.598,0.391,1.172,1.356,1.172C136.008,48.77,137.065,48.264,137.065,46.494z"/>
		<path fill="#163F2A" d="M143.409,55.345V39.551h3.379v1.172c0.483-0.736,1.724-1.448,3.357-1.448c3.311,0,5.311,2.529,5.311,5.955
			c0,3.495-2.253,6-5.449,6c-1.471,0-2.575-0.506-3.103-1.149v5.265H143.409z M149.432,42.425c-1.357,0-2.575,0.919-2.575,2.828
			c0,1.885,1.218,2.851,2.575,2.851c1.379,0,2.598-0.943,2.598-2.851C152.03,43.344,150.811,42.425,149.432,42.425z"/>
		<path fill="#163F2A" d="M169.018,45.253c0,3.54-2.644,6.069-6.07,6.069c-3.402,0-6.069-2.529-6.069-6.069
			c0-3.54,2.667-6.046,6.069-6.046C166.374,39.206,169.018,41.712,169.018,45.253z M165.523,45.253c0-1.931-1.241-2.828-2.575-2.828
			c-1.31,0-2.575,0.896-2.575,2.828c0,1.908,1.265,2.851,2.575,2.851C164.282,48.103,165.523,47.184,165.523,45.253z"/>
		<path fill="#163F2A" d="M176.923,55.345V39.551h3.379v1.172c0.483-0.736,1.724-1.448,3.357-1.448c3.31,0,5.311,2.529,5.311,5.955
			c0,3.495-2.253,6-5.449,6c-1.471,0-2.575-0.506-3.103-1.149v5.265H176.923z M182.947,42.425c-1.357,0-2.575,0.919-2.575,2.828
			c0,1.885,1.218,2.851,2.575,2.851c1.379,0,2.598-0.943,2.598-2.851C185.545,43.344,184.326,42.425,182.947,42.425z"/>
		<path fill="#163F2A" d="M202.532,45.253c0,3.54-2.644,6.069-6.07,6.069c-3.402,0-6.069-2.529-6.069-6.069
			c0-3.54,2.667-6.046,6.069-6.046C199.888,39.206,202.532,41.712,202.532,45.253z M199.037,45.253c0-1.931-1.241-2.828-2.575-2.828
			c-1.31,0-2.575,0.896-2.575,2.828c0,1.908,1.265,2.851,2.575,2.851C197.796,48.103,199.037,47.184,199.037,45.253z"/>
		<path fill="#163F2A" d="M208.094,45.873h-2.575l-0.805-11.196h4.184L208.094,45.873z M206.784,47.23c1.104,0,2,0.896,2,2
			c0,1.081-0.896,1.977-2,1.977c-1.104,0-1.977-0.897-1.977-1.977C204.807,48.126,205.68,47.23,206.784,47.23z"/>
	</g>
</g>
</svg>
