<svg xmlns="http://www.w3.org/2000/svg" viewBox="0 0 250 250"><path fill="none" stroke="#163F2A" stroke-width="4" stroke-miterlimit="10" d="M-3.104 212.414h252"/><path clip-rule="evenodd" fill="none" stroke="#163F2A" stroke-width="4" stroke-miterlimit="10" d="M110.912 187.958h-8.831c.127-.63.201-1.285.201-1.961v-56.321c0-4.537-3.03-8.25-6.733-8.25H.125c-3.703 0-6.733 3.712-6.733 8.25v56.321c0 1.212.221 2.361.609 3.4a4.11 4.11 0 0 0-.609 2.167v5.366c0 1.983 1.324 3.606 2.943 3.606h114.576c1.619 0 2.943-1.623 2.943-3.606v-5.366c.001-1.983-1.323-3.606-2.942-3.606z"/><path fill-rule="evenodd" clip-rule="evenodd" fill="#163F2A" d="M19.202 150.041c-3.813 0-7.58-2.231-9.373-5.551-1.575-2.902-1.802-6.27-.622-9.236a10.69 10.69 0 0 1 4.15-5.018l-2.498-1.769h12.938l-.223.975c3.954 1.774 6.538 5.893 6.335 10.364-.203 4.779-3.742 8.894-8.604 10.001a9.408 9.408 0 0 1-2.103.234z"/><path fill="#FFF" d="M21.288 130.467c-.117.511.353.376.559.452a8.806 8.806 0 0 1 6.064 8.797c-.166 3.904-3.046 7.229-7.051 8.142a7.45 7.45 0 0 1-1.658.184c-3.032 0-6.131-1.757-7.614-4.502-2.709-4.993-.369-10.893 5.028-12.658.224-.073.495-.056.634-.287.006-.013-.02-.051-.038-.068-.023-.02-.046-.043-.069-.059l4.145-.001m5.022-4H4.589l5.479 3.885a12.553 12.553 0 0 0-2.718 4.162c-1.4 3.519-1.137 7.503.724 10.932 2.161 4.003 6.531 6.594 11.129 6.594.865 0 1.722-.095 2.548-.284 5.739-1.307 9.916-6.189 10.158-11.872.212-4.695-2.179-9.068-6.044-11.476l.445-1.941z"/><path fill-rule="evenodd" clip-rule="evenodd" fill="#163F2A" d="M6.896 194.414v-4.869c0 1.894-1.639 3.245-3.464 3.607a5.188 5.188 0 0 1-1.056.112c-1.671 0-2.966-.794-3.887-2.195l-.594.36v-34.081l.462.3c1.817-5.51 6.143-8.679 12.058-8.687 5.795 0 11.559 0 17.362.007 6.032.01 10.615 3.261 12.431 8.948l.687-.21v35.465l-1.221-1.628a4.84 4.84 0 0 1-3.712 1.764c-.219 0-.66-.016-.883-.047-1.999-.28-3.185-1.466-4.185-3.28v4.434H6.896z"/><path fill="#FFF" d="M10.354 149.962c5.793 0 11.589 0 17.392.006 5.8.01 9.942 3.178 11.515 8.812.04.127.107.412.321.412.043 0 .315-.011.315-.038v30.683c0-.021-.183-.049-.203-.073-.017-.005-.141-.02-.141-.02-.1.187-.25.356-.345.54-.678 1.264-1.941 2.022-3.299 2.022a3.81 3.81 0 0 1-.53-.037c-1.707-.239-2.959-1.272-3.309-2.924a8.754 8.754 0 0 1-.173-1.615v-21.641-1.893c0-.234.089-.446-.266-.525a4.486 4.486 0 0 0-.784-.083c-.599 0-.95.339-.95 1.19v28.635h-9.879c-.001 0-.001-.46-.003-.635 0-.213.112-.547-.158-.699-.176-.095-.539-.166-.715-.166-.565 0-1.245.418-1.245 1.045v.456h-10v-28.488c0-.271.108-.543.094-.813 0-.147.069-.361-.092-.385-.299-.023-.581-.06-.882-.06-.176 0-.337.013-.504.049-.435.089-.222.556-.222.855-.012 7.628-.003 15.262-.009 22.894 0 .416-.012.842-.048 1.261-.181 1.833-1.258 3.122-2.888 3.446a4.702 4.702 0 0 1-.914.093c-1.448 0-2.673-.733-3.4-2.07-.063-.115.113-.408-.084-.408-.045 0-.051.015-.051.052v-30.857c0 .013-.086.038-.055.058.01.005-.036 1.475-.023 1.475.006 0-.02-.363-.017-1.448.076-.165.15-.319.205-.484 1.573-5.492 5.664-8.615 11.347-8.622m0-1.548h-.002c-5.972 0-10.374 2.777-12.544 8.069l-.912-.749V193.022l1.321-.699c1.096 1.246 2.557 1.94 4.278 1.94.429 0 .728-.044 1.166-.132.904-.179 2.235-.555 2.235-1.091V195.413H31.896v-2.299c1 .592 1.924.983 3.011 1.136.262.037.624.057.89.057 1.264 0 2.664-.43 3.645-1.19l2.453 3.49v-40.35l-1.1.361c-2.139-5.512-6.832-8.414-12.973-8.425-5.804-.005-11.674.221-17.468.221z"/><path fill-rule="evenodd" clip-rule="evenodd" fill="#163F2A" stroke="#FFF" stroke-width="2" stroke-miterlimit="10" d="M30.685 184.381l15.918 4.769s3.072 1.964 3.072 6.171c0 4.208-.279 19.917-.279 19.917s-.559 4.208-4.748 4.208c-2.793 0-5.585-1.122-5.865-4.488-.279-3.366 0-16.831 0-16.831l-10.327-4.296"/><path fill-rule="evenodd" clip-rule="evenodd" fill="#163F2A" stroke="#FFF" stroke-width="2" stroke-linecap="round" stroke-linejoin="round" stroke-miterlimit="10" d="M22.033 187.542l7.261 2.284s3.072 1.403 3.072 5.61c0 4.208-.279 19.917-.279 19.917s-.559 4.208-4.748 4.208c-2.793 0-5.585-1.122-5.865-4.488-.279-3.366 0-16.831 0-16.831l-14.243-5.33"/><path fill-rule="evenodd" clip-rule="evenodd" fill="#163F2A" d="M76.99 150.041c-3.813 0-7.58-2.231-9.373-5.551-1.575-2.902-1.802-6.27-.622-9.236a10.696 10.696 0 0 1 4.179-5.037l-2.42-1.75h12.831l-.223.975c3.954 1.774 6.537 5.893 6.335 10.364-.203 4.779-3.741 8.894-8.604 10.001a9.408 9.408 0 0 1-2.103.234z"/><path fill="#FFF" d="M79.075 130.467c-.117.511.353.376.559.452a8.806 8.806 0 0 1 6.064 8.797c-.166 3.904-3.046 7.229-7.051 8.142a7.45 7.45 0 0 1-1.658.184c-3.032 0-6.131-1.757-7.614-4.502-2.709-4.993-.369-10.893 5.028-12.658.224-.073.495-.056.634-.287.006-.013-.02-.051-.038-.068-.023-.02-.046-.043-.069-.059l4.145-.001m5.023-4H62.404l5.456 3.88a12.556 12.556 0 0 0-2.723 4.168c-1.4 3.519-1.137 7.503.724 10.932 2.161 4.003 6.531 6.594 11.129 6.594.865 0 1.722-.095 2.548-.284 5.739-1.307 9.916-6.189 10.158-11.872.212-4.694-2.179-9.067-6.044-11.475l.446-1.943z"/><g><path fill-rule="evenodd" clip-rule="evenodd" fill="#163F2A" d="M64.896 194.414v-4.869c0 1.895-1.746 3.245-3.57 3.607a5.708 5.708 0 0 1-1.109.112c-1.671 0-2.887-.794-3.807-2.195l-.514.36v-34.081l.356.3c1.817-5.51 6.09-8.679 12.005-8.687 5.794 0 11.532 0 17.336.007 6.032.01 10.208 3.261 12.024 8.948l.28-.21v35.465l-.827-1.628c-.9 1.108-2.103 1.764-3.515 1.764-.219 0-.456-.016-.678-.047-1.999-.28-2.98-1.466-3.98-3.28v4.434H64.896z"/><path fill="#FFF" d="M68.141 149.962c5.793 0 11.589 0 17.392.006 5.8.01 9.942 3.178 11.515 8.812.04.127-.287.412-.073.412.043 0-.079-.011-.079-.038v30.683c0-.021.211-.049.191-.073-.017-.005.056-.02.056-.02-.1.187-.151.356-.247.54-.678 1.264-1.892 2.022-3.25 2.022-.172 0-.331-.012-.506-.037-1.707-.239-2.84-1.272-3.191-2.924-.099-.521-.054-1.073-.054-1.615v-21.641-1.893c0-.234-.017-.446-.372-.525a3.955 3.955 0 0 0-.73-.083c-.599 0-.897.339-.897 1.19v28.635H77.805c-.001 0-.001-.46-.003-.635 0-.213.112-.547-.158-.699a1.461 1.461 0 0 0-.609-.166c-.565 0-1.139.418-1.139 1.045v.456h-10v-28.488c0-.271.002-.543-.013-.813 0-.147.016-.361-.145-.385-.299-.023-.607-.06-.909-.06-.176 0-.35.013-.517.049-.435.089-.229.556-.229.855-.012 7.628-.007 15.262-.012 22.894 0 .416-.014.842-.049 1.261-.181 1.833-1.258 3.122-2.889 3.446a4.704 4.704 0 0 1-.915.093c-1.448 0-2.673-.733-3.4-2.07-.063-.115.219-.408.022-.408-.045 0 .055.015.055.052v-30.857c0 .013-.192.038-.161.058.01.005-.089 1.475-.076 1.475.006 0-.047-.363-.044-1.448.076-.165.137-.319.192-.484 1.574-5.492 5.652-8.615 11.335-8.622m0-1.548h-.002c-5.972 0-10.268 2.778-12.438 8.07l-.805-.748v37.287l1.215-.699c1.096 1.246 2.504 1.94 4.225 1.94.429 0 .808-.044 1.246-.132.904-.179 1.315-.555 2.315-1.091V195.414h25.999v-2.299c1 .592 1.817.983 2.905 1.136.262.037.57.057.837.057 1.264 0 2.244-.43 3.225-1.19l2.033 3.49v-40.35l-.706.361c-2.139-5.512-6.635-8.414-12.776-8.425-5.806-.006-11.479.22-17.273.22z"/></g><path fill-rule="evenodd" clip-rule="evenodd" fill="#163F2A" stroke="#FFF" stroke-width="2" stroke-miterlimit="10" d="M88.473 184.381l15.918 4.769s3.072 1.964 3.072 6.171c0 4.208-.279 19.917-.279 19.917s-.559 4.208-4.748 4.208c-2.793 0-5.585-1.122-5.865-4.488-.279-3.366 0-16.831 0-16.831l-10.327-4.296"/><path fill-rule="evenodd" clip-rule="evenodd" fill="#163F2A" stroke="#FFF" stroke-width="2" stroke-linecap="round" stroke-linejoin="round" stroke-miterlimit="10" d="M79.821 187.542l7.261 2.284s3.072 1.403 3.072 5.61c0 4.208-.279 19.917-.279 19.917s-.559 4.208-4.748 4.208c-2.793 0-5.585-1.122-5.865-4.488-.279-3.366 0-16.831 0-16.831l-14.243-5.33"/><g><path fill="none" stroke="#183F2A" stroke-width="5" stroke-linecap="round" stroke-miterlimit="10" d="M211.997 31.206s-3.06 12.822-17.309 21.443c-11.003 6.657-29.295 7.168-29.295 7.168l1.574 18.993-18.111-17.647s-9.752.464-19.505.464"/><g fill="#163F2A"><path d="M60.048 21.566v13.777h-3.901V21.566h-5.383v-3.728h14.69v3.728h-5.406zM69.378 17.122c1.234 0 2.222.988 2.222 2.197s-.987 2.197-2.222 2.197c-1.185 0-2.173-.988-2.173-2.197s.988-2.197 2.173-2.197zm-1.851 18.221v-12.27h3.753v12.271h-3.753zM77.401 29.22c0 1.951 1.309 3.037 2.864 3.037 1.456 0 2.271-.913 2.543-1.827l3.308 1.012c-.543 2.148-2.567 4.271-5.851 4.271-3.654 0-6.592-2.691-6.592-6.493 0-3.827 2.864-6.518 6.468-6.518 3.383 0 5.358 2.074 5.901 4.271l-3.357 1.012c-.272-.938-1.013-1.827-2.469-1.827-1.555.001-2.815 1.087-2.815 3.062zM95.966 28.233l4.889 7.111h-4.592l-2.888-4.321-1.21 1.309v3.012h-3.753V17.468h3.753v9.728l3.728-4.123h4.864l-4.791 5.16zM113.27 31.813c-.592 2.123-2.543 3.901-5.654 3.901-3.382 0-6.394-2.419-6.394-6.543 0-3.95 2.938-6.469 6.123-6.469 3.802 0 6.148 2.346 6.148 6.296 0 .518-.049 1.086-.074 1.16h-8.543c.074 1.383 1.334 2.37 2.79 2.37 1.358 0 2.124-.642 2.469-1.605l3.135.89zm-3.407-4.074c-.049-.938-.691-2.074-2.469-2.074-1.58 0-2.37 1.16-2.445 2.074h4.914zM120.404 23.073h2.395v3.284h-2.395v4.592c0 1.012.543 1.284 1.358 1.284.395 0 .765-.074.988-.123v3.111c-.148.074-.765.346-1.951.346-2.543 0-4.099-1.506-4.099-3.95v-5.259h-2.172v-3.284h.617c1.284 0 1.901-.864 1.901-2v-1.58h3.358v3.579zM137.484 40.034V23.073h3.629v1.259c.519-.79 1.852-1.555 3.605-1.555 3.555 0 5.703 2.716 5.703 6.395 0 3.753-2.419 6.444-5.852 6.444-1.58 0-2.765-.543-3.333-1.234v5.654h-3.752zm6.469-13.875c-1.457 0-2.765.987-2.765 3.037 0 2.024 1.308 3.061 2.765 3.061 1.481 0 2.79-1.012 2.79-3.061 0-2.05-1.309-3.037-2.79-3.037zM164.987 29.196c0 3.802-2.839 6.518-6.518 6.518-3.654 0-6.518-2.716-6.518-6.518s2.864-6.493 6.518-6.493c3.678-.001 6.518 2.69 6.518 6.493zm-3.754 0c0-2.074-1.333-3.037-2.765-3.037-1.407 0-2.765.963-2.765 3.037 0 2.049 1.358 3.061 2.765 3.061 1.432 0 2.765-.988 2.765-3.061zM170.959 29.862h-2.765l-.864-12.024h4.493l-.864 12.024zm-1.407 1.457a2.15 2.15 0 0 1 2.148 2.148c0 1.16-.963 2.123-2.148 2.123s-2.124-.963-2.124-2.123a2.13 2.13 0 0 1 2.124-2.148z"/></g><path fill-rule="evenodd" clip-rule="evenodd" fill="#163F2A" d="M179.96 149.851c-5.77 0-10.464-4.694-10.464-10.463 0-5.77 4.694-10.464 10.464-10.464 5.77 0 10.463 4.694 10.463 10.464 0 5.769-4.694 10.463-10.463 10.463z"/><path fill="#FCFCFC" d="M179.96 130.423a8.964 8.964 0 1 1-.002 17.928 8.964 8.964 0 0 1 .002-17.928m0-3c-6.597 0-11.964 5.367-11.964 11.964s5.367 11.963 11.964 11.963 11.963-5.367 11.963-11.963c0-6.597-5.366-11.964-11.963-11.964z"/><g><path fill-rule="evenodd" clip-rule="evenodd" fill="#163F2A" d="M184.862 230.627c-.558 0-1.087-.04-1.491-.112-1.681-.302-3.071-1.489-3.82-3.105-.765 1.327-1.879 2.38-3.142 2.836-.518.188-1.229.282-2.115.282-.679 0-1.414-.059-1.914-.158-2.788-.552-4.485-3.926-4.485-6.869v-55.924l-1.478 2.87c-.738 1.83-1.916 2.415-3.979 2.896a1.173 1.173 0 0 1-.129.025l-6.12.841-7.033 1.178a8.667 8.667 0 0 1-2.291.322c-2.711 0-4.509-1.46-4.935-4.007-.247-1.476.053-2.816.867-3.875 1.439-1.872 3.963-2.243 4.466-2.299l6.742-1.126 4.114-.705c.288-.863.786-2.244 1.463-3.713.071-.371.229-.793.463-1.351l.048-.115c1.626-5.7 5.978-8.972 11.95-8.98 5.262-.004 10.562-.004 15.814-.004 3.949.003 6.935.978 8.88 2.897 2.181 1.806 2.803 5.172 2.969 6.545l-.065.01c.092.793.079 2.532.046 6.884-.047 6.151-.118 15.446-.118 21.156 0 .234-.054.456-.149.653a2.068 2.068 0 0 1-.163.393c-.931 1.706-2.457 2.647-4.294 2.647-.362 0-.866-.038-1.243-.113-1.11-.22-1.826-.801-2.826-1.645v34.748c0 3.112-1.275 5.498-3.723 6.545-.719.308-1.593.373-2.309.373z"/><path fill="#FCFCFC" d="M187.86 151.032c3.101.003 5.995.62 7.874 2.513 2.167 1.737 2.482 5.678 2.496 5.678.027.002-.159 18.516-.159 27.802 0-.032-.002-.045-.005-.045-.016 0-.063.264-.121.369-.659 1.208-1.693 1.87-2.979 1.87-.263 0-.537-.028-.821-.084-1.478-.293-2.4-1.457-2.563-3.109-.032-.383-.017-.763-.017-1.14-.004-6.891.014-13.779.004-20.67 0-.044.013-.093.02-.143-.031-.073-.074-.127-.15-.139a7.628 7.628 0 0 0-1.063-.068c-.171 0-.213.005-.348.016l-.13 1.011V223.708c0 .998-.307 3.987-3.064 5.166-.421.18-1.221.252-1.911.252a7.76 7.76 0 0 1-1.254-.089c-1.953-.351-3.271-2.301-3.311-4.287-.04-2.525-.46-5.195-.46-7.717v-27.191c0-.566-.163-.968-.59-.968-.133 0-.226.039-.385.125-.244.137.107 3.404.107 4.813 0 9.909.037 19.812.077 29.713.006 2.495-1.611 4.731-3.211 5.309-.383.139-.99.193-1.601.193-.601 0-.982-.053-1.371-.13-2.066-.409-3.024-3.236-3.024-5.398v-43.76-14.862c0-.756-.076-1.218-.568-1.3a1.517 1.517 0 0 0-.382-.049c-.448 0-.723.424-.723.424l-3.112 5.865c-.485 1.252-1.156 1.636-2.984 2.063l-6.131.841-7.174 1.2s-.891.286-1.953.286c-1.39 0-3.078-.49-3.457-2.754-.667-3.994 4.056-4.441 4.056-4.441l6.786-1.134 5.021-.86s.645-2.229 1.767-4.615c0-.359.436-1.277.478-1.417 1.426-5.083 5.267-7.946 10.526-7.953l15.81-.001m.002-2.618h-.003c-5.253 0-10.553-.191-15.815-.187-6.565.009-11.549 3.643-13.367 9.889l-.013-.016c-.211.502-.4.952-.512 1.433a37.918 37.918 0 0 0-1.156 2.845l-3.248.55-6.689 1.115c-.827.097-3.694.588-5.448 2.87-.749.975-1.558 2.639-1.158 5.036.542 3.244 3 5.259 6.415 5.259 1.162 0 2.152-.228 2.62-.357l6.954-1.164 6.081-.835c.092-.013.403-.03.494-.051 1.296-.303 2.881-.699 3.881-1.699v50.397c0 3.5 1.765 7.612 5.443 8.341.599.119 1.283.187 2.065.187 1.074 0 1.877-.122 2.569-.371.946-.342 1.789-.929 2.537-1.686.964 1.041 2.2 1.767 3.609 2.021.657.118 1.375.136 1.748.136 1.245 0 2.382-.166 3.148-.494 2.982-1.276 4.88-4.239 4.88-7.924v-31.881c0 .103.472.187.785.249.471.094.884.142 1.345.142 2.377 0 4.392-1.251 5.583-3.433.11-.2.174-.397.231-.567a2.98 2.98 0 0 0 .239-1.193c0-5.714.068-15.019.115-21.177.015-1.941.026-3.593.033-4.759l.006-1.371a5.333 5.333 0 0 0-.068-.895l.036-.005c-.236-1.941-.995-5.235-3.454-7.31-2.235-2.178-5.56-3.095-9.886-3.095z"/></g></g></svg>