<?xml version="1.0" encoding="utf-8"?>
<!-- Generator: Adobe Illustrator 18.0.0, SVG Export Plug-In . SVG Version: 6.00 Build 0)  -->
<!DOCTYPE svg PUBLIC "-//W3C//DTD SVG 1.1//EN" "http://www.w3.org/Graphics/SVG/1.1/DTD/svg11.dtd">
<svg version="1.1" xmlns="http://www.w3.org/2000/svg" xmlns:xlink="http://www.w3.org/1999/xlink" x="0px" y="0px"
	 viewBox="0 0 250 250" enable-background="new 0 0 250 250" xml:space="preserve">
<g id="Guides">
</g>
<g id="_x31_2_Col_Grid" opacity="0.1" enable-background="new    ">
</g>
<g id="Layer_3">
	<line fill="none" stroke="#163F2A" stroke-width="4" stroke-miterlimit="10" x1="-3.104" y1="212.414" x2="248.896" y2="212.414"/>
	<path fill-rule="evenodd" clip-rule="evenodd" fill="none" stroke="#163F2A" stroke-width="4" stroke-miterlimit="10" d="
		M110.912,187.958h-8.831c0.127-0.63,0.201-1.285,0.201-1.961v-56.321c0-4.537-3.03-8.25-6.733-8.25H0.125
		c-3.703,0-6.733,3.712-6.733,8.25v56.321c0,1.212,0.221,2.361,0.609,3.4c-0.376,0.606-0.609,1.352-0.609,2.167v5.366
		c0,1.983,1.324,3.606,2.943,3.606h114.576c1.619,0,2.943-1.623,2.943-3.606v-5.366
		C113.855,189.581,112.531,187.958,110.912,187.958z"/>
	<g>
		<path fill-rule="evenodd" clip-rule="evenodd" fill="#163F2A" d="M19.202,150.041c-3.813,0-7.58-2.231-9.373-5.551
			c-1.575-2.902-1.802-6.27-0.622-9.236c0.823-2.068,2.279-3.808,4.15-5.018l-2.498-1.769h12.938l-0.223,0.975
			c3.954,1.774,6.538,5.893,6.335,10.364c-0.203,4.779-3.742,8.894-8.604,10.001C20.626,149.963,19.918,150.041,19.202,150.041z"/>
		<path fill="#FFFFFF" d="M21.288,130.467c-0.117,0.511,0.353,0.376,0.559,0.452c3.76,1.226,6.245,4.804,6.064,8.797
			c-0.166,3.904-3.046,7.229-7.051,8.142c-0.543,0.124-1.1,0.184-1.658,0.184c-3.032,0-6.131-1.757-7.614-4.502
			c-2.709-4.993-0.369-10.893,5.028-12.658c0.224-0.073,0.495-0.056,0.634-0.287c0.006-0.013-0.02-0.051-0.038-0.068
			c-0.023-0.02-0.046-0.043-0.069-0.059C18.525,130.467,19.904,130.467,21.288,130.467 M26.31,126.467h-5.022h-4.143H4.589
			l5.479,3.885c-1.166,1.186-2.094,2.594-2.718,4.162c-1.4,3.519-1.137,7.503,0.724,10.932c2.161,4.003,6.531,6.594,11.129,6.594
			c0.865,0,1.722-0.095,2.548-0.284c5.739-1.307,9.916-6.189,10.158-11.872c0.212-4.695-2.179-9.068-6.044-11.476L26.31,126.467
			L26.31,126.467z"/>
	</g>
	<g>
		<path fill-rule="evenodd" clip-rule="evenodd" fill="#163F2A" d="M6.896,194.414v-4.869c0,1.894-1.639,3.245-3.464,3.607
			c-0.373,0.074-0.692,0.112-1.056,0.112c-1.671,0-2.966-0.794-3.887-2.195l-0.594,0.36v-34.081l0.462,0.3
			c1.817-5.51,6.143-8.679,12.058-8.687c5.795,0,11.559,0,17.362,0.007c6.032,0.01,10.615,3.261,12.431,8.948l0.687-0.21v35.465
			l-1.221-1.628c-0.9,1.108-2.299,1.764-3.712,1.764c-0.219,0-0.66-0.016-0.883-0.047c-1.999-0.28-3.185-1.466-4.185-3.28v4.434
			H6.896z"/>
		<path fill="#FFFFFF" d="M10.354,149.962c5.793,0,11.589,0,17.392,0.006c5.8,0.01,9.942,3.178,11.515,8.812
			c0.04,0.127,0.107,0.412,0.321,0.412c0.043,0,0.315-0.011,0.315-0.038c0,10.231,0,20.46,0,30.683c0-0.021-0.183-0.049-0.203-0.073
			c-0.017-0.005-0.141-0.02-0.141-0.02c-0.1,0.187-0.25,0.356-0.345,0.54c-0.678,1.264-1.941,2.022-3.299,2.022
			c-0.172,0-0.355-0.012-0.53-0.037c-1.707-0.239-2.959-1.272-3.309-2.924c-0.099-0.521-0.173-1.073-0.173-1.615
			c0-7.216,0-14.427,0-21.641c0-0.632,0-1.267,0-1.893c0-0.234,0.089-0.446-0.266-0.525c-0.249-0.054-0.608-0.083-0.784-0.083
			c-0.599,0-0.95,0.339-0.95,1.19c0,9.471,0,18.635,0,28.635h-9.879c-0.001,0-0.001-0.46-0.003-0.635
			c0-0.213,0.112-0.547-0.158-0.699c-0.176-0.095-0.539-0.166-0.715-0.166c-0.565,0-1.245,0.418-1.245,1.045
			c0,0.078,0,0.456,0,0.456h-10c0-10,0-19.068,0-28.488c0-0.271,0.108-0.543,0.094-0.813c0-0.147,0.069-0.361-0.092-0.385
			c-0.299-0.023-0.581-0.06-0.882-0.06c-0.176,0-0.337,0.013-0.504,0.049c-0.435,0.089-0.222,0.556-0.222,0.855
			c-0.012,7.628-0.003,15.262-0.009,22.894c0,0.416-0.012,0.842-0.048,1.261c-0.181,1.833-1.258,3.122-2.888,3.446
			c-0.313,0.062-0.618,0.093-0.914,0.093c-1.448,0-2.673-0.733-3.4-2.07c-0.063-0.115,0.113-0.408-0.084-0.408
			c-0.045,0-0.051,0.015-0.051,0.052c0-10.292,0-20.572,0-30.857c0,0.013-0.086,0.038-0.055,0.058
			c0.01,0.005-0.036,1.475-0.023,1.475c0.006,0-0.02-0.363-0.017-1.448c0.076-0.165,0.15-0.319,0.205-0.484
			C0.58,153.092,4.671,149.969,10.354,149.962 M10.354,148.414h-0.001h-0.001c-5.972,0-10.374,2.777-12.544,8.069l-0.912-0.749
			v3.246v30.857v3.185l1.321-0.699c1.096,1.246,2.557,1.94,4.278,1.94c0.429,0,0.728-0.044,1.166-0.132
			c0.904-0.179,2.235-0.555,2.235-1.091v0.151v2.222h2.217h10.143h2h10.008h1.632v-2.222v-0.077c1,0.592,1.924,0.983,3.011,1.136
			c0.262,0.037,0.624,0.057,0.89,0.057c1.264,0,2.664-0.43,3.645-1.19l2.453,3.49v-6.77v-30.683v-2.897l-1.1,0.361
			c-2.139-5.512-6.832-8.414-12.973-8.425C22.018,148.188,16.148,148.414,10.354,148.414L10.354,148.414z"/>
	</g>
	<path fill-rule="evenodd" clip-rule="evenodd" fill="#163F2A" stroke="#FFFFFF" stroke-width="2" stroke-miterlimit="10" d="
		M30.685,184.381l15.918,4.769c0,0,3.072,1.964,3.072,6.171c0,4.208-0.279,19.917-0.279,19.917s-0.559,4.208-4.748,4.208
		c-2.793,0-5.585-1.122-5.865-4.488c-0.279-3.366,0-16.831,0-16.831l-10.327-4.296"/>
	
		<path fill-rule="evenodd" clip-rule="evenodd" fill="#163F2A" stroke="#FFFFFF" stroke-width="2" stroke-linecap="round" stroke-linejoin="round" stroke-miterlimit="10" d="
		M22.033,187.542l7.261,2.284c0,0,3.072,1.403,3.072,5.61c0,4.208-0.279,19.917-0.279,19.917s-0.559,4.208-4.748,4.208
		c-2.793,0-5.585-1.122-5.865-4.488c-0.279-3.366,0-16.831,0-16.831l-14.243-5.33"/>
	<g>
		<path fill-rule="evenodd" clip-rule="evenodd" fill="#163F2A" d="M76.99,150.041c-3.813,0-7.58-2.231-9.373-5.551
			c-1.575-2.902-1.802-6.27-0.622-9.236c0.828-2.079,2.294-3.826,4.179-5.037l-2.42-1.75h12.831l-0.223,0.975
			c3.954,1.774,6.537,5.893,6.335,10.364c-0.203,4.779-3.741,8.894-8.604,10.001C78.414,149.963,77.706,150.041,76.99,150.041z"/>
		<path fill="#FFFFFF" d="M79.075,130.467c-0.117,0.511,0.353,0.376,0.559,0.452c3.76,1.226,6.245,4.804,6.064,8.797
			c-0.166,3.904-3.046,7.229-7.051,8.142c-0.543,0.124-1.1,0.184-1.658,0.184c-3.032,0-6.131-1.757-7.614-4.502
			c-2.709-4.993-0.369-10.893,5.028-12.658c0.224-0.073,0.495-0.056,0.634-0.287c0.006-0.013-0.02-0.051-0.038-0.068
			c-0.023-0.02-0.046-0.043-0.069-0.059C76.313,130.467,77.691,130.467,79.075,130.467 M84.098,126.467h-5.023h-4.143H62.404
			l5.456,3.88c-1.168,1.187-2.098,2.597-2.723,4.168c-1.4,3.519-1.137,7.503,0.724,10.932c2.161,4.003,6.531,6.594,11.129,6.594
			c0.865,0,1.722-0.095,2.548-0.284c5.739-1.307,9.916-6.189,10.158-11.872c0.212-4.694-2.179-9.067-6.044-11.475L84.098,126.467
			L84.098,126.467z"/>
	</g>
	<g>
		<path fill-rule="evenodd" clip-rule="evenodd" fill="#163F2A" d="M64.896,194.414v-4.869c0,1.895-1.746,3.245-3.57,3.607
			c-0.373,0.074-0.745,0.112-1.109,0.112c-1.671,0-2.887-0.794-3.807-2.195l-0.514,0.36v-34.081l0.356,0.3
			c1.817-5.51,6.09-8.679,12.005-8.687c5.794,0,11.532,0,17.336,0.007c6.032,0.01,10.208,3.261,12.024,8.948l0.28-0.21v35.465
			l-0.827-1.628c-0.9,1.108-2.103,1.764-3.515,1.764c-0.219,0-0.456-0.016-0.678-0.047c-1.999-0.28-2.98-1.466-3.98-3.28v4.434
			H64.896z"/>
		<path fill="#FFFFFF" d="M68.141,149.962c5.793,0,11.589,0,17.392,0.006c5.8,0.01,9.942,3.178,11.515,8.812
			c0.04,0.127-0.287,0.412-0.073,0.412c0.043,0-0.079-0.011-0.079-0.038c0,10.231,0,20.46,0,30.683c0-0.021,0.211-0.049,0.191-0.073
			c-0.017-0.005,0.056-0.02,0.056-0.02c-0.1,0.187-0.151,0.356-0.247,0.54c-0.678,1.264-1.892,2.022-3.25,2.022
			c-0.172,0-0.331-0.012-0.506-0.037c-1.707-0.239-2.84-1.272-3.191-2.924c-0.099-0.521-0.054-1.073-0.054-1.615
			c0-7.216,0-14.427,0-21.641c0-0.632,0-1.267,0-1.893c0-0.234-0.017-0.446-0.372-0.525c-0.249-0.054-0.555-0.083-0.73-0.083
			c-0.599,0-0.897,0.339-0.897,1.19c0,9.471,0,18.635,0,28.635H77.805c-0.001,0-0.001-0.46-0.003-0.635
			c0-0.213,0.112-0.547-0.158-0.699c-0.176-0.095-0.432-0.166-0.609-0.166c-0.565,0-1.139,0.418-1.139,1.045
			c0,0.078,0,0.456,0,0.456h-10c0-10,0-19.068,0-28.488c0-0.271,0.002-0.543-0.013-0.813c0-0.147,0.016-0.361-0.145-0.385
			c-0.299-0.023-0.607-0.06-0.909-0.06c-0.176,0-0.35,0.013-0.517,0.049c-0.435,0.089-0.229,0.556-0.229,0.855
			c-0.012,7.628-0.007,15.262-0.012,22.894c0,0.416-0.014,0.842-0.049,1.261c-0.181,1.833-1.258,3.122-2.889,3.446
			c-0.313,0.062-0.618,0.093-0.915,0.093c-1.448,0-2.673-0.733-3.4-2.07c-0.063-0.115,0.219-0.408,0.022-0.408
			c-0.045,0,0.055,0.015,0.055,0.052c0-10.292,0-20.572,0-30.857c0,0.013-0.192,0.038-0.161,0.058
			c0.01,0.005-0.089,1.475-0.076,1.475c0.006,0-0.047-0.363-0.044-1.448c0.076-0.165,0.137-0.319,0.192-0.484
			C58.38,153.092,62.458,149.969,68.141,149.962 M68.141,148.414H68.14h-0.001c-5.972,0-10.268,2.778-12.438,8.07l-0.805-0.748
			v3.245v30.857v3.185l1.215-0.699c1.096,1.246,2.504,1.94,4.225,1.94c0.429,0,0.808-0.044,1.246-0.132
			c0.904-0.179,1.315-0.555,2.315-1.091v0.151v2.222H65.9h10.143h2h10.008h1.845v-2.222v-0.077c1,0.592,1.817,0.983,2.905,1.136
			c0.262,0.037,0.57,0.057,0.837,0.057c1.264,0,2.244-0.43,3.225-1.19l2.033,3.49v-6.77v-30.683v-2.897l-0.706,0.361
			c-2.139-5.512-6.635-8.414-12.776-8.425C79.608,148.188,73.935,148.414,68.141,148.414L68.141,148.414z"/>
	</g>
	<path fill-rule="evenodd" clip-rule="evenodd" fill="#163F2A" stroke="#FFFFFF" stroke-width="2" stroke-miterlimit="10" d="
		M88.473,184.381l15.918,4.769c0,0,3.072,1.964,3.072,6.171c0,4.208-0.279,19.917-0.279,19.917s-0.559,4.208-4.748,4.208
		c-2.793,0-5.585-1.122-5.865-4.488c-0.279-3.366,0-16.831,0-16.831l-10.327-4.296"/>
	
		<path fill-rule="evenodd" clip-rule="evenodd" fill="#163F2A" stroke="#FFFFFF" stroke-width="2" stroke-linecap="round" stroke-linejoin="round" stroke-miterlimit="10" d="
		M79.821,187.542l7.261,2.284c0,0,3.072,1.403,3.072,5.61c0,4.208-0.279,19.917-0.279,19.917s-0.559,4.208-4.748,4.208
		c-2.793,0-5.585-1.122-5.865-4.488c-0.279-3.366,0-16.831,0-16.831l-14.243-5.33"/>
</g>
<g id="Layer_4">
	<path fill="none" stroke="#183F2A" stroke-width="5" stroke-linecap="round" stroke-miterlimit="10" d="M211.997,31.206
		c0,0-3.06,12.822-17.309,21.443c-11.003,6.657-29.295,7.168-29.295,7.168l1.574,18.993l-18.111-17.647
		c0,0-9.752,0.464-19.505,0.464"/>
	<g>
		<path fill="#163F2A" d="M60.048,21.566v13.777h-3.901V21.566h-5.383v-3.728h14.69v3.728H60.048z"/>
		<path fill="#163F2A" d="M69.378,17.122c1.234,0,2.222,0.988,2.222,2.197s-0.987,2.197-2.222,2.197
			c-1.185,0-2.173-0.988-2.173-2.197S68.193,17.122,69.378,17.122z M67.527,35.343V23.073h3.753v12.271H67.527z"/>
		<path fill="#163F2A" d="M77.401,29.22c0,1.951,1.309,3.037,2.864,3.037c1.456,0,2.271-0.913,2.543-1.827l3.308,1.012
			c-0.543,2.148-2.567,4.271-5.851,4.271c-3.654,0-6.592-2.691-6.592-6.493c0-3.827,2.864-6.518,6.468-6.518
			c3.383,0,5.358,2.074,5.901,4.271l-3.357,1.012c-0.272-0.938-1.013-1.827-2.469-1.827C78.661,26.159,77.401,27.245,77.401,29.22z"
			/>
		<path fill="#163F2A" d="M95.966,28.233l4.889,7.111h-4.592l-2.888-4.321l-1.21,1.309v3.012h-3.753V17.468h3.753v9.728l3.728-4.123
			h4.864L95.966,28.233z"/>
		<path fill="#163F2A" d="M113.27,31.813c-0.592,2.123-2.543,3.901-5.654,3.901c-3.382,0-6.394-2.419-6.394-6.543
			c0-3.95,2.938-6.469,6.123-6.469c3.802,0,6.148,2.346,6.148,6.296c0,0.518-0.049,1.086-0.074,1.16h-8.543
			c0.074,1.383,1.334,2.37,2.79,2.37c1.358,0,2.124-0.642,2.469-1.605L113.27,31.813z M109.863,27.739
			c-0.049-0.938-0.691-2.074-2.469-2.074c-1.58,0-2.37,1.16-2.445,2.074H109.863z"/>
		<path fill="#163F2A" d="M120.404,23.073h2.395v3.284h-2.395v4.592c0,1.012,0.543,1.284,1.358,1.284
			c0.395,0,0.765-0.074,0.988-0.123v3.111c-0.148,0.074-0.765,0.346-1.951,0.346c-2.543,0-4.099-1.506-4.099-3.95v-5.259h-2.172
			v-3.284h0.617c1.284,0,1.901-0.864,1.901-2v-1.58h3.358V23.073z"/>
		<path fill="#163F2A" d="M137.484,40.034V23.073h3.629v1.259c0.519-0.79,1.852-1.555,3.605-1.555c3.555,0,5.703,2.716,5.703,6.395
			c0,3.753-2.419,6.444-5.852,6.444c-1.58,0-2.765-0.543-3.333-1.234v5.654H137.484z M143.953,26.159
			c-1.457,0-2.765,0.987-2.765,3.037c0,2.024,1.308,3.061,2.765,3.061c1.481,0,2.79-1.012,2.79-3.061
			C146.743,27.146,145.434,26.159,143.953,26.159z"/>
		<path fill="#163F2A" d="M164.987,29.196c0,3.802-2.839,6.518-6.518,6.518c-3.654,0-6.518-2.716-6.518-6.518
			s2.864-6.493,6.518-6.493C162.147,22.702,164.987,25.393,164.987,29.196z M161.233,29.196c0-2.074-1.333-3.037-2.765-3.037
			c-1.407,0-2.765,0.963-2.765,3.037c0,2.049,1.358,3.061,2.765,3.061C159.9,32.257,161.233,31.269,161.233,29.196z"/>
		<path fill="#163F2A" d="M170.959,29.862h-2.765l-0.864-12.024h4.493L170.959,29.862z M169.552,31.319
			c1.185,0,2.148,0.963,2.148,2.148c0,1.16-0.963,2.123-2.148,2.123s-2.124-0.963-2.124-2.123
			C167.428,32.282,168.367,31.319,169.552,31.319z"/>
	</g>
	<g>
		<g>
			<path fill-rule="evenodd" clip-rule="evenodd" fill="#163F2A" d="M179.96,149.851c-5.77,0-10.464-4.694-10.464-10.463
				c0-5.77,4.694-10.464,10.464-10.464c5.77,0,10.463,4.694,10.463,10.464C190.423,145.157,185.729,149.851,179.96,149.851z"/>
			<path fill="#FCFCFC" d="M179.96,130.423c4.95,0,8.963,4.014,8.963,8.964s-4.013,8.963-8.963,8.963
				c-4.951,0-8.964-4.013-8.964-8.963S175.009,130.423,179.96,130.423 M179.96,127.423c-6.597,0-11.964,5.367-11.964,11.964
				c0,6.597,5.367,11.963,11.964,11.963c6.597,0,11.963-5.367,11.963-11.963C191.923,132.79,186.557,127.423,179.96,127.423
				L179.96,127.423z"/>
		</g>
		<g>
			<path fill-rule="evenodd" clip-rule="evenodd" fill="#163F2A" d="M184.862,230.627c-0.558,0-1.087-0.04-1.491-0.112
				c-1.681-0.302-3.071-1.489-3.82-3.105c-0.765,1.327-1.879,2.38-3.142,2.836c-0.518,0.188-1.229,0.282-2.115,0.282
				c-0.679,0-1.414-0.059-1.914-0.158c-2.788-0.552-4.485-3.926-4.485-6.869v-55.924l-1.478,2.87
				c-0.738,1.83-1.916,2.415-3.979,2.896c-0.045,0.011-0.084,0.019-0.129,0.025l-6.12,0.841l-7.033,1.178
				c-0.326,0.094-1.228,0.322-2.291,0.322c-2.711,0-4.509-1.46-4.935-4.007c-0.247-1.476,0.053-2.816,0.867-3.875
				c1.439-1.872,3.963-2.243,4.466-2.299l6.742-1.126l4.114-0.705c0.288-0.863,0.786-2.244,1.463-3.713
				c0.071-0.371,0.229-0.793,0.463-1.351l0.048-0.115c1.626-5.7,5.978-8.972,11.95-8.98c5.262-0.004,10.562-0.004,15.814-0.004
				c3.949,0.003,6.935,0.978,8.88,2.897c2.181,1.806,2.803,5.172,2.969,6.545l-0.065,0.01c0.092,0.793,0.079,2.532,0.046,6.884
				c-0.047,6.151-0.118,15.446-0.118,21.156c0,0.234-0.054,0.456-0.149,0.653c-0.042,0.134-0.091,0.263-0.163,0.393
				c-0.931,1.706-2.457,2.647-4.294,2.647c-0.362,0-0.866-0.038-1.243-0.113c-1.11-0.22-1.826-0.801-2.826-1.645v34.748
				c0,3.112-1.275,5.498-3.723,6.545C186.452,230.562,185.578,230.627,184.862,230.627z"/>
			<path fill="#FCFCFC" d="M187.86,151.032c3.101,0.003,5.995,0.62,7.874,2.513c2.167,1.737,2.482,5.678,2.496,5.678c0,0,0,0,0,0
				s0,0,0,0c0.027,0.002-0.159,18.516-0.159,27.802c0-0.032-0.002-0.045-0.005-0.045c-0.016,0-0.063,0.264-0.121,0.369
				c-0.659,1.208-1.693,1.87-2.979,1.87c-0.263,0-0.537-0.028-0.821-0.084c-1.478-0.293-2.4-1.457-2.563-3.109
				c-0.032-0.383-0.017-0.763-0.017-1.14c-0.004-6.891,0.014-13.779,0.004-20.67c0-0.044,0.013-0.093,0.02-0.143
				c-0.031-0.073-0.074-0.127-0.15-0.139c-0.282-0.044-0.694-0.068-1.063-0.068c-0.171,0-0.213,0.005-0.348,0.016l-0.13,1.011
				c0,0,0,9.98,0,14.847c0,14.655,0,29.311,0,43.968c0,0.998-0.307,3.987-3.064,5.166c-0.421,0.18-1.221,0.252-1.911,0.252
				c-0.47,0-0.947-0.033-1.254-0.089c-1.953-0.351-3.271-2.301-3.311-4.287c-0.04-2.525-0.46-5.195-0.46-7.717
				c0-9.063,0-18.127,0-27.191c0-0.566-0.163-0.968-0.59-0.968c-0.133,0-0.226,0.039-0.385,0.125
				c-0.244,0.137,0.107,3.404,0.107,4.813c0,9.909,0.037,19.812,0.077,29.713c0.006,2.495-1.611,4.731-3.211,5.309
				c-0.383,0.139-0.99,0.193-1.601,0.193c-0.601,0-0.982-0.053-1.371-0.13c-2.066-0.409-3.024-3.236-3.024-5.398
				c0-14.584,0-29.172,0-43.76c0-4.867,0-9.921,0-14.862c0-0.756-0.076-1.218-0.568-1.3c-0.099-0.035-0.299-0.049-0.382-0.049
				c-0.448,0-0.723,0.424-0.723,0.424l-3.112,5.865c-0.485,1.252-1.156,1.636-2.984,2.063l-6.131,0.841l-7.174,1.2
				c0,0-0.891,0.286-1.953,0.286c-1.39,0-3.078-0.49-3.457-2.754c-0.667-3.994,4.056-4.441,4.056-4.441l6.786-1.134l5.021-0.86
				c0,0,0.645-2.229,1.767-4.615c0-0.359,0.436-1.277,0.478-1.417c1.426-5.083,5.267-7.946,10.526-7.953
				C177.308,151.032,182.607,151.032,187.86,151.032 M187.862,148.414c-0.001,0-0.002,0-0.003,0c-5.253,0-10.553-0.191-15.815-0.187
				c-6.565,0.009-11.549,3.643-13.367,9.889l-0.013-0.016c-0.211,0.502-0.4,0.952-0.512,1.433c-0.478,1.051-0.867,2.04-1.156,2.845
				l-3.248,0.55l-6.689,1.115c-0.827,0.097-3.694,0.588-5.448,2.87c-0.749,0.975-1.558,2.639-1.158,5.036
				c0.542,3.244,3,5.259,6.415,5.259c1.162,0,2.152-0.228,2.62-0.357l6.954-1.164l6.081-0.835c0.092-0.013,0.403-0.03,0.494-0.051
				c1.296-0.303,2.881-0.699,3.881-1.699v6.637v43.76c0,3.5,1.765,7.612,5.443,8.341c0.599,0.119,1.283,0.187,2.065,0.187
				c1.074,0,1.877-0.122,2.569-0.371c0.946-0.342,1.789-0.929,2.537-1.686c0.964,1.041,2.2,1.767,3.609,2.021
				c0.657,0.118,1.375,0.136,1.748,0.136c1.245,0,2.382-0.166,3.148-0.494c2.982-1.276,4.88-4.239,4.88-7.924v-31.881
				c0,0.103,0.472,0.187,0.785,0.249c0.471,0.094,0.884,0.142,1.345,0.142c2.377,0,4.392-1.251,5.583-3.433
				c0.11-0.2,0.174-0.397,0.231-0.567c0.159-0.366,0.239-0.769,0.239-1.193c0-5.714,0.068-15.019,0.115-21.177
				c0.015-1.941,0.026-3.593,0.033-4.759l0.006-1.371c0.001-0.328-0.023-0.626-0.068-0.895l0.036-0.005
				c-0.236-1.941-0.995-5.235-3.454-7.31C195.513,149.331,192.188,148.414,187.862,148.414L187.862,148.414z"/>
		</g>
		
			<path fill-rule="evenodd" clip-rule="evenodd" fill="#163F2A" stroke="#FCFCFC" stroke-width="3" stroke-linejoin="round" stroke-miterlimit="10" d="
			M169.925,186.546"/>
	</g>
</g>
</svg>
