<?xml version="1.0" encoding="utf-8"?>
<!-- Generator: Adobe Illustrator 18.0.0, SVG Export Plug-In . SVG Version: 6.00 Build 0)  -->
<!DOCTYPE svg PUBLIC "-//W3C//DTD SVG 1.1//EN" "http://www.w3.org/Graphics/SVG/1.1/DTD/svg11.dtd">
<svg version="1.1" xmlns="http://www.w3.org/2000/svg" xmlns:xlink="http://www.w3.org/1999/xlink" x="0px" y="0px"
	 viewBox="0 0 250 250" enable-background="new 0 0 250 250" xml:space="preserve">
<g id="Guides">
</g>
<g id="_x31_2_Col_Grid" opacity="0.1" enable-background="new    ">
</g>
<g id="Layer_3">
	<g>
		<path fill="#163F2A" d="M170.407,169.202h-28.788c-4.133,0-7.495-4.113-7.495-9.169v-2.017c0-5.056,3.362-9.169,7.495-9.169
			h13.656V93.058c0-5.143,3.416-9.327,7.615-9.327h7.398c4.199,0,7.615,4.184,7.615,9.327v64.694c0,0.045-0.001,0.09-0.003,0.135
			c0.002,0.034,0.003,0.081,0.003,0.128v2.017C177.902,165.088,174.54,169.202,170.407,169.202z M141.619,153.43
			c-1.377,0-2.911,1.883-2.911,4.585v2.017c0,2.702,1.534,4.585,2.911,4.585h28.788c1.377,0,2.911-1.883,2.911-4.585v-1.979
			c-0.003-0.051-0.004-0.096-0.005-0.141v-0.058c0.001-0.048,0.003-0.095,0.005-0.141V93.058c0-2.795-1.597-4.743-3.03-4.743h-7.398
			c-1.433,0-3.03,1.948-3.03,4.743v60.372H141.619z"/>
	</g>
	<g>
		<rect x="83.896" y="176.414" fill="#163F2A" width="167" height="4"/>
	</g>
	<g>
		<rect x="-4.104" y="43.414" fill="#163F2A" width="257" height="5"/>
	</g>
	<g>
		<path fill="#163F2A" d="M66.074,203.457H13.278c-4.447,0-8.065-3.618-8.065-8.065V85.735c0-4.447,3.618-8.065,8.065-8.065h52.795
			c4.447,0,8.065,3.618,8.065,8.065v109.657C74.138,199.839,70.521,203.457,66.074,203.457z M13.278,82.255
			c-1.919,0-3.48,1.561-3.48,3.48v109.657c0,1.919,1.561,3.48,3.48,3.48h52.795c1.919,0,3.48-1.561,3.48-3.48V85.735
			c0-1.919-1.561-3.48-3.48-3.48H13.278z"/>
	</g>
	<g>
		<g>
			<path fill-rule="evenodd" clip-rule="evenodd" fill="#163F2A" d="M109.394,190.432l0.925-1.141
				c-1.189-0.777-1.906-1.783-2.338-2.791c-0.561,1.318-1.555,2.382-2.933,3.12l0.206,0.812h-7.739l0.63-1.031
				c-1.029-0.639-1.792-1.478-2.312-2.538c-0.647-1.319-0.701-2.635-0.701-3.979V143.28c-0.736,1.005-1.806,1.697-3.101,1.953
				c-0.412,0.082-0.826,0.124-1.229,0.124c-1.739,0-3.264-0.76-4.299-2.115l-1.089,0.524V107.41l0.811,0.413
				c2.024-5.506,6.6-8.669,12.705-8.677c5.946,0,11.894,0,17.849,0.007c6.24,0.01,10.888,3.272,12.91,8.998l0.751-0.283v38.611
				l-1.655-2.571c-0.982,0.947-2.281,1.492-3.653,1.492c-0.246,0-0.494-0.017-0.744-0.052c-1.479-0.207-2.699-0.885-3.528-1.913
				v39.214c0,0.361,0,0.718-0.012,1.065c-0.125,3.038-1.525,4.724-3,5.659l0.613,1.059H109.394z"/>
			<path fill="#FFFFFF" d="M98.932,100.647c5.944,0,11.891,0,17.845,0.007c5.952,0.01,10.201,3.246,11.815,9.001
				c0.041,0.129-0.042,0.421,0.178,0.421c0.044,0,0.1-0.012,0.171-0.039c0,10.45,0,20.899,0,31.341
				c-0.014-0.022-0.036-0.051-0.056-0.074c-0.018-0.005-0.069-0.02-0.069-0.02c-0.103,0.191-0.218,0.364-0.316,0.551
				c-0.696,1.291-1.973,2.066-3.366,2.066c-0.177,0-0.355-0.012-0.534-0.038c-1.751-0.244-2.96-1.3-3.32-2.987
				c-0.102-0.533-0.102-1.096-0.102-1.65c0-7.371,0-14.737,0-22.106c0-0.646,0-1.295,0-1.933c0-0.239,0.021-0.455-0.344-0.536
				c-0.255-0.055-0.471-0.085-0.651-0.085c-0.615,0-0.822,0.346-0.822,1.216c0,22.29,0,44.581,0,66.867c0,0.344,0,0.684-0.011,1.015
				c-0.094,2.272-1.011,4.011-3.219,4.912c-0.15,0.059-0.457,0.037-0.271,0.357c-1.113,0-2.22,0-3.317,0
				c0.036-0.044,0.084-0.099,0.079-0.125c-0.018-0.052-0.083-0.098-0.131-0.12c-2.877-1.001-3.668-3.187-3.661-6.007
				c0.045-11.207,0.027-22.411,0.027-33.625c0-1.591,0.008-3.191-0.013-4.787c0-0.217,0.115-0.502-0.162-0.657
				c-0.18-0.097-0.368-0.142-0.549-0.142c-0.579,0-1.092,0.455-1.092,1.096c0,10.258,0,20.513,0,30.768
				c-0.01,2.852,0.017,5.704-0.029,8.561c-0.045,2.247-1.181,3.814-3.254,4.681c-0.17,0.064-0.531-0.044-0.43,0.357
				c-1.053,0-2.096,0-3.138,0c0.027-0.044,0.054-0.088,0.074-0.137c0-0.008-0.043-0.047-0.065-0.066
				c-1.306-0.477-2.383-1.232-3.019-2.528c-0.518-1.055-0.548-2.184-0.548-3.317c0-22.318,0-44.64,0-66.953
				c0-0.276,0-0.555-0.015-0.831c0-0.15,0.015-0.369-0.15-0.393c-0.306-0.023-0.623-0.062-0.933-0.062
				c-0.181,0-0.359,0.013-0.531,0.05c-0.447,0.091-0.235,0.568-0.235,0.873c-0.013,7.792-0.007,15.59-0.013,23.385
				c0,0.425-0.014,0.859-0.051,1.288c-0.185,1.873-1.291,3.189-2.964,3.52c-0.321,0.064-0.634,0.095-0.938,0.095
				c-1.486,0-2.743-0.749-3.489-2.115c-0.065-0.118-0.015-0.417-0.217-0.417c-0.046,0-0.106,0.016-0.183,0.053
				c0-10.513,0-21.014,0-31.52c0.027,0.014,0.042,0.039,0.074,0.059c0.014,0.008,0.051,0.027,0.056,0.027c0,0,0.001,0,0.001,0
				c0.078-0.169,0.17-0.325,0.227-0.494C88.887,103.844,93.1,100.653,98.932,100.647 M98.932,97.647H98.93h-0.002
				c-6.08,0.007-10.928,2.993-13.449,8.13l-1.565-0.788v4.869v31.52v4.771l2.242-1.078c1.254,1.142,2.882,1.786,4.646,1.786
				c0.501,0,1.014-0.051,1.524-0.153c0.458-0.091,0.895-0.223,1.306-0.393v36.574c0,1.467,0.066,3.034,0.855,4.64
				c0.422,0.86,0.983,1.61,1.678,2.248l-1.301,2.137l5.325,0.022h3.138h3.85l-0.005-0.02l5.37,0.02h3.317h5.202l-1.262-2.18
				c1.564-1.454,2.445-3.494,2.547-5.965c0.013-0.387,0.013-0.761,0.013-1.138v-36.296c0.564,0.228,1.174,0.39,1.823,0.481
				c0.31,0.044,0.631,0.067,0.949,0.067c1.163,0,2.284-0.303,3.271-0.854l3.536,5.418v-10.086v-31.341v-4.338l-1.414,0.533
				c-2.484-5.412-7.456-8.568-13.745-8.579C110.825,97.647,104.877,97.647,98.932,97.647L98.932,97.647z M106.771,190.318
				c0.444-0.318,0.845-0.67,1.201-1.054c0.076,0.084,0.154,0.167,0.234,0.247l-1.25,1.538L106.771,190.318L106.771,190.318z"/>
		</g>
		<g>
			<path fill-rule="evenodd" clip-rule="evenodd" fill="#163F2A" d="M108.011,100.185c-3.715,0-7.384-2.164-9.13-5.383
				c-1.536-2.819-1.762-6.086-0.618-8.963c0.903-2.271,2.595-4.135,4.772-5.312l-1.89-1.35l4.755,0.057h6.137l-0.179,0.776
				c4.091,1.623,6.792,5.748,6.588,10.24c-0.198,4.639-3.653,8.634-8.401,9.711C109.388,100.109,108.704,100.185,108.011,100.185z"
				/>
			<path fill="#FFFFFF" d="M110.151,80.733c-0.12,0.522,0.362,0.384,0.574,0.462c3.857,1.252,6.408,4.907,6.222,8.986
				c-0.17,3.988-3.125,7.384-7.234,8.316c-0.558,0.127-1.128,0.188-1.701,0.188c-3.111,0-6.291-1.794-7.812-4.598
				c-2.78-5.101-0.379-11.126,5.159-12.93c0.23-0.074,0.508-0.057,0.651-0.293c0.006-0.013-0.02-0.052-0.039-0.069
				c-0.023-0.02-0.047-0.044-0.071-0.061C107.316,80.733,108.731,80.733,110.151,80.733 M113.921,77.733h-3.771H105.9h-9.45
				l3.93,2.775c-1.551,1.268-2.764,2.901-3.51,4.776c-1.309,3.292-1.055,7.023,0.696,10.237c1.998,3.684,6.197,6.163,10.446,6.163
				c0.804,0,1.6-0.088,2.366-0.262c5.406-1.226,9.34-5.796,9.567-11.114c0.212-4.667-2.328-8.992-6.353-11.142L113.921,77.733
				L113.921,77.733z"/>
		</g>
	</g>
	<g>
		<path fill="#163F2A" d="M234.909,169.202h-28.788c-4.133,0-7.495-4.113-7.495-9.169v-2.017c0-5.056,3.362-9.169,7.495-9.169
			h13.656V93.058c0-5.143,3.416-9.327,7.615-9.327h7.397c4.199,0,7.615,4.184,7.615,9.327v64.694c0,0.044-0.001,0.088-0.003,0.132
			c0.002,0.042,0.003,0.086,0.003,0.13v2.017C242.404,165.088,239.042,169.202,234.909,169.202z M206.121,153.43
			c-1.377,0-2.911,1.883-2.911,4.585v2.017c0,2.702,1.534,4.585,2.911,4.585h28.788c1.377,0,2.91-1.883,2.91-4.585V93.058
			c0-2.795-1.597-4.743-3.03-4.743h-7.397c-1.433,0-3.03,1.948-3.03,4.743v60.372H206.121z"/>
	</g>
	<g>
		<rect x="20.966" y="78.502" fill="#163F2A" width="4.585" height="124.124"/>
	</g>
	<g>
		<rect x="53.632" y="77.693" fill="#163F2A" width="4.585" height="124.124"/>
	</g>
	<g>
		<rect x="-4.22" y="209.465" fill="#163F2A" width="89.945" height="4.585"/>
	</g>
	<line fill="none" stroke="#163F2A" stroke-width="5" stroke-miterlimit="10" x1="85.725" y1="214.05" x2="85.725" y2="176.414"/>
</g>
<g id="Layer_4">
</g>
</svg>
