<svg xmlns="http://www.w3.org/2000/svg" viewBox="0 0 250 250"><path fill="#163F2A" d="M170.407 169.202h-28.788c-4.133 0-7.495-4.113-7.495-9.169v-2.017c0-5.056 3.362-9.169 7.495-9.169h13.656V93.058c0-5.143 3.416-9.327 7.615-9.327h7.398c4.199 0 7.615 4.184 7.615 9.327v64.694l-.003.135c.002.034.003.081.003.128v2.017c-.001 5.056-3.363 9.17-7.496 9.17zm-28.788-15.772c-1.377 0-2.911 1.883-2.911 4.585v2.017c0 2.702 1.534 4.585 2.911 4.585h28.788c1.377 0 2.911-1.883 2.911-4.585v-1.979c-.003-.051-.004-.096-.005-.141v-.058a6.2 6.2 0 0 1 .005-.141V93.058c0-2.795-1.597-4.743-3.03-4.743h-7.398c-1.433 0-3.03 1.948-3.03 4.743v60.372h-18.241zM83.896 176.414h167v4h-167zM-4.104 43.414h257v5h-257zM66.074 203.457H13.278c-4.447 0-8.065-3.618-8.065-8.065V85.735c0-4.447 3.618-8.065 8.065-8.065h52.795c4.447 0 8.065 3.618 8.065 8.065v109.657c0 4.447-3.617 8.065-8.064 8.065zM13.278 82.255a3.484 3.484 0 0 0-3.48 3.48v109.657a3.484 3.484 0 0 0 3.48 3.48h52.795a3.484 3.484 0 0 0 3.48-3.48V85.735a3.484 3.484 0 0 0-3.48-3.48H13.278z"/><path fill-rule="evenodd" clip-rule="evenodd" fill="#163F2A" d="M109.394 190.432l.925-1.141a6.177 6.177 0 0 1-2.338-2.791c-.561 1.318-1.555 2.382-2.933 3.12l.206.812h-7.739l.63-1.031a6.078 6.078 0 0 1-2.312-2.538c-.647-1.319-.701-2.635-.701-3.979V143.28c-.736 1.005-1.806 1.697-3.101 1.953a6.318 6.318 0 0 1-1.229.124c-1.739 0-3.264-.76-4.299-2.115l-1.089.524V107.41l.811.413c2.024-5.506 6.6-8.669 12.705-8.677 5.946 0 11.894 0 17.849.007 6.24.01 10.888 3.272 12.91 8.998l.751-.283v38.611l-1.655-2.571a5.26 5.26 0 0 1-4.397 1.44c-1.479-.207-2.699-.885-3.528-1.913v39.214c0 .361 0 .718-.012 1.065-.125 3.038-1.525 4.724-3 5.659l.613 1.059h-9.067z"/><path fill="#FFF" d="M98.932 100.647c5.944 0 11.891 0 17.845.007 5.952.01 10.201 3.246 11.815 9.001.041.129-.042.421.178.421.044 0 .1-.012.171-.039v31.341a.687.687 0 0 0-.056-.074 7.926 7.926 0 0 1-.069-.02c-.103.191-.218.364-.316.551-.696 1.291-1.973 2.066-3.366 2.066-.177 0-.355-.012-.534-.038-1.751-.244-2.96-1.3-3.32-2.987-.102-.533-.102-1.096-.102-1.65V117.12v-1.933c0-.239.021-.455-.344-.536a3.186 3.186 0 0 0-.651-.085c-.615 0-.822.346-.822 1.216v66.867c0 .344 0 .684-.011 1.015-.094 2.272-1.011 4.011-3.219 4.912-.15.059-.457.037-.271.357h-3.317c.036-.044.084-.099.079-.125-.018-.052-.083-.098-.131-.12-2.877-1.001-3.668-3.187-3.661-6.007.045-11.207.027-22.411.027-33.625 0-1.591.008-3.191-.013-4.787 0-.217.115-.502-.162-.657a1.155 1.155 0 0 0-.549-.142c-.579 0-1.092.455-1.092 1.096v30.768c-.01 2.852.017 5.704-.029 8.561-.045 2.247-1.181 3.814-3.254 4.681-.17.064-.531-.044-.43.357h-3.138c.027-.044.054-.088.074-.137a.348.348 0 0 0-.065-.066c-1.306-.477-2.383-1.232-3.019-2.528-.518-1.055-.548-2.184-.548-3.317v-66.953c0-.276 0-.555-.015-.831 0-.15.015-.369-.15-.393-.306-.023-.623-.062-.933-.062-.181 0-.359.013-.531.05-.447.091-.235.568-.235.873-.013 7.792-.007 15.59-.013 23.385 0 .425-.014.859-.051 1.288-.185 1.873-1.291 3.189-2.964 3.52a4.792 4.792 0 0 1-.938.095c-1.486 0-2.743-.749-3.489-2.115-.065-.118-.015-.417-.217-.417a.444.444 0 0 0-.183.053v-31.52c.027.014.042.039.074.059a.384.384 0 0 0 .056.027h.001c.078-.169.17-.325.227-.494 1.616-5.606 5.829-8.797 11.661-8.803m0-3h-.004c-6.08.007-10.928 2.993-13.449 8.13l-1.565-.788v41.16l2.242-1.078a6.846 6.846 0 0 0 4.646 1.786c.501 0 1.014-.051 1.524-.153a6.967 6.967 0 0 0 1.306-.393v36.574c0 1.467.066 3.034.855 4.64.422.86.983 1.61 1.678 2.248l-1.301 2.137 5.325.022H107.177l-.005-.02 5.37.02h8.519l-1.262-2.18c1.564-1.454 2.445-3.494 2.547-5.965.013-.387.013-.761.013-1.138v-36.296c.564.228 1.174.39 1.823.481a6.704 6.704 0 0 0 4.22-.787l3.536 5.418V105.7l-1.414.533c-2.484-5.412-7.456-8.568-13.745-8.579-5.954-.007-11.902-.007-17.847-.007zm7.839 92.671c.444-.318.845-.67 1.201-1.054.076.084.154.167.234.247l-1.25 1.538-.185-.731z"/><path fill-rule="evenodd" clip-rule="evenodd" fill="#163F2A" d="M108.011 100.185c-3.715 0-7.384-2.164-9.13-5.383-1.536-2.819-1.762-6.086-.618-8.963.903-2.271 2.595-4.135 4.772-5.312l-1.89-1.35 4.755.057h6.137l-.179.776c4.091 1.623 6.792 5.748 6.588 10.24-.198 4.639-3.653 8.634-8.401 9.711a9.268 9.268 0 0 1-2.034.224z"/><path fill="#FFF" d="M110.151 80.733c-.12.522.362.384.574.462a8.997 8.997 0 0 1 6.222 8.986c-.17 3.988-3.125 7.384-7.234 8.316a7.658 7.658 0 0 1-1.701.188c-3.111 0-6.291-1.794-7.812-4.598-2.78-5.101-.379-11.126 5.159-12.93.23-.074.508-.057.651-.293.006-.013-.02-.052-.039-.069-.023-.02-.047-.044-.071-.061l4.251-.001m3.77-3H96.45l3.93 2.775a11.805 11.805 0 0 0-3.51 4.776c-1.309 3.292-1.055 7.023.696 10.237 1.998 3.684 6.197 6.163 10.446 6.163.804 0 1.6-.088 2.366-.262 5.406-1.226 9.34-5.796 9.567-11.114.212-4.667-2.328-8.992-6.353-11.142l.329-1.433z"/><path fill="#163F2A" d="M234.909 169.202h-28.788c-4.133 0-7.495-4.113-7.495-9.169v-2.017c0-5.056 3.362-9.169 7.495-9.169h13.656V93.058c0-5.143 3.416-9.327 7.615-9.327h7.397c4.199 0 7.615 4.184 7.615 9.327v64.694l-.003.132c.002.042.003.086.003.13v2.017c0 5.057-3.362 9.171-7.495 9.171zm-28.788-15.772c-1.377 0-2.911 1.883-2.911 4.585v2.017c0 2.702 1.534 4.585 2.911 4.585h28.788c1.377 0 2.91-1.883 2.91-4.585V93.058c0-2.795-1.597-4.743-3.03-4.743h-7.397c-1.433 0-3.03 1.948-3.03 4.743v60.372h-18.241zM20.966 78.502h4.585v124.124h-4.585z"/><g><path fill="#163F2A" d="M53.632 77.693h4.585v124.124h-4.585z"/></g><g><path fill="#163F2A" d="M-4.22 209.465h89.945v4.585H-4.22z"/></g><path fill="none" stroke="#163F2A" stroke-width="5" stroke-miterlimit="10" d="M85.725 214.05v-37.636"/></svg>