<svg xmlns="http://www.w3.org/2000/svg" viewBox="0 0 250 250"><path fill="#163F2A" d="M50.924 128.45l5.776.74-15.548 121.435-5.776-.74zM201.027 129.021l15.548 121.435-5.776.74-15.548-121.435z"/><path fill="#163F2A" d="M221.176 131.732H31.097c-6.412 0-11.628-5.216-11.628-11.628V92.266c0-6.412 5.216-11.628 11.628-11.628h190.079c6.412 0 11.628 5.216 11.628 11.628v27.837c-.001 6.413-5.217 11.629-11.628 11.629zM31.097 86.461a5.811 5.811 0 0 0-5.805 5.805v27.837a5.811 5.811 0 0 0 5.805 5.805h190.079a5.811 5.811 0 0 0 5.805-5.805V92.266a5.811 5.811 0 0 0-5.805-5.805H31.097zM45.956 211.62h159.963v5.823H45.956z"/><path fill="#163F2A" d="M78.107 129.747l5.774.753-11.244 86.17-5.775-.754zM171.392 127.85l11.245 86.169-5.774.753-11.245-86.169z"/><path fill-rule="evenodd" clip-rule="evenodd" fill="#163F2A" d="M128.312 253.32l.897-1.11c-1.737-1.043-2.631-2.512-3.09-3.911-.56 1.841-1.809 3.273-3.693 4.218l.202.803h-8.088l.625-1.012c-1.254-.725-2.171-1.697-2.783-2.944-.72-1.465-.78-2.944-.78-4.457V198.39a5.476 5.476 0 0 1-3.889 2.936 6.992 6.992 0 0 1-1.362.137c-1.987 0-3.721-.903-4.862-2.505l-1.066.512v-40.95l.815.415c2.266-6.424 7.48-10.085 14.464-10.093 6.841 0 13.682 0 20.533.008 7.149.012 12.451 3.798 14.688 10.432l.759-.287v43.057l-1.581-2.425c-1.103 1.191-2.633 1.886-4.255 1.886-.272 0-.548-.019-.819-.058-1.971-.275-3.491-1.262-4.366-2.786v45.966c0 .412 0 .819-.013 1.215-.123 2.984-1.314 5.14-3.547 6.433l.6 1.037h-9.389z"/><path fill="#FFF" d="M115.704 150.298c6.838 0 13.679 0 20.529.008 6.847.012 11.735 3.735 13.592 10.355.047.149-.048.484.204.484.05 0 .115-.013.197-.044v36.056a.878.878 0 0 0-.065-.085l-.079-.023c-.118.219-.251.419-.363.634-.8 1.485-2.27 2.376-3.872 2.376-.203 0-.408-.014-.615-.043-2.015-.281-3.405-1.495-3.819-3.436-.117-.613-.117-1.26-.117-1.898v-25.431-2.224c0-.275.024-.524-.395-.617a3.685 3.685 0 0 0-.749-.098c-.708 0-.945.398-.945 1.399v76.926c0 .396 0 .787-.013 1.167-.108 2.614-1.163 4.615-3.703 5.651-.172.068-.525.043-.312.411h-3.816c.041-.05.096-.115.091-.144-.02-.06-.095-.113-.151-.138-3.31-1.152-4.219-3.667-4.212-6.911.051-12.893.031-25.782.031-38.683 0-1.83.01-3.671-.015-5.507 0-.25.133-.578-.186-.756a1.325 1.325 0 0 0-.632-.163 1.25 1.25 0 0 0-1.257 1.261v35.396c-.012 3.281.019 6.562-.033 9.849-.051 2.585-1.358 4.388-3.744 5.385-.196.074-.611-.05-.494.411h-3.61c.031-.05.062-.101.085-.157a.344.344 0 0 0-.075-.075c-1.503-.549-2.741-1.417-3.473-2.909-.596-1.214-.63-2.513-.63-3.816v-77.025c0-.318 0-.638-.017-.956 0-.173.017-.425-.173-.452-.353-.027-.717-.071-1.074-.071-.208 0-.413.015-.611.057-.514.105-.27.653-.27 1.005-.015 8.964-.008 17.935-.015 26.903 0 .489-.016.989-.058 1.482-.213 2.154-1.486 3.669-3.41 4.049-.369.073-.73.109-1.079.109-1.71 0-3.156-.861-4.014-2.433-.075-.136-.017-.479-.249-.479a.503.503 0 0 0-.21.061v-36.261c.031.015.048.044.085.068a.443.443 0 0 0 .064.031h.001c.09-.194.196-.374.261-.568 1.859-6.453 6.706-10.123 13.415-10.131m0-2.912h-.004c-6.968.008-12.485 3.526-15.223 9.553l-1.509-.755V201.786l2.134-1.026c1.37 1.39 3.201 2.159 5.25 2.159.541 0 1.096-.056 1.647-.165a7.2 7.2 0 0 0 2.148-.787v42.94c0 1.278 0 3.21.928 5.1a8.132 8.132 0 0 0 2.133 2.706l-1.263 2.049 5.205.014H124.497l-.391-1.551a8.565 8.565 0 0 0 2.007-1.826c.299.391.633.752 1 1.082l-1.838 2.267 6.086.029h8.866l-1.198-2.07c1.592-1.32 2.934-3.426 3.072-6.784.015-.452.015-.876.015-1.287v-42.607a8.015 8.015 0 0 0 2.712.87 7.2 7.2 0 0 0 4.954-1.106l3.355 5.119V156.89l-1.368.516c-2.691-6.388-8.23-10-15.532-10.012-6.852-.008-13.694-.008-20.533-.008z"/><g><path fill-rule="evenodd" clip-rule="evenodd" fill="#163F2A" d="M126.149 149.497c-4.177 0-8.303-2.432-10.266-6.052-1.729-3.173-1.983-6.849-.697-10.083 1.067-2.682 3.112-4.859 5.741-6.168l-1.78-1.261h11.291l-.181.79c4.726 1.77 7.859 6.472 7.626 11.601-.222 5.217-4.11 9.709-9.455 10.921-.735.167-1.502.252-2.279.252z"/><path fill="#FFF" d="M128.61 127.389c-.139.601.417.442.66.531a10.35 10.35 0 0 1 7.158 10.337c-.196 4.588-3.595 8.495-8.323 9.567a8.812 8.812 0 0 1-1.957.216c-3.579 0-7.237-2.064-8.987-5.29-3.198-5.868-.435-12.8 5.935-14.875.265-.085.585-.066.749-.338.007-.015-.023-.06-.045-.079-.027-.023-.054-.05-.081-.07l4.891.001m3.659-2.911h-17.655l3.679 2.62a13.08 13.08 0 0 0-4.461 5.727c-1.446 3.638-1.165 7.763.773 11.319 2.207 4.07 6.848 6.808 11.543 6.808.885 0 1.761-.097 2.602-.288 5.982-1.357 10.336-6.407 10.587-12.282.241-5.3-2.728-10.201-7.39-12.507l.322-1.397z"/></g><g><path fill="#163F2A" d="M81.853 106.152c0-5.276 4.011-8.857 8.738-8.857 5.085 0 7.329 3.27 7.878 5.706l-3.557 1.122c-.263-1.17-1.337-3.151-4.321-3.151-2.268 0-4.823 1.623-4.823 5.18 0 3.175 2.339 5.013 4.87 5.013 2.936 0 4.106-1.957 4.44-3.175l3.605 1.026c-.549 2.34-2.793 5.921-8.045 5.921-4.869 0-8.785-3.509-8.785-8.785zM108.949 97.295c4.751 0 8.785 3.462 8.785 8.833 0 5.348-4.034 8.809-8.785 8.809-4.775 0-8.81-3.462-8.81-8.809.001-5.372 4.036-8.833 8.81-8.833zm0 13.918c2.339 0 4.87-1.576 4.87-5.109s-2.53-5.133-4.87-5.133c-2.364 0-4.894 1.6-4.894 5.133s2.531 5.109 4.894 5.109zM135.902 114.579v-11.22l-4.417 11.22h-3.056l-4.417-11.077v11.077h-3.581V97.653h4.918l4.655 11.435 4.417-11.435h5.18v16.926h-3.699zM143.279 114.579V97.653h10.719v3.557h-6.947v3.223h6.303v3.319h-6.303v3.247h6.971v3.581h-10.743zM165.218 101.258v13.322h-3.772v-13.322h-5.204v-3.605h14.204v3.605h-5.228z"/></g></svg>