<?xml version="1.0" encoding="utf-8"?>
<!-- Generator: Adobe Illustrator 18.0.0, SVG Export Plug-In . SVG Version: 6.00 Build 0)  -->
<!DOCTYPE svg PUBLIC "-//W3C//DTD SVG 1.1//EN" "http://www.w3.org/Graphics/SVG/1.1/DTD/svg11.dtd">
<svg version="1.1" xmlns="http://www.w3.org/2000/svg" xmlns:xlink="http://www.w3.org/1999/xlink" x="0px" y="0px"
	 viewBox="0 0 250 250" enable-background="new 0 0 250 250" xml:space="preserve">
<g id="Guides">
</g>
<g id="_x31_2_Col_Grid" opacity="0.1" enable-background="new    ">
</g>
<g id="Layer_3">
	<g>
		<path fill="#163F2A" d="M77.781,158.003c0,11.113-9.008,20.121-20.123,20.121c-11.113,0-20.121-9.008-20.121-20.121
			c0-11.113,9.008-20.123,20.121-20.123C68.773,137.88,77.781,146.89,77.781,158.003"/>
	</g>
	<g>
		<path fill="#163F2A" d="M34.896,214.414c0,0,0,22,0,33h46c0-11,0-22.353,0-33.446c0-1.697,0.478-2.735,1.581-2.917
			c1.416-0.496,2.512,0.843,2.512,0.843l7.125,13.165c1.088,2.81,2.664,3.673,6.767,4.632l13.797,1.888l16.122,2.693
			c0,0,10.652,3.425,12.151-5.54c1.498-8.965-9.099-9.968-9.099-9.968l-15.231-2.546l-11.55-1.93c0,0-6.522-16.531-9.502-21.656
			c-2.961-5.092-8.471-7.817-11.71-8.246l-7.766-0.266c-11.746-0.01-23.475-0.01-35.201-0.01
			c-11.51,0.01-19.825,4.645-23.004,15.706c-0.113,0.329-0.292,3.123-0.448,3.453l-0.1,44.147h15.315
			c0.002-12,0.003-22.553,0.023-33.784c0-0.602-0.094-1.674,0.466-1.761c0.927-0.145,1.356,0.002,2.313,0.079"/>
	</g>
	<g>
		<path fill="#163F2A" d="M152.772,234.068c-2.703,0-5.059-1.731-5.862-4.307l-7.194-23.085c-0.486-1.56-0.334-3.219,0.429-4.672
			c0.763-1.453,2.042-2.521,3.602-3.007l11.634-3.625c0.59-0.184,1.201-0.277,1.817-0.277c2.703,0,5.059,1.731,5.862,4.307
			l7.194,23.085c1.006,3.229-0.802,6.673-4.03,7.679l-11.634,3.625C153.999,233.975,153.387,234.068,152.772,234.068z
			 M157.197,200.036c-0.117,0-0.233,0.018-0.347,0.053l-11.634,3.625c-0.404,0.126-0.609,0.421-0.696,0.585
			c-0.086,0.164-0.212,0.501-0.086,0.905l7.194,23.085c0.187,0.602,0.871,0.975,1.49,0.782l11.634-3.625
			c0.616-0.192,0.974-0.874,0.782-1.49l-7.194-23.085C158.188,200.38,157.717,200.036,157.197,200.036z"/>
	</g>
	<g>
		<path fill="#163F2A" d="M206.574,247.789l-6.533-0.866c0.49-3.694,12.109-90.771,22.266-117.702
			c4.121-10.927,22.237-36.46,23.006-37.541l5.37,3.819c-0.183,0.258-18.388,25.914-22.21,36.047
			C218.581,157.774,206.693,246.891,206.574,247.789z"/>
	</g>
	<g>
		<path fill="#163F2A" d="M187.351,230.373c-0.693,0-1.386-0.261-1.919-0.784c-0.25-0.246-6.175-6.115-9.565-15.012
			c-3.202-8.402-4.669-21.101,6.523-33.885c1-1.141,2.734-1.256,3.875-0.257c1.141,0.999,1.256,2.734,0.257,3.875
			c-7.5,8.567-9.379,18.038-5.585,28.15c2.934,7.819,8.288,13.157,8.342,13.21c1.078,1.064,1.093,2.801,0.031,3.881
			C188.772,230.098,188.061,230.373,187.351,230.373z"/>
	</g>
	<g>
		<path fill="#163F2A" d="M193.243,218.896c-0.692,0-1.384-0.26-1.917-0.783c-4.676-4.583-11.033-16.088-1.626-26.835
			c1-1.141,2.734-1.256,3.875-0.257c1.141,0.999,1.256,2.734,0.257,3.875c-8.319,9.502,0.945,18.906,1.343,19.302
			c1.073,1.066,1.086,2.803,0.023,3.88C194.661,218.622,193.952,218.896,193.243,218.896z"/>
	</g>
</g>
<g id="Layer_4">
</g>
</svg>
