<?xml version="1.0" encoding="utf-8"?>
<!-- Generator: Adobe Illustrator 18.0.0, SVG Export Plug-In . SVG Version: 6.00 Build 0)  -->
<!DOCTYPE svg PUBLIC "-//W3C//DTD SVG 1.1//EN" "http://www.w3.org/Graphics/SVG/1.1/DTD/svg11.dtd">
<svg version="1.1" xmlns="http://www.w3.org/2000/svg" xmlns:xlink="http://www.w3.org/1999/xlink" x="0px" y="0px"
	 viewBox="0 0 250 250" enable-background="new 0 0 250 250" xml:space="preserve">
<g id="Guides">
</g>
<g id="_x31_2_Col_Grid" opacity="0.1" enable-background="new    ">
</g>
<g id="Layer_3">
	<g>
		
			<rect x="43.119" y="128.325" transform="matrix(0.9919 0.127 -0.127 0.9919 24.4516 -4.3119)" fill="#163F2A" width="5.823" height="122.427"/>
	</g>
	<g>
		
			<rect x="144.706" y="187.202" transform="matrix(0.127 0.9919 -0.9919 0.127 368.3349 -38.2875)" fill="#163F2A" width="122.427" height="5.823"/>
	</g>
	<g>
		<path fill="#163F2A" d="M221.176,131.732H31.097c-6.412,0-11.628-5.216-11.628-11.628V92.266c0-6.412,5.216-11.628,11.628-11.628
			h190.079c6.412,0,11.628,5.216,11.628,11.628v27.837C232.803,126.516,227.587,131.732,221.176,131.732z M31.097,86.461
			c-3.201,0-5.805,2.604-5.805,5.805v27.837c0,3.201,2.604,5.805,5.805,5.805h190.079c3.201,0,5.805-2.604,5.805-5.805V92.266
			c0-3.201-2.604-5.805-5.805-5.805H31.097z"/>
	</g>
	<g>
		<rect x="45.956" y="211.62" fill="#163F2A" width="159.963" height="5.823"/>
	</g>
	<g>
		
			<rect x="72.461" y="129.757" transform="matrix(0.9916 0.1294 -0.1294 0.9916 23.0454 -8.2967)" fill="#163F2A" width="5.823" height="86.899"/>
	</g>
	<g>
		
			<rect x="130.675" y="168.394" transform="matrix(0.1294 0.9916 -0.9916 0.1294 321.4626 -23.518)" fill="#163F2A" width="86.899" height="5.823"/>
	</g>
	<g>
		<g>
			<g>
				<path fill-rule="evenodd" clip-rule="evenodd" fill="#163F2A" d="M128.312,253.32l0.897-1.11
					c-1.737-1.043-2.631-2.512-3.09-3.911c-0.56,1.841-1.809,3.273-3.693,4.218l0.202,0.803h-8.088l0.625-1.012
					c-1.254-0.725-2.171-1.697-2.783-2.944c-0.72-1.465-0.78-2.944-0.78-4.457V198.39c-0.782,1.532-2.151,2.593-3.889,2.936
					c-0.457,0.091-0.915,0.137-1.362,0.137c-1.987,0-3.721-0.903-4.862-2.505l-1.066,0.512V158.52l0.815,0.415
					c2.266-6.424,7.48-10.085,14.464-10.093c6.841,0,13.682,0,20.533,0.008c7.149,0.012,12.451,3.798,14.688,10.432l0.759-0.287
					v43.057l-1.581-2.425c-1.103,1.191-2.633,1.886-4.255,1.886c-0.272,0-0.548-0.019-0.819-0.058
					c-1.971-0.275-3.491-1.262-4.366-2.786v45.966c0,0.412,0,0.819-0.013,1.215c-0.123,2.984-1.314,5.14-3.547,6.433l0.6,1.037
					H128.312z"/>
			</g>
			<g>
				<path fill="#FFFFFF" d="M115.704,150.298c6.838,0,13.679,0,20.529,0.008c6.847,0.012,11.735,3.735,13.592,10.355
					c0.047,0.149-0.048,0.484,0.204,0.484c0.05,0,0.115-0.013,0.197-0.044c0,12.022,0,24.043,0,36.056
					c-0.016-0.025-0.042-0.058-0.065-0.085c-0.02-0.006-0.079-0.023-0.079-0.023c-0.118,0.219-0.251,0.419-0.363,0.634
					c-0.8,1.485-2.27,2.376-3.872,2.376c-0.203,0-0.408-0.014-0.615-0.043c-2.015-0.281-3.405-1.495-3.819-3.436
					c-0.117-0.613-0.117-1.26-0.117-1.898c0-8.48,0-16.953,0-25.431c0-0.743,0-1.489,0-2.224c0-0.275,0.024-0.524-0.395-0.617
					c-0.294-0.063-0.541-0.098-0.749-0.098c-0.708,0-0.945,0.398-0.945,1.399c0,25.643,0,51.287,0,76.926
					c0,0.396,0,0.787-0.013,1.167c-0.108,2.614-1.163,4.615-3.703,5.651c-0.172,0.068-0.525,0.043-0.312,0.411
					c-1.281,0-2.554,0-3.816,0c0.041-0.05,0.096-0.115,0.091-0.144c-0.02-0.06-0.095-0.113-0.151-0.138
					c-3.31-1.152-4.219-3.667-4.212-6.911c0.051-12.893,0.031-25.782,0.031-38.683c0-1.83,0.01-3.671-0.015-5.507
					c0-0.25,0.133-0.578-0.186-0.756c-0.208-0.112-0.423-0.163-0.632-0.163c-0.667,0-1.257,0.523-1.257,1.261
					c0,11.801,0,23.599,0,35.396c-0.012,3.281,0.019,6.562-0.033,9.849c-0.051,2.585-1.358,4.388-3.744,5.385
					c-0.196,0.074-0.611-0.05-0.494,0.411c-1.211,0-2.411,0-3.61,0c0.031-0.05,0.062-0.101,0.085-0.157
					c0-0.01-0.049-0.054-0.075-0.075c-1.503-0.549-2.741-1.417-3.473-2.909c-0.596-1.214-0.63-2.513-0.63-3.816
					c0-25.676,0-51.355,0-77.025c0-0.318,0-0.638-0.017-0.956c0-0.173,0.017-0.425-0.173-0.452
					c-0.353-0.027-0.717-0.071-1.074-0.071c-0.208,0-0.413,0.015-0.611,0.057c-0.514,0.105-0.27,0.653-0.27,1.005
					c-0.015,8.964-0.008,17.935-0.015,26.903c0,0.489-0.016,0.989-0.058,1.482c-0.213,2.154-1.486,3.669-3.41,4.049
					c-0.369,0.073-0.73,0.109-1.079,0.109c-1.71,0-3.156-0.861-4.014-2.433c-0.075-0.136-0.017-0.479-0.249-0.479
					c-0.053,0-0.121,0.018-0.21,0.061c0-12.094,0-24.175,0-36.261c0.031,0.015,0.048,0.044,0.085,0.068
					c0.016,0.009,0.058,0.031,0.064,0.031c0,0,0.001,0,0.001,0c0.09-0.194,0.196-0.374,0.261-0.568
					C104.148,153.976,108.995,150.306,115.704,150.298 M115.704,147.386h-0.002H115.7c-6.968,0.008-12.485,3.526-15.223,9.553
					l-1.509-0.755v4.711v36.261v4.63l2.134-1.026c1.37,1.39,3.201,2.159,5.25,2.159c0.541,0,1.096-0.056,1.647-0.165
					c0.779-0.154,1.499-0.421,2.148-0.787v42.94c0,1.278,0,3.21,0.928,5.1c0.518,1.055,1.231,1.959,2.133,2.706l-1.263,2.049
					l5.205,0.014h3.61h3.737l-0.391-1.551c0.786-0.519,1.457-1.132,2.007-1.826c0.299,0.391,0.633,0.752,1,1.082l-1.838,2.267
					l6.086,0.029h3.816h5.05l-1.198-2.07c1.592-1.32,2.934-3.426,3.072-6.784c0.015-0.452,0.015-0.876,0.015-1.287v-42.607
					c0.804,0.434,1.715,0.731,2.712,0.87c0.333,0.047,0.677,0.072,1.017,0.072c1.418,0,2.778-0.422,3.937-1.178l3.355,5.119v-9.754
					V161.1v-4.21l-1.368,0.516c-2.691-6.388-8.23-10-15.532-10.012C129.385,147.386,122.543,147.386,115.704,147.386
					L115.704,147.386z"/>
			</g>
		</g>
		<g>
			<g>
				<path fill-rule="evenodd" clip-rule="evenodd" fill="#163F2A" d="M126.149,149.497c-4.177,0-8.303-2.432-10.266-6.052
					c-1.729-3.173-1.983-6.849-0.697-10.083c1.067-2.682,3.112-4.859,5.741-6.168l-1.78-1.261h11.291l-0.181,0.79
					c4.726,1.77,7.859,6.472,7.626,11.601c-0.222,5.217-4.11,9.709-9.455,10.921C127.693,149.412,126.926,149.497,126.149,149.497z"
					/>
			</g>
			<g>
				<path fill="#FFFFFF" d="M128.61,127.389c-0.139,0.601,0.417,0.442,0.66,0.531c4.438,1.441,7.371,5.645,7.158,10.337
					c-0.196,4.588-3.595,8.495-8.323,9.567c-0.641,0.146-1.298,0.216-1.957,0.216c-3.579,0-7.237-2.064-8.987-5.29
					c-3.198-5.868-0.435-12.8,5.935-14.875c0.265-0.085,0.585-0.066,0.749-0.338c0.007-0.015-0.023-0.06-0.045-0.079
					c-0.027-0.023-0.054-0.05-0.081-0.07C125.35,127.389,126.977,127.389,128.61,127.389 M132.269,124.478h-3.659h-4.89h-9.106
					l3.679,2.62c-1.994,1.457-3.546,3.426-4.461,5.727c-1.446,3.638-1.165,7.763,0.773,11.319c2.207,4.07,6.848,6.808,11.543,6.808
					c0.885,0,1.761-0.097,2.602-0.288c5.982-1.357,10.336-6.407,10.587-12.282c0.241-5.3-2.728-10.201-7.39-12.507L132.269,124.478
					L132.269,124.478z"/>
			</g>
		</g>
	</g>
	<g>
		<g>
			<path fill="#163F2A" d="M81.853,106.152c0-5.276,4.011-8.857,8.738-8.857c5.085,0,7.329,3.27,7.878,5.706l-3.557,1.122
				c-0.263-1.17-1.337-3.151-4.321-3.151c-2.268,0-4.823,1.623-4.823,5.18c0,3.175,2.339,5.013,4.87,5.013
				c2.936,0,4.106-1.957,4.44-3.175l3.605,1.026c-0.549,2.34-2.793,5.921-8.045,5.921C85.769,114.937,81.853,111.428,81.853,106.152
				z"/>
		</g>
		<g>
			<path fill="#163F2A" d="M108.949,97.295c4.751,0,8.785,3.462,8.785,8.833c0,5.348-4.034,8.809-8.785,8.809
				c-4.775,0-8.81-3.462-8.81-8.809C100.14,100.756,104.175,97.295,108.949,97.295z M108.949,111.213c2.339,0,4.87-1.576,4.87-5.109
				c0-3.533-2.53-5.133-4.87-5.133c-2.364,0-4.894,1.6-4.894,5.133C104.055,109.637,106.586,111.213,108.949,111.213z"/>
		</g>
		<g>
			<path fill="#163F2A" d="M135.902,114.579v-11.22l-4.417,11.22h-3.056l-4.417-11.077v11.077h-3.581V97.653h4.918l4.655,11.435
				l4.417-11.435h5.18v16.926H135.902z"/>
		</g>
		<g>
			<path fill="#163F2A" d="M143.279,114.579V97.653h10.719v3.557h-6.947v3.223h6.303v3.319h-6.303v3.247h6.971v3.581H143.279z"/>
		</g>
		<g>
			<path fill="#163F2A" d="M165.218,101.258v13.322h-3.772v-13.322h-5.204v-3.605h14.204v3.605H165.218z"/>
		</g>
	</g>
</g>
<g id="Layer_4">
</g>
</svg>
