<svg xmlns="http://www.w3.org/2000/svg" viewBox="0 0 250 250"><path fill="none" stroke="#163F2A" stroke-width="5" stroke-miterlimit="10" d="M157.902 155.751l-65.444-3.005c-3.93-.18-6.999-3.544-6.818-7.474l1.73-37.673c.18-3.93 3.544-6.999 7.474-6.818l65.444 3.005c3.93.18 6.999 3.544 6.818 7.474l-1.73 37.673c-.18 3.93-3.543 6.999-7.474 6.818z"/><path fill="none" stroke="#163F2A" stroke-width="5" stroke-linecap="round" stroke-linejoin="round" stroke-miterlimit="10" d="M104.061 139.207l16.617.245"/><path fill="#163F2A" d="M218.521 159.716c-.268 0-.541-.039-.811-.123l-21.192-6.526a2.75 2.75 0 1 1 1.62-5.258l21.192 6.526a2.75 2.75 0 0 1-.809 5.381zM204.034 188.562c-.563 0-1.13-.172-1.62-.529l-17.91-13.073a2.751 2.751 0 0 1 3.244-4.444l17.91 13.073a2.751 2.751 0 0 1-1.624 4.973zM181.013 211.141c-.867 0-1.72-.409-2.255-1.173l-12.724-18.16a2.75 2.75 0 1 1 4.505-3.157l12.724 18.16a2.75 2.75 0 0 1-2.25 4.33zM151.881 225.046a2.752 2.752 0 0 1-2.643-1.994l-6.11-21.315a2.751 2.751 0 0 1 5.289-1.517l6.11 21.315a2.751 2.751 0 0 1-2.646 3.511zM119.842 228.73l-.14-.003a2.75 2.75 0 0 1-2.609-2.886l1.113-22.146a2.746 2.746 0 0 1 2.886-2.609 2.75 2.75 0 0 1 2.609 2.886l-1.113 22.146a2.752 2.752 0 0 1-2.746 2.612zM88.313 221.799a2.751 2.751 0 0 1-2.552-3.777l8.267-20.575a2.751 2.751 0 0 1 5.105 2.051l-8.267 20.575a2.75 2.75 0 0 1-2.553 1.726zM60.769 204.995a2.75 2.75 0 0 1-2.08-4.55L73.19 183.67a2.75 2.75 0 1 1 4.162 3.598l-14.501 16.775a2.742 2.742 0 0 1-2.082.952zM40.158 180.194a2.751 2.751 0 0 1-1.39-5.127l19.148-11.183a2.75 2.75 0 1 1 2.775 4.751l-19.148 11.183a2.74 2.74 0 0 1-1.385.376zM28.695 150.01a2.75 2.75 0 0 1-.532-5.45l21.75-4.317a2.751 2.751 0 1 1 1.071 5.397l-21.75 4.317a2.766 2.766 0 0 1-.539.053zM49.681 120.711a2.85 2.85 0 0 1-.367-.024l-21.979-2.929a2.75 2.75 0 1 1 .727-5.453l21.979 2.929a2.75 2.75 0 0 1-.36 5.477zM57.013 96.874c-.415 0-.836-.094-1.232-.293l-19.818-9.946a2.752 2.752 0 0 1 2.468-4.918l19.818 9.946a2.752 2.752 0 0 1-1.236 5.211zM71.733 76.695a2.743 2.743 0 0 1-1.964-.824l-15.528-15.83a2.751 2.751 0 0 1 3.927-3.853l15.528 15.83a2.751 2.751 0 0 1-1.963 4.677zM92.185 62.357a2.75 2.75 0 0 1-2.484-1.566l-9.559-20.008a2.751 2.751 0 0 1 4.964-2.372l9.559 20.008a2.751 2.751 0 0 1-2.48 3.938zM116.163 55.495a2.752 2.752 0 0 1-2.73-2.441l-2.503-22.032a2.751 2.751 0 0 1 5.467-.621l2.503 22.032a2.751 2.751 0 0 1-2.737 3.062zM141.129 56.76a2.75 2.75 0 0 1-2.69-3.339l4.74-21.661a2.75 2.75 0 1 1 5.374 1.176l-4.74 21.661a2.751 2.751 0 0 1-2.684 2.163zM164.278 66.043a2.751 2.751 0 0 1-2.346-4.184l11.553-18.927a2.75 2.75 0 0 1 4.696 2.866l-11.553 18.927a2.747 2.747 0 0 1-2.35 1.318zM183.185 82.385a2.75 2.75 0 0 1-1.76-4.866l17.051-14.175a2.75 2.75 0 1 1 3.517 4.231L184.942 81.75a2.74 2.74 0 0 1-1.757.635zM195.761 103.95a2.75 2.75 0 0 1-.976-5.324l20.733-7.863a2.75 2.75 0 1 1 1.951 5.145l-20.733 7.863a2.74 2.74 0 0 1-.975.179zM200.614 128.429a2.751 2.751 0 0 1-.084-5.5l22.163-.69a2.75 2.75 0 0 1 .171 5.499l-22.163.69-.087.001z"/></svg>