<?xml version="1.0" encoding="utf-8"?>
<!-- Generator: Adobe Illustrator 18.0.0, SVG Export Plug-In . SVG Version: 6.00 Build 0)  -->
<!DOCTYPE svg PUBLIC "-//W3C//DTD SVG 1.1//EN" "http://www.w3.org/Graphics/SVG/1.1/DTD/svg11.dtd">
<svg version="1.1" xmlns="http://www.w3.org/2000/svg" xmlns:xlink="http://www.w3.org/1999/xlink" x="0px" y="0px"
	 viewBox="0 0 250 250" enable-background="new 0 0 250 250" xml:space="preserve">
<g id="Guides">
</g>
<g id="_x31_2_Col_Grid" opacity="0.1" enable-background="new    ">
</g>
<g id="Layer_3">
</g>
<g id="Layer_4">
	<circle fill="none" stroke="#163F2A" stroke-width="6" stroke-miterlimit="10" cx="210.912" cy="54.183" r="8.143"/>
	<circle fill="none" stroke="#163F2A" stroke-width="6" stroke-miterlimit="10" cx="44.448" cy="199.53" r="8.143"/>
	<line fill="none" stroke="#163F2A" stroke-width="6" stroke-miterlimit="10" x1="50.809" y1="194.378" x2="203.445" y2="61.65"/>
	<g>
		<path fill="#163F2A" d="M32.532,138.02c3.26-3.26,7.211-4.89,11.859-4.89c4.646,0,8.617,1.63,11.916,4.89
			c3.297,3.26,4.946,7.214,4.946,11.859c0,2.324-0.582,5.002-1.742,8.037c-1.163,3.035-2.568,5.845-4.216,8.431
			c-1.649,2.585-3.298,5.021-4.946,7.307c-1.649,2.287-3.035,4.103-4.159,5.452l-1.799,1.911c-0.45-0.45-1.05-1.124-1.798-2.024
			c-0.75-0.899-2.08-2.641-3.99-5.227c-1.911-2.585-3.617-5.095-5.115-7.531c-1.501-2.434-2.849-5.188-4.047-8.262
			c-1.199-3.072-1.798-5.77-1.798-8.093C27.642,145.233,29.272,141.28,32.532,138.02z M40.176,154.094
			c1.161,1.163,2.566,1.743,4.215,1.743c1.648,0,3.072-0.58,4.272-1.743c1.198-1.161,1.798-2.566,1.798-4.215
			c0-1.647-0.6-3.053-1.798-4.215c-1.199-1.161-2.624-1.743-4.272-1.743c-1.649,0-3.054,0.582-4.215,1.743
			c-1.163,1.163-1.742,2.568-1.742,4.215C38.434,151.528,39.013,152.933,40.176,154.094z"/>
	</g>
	<circle fill="#FFFFFF" stroke="#163F2A" stroke-width="6" stroke-miterlimit="10" cx="125.872" cy="129.373" r="8.143"/>
</g>
</svg>
