<svg xmlns="http://www.w3.org/2000/svg" xmlns:xlink="http://www.w3.org/1999/xlink" viewBox="0 0 160 160"><path fill="#163F2A" d="M122.239 108.195c2.484-12.282 5.759-28.923 5.759-33.061 0-5.459-6.045-32.134-8.394-41.134h1.03c2.428 0 4.367-1.656 4.367-4.083v-.301c0-2.428-1.939-5.616-4.367-5.616H38.171C35.743 24 33 27.188 33 29.616v.301C33 32.344 35.743 34 38.171 34h2.23c-2.2 9-7.926 35.676-7.926 41.134 0 4.137 3.022 20.781 5.299 33.063-3.258.219-5.773 2.946-5.773 6.258v4.924c0 3.453 2.656 6.621 6.109 6.621H39v6.159c0 2.557 2.592 4.841 5.149 4.841h6.091c2.557 0 4.76-2.284 4.76-4.841V126h51v6.159c0 2.557 2.09 4.841 4.647 4.841h6.091c2.557 0 4.261-2.284 4.261-4.841V126h1.008c3.454 0 5.992-3.167 5.992-6.621v-4.924c.001-3.327-2.48-6.064-5.76-6.26zm-11.504-13.087a5.086 5.086 0 0 1 1.888.69 39.503 39.503 0 0 0-1.888-.69zm1.44-3.896a5.14 5.14 0 1 1 0-10.28 5.14 5.14 0 0 1 0 10.28zM48.326 43.329c0-1.722 1.409-3.329 3.131-3.329h57.12c1.722 0 3.131 1.429 3.131 3.151l4.452 26.351c0 1.722-2.151 3.499-3.873 3.499h-64.54c-1.722 0-3.873-1.767-3.873-3.489l4.452-26.183zm-.703 37.602a5.14 5.14 0 1 1 0 10.28 5.14 5.14 0 0 1 0-10.28z"/><defs><path id="a" d="M835 203h1020v190H835z"/></defs><clipPath id="b"><use xlink:href="#a" overflow="visible"/></clipPath><g clip-path="url(#b)"><defs><path id="c" d="M835 155h1020v380H835z"/></defs><clipPath id="d"><use xlink:href="#c" overflow="visible"/></clipPath><g clip-path="url(#d)"><defs><path id="e" d="M835.309 55.172H1855V535H835.309z"/></defs><clipPath id="f"><use xlink:href="#e" overflow="visible"/></clipPath><path clip-path="url(#f)" stroke="#26643F" stroke-width="5.932" stroke-miterlimit="10" d="M87.939 92.116s203.153 69.224 410.82 0" fill="none"/></g></g></svg>