<svg xmlns="http://www.w3.org/2000/svg" viewBox="0 0 250 250"><path fill="#163F2A" d="M77.781 158.003c0 11.113-9.008 20.121-20.123 20.121-11.113 0-20.121-9.008-20.121-20.121s9.008-20.123 20.121-20.123c11.115 0 20.123 9.01 20.123 20.123M34.896 214.414v33h46v-33.446c0-1.697.478-2.735 1.581-2.917 1.416-.496 2.512.843 2.512.843l7.125 13.165c1.088 2.81 2.664 3.673 6.767 4.632l13.797 1.888 16.122 2.693s10.652 3.425 12.151-5.54c1.498-8.965-9.099-9.968-9.099-9.968l-15.231-2.546-11.55-1.93s-6.522-16.531-9.502-21.656c-2.961-5.092-8.471-7.817-11.71-8.246l-7.766-.266c-11.746-.01-23.475-.01-35.201-.01-11.51.01-19.825 4.645-23.004 15.706-.113.329-.292 3.123-.448 3.453l-.1 44.147h15.315c.002-12 .003-22.553.023-33.784 0-.602-.094-1.674.466-1.761.927-.145 1.356.002 2.313.079M152.772 234.068a6.11 6.11 0 0 1-5.862-4.307l-7.194-23.085a6.088 6.088 0 0 1 .429-4.672 6.092 6.092 0 0 1 3.602-3.007l11.634-3.625a6.095 6.095 0 0 1 1.817-.277 6.11 6.11 0 0 1 5.862 4.307l7.194 23.085a6.139 6.139 0 0 1-4.03 7.679l-11.634 3.625a6.111 6.111 0 0 1-1.818.277zm4.425-34.032c-.117 0-.233.018-.347.053l-11.634 3.625a1.19 1.19 0 0 0-.696.585 1.187 1.187 0 0 0-.086.905l7.194 23.085c.187.602.871.975 1.49.782l11.634-3.625c.616-.192.974-.874.782-1.49l-7.194-23.085a1.204 1.204 0 0 0-1.143-.835zM206.574 247.789l-6.533-.866c.49-3.694 12.109-90.771 22.266-117.702 4.121-10.927 22.237-36.46 23.006-37.541l5.37 3.819c-.183.258-18.388 25.914-22.21 36.047-9.892 26.228-21.78 115.345-21.899 116.243zM187.351 230.373a2.731 2.731 0 0 1-1.919-.784c-.25-.246-6.175-6.115-9.565-15.012-3.202-8.402-4.669-21.101 6.523-33.885a2.746 2.746 0 0 1 4.132 3.618c-7.5 8.567-9.379 18.038-5.585 28.15 2.934 7.819 8.288 13.157 8.342 13.21a2.747 2.747 0 0 1-1.928 4.703z"/><path fill="#163F2A" d="M193.243 218.896c-.692 0-1.384-.26-1.917-.783-4.676-4.583-11.033-16.088-1.626-26.835a2.746 2.746 0 0 1 4.132 3.618c-8.319 9.502.945 18.906 1.343 19.302a2.75 2.75 0 0 1 .023 3.88 2.74 2.74 0 0 1-1.955.818z"/></svg>