<svg xmlns="http://www.w3.org/2000/svg" viewBox="0 0 250 250"><circle fill="none" stroke="#163F2A" stroke-width="6" stroke-miterlimit="10" cx="210.912" cy="54.183" r="8.143"/><circle fill="none" stroke="#163F2A" stroke-width="6" stroke-miterlimit="10" cx="44.448" cy="199.53" r="8.143"/><path fill="none" stroke="#163F2A" stroke-width="6" stroke-miterlimit="10" d="M50.809 194.378L203.445 61.65"/><path fill="#163F2A" d="M32.532 138.02c3.26-3.26 7.211-4.89 11.859-4.89 4.646 0 8.617 1.63 11.916 4.89 3.297 3.26 4.946 7.214 4.946 11.859 0 2.324-.582 5.002-1.742 8.037-1.163 3.035-2.568 5.845-4.216 8.431a155.571 155.571 0 0 1-4.946 7.307c-1.649 2.287-3.035 4.103-4.159 5.452l-1.799 1.911c-.45-.45-1.05-1.124-1.798-2.024-.75-.899-2.08-2.641-3.99-5.227a107.064 107.064 0 0 1-5.115-7.531c-1.501-2.434-2.849-5.188-4.047-8.262-1.199-3.072-1.798-5.77-1.798-8.093-.001-4.647 1.629-8.6 4.889-11.86zm7.644 16.074c1.161 1.163 2.566 1.743 4.215 1.743 1.648 0 3.072-.58 4.272-1.743 1.198-1.161 1.798-2.566 1.798-4.215 0-1.647-.6-3.053-1.798-4.215-1.199-1.161-2.624-1.743-4.272-1.743-1.649 0-3.054.582-4.215 1.743-1.163 1.163-1.742 2.568-1.742 4.215 0 1.649.579 3.054 1.742 4.215z"/><circle fill="#FFF" stroke="#163F2A" stroke-width="6" stroke-miterlimit="10" cx="125.872" cy="129.373" r="8.143"/></svg>