<?xml version="1.0" encoding="utf-8"?>
<!-- Generator: Adobe Illustrator 18.0.0, SVG Export Plug-In . SVG Version: 6.00 Build 0)  -->
<!DOCTYPE svg PUBLIC "-//W3C//DTD SVG 1.1//EN" "http://www.w3.org/Graphics/SVG/1.1/DTD/svg11.dtd">
<svg version="1.1" xmlns="http://www.w3.org/2000/svg" xmlns:xlink="http://www.w3.org/1999/xlink" x="0px" y="0px"
	 viewBox="0 0 250 250" enable-background="new 0 0 250 250" xml:space="preserve">
<g id="Guides">
</g>
<g id="_x31_2_Col_Grid" opacity="0.1" enable-background="new    ">
</g>
<g id="Layer_3">
	<path fill="none" stroke="#163F2A" stroke-width="5" stroke-miterlimit="10" d="M157.902,155.751l-65.444-3.005
		c-3.93-0.18-6.999-3.544-6.818-7.474l1.73-37.673c0.18-3.93,3.544-6.999,7.474-6.818l65.444,3.005
		c3.93,0.18,6.999,3.544,6.818,7.474l-1.73,37.673C165.196,152.863,161.833,155.932,157.902,155.751z"/>
	
		<line fill="none" stroke="#163F2A" stroke-width="5" stroke-linecap="round" stroke-linejoin="round" stroke-miterlimit="10" x1="104.061" y1="139.207" x2="120.678" y2="139.452"/>
	<g>
		<g>
			<g>
				<path fill="#163F2A" d="M218.521,159.716c-0.268,0-0.541-0.039-0.811-0.123l-21.192-6.526c-1.452-0.447-2.267-1.987-1.819-3.439
					c0.447-1.452,1.987-2.267,3.439-1.819l21.192,6.526c1.452,0.447,2.267,1.987,1.819,3.439
					C220.785,158.956,219.697,159.716,218.521,159.716z"/>
			</g>
		</g>
		<g>
			<g>
				<path fill="#163F2A" d="M204.034,188.562c-0.563,0-1.13-0.172-1.62-0.529l-17.91-13.073c-1.227-0.896-1.496-2.617-0.6-3.844
					c0.896-1.228,2.617-1.496,3.844-0.6l17.91,13.073c1.227,0.896,1.496,2.617,0.6,3.844
					C205.72,188.171,204.882,188.562,204.034,188.562z"/>
			</g>
		</g>
		<g>
			<g>
				<path fill="#163F2A" d="M181.013,211.141c-0.867,0-1.72-0.409-2.255-1.173l-12.724-18.16c-0.872-1.244-0.57-2.96,0.674-3.831
					c1.245-0.872,2.96-0.57,3.831,0.674l12.724,18.16c0.872,1.244,0.57,2.96-0.674,3.831
					C182.109,210.979,181.558,211.141,181.013,211.141z"/>
			</g>
		</g>
		<g>
			<g>
				<path fill="#163F2A" d="M151.881,225.046c-1.196,0-2.297-0.786-2.643-1.994l-6.11-21.315c-0.419-1.461,0.426-2.984,1.886-3.403
					c1.462-0.417,2.984,0.426,3.403,1.886l6.11,21.315c0.419,1.461-0.426,2.984-1.886,3.403
					C152.388,225.011,152.132,225.046,151.881,225.046z"/>
			</g>
		</g>
		<g>
			<g>
				<path fill="#163F2A" d="M119.842,228.73c-0.046,0-0.093-0.001-0.14-0.003c-1.517-0.076-2.686-1.368-2.609-2.886l1.113-22.146
					c0.076-1.517,1.366-2.69,2.886-2.609c1.517,0.076,2.686,1.368,2.609,2.886l-1.113,22.146
					C122.513,227.588,121.298,228.73,119.842,228.73z"/>
			</g>
		</g>
		<g>
			<g>
				<path fill="#163F2A" d="M88.313,221.799c-0.341,0-0.689-0.064-1.025-0.199c-1.41-0.567-2.093-2.169-1.527-3.578l8.267-20.575
					c0.567-1.409,2.169-2.094,3.578-1.527c1.41,0.567,2.093,2.169,1.527,3.578l-8.267,20.575
					C90.435,221.147,89.403,221.799,88.313,221.799z"/>
			</g>
		</g>
		<g>
			<g>
				<path fill="#163F2A" d="M60.769,204.995c-0.637,0-1.278-0.22-1.798-0.67c-1.149-0.994-1.276-2.731-0.282-3.88L73.19,183.67
					c0.994-1.15,2.731-1.275,3.88-0.282c1.149,0.994,1.276,2.731,0.282,3.88l-14.501,16.775
					C62.307,204.673,61.54,204.995,60.769,204.995z"/>
			</g>
		</g>
		<g>
			<g>
				<path fill="#163F2A" d="M40.158,180.194c-0.946,0-1.867-0.488-2.378-1.364c-0.766-1.312-0.324-2.996,0.988-3.763l19.148-11.183
					c1.312-0.767,2.997-0.324,3.763,0.988c0.766,1.312,0.324,2.996-0.988,3.763l-19.148,11.183
					C41.106,180.073,40.629,180.194,40.158,180.194z"/>
			</g>
		</g>
		<g>
			<g>
				<path fill="#163F2A" d="M28.695,150.01c-1.286,0-2.436-0.906-2.695-2.216c-0.296-1.49,0.672-2.938,2.163-3.234l21.75-4.317
					c1.491-0.296,2.938,0.673,3.234,2.163c0.296,1.49-0.672,2.938-2.163,3.234l-21.75,4.317
					C29.053,149.993,28.872,150.01,28.695,150.01z"/>
			</g>
		</g>
		<g>
			<g>
				<path fill="#163F2A" d="M49.681,120.711c-0.121,0-0.244-0.008-0.367-0.024l-21.979-2.929c-1.506-0.201-2.564-1.584-2.363-3.09
					c0.201-1.506,1.586-2.563,3.09-2.363l21.979,2.929c1.506,0.201,2.564,1.584,2.363,3.09
					C52.22,119.705,51.039,120.711,49.681,120.711z"/>
			</g>
		</g>
		<g>
			<g>
				<path fill="#163F2A" d="M57.013,96.874c-0.415,0-0.836-0.094-1.232-0.293l-19.818-9.946c-1.358-0.682-1.906-2.335-1.225-3.693
					c0.681-1.358,2.334-1.907,3.693-1.225l19.818,9.946c1.358,0.682,1.906,2.335,1.225,3.693
					C58.991,96.318,58.021,96.874,57.013,96.874z"/>
			</g>
		</g>
		<g>
			<g>
				<path fill="#163F2A" d="M71.733,76.695c-0.713,0-1.425-0.275-1.964-0.824l-15.528-15.83c-1.064-1.085-1.047-2.826,0.037-3.89
					c1.085-1.064,2.827-1.047,3.89,0.037l15.528,15.83c1.064,1.085,1.047,2.826-0.037,3.89
					C73.124,76.433,72.428,76.695,71.733,76.695z"/>
			</g>
		</g>
		<g>
			<g>
				<path fill="#163F2A" d="M92.185,62.357c-1.027,0-2.012-0.577-2.484-1.566l-9.559-20.008c-0.655-1.371-0.074-3.013,1.296-3.668
					c1.371-0.654,3.013-0.075,3.668,1.296l9.559,20.008c0.655,1.371,0.074,3.013-1.296,3.668
					C92.987,62.271,92.583,62.357,92.185,62.357z"/>
			</g>
		</g>
		<g>
			<g>
				<path fill="#163F2A" d="M116.163,55.495c-1.38,0-2.57-1.036-2.73-2.441l-2.503-22.032c-0.171-1.51,0.913-2.872,2.423-3.044
					c1.508-0.168,2.873,0.913,3.044,2.423l2.503,22.032c0.171,1.51-0.913,2.872-2.423,3.044
					C116.372,55.489,116.267,55.495,116.163,55.495z"/>
			</g>
		</g>
		<g>
			<g>
				<path fill="#163F2A" d="M141.129,56.76c-0.195,0-0.393-0.021-0.591-0.064c-1.484-0.325-2.424-1.791-2.099-3.275l4.74-21.661
					c0.325-1.485,1.791-2.424,3.275-2.099c1.484,0.325,2.424,1.791,2.099,3.275l-4.74,21.661
					C143.532,55.883,142.393,56.76,141.129,56.76z"/>
			</g>
		</g>
		<g>
			<g>
				<path fill="#163F2A" d="M164.278,66.043c-0.488,0-0.983-0.13-1.431-0.403c-1.297-0.792-1.706-2.485-0.915-3.781l11.553-18.927
					c0.791-1.296,2.484-1.707,3.781-0.915c1.297,0.791,1.706,2.484,0.915,3.781l-11.553,18.927
					C166.111,65.574,165.205,66.043,164.278,66.043z"/>
			</g>
		</g>
		<g>
			<g>
				<path fill="#163F2A" d="M183.185,82.385c-0.79,0-1.573-0.338-2.117-0.992c-0.971-1.168-0.812-2.903,0.357-3.874l17.051-14.175
					c1.168-0.971,2.903-0.812,3.874,0.357c0.971,1.168,0.812,2.903-0.357,3.874L184.942,81.75
					C184.428,82.177,183.805,82.385,183.185,82.385z"/>
			</g>
		</g>
		<g>
			<g>
				<path fill="#163F2A" d="M195.761,103.95c-1.11,0-2.156-0.677-2.573-1.776c-0.539-1.421,0.176-3.009,1.597-3.548l20.733-7.863
					c1.421-0.539,3.009,0.176,3.548,1.597c0.539,1.421-0.176,3.009-1.597,3.548l-20.733,7.863
					C196.415,103.893,196.085,103.95,195.761,103.95z"/>
			</g>
		</g>
		<g>
			<g>
				<path fill="#163F2A" d="M200.614,128.429c-1.48,0-2.701-1.176-2.748-2.665c-0.047-1.519,1.146-2.788,2.664-2.835l22.163-0.69
					c1.529-0.045,2.788,1.145,2.835,2.664c0.047,1.519-1.146,2.788-2.664,2.835l-22.163,0.69
					C200.672,128.429,200.643,128.429,200.614,128.429z"/>
			</g>
		</g>
	</g>
</g>
<g id="Layer_4">
</g>
</svg>
