<?xml version="1.0" encoding="utf-8"?>
<!-- Generator: Adobe Illustrator 18.0.0, SVG Export Plug-In . SVG Version: 6.00 Build 0)  -->
<!DOCTYPE svg PUBLIC "-//W3C//DTD SVG 1.1//EN" "http://www.w3.org/Graphics/SVG/1.1/DTD/svg11.dtd">
<svg version="1.1" xmlns="http://www.w3.org/2000/svg" xmlns:xlink="http://www.w3.org/1999/xlink" x="0px" y="0px"
	 viewBox="0 0 250 250" enable-background="new 0 0 250 250" xml:space="preserve">
<g id="Guides">
</g>
<g id="_x31_2_Col_Grid" opacity="0.1" enable-background="new    ">
</g>
<g id="Layer_3">
	<g>
		<path fill="#163F2A" stroke="#163F2A" stroke-width="2" stroke-miterlimit="10" d="M38.048,292.745l-30.65-0.108
			c-9.509-0.033-17.262-7.841-17.228-17.35l0.216-61.416c0.033-9.509,7.841-17.262,17.35-17.228l30.65,0.108
			c9.509,0.033,17.262,7.841,17.228,17.35l-0.216,61.416C55.365,285.026,47.557,292.779,38.048,292.745z"/>
		<path fill="#163F2A" stroke="#163F2A" stroke-width="2" stroke-miterlimit="10" d="M248.756,294.678l-30.65-0.108
			c-9.509-0.033-17.262-7.841-17.228-17.35l0.216-61.416c0.033-9.509,7.841-17.262,17.35-17.228l30.65,0.108
			c9.509,0.033,17.262,7.841,17.228,17.35l-0.216,61.416C266.073,286.959,258.265,294.712,248.756,294.678z"/>
	</g>
	<path fill="none" stroke="#163F2A" stroke-width="28" stroke-miterlimit="10" d="M201.957,132.569H50.147
		c-9.924,0-18.043-8.119-18.043-18.043V47.739c0-9.924,8.119-18.043,18.043-18.043h151.811c9.924,0,18.043,8.119,18.043,18.043
		v66.787C220,124.449,211.881,132.569,201.957,132.569z"/>
	<path fill="#163F2A" d="M250.597,42.486H-0.353c-9.082,0-16.512-7.43-16.512-16.512V1.992c0-9.082,7.43-16.512,16.512-16.512
		h250.95c9.082,0,16.512,7.43,16.512,16.512v23.982C267.109,35.056,259.679,42.486,250.597,42.486z"/>
	<path fill="#163F2A" d="M127.706,204.271"/>
	<path fill="#163F2A" d="M224.631,239.868H31.981c-12.857,0-23.377-10.52-23.377-23.377V127.71c0-12.857,10.52-23.377,23.377-23.377
		h192.65c12.857,0,23.377,10.52,23.377,23.377v88.781C248.008,229.348,237.488,239.868,224.631,239.868z"/>
	<path fill="#163F2A" d="M60.378,145.385c0,0-87.018-5.133-87.018,34.084s-2.122,68.945-2.122,68.945h97.63l10.612-66.766
		l-26.413-27.092"/>
	<path fill="#163F2A" d="M198.333,145.092c0,0,87.018-3.987,87.018,35.231s2.122,70.091,2.122,70.091h-97.63l-10.612-67.912
		l26.413-27.665"/>
	<path fill="#163F2A" stroke="#163F2A" stroke-width="2" stroke-miterlimit="10" d="M196.211,248.478h-142.2
		c-14.008,0-25.469-11.461-25.469-25.469v-27.591c0-14.008,11.461-25.469,25.469-25.469h142.2c14.008,0,25.469,11.461,25.469,25.469
		v27.591C221.679,237.017,210.218,248.478,196.211,248.478z"/>
	<circle fill="#FFFFFF" cx="59.882" cy="143.673" r="17.238"/>
	<circle fill="#FFFFFF" cx="195.038" cy="143.673" r="17.238"/>
	
		<line fill="none" stroke="#FFFFFF" stroke-width="8" stroke-linecap="round" stroke-miterlimit="10" x1="100.896" y1="138.414" x2="100.896" y2="207.414"/>
	
		<line fill="none" stroke="#FFFFFF" stroke-width="8" stroke-linecap="round" stroke-miterlimit="10" x1="125.896" y1="138.414" x2="125.896" y2="207.414"/>
	
		<line fill="none" stroke="#FFFFFF" stroke-width="8" stroke-linecap="round" stroke-miterlimit="10" x1="153.896" y1="138.414" x2="153.896" y2="207.414"/>
	<path fill="#163F2A" stroke="#163F2A" stroke-width="2" stroke-miterlimit="10" d="M99.84,68.846H57.371
		c-1.699,0-3.088-1.39-3.088-3.088V54.947c0-1.699,1.39-3.088,3.088-3.088H99.84c1.699,0,3.088,1.39,3.088,3.088v10.811
		C102.928,67.456,101.539,68.846,99.84,68.846z"/>
	<path fill="#163F2A" stroke="#163F2A" stroke-width="2" stroke-miterlimit="10" d="M100.443,96.488H57.974
		c-1.699,0-3.088-1.39-3.088-3.088V82.589c0-1.699,1.39-3.088,3.088-3.088h42.469c1.699,0,3.088,1.39,3.088,3.088V93.4
		C103.531,95.099,102.141,96.488,100.443,96.488z"/>
</g>
<g id="Layer_4">
</g>
</svg>
