<svg xmlns="http://www.w3.org/2000/svg" viewBox="0 0 250 250"><path fill="#183F2A" d="M247.111 220.414H2.03c-1.538 0-2.785-.962-2.785-2.5s1.247-2.5 2.785-2.5h245.081c1.538 0 2.785.962 2.785 2.5s-1.247 2.5-2.785 2.5z"/><g fill="#163F2A"><path d="M81.601 75.428v6.428h-3.983V63.984h6.731c3.63 0 6.126 2.395 6.126 5.722 0 3.378-2.496 5.722-6.126 5.722h-2.748zM83.945 72c1.512 0 2.546-.882 2.546-2.269 0-1.437-1.034-2.294-2.546-2.294h-2.319V72h2.319zM95.466 74.622l2.949-.454c.68-.101.908-.428.908-.857 0-.731-.63-1.361-1.84-1.361-1.336 0-2.067.908-2.143 1.84l-3.328-.681c.151-1.79 1.815-4.159 5.496-4.159 4.059 0 5.546 2.269 5.546 4.84v6.126c0 .983.126 1.815.151 1.941h-3.454c-.025-.101-.126-.555-.126-1.412-.655 1.059-1.865 1.765-3.529 1.765-2.748 0-4.336-1.815-4.336-3.807 0-2.219 1.638-3.479 3.706-3.781zm3.857 2.319v-.555l-2.37.378c-.807.126-1.412.504-1.412 1.387 0 .655.428 1.286 1.487 1.286 1.135-.001 2.295-.555 2.295-2.496zM114.246 73.109a5.189 5.189 0 0 0-1.21-.126c-1.538 0-2.924.908-2.924 3.403v5.47h-3.832V69.328h3.706v1.689c.655-1.412 2.244-1.815 3.252-1.815.378 0 .756.05 1.008.126v3.781zM119.616 74.622l2.95-.454c.681-.101.908-.428.908-.857 0-.731-.63-1.361-1.84-1.361-1.336 0-2.067.908-2.143 1.84l-3.328-.681c.151-1.79 1.815-4.159 5.496-4.159 4.059 0 5.546 2.269 5.546 4.84v6.126c0 .983.126 1.815.151 1.941h-3.454c-.025-.101-.126-.555-.126-1.412-.655 1.059-1.865 1.765-3.529 1.765-2.748 0-4.336-1.815-4.336-3.807-.001-2.219 1.638-3.479 3.705-3.781zm3.857 2.319v-.555l-2.37.378c-.807.126-1.412.504-1.412 1.387 0 .655.428 1.286 1.487 1.286 1.135-.001 2.295-.555 2.295-2.496zM136.632 86.646V69.328h3.706v1.286c.53-.807 1.891-1.588 3.68-1.588 3.63 0 5.823 2.773 5.823 6.529 0 3.832-2.47 6.58-5.974 6.58-1.613 0-2.823-.555-3.403-1.261v5.773h-3.832zm6.605-14.167c-1.487 0-2.823 1.008-2.823 3.101 0 2.067 1.336 3.126 2.823 3.126 1.512 0 2.849-1.034 2.849-3.126-.001-2.093-1.337-3.101-2.849-3.101zM164.715 75.58c0 3.882-2.899 6.655-6.655 6.655-3.731 0-6.655-2.773-6.655-6.655s2.924-6.63 6.655-6.63c3.756 0 6.655 2.747 6.655 6.63zm-3.832 0c0-2.118-1.361-3.101-2.823-3.101-1.437 0-2.823.983-2.823 3.101 0 2.092 1.387 3.126 2.823 3.126 1.462-.001 2.823-1.009 2.823-3.126zM170.816 76.26h-2.823l-.882-12.276h4.588l-.883 12.276zm-1.437 1.488c1.21 0 2.193.983 2.193 2.193 0 1.185-.983 2.168-2.193 2.168a2.168 2.168 0 0 1-2.168-2.168c0-1.21.958-2.193 2.168-2.193z"/></g><path fill-rule="evenodd" clip-rule="evenodd" fill="#163F2A" d="M11.896 251.414v-35h1v-.983l.461-.471c.069-.144.248-.27.286-.371 2.538-8.76 9.263-13.787 18.356-13.794 8.532 0 17.039 0 25.584.007 8.785.015 15.078 4.708 17.846 12.933l.467-.288v37.967h-64z"/><path fill="#FFF" d="M32.06 202.466c8.53 0 17.007 0 25.552.007 8.54.014 14.522 4.662 16.842 12.919.057.188-.596.606-.354.606.048 0-.204-.017-.204-.055v32.471h-11v-22.308-2.775c0-.344.56-.653.035-.767-.368-.08-.224-.123-.467-.123-.828 0-.568.498-.568 1.746v24.226h-33V224.4c0-.397-.039-.778-.063-1.172 0-.218.088-.515-.149-.546a16.308 16.308 0 0 0-1.235-.065c-.313 0-.648.022-.944.084-.641.128-.352.751-.352 1.189-.014 8.17-.027 17.524-.029 24.524H13.896v-32.727c0 .019.538.358.587.385.02.013.528.342.554.342h.003c.114 0 .23-.77.312-1.01 2.314-8.046 8.335-12.931 16.708-12.938m0-3.052h-.002c-4.837 0-9.209 1.236-12.641 3.836-3.389 2.567-5.888 6.274-7.235 10.864-.021.045-.061.093-.093.159l-.467.12-.724.662v1.359h-1v36H76.896V210.948l-.83.583c-3.295-7.91-9.794-12.24-18.741-12.255-8.548-.007-16.734.138-25.265.138z"/><circle fill-rule="evenodd" clip-rule="evenodd" fill="#163F2A" cx="44.924" cy="183.814" r="15.122"/><path fill-rule="evenodd" clip-rule="evenodd" fill="#163F2A" d="M173.896 251.414v-35.982l.668-.521c.052-.107.317-.212.357-.32 2.538-8.76 9.313-13.787 18.413-13.795 8.532 0 17.083 0 25.628.007 8.822.015 15.882 4.721 18.645 12.964l1.289-.319v37.967h-65z"/><path fill="#FFF" d="M193.44 202.466c8.53 0 17.028 0 25.573.007 8.54.014 14.565 4.662 16.885 12.919.057.188-.301.606-.039.606.052 0 .037-.017.037-.055v32.471h-11v-22.308-2.775c0-.344.047-.653-.478-.767a6.04 6.04 0 0 0-1.108-.123c-.904 0-1.414.498-1.414 1.746v24.226h-33V224.4c0-.397.64-.778.616-1.172 0-.218.523-.515.286-.546-.388-.031-.719-.065-1.113-.065-.313 0-.587.022-.883.084-.641.128-.321.751-.321 1.189-.014 8.17.003 17.524.001 24.524h-11.586v-32.727c0 .019.221.358.269.385.02.013.222.342.238.342h.002c.114 0 .235-.77.318-1.01 2.312-8.046 8.344-12.931 16.717-12.938m0-3.052h-.002c-4.838 0-9.21 1.235-12.645 3.835-3.389 2.565-5.89 6.267-7.237 10.85-.023.05-.048.062-.072.112l-.18.181-.406.662V252.413h67V210.947l-1.638.613c-3.293-7.929-10.181-12.271-19.163-12.286-8.551-.005-17.126.14-25.657.14z"/><circle fill-rule="evenodd" clip-rule="evenodd" fill="#163F2A" cx="206.283" cy="183.814" r="15.122"/><g><path fill-rule="evenodd" clip-rule="evenodd" fill="#163F2A" d="M121.506 201.017c-10.882 0-19.735-8.854-19.735-19.736s8.853-19.735 19.735-19.735 19.736 8.853 19.736 19.735-8.853 19.736-19.736 19.736z"/><path fill="#FFF" d="M121.507 165.545c8.69 0 15.735 7.045 15.735 15.735 0 8.691-7.045 15.736-15.735 15.736s-15.736-7.045-15.736-15.736c0-8.69 7.045-15.735 15.736-15.735m0-8c-13.088 0-23.736 10.648-23.736 23.735 0 13.088 10.648 23.736 23.736 23.736 13.088 0 23.735-10.648 23.735-23.736 0-13.087-10.648-23.735-23.735-23.735z"/></g><g><path fill-rule="evenodd" clip-rule="evenodd" fill="#163F2A" d="M90.896 251.414v-36h-.295a3.2 3.2 0 0 1 .042-.578c1.235-9.112 8.555-14.601 19.604-14.61 4.801 0 9.607-.007 14.414.009 4.145.014 8.292.016 12.438.02.618.001 1.148.029 1.616.097.415.06.774.063 1.163.063h7.918c1.456-1 2.762-1.329 2.845-3.9.194-5.963.56-26.881.593-28.789-.105-.782-.347-3.714 1.501-5.933 1.349-1.62 3.406-2.435 6.115-2.435.22 0 .449.008.683.02 2.598.126 4.606.983 5.969 2.545 1.782 2.042 1.762 4.517 1.729 5.111.034 1.953.496 29.303-.428 38.313-.45 4.397-2.508 8.374-5.793 11.199-3.666 3.152-8.591 4.853-14.633 4.918l-1.481.018v-.066h-.437l-.05.501-.76-.236c-.12.429.247 1.205.247 2.875v26.86h-53z"/><path fill="#FFF" d="M158.85 161.032c.194 0 .396.005.603.015 6.599.32 6.106 5.943 6.106 5.943s.891 29.031-.047 38.183c-.777 7.582-6.616 14.485-18.616 14.617v-.376h-3.984l-.034.454c-.048-.006.214-.003.169-.003-1.46 0-1.151 3.2-1.151 4.693v25.857h-35v-25.634c0-.416-.06-1.091-.085-1.505 0-.074-.978-.861-.461-.861h.02c-.385 0-.778.2-1.165.2-.3 0-.595.154-.879.214-.672.134-.355 1.126-.355 1.585-.015 8.561-.015 18.001-.017 26.001H91.896v-35.183c0 .02.38 1.183.43 1.183h.001c.022 0 .031-.701.031-.706.119-.251-.158-.226-.072-.477 1.239-9.524 9.188-13.289 17.962-13.296 8.938 0 17.896.135 26.849.143 1.001.002 1.768.336 2.78.336h8.184c1.77-1 4.125-1.861 4.249-5.682.205-6.302.597-29.034.597-29.034s-1.213-6.667 5.943-6.667m0-3.342c-4.02 0-6.242 1.654-7.399 3.042-2.188 2.627-2.032 5.931-1.89 7.108-.044 2.547-.401 23.113-.591 28.954-.047 1.434-.479 1.619-1.466 2.619h-7.627c-.27 0-.559-.335-.925-.388-.497-.072-1.115-.307-1.849-.308-4.151-.004-8.3-.091-12.448-.104-4.723-.016-9.607-.068-14.407-.068-11.943.01-19.874 6.043-21.253 16.026a5.972 5.972 0 0 0-.066.843h-.032v38h56v-28.857c0-.405-.192-.766-.181-1.081l1.181.168v-.509l.253-.002c15.126-.163 21.474-9.593 22.296-17.618.927-9.046.487-36.183.447-38.469.035-.89-.027-3.805-2.136-6.222-1.15-1.318-3.321-2.928-7.144-3.113a14.384 14.384 0 0 0-.763-.021z"/></g><g><path fill="#183F2A" d="M181.709 103.36a2.505 2.505 0 0 0-3.325-1.219c-.224.104-21.562 9.848-48.228 10.826l-7.35 16.62-5.165-11.173h.017l-2.328-5.495c-23.892-1.919-42.672-9.723-42.886-9.811-1.279-.528-2.742.004-3.271 1.282-.528 1.278.079 2.704 1.357 3.232.866.358 18.299 7.452 41.414 9.745l10.935 24.291 10.38-23.818c26.244-1.541 46.317-10.728 47.233-11.153a2.507 2.507 0 0 0 1.217-3.327z"/></g></svg>