<?xml version="1.0" encoding="utf-8"?>
<!-- Generator: Adobe Illustrator 18.0.0, SVG Export Plug-In . SVG Version: 6.00 Build 0)  -->
<!DOCTYPE svg PUBLIC "-//W3C//DTD SVG 1.1//EN" "http://www.w3.org/Graphics/SVG/1.1/DTD/svg11.dtd">
<svg version="1.1" xmlns="http://www.w3.org/2000/svg" xmlns:xlink="http://www.w3.org/1999/xlink" x="0px" y="0px"
	 viewBox="0 0 250 250" enable-background="new 0 0 250 250" xml:space="preserve">
<g id="Guides">
</g>
<g id="_x31_2_Col_Grid" opacity="0.1" enable-background="new    ">
</g>
<g id="Layer_3">
	<g>
		<path fill="#183F2A" d="M247.111,220.414H2.03c-1.538,0-2.785-0.962-2.785-2.5s1.247-2.5,2.785-2.5h245.081
			c1.538,0,2.785,0.962,2.785,2.5S248.649,220.414,247.111,220.414z"/>
	</g>
	<g>
		<path fill="#163F2A" d="M81.601,75.428v6.428h-3.983V63.984h6.731c3.63,0,6.126,2.395,6.126,5.722
			c0,3.378-2.496,5.722-6.126,5.722H81.601z M83.945,72c1.512,0,2.546-0.882,2.546-2.269c0-1.437-1.034-2.294-2.546-2.294h-2.319V72
			H83.945z"/>
		<path fill="#163F2A" d="M95.466,74.622l2.949-0.454c0.68-0.101,0.908-0.428,0.908-0.857c0-0.731-0.63-1.361-1.84-1.361
			c-1.336,0-2.067,0.908-2.143,1.84l-3.328-0.681c0.151-1.79,1.815-4.159,5.496-4.159c4.059,0,5.546,2.269,5.546,4.84v6.126
			c0,0.983,0.126,1.815,0.151,1.941h-3.454c-0.025-0.101-0.126-0.555-0.126-1.412c-0.655,1.059-1.865,1.765-3.529,1.765
			c-2.748,0-4.336-1.815-4.336-3.807C91.76,76.184,93.398,74.924,95.466,74.622z M99.323,76.941v-0.555l-2.37,0.378
			c-0.807,0.126-1.412,0.504-1.412,1.387c0,0.655,0.428,1.286,1.487,1.286C98.163,79.436,99.323,78.882,99.323,76.941z"/>
		<path fill="#163F2A" d="M114.246,73.109c-0.428-0.101-0.832-0.126-1.21-0.126c-1.538,0-2.924,0.908-2.924,3.403v5.47h-3.832
			V69.328h3.706v1.689c0.655-1.412,2.244-1.815,3.252-1.815c0.378,0,0.756,0.05,1.008,0.126V73.109z"/>
		<path fill="#163F2A" d="M119.616,74.622l2.95-0.454c0.681-0.101,0.908-0.428,0.908-0.857c0-0.731-0.63-1.361-1.84-1.361
			c-1.336,0-2.067,0.908-2.143,1.84l-3.328-0.681c0.151-1.79,1.815-4.159,5.496-4.159c4.059,0,5.546,2.269,5.546,4.84v6.126
			c0,0.983,0.126,1.815,0.151,1.941h-3.454c-0.025-0.101-0.126-0.555-0.126-1.412c-0.655,1.059-1.865,1.765-3.529,1.765
			c-2.748,0-4.336-1.815-4.336-3.807C115.91,76.184,117.549,74.924,119.616,74.622z M123.473,76.941v-0.555l-2.37,0.378
			c-0.807,0.126-1.412,0.504-1.412,1.387c0,0.655,0.428,1.286,1.487,1.286C122.313,79.436,123.473,78.882,123.473,76.941z"/>
		<path fill="#163F2A" d="M136.632,86.646V69.328h3.706v1.286c0.53-0.807,1.891-1.588,3.68-1.588c3.63,0,5.823,2.773,5.823,6.529
			c0,3.832-2.47,6.58-5.974,6.58c-1.613,0-2.823-0.555-3.403-1.261v5.773H136.632z M143.237,72.479
			c-1.487,0-2.823,1.008-2.823,3.101c0,2.067,1.336,3.126,2.823,3.126c1.512,0,2.849-1.034,2.849-3.126
			C146.085,73.487,144.749,72.479,143.237,72.479z"/>
		<path fill="#163F2A" d="M164.715,75.58c0,3.882-2.899,6.655-6.655,6.655c-3.731,0-6.655-2.773-6.655-6.655
			c0-3.882,2.924-6.63,6.655-6.63C161.816,68.95,164.715,71.697,164.715,75.58z M160.883,75.58c0-2.118-1.361-3.101-2.823-3.101
			c-1.437,0-2.823,0.983-2.823,3.101c0,2.092,1.387,3.126,2.823,3.126C159.522,78.705,160.883,77.697,160.883,75.58z"/>
		<path fill="#163F2A" d="M170.816,76.26h-2.823l-0.882-12.276h4.588L170.816,76.26z M169.379,77.748
			c1.21,0,2.193,0.983,2.193,2.193c0,1.185-0.983,2.168-2.193,2.168c-1.21,0-2.168-0.983-2.168-2.168
			C167.211,78.731,168.169,77.748,169.379,77.748z"/>
	</g>
	<g>
		<path fill-rule="evenodd" clip-rule="evenodd" fill="#163F2A" d="M11.896,251.414v-35h1v-0.983l0.461-0.471
			c0.069-0.144,0.248-0.27,0.286-0.371c2.538-8.76,9.263-13.787,18.356-13.794c8.532,0,17.039,0,25.584,0.007
			c8.785,0.015,15.078,4.708,17.846,12.933l0.467-0.288v37.967H11.896z"/>
		<path fill="#FFFFFF" d="M32.06,202.466c8.53,0,17.007,0,25.552,0.007c8.54,0.014,14.522,4.662,16.842,12.919
			c0.057,0.188-0.596,0.606-0.354,0.606c0.048,0-0.204-0.017-0.204-0.055c0,10.82,0,21.471,0,32.471h-11c0-6,0-14.876,0-22.308
			c0-0.926,0-1.858,0-2.775c0-0.344,0.56-0.653,0.035-0.767c-0.368-0.08-0.224-0.123-0.467-0.123c-0.828,0-0.568,0.498-0.568,1.746
			c0,8.07,0,18.226,0,24.226h-33c0-6,0-16.016,0-24.013c0-0.397-0.039-0.778-0.063-1.172c0-0.218,0.088-0.515-0.149-0.546
			c-0.388-0.031-0.841-0.065-1.235-0.065c-0.313,0-0.648,0.022-0.944,0.084c-0.641,0.128-0.352,0.751-0.352,1.189
			c-0.014,8.17-0.027,17.524-0.029,24.524H13.896c0-11,0-21.823,0-32.727c0,0.019,0.538,0.358,0.587,0.385
			c0.02,0.013,0.528,0.342,0.554,0.342c0.002,0,0.003,0,0.003,0c0.114,0,0.23-0.77,0.312-1.01
			C17.666,207.358,23.687,202.473,32.06,202.466 M32.06,199.414h-0.001h-0.001c-4.837,0-9.209,1.236-12.641,3.836
			c-3.389,2.567-5.888,6.274-7.235,10.864c-0.021,0.045-0.061,0.093-0.093,0.159l-0.467,0.12l-0.724,0.662v1.359h-1v32.265v3.735
			h4.666h11.561h3.341H61.35h3.342h10.026h2.178v-3.735v-32.736v-4.995l-0.83,0.583c-3.295-7.91-9.794-12.24-18.741-12.255
			C48.777,199.269,40.591,199.414,32.06,199.414L32.06,199.414z"/>
	</g>
	<circle fill-rule="evenodd" clip-rule="evenodd" fill="#163F2A" cx="44.924" cy="183.814" r="15.122"/>
	<g>
		<path fill-rule="evenodd" clip-rule="evenodd" fill="#163F2A" d="M173.896,251.414v-35.711l0,0v-0.271l0.668-0.521
			c0.052-0.107,0.317-0.212,0.357-0.32c2.538-8.76,9.313-13.787,18.413-13.795c8.532,0,17.083,0,25.628,0.007
			c8.822,0.015,15.882,4.721,18.645,12.964l1.289-0.319v37.967H173.896z"/>
		<path fill="#FFFFFF" d="M193.44,202.466c8.53,0,17.028,0,25.573,0.007c8.54,0.014,14.565,4.662,16.885,12.919
			c0.057,0.188-0.301,0.606-0.039,0.606c0.052,0,0.037-0.017,0.037-0.055c0,10.82,0,21.471,0,32.471h-11c0-6,0-14.876,0-22.308
			c0-0.926,0-1.858,0-2.775c0-0.344,0.047-0.653-0.478-0.767c-0.367-0.08-0.842-0.123-1.108-0.123c-0.904,0-1.414,0.498-1.414,1.746
			c0,8.07,0,18.226,0,24.226h-33c0-6,0-16.016,0-24.013c0-0.397,0.64-0.778,0.616-1.172c0-0.218,0.523-0.515,0.286-0.546
			c-0.388-0.031-0.719-0.065-1.113-0.065c-0.313,0-0.587,0.022-0.883,0.084c-0.641,0.128-0.321,0.751-0.321,1.189
			c-0.014,8.17,0.003,17.524,0.001,24.524h-11.586c0-11,0-21.823,0-32.727c0,0.019,0.221,0.358,0.269,0.385
			c0.02,0.013,0.222,0.342,0.238,0.342c0.001,0,0.002,0,0.002,0c0.114,0,0.235-0.77,0.318-1.01
			C179.035,207.358,185.067,202.473,193.44,202.466 M193.44,199.414h-0.001h-0.001c-4.838,0-9.21,1.235-12.645,3.835
			c-3.389,2.565-5.89,6.267-7.237,10.85c-0.023,0.05-0.048,0.062-0.072,0.112l-0.18,0.181l-0.406,0.662v0.647l0,0v32.977v3.735
			h3.197h11.389h3.341h31.501h3.342h10.583h3.647v-3.735v-32.736v-4.995l-1.638,0.613c-3.293-7.929-10.181-12.271-19.163-12.286
			C210.546,199.269,201.971,199.414,193.44,199.414L193.44,199.414z"/>
	</g>
	<circle fill-rule="evenodd" clip-rule="evenodd" fill="#163F2A" cx="206.283" cy="183.814" r="15.122"/>
	<g>
		<path fill-rule="evenodd" clip-rule="evenodd" fill="#163F2A" d="M121.506,201.017c-10.882,0-19.735-8.854-19.735-19.736
			s8.853-19.735,19.735-19.735s19.736,8.853,19.736,19.735S132.389,201.017,121.506,201.017z"/>
		<path fill="#FFFFFF" d="M121.507,165.545c8.69,0,15.735,7.045,15.735,15.735c0,8.691-7.045,15.736-15.735,15.736
			c-8.69,0-15.736-7.045-15.736-15.736C105.771,172.59,112.816,165.545,121.507,165.545 M121.507,157.545
			c-13.088,0-23.736,10.648-23.736,23.735c0,13.088,10.648,23.736,23.736,23.736c13.088,0,23.735-10.648,23.735-23.736
			C145.242,168.193,134.594,157.545,121.507,157.545L121.507,157.545z"/>
	</g>
	<g>
		<path fill-rule="evenodd" clip-rule="evenodd" fill="#163F2A" d="M90.896,251.414v-36h-0.295c-0.007,0,0.003-0.403,0.042-0.578
			c1.235-9.112,8.555-14.601,19.604-14.61c4.801,0,9.607-0.007,14.414,0.009c4.145,0.014,8.292,0.016,12.438,0.02
			c0.618,0.001,1.148,0.029,1.616,0.097c0.415,0.06,0.774,0.063,1.163,0.063h7.918c1.456-1,2.762-1.329,2.845-3.9
			c0.194-5.963,0.56-26.881,0.593-28.789c-0.105-0.782-0.347-3.714,1.501-5.933c1.349-1.62,3.406-2.435,6.115-2.435
			c0.22,0,0.449,0.008,0.683,0.02c2.598,0.126,4.606,0.983,5.969,2.545c1.782,2.042,1.762,4.517,1.729,5.111
			c0.034,1.953,0.496,29.303-0.428,38.313c-0.45,4.397-2.508,8.374-5.793,11.199c-3.666,3.152-8.591,4.853-14.633,4.918
			l-1.481,0.018v-0.066h-0.437l-0.05,0.501l-0.76-0.236c-0.12,0.429,0.247,1.205,0.247,2.875v26.86H90.896z"/>
		<path fill="#FFFFFF" d="M158.85,161.032c0.194,0,0.396,0.005,0.603,0.015c6.599,0.32,6.106,5.943,6.106,5.943
			s0.891,29.031-0.047,38.183c-0.777,7.582-6.616,14.485-18.616,14.617v-0.376h-3.984l-0.034,0.454
			c-0.048-0.006,0.214-0.003,0.169-0.003c-1.46,0-1.151,3.2-1.151,4.693c0,8.456,0,17.857,0,25.857h-35c0-8,0-17.254,0-25.634
			c0-0.416-0.06-1.091-0.085-1.505c0-0.074-0.978-0.861-0.461-0.861c0.006,0,0.013,0,0.02,0c-0.385,0-0.778,0.2-1.165,0.2
			c-0.3,0-0.595,0.154-0.879,0.214c-0.672,0.134-0.355,1.126-0.355,1.585c-0.015,8.561-0.015,18.001-0.017,26.001H91.896
			c0-13,0-23.757,0-35.183c0,0.02,0.38,1.183,0.43,1.183c0,0,0.001,0,0.001,0c0.022,0,0.031-0.701,0.031-0.706
			c0.119-0.251-0.158-0.226-0.072-0.477c1.239-9.524,9.188-13.289,17.962-13.296c8.938,0,17.896,0.135,26.849,0.143
			c1.001,0.002,1.768,0.336,2.78,0.336h8.184c1.77-1,4.125-1.861,4.249-5.682c0.205-6.302,0.597-29.034,0.597-29.034
			S151.694,161.032,158.85,161.032 M158.85,157.69c-4.02,0-6.242,1.654-7.399,3.042c-2.188,2.627-2.032,5.931-1.89,7.108
			c-0.044,2.547-0.401,23.113-0.591,28.954c-0.047,1.434-0.479,1.619-1.466,2.619h-7.627c-0.27,0-0.559-0.335-0.925-0.388
			c-0.497-0.072-1.115-0.307-1.849-0.308c-4.151-0.004-8.3-0.091-12.448-0.104c-4.723-0.016-9.607-0.068-14.407-0.068
			c-11.943,0.01-19.874,6.043-21.253,16.026c-0.051,0.256-0.073,0.843-0.066,0.843h-0.032v34.658v3.342h3.368h11.689h3.341h33.986
			h3.616v-3.342v-25.515c0-0.405-0.192-0.766-0.181-1.081l1.181,0.168v-0.509l0.253-0.002c15.126-0.163,21.474-9.593,22.296-17.618
			c0.927-9.046,0.487-36.183,0.447-38.469c0.035-0.89-0.027-3.805-2.136-6.222c-1.15-1.318-3.321-2.928-7.144-3.113
			C159.349,157.697,159.096,157.69,158.85,157.69L158.85,157.69z"/>
	</g>
</g>
<g id="Layer_4">
	<path fill="#183F2A" d="M181.709,103.36c-0.582-1.255-2.071-1.8-3.325-1.219c-0.224,0.104-21.562,9.848-48.228,10.826l-7.35,16.62
		l-5.165-11.173c0.006,0,0.011,0,0.017,0l-2.328-5.495c-23.892-1.919-42.672-9.723-42.886-9.811
		c-1.279-0.528-2.742,0.004-3.271,1.282c-0.528,1.278,0.079,2.704,1.357,3.232c0.866,0.358,18.299,7.452,41.414,9.745l10.935,24.291
		l10.38-23.818c26.244-1.541,46.317-10.728,47.233-11.153C181.746,106.104,182.29,104.614,181.709,103.36z"/>
</g>
</svg>
