<svg xmlns="http://www.w3.org/2000/svg" viewBox="0 0 250 250"><g fill="#163F2A" stroke="#163F2A" stroke-width="2" stroke-miterlimit="10"><path d="M38.048 292.745l-30.65-.108c-9.509-.033-17.262-7.841-17.228-17.35l.216-61.416c.033-9.509 7.841-17.262 17.35-17.228l30.65.108c9.509.033 17.262 7.841 17.228 17.35l-.216 61.416c-.033 9.509-7.841 17.262-17.35 17.228zM248.756 294.678l-30.65-.108c-9.509-.033-17.262-7.841-17.228-17.35l.216-61.416c.033-9.509 7.841-17.262 17.35-17.228l30.65.108c9.509.033 17.262 7.841 17.228 17.35l-.216 61.416c-.033 9.509-7.841 17.262-17.35 17.228z"/></g><path fill="none" stroke="#163F2A" stroke-width="28" stroke-miterlimit="10" d="M201.957 132.569H50.147c-9.924 0-18.043-8.119-18.043-18.043V47.739c0-9.924 8.119-18.043 18.043-18.043h151.811c9.924 0 18.043 8.119 18.043 18.043v66.787c-.001 9.923-8.12 18.043-18.044 18.043z"/><path fill="#163F2A" d="M250.597 42.486H-.353c-9.082 0-16.512-7.43-16.512-16.512V1.992c0-9.082 7.43-16.512 16.512-16.512h250.95c9.082 0 16.512 7.43 16.512 16.512v23.982c0 9.082-7.43 16.512-16.512 16.512zM224.631 239.868H31.981c-12.857 0-23.377-10.52-23.377-23.377V127.71c0-12.857 10.52-23.377 23.377-23.377h192.65c12.857 0 23.377 10.52 23.377 23.377v88.781c0 12.857-10.52 23.377-23.377 23.377z"/><path fill="#163F2A" d="M60.378 145.385s-87.018-5.133-87.018 34.084-2.122 68.945-2.122 68.945h97.63l10.612-66.766-26.413-27.092M198.333 145.092s87.018-3.987 87.018 35.231 2.122 70.091 2.122 70.091h-97.63l-10.612-67.912 26.413-27.665"/><path fill="#163F2A" stroke="#163F2A" stroke-width="2" stroke-miterlimit="10" d="M196.211 248.478h-142.2c-14.008 0-25.469-11.461-25.469-25.469v-27.591c0-14.008 11.461-25.469 25.469-25.469h142.2c14.008 0 25.469 11.461 25.469 25.469v27.591c-.001 14.008-11.462 25.469-25.469 25.469z"/><circle fill="#FFF" cx="59.882" cy="143.673" r="17.238"/><circle fill="#FFF" cx="195.038" cy="143.673" r="17.238"/><path fill="none" stroke="#FFF" stroke-width="8" stroke-linecap="round" stroke-miterlimit="10" d="M100.896 138.414v69M125.896 138.414v69M153.896 138.414v69"/><path fill="#163F2A" stroke="#163F2A" stroke-width="2" stroke-miterlimit="10" d="M99.84 68.846H57.371a3.097 3.097 0 0 1-3.088-3.088V54.947a3.097 3.097 0 0 1 3.088-3.088H99.84a3.097 3.097 0 0 1 3.088 3.088v10.811a3.097 3.097 0 0 1-3.088 3.088zM100.443 96.488H57.974a3.097 3.097 0 0 1-3.088-3.088V82.589a3.097 3.097 0 0 1 3.088-3.088h42.469a3.097 3.097 0 0 1 3.088 3.088V93.4a3.097 3.097 0 0 1-3.088 3.088z"/></svg>