<svg xmlns="http://www.w3.org/2000/svg" xmlns:xlink="http://www.w3.org/1999/xlink" viewBox="0 0 160 160"><g fill="#163F2A"><path d="M124.37 48.904H38.223c-3.118 0-5.668-2.551-5.668-5.668v-8.233c0-3.118 2.551-5.668 5.668-5.668h86.146c3.118 0 5.668 2.551 5.668 5.668v8.233c.001 3.117-2.55 5.668-5.667 5.668zm-43.197 55.538"/><path stroke="#163F2A" stroke-width="2" stroke-miterlimit="10" d="M34.471 68.636h-6.192a2.885 2.885 0 0 1-2.877-2.877V55.144a2.885 2.885 0 0 1 2.877-2.877h6.192a2.885 2.885 0 0 1 2.877 2.877V65.76a2.886 2.886 0 0 1-2.877 2.876zm99.901 0h-6.192a2.885 2.885 0 0 1-2.877-2.877V55.144a2.885 2.885 0 0 1 2.877-2.877h6.192a2.885 2.885 0 0 1 2.877 2.877V65.76a2.886 2.886 0 0 1-2.877 2.876z"/><path d="M134.833 96.747c0-6.093-6.833-9.308-12.833-10.834v-7.419c0-1.998-1-3.718-2-5.007v-22.78C120 43.708 114.353 38 107.354 38H55.24C48.24 38 43 43.708 43 50.707v22.16c-2 1.33-3 3.288-3 5.626v7.422c-8 1.485-12.176 4.507-12.176 10.382 0 13.463-.806 23.703-.806 23.703h5.746l-.032 9.201c-.013 3.706 2.991 6.705 6.697 6.719l10.545.025c3.692 0 6.707-2.879 6.72-6.571l.03-8.374h47.523c.287 0 .569-.15.849-.175l-.032 9.055c-.006 1.789.689 3.444 1.956 4.721a6.655 6.655 0 0 0 4.74 1.974l10.546.029c3.692 0 6.707-2.85 6.72-6.542l.032-9.061h6.517c.001-.001-.742-10.792-.742-24.254zM56 51h51v20H56V51zm1.432 38.557a5.917 5.917 0 1 1 0-11.834 5.917 5.917 0 0 1 0 11.834zM73 105.432c0 .867-.633 1.57-1.5 1.57s-1.5-.703-1.5-1.57V81.877c0-.867.633-1.57 1.5-1.57s1.5.703 1.5 1.57v23.555zm9 0c0 .867-.633 1.57-1.5 1.57s-1.5-.703-1.5-1.57V81.877c0-.867.633-1.57 1.5-1.57s1.5.703 1.5 1.57v23.555zm9 0c0 .867-.633 1.57-1.5 1.57s-1.5-.703-1.5-1.57V81.877c0-.867.633-1.57 1.5-1.57s1.5.703 1.5 1.57v23.555zm12.829-15.875a5.917 5.917 0 1 1 0-11.834 5.917 5.917 0 0 1 0 11.834z"/></g><defs><path id="a" d="M643 203h1020v190H643z"/></defs><clipPath id="b"><use xlink:href="#a" overflow="visible"/></clipPath><g clip-path="url(#b)"><defs><path id="c" d="M643 155h1020v380H643z"/></defs><clipPath id="d"><use xlink:href="#c" overflow="visible"/></clipPath><g clip-path="url(#d)"><defs><path id="e" d="M643.309 55.172H1663V535H643.309z"/></defs><clipPath id="f"><use xlink:href="#e" overflow="visible"/></clipPath><path clip-path="url(#f)" stroke="#26643F" stroke-width="5.932" stroke-miterlimit="10" d="M-104.061 92.116s203.153 69.224 410.82 0" fill="none"/></g></g></svg>