<?xml version="1.0" encoding="utf-8"?>
<!-- Generator: Adobe Illustrator 18.0.0, SVG Export Plug-In . SVG Version: 6.00 Build 0)  -->
<!DOCTYPE svg PUBLIC "-//W3C//DTD SVG 1.1//EN" "http://www.w3.org/Graphics/SVG/1.1/DTD/svg11.dtd">
<svg version="1.1" xmlns="http://www.w3.org/2000/svg" xmlns:xlink="http://www.w3.org/1999/xlink" x="0px" y="0px"
	 viewBox="0 0 250 250" enable-background="new 0 0 250 250" xml:space="preserve">
<g id="Guides">
</g>
<g id="_x31_2_Col_Grid" opacity="0.1" enable-background="new    ">
</g>
<g id="Layer_3">
</g>
<g id="Layer_4">
	<g>
		<path fill="#183F2A" d="M169.346,197.2H88.027c-16.062,0-29.129-13.067-29.129-29.129V84.325
			c0-16.062,13.067-29.129,29.129-29.129h81.319c16.062,0,29.129,13.067,29.129,29.129v83.746
			C198.475,184.133,185.408,197.2,169.346,197.2z M88.027,61.264c-12.716,0-23.061,10.345-23.061,23.061v83.746
			c0,12.716,10.345,23.061,23.061,23.061h81.319c12.716,0,23.061-10.345,23.061-23.061V84.325c0-12.716-10.345-23.061-23.061-23.061
			H88.027z"/>
	</g>
	<g>
		<path fill="#183F2A" d="M169.346,198.414H88.027c-16.062,0-29.129-13.067-29.129-29.129V85.538
			c0-16.062,13.067-29.129,29.129-29.129h81.319c16.062,0,29.129,13.067,29.129,29.129v83.746
			C198.475,185.346,185.408,198.414,169.346,198.414z M88.027,62.478c-12.716,0-23.061,10.345-23.061,23.061v83.746
			c0,12.716,10.345,23.061,23.061,23.061h81.319c12.716,0,23.061-10.345,23.061-23.061V85.538c0-12.716-10.345-23.061-23.061-23.061
			H88.027z"/>
	</g>
	<g>
		<path fill="#183F2A" d="M193.62,129.414h-88.601c-1.676,0-3.034-1.324-3.034-3c0-1.676,1.359-3,3.034-3h88.601
			c1.676,0,3.034,1.324,3.034,3C196.654,128.089,195.296,129.414,193.62,129.414z"/>
	</g>
	<g>
		<path fill="#FFFFFF" d="M158.862,135.309h-17.295c-4.273,0-7.737-3.464-7.737-7.737v0c0-4.273,3.464-7.737,7.737-7.737h17.295
			c4.273,0,7.737,3.464,7.737,7.737v0C166.599,131.845,163.135,135.309,158.862,135.309z"/>
		<path fill="#183F2A" d="M158.862,138.343h-17.294c-5.939,0-10.771-4.832-10.771-10.771c0-5.939,4.832-10.771,10.771-10.771h17.294
			c5.939,0,10.771,4.832,10.771,10.771C169.633,133.511,164.801,138.343,158.862,138.343z M141.568,122.869
			c-2.593,0-4.703,2.11-4.703,4.703s2.109,4.703,4.703,4.703h17.294c2.593,0,4.703-2.109,4.703-4.703s-2.11-4.703-4.703-4.703
			H141.568z"/>
	</g>
	<g>
		<path fill="#183F2A" d="M63.089,187.348c-9.79,0-17.191-2.483-22.538-7.54c-11.16-10.557-10.881-30.274-10.586-51.149
			c0.048-3.384,0.097-6.883,0.097-10.341c0-10.545,2.575-25.089,14.842-34.494c7.384-5.661,14.787-6.702,15.099-6.744
			c1.659-0.22,3.187,0.945,3.409,2.607c0.221,1.657-0.94,3.18-2.596,3.407l0,0c-1.008,0.142-24.685,3.839-24.685,35.224
			c0,3.501-0.05,7.022-0.098,10.427c-0.276,19.505-0.536,37.928,8.689,46.655c4.835,4.574,12.18,6.447,22.45,5.732
			c1.681-0.119,3.122,1.144,3.238,2.816c0.117,1.672-1.144,3.122-2.816,3.238C66.04,187.294,64.538,187.348,63.089,187.348z"/>
	</g>
	<g>
		<path fill="#183F2A" d="M59.572,173.921c-3.48,0-6.523-1.134-9.069-3.384c-7.956-7.033-9.587-23.86-9.587-46.962
			c0-27.028,16.49-30.269,17.192-30.394c1.654-0.294,3.225,0.807,3.518,2.456c0.291,1.64-0.793,3.206-2.426,3.513
			c-0.572,0.119-12.216,2.811-12.216,24.424c0,12.494,0,35.752,7.537,42.415c1.74,1.538,3.784,2.102,6.431,1.774
			c1.667-0.203,3.178,0.976,3.384,2.639c0.206,1.663-0.976,3.178-2.639,3.384C60.972,173.876,60.263,173.921,59.572,173.921z"/>
	</g>
	<g>
		<path fill="#FFFFFF" d="M88.095,195.379h-2.156c-13.537,0-24.613-11.076-24.613-24.613V84.057
			c0-13.537,11.076-24.613,24.613-24.613h2.156c8.641,0,15.711,7.07,15.711,15.711v104.515
			C103.805,188.309,96.736,195.379,88.095,195.379z"/>
		<path fill="#183F2A" d="M88.095,198.414h-2.156c-15.245,0-27.647-12.403-27.647-27.647V84.057
			c0-15.245,12.403-27.647,27.647-27.647h2.156c10.336,0,18.745,8.409,18.745,18.745v104.514
			C106.84,190.005,98.431,198.414,88.095,198.414z M85.939,62.478c-11.899,0-21.579,9.68-21.579,21.579v86.709
			c0,11.899,9.68,21.579,21.579,21.579h2.156c6.99,0,12.676-5.687,12.676-12.676V75.154c0-6.99-5.687-12.676-12.676-12.676H85.939z"
			/>
	</g>
	<g>
		<g>
			<path fill="#163F2A" d="M166.675,159.572c-2.487,0-4.719-0.918-6.456-2.654c-1.761-1.762-2.654-3.884-2.654-6.308v-31.749
				c0-2.39,0.918-4.571,2.654-6.308c1.737-1.736,3.969-2.654,6.456-2.654h0.385v-3.649c0-5.082,1.841-9.501,5.473-13.132
				c3.632-3.632,8.051-5.473,13.132-5.473c5.09,0,9.488,1.847,13.073,5.489c3.573,3.632,5.384,8.045,5.384,13.117v3.649h0.533
				c2.386,0,4.567,0.917,6.306,2.652c1.739,1.743,2.656,3.924,2.656,6.31v31.749c0,2.421-0.892,4.542-2.652,6.306
				c-1.743,1.739-3.923,2.656-6.31,2.656H166.675z M185.591,131.087c-0.999,0-1.8,0.335-2.52,1.055
				c-0.73,0.73-1.055,1.53-1.055,2.594c0,1.052,0.335,1.875,1.053,2.592c0.73,0.732,1.507,1.057,2.522,1.057
				c1.013,0,1.79-0.325,2.52-1.055c0.72-0.719,1.055-1.544,1.055-2.594c0-1.049-0.336-1.873-1.057-2.596
				C187.39,131.422,186.589,131.087,185.591,131.087z M192.726,109.899v-3.649c0-1.934-0.685-3.559-2.093-4.968
				c-1.408-1.408-3.058-2.093-5.042-2.093c-1.971,0-3.588,0.676-4.942,2.067c-1.376,1.412-2.045,3.045-2.045,4.994v3.649H192.726z"
				/>
			<path fill="#FFFFFF" d="M185.665,90.375c4.351,0,8.06,1.558,11.127,4.673c3.065,3.116,4.599,6.85,4.599,11.201v6.38h3.264
				c1.681,0,3.139,0.619,4.377,1.854c1.236,1.238,1.855,2.696,1.855,4.377v31.749c0,1.683-0.619,3.139-1.855,4.377
				c-1.238,1.236-2.696,1.855-4.377,1.855h-37.98c-1.78,0-3.289-0.619-4.525-1.855c-1.238-1.238-1.855-2.694-1.855-4.377v-31.749
				c0-1.681,0.617-3.139,1.855-4.377c1.236-1.235,2.745-1.854,4.525-1.854h3.115v-6.38c0-4.351,1.558-8.086,4.673-11.201
				C177.579,91.933,181.311,90.375,185.665,90.375 M175.873,112.63h19.584v-6.38c0-2.671-0.965-4.97-2.893-6.899
				c-1.929-1.929-4.254-2.893-6.973-2.893c-2.721,0-5.021,0.964-6.899,2.893c-1.88,1.929-2.819,4.228-2.819,6.899V112.63
				 M185.591,141.115c1.729,0,3.213-0.617,4.451-1.855c1.236-1.236,1.855-2.745,1.855-4.525c0-1.78-0.619-3.287-1.855-4.525
				c-1.238-1.236-2.721-1.855-4.451-1.855c-1.732,0-3.215,0.619-4.451,1.855c-1.238,1.238-1.855,2.745-1.855,4.525
				c0,1.78,0.617,3.289,1.855,4.525C182.375,140.498,183.859,141.115,185.591,141.115 M185.665,84.914
				c-5.832,0-10.9,2.111-15.063,6.273c-4.163,4.163-6.273,9.231-6.273,15.063v1.138c-2.286,0.441-4.344,1.537-6.04,3.233
				c-2.26,2.26-3.455,5.109-3.455,8.239v31.749c0,3.13,1.194,5.979,3.454,8.239c2.26,2.26,5.16,3.454,8.387,3.454h37.98
				c3.126,0,5.973-1.193,8.235-3.451c2.265-2.269,3.458-5.117,3.458-8.242v-31.749c0-3.126-1.193-5.974-3.451-8.235
				c-1.725-1.721-3.784-2.823-6.045-3.253v-1.122c0-5.814-2.075-10.871-6.167-15.031C196.567,87.035,191.513,84.914,185.665,84.914
				L185.665,84.914z M181.335,107.168v-0.918c0-1.252,0.379-2.175,1.268-3.086c0.85-0.873,1.742-1.244,2.988-1.244
				c1.274,0,2.204,0.387,3.111,1.293c0.907,0.907,1.293,1.815,1.293,3.037v0.918H181.335L181.335,107.168z M185.591,135.653
				c-0.267,0-0.364-0.03-0.585-0.251c-0.19-0.189-0.259-0.293-0.259-0.667c0-0.373,0.07-0.478,0.255-0.663
				c0.225-0.225,0.322-0.255,0.589-0.255c0.247,0,0.355,0.021,0.592,0.259c0.18,0.181,0.251,0.287,0.251,0.659
				c0,0.371-0.074,0.482-0.255,0.663C185.955,135.623,185.857,135.653,185.591,135.653L185.591,135.653z"/>
		</g>
	</g>
</g>
</svg>
