<svg xmlns="http://www.w3.org/2000/svg" viewBox="0 0 250 250"><path fill="#183F2A" d="M169.346 197.2H88.027c-16.062 0-29.129-13.067-29.129-29.129V84.325c0-16.062 13.067-29.129 29.129-29.129h81.319c16.062 0 29.129 13.067 29.129 29.129v83.746c0 16.062-13.067 29.129-29.129 29.129zM88.027 61.264c-12.716 0-23.061 10.345-23.061 23.061v83.746c0 12.716 10.345 23.061 23.061 23.061h81.319c12.716 0 23.061-10.345 23.061-23.061V84.325c0-12.716-10.345-23.061-23.061-23.061H88.027z"/><path fill="#183F2A" d="M169.346 198.414H88.027c-16.062 0-29.129-13.067-29.129-29.129V85.538c0-16.062 13.067-29.129 29.129-29.129h81.319c16.062 0 29.129 13.067 29.129 29.129v83.746c0 16.062-13.067 29.13-29.129 29.13zM88.027 62.478c-12.716 0-23.061 10.345-23.061 23.061v83.746c0 12.716 10.345 23.061 23.061 23.061h81.319c12.716 0 23.061-10.345 23.061-23.061V85.538c0-12.716-10.345-23.061-23.061-23.061H88.027z"/><path fill="#183F2A" d="M193.62 129.414h-88.601c-1.676 0-3.034-1.324-3.034-3s1.359-3 3.034-3h88.601c1.676 0 3.034 1.324 3.034 3 0 1.675-1.358 3-3.034 3z"/><path fill="#FFF" d="M158.862 135.309h-17.295a7.737 7.737 0 0 1 0-15.474h17.295a7.737 7.737 0 0 1 0 15.474z"/><path fill="#183F2A" d="M158.862 138.343h-17.294c-5.939 0-10.771-4.832-10.771-10.771 0-5.939 4.832-10.771 10.771-10.771h17.294c5.939 0 10.771 4.832 10.771 10.771 0 5.939-4.832 10.771-10.771 10.771zm-17.294-15.474c-2.593 0-4.703 2.11-4.703 4.703s2.109 4.703 4.703 4.703h17.294c2.593 0 4.703-2.109 4.703-4.703s-2.11-4.703-4.703-4.703h-17.294zM63.089 187.348c-9.79 0-17.191-2.483-22.538-7.54-11.16-10.557-10.881-30.274-10.586-51.149.048-3.384.097-6.883.097-10.341 0-10.545 2.575-25.089 14.842-34.494 7.384-5.661 14.787-6.702 15.099-6.744a3.034 3.034 0 1 1 .813 6.014c-1.008.142-24.685 3.839-24.685 35.224 0 3.501-.05 7.022-.098 10.427-.276 19.505-.536 37.928 8.689 46.655 4.835 4.574 12.18 6.447 22.45 5.732a3.027 3.027 0 0 1 3.238 2.816 3.033 3.033 0 0 1-2.816 3.238 65.032 65.032 0 0 1-4.505.162z"/><path fill="#183F2A" d="M59.572 173.921c-3.48 0-6.523-1.134-9.069-3.384-7.956-7.033-9.587-23.86-9.587-46.962 0-27.028 16.49-30.269 17.192-30.394A3.035 3.035 0 0 1 59.2 99.15c-.572.119-12.216 2.811-12.216 24.424 0 12.494 0 35.752 7.537 42.415 1.74 1.538 3.784 2.102 6.431 1.774a3.035 3.035 0 0 1 .745 6.023c-.725.09-1.434.135-2.125.135z"/><path fill="#FFF" d="M88.095 195.379h-2.156c-13.537 0-24.613-11.076-24.613-24.613V84.057c0-13.537 11.076-24.613 24.613-24.613h2.156c8.641 0 15.711 7.07 15.711 15.711V179.67c-.001 8.639-7.07 15.709-15.711 15.709z"/><path fill="#183F2A" d="M88.095 198.414h-2.156c-15.245 0-27.647-12.403-27.647-27.647v-86.71c0-15.245 12.403-27.647 27.647-27.647h2.156c10.336 0 18.745 8.409 18.745 18.745v104.514c0 10.336-8.409 18.745-18.745 18.745zM85.939 62.478c-11.899 0-21.579 9.68-21.579 21.579v86.709c0 11.899 9.68 21.579 21.579 21.579h2.156c6.99 0 12.676-5.687 12.676-12.676V75.154c0-6.99-5.687-12.676-12.676-12.676h-2.156z"/><g><path fill="#163F2A" d="M166.675 159.572c-2.487 0-4.719-.918-6.456-2.654-1.761-1.762-2.654-3.884-2.654-6.308v-31.749c0-2.39.918-4.571 2.654-6.308 1.737-1.736 3.969-2.654 6.456-2.654h.385v-3.649c0-5.082 1.841-9.501 5.473-13.132 3.632-3.632 8.051-5.473 13.132-5.473 5.09 0 9.488 1.847 13.073 5.489 3.573 3.632 5.384 8.045 5.384 13.117v3.649h.533c2.386 0 4.567.917 6.306 2.652 1.739 1.743 2.656 3.924 2.656 6.31v31.749c0 2.421-.892 4.542-2.652 6.306-1.743 1.739-3.923 2.656-6.31 2.656h-37.98zm18.916-28.485c-.999 0-1.8.335-2.52 1.055-.73.73-1.055 1.53-1.055 2.594 0 1.052.335 1.875 1.053 2.592.73.732 1.507 1.057 2.522 1.057 1.013 0 1.79-.325 2.52-1.055.72-.719 1.055-1.544 1.055-2.594 0-1.049-.336-1.873-1.057-2.596-.719-.718-1.52-1.053-2.518-1.053zm7.135-21.188v-3.649c0-1.934-.685-3.559-2.093-4.968-1.408-1.408-3.058-2.093-5.042-2.093-1.971 0-3.588.676-4.942 2.067-1.376 1.412-2.045 3.045-2.045 4.994v3.649h14.122z"/><path fill="#FFF" d="M185.665 90.375c4.351 0 8.06 1.558 11.127 4.673 3.065 3.116 4.599 6.85 4.599 11.201v6.38h3.264c1.681 0 3.139.619 4.377 1.854 1.236 1.238 1.855 2.696 1.855 4.377v31.749c0 1.683-.619 3.139-1.855 4.377-1.238 1.236-2.696 1.855-4.377 1.855h-37.98c-1.78 0-3.289-.619-4.525-1.855-1.238-1.238-1.855-2.694-1.855-4.377V118.86c0-1.681.617-3.139 1.855-4.377 1.236-1.235 2.745-1.854 4.525-1.854h3.115v-6.38c0-4.351 1.558-8.086 4.673-11.201 3.116-3.115 6.848-4.673 11.202-4.673m-9.792 22.255h19.584v-6.38c0-2.671-.965-4.97-2.893-6.899-1.929-1.929-4.254-2.893-6.973-2.893-2.721 0-5.021.964-6.899 2.893-1.88 1.929-2.819 4.228-2.819 6.899v6.38m9.718 28.485c1.729 0 3.213-.617 4.451-1.855 1.236-1.236 1.855-2.745 1.855-4.525 0-1.78-.619-3.287-1.855-4.525-1.238-1.236-2.721-1.855-4.451-1.855-1.732 0-3.215.619-4.451 1.855-1.238 1.238-1.855 2.745-1.855 4.525 0 1.78.617 3.289 1.855 4.525 1.235 1.238 2.719 1.855 4.451 1.855m.074-56.201c-5.832 0-10.9 2.111-15.063 6.273-4.163 4.163-6.273 9.231-6.273 15.063v1.138c-2.286.441-4.344 1.537-6.04 3.233-2.26 2.26-3.455 5.109-3.455 8.239v31.749c0 3.13 1.194 5.979 3.454 8.239 2.26 2.26 5.16 3.454 8.387 3.454h37.98c3.126 0 5.973-1.193 8.235-3.451 2.265-2.269 3.458-5.117 3.458-8.242V118.86c0-3.126-1.193-5.974-3.451-8.235-1.725-1.721-3.784-2.823-6.045-3.253v-1.122c0-5.814-2.075-10.871-6.167-15.031-4.118-4.184-9.172-6.305-15.02-6.305zm-4.33 22.254v-.918c0-1.252.379-2.175 1.268-3.086.85-.873 1.742-1.244 2.988-1.244 1.274 0 2.204.387 3.111 1.293.907.907 1.293 1.815 1.293 3.037v.918h-8.66zm4.256 28.485c-.267 0-.364-.03-.585-.251-.19-.189-.259-.293-.259-.667 0-.373.07-.478.255-.663.225-.225.322-.255.589-.255.247 0 .355.021.592.259.18.181.251.287.251.659 0 .371-.074.482-.255.663-.224.225-.322.255-.588.255z"/></g></svg>