<?xml version="1.0" encoding="utf-8"?>
<!-- Generator: Adobe Illustrator 18.0.0, SVG Export Plug-In . SVG Version: 6.00 Build 0)  -->
<!DOCTYPE svg PUBLIC "-//W3C//DTD SVG 1.1//EN" "http://www.w3.org/Graphics/SVG/1.1/DTD/svg11.dtd">
<svg version="1.1" xmlns="http://www.w3.org/2000/svg" xmlns:xlink="http://www.w3.org/1999/xlink" x="0px" y="0px"
	 viewBox="0 0 250 250" enable-background="new 0 0 250 250" xml:space="preserve">
<g id="Guides">
</g>
<g id="_x31_2_Col_Grid" opacity="0.1" enable-background="new    ">
</g>
<g id="Layer_3">
	<polygon fill-rule="evenodd" clip-rule="evenodd" fill="#163F2A" points="82.573,217.665 75.133,217.665 75.753,198.138 
		82.573,198.138 	"/>
	<circle fill-rule="evenodd" clip-rule="evenodd" fill="#163F2A" cx="55.138" cy="174.846" r="17.515"/>
	<path fill="#163F2A" d="M214.84,50.647h-75.726c-2.74,0-4.983-2.242-4.983-4.983v-7.237c0-2.74,2.242-4.983,4.983-4.983h75.726
		c2.74,0,4.983,2.242,4.983,4.983v7.237C219.823,48.405,217.581,50.647,214.84,50.647z"/>
	<path fill="#163F2A" d="M220.052,232.132"/>
	<path fill="#163F2A" stroke="#163F2A" stroke-width="2" stroke-miterlimit="10" d="M135.816,67.992h-5.443
		c-1.391,0-2.529-1.138-2.529-2.529v-9.332c0-1.391,1.138-2.529,2.529-2.529h5.443c1.391,0,2.529,1.138,2.529,2.529v9.332
		C138.344,66.854,137.206,67.992,135.816,67.992z"/>
	<path fill="#163F2A" stroke="#163F2A" stroke-width="2" stroke-miterlimit="10" d="M223.04,67.992h-5.443
		c-1.391,0-2.529-1.138-2.529-2.529v-9.332c0-1.391,1.138-2.529,2.529-2.529h5.443c1.391,0,2.529,1.138,2.529,2.529v9.332
		C225.568,66.854,224.43,67.992,223.04,67.992z"/>
	<path fill="#163F2A" d="M224.107,92.898c0-5.356-6.211-8.378-11.211-9.719v-6.522c0-1.756,0-3.268-2-4.401V52.232
		c0-6.152-4.861-10.818-11.013-10.818h-45.81c-6.153,0-11.177,4.666-11.177,10.818v19.479c-2,1.169-3,2.89-3,4.946v6.524
		c-6,1.305-10.313,4.097-10.313,9.261c0,11.834-0.318,20.971-0.318,20.971h5.051l-0.029,7.953c-0.011,3.258,2.629,5.827,5.887,5.838
		l9.27-0.012c3.246,0,5.896-2.352,5.907-5.597l0.026-7.182h41.775c0.252,0,0.5-0.328,0.747-0.35l-0.028,7.862
		c-0.005,1.573,0.605,2.979,1.72,4.101c1.115,1.123,2.594,1.705,4.166,1.711l9.27,0.013c3.245,0,5.895-2.316,5.907-5.561
		l0.029-7.776h5.729C224.691,114.414,224.107,104.732,224.107,92.898z M154.896,52.414h44v18h-44V52.414z M156,86.382
		c-2.873,0-5.202-2.329-5.202-5.202c0-2.873,2.329-5.202,5.202-5.202s5.202,2.329,5.202,5.202
		C161.201,84.053,158.872,86.382,156,86.382z M169.896,100.337c0,0.762-0.738,1.38-1.5,1.38c-0.762,0-1.5-0.618-1.5-1.38V79.631
		c0-0.762,0.738-1.38,1.5-1.38c0.762,0,1.5,0.618,1.5,1.38V100.337z M176.896,100.337c0,0.762-0.238,1.38-1,1.38
		c-0.762,0-1-0.618-1-1.38V79.631c0-0.762,0.238-1.38,1-1.38c0.762,0,1,0.618,1,1.38V100.337z M185.896,100.337
		c0,0.762-0.738,1.38-1.5,1.38c-0.762,0-1.5-0.618-1.5-1.38V79.631c0-0.762,0.738-1.38,1.5-1.38c0.762,0,1.5,0.618,1.5,1.38V100.337
		z M196.784,86.382c-2.873,0-5.202-2.329-5.202-5.202c0-2.873,2.329-5.202,5.202-5.202c2.873,0,5.202,2.329,5.202,5.202
		C201.985,84.053,199.657,86.382,196.784,86.382z"/>
	<g>
		<path fill="#183F2A" d="M247.19,130.414H-0.099c-1.552,0-2.81-0.863-2.81-2.5c0-1.637,1.258-2.5,2.81-2.5H247.19
			c1.552,0,2.81,0.863,2.81,2.5C250,129.551,248.742,130.414,247.19,130.414z"/>
	</g>
	<path fill-rule="evenodd" clip-rule="evenodd" fill="#163F2A" d="M104.171,158.939c0,0,0.548-6.259-6.797-6.615
		c-8.708-0.422-7.285,7.334-7.285,7.334s-0.436,24.892-0.664,31.907c-0.138,4.252-2.759,5.847-4.729,5.847h-9.11
		c-1.127,0-1.98,0.058-3.094,0.056c-9.966-0.008-19.936,0.101-29.885,0.101c-9.765,0.008-18.614,4.19-19.992,14.791
		c-0.096,0.279,0.213,0.107,0.08,0.386c0,0.006-0.357,0.45-0.382,0.433c-0.056-0.031-0.416-0.525-0.416-0.547
		c0,12.717,0,25.857,0,38.78H35.6c0.002-9.907,0.003-19.146,0.019-28.676c0-0.511-0.352-1.35,0.395-1.5
		c0.723-0.152,1.515-0.078,2.275-0.015c-0.622-0.014,0.502,0.579,0.502,0.662c0.028,0.46,0.105,0.915,0.105,1.378
		c0,9.327,0,18.675,0,28.152h38c0-9.477,0-18.988,0-28.4c0-1.713,0.125-5.387,1.903-5.157l0.164-0.443h2.933v0.444
		c13-0.146,20.607-7.904,21.472-16.344C104.411,191.327,104.171,158.939,104.171,158.939z"/>
</g>
<g id="Layer_4">
</g>
</svg>
