<?xml version="1.0" encoding="utf-8"?>
<!-- Generator: Adobe Illustrator 18.0.0, SVG Export Plug-In . SVG Version: 6.00 Build 0)  -->
<!DOCTYPE svg PUBLIC "-//W3C//DTD SVG 1.1//EN" "http://www.w3.org/Graphics/SVG/1.1/DTD/svg11.dtd">
<svg version="1.1" xmlns="http://www.w3.org/2000/svg" xmlns:xlink="http://www.w3.org/1999/xlink" x="0px" y="0px"
	 viewBox="0 0 250 250" enable-background="new 0 0 250 250" xml:space="preserve">
<g id="Guides">
</g>
<g id="_x31_2_Col_Grid" opacity="0.1" enable-background="new    ">
</g>
<g id="Layer_3">
	<path fill="#163F2A" d="M98.57,129.996c0,14.976-12.14,27.116-27.118,27.116c-14.976,0-27.116-12.14-27.116-27.116
		c0-14.976,12.14-27.118,27.116-27.118C86.43,102.877,98.57,115.019,98.57,129.996"/>
	<path fill="#163F2A" d="M42.896,205.414c0,0,0,30.276,0,45h61c0-14.724,0-30.046,0-44.996c0-2.287,0.08-3.686,1.567-3.931
		c1.909-0.669,3.103,1.135,3.103,1.135l9.461,17.742c1.467,3.787,3.519,4.95,9.049,6.242l18.559,2.544l21.71,3.63
		c0,0,14.347,4.615,16.366-7.466c2.019-12.082-12.267-13.434-12.267-13.434l-20.529-3.431l-15.567-2.602
		c0,0-8.79-22.278-12.806-29.185c-3.991-6.863-11.417-10.534-15.782-11.112l-10.466-0.359c-15.829-0.013-31.637-0.013-47.439-0.013
		c-15.511,0.013-26.717,6.26-31.002,21.166c-0.152,0.444-0.394,4.17-0.604,4.614l-0.135,59.456h20.64
		c0.003-15.857,0.004-30.354,0.031-45.49c0-0.811-0.127-2.236,0.628-2.354c1.249-0.195,2.887-0.29,4.178-0.187"/>
	<g>
		<path fill="#163F2A" d="M99.287,27.391c3.588,0,5.664,2.076,5.664,4.869c0,1.871-1.179,3.409-2.665,3.896
			c1.64,0.384,3.229,1.897,3.229,4.254c0,2.973-2.255,5.152-5.69,5.152h-7.33V27.391H99.287z M98.647,34.67
			c1.41,0,2.332-0.743,2.332-1.974c0-1.179-0.794-1.948-2.383-1.948h-2.153v3.921H98.647z M98.98,42.256
			c1.563,0,2.512-0.82,2.512-2.127c0-1.256-0.922-2.127-2.512-2.127h-2.537v4.254H98.98z"/>
		<path fill="#163F2A" d="M111.154,38.207l2.999-0.462c0.692-0.102,0.923-0.436,0.923-0.871c0-0.743-0.641-1.384-1.871-1.384
			c-1.359,0-2.102,0.923-2.179,1.871l-3.383-0.692c0.154-1.819,1.845-4.229,5.587-4.229c4.126,0,5.638,2.307,5.638,4.921v6.228
			c0,1,0.128,1.845,0.154,1.974h-3.511c-0.025-0.103-0.128-0.564-0.128-1.435c-0.666,1.076-1.897,1.794-3.588,1.794
			c-2.794,0-4.409-1.845-4.409-3.87C107.386,39.796,109.052,38.515,111.154,38.207z M115.076,40.565v-0.564l-2.409,0.384
			c-0.82,0.128-1.435,0.513-1.435,1.41c0,0.666,0.436,1.307,1.512,1.307C113.896,43.102,115.076,42.538,115.076,40.565z"/>
		<path fill="#163F2A" d="M122.662,50.458l2.896-6.612l-5.357-11.021h4.357l3.101,6.818l2.819-6.818h4.126l-7.843,17.633H122.662z"
			/>
		<path fill="#163F2A" d="M139.194,38.207l2.999-0.462c0.692-0.102,0.923-0.436,0.923-0.871c0-0.743-0.641-1.384-1.871-1.384
			c-1.358,0-2.102,0.923-2.178,1.871l-3.383-0.692c0.154-1.819,1.845-4.229,5.587-4.229c4.126,0,5.638,2.307,5.638,4.921v6.228
			c0,1,0.128,1.845,0.154,1.974h-3.511c-0.025-0.103-0.128-0.564-0.128-1.435c-0.666,1.076-1.897,1.794-3.588,1.794
			c-2.794,0-4.409-1.845-4.409-3.87C135.426,39.796,137.092,38.515,139.194,38.207z M143.115,40.565v-0.564l-2.409,0.384
			c-0.82,0.128-1.435,0.513-1.435,1.41c0,0.666,0.436,1.307,1.512,1.307C141.936,43.102,143.115,42.538,143.115,40.565z"/>
		<path fill="#163F2A" d="M162.645,43.282c0,1.153,0.077,1.999,0.103,2.281h-3.742c-0.026-0.154-0.103-0.718-0.103-1.23
			c-0.59,0.871-1.871,1.512-3.409,1.512c-3.588,0-6.305-2.768-6.305-6.69c0-3.793,2.563-6.638,6.177-6.638
			c2.178,0,3.127,0.82,3.434,1.307v-6.818h3.844V43.282z M155.982,42.359c1.512,0,2.87-1.076,2.87-3.178
			c0-2.127-1.358-3.153-2.87-3.153c-1.512,0-2.871,1.025-2.871,3.153C153.111,41.283,154.47,42.359,155.982,42.359z"/>
		<path fill="#163F2A" d="M172.462,50.432V32.825h3.768v1.307c0.538-0.82,1.922-1.615,3.742-1.615c3.691,0,5.921,2.819,5.921,6.638
			c0,3.896-2.512,6.69-6.074,6.69c-1.64,0-2.871-0.564-3.46-1.282v5.869H172.462z M179.177,36.028c-1.512,0-2.871,1.025-2.871,3.153
			c0,2.102,1.359,3.178,2.871,3.178c1.538,0,2.896-1.051,2.896-3.178C182.073,37.054,180.715,36.028,179.177,36.028z"/>
		<path fill="#163F2A" d="M201.014,39.181c0,3.947-2.947,6.766-6.766,6.766c-3.793,0-6.766-2.819-6.766-6.766
			s2.973-6.741,6.766-6.741C198.067,32.44,201.014,35.234,201.014,39.181z M197.118,39.181c0-2.153-1.384-3.153-2.871-3.153
			c-1.461,0-2.871,1-2.871,3.153c0,2.127,1.41,3.178,2.871,3.178C195.734,42.359,197.118,41.334,197.118,39.181z"/>
		<path fill="#163F2A" d="M207.217,39.873h-2.871l-0.897-12.481h4.665L207.217,39.873z M205.756,41.385c1.23,0,2.23,1,2.23,2.23
			c0,1.205-1,2.204-2.23,2.204s-2.204-1-2.204-2.204C203.552,42.385,204.526,41.385,205.756,41.385z"/>
	</g>
	<path fill="#163F2A" d="M214.939,205.249l-10.62,12.527c-1.755,2.07-4.884,2.328-6.954,0.573l-24.857-21.072
		c-2.07-1.755-2.328-4.884-0.573-6.954l10.62-12.527c1.755-2.07,4.884-2.328,6.954-0.573l24.857,21.072
		C216.435,200.049,216.693,203.179,214.939,205.249z"/>
	<g>
		<path fill="#183F2A" d="M102.108,100.851l1.975-23.825c-5.855-0.45-18.993-2.038-27.974-7.472
			c-15.221-9.209-18.623-22.834-18.76-23.409c-0.363-1.521,0.576-3.048,2.097-3.411c1.518-0.364,3.041,0.571,3.409,2.087l0,0
			c0.029,0.119,3.077,11.958,16.186,19.889c10.347,6.26,28.006,6.823,28.183,6.828l2.99,0.084l-1.21,14.606l13.739-13.387
			l1.229,0.059c0.098,0.004,9.894,0.465,19.553,0.465c1.564,0,2.832,1.268,2.832,2.832s-1.268,2.832-2.832,2.832
			c-7.772,0-15.624-0.294-18.588-0.418L102.108,100.851z"/>
	</g>
</g>
<g id="Layer_4">
</g>
</svg>
