<svg xmlns="http://www.w3.org/2000/svg" viewBox="0 0 250 250"><path fill-rule="evenodd" clip-rule="evenodd" fill="#163F2A" d="M82.573 217.665h-7.44l.62-19.527h6.82z"/><circle fill-rule="evenodd" clip-rule="evenodd" fill="#163F2A" cx="55.138" cy="174.846" r="17.515"/><path fill="#163F2A" d="M214.84 50.647h-75.726a4.998 4.998 0 0 1-4.983-4.983v-7.237a4.998 4.998 0 0 1 4.983-4.983h75.726a4.998 4.998 0 0 1 4.983 4.983v7.237a4.997 4.997 0 0 1-4.983 4.983z"/><path fill="#163F2A" stroke="#163F2A" stroke-width="2" stroke-miterlimit="10" d="M135.816 67.992h-5.443a2.536 2.536 0 0 1-2.529-2.529v-9.332a2.536 2.536 0 0 1 2.529-2.529h5.443a2.536 2.536 0 0 1 2.529 2.529v9.332a2.538 2.538 0 0 1-2.529 2.529zM223.04 67.992h-5.443a2.536 2.536 0 0 1-2.529-2.529v-9.332a2.536 2.536 0 0 1 2.529-2.529h5.443a2.536 2.536 0 0 1 2.529 2.529v9.332a2.538 2.538 0 0 1-2.529 2.529z"/><path fill="#163F2A" d="M224.107 92.898c0-5.356-6.211-8.378-11.211-9.719v-6.522c0-1.756 0-3.268-2-4.401V52.232c0-6.152-4.861-10.818-11.013-10.818h-45.81c-6.153 0-11.177 4.666-11.177 10.818v19.479c-2 1.169-3 2.89-3 4.946v6.524c-6 1.305-10.313 4.097-10.313 9.261 0 11.834-.318 20.971-.318 20.971h5.051l-.029 7.953c-.011 3.258 2.629 5.827 5.887 5.838l9.27-.012c3.246 0 5.896-2.352 5.907-5.597l.026-7.182h41.775c.252 0 .5-.328.747-.35l-.028 7.862c-.005 1.573.605 2.979 1.72 4.101 1.115 1.123 2.594 1.705 4.166 1.711l9.27.013c3.245 0 5.895-2.316 5.907-5.561l.029-7.776h5.729c-.001.001-.585-9.681-.585-21.515zm-69.211-40.484h44v18h-44v-18zM156 86.382a5.202 5.202 0 1 1 0-10.404 5.202 5.202 0 0 1 0 10.404zm13.896 13.955c0 .762-.738 1.38-1.5 1.38s-1.5-.618-1.5-1.38V79.631c0-.762.738-1.38 1.5-1.38s1.5.618 1.5 1.38v20.706zm7 0c0 .762-.238 1.38-1 1.38s-1-.618-1-1.38V79.631c0-.762.238-1.38 1-1.38s1 .618 1 1.38v20.706zm9 0c0 .762-.738 1.38-1.5 1.38s-1.5-.618-1.5-1.38V79.631c0-.762.738-1.38 1.5-1.38s1.5.618 1.5 1.38v20.706zm10.888-13.955a5.202 5.202 0 1 1 0-10.404 5.202 5.202 0 0 1 0 10.404z"/><path fill="#183F2A" d="M247.19 130.414H-.099c-1.552 0-2.81-.863-2.81-2.5s1.258-2.5 2.81-2.5H247.19c1.552 0 2.81.863 2.81 2.5s-1.258 2.5-2.81 2.5z"/><path fill-rule="evenodd" clip-rule="evenodd" fill="#163F2A" d="M104.171 158.939s.548-6.259-6.797-6.615c-8.708-.422-7.285 7.334-7.285 7.334s-.436 24.892-.664 31.907c-.138 4.252-2.759 5.847-4.729 5.847h-9.11c-1.127 0-1.98.058-3.094.056-9.966-.008-19.936.101-29.885.101-9.765.008-18.614 4.19-19.992 14.791-.096.279.213.107.08.386 0 .006-.357.45-.382.433-.056-.031-.416-.525-.416-.547v38.78H35.6c.002-9.907.003-19.146.019-28.676 0-.511-.352-1.35.395-1.5.723-.152 1.515-.078 2.275-.015-.622-.014.502.579.502.662.028.46.105.915.105 1.378v28.152h38v-28.4c0-1.713.125-5.387 1.903-5.157l.164-.443h2.933v.444c13-.146 20.607-7.904 21.472-16.344 1.043-10.186.803-42.574.803-42.574z"/></svg>