<?xml version="1.0" encoding="utf-8"?>
<!-- Generator: Adobe Illustrator 18.0.0, SVG Export Plug-In . SVG Version: 6.00 Build 0)  -->
<!DOCTYPE svg PUBLIC "-//W3C//DTD SVG 1.1//EN" "http://www.w3.org/Graphics/SVG/1.1/DTD/svg11.dtd">
<svg version="1.1" xmlns="http://www.w3.org/2000/svg" xmlns:xlink="http://www.w3.org/1999/xlink" x="0px" y="0px"
	 viewBox="0 0 250 250" enable-background="new 0 0 250 250" xml:space="preserve">
<g id="Guides">
</g>
<g id="_x31_2_Col_Grid" opacity="0.1" enable-background="new    ">
</g>
<g id="Layer_3">
</g>
<g id="Layer_4">
	<path fill="#163F2A" stroke="#163F2A" stroke-width="2" stroke-miterlimit="10" d="M153.011,86.193h-26.655
		c-1.432,0-2.604-1.172-2.604-2.604V70.362c0-1.432,1.172-2.604,2.604-2.604h26.655c1.432,0,2.604,1.172,2.604,2.604V83.59
		C155.614,85.022,154.443,86.193,153.011,86.193z"/>
	<path fill-rule="evenodd" clip-rule="evenodd" fill="#163F2A" d="M200.046,97.911c-0.214,0.936,0.648,0.686,1.028,0.822
		c6.887,2.24,11.441,8.762,11.11,16.052c-0.303,7.119-5.581,13.184-12.92,14.845c-6.402,1.454-13.771-1.947-16.987-7.874
		c-4.967-9.105-0.674-19.869,9.215-23.089c0.409-0.132,0.906-0.105,1.162-0.524c0.009-0.027-0.039-0.093-0.069-0.126
		c-0.044-0.036-0.086-0.075-0.128-0.105C194.985,97.911,197.512,97.911,200.046,97.911z"/>
	<g>
		<path fill="#183F2A" d="M124.896,254.062c-1.675,0-3-1.358-3-3.033v-77.046c0-1.675,0.943-2.57,2.618-2.57h13.168
			c2.316,0,4.214-2.592,4.214-4.93v-29.124c0-2.217-1.774-3.946-4.214-3.946h-13.168c-1.675,0-2.618-1.434-2.618-3.109V47.192
			c0-1.675,0.943-2.779,2.618-2.779h125.578c1.675,0,3.033,1.325,3.033,3s-1.358,3-3.033,3H127.896v77h9.786
			c5.785,0,11.214,4.383,11.214,9.946v29.124c0,5.71-5.527,9.93-11.214,9.93h-9.786v74.616
			C127.896,252.704,126.571,254.062,124.896,254.062z"/>
	</g>
	<g>
		<path fill="#183F2A" d="M125.244,255.063c-1.675,0-3.033-1.358-3.033-3.033v-77.357c0-1.675,1.358-3.033,3.033-3.033h124.671
			c1.675,0,3.033,1.358,3.033,3.033c0,1.675-1.358,3.033-3.033,3.033H128.277v74.323
			C128.277,253.705,126.919,255.063,125.244,255.063z"/>
	</g>
	<path fill-rule="evenodd" clip-rule="evenodd" fill="#163F2A" d="M54.266,97.911c-0.214,0.936,0.648,0.686,1.028,0.822
		c6.887,2.24,11.441,8.762,11.11,16.052c-0.303,7.119-5.581,13.184-12.92,14.845c-6.402,1.454-13.771-1.947-16.987-7.874
		c-4.967-9.105-0.674-19.869,9.215-23.089c0.409-0.132,0.906-0.105,1.162-0.524c0.009-0.027-0.039-0.093-0.069-0.126
		c-0.044-0.036-0.086-0.075-0.128-0.105C49.205,97.911,51.732,97.911,54.266,97.911z"/>
	<path fill-rule="evenodd" clip-rule="evenodd" fill="#163F2A" d="M13.546,206.857c1.604,2.938,4.503,4.28,7.877,3.606
		c2.987-0.593,4.947-2.944,5.279-6.282c0.063-0.771,0.083-1.541,0.083-2.302c0.011-13.921-0.004-27.845,0.018-41.761
		c0-0.548-0.38-1.397,0.418-1.559c0.832-0.175,1.745-0.045,2.615,0.018c0.293,0.045,0.15,0.433,0.15,0.701
		c0.027,0.493-0.09,0.99-0.09,1.484c0,30.847,0,61.651,0,92.651h19c0-14,0-27.711,0-41.515c0-1.505,1.489-2.432,2.843-1.707
		c0.495,0.28,0.241,0.789,0.241,1.177c0.035,2.85-0.002,5.758-0.002,8.602c0,11.134-0.015,22.442-0.02,33.442h17.938
		c0-31,0-61.977,0-92.916c0-2.011,1.495-2.453,3.508-2.02c0.65,0.145,1.492,0.53,1.492,0.957c0,1.141,0,2.3,0,3.45
		c0,13.163,0,26.319,0,39.479c0,0.987-0.469,1.995-0.287,2.941c0.643,3.019,2.568,4.903,5.694,5.34
		c2.849,0.403,5.448-1.026,6.848-3.624c0.176-0.331,0.321-0.644,0.506-0.978c0-0.006-0.399,0.024-0.37,0.036
		c0.039,0.039-0.39,0.09-0.39,0.123c0-18.644,0-37.3,0-55.961c0,0.286-0.073-0.406-0.159-0.683
		c-2.883-10.273-10.242-16.058-20.867-16.073c-10.633-0.015-21.138-0.015-31.752-0.015c-10.412,0.015-17.882,5.71-20.764,15.724
		c-0.101,0.301-0.237,0.581-0.375,0.882c0,0.006,0-0.033-0.026-0.051c-0.057-0.03-0.058-0.081-0.058-0.102
		c0,18.761,0,37.513,0,56.281C14.019,205.852,13.403,206.598,13.546,206.857z"/>
	<path fill-rule="evenodd" clip-rule="evenodd" fill="#163F2A" d="M172.57,173.414c0.002-4,0.003-8.835,0.009-13.207
		c0-0.548-0.378-1.441,0.42-1.603c0.832-0.175,1.746-0.067,2.616-0.004c0.293,0.045,0.261,0.422,0.261,0.69
		c0.027,0.494,0.021,0.979,0.021,1.473c0,4.158,0,8.651,0,12.651h41c0-4,0-8.669,0-12.916c0-2.011-0.005-2.453,2.008-2.02
		c0.65,0.145-0.008,0.53-0.008,0.957c0,1.141,0,2.3,0,3.45c0,3.452,0,7.529,0,10.529h15c0-8,0-15.505,0-23.174
		c-1,0.286-0.683-0.406-0.769-0.683c-2.883-10.273-10.547-16.058-21.172-16.073c-10.633-0.015-21.29-0.015-31.905-0.015
		c-10.412,0.015-17.958,5.71-20.84,15.724c-0.101,0.301-0.275,0.581-0.413,0.882c0,0.006,0.09-0.033,0.065-0.051
		c-0.057-0.03,0.033-0.081,0.033-0.102c0,7.773,0,15.493,0,23.493H172.57z"/>
</g>
</svg>
