<?xml version="1.0" encoding="utf-8"?>
<!-- Generator: Adobe Illustrator 18.0.0, SVG Export Plug-In . SVG Version: 6.00 Build 0)  -->
<!DOCTYPE svg PUBLIC "-//W3C//DTD SVG 1.1//EN" "http://www.w3.org/Graphics/SVG/1.1/DTD/svg11.dtd">
<svg version="1.1" xmlns="http://www.w3.org/2000/svg" xmlns:xlink="http://www.w3.org/1999/xlink" x="0px" y="0px"
	 viewBox="0 0 250 250" enable-background="new 0 0 250 250" xml:space="preserve">
<g id="Guides">
</g>
<g id="_x31_2_Col_Grid" opacity="0.1" enable-background="new    ">
</g>
<g id="Layer_3">
</g>
<g id="Layer_4">
	<g>
		<path fill="#163F2A" d="M71.5,114.498l-6.762-10.792v10.792h-3.636V98.078h4.446l6.16,9.981v-9.981h3.659v16.419H71.5z"/>
		<path fill="#163F2A" d="M89.028,111.186c-0.556,1.991-2.385,3.659-5.303,3.659c-3.173,0-5.999-2.269-5.999-6.137
			c0-3.705,2.756-6.067,5.743-6.067c3.567,0,5.767,2.2,5.767,5.905c0,0.486-0.046,1.019-0.069,1.089h-8.013
			c0.069,1.297,1.251,2.223,2.617,2.223c1.273,0,1.991-0.602,2.316-1.505L89.028,111.186z M85.832,107.365
			c-0.046-0.88-0.648-1.945-2.316-1.945c-1.482,0-2.223,1.089-2.292,1.945H85.832z"/>
		<path fill="#163F2A" d="M94.005,108.754l-4.03-5.767h4.145l2.061,3.15l2.015-3.15h3.937l-3.983,5.628
			c1.297,1.853,2.802,4.03,4.122,5.882h-4.122l-2.131-3.242c-0.625,0.926-1.482,2.292-2.107,3.242h-3.868L94.005,108.754z"/>
		<path fill="#163F2A" d="M108.5,102.988h2.246v3.08H108.5v4.308c0,0.95,0.509,1.204,1.274,1.204c0.37,0,0.718-0.069,0.926-0.116
			v2.918c-0.139,0.069-0.718,0.324-1.829,0.324c-2.385,0-3.844-1.413-3.844-3.705v-4.933h-2.038v-3.08h0.579
			c1.204,0,1.783-0.81,1.783-1.876V99.63h3.149V102.988z"/>
		<path fill="#163F2A" d="M127.07,103.034c-0.116-0.764-0.741-2.061-2.733-2.061c-1.366,0-2.247,0.857-2.247,1.76
			c0,0.788,0.487,1.366,1.621,1.575l2.2,0.417c3.126,0.579,4.747,2.594,4.747,4.933c0,2.57-2.154,5.187-6.068,5.187
			c-4.539,0-6.484-2.941-6.716-5.257l3.358-0.811c0.139,1.505,1.158,2.825,3.404,2.825c1.436,0,2.316-0.695,2.316-1.714
			c0-0.834-0.672-1.436-1.76-1.644l-2.246-0.417c-2.779-0.533-4.47-2.386-4.47-4.817c0-3.103,2.733-5.28,5.882-5.28
			c4.099,0,5.651,2.454,5.998,4.377L127.07,103.034z"/>
		<path fill="#163F2A" d="M137.442,102.988h2.246v3.08h-2.246v4.308c0,0.95,0.509,1.204,1.274,1.204c0.37,0,0.718-0.069,0.926-0.116
			v2.918c-0.139,0.069-0.718,0.324-1.829,0.324c-2.385,0-3.844-1.413-3.844-3.705v-4.933h-2.038v-3.08h0.579
			c1.204,0,1.783-0.81,1.783-1.876V99.63h3.149V102.988z"/>
		<path fill="#163F2A" d="M144.989,107.851l2.71-0.417c0.625-0.093,0.833-0.394,0.833-0.787c0-0.672-0.579-1.251-1.69-1.251
			c-1.228,0-1.899,0.833-1.968,1.69l-3.057-0.625c0.139-1.645,1.667-3.821,5.048-3.821c3.729,0,5.095,2.084,5.095,4.446v5.628
			c0,0.903,0.116,1.667,0.139,1.783h-3.173c-0.023-0.093-0.116-0.509-0.116-1.297c-0.602,0.973-1.714,1.621-3.242,1.621
			c-2.524,0-3.983-1.667-3.983-3.497C141.585,109.287,143.09,108.129,144.989,107.851z M148.532,109.982v-0.509l-2.177,0.347
			c-0.741,0.116-1.297,0.463-1.297,1.274c0,0.602,0.394,1.181,1.366,1.181C147.467,112.274,148.532,111.765,148.532,109.982z"/>
		<path fill="#163F2A" d="M159.021,102.988h2.246v3.08h-2.246v4.308c0,0.95,0.509,1.204,1.274,1.204c0.37,0,0.718-0.069,0.926-0.116
			v2.918c-0.139,0.069-0.718,0.324-1.829,0.324c-2.385,0-3.844-1.413-3.844-3.705v-4.933h-2.038v-3.08h0.579
			c1.204,0,1.783-0.81,1.783-1.876V99.63h3.149V102.988z"/>
		<path fill="#163F2A" d="M165.503,97.406c1.158,0,2.085,0.927,2.085,2.061c0,1.135-0.927,2.061-2.085,2.061
			c-1.112,0-2.038-0.926-2.038-2.061C163.466,98.333,164.392,97.406,165.503,97.406z M163.767,114.498v-11.51h3.52v11.51H163.767z"
			/>
		<path fill="#163F2A" d="M181.76,108.731c0,3.567-2.663,6.114-6.114,6.114c-3.428,0-6.114-2.547-6.114-6.114
			c0-3.566,2.686-6.091,6.114-6.091C179.096,102.641,181.76,105.165,181.76,108.731z M178.239,108.731
			c0-1.945-1.25-2.849-2.593-2.849c-1.32,0-2.594,0.903-2.594,2.849c0,1.922,1.274,2.872,2.594,2.872
			C176.989,111.603,178.239,110.676,178.239,108.731z"/>
		<path fill="#163F2A" d="M187.546,114.498h-3.52v-11.51h3.404v1.32c0.626-1.089,2.038-1.621,3.219-1.621
			c2.894,0,4.191,2.061,4.191,4.585v7.226h-3.52v-6.623c0-1.135-0.602-1.992-1.876-1.992c-1.158,0-1.899,0.857-1.899,2.015V114.498z
			"/>
		<path fill="#163F2A" d="M199.865,102.779c1.25,0,2.316,1.042,2.316,2.316c0,1.227-1.065,2.316-2.316,2.316
			c-1.274,0-2.316-1.089-2.316-2.316C197.549,103.822,198.591,102.779,199.865,102.779z M199.865,110.074
			c1.25,0,2.316,1.042,2.316,2.316c0,1.227-1.065,2.316-2.316,2.316c-1.274,0-2.316-1.089-2.316-2.316
			C197.549,111.117,198.591,110.074,199.865,110.074z"/>
		<path fill="#163F2A" d="M96.146,130.82c-0.116-0.764-0.741-2.061-2.733-2.061c-1.366,0-2.247,0.857-2.247,1.76
			c0,0.788,0.487,1.366,1.621,1.575l2.2,0.417c3.126,0.579,4.747,2.594,4.747,4.933c0,2.57-2.154,5.187-6.067,5.187
			c-4.539,0-6.484-2.941-6.716-5.257l3.358-0.811c0.139,1.505,1.158,2.825,3.404,2.825c1.436,0,2.316-0.695,2.316-1.714
			c0-0.834-0.672-1.436-1.76-1.644l-2.246-0.417c-2.779-0.533-4.47-2.386-4.47-4.817c0-3.103,2.733-5.28,5.882-5.28
			c4.099,0,5.651,2.454,5.998,4.377L96.146,130.82z"/>
		<path fill="#163F2A" d="M104.689,135.637l2.71-0.417c0.625-0.093,0.833-0.394,0.833-0.787c0-0.672-0.579-1.251-1.69-1.251
			c-1.228,0-1.899,0.833-1.968,1.69l-3.057-0.625c0.139-1.645,1.667-3.821,5.048-3.821c3.729,0,5.095,2.084,5.095,4.446v5.628
			c0,0.903,0.116,1.667,0.139,1.783h-3.173c-0.023-0.093-0.116-0.509-0.116-1.297c-0.602,0.973-1.714,1.621-3.242,1.621
			c-2.524,0-3.983-1.667-3.983-3.497C101.285,137.072,102.791,135.915,104.689,135.637z M108.232,137.767v-0.509l-2.177,0.347
			c-0.741,0.116-1.297,0.463-1.297,1.274c0,0.602,0.394,1.181,1.366,1.181C107.168,140.06,108.232,139.55,108.232,137.767z"/>
		<path fill="#163F2A" d="M118.142,142.283h-3.52v-11.51h3.404v1.32c0.626-1.089,2.038-1.621,3.219-1.621
			c2.894,0,4.191,2.061,4.191,4.585v7.226h-3.52v-6.623c0-1.135-0.602-1.992-1.876-1.992c-1.158,0-1.899,0.857-1.899,2.015V142.283z
			"/>
		<path fill="#163F2A" d="M132.613,130.773h2.246v3.08h-2.246v4.308c0,0.95,0.509,1.204,1.274,1.204c0.37,0,0.718-0.069,0.926-0.116
			v2.918c-0.139,0.069-0.718,0.324-1.829,0.324c-2.385,0-3.844-1.413-3.844-3.705v-4.933h-2.038v-3.08h0.579
			c1.204,0,1.783-0.81,1.783-1.876v-1.482h3.15V130.773z"/>
		<path fill="#163F2A" d="M148.614,136.517c0,3.567-2.663,6.114-6.114,6.114c-3.428,0-6.114-2.547-6.114-6.114
			c0-3.566,2.687-6.091,6.114-6.091C145.951,130.426,148.614,132.951,148.614,136.517z M145.094,136.517
			c0-1.945-1.25-2.849-2.593-2.849c-1.32,0-2.594,0.903-2.594,2.849c0,1.922,1.274,2.872,2.594,2.872
			C143.844,139.388,145.094,138.462,145.094,136.517z"/>
		<path fill="#163F2A" d="M150.881,142.283v-16.767h3.52v16.767H150.881z"/>
		<path fill="#163F2A" d="M160.097,135.637l2.71-0.417c0.625-0.093,0.833-0.394,0.833-0.787c0-0.672-0.579-1.251-1.69-1.251
			c-1.227,0-1.899,0.833-1.968,1.69l-3.057-0.625c0.139-1.645,1.667-3.821,5.048-3.821c3.729,0,5.095,2.084,5.095,4.446v5.628
			c0,0.903,0.116,1.667,0.139,1.783h-3.173c-0.023-0.093-0.116-0.509-0.116-1.297c-0.602,0.973-1.714,1.621-3.242,1.621
			c-2.524,0-3.983-1.667-3.983-3.497C156.693,137.072,158.199,135.915,160.097,135.637z M163.641,137.767v-0.509l-2.177,0.347
			c-0.741,0.116-1.297,0.463-1.297,1.274c0,0.602,0.394,1.181,1.366,1.181C162.576,140.06,163.641,139.55,163.641,137.767z"/>
		<path fill="#163F2A" d="M173.55,142.283h-3.52v-11.51h3.404v1.32c0.626-1.089,2.038-1.621,3.219-1.621
			c2.894,0,4.191,2.061,4.191,4.585v7.226h-3.52v-6.623c0-1.135-0.602-1.992-1.876-1.992c-1.158,0-1.899,0.857-1.899,2.015V142.283z
			"/>
	</g>
	<g>
		<path fill="#183F2A" d="M34.723,85.513c-0.704,0-1.409-0.268-1.947-0.805c-1.078-1.075-1.08-2.821-0.005-3.898
			c7.792-7.812,21.212-12.519,25.854-13.977l3.831-17.662L77.116,60.84c5.318-1.153,25.232-5.074,39.641-2.515
			c1.499,0.266,2.498,1.697,2.232,3.196c-0.265,1.498-1.697,2.499-3.196,2.232c-15.3-2.716-38.495,2.693-38.727,2.748l-1.303,0.308
			l-9.799-7.8l-2.647,12.207l-1.604,0.446c-0.166,0.046-16.743,4.726-25.038,13.042C36.136,85.243,35.429,85.513,34.723,85.513z"/>
	</g>
</g>
</svg>
