<?xml version="1.0" encoding="utf-8"?>
<!-- Generator: Adobe Illustrator 18.0.0, SVG Export Plug-In . SVG Version: 6.00 Build 0)  -->
<!DOCTYPE svg PUBLIC "-//W3C//DTD SVG 1.1//EN" "http://www.w3.org/Graphics/SVG/1.1/DTD/svg11.dtd">
<svg version="1.1" xmlns="http://www.w3.org/2000/svg" xmlns:xlink="http://www.w3.org/1999/xlink" x="0px" y="0px"
	 viewBox="0 0 250 250" enable-background="new 0 0 250 250" xml:space="preserve">
<g id="Guides">
</g>
<g id="_x31_2_Col_Grid" opacity="0.1" enable-background="new    ">
</g>
<g id="Layer_3">
</g>
<g id="Layer_4">
	<g>
		<path fill="#163F2A" d="M62.825,98.974c-3.914,0-7.104-3.184-7.111-7.098l-0.037-17.858c-0.008-3.921,3.175-7.118,7.097-7.127
			l51.8-0.107c3.928,0,7.118,3.184,7.127,7.097l0.037,17.859c0.004,1.895-0.733,3.681-2.076,5.03
			c-1.343,1.349-3.126,2.094-5.021,2.098L62.825,98.974z M114.589,72.422l-51.803,0.107c-0.799,0.002-1.473,0.678-1.472,1.477
			l0.037,17.859c0.002,0.798,0.677,1.472,1.474,1.472v2.819l0.003-2.819l51.8-0.107c0.525-0.001,0.876-0.275,1.038-0.438
			s0.434-0.515,0.433-1.04l-0.037-17.859C116.062,73.096,115.387,72.422,114.589,72.422z"/>
	</g>
	<path fill="#163F2A" stroke="#163F2A" stroke-width="2" stroke-miterlimit="10" d="M114.848,133.864l-52.802,0.109
		c-2.383,0.005-4.336-1.941-4.341-4.323l-0.037-17.79c-0.005-2.383,1.941-4.336,4.323-4.341l52.802-0.109
		c2.383-0.005,4.336,1.941,4.341,4.323l0.037,17.79C119.176,131.906,117.23,133.859,114.848,133.864z"/>
	<g>
		<polygon fill="#163F2A" points="33.219,249.472 27.582,249.472 27.582,28.1 248.007,28.1 248.007,33.738 33.219,33.738 		"/>
	</g>
	<path fill="#163F2A" d="M133.474,249.414c0-12,0.003-23.083,0.02-34.494c0-0.822-0.57-2.224,0.628-2.468
		c1.25-0.262,2.62-0.131,3.927-0.036c0.441,0.068,0.604,0.619,0.604,1.022c0.04,0.741,0.244,1.456,0.244,2.197
		c0,11.084,0,21.779,0,33.779h60c0-12,0-22.966,0-34.177c0-3.02,0.99-3.684,4.014-3.033c0.977,0.217,0.986,0.796,0.986,1.437
		c0,1.713,0,3.454,0,5.18c0,10.031,0,19.593,0,30.593h21c0-17,0-33.217,0-49.583c-1,0.429-0.687-0.61-0.816-1.026
		c-4.33-15.428-15.669-24.116-31.626-24.139c-15.968-0.023-31.888-0.023-47.829-0.023c-15.636,0.023-26.927,8.575-31.255,23.614
		c-0.151,0.452-0.393,0.872-0.599,1.324c0,0.009,0.124-0.049,0.086-0.077c-0.086-0.045,0.039-0.122,0.039-0.154
		c0,16.521,0,33.062,0,50.062H133.474z"/>
	<circle fill="#163F2A" cx="168.834" cy="145.314" r="23.5"/>
</g>
</svg>
