<svg xmlns="http://www.w3.org/2000/svg" viewBox="0 0 250 250"><g fill="#163F2A"><path d="M71.5 114.498l-6.762-10.792v10.792h-3.636v-16.42h4.446l6.16 9.981v-9.981h3.659v16.419H71.5zM89.028 111.186c-.556 1.991-2.385 3.659-5.303 3.659-3.173 0-5.999-2.269-5.999-6.137 0-3.705 2.756-6.067 5.743-6.067 3.567 0 5.767 2.2 5.767 5.905 0 .486-.046 1.019-.069 1.089h-8.013c.069 1.297 1.251 2.223 2.617 2.223 1.273 0 1.991-.602 2.316-1.505l2.941.833zm-3.196-3.821c-.046-.88-.648-1.945-2.316-1.945-1.482 0-2.223 1.089-2.292 1.945h4.608zM94.005 108.754l-4.03-5.767h4.145l2.061 3.15 2.015-3.15h3.937l-3.983 5.628c1.297 1.853 2.802 4.03 4.122 5.882H98.15l-2.131-3.242c-.625.926-1.482 2.292-2.107 3.242h-3.868l3.961-5.743zM108.5 102.988h2.246v3.08H108.5v4.308c0 .95.509 1.204 1.274 1.204.37 0 .718-.069.926-.116v2.918c-.139.069-.718.324-1.829.324-2.385 0-3.844-1.413-3.844-3.705v-4.933h-2.038v-3.08h.579c1.204 0 1.783-.81 1.783-1.876V99.63h3.149v3.358zM127.07 103.034c-.116-.764-.741-2.061-2.733-2.061-1.366 0-2.247.857-2.247 1.76 0 .788.487 1.366 1.621 1.575l2.2.417c3.126.579 4.747 2.594 4.747 4.933 0 2.57-2.154 5.187-6.068 5.187-4.539 0-6.484-2.941-6.716-5.257l3.358-.811c.139 1.505 1.158 2.825 3.404 2.825 1.436 0 2.316-.695 2.316-1.714 0-.834-.672-1.436-1.76-1.644l-2.246-.417c-2.779-.533-4.47-2.386-4.47-4.817 0-3.103 2.733-5.28 5.882-5.28 4.099 0 5.651 2.454 5.998 4.377l-3.286.927zM137.442 102.988h2.246v3.08h-2.246v4.308c0 .95.509 1.204 1.274 1.204.37 0 .718-.069.926-.116v2.918c-.139.069-.718.324-1.829.324-2.385 0-3.844-1.413-3.844-3.705v-4.933h-2.038v-3.08h.579c1.204 0 1.783-.81 1.783-1.876V99.63h3.149v3.358zM144.989 107.851l2.71-.417c.625-.093.833-.394.833-.787 0-.672-.579-1.251-1.69-1.251-1.228 0-1.899.833-1.968 1.69l-3.057-.625c.139-1.645 1.667-3.821 5.048-3.821 3.729 0 5.095 2.084 5.095 4.446v5.628c0 .903.116 1.667.139 1.783h-3.173c-.023-.093-.116-.509-.116-1.297-.602.973-1.714 1.621-3.242 1.621-2.524 0-3.983-1.667-3.983-3.497 0-2.037 1.505-3.195 3.404-3.473zm3.543 2.131v-.509l-2.177.347c-.741.116-1.297.463-1.297 1.274 0 .602.394 1.181 1.366 1.181 1.043-.001 2.108-.51 2.108-2.293zM159.021 102.988h2.246v3.08h-2.246v4.308c0 .95.509 1.204 1.274 1.204.37 0 .718-.069.926-.116v2.918c-.139.069-.718.324-1.829.324-2.385 0-3.844-1.413-3.844-3.705v-4.933h-2.038v-3.08h.579c1.204 0 1.783-.81 1.783-1.876V99.63h3.149v3.358zM165.503 97.406c1.158 0 2.085.927 2.085 2.061a2.071 2.071 0 0 1-2.085 2.061c-1.112 0-2.038-.926-2.038-2.061.001-1.134.927-2.061 2.038-2.061zm-1.736 17.092v-11.51h3.52v11.51h-3.52zM181.76 108.731c0 3.567-2.663 6.114-6.114 6.114-3.428 0-6.114-2.547-6.114-6.114 0-3.566 2.686-6.091 6.114-6.091 3.45.001 6.114 2.525 6.114 6.091zm-3.521 0c0-1.945-1.25-2.849-2.593-2.849-1.32 0-2.594.903-2.594 2.849 0 1.922 1.274 2.872 2.594 2.872 1.343 0 2.593-.927 2.593-2.872zM187.546 114.498h-3.52v-11.51h3.404v1.32c.626-1.089 2.038-1.621 3.219-1.621 2.894 0 4.191 2.061 4.191 4.585v7.226h-3.52v-6.623c0-1.135-.602-1.992-1.876-1.992-1.158 0-1.899.857-1.899 2.015v6.6zM199.865 102.779c1.25 0 2.316 1.042 2.316 2.316 0 1.227-1.065 2.316-2.316 2.316-1.274 0-2.316-1.089-2.316-2.316a2.323 2.323 0 0 1 2.316-2.316zm0 7.295c1.25 0 2.316 1.042 2.316 2.316 0 1.227-1.065 2.316-2.316 2.316-1.274 0-2.316-1.089-2.316-2.316a2.323 2.323 0 0 1 2.316-2.316zM96.146 130.82c-.116-.764-.741-2.061-2.733-2.061-1.366 0-2.247.857-2.247 1.76 0 .788.487 1.366 1.621 1.575l2.2.417c3.126.579 4.747 2.594 4.747 4.933 0 2.57-2.154 5.187-6.067 5.187-4.539 0-6.484-2.941-6.716-5.257l3.358-.811c.139 1.505 1.158 2.825 3.404 2.825 1.436 0 2.316-.695 2.316-1.714 0-.834-.672-1.436-1.76-1.644l-2.246-.417c-2.779-.533-4.47-2.386-4.47-4.817 0-3.103 2.733-5.28 5.882-5.28 4.099 0 5.651 2.454 5.998 4.377l-3.287.927zM104.689 135.637l2.71-.417c.625-.093.833-.394.833-.787 0-.672-.579-1.251-1.69-1.251-1.228 0-1.899.833-1.968 1.69l-3.057-.625c.139-1.645 1.667-3.821 5.048-3.821 3.729 0 5.095 2.084 5.095 4.446v5.628c0 .903.116 1.667.139 1.783h-3.173c-.023-.093-.116-.509-.116-1.297-.602.973-1.714 1.621-3.242 1.621-2.524 0-3.983-1.667-3.983-3.497 0-2.038 1.506-3.195 3.404-3.473zm3.543 2.13v-.509l-2.177.347c-.741.116-1.297.463-1.297 1.274 0 .602.394 1.181 1.366 1.181 1.044 0 2.108-.51 2.108-2.293zM118.142 142.283h-3.52v-11.51h3.404v1.32c.626-1.089 2.038-1.621 3.219-1.621 2.894 0 4.191 2.061 4.191 4.585v7.226h-3.52v-6.623c0-1.135-.602-1.992-1.876-1.992-1.158 0-1.899.857-1.899 2.015v6.6zM132.613 130.773h2.246v3.08h-2.246v4.308c0 .95.509 1.204 1.274 1.204.37 0 .718-.069.926-.116v2.918c-.139.069-.718.324-1.829.324-2.385 0-3.844-1.413-3.844-3.705v-4.933h-2.038v-3.08h.579c1.204 0 1.783-.81 1.783-1.876v-1.482h3.15v3.358zM148.614 136.517c0 3.567-2.663 6.114-6.114 6.114-3.428 0-6.114-2.547-6.114-6.114 0-3.566 2.687-6.091 6.114-6.091 3.451 0 6.114 2.525 6.114 6.091zm-3.52 0c0-1.945-1.25-2.849-2.593-2.849-1.32 0-2.594.903-2.594 2.849 0 1.922 1.274 2.872 2.594 2.872 1.343-.001 2.593-.927 2.593-2.872zM150.881 142.283v-16.767h3.52v16.767h-3.52zM160.097 135.637l2.71-.417c.625-.093.833-.394.833-.787 0-.672-.579-1.251-1.69-1.251-1.227 0-1.899.833-1.968 1.69l-3.057-.625c.139-1.645 1.667-3.821 5.048-3.821 3.729 0 5.095 2.084 5.095 4.446v5.628c0 .903.116 1.667.139 1.783h-3.173c-.023-.093-.116-.509-.116-1.297-.602.973-1.714 1.621-3.242 1.621-2.524 0-3.983-1.667-3.983-3.497 0-2.038 1.506-3.195 3.404-3.473zm3.544 2.13v-.509l-2.177.347c-.741.116-1.297.463-1.297 1.274 0 .602.394 1.181 1.366 1.181 1.043 0 2.108-.51 2.108-2.293zM173.55 142.283h-3.52v-11.51h3.404v1.32c.626-1.089 2.038-1.621 3.219-1.621 2.894 0 4.191 2.061 4.191 4.585v7.226h-3.52v-6.623c0-1.135-.602-1.992-1.876-1.992-1.158 0-1.899.857-1.899 2.015v6.6z"/></g><path fill="#183F2A" d="M34.723 85.513a2.756 2.756 0 0 1-1.952-4.703c7.792-7.812 21.212-12.519 25.854-13.977l3.831-17.662 14.66 11.669c5.318-1.153 25.232-5.074 39.641-2.515a2.756 2.756 0 1 1-.964 5.428c-15.3-2.716-38.495 2.693-38.727 2.748l-1.303.308-9.799-7.8-2.647 12.207-1.604.446c-.166.046-16.743 4.726-25.038 13.042a2.753 2.753 0 0 1-1.952.809z"/></svg>