<svg xmlns="http://www.w3.org/2000/svg" viewBox="0 0 250 250"><path fill-rule="evenodd" clip-rule="evenodd" fill="#163F2A" d="M68.628 190.973c-1.169 0-2.322-.127-3.428-.379-8.055-1.827-13.917-8.596-14.252-16.46-.353-7.762 4.417-14.881 11.671-17.54l-.26-1.126h16.276l-2.468 1.742c4.123 1.954 7.331 5.302 8.981 9.452 1.938 4.873 1.554 10.412-1.054 15.198-2.954 5.449-9.171 9.113-15.466 9.113.001 0 .001 0 0 0z"/><path fill="#FFF" d="M72.334 157.468c-.042.029-.083.071-.124.106-.033.03-.078.098-.068.121.25.414.738.385 1.142.515 9.719 3.165 13.933 13.741 9.055 22.692-2.669 4.921-8.25 8.07-13.71 8.07-1.006 0-2.007-.107-2.986-.329-7.212-1.636-12.398-7.597-12.697-14.595a15.79 15.79 0 0 1 10.92-15.77c.371-.136 1.219.107 1.007-.81h7.461m12.601-4h-25.09l.446 1.934c-7.138 3.374-11.707 10.789-11.342 18.828.374 8.753 6.874 16.289 15.808 18.315 1.251.284 2.553.428 3.87.428 7.006 0 13.929-4.084 17.226-10.163 2.89-5.302 3.311-11.46 1.153-16.887-1.437-3.614-3.929-6.68-7.133-8.882l5.062-3.573z"/><path fill-rule="evenodd" clip-rule="evenodd" fill="#163F2A" d="M29.896 254.414v-48.411l1.074.405c3.312-10.139 11.37-15.962 22.271-15.98 10.452-.012 20.889-.012 31.322-.012 10.643.013 18.686 5.637 22.065 15.495l1.268-.579v49.082h-78z"/><path fill="#FFF" d="M84.563 192.416c10.234.012 17.629 5.452 20.463 15.291.099.296.26.707.398.707h.001c.009 0 .195.126.219.112.056-.036.251.08.251.056v43.831H91.89c-.004-11.271-.002-22.543-.02-33.809 0-.536.372-1.373-.413-1.532a4.49 4.49 0 0 0-.932-.087c-.543 0-1.1.067-1.637.108-.29.042-.114.426-.114.689-.027.485.122.973.122 1.458v33.173h-40v-33.437c0-1.526-.455-2.134-1.535-2.134-.316 0-.554.052-1.002.149-.64.142-.463.521-.463.941v34.481h-14v-43.518c0 .047.224.068.301.068.385 0 .241-.512.312-.739 2.832-10.099 10.29-15.779 20.735-15.797 10.451-.011 20.887-.011 31.319-.011m.005-4.002h-.004c-10.434 0-20.871.001-31.323.013-11.097.019-19.478 5.581-23.453 15.397l-1.891-.713v53.303H109.897V202.108l-2.189 1.034c-4.033-9.401-12.363-14.728-23.14-14.728z"/><path fill="#183F2A" d="M199.294 79.261H52.049c-5.436 0-9.858-4.422-9.858-9.858V31.358c0-5.436 4.422-9.858 9.858-9.858h147.245c5.436 0 9.858 4.422 9.858 9.858v38.045c0 5.436-4.422 9.858-9.858 9.858zM52.049 27.298a4.064 4.064 0 0 0-4.059 4.059v38.045a4.064 4.064 0 0 0 4.059 4.059h147.245a4.064 4.064 0 0 0 4.059-4.059V31.358a4.064 4.064 0 0 0-4.059-4.059H52.049z"/><path fill="#183F2A" d="M47.339 33.687c0 1.602-2.145 3-4.791 3H-5.361c-2.646 0-4.791-1.398-4.791-3s2.145-3 4.791-3h47.909c2.646 0 4.791 1.399 4.791 3zM47.339 63.647c0 1.602-2.145 3-4.791 3H-5.361c-2.646 0-4.791-1.398-4.791-3s2.145-3 4.791-3h47.909c2.646 0 4.791 1.398 4.791 3z"/><g><path fill="#183F2A" d="M185.337 53.414h-26.096c-1.602 0-2.9-.898-2.9-2.5s1.298-2.5 2.9-2.5h26.096c1.602 0 2.9.898 2.9 2.5s-1.298 2.5-2.9 2.5z"/></g><g><path fill="#183F2A" d="M179.117 64.7a2.898 2.898 0 0 1-2.05-4.949l8.986-8.986-9.127-9.127a2.898 2.898 0 0 1 0-4.1 2.898 2.898 0 0 1 4.1 0l11.177 11.177a2.898 2.898 0 0 1 0 4.1l-11.036 11.036a2.888 2.888 0 0 1-2.05.849z"/></g></svg>