<svg xmlns="http://www.w3.org/2000/svg" viewBox="0 0 250 250"><path fill="#163F2A" d="M62.825 98.974c-3.914 0-7.104-3.184-7.111-7.098l-.037-17.858c-.008-3.921 3.175-7.118 7.097-7.127l51.8-.107c3.928 0 7.118 3.184 7.127 7.097l.037 17.859a7.064 7.064 0 0 1-2.076 5.03 7.062 7.062 0 0 1-5.021 2.098l-51.816.106zm51.764-26.552l-51.803.107a1.495 1.495 0 0 0-1.472 1.477l.037 17.859a1.495 1.495 0 0 0 1.474 1.472v2.819l.003-2.819 51.8-.107c.525-.001.876-.275 1.038-.438s.434-.515.433-1.04l-.037-17.859c0-.797-.675-1.471-1.473-1.471z"/><path fill="#163F2A" stroke="#163F2A" stroke-width="2" stroke-miterlimit="10" d="M114.848 133.864l-52.802.109a4.345 4.345 0 0 1-4.341-4.323l-.037-17.79a4.345 4.345 0 0 1 4.323-4.341l52.802-.109a4.345 4.345 0 0 1 4.341 4.323l.037 17.79a4.345 4.345 0 0 1-4.323 4.341z"/><path fill="#163F2A" d="M33.219 249.472h-5.637V28.1h220.425v5.638H33.219zM133.474 249.414c0-12 .003-23.083.02-34.494 0-.822-.57-2.224.628-2.468 1.25-.262 2.62-.131 3.927-.036.441.068.604.619.604 1.022.04.741.244 1.456.244 2.197v33.779h60v-34.177c0-3.02.99-3.684 4.014-3.033.977.217.986.796.986 1.437V249.414h21v-49.583c-1 .429-.687-.61-.816-1.026-4.33-15.428-15.669-24.116-31.626-24.139-15.968-.023-31.888-.023-47.829-.023-15.636.023-26.927 8.575-31.255 23.614-.151.452-.393.872-.599 1.324 0 .009.124-.049.086-.077-.086-.045.039-.122.039-.154v50.062h20.577z"/><circle fill="#163F2A" cx="168.834" cy="145.314" r="23.5"/></svg>