<svg xmlns="http://www.w3.org/2000/svg" viewBox="0 0 250 250"><path fill="#183F2A" d="M128.038 200.389H57.022c-5.651 0-10.248-4.598-10.248-10.248v-50.958c0-5.651 4.598-10.248 10.248-10.248h71.015c5.651 0 10.248 4.598 10.248 10.248v50.958c.001 5.651-4.596 10.248-10.247 10.248zm-71.016-65.186a3.986 3.986 0 0 0-3.981 3.981v50.958a3.986 3.986 0 0 0 3.981 3.981h71.015a3.986 3.986 0 0 0 3.981-3.981v-50.958a3.986 3.986 0 0 0-3.981-3.981H57.022zM201.964 199.136h-45.872a5.902 5.902 0 0 1-5.896-5.896v-10.772a5.902 5.902 0 0 1 5.896-5.896h45.872a5.903 5.903 0 0 1 5.896 5.896v10.772a5.902 5.902 0 0 1-5.896 5.896zm-45.501-6.268h45.129v-10.029h-45.129v10.029z"/><path fill-rule="evenodd" clip-rule="evenodd" fill="#163F2A" d="M74.278 149.985c-5.3 0-10.534-3.083-13.024-7.673-2.196-4.026-2.521-8.69-.891-12.794 1.434-3.607 4.265-6.496 7.896-8.117l-1.815-1.293 4.67-.022h8.25l-.201.882c6.19 2.167 10.305 8.229 10.005 14.846-.281 6.618-5.22 12.316-12.01 13.853a13.01 13.01 0 0 1-2.88.318z"/><path fill="#FFF" d="M77.484 121.586c-.179.786.544.576.863.69a13.487 13.487 0 0 1 9.323 13.471c-.254 5.974-4.683 11.064-10.843 12.458a11.5 11.5 0 0 1-2.55.281c-4.662 0-9.426-2.689-11.706-6.889-4.168-7.641-.566-16.674 7.733-19.377.344-.111.76-.088.975-.439.008-.023-.033-.078-.058-.106-.037-.03-.072-.063-.107-.088l6.37-.001m3.762-3H61.749l3.688 2.633c-2.924 1.854-5.193 4.542-6.467 7.746-1.796 4.519-1.443 9.647.969 14.068 2.742 5.053 8.506 8.452 14.339 8.452 1.094 0 2.175-.12 3.214-.355 7.447-1.686 12.865-7.959 13.176-15.256.309-6.803-3.635-13.079-9.757-15.821l.335-1.467z"/><g><path fill-rule="evenodd" clip-rule="evenodd" fill="#163F2A" d="M55.896 254.414v-42.761c-1 3.075-2.719 5.281-5.622 5.857a9.154 9.154 0 0 1-1.744.172c-2.568 0-4.952-1.224-6.358-3.381l-1.275.529v-51.896l1 .38c2.767-8.491 9.588-13.377 18.707-13.39 8.91 0 17.858 0 26.781.013 9.267.013 15.997 4.997 18.78 13.714l.731-.313v53.69l-1.418-2.094c-1.375 1.762-3.389 2.813-5.602 2.813-.335 0-.591-.024-.926-.071-3.153-.44-5.053-2.349-6.053-5.261v41.999H55.896z"/><path fill="#FFF" d="M60.673 151.425c8.908 0 17.82 0 26.743.013 8.917.013 15.286 4.868 17.706 13.489.06.194.062.63.392.63.066 0 .382-.017.382-.057v46.963c0-.028-.179-.028-.212-.061-.022-.009-.215.012-.226.012h-.002c-.155 0-.326.501-.474.778-1.043 1.935-2.956 3.077-5.045 3.077-.264 0-.531-.029-.8-.067-2.623-.366-4.492-1.953-5.032-4.486-.153-.793-.209-1.645-.209-2.473v-33.13-2.895c0-.359.088-.682-.458-.803a6.3 6.3 0 0 0-1.145-.127c-.92 0-1.397.518-1.397 1.822v78.305H75.547c.005-9.477-.003-18.956-.003-28.438 0-2.387.011-4.784-.017-7.176 0-.326.174-.753-.241-.988a1.595 1.595 0 0 0-.786-.211c-.869 0-1.604.681-1.604 1.643v35.17h-16v-78.083c0-.414.166-.831.143-1.245 0-.225.105-.551-.141-.589-.459-.033-.891-.089-1.353-.089a3.66 3.66 0 0 0-.78.074c-.669.136-.342.849-.342 1.308-.018 11.678-.004 23.362-.013 35.045 0 .639-.02 1.286-.073 1.932-.279 2.801-1.935 4.774-4.442 5.272a7.208 7.208 0 0 1-1.409.144c-2.226 0-4.109-1.124-5.226-3.17-.098-.177.095-.627-.21-.627-.069 0-.155.023-.155.077v-47.23c0 .018-.052.061-.004.086.02.014.018.044.026.044l-.028-.001c.115-.252.239-.487.324-.74 2.42-8.406 8.723-13.185 17.46-13.198m0-3.011h-.004c-9.227 0-16.09 4.669-19.38 12.87l-1.392-.662v56.577l2.042-1.02c1.674 1.927 3.959 3.003 6.607 3.003.656 0 1.133-.068 1.803-.202 1.434-.285 2.548-.892 3.548-1.76v38.193h39.999v-38.068c2 .947 2.913 1.576 4.63 1.816.399.056.907.085 1.313.085 2.025 0 4.128-.724 5.663-1.991l3.394 4.417v-60.497l-1.557.534c-3.268-8.46-10.423-13.266-19.855-13.279-8.925-.011-17.902-.016-26.811-.016z"/></g><g><path fill="#163F2A" d="M13.628 251.991l-2.527-47.385.069-.368 17.919-95.979 6.162 1.151L17.4 205.02l2.487 46.636z"/><path fill="#163F2A" d="M222.806 110.801H25.065c-4.779 0-8.667-3.888-8.667-8.667V89.369c0-4.779 3.888-8.667 8.667-8.667h197.741c4.779 0 8.668 3.888 8.668 8.667v12.764c0 4.779-3.888 8.668-8.668 8.668zM25.065 86.969a2.401 2.401 0 0 0-2.399 2.399v12.764a2.402 2.402 0 0 0 2.399 2.399h197.741c1.323 0 2.4-1.077 2.4-2.399V89.369a2.402 2.402 0 0 0-2.4-2.399H25.065z"/><path fill="#163F2A" d="M235.505 250.856l-6.259-.335 2.487-46.636-17.851-95.61 6.161-1.151 17.989 96.347-.02.374z"/><path fill="#183F2A" d="M200.339 164.414h-43.876c-1.731 0-3.134-1.769-3.134-3.5s1.403-3.5 3.134-3.5h43.876c1.731 0 3.134 1.769 3.134 3.5s-1.403 3.5-3.134 3.5z"/></g></svg>