<?xml version="1.0" encoding="utf-8"?>
<!-- Generator: Adobe Illustrator 18.0.0, SVG Export Plug-In . SVG Version: 6.00 Build 0)  -->
<!DOCTYPE svg PUBLIC "-//W3C//DTD SVG 1.1//EN" "http://www.w3.org/Graphics/SVG/1.1/DTD/svg11.dtd">
<svg version="1.1" xmlns="http://www.w3.org/2000/svg" xmlns:xlink="http://www.w3.org/1999/xlink" x="0px" y="0px"
	 viewBox="0 0 250 250" enable-background="new 0 0 250 250" xml:space="preserve">
<g id="Guides">
</g>
<g id="_x31_2_Col_Grid" opacity="0.1" enable-background="new    ">
</g>
<g id="Layer_3">
</g>
<g id="Layer_4">
	<path fill="#163F2A" d="M109.551,143.539c0,13.392-10.856,24.248-24.25,24.248c-13.392,0-24.248-10.856-24.248-24.248
		c0-13.392,10.856-24.25,24.248-24.25C98.695,119.289,109.551,130.147,109.551,143.539"/>
	<path fill="#163F2A" d="M58.896,211.414c0,0,0,26.484,0,40h55c0-13.516,0-27.062,0-40.43c0-2.045,0.28-3.296,1.61-3.516
		c1.707-0.598,2.88,1.015,2.88,1.015l8.512,15.865c1.312,3.386,3.173,4.426,8.118,5.582l16.609,2.275l19.42,3.246
		c0,0,12.833,4.127,14.638-6.676c1.806-10.804-10.968-12.013-10.968-12.013l-18.356-3.068l-13.92-2.326
		c0,0-7.86-19.922-11.451-26.098c-3.568-6.137-10.209-9.42-14.112-9.937l-9.359-0.321C93.363,175,79.227,175,65.097,175
		c-13.87,0.012-23.891,5.598-27.723,18.927c-0.136,0.397-0.352,3.826-0.54,4.223l-0.121,53.264H55.17
		c0.003-14.598,0.004-27.241,0.027-40.775c0-0.726-0.113-2.048,0.561-2.154c1.117-0.175,2.147-0.066,3.301,0.026"/>
	<path fill="#163F2A" d="M213.61,210.832l-9.496,11.202c-1.569,1.851-4.368,2.082-6.219,0.512l-22.227-18.843
		c-1.851-1.569-2.082-4.368-0.512-6.219l9.496-11.202c1.569-1.851,4.368-2.082,6.219-0.512l22.227,18.843
		C214.949,206.183,215.18,208.981,213.61,210.832z"/>
	<g>
		<path fill="#183F2A" d="M123.679,111.384l-7.806-15.911c-4.763-0.295-18.647-1.616-27.905-7.217
			c-1.278-0.773-1.686-2.435-0.914-3.712c0.773-1.277,2.437-1.686,3.712-0.914c9.879,5.977,26.738,6.514,26.907,6.519l1.632,0.045
			l5.396,10.998l7.491-9.733l1.313-0.014c0.234-0.002,23.608-0.325,37.516-6.506c1.364-0.606,2.962,0.008,3.568,1.373
			c0.606,1.364-0.008,2.961-1.373,3.568c-13.113,5.828-32.995,6.788-38.33,6.942L123.679,111.384z"/>
	</g>
	<g>
		<path fill="#163F2A" d="M55.932,51.858c-0.114-0.749-0.727-2.021-2.68-2.021c-1.34,0-2.203,0.84-2.203,1.726
			c0,0.772,0.477,1.34,1.59,1.544l2.158,0.409c3.066,0.568,4.656,2.544,4.656,4.837c0,2.521-2.112,5.087-5.95,5.087
			c-4.451,0-6.359-2.884-6.586-5.155l3.293-0.795c0.136,1.476,1.136,2.771,3.339,2.771c1.408,0,2.271-0.681,2.271-1.681
			c0-0.818-0.659-1.408-1.726-1.612l-2.203-0.409c-2.725-0.522-4.383-2.339-4.383-4.724c0-3.043,2.68-5.178,5.769-5.178
			c4.02,0,5.541,2.408,5.882,4.292L55.932,51.858z"/>
		<path fill="#163F2A" d="M64.31,56.581l2.657-0.409c0.613-0.091,0.818-0.386,0.818-0.772c0-0.659-0.568-1.226-1.658-1.226
			c-1.204,0-1.862,0.818-1.93,1.658l-2.998-0.613c0.136-1.612,1.635-3.747,4.951-3.747c3.657,0,4.997,2.044,4.997,4.361v5.519
			c0,0.886,0.114,1.635,0.136,1.749h-3.111c-0.023-0.091-0.114-0.5-0.114-1.272c-0.591,0.954-1.681,1.59-3.179,1.59
			c-2.476,0-3.907-1.635-3.907-3.429C60.972,57.989,62.448,56.854,64.31,56.581z M67.785,58.671v-0.5l-2.135,0.341
			c-0.727,0.114-1.272,0.454-1.272,1.249c0,0.591,0.386,1.158,1.34,1.158C66.74,60.919,67.785,60.419,67.785,58.671z"/>
		<path fill="#163F2A" d="M87.722,51.858c-0.114-0.749-0.727-2.021-2.68-2.021c-1.34,0-2.203,0.84-2.203,1.726
			c0,0.772,0.477,1.34,1.59,1.544l2.158,0.409c3.066,0.568,4.656,2.544,4.656,4.837c0,2.521-2.112,5.087-5.95,5.087
			c-4.451,0-6.359-2.884-6.586-5.155l3.293-0.795c0.136,1.476,1.136,2.771,3.339,2.771c1.408,0,2.271-0.681,2.271-1.681
			c0-0.818-0.659-1.408-1.726-1.612l-2.203-0.409c-2.725-0.522-4.383-2.339-4.383-4.724c0-3.043,2.68-5.178,5.769-5.178
			c4.02,0,5.541,2.408,5.882,4.292L87.722,51.858z"/>
		<path fill="#163F2A" d="M96.1,56.581l2.657-0.409c0.613-0.091,0.818-0.386,0.818-0.772c0-0.659-0.568-1.226-1.658-1.226
			c-1.204,0-1.862,0.818-1.93,1.658l-2.998-0.613c0.136-1.612,1.635-3.747,4.951-3.747c3.657,0,4.997,2.044,4.997,4.361v5.519
			c0,0.886,0.114,1.635,0.136,1.749h-3.111c-0.023-0.091-0.114-0.5-0.114-1.272c-0.591,0.954-1.681,1.59-3.179,1.59
			c-2.476,0-3.907-1.635-3.907-3.429C92.761,57.989,94.237,56.854,96.1,56.581z M99.575,58.671v-0.5l-2.135,0.341
			c-0.727,0.114-1.272,0.454-1.272,1.249c0,0.591,0.386,1.158,1.34,1.158C98.53,60.919,99.575,60.419,99.575,58.671z"/>
		<path fill="#163F2A" d="M109.293,63.1h-3.452V51.812h3.339v1.295c0.613-1.067,1.998-1.59,3.157-1.59
			c2.839,0,4.111,2.021,4.111,4.497V63.1h-3.452v-6.495c0-1.113-0.591-1.953-1.84-1.953c-1.135,0-1.862,0.841-1.862,1.976V63.1z"/>
		<path fill="#163F2A" d="M123.485,51.812h2.203v3.021h-2.203v4.224c0,0.931,0.499,1.181,1.249,1.181
			c0.364,0,0.704-0.068,0.909-0.114v2.862c-0.136,0.068-0.704,0.318-1.794,0.318c-2.339,0-3.77-1.385-3.77-3.634v-4.837h-1.999
			v-3.021h0.568c1.181,0,1.749-0.795,1.749-1.839v-1.454h3.089V51.812z"/>
		<path fill="#163F2A" d="M139.176,57.444c0,3.498-2.612,5.996-5.996,5.996c-3.361,0-5.996-2.498-5.996-5.996
			c0-3.498,2.635-5.973,5.996-5.973C136.565,51.471,139.176,53.947,139.176,57.444z M135.725,57.444
			c0-1.908-1.226-2.794-2.544-2.794c-1.295,0-2.544,0.886-2.544,2.794c0,1.885,1.249,2.816,2.544,2.816
			C134.498,60.261,135.725,59.352,135.725,57.444z"/>
		<path fill="#163F2A" d="M141.4,63.1V46.656h3.452V63.1H141.4z"/>
		<path fill="#163F2A" d="M150.438,56.581l2.657-0.409c0.613-0.091,0.818-0.386,0.818-0.772c0-0.659-0.568-1.226-1.658-1.226
			c-1.204,0-1.862,0.818-1.93,1.658l-2.998-0.613c0.136-1.612,1.635-3.747,4.951-3.747c3.657,0,4.997,2.044,4.997,4.361v5.519
			c0,0.886,0.114,1.635,0.136,1.749h-3.111c-0.023-0.091-0.114-0.5-0.114-1.272c-0.591,0.954-1.681,1.59-3.18,1.59
			c-2.476,0-3.907-1.635-3.907-3.429C147.1,57.989,148.576,56.854,150.438,56.581z M153.913,58.671v-0.5l-2.135,0.341
			c-0.727,0.114-1.272,0.454-1.272,1.249c0,0.591,0.386,1.158,1.34,1.158C152.868,60.919,153.913,60.419,153.913,58.671z"/>
		<path fill="#163F2A" d="M163.631,63.1h-3.452V51.812h3.339v1.295c0.613-1.067,1.998-1.59,3.157-1.59
			c2.839,0,4.111,2.021,4.111,4.497V63.1h-3.452v-6.495c0-1.113-0.591-1.953-1.84-1.953c-1.135,0-1.862,0.841-1.862,1.976V63.1z"/>
		<path fill="#163F2A" d="M179.275,67.415V51.812h3.339v1.158c0.477-0.727,1.703-1.431,3.316-1.431c3.271,0,5.246,2.498,5.246,5.882
			c0,3.452-2.226,5.928-5.382,5.928c-1.454,0-2.544-0.499-3.066-1.135v5.201H179.275z M185.226,54.651
			c-1.34,0-2.544,0.909-2.544,2.794c0,1.862,1.204,2.816,2.544,2.816c1.363,0,2.567-0.931,2.567-2.816
			C187.792,55.559,186.588,54.651,185.226,54.651z"/>
		<path fill="#163F2A" d="M204.573,57.444c0,3.498-2.612,5.996-5.996,5.996c-3.361,0-5.996-2.498-5.996-5.996
			c0-3.498,2.635-5.973,5.996-5.973C201.961,51.471,204.573,53.947,204.573,57.444z M201.121,57.444
			c0-1.908-1.226-2.794-2.544-2.794c-1.295,0-2.544,0.886-2.544,2.794c0,1.885,1.249,2.816,2.544,2.816
			C199.894,60.261,201.121,59.352,201.121,57.444z"/>
		<path fill="#163F2A" d="M210.067,58.058h-2.544l-0.795-11.06h4.133L210.067,58.058z M208.772,59.398
			c1.09,0,1.976,0.886,1.976,1.976c0,1.067-0.886,1.953-1.976,1.953c-1.09,0-1.953-0.886-1.953-1.953
			C206.819,60.283,207.682,59.398,208.772,59.398z"/>
	</g>
</g>
</svg>
