<?xml version="1.0" encoding="utf-8"?>
<!-- Generator: Adobe Illustrator 18.0.0, SVG Export Plug-In . SVG Version: 6.00 Build 0)  -->
<!DOCTYPE svg PUBLIC "-//W3C//DTD SVG 1.1//EN" "http://www.w3.org/Graphics/SVG/1.1/DTD/svg11.dtd">
<svg version="1.1" xmlns="http://www.w3.org/2000/svg" xmlns:xlink="http://www.w3.org/1999/xlink" x="0px" y="0px"
	 viewBox="0 0 250 250" enable-background="new 0 0 250 250" xml:space="preserve">
<g id="Guides">
</g>
<g id="_x31_2_Col_Grid" opacity="0.1" enable-background="new    ">
</g>
<g id="Layer_3">
</g>
<g id="Layer_4">
	<g>
		<path fill="#163F2A" d="M256.127,203.01H116.177c-3.8,0-6.891-3.091-6.891-6.891v-1.62c0-3.779,3.074-6.854,6.854-6.854
			l0.162,0.006c0.008,0.001,0.947,0.065,2.287,0.065c6.28,0,8.474-1.294,8.524-1.74c0.402-3.617,0.991-15.485,1.011-16.194
			c-0.001-6.137,0.657-11.956,0.77-12.917c0.081-3.815,3.209-6.893,7.043-6.893h120.96v46.12h-0.769V203.01z M116.078,192.247
			c-1.214,0.033-2.191,1.031-2.191,2.252v1.62c0,1.263,1.027,2.29,2.29,2.29h135.35v-6.92h0.769v-36.918H135.936
			c-1.347,0-2.444,1.096-2.444,2.444l-0.017,0.28c-0.007,0.061-0.751,6.201-0.751,12.532c0,0.406-0.61,12.797-1.039,16.656
			c-0.43,3.871-4.837,5.833-13.097,5.833C117.322,192.316,116.378,192.265,116.078,192.247z"/>
	</g>
	<g>
		<rect x="-4.104" y="212.414" fill="#163F2A" width="258" height="5"/>
	</g>
	<g>
		<path fill="#163F2A" d="M87.407,205.635H34.425c-4.463,0-8.093-3.63-8.093-8.093V87.498c0-4.463,3.63-8.093,8.093-8.093h52.982
			c4.463,0,8.093,3.63,8.093,8.093v110.044C95.5,202.004,91.869,205.635,87.407,205.635z M34.425,84.005
			c-1.926,0-3.492,1.566-3.492,3.492v110.044c0,1.926,1.566,3.492,3.492,3.492h52.982c1.926,0,3.492-1.566,3.492-3.492V87.498
			c0-1.926-1.566-3.492-3.492-3.492H34.425z"/>
	</g>
	<g>
		<rect x="-4.104" y="43.414" fill="#163F2A" width="258" height="5"/>
	</g>
	<g>
		<path fill-rule="evenodd" clip-rule="evenodd" fill="#163F2A" d="M149.896,195.414v-4.542c-1,1.978-2.121,3.261-4.24,3.557
			c-0.225,0.032-0.512,0.048-0.735,0.048c0,0-0.03,0-0.031,0c-1.455,0-2.836-0.679-3.754-1.817l-1.192,1.726l-0.048-3.44v-32.899
			l0.633,0.212c1.846-5.824,6.464-9.171,12.68-9.182c5.977-0.006,11.962-0.006,17.928-0.006c6.074,0.007,10.432,3.245,12.313,8.916
			l0.447-0.304v34.851l-0.593-0.36c-0.94,1.441-2.351,2.259-4.07,2.259c-0.372,0-0.497-0.039-0.88-0.114
			c-1.961-0.387-3.457-1.889-3.457-3.965v5.061H149.896z"/>
		<path fill="#FFFFFF" d="M171.154,150.071c5.852,0.007,10.08,3.209,11.701,8.834c0.057,0.169,0.149,0.327,0.227,0.496
			c0.003,1.113,0.008,1.485,0.015,1.485c0.013,0-0.127-1.506-0.117-1.512c0.032-0.02-0.084-0.046-0.084-0.059
			c0,10.543,0,21.081,0,31.631c0-0.037,0.022-0.053-0.024-0.053c-0.203,0-0.073,0.3-0.138,0.418
			c-0.749,1.371-1.97,2.122-3.461,2.122c-0.305,0-0.6-0.031-0.922-0.096c-1.679-0.332-2.779-1.653-2.964-3.532
			c-0.036-0.43-0.046-0.866-0.046-1.292c-0.006-7.823,0.002-15.648-0.01-23.468c0-0.306,0.214-0.785-0.235-0.876
			c-0.173-0.037-0.351-0.05-0.532-0.05c-0.31,0-0.629,0.038-0.936,0.062c-0.166,0.024,0.067,0.244,0.067,0.394
			c-0.015,0.277,0.202,0.557,0.202,0.834c0,9.656,0,19.005,0,29.005h-11c0,0,0-0.19,0-0.27c0-0.643-0.454-1.099-1.036-1.099
			c-0.182,0-0.34,0.045-0.521,0.142c-0.278,0.156-0.147,0.456-0.147,0.675c-0.002,0.179,0.013,0.552,0.012,0.552h-10.308
			c0-10,0-19.447,0-29.155c0-0.873-0.329-1.22-0.946-1.22c-0.181,0-0.425,0.03-0.681,0.085c-0.366,0.081-0.373,0.298-0.373,0.538
			c0,0.641,0,1.292,0,1.94c0,7.395,0,14.787,0,22.184c0,0.557-0.033,1.121-0.135,1.656c-0.361,1.693-1.59,2.752-3.348,2.997
			c-0.18,0.026-0.367,0.038-0.544,0.038c-1.398,0-2.684-0.777-3.382-2.073c-0.098-0.188-0.216-0.362-0.319-0.553
			c0,0-0.124,0.015-0.142,0.02c-0.02,0.024-0.13,0.052-0.13,0.074c0-10.479,0-20.964,0-31.452c0,0.027,0.2,0.039,0.244,0.039
			c0.22,0,0.173-0.293,0.214-0.423c1.619-5.775,5.902-9.022,11.874-9.032C159.204,150.071,165.189,150.071,171.154,150.071
			 M171.157,148.414h-0.001h-0.001c-5.966,0-11.934-0.171-17.91-0.165c-6.316,0.011-11.134,3.139-13.319,8.8l-1.029-0.446v2.891
			v31.452v6.724l2.321-3.447c1.012,0.802,2.297,1.254,3.607,1.254c0.271,0,0.685-0.019,0.956-0.058
			c1.153-0.161,2.115-0.585,3.115-1.224v0.189v2.03h1.757h10.551h1.984h10.273h2.435v-2.03v-0.275c0,0.589,1.336,0.999,2.304,1.19
			c0.444,0.088,0.784,0.133,1.221,0.133c1.767,0,3.119-0.716,4.24-2.004l1.236,0.696v-3.179v-31.631v-3.243l-0.885,0.696
			C181.795,151.329,177.299,148.414,171.157,148.414L171.157,148.414z"/>
	</g>
	<g>
		<path fill-rule="evenodd" clip-rule="evenodd" fill="#163F2A" d="M162.042,149.102c-0.658,0-1.307-0.072-1.928-0.213
			c-4.543-1.03-7.848-4.846-8.038-9.278c-0.201-4.418,2.542-8.467,6.698-9.931l-0.137-0.592h8.719l-1.275,0.885
			c2.426,1.086,4.316,3.016,5.274,5.425c1.092,2.746,0.875,5.869-0.596,8.568C169.094,147.037,165.59,149.102,162.042,149.102
			C162.042,149.102,162.042,149.102,162.042,149.102z"/>
		<path fill="#FFFFFF" d="M164.162,130.087c-0.024,0.017-0.047,0.041-0.071,0.061c-0.019,0.017-0.045,0.056-0.039,0.069
			c0.143,0.237,0.422,0.22,0.653,0.294c5.557,1.81,7.967,7.857,5.178,12.975c-1.526,2.814-4.717,4.615-7.839,4.615
			c-0.575,0-1.148-0.061-1.707-0.188c-4.124-0.935-7.089-4.344-7.26-8.346c-0.186-4.093,2.373-7.761,6.244-9.017
			c0.212-0.078,0.697,0.061,0.576-0.463C161.321,130.087,162.74,130.087,164.162,130.087 M170.435,128.087h-6.273h-4.266h-2.513
			l0.226,0.982c-4.098,1.833-6.738,6.031-6.531,10.59c0.208,4.876,3.833,9.075,8.815,10.205c0.694,0.158,1.418,0.238,2.15,0.238
			c3.904,0,7.761-2.275,9.597-5.661c1.612-2.957,1.847-6.389,0.645-9.413c-0.853-2.144-2.372-3.942-4.328-5.182L170.435,128.087
			L170.435,128.087z"/>
	</g>
	<path fill-rule="evenodd" clip-rule="evenodd" fill="#163F2A" stroke="#FFFFFF" stroke-width="2" stroke-miterlimit="10" d="
		M151.22,185.352l-16.391,4.888c0,0-3.163,2.013-3.163,6.326c0,4.313,0.288,20.416,0.288,20.416s0.575,4.313,4.888,4.313
		c2.876,0,5.751-1.15,6.039-4.601c0.288-3.451,0-17.253,0-17.253l10.633-4.404"/>
	
		<path fill-rule="evenodd" clip-rule="evenodd" fill="#163F2A" stroke="#FFFFFF" stroke-width="2" stroke-linecap="round" stroke-linejoin="round" stroke-miterlimit="10" d="
		M158.128,190.592l-7.476,2.341c0,0-3.163,0.438-3.163,4.751s0.288,20.416,0.288,20.416s0.575,4.313,4.888,4.313
		c2.876,0,5.751-1.15,6.039-4.601c0.288-3.451,0-17.253,0-17.253l14.665-5.463"/>
	<g>
		<path fill-rule="evenodd" clip-rule="evenodd" fill="#163F2A" d="M206.896,195.414v-4.542c-1,1.978-2.153,3.261-4.272,3.557
			c-0.225,0.032-0.528,0.048-0.752,0.048c0,0-0.038,0-0.039,0c-1.462,0-2.853-0.685-3.771-1.833l-1.133,1.626l-0.034-3.325v-32.898
			l0.6,0.211c1.848-5.824,6.449-9.171,12.664-9.182c5.977-0.006,11.954-0.006,17.92-0.006c6.074,0.007,10.46,3.246,12.341,8.916
			l0.475-0.304v34.852l-0.625-0.361c-0.94,1.441-2.367,2.259-4.087,2.259c-0.372,0-0.973-0.039-1.356-0.114
			c-1.96-0.387-2.932-1.888-3.932-3.965v5.061H206.896z"/>
		<path fill="#FFFFFF" d="M228.09,150.071c5.852,0.007,10.08,3.209,11.701,8.834c0.057,0.169,0.149,0.327,0.227,0.496
			c0.003,1.113,0.008,1.485,0.015,1.485c0.013,0-0.095-1.506-0.085-1.512c0.032-0.02-0.052-0.046-0.052-0.059
			c0,10.543,0,21.081,0,31.631c0-0.037-0.01-0.053-0.057-0.053c-0.203,0-0.089,0.3-0.154,0.418
			c-0.749,1.371-1.978,2.122-3.469,2.122c-0.305,0-0.604-0.031-0.926-0.096c-1.679-0.332-2.781-1.653-2.966-3.532
			c-0.037-0.43-0.047-0.866-0.047-1.292c-0.006-7.823,0.002-15.648-0.011-23.468c0-0.306,0.213-0.785-0.235-0.876
			c-0.173-0.037-0.351-0.05-0.532-0.05c-0.31,0-0.629,0.038-0.936,0.062c-0.166,0.024-0.401,0.244-0.401,0.394
			c-0.015,0.277-0.265,0.557-0.265,0.834c0,9.656,0,19.005,0,29.005h-10c0,0,0-0.19,0-0.27c0-0.643-0.487-1.099-1.068-1.099
			c-0.182,0-0.356,0.045-0.537,0.142c-0.278,0.156-0.156,0.456-0.156,0.675c-0.002,0.179,0.005,0.552,0.004,0.552h-10.244
			c0-10,0-19.447,0-29.155c0-0.873-0.361-1.22-0.978-1.22c-0.181,0-0.409,0.03-0.665,0.085c-0.366,0.081-0.357,0.298-0.357,0.538
			c0,0.641,0,1.292,0,1.94c0,7.395,0,14.787,0,22.184c0,0.557-0.065,1.121-0.167,1.656c-0.361,1.693-1.606,2.752-3.364,2.997
			c-0.18,0.026-0.375,0.038-0.552,0.038c-1.398,0-2.688-0.777-3.386-2.073c-0.098-0.188-0.218-0.362-0.321-0.553
			c0,0-0.093,0.015-0.111,0.02c-0.02,0.024-0.098,0.052-0.098,0.074c0-10.479,0-20.964,0-31.452c0,0.027,0.167,0.039,0.211,0.039
			c0.22,0,0.157-0.293,0.198-0.423c1.62-5.775,5.894-9.022,11.866-9.032C216.147,150.071,222.125,150.071,228.09,150.071
			 M228.092,148.414h-0.001h-0.001c-5.966,0-11.934-0.171-17.91-0.165c-6.316,0.011-11.102,3.139-13.287,8.8l-0.996-0.446v2.891
			v31.452v6.724l2.289-3.447c1.012,0.802,2.281,1.255,3.591,1.255c0.271,0,0.71-0.019,0.98-0.058
			c1.153-0.161,2.139-0.585,3.139-1.224v0.189v2.03h1.693h10.551h1.984h10.273h1.499v-2.03v-0.275c1,0.589,1.804,0.999,2.772,1.19
			c0.444,0.088,1.017,0.133,1.455,0.133c1.767,0,3.268-0.716,4.389-2.004l1.385,0.696v-3.179v-31.631v-3.243l-0.917,0.696
			C238.762,151.329,234.235,148.414,228.092,148.414L228.092,148.414z"/>
	</g>
	<g>
		<path fill-rule="evenodd" clip-rule="evenodd" fill="#163F2A" d="M218.978,149.102c-0.658,0-1.307-0.072-1.928-0.213
			c-4.544-1.031-7.849-4.846-8.038-9.278c-0.201-4.418,2.542-8.467,6.698-9.931l-0.137-0.592h8.719l-1.275,0.885
			c2.426,1.086,4.316,3.017,5.274,5.426c1.092,2.746,0.875,5.869-0.596,8.568C226.03,147.037,222.526,149.102,218.978,149.102
			L218.978,149.102z"/>
		<path fill="#FFFFFF" d="M221.097,130.087c-0.024,0.017-0.047,0.041-0.071,0.061c-0.019,0.017-0.045,0.056-0.039,0.069
			c0.143,0.237,0.422,0.22,0.653,0.294c5.557,1.81,7.967,7.857,5.178,12.975c-1.526,2.814-4.717,4.615-7.839,4.615
			c-0.575,0-1.148-0.061-1.707-0.188c-4.124-0.935-7.089-4.344-7.26-8.346c-0.186-4.093,2.373-7.761,6.244-9.017
			c0.212-0.078,0.697,0.061,0.576-0.463C218.256,130.087,219.675,130.087,221.097,130.087 M227.37,128.087h-6.273h-4.266h-2.514
			l0.226,0.982c-4.098,1.833-6.738,6.031-6.531,10.59c0.208,4.876,3.833,9.075,8.815,10.205c0.694,0.158,1.418,0.238,2.15,0.238
			c3.904,0,7.761-2.275,9.597-5.661c1.612-2.957,1.847-6.389,0.645-9.413c-0.853-2.144-2.372-3.942-4.328-5.182L227.37,128.087
			L227.37,128.087z"/>
	</g>
	<path fill-rule="evenodd" clip-rule="evenodd" fill="#163F2A" stroke="#FFFFFF" stroke-width="2" stroke-miterlimit="10" d="
		M208.155,185.352l-16.391,4.888c0,0-3.163,2.013-3.163,6.326c0,4.313,0.288,20.416,0.288,20.416s0.575,4.313,4.888,4.313
		c2.876,0,5.751-1.15,6.039-4.601c0.288-3.451,0-17.253,0-17.253l10.633-4.404"/>
	
		<path fill-rule="evenodd" clip-rule="evenodd" fill="#163F2A" stroke="#FFFFFF" stroke-width="2" stroke-linecap="round" stroke-linejoin="round" stroke-miterlimit="10" d="
		M215.064,190.592l-7.476,2.341c0,0-3.163,0.438-3.163,4.751s0.288,20.416,0.288,20.416s0.575,4.313,4.888,4.313
		c2.876,0,5.751-1.15,6.039-4.601c0.288-3.451,0-17.253,0-17.253l14.665-5.463"/>
	<g>
		<g>
			<path fill-rule="evenodd" clip-rule="evenodd" fill="#163F2A" d="M37.042,221.264H32.61l0.146-0.58
				c-2.08-0.982-3.275-2.618-3.516-4.78c-0.27,1.701-1.045,3.488-3.14,4.595l0.565,0.721l-2.02,0.043h-5.063l0.428-0.739
				c-2.018-1.068-3.088-2.917-3.195-5.507c-0.012-0.351-0.012-0.704-0.012-1.059v-41.491c-0.512,1.978-1.999,3.262-4.118,3.558
				c-0.225,0.032-0.451,0.048-0.675,0.048c-1.462,0-2.834-0.685-3.752-1.833l-1.083,1.625l0.015-3.322v-32.898l0.561,0.211
				c1.848-5.824,6.429-9.171,12.644-9.182c5.977-0.006,11.944-0.006,17.91-0.006c6.074,0.006,10.581,3.246,12.463,8.916l0.596-0.304
				v34.852l-0.752-0.361c-0.938,1.44-2.43,2.259-4.15,2.259c-0.372,0-0.754-0.038-1.137-0.114c-1.96-0.388-3.352-1.889-3.713-3.966
				v42.246c0,1.287-0.05,2.544-0.652,3.77c-0.548,1.116-1.393,1.97-2.566,2.588l0.452,0.727L37.042,221.264z"/>
			<path fill="#FFFFFF" d="M38.305,131.667c5.852,0.007,10.08,3.209,11.701,8.834c0.057,0.169,0.149,0.327,0.227,0.496
				c0,0,0,0,0.001,0c0.005,0,0.042-0.02,0.056-0.027c0.032-0.02,0.047-0.046,0.075-0.059c0,10.543,0,21.081,0,31.631
				c-0.077-0.037-0.137-0.053-0.183-0.053c-0.203,0-0.152,0.3-0.218,0.418c-0.749,1.371-2.01,2.122-3.501,2.122
				c-0.305,0-0.62-0.031-0.942-0.095c-1.679-0.332-2.789-1.653-2.974-3.532c-0.036-0.43-0.051-0.866-0.051-1.292
				c-0.006-7.823,0-15.648-0.013-23.468c0-0.306,0.212-0.785-0.236-0.876c-0.173-0.037-0.351-0.05-0.533-0.05
				c-0.311,0-0.629,0.038-0.936,0.062c-0.166,0.024-0.151,0.244-0.151,0.394c-0.015,0.277-0.015,0.557-0.015,0.834
				c0,22.392,0,44.792,0,67.189c0,1.137-0.03,2.27-0.55,3.329c-0.638,1.301-1.718,2.059-3.029,2.537
				c-0.022,0.019-0.065,0.057-0.065,0.066c0.02,0.049,0.047,0.093,0.074,0.137c-1.045,0-2.092,0-3.149,0
				c0.102-0.403-0.26-0.294-0.431-0.359c-2.081-0.869-3.221-2.442-3.266-4.697c-0.046-2.867-0.019-5.729-0.029-8.591
				c0-10.291,0-20.582,0-30.876c0-0.643-0.515-1.1-1.096-1.1c-0.182,0-0.37,0.045-0.551,0.142c-0.278,0.156-0.162,0.442-0.162,0.66
				c-0.021,1.602-0.013,3.207-0.013,4.804c0,11.254-0.018,22.497,0.027,33.744c0.007,2.83-0.786,5.024-3.674,6.028
				c-0.049,0.022-0.114,0.068-0.132,0.12c-0.004,0.025,0.044,0.081,0.08,0.125c-1.101,0-2.212,0-3.329,0
				c0.186-0.322-0.122-0.299-0.272-0.359c-2.215-0.903-3.136-2.649-3.23-4.929c-0.011-0.332-0.011-0.673-0.011-1.018
				c0-22.365,0-44.735,0-67.103c0-0.873-0.207-1.22-0.825-1.22c-0.181,0-0.397,0.03-0.653,0.085
				c-0.366,0.081-0.345,0.298-0.345,0.538c0,0.641,0,1.292,0,1.94c0,7.395,0,14.787,0,22.184c0,0.557,0,1.121-0.102,1.656
				c-0.361,1.693-1.574,2.752-3.331,2.997c-0.18,0.026-0.359,0.038-0.536,0.038c-1.398,0-2.68-0.777-3.378-2.073
				c-0.098-0.188-0.214-0.362-0.317-0.553c0,0-0.052,0.015-0.069,0.02c-0.02,0.024-0.042,0.052-0.057,0.074
				c0-10.479,0-20.964,0-31.452c0.072,0.027,0.128,0.039,0.172,0.039c0.22,0,0.137-0.293,0.178-0.423
				c1.62-5.775,5.884-9.022,11.856-9.032C26.372,131.667,32.34,131.667,38.305,131.667 M38.307,129.667h-0.001h-0.001
				c-5.966,0-11.934,0-17.91,0.007c-6.316,0.011-11.062,3.224-13.247,8.886L6.19,138.2v2.891v31.452v6.697l2.245-3.423
				c1.013,0.804,2.263,1.258,3.576,1.258c0.272,0,0.547-0.019,0.817-0.058c1.153-0.161,2.162-0.585,2.976-1.224v38.167
				c0,0.367,0,0.731,0.012,1.084c0.123,2.995,1.406,4.768,2.846,5.817l-0.813,1.405h3.468h3.329h4.194l-1.244-1.536
				c0.71-0.543,1.239-1.165,1.632-1.812c0.568,0.916,1.364,1.687,2.366,2.285l-0.268,1.063h2.567h3.149h3.573l-0.852-1.389
				c0.908-0.655,1.609-1.481,2.094-2.47c0.754-1.536,0.754-3.145,0.754-4.21v-38.49c0.701,0.589,1.554,0.999,2.521,1.19
				c0.444,0.088,0.892,0.133,1.329,0.133c1.767,0,3.332-0.716,4.453-2.004l1.449,0.696v-3.18v-31.631v-3.239l-1.042,0.522
				C49.106,132.756,44.451,129.674,38.307,129.667L38.307,129.667z"/>
		</g>
		<g>
			<path fill-rule="evenodd" clip-rule="evenodd" fill="#163F2A" d="M29.193,130.699c-0.658,0-1.307-0.072-1.928-0.213
				c-4.543-1.031-7.849-4.846-8.038-9.279c-0.201-4.418,2.543-8.467,6.699-9.931l-0.137-0.592h8.719l-1.275,0.885
				c2.426,1.086,4.316,3.017,5.274,5.426c1.092,2.746,0.875,5.869-0.596,8.568C36.245,128.634,32.741,130.699,29.193,130.699
				L29.193,130.699z"/>
			<path fill="#FFFFFF" d="M31.312,111.684c-0.024,0.017-0.047,0.041-0.071,0.061c-0.019,0.017-0.045,0.056-0.039,0.069
				c0.143,0.237,0.422,0.22,0.653,0.294c5.557,1.81,7.967,7.857,5.178,12.975c-1.526,2.814-4.717,4.615-7.839,4.615
				c-0.575,0-1.148-0.061-1.707-0.188c-4.124-0.935-7.089-4.344-7.26-8.346c-0.186-4.094,2.373-7.761,6.244-9.017
				c0.212-0.078,0.697,0.061,0.576-0.463C28.471,111.684,29.891,111.684,31.312,111.684 M37.622,109.684h-6.31h-4.266h-2.514
				l0.226,0.982c-4.098,1.833-6.738,6.031-6.531,10.59c0.208,4.876,3.833,9.075,8.815,10.205c0.694,0.158,1.418,0.238,2.15,0.238
				c3.904,0,7.761-2.275,9.598-5.661c1.612-2.957,1.847-6.389,0.645-9.413c-0.851-2.141-2.367-3.936-4.318-5.176L37.622,109.684
				L37.622,109.684z"/>
		</g>
	</g>
	<g>
		<path fill="#163F2A" d="M256.896,72.07H-4.713V57.161h261.609V72.07z M-0.112,67.47h252.407v-5.708H-0.112V67.47z"/>
	</g>
	<g>
		<path fill="#163F2A" d="M117.646,103.811c-2.422,0-4.848-0.872-7.015-2.522l-0.248-0.189l-0.188-0.248
			c-2.715-3.565-3.273-7.841-1.491-11.439c1.696-3.425,5.123-5.552,8.942-5.552c2.422,0,4.848,0.872,7.015,2.522l0.248,0.189
			l0.188,0.248c2.715,3.565,3.273,7.841,1.491,11.439C124.893,101.684,121.466,103.811,117.646,103.811z M113.67,97.813
			c1.287,0.915,2.656,1.397,3.976,1.397c2.058,0,3.905-1.147,4.819-2.993c0.965-1.948,0.655-4.25-0.842-6.358
			c-1.287-0.915-2.656-1.397-3.976-1.397c-2.058,0-3.905,1.147-4.819,2.993C111.863,93.403,112.172,95.705,113.67,97.813z"/>
	</g>
	<g>
		<rect x="115.347" y="69.77" fill="#163F2A" width="4.601" height="17.108"/>
	</g>
	<g>
		<path fill="#163F2A" d="M167.182,103.811c-2.422,0-4.848-0.872-7.015-2.522l-0.248-0.189l-0.188-0.248
			c-2.715-3.565-3.273-7.841-1.491-11.439c1.696-3.425,5.123-5.552,8.942-5.552c2.422,0,4.848,0.872,7.015,2.522l0.248,0.189
			l0.188,0.248c2.715,3.565,3.273,7.841,1.491,11.439C174.428,101.684,171.002,103.811,167.182,103.811z M163.206,97.813
			c1.287,0.915,2.656,1.397,3.976,1.397c2.058,0,3.905-1.147,4.819-2.993c0.965-1.948,0.655-4.25-0.842-6.358
			c-1.287-0.915-2.656-1.397-3.976-1.397c-2.058,0-3.905,1.147-4.819,2.993C161.399,93.403,161.708,95.705,163.206,97.813z"/>
	</g>
	<g>
		<rect x="164.883" y="69.77" fill="#163F2A" width="4.601" height="17.108"/>
	</g>
	<g>
		<path fill="#163F2A" d="M217.199,103.811c-2.422,0-4.848-0.872-7.015-2.522l-0.248-0.189l-0.188-0.248
			c-2.715-3.565-3.273-7.841-1.491-11.439c1.696-3.425,5.123-5.552,8.942-5.552c2.422,0,4.848,0.872,7.015,2.522l0.248,0.189
			l0.188,0.248c2.715,3.565,3.273,7.841,1.491,11.439C224.445,101.684,221.018,103.811,217.199,103.811z M213.222,97.813
			c1.287,0.915,2.656,1.397,3.976,1.397c2.058,0,3.905-1.147,4.819-2.993c0.965-1.948,0.655-4.25-0.842-6.358
			c-1.287-0.915-2.656-1.397-3.976-1.397c-2.058,0-3.905,1.147-4.819,2.993C211.415,93.403,211.724,95.705,213.222,97.813z"/>
	</g>
	<g>
		<rect x="214.898" y="69.77" fill="#163F2A" width="4.601" height="17.108"/>
	</g>
</g>
</svg>
