<?xml version="1.0" encoding="utf-8"?>
<!-- Generator: Adobe Illustrator 18.0.0, SVG Export Plug-In . SVG Version: 6.00 Build 0)  -->
<!DOCTYPE svg PUBLIC "-//W3C//DTD SVG 1.1//EN" "http://www.w3.org/Graphics/SVG/1.1/DTD/svg11.dtd">
<svg version="1.1" xmlns="http://www.w3.org/2000/svg" xmlns:xlink="http://www.w3.org/1999/xlink" x="0px" y="0px"
	 viewBox="0 0 250 250" enable-background="new 0 0 250 250" xml:space="preserve">
<g id="Guides">
</g>
<g id="_x31_2_Col_Grid" opacity="0.1" enable-background="new    ">
</g>
<g id="Layer_3">
</g>
<g id="Layer_4">
	<g>
		<path fill-rule="evenodd" clip-rule="evenodd" fill="#163F2A" d="M68.628,190.973c-1.169,0-2.322-0.127-3.428-0.379
			c-8.055-1.827-13.917-8.596-14.252-16.46c-0.353-7.762,4.417-14.881,11.671-17.54l-0.26-1.126h16.276l-2.468,1.742
			c4.123,1.954,7.331,5.302,8.981,9.452c1.938,4.873,1.554,10.412-1.054,15.198C81.14,187.309,74.923,190.973,68.628,190.973
			C68.629,190.973,68.629,190.973,68.628,190.973z"/>
		<path fill="#FFFFFF" d="M72.334,157.468c-0.042,0.029-0.083,0.071-0.124,0.106c-0.033,0.03-0.078,0.098-0.068,0.121
			c0.25,0.414,0.738,0.385,1.142,0.515c9.719,3.165,13.933,13.741,9.055,22.692c-2.669,4.921-8.25,8.07-13.71,8.07
			c-1.006,0-2.007-0.107-2.986-0.329c-7.212-1.636-12.398-7.597-12.697-14.595c-0.325-7.159,4.15-13.572,10.92-15.77
			c0.371-0.136,1.219,0.107,1.007-0.81C67.366,157.468,69.848,157.468,72.334,157.468 M84.935,153.468H72.334h-7.461h-5.028
			l0.446,1.934c-7.138,3.374-11.707,10.789-11.342,18.828c0.374,8.753,6.874,16.289,15.808,18.315
			c1.251,0.284,2.553,0.428,3.87,0.428c7.006,0,13.929-4.084,17.226-10.163c2.89-5.302,3.311-11.46,1.153-16.887
			c-1.437-3.614-3.929-6.68-7.133-8.882L84.935,153.468L84.935,153.468z"/>
	</g>
	<g>
		<path fill-rule="evenodd" clip-rule="evenodd" fill="#163F2A" d="M29.896,254.414v-48.411l1.074,0.405
			c3.312-10.139,11.37-15.962,22.271-15.98c10.452-0.012,20.889-0.012,31.322-0.012c10.643,0.013,18.686,5.637,22.065,15.495
			l1.268-0.579v49.082H29.896z"/>
		<path fill="#FFFFFF" d="M84.563,192.416c10.234,0.012,17.629,5.452,20.463,15.291c0.099,0.296,0.26,0.707,0.398,0.707
			c0,0,0,0,0.001,0c0.009,0,0.195,0.126,0.219,0.112c0.056-0.036,0.251,0.08,0.251,0.056c0,14.61,0,29.218,0,43.831H91.89
			c-0.004-11.271-0.002-22.543-0.02-33.809c0-0.536,0.372-1.373-0.413-1.532c-0.302-0.064-0.614-0.087-0.932-0.087
			c-0.543,0-1.1,0.067-1.637,0.108c-0.29,0.042-0.114,0.426-0.114,0.689c-0.027,0.485,0.122,0.973,0.122,1.458
			c0,11.056,0,22.116,0,33.173h-40c0-11.146,0-22.291,0-33.437c0-1.526-0.455-2.134-1.535-2.134c-0.316,0-0.554,0.052-1.002,0.149
			c-0.64,0.142-0.463,0.521-0.463,0.941c0,1.121,0,2.26,0,3.393c0,10.363,0,20.724,0,31.088h-14c0-14.503,0-29.007,0-43.518
			c0,0.047,0.224,0.068,0.301,0.068c0.385,0,0.241-0.512,0.312-0.739c2.832-10.099,10.29-15.779,20.735-15.797
			C63.695,192.416,74.131,192.416,84.563,192.416 M84.568,188.414h-0.002h-0.002c-10.434,0-20.871,0.001-31.323,0.013
			c-11.097,0.019-19.478,5.581-23.453,15.397l-1.891-0.713v5.785v43.518v4h4.002h13.625h4h39.076h4h13.055h4.242v-4v-43.831v-6.475
			l-2.189,1.034C103.675,193.741,95.345,188.414,84.568,188.414L84.568,188.414z"/>
	</g>
	<g>
		<path fill="#183F2A" d="M199.294,79.261H52.049c-5.436,0-9.858-4.422-9.858-9.858V31.358c0-5.436,4.422-9.858,9.858-9.858h147.245
			c5.436,0,9.858,4.422,9.858,9.858v38.045C209.152,74.839,204.73,79.261,199.294,79.261z M52.049,27.298
			c-2.238,0-4.059,1.821-4.059,4.059v38.045c0,2.238,1.821,4.059,4.059,4.059h147.245c2.238,0,4.059-1.821,4.059-4.059V31.358
			c0-2.238-1.821-4.059-4.059-4.059H52.049z"/>
	</g>
	<g>
		<path fill="#183F2A" d="M47.339,33.687c0,1.602-2.145,3-4.791,3H-5.361c-2.646,0-4.791-1.398-4.791-3c0-1.602,2.145-3,4.791-3
			h47.909C45.194,30.687,47.339,32.086,47.339,33.687z"/>
	</g>
	<g>
		<path fill="#183F2A" d="M47.339,63.647c0,1.602-2.145,3-4.791,3H-5.361c-2.646,0-4.791-1.398-4.791-3c0-1.602,2.145-3,4.791-3
			h47.909C45.194,60.647,47.339,62.045,47.339,63.647z"/>
	</g>
	<g>
		<path fill="#183F2A" d="M185.337,53.414h-26.096c-1.602,0-2.9-0.898-2.9-2.5s1.298-2.5,2.9-2.5h26.096c1.602,0,2.9,0.898,2.9,2.5
			S186.939,53.414,185.337,53.414z"/>
	</g>
	<g>
		<path fill="#183F2A" d="M179.117,64.7c-0.742,0-1.484-0.283-2.05-0.849c-1.133-1.132-1.133-2.968,0-4.1l8.986-8.986l-9.127-9.127
			c-1.133-1.132-1.133-2.968,0-4.1c1.132-1.133,2.969-1.133,4.1,0l11.177,11.177c1.133,1.132,1.133,2.968,0,4.1l-11.036,11.036
			C180.602,64.417,179.859,64.7,179.117,64.7z"/>
	</g>
</g>
</svg>
