<?xml version="1.0" encoding="utf-8"?>
<!-- Generator: Adobe Illustrator 18.0.0, SVG Export Plug-In . SVG Version: 6.00 Build 0)  -->
<!DOCTYPE svg PUBLIC "-//W3C//DTD SVG 1.1//EN" "http://www.w3.org/Graphics/SVG/1.1/DTD/svg11.dtd">
<svg version="1.1" xmlns="http://www.w3.org/2000/svg" xmlns:xlink="http://www.w3.org/1999/xlink" x="0px" y="0px"
	 viewBox="0 0 250 250" enable-background="new 0 0 250 250" xml:space="preserve">
<g id="Guides">
</g>
<g id="_x31_2_Col_Grid" opacity="0.1" enable-background="new    ">
</g>
<g id="Layer_3">
	<g>
		<path fill="#183F2A" d="M128.038,200.389H57.022c-5.651,0-10.248-4.598-10.248-10.248v-50.958c0-5.651,4.598-10.248,10.248-10.248
			h71.015c5.651,0,10.248,4.598,10.248,10.248v50.958C138.286,195.792,133.689,200.389,128.038,200.389z M57.022,135.203
			c-2.195,0-3.981,1.786-3.981,3.981v50.958c0,2.195,1.786,3.981,3.981,3.981h71.015c2.195,0,3.981-1.786,3.981-3.981v-50.958
			c0-2.195-1.786-3.981-3.981-3.981H57.022z"/>
	</g>
	<g>
		<path fill="#183F2A" d="M201.964,199.136h-45.872c-3.252,0-5.896-2.645-5.896-5.896v-10.772c0-3.252,2.645-5.896,5.896-5.896
			h45.872c3.251,0,5.896,2.645,5.896,5.896v10.772C207.86,196.491,205.216,199.136,201.964,199.136z M156.463,192.868h45.129
			v-10.029h-45.129V192.868z"/>
	</g>
	<g>
		<path fill-rule="evenodd" clip-rule="evenodd" fill="#163F2A" d="M74.278,149.985c-5.3,0-10.534-3.083-13.024-7.673
			c-2.196-4.026-2.521-8.69-0.891-12.794c1.434-3.607,4.265-6.496,7.896-8.117l-1.815-1.293l4.67-0.022h8.25l-0.201,0.882
			c6.19,2.167,10.305,8.229,10.005,14.846c-0.281,6.618-5.22,12.316-12.01,13.853C76.23,149.878,75.261,149.985,74.278,149.985z"/>
		<path fill="#FFFFFF" d="M77.484,121.586c-0.179,0.786,0.544,0.576,0.863,0.69c5.779,1.879,9.601,7.353,9.323,13.471
			c-0.254,5.974-4.683,11.064-10.843,12.458c-0.836,0.19-1.691,0.281-2.55,0.281c-4.662,0-9.426-2.689-11.706-6.889
			c-4.168-7.641-0.566-16.674,7.733-19.377c0.344-0.111,0.76-0.088,0.975-0.439c0.008-0.023-0.033-0.078-0.058-0.106
			c-0.037-0.03-0.072-0.063-0.107-0.088C73.237,121.586,75.358,121.586,77.484,121.586 M81.246,118.586h-3.761h-6.369h-9.367
			l3.688,2.633c-2.924,1.854-5.193,4.542-6.467,7.746c-1.796,4.519-1.443,9.647,0.969,14.068c2.742,5.053,8.506,8.452,14.339,8.452
			c1.094,0,2.175-0.12,3.214-0.355c7.447-1.686,12.865-7.959,13.176-15.256c0.309-6.803-3.635-13.079-9.757-15.821L81.246,118.586
			L81.246,118.586z"/>
	</g>
	<g>
		<path fill-rule="evenodd" clip-rule="evenodd" fill="#163F2A" d="M55.896,254.414v-42.761c-1,3.075-2.719,5.281-5.622,5.857
			c-0.571,0.114-1.187,0.172-1.744,0.172c-2.568,0-4.952-1.224-6.358-3.381l-1.275,0.529v-51.896l1,0.38
			c2.767-8.491,9.588-13.377,18.707-13.39c8.91,0,17.858,0,26.781,0.013c9.267,0.013,15.997,4.997,18.78,13.714l0.731-0.313v53.69
			l-1.418-2.094c-1.375,1.762-3.389,2.813-5.602,2.813c-0.335,0-0.591-0.024-0.926-0.071c-3.153-0.44-5.053-2.349-6.053-5.261
			v41.999H55.896z"/>
		<path fill="#FFFFFF" d="M60.673,151.425c8.908,0,17.82,0,26.743,0.013c8.917,0.013,15.286,4.868,17.706,13.489
			c0.06,0.194,0.062,0.63,0.392,0.63c0.066,0,0.382-0.017,0.382-0.057c0,15.661,0,31.317,0,46.963c0-0.028-0.179-0.028-0.212-0.061
			c-0.022-0.009-0.215,0.012-0.226,0.012c-0.001,0-0.002,0-0.002,0c-0.155,0-0.326,0.501-0.474,0.778
			c-1.043,1.935-2.956,3.077-5.045,3.077c-0.264,0-0.531-0.029-0.8-0.067c-2.623-0.366-4.492-1.953-5.032-4.486
			c-0.153-0.793-0.209-1.645-0.209-2.473c0-11.044,0-22.084,0-33.13c0-0.965,0-1.937,0-2.895c0-0.359,0.088-0.682-0.458-0.803
			c-0.384-0.083-0.875-0.127-1.145-0.127c-0.92,0-1.397,0.518-1.397,1.822c0,26.102,0,52.204,0,78.305H75.547
			c0.005-9.477-0.003-18.956-0.003-28.438c0-2.387,0.011-4.784-0.017-7.176c0-0.326,0.174-0.753-0.241-0.988
			c-0.27-0.145-0.514-0.211-0.786-0.211c-0.869,0-1.604,0.681-1.604,1.643c0,11.723,0,23.447,0,35.17h-16
			c0-26.028,0-52.057,0-78.083c0-0.414,0.166-0.831,0.143-1.245c0-0.225,0.105-0.551-0.141-0.589
			c-0.459-0.033-0.891-0.089-1.353-0.089c-0.273,0-0.521,0.019-0.78,0.074c-0.669,0.136-0.342,0.849-0.342,1.308
			c-0.018,11.678-0.004,23.362-0.013,35.045c0,0.639-0.02,1.286-0.073,1.932c-0.279,2.801-1.935,4.774-4.442,5.272
			c-0.482,0.096-0.952,0.144-1.409,0.144c-2.226,0-4.109-1.124-5.226-3.17c-0.098-0.177,0.095-0.627-0.21-0.627
			c-0.069,0-0.155,0.023-0.155,0.077c0-15.75,0-31.486,0-47.23c0,0.018-0.052,0.061-0.004,0.086c0.02,0.014,0.018,0.044,0.026,0.044
			c0.001,0-0.028,0-0.028-0.001c0.115-0.252,0.239-0.487,0.324-0.74C45.633,156.217,51.936,151.438,60.673,151.425 M60.673,148.414
			h-0.002h-0.002c-9.227,0-16.09,4.669-19.38,12.87l-1.392-0.662v4.61v47.23v4.737l2.042-1.02c1.674,1.927,3.959,3.003,6.607,3.003
			c0.656,0,1.133-0.068,1.803-0.202c1.434-0.285,2.548-0.892,3.548-1.76v35.193v3h3.331h15.595h3h15.466h2.607v-3v-35.068
			c2,0.947,2.913,1.576,4.63,1.816c0.399,0.056,0.907,0.085,1.313,0.085c2.025,0,4.128-0.724,5.663-1.991l3.394,4.417v-9.211
			v-46.963v-4.323l-1.557,0.534c-3.268-8.46-10.423-13.266-19.855-13.279C78.559,148.419,69.582,148.414,60.673,148.414
			L60.673,148.414z"/>
	</g>
</g>
<g id="Layer_4">
	<g>
		<polygon fill="#163F2A" points="13.628,251.991 11.101,204.606 11.17,204.238 29.089,108.259 35.251,109.41 17.4,205.02 
			19.887,251.656 		"/>
	</g>
	<g>
		<path fill="#163F2A" d="M222.806,110.801H25.065c-4.779,0-8.667-3.888-8.667-8.667V89.369c0-4.779,3.888-8.667,8.667-8.667
			h197.741c4.779,0,8.668,3.888,8.668,8.667v12.764C231.474,106.912,227.586,110.801,222.806,110.801z M25.065,86.969
			c-1.323,0-2.399,1.076-2.399,2.399v12.764c0,1.323,1.077,2.399,2.399,2.399h197.741c1.323,0,2.4-1.077,2.4-2.399V89.369
			c0-1.323-1.077-2.399-2.4-2.399H25.065z"/>
	</g>
	<g>
		<polygon fill="#163F2A" points="235.505,250.856 229.246,250.521 231.733,203.885 213.882,108.275 220.043,107.124 
			238.032,203.471 238.012,203.845 		"/>
	</g>
	<g>
		<path fill="#183F2A" d="M200.339,164.414h-43.876c-1.731,0-3.134-1.769-3.134-3.5s1.403-3.5,3.134-3.5h43.876
			c1.731,0,3.134,1.769,3.134,3.5S202.07,164.414,200.339,164.414z"/>
	</g>
</g>
</svg>
