<?xml version="1.0" encoding="utf-8"?>
<!-- Generator: Adobe Illustrator 18.0.0, SVG Export Plug-In . SVG Version: 6.00 Build 0)  -->
<!DOCTYPE svg PUBLIC "-//W3C//DTD SVG 1.1//EN" "http://www.w3.org/Graphics/SVG/1.1/DTD/svg11.dtd">
<svg version="1.1" xmlns="http://www.w3.org/2000/svg" xmlns:xlink="http://www.w3.org/1999/xlink" x="0px" y="0px"
	 viewBox="0 0 250 250" enable-background="new 0 0 250 250" xml:space="preserve">
<g id="Guides">
</g>
<g id="_x31_2_Col_Grid" opacity="0.1" enable-background="new    ">
</g>
<g id="Layer_3">
</g>
<g id="Layer_4">
	<g>
		<path fill="#183F2A" d="M249.41,150.414H0.038c-1.551,0-2.808-1.471-2.808-3s1.257-3,2.808-3H249.41c1.551,0,2.808,1.471,2.808,3
			S250.961,150.414,249.41,150.414z"/>
	</g>
	<g>
		<path fill="#163F2A" d="M90.396,249.304c-1.529,0-2.5-1.239-2.5-2.768v-80.822c0-1.529,0.704-2.301,2.233-2.301h68.643
			c1.529,0,2.124,0.772,2.124,2.301v79.161c0,1.529-0.971,2.768-2.5,2.768s-2.5-1.239-2.5-2.768v-76.462h-63v78.123
			C92.896,248.065,91.925,249.304,90.396,249.304z"/>
	</g>
	<g>
		<path fill="#163F2A" d="M104.396,248.751c-1.529,0-2.5-1.239-2.5-2.768v-64.768c0-1.529,0.543-2.801,2.072-2.801h40.411
			c1.529,0,2.517,1.272,2.517,2.801v63.107c0,1.529-0.971,2.768-2.5,2.768s-2.5-1.239-2.5-2.768v-59.909h-35v61.569
			C106.896,247.512,105.925,248.751,104.396,248.751z"/>
	</g>
	<g>
		<g>
			<path fill-rule="evenodd" clip-rule="evenodd" fill="#163F2A" d="M63.897,223.734l0.614-0.763
				c-1.89-1.003-2.652-2.61-2.944-4.178c-0.295,1.971-1.436,3.464-3.343,4.367l0.145,0.574h-6.113l0.44-0.71
				c-1.117-0.597-1.923-1.417-2.448-2.488c-0.583-1.186-0.631-2.401-0.631-3.645v-40.305c-0.443,1.836-1.743,3.142-3.531,3.495
				c-0.369,0.074-0.74,0.111-1.1,0.111c-1.656,0-3.093-0.782-4.007-2.163l-0.749,0.361v-33.67l0.589,0.3
				c1.805-5.435,6.156-8.56,12.018-8.566c5.743,0,11.488,0,17.239,0.006c5.979,0.01,10.391,3.217,12.195,8.827l0.554-0.209v35.155
				l-1.09-1.713c-0.894,1.078-2.198,1.715-3.587,1.715c-0.217,0-0.436-0.015-0.656-0.046c-1.964-0.274-3.369-1.426-3.919-3.189
				v39.664c0,0.344,0,0.684-0.011,1.014c-0.103,2.504-1.132,4.29-3.061,5.323l0.425,0.733H63.897z"/>
			<path fill="#FFFFFF" d="M52.838,137.454c5.742,0,11.486,0,17.237,0.006c5.749,0.01,9.854,3.136,11.413,8.694
				c0.039,0.125-0.041,0.407,0.171,0.407c0.042,0,0.096-0.011,0.165-0.037c0,10.095,0,20.188,0,30.274
				c-0.014-0.021-0.035-0.049-0.055-0.072c-0.017-0.005-0.067-0.02-0.067-0.02c-0.099,0.184-0.211,0.352-0.305,0.532
				c-0.672,1.247-1.906,1.995-3.251,1.995c-0.171,0-0.343-0.012-0.516-0.037c-1.692-0.236-2.859-1.255-3.207-2.885
				c-0.099-0.514-0.099-1.058-0.099-1.594c0-7.12,0-14.235,0-21.353c0-0.624,0-1.25,0-1.868c0-0.231,0.02-0.44-0.332-0.518
				c-0.247-0.053-0.455-0.082-0.629-0.082c-0.594,0-0.794,0.334-0.794,1.174c0,21.531,0,43.063,0,64.591c0,0.332,0,0.661-0.01,0.98
				c-0.09,2.195-0.977,3.875-3.109,4.745c-0.145,0.057-0.441,0.036-0.262,0.345c-1.075,0-2.144,0-3.204,0
				c0.034-0.042,0.081-0.096,0.077-0.12c-0.017-0.051-0.08-0.095-0.127-0.116c-2.779-0.967-3.543-3.079-3.536-5.803
				c0.043-10.826,0.026-21.648,0.026-32.48c0-1.537,0.008-3.082-0.012-4.624c0-0.21,0.112-0.485-0.156-0.635
				c-0.174-0.094-0.355-0.137-0.53-0.137c-0.56,0-1.055,0.439-1.055,1.058c0,9.909,0,19.815,0,29.72
				c-0.01,2.755,0.016,5.51-0.028,8.269c-0.043,2.17-1.141,3.685-3.143,4.521c-0.164,0.062-0.513-0.042-0.415,0.345
				c-1.017,0-2.025,0-3.031,0c0.026-0.042,0.052-0.085,0.072-0.132c0-0.008-0.042-0.045-0.063-0.063
				c-1.262-0.461-2.301-1.19-2.916-2.442c-0.501-1.019-0.529-2.11-0.529-3.204c0-21.558,0-43.12,0-64.674
				c0-0.267,0-0.536-0.015-0.803c0-0.145,0.015-0.357-0.145-0.38c-0.296-0.022-0.602-0.059-0.901-0.059
				c-0.175,0-0.347,0.013-0.513,0.048c-0.431,0.088-0.227,0.549-0.227,0.843c-0.012,7.527-0.007,15.059-0.012,22.589
				c0,0.41-0.014,0.83-0.049,1.244c-0.179,1.809-1.247,3.08-2.863,3.4c-0.31,0.062-0.613,0.092-0.907,0.092
				c-1.435,0-2.649-0.723-3.37-2.043c-0.063-0.114-0.014-0.402-0.209-0.402c-0.045,0-0.102,0.015-0.176,0.051
				c0-10.155,0-20.298,0-30.447c0.026,0.013,0.041,0.037,0.072,0.057c0.014,0.007,0.049,0.026,0.054,0.026c0,0,0.001,0,0.001,0
				c0.076-0.163,0.164-0.314,0.219-0.477C43.135,140.542,47.205,137.46,52.838,137.454 M52.838,135.454h-0.001h-0.001
				c-5.918,0.007-10.408,2.96-12.565,8.178l-1.04-0.522v3.242v30.447v3.18l1.45-0.697c1.089,1.227,2.6,1.911,4.306,1.911
				c0.426,0,0.862-0.044,1.297-0.13c0.887-0.175,1.675-0.54,2.335-1.059v36.889c0,1.032,0,2.592,0.734,4.086
				c0.465,0.947,1.133,1.74,1.995,2.373l-0.815,1.352l3.522,0.03h3.031h2.567l-0.268-1.063c0.916-0.555,1.652-1.26,2.191-2.091
				c0.365,0.575,0.842,1.127,1.467,1.615l-1.222,1.512l4.166,0.027h3.204h3.468l-0.815-1.408c1.385-1.028,2.599-2.74,2.716-5.599
				c0.012-0.357,0.012-0.708,0.012-1.062v-36.589c0.772,0.575,1.715,0.955,2.783,1.104c0.26,0.037,0.528,0.056,0.793,0.056
				c1.255,0,2.452-0.425,3.426-1.176l2.251,3.428v-6.689v-30.274v-2.892l-0.953,0.359c-2.127-5.437-6.707-8.521-12.793-8.531
				C64.325,135.454,58.581,135.454,52.838,135.454L52.838,135.454z"/>
		</g>
		<g>
			<path fill-rule="evenodd" clip-rule="evenodd" fill="#163F2A" d="M61.608,136.559c-3.429,0-6.814-1.995-8.424-4.965
				c-1.42-2.605-1.63-5.624-0.575-8.277c0.919-2.312,2.726-4.167,5.044-5.219l-1.27-0.892l3.186,0.014h5.363l-0.134,0.583
				c3.984,1.404,6.636,5.316,6.441,9.588c-0.183,4.281-3.376,7.968-7.766,8.963C62.871,136.489,62.244,136.559,61.608,136.559z"/>
			<path fill="#FFFFFF" d="M63.675,118.219c-0.116,0.505,0.35,0.371,0.554,0.446c3.726,1.21,6.189,4.74,6.01,8.68
				c-0.164,3.852-3.019,7.133-6.988,8.033c-0.539,0.122-1.09,0.181-1.643,0.181c-3.005,0-6.077-1.733-7.546-4.442
				c-2.685-4.927-0.366-10.747,4.984-12.49c0.222-0.072,0.491-0.055,0.629-0.283c0.006-0.013-0.02-0.05-0.038-0.067
				c-0.023-0.02-0.045-0.042-0.068-0.058C60.937,118.219,62.303,118.219,63.675,118.219 M66.189,116.219h-2.514h-4.106h-6.317
				l2.518,1.772c-1.846,1.2-3.28,2.916-4.091,4.956c-1.166,2.931-0.937,6.258,0.626,9.127c1.779,3.279,5.518,5.485,9.302,5.485
				c0.71,0,1.412-0.078,2.086-0.231c4.828-1.095,8.341-5.166,8.543-9.898c0.2-4.393-2.334-8.445-6.274-10.234L66.189,116.219
				L66.189,116.219z"/>
		</g>
	</g>
	<g>
		<path fill-rule="evenodd" clip-rule="evenodd" fill="#163F2A" d="M28.328,174.819c-3.785,0-7.524-2.206-9.304-5.489
			c-1.562-2.866-1.791-6.192-0.625-9.123c0.811-2.039,2.244-3.755,4.088-4.955l-2.526-1.774H32.91l-0.225,0.972
			c3.916,1.759,6.473,5.827,6.272,10.244c-0.201,4.728-3.715,8.798-8.543,9.894C29.74,174.741,29.038,174.819,28.328,174.819z"/>
		<path fill="#FFFFFF" d="M30.394,155.478c-0.116,0.505,0.35,0.371,0.554,0.446c3.726,1.21,6.189,4.74,6.01,8.68
			c-0.164,3.852-3.018,7.133-6.988,8.033c-0.539,0.122-1.09,0.181-1.643,0.181c-3.005,0-6.077-1.733-7.546-4.442
			c-2.685-4.927-0.366-10.748,4.984-12.49c0.222-0.072,0.491-0.055,0.629-0.283c0.006-0.013-0.019-0.05-0.037-0.067
			c-0.023-0.02-0.046-0.042-0.068-0.059C27.657,155.478,29.023,155.478,30.394,155.478 M35.422,151.478h-5.027h-4.106H13.759
			l5.458,3.881c-1.148,1.173-2.062,2.562-2.677,4.108c-1.386,3.485-1.12,7.43,0.729,10.823c2.149,3.963,6.491,6.528,11.058,6.528
			c0.859,0,1.71-0.094,2.529-0.281c5.705-1.294,9.858-6.131,10.099-11.763c0.211-4.642-2.154-8.966-5.981-11.355L35.422,151.478
			L35.422,151.478z"/>
	</g>
	<g>
		<path fill-rule="evenodd" clip-rule="evenodd" fill="#163F2A" d="M15.896,250.414v-36.567c0,1.835-1.523,3.142-3.311,3.495
			c-0.37,0.074-0.63,0.111-0.99,0.111c-1.656,0-3.065-0.783-3.979-2.164l-0.72,0.359v-33.668l0.615,0.3
			c1.806-5.434,6.17-8.559,12.031-8.566c5.743,0,11.494,0,17.246,0.007c5.979,0.01,10.57,3.217,12.374,8.827l0.733-0.209v35.055
			l-1.251-1.632c-0.894,1.089-2.293,1.733-3.69,1.733c-0.217,0-0.677-0.015-0.897-0.046c-1.964-0.274-3.161-1.426-4.161-3.189
			v36.154H15.896z"/>
		<path fill="#FFFFFF" d="M19.557,174.713c5.742,0,11.486,0,17.237,0.006c5.749,0.01,9.854,3.136,11.413,8.694
			c0.039,0.125,0.135,0.407,0.347,0.407c0.042,0,0.341-0.011,0.341-0.037c0,10.095,0,20.188,0,30.274
			c0-0.021-0.211-0.049-0.23-0.072c-0.017-0.005-0.155-0.02-0.155-0.02c-0.099,0.184-0.255,0.352-0.349,0.532
			c-0.672,1.247-1.928,1.995-3.273,1.995c-0.171,0-0.354-0.012-0.527-0.037c-1.692-0.236-2.939-1.255-3.287-2.885
			c-0.098-0.515-0.178-1.058-0.178-1.594c0-7.12,0-14.235,0-21.353c0-0.624,0-1.25,0-1.867c0-0.231,0.095-0.44-0.258-0.518
			c-0.247-0.053-0.615-0.082-0.789-0.082c-0.594,0-0.954,0.335-0.954,1.174c0,20.176,0,40.081,0,60.081h-9.771
			c0.026-9,0.019-18.696,0.019-28.161c0-1.537,0.008-2.971-0.012-4.513c0-0.21,0.112-0.43-0.156-0.579
			c-0.174-0.094-0.602-0.109-0.777-0.109c-0.56,0-1.302,0.467-1.302,1.086c0,9.909,0,19.815,0,29.72c0,1,0.492,1.556,0.493,2.556
			H16.896c0-20,0-39.813,0-59.936c0-0.267,0.22-0.536,0.205-0.803c0-0.145,0.125-0.357-0.035-0.38
			c-0.296-0.022-0.547-0.059-0.846-0.059c-0.175,0-0.319,0.013-0.485,0.048c-0.432,0.088-0.213,0.549-0.213,0.844
			c-0.012,7.527,0,15.059-0.005,22.589c0,0.41-0.011,0.83-0.045,1.244c-0.179,1.809-1.246,3.08-2.862,3.4
			c-0.31,0.062-0.612,0.092-0.906,0.092c-1.435,0-2.649-0.723-3.369-2.043c-0.063-0.114-0.041-0.402-0.236-0.402
			c-0.045,0-0.203,0.015-0.203,0.051c0-10.155,0-20.298,0-30.447c0,0.013,0.067,0.037,0.098,0.057
			c0.014,0.007,0.063,0.026,0.067,0.026c0,0,0.007,0,0.007,0c0.076-0.163,0.168-0.314,0.222-0.477
			C9.851,177.802,13.925,174.72,19.557,174.713 M19.557,172.414h-0.001h-0.001c-5.918,0-10.434,3.11-12.592,8.327l-1.067-0.373
			v3.244v30.447v3.181l1.477-0.697c1.089,1.227,2.614,1.911,4.319,1.911c0.426,0,0.648-0.044,1.083-0.13
			c0.887-0.175,2.121-0.54,2.121-1.059v32.595v1.556h2.441h10.052h2.002h9.9h1.605v-1.556v-32.524c1,0.575,1.912,0.955,2.98,1.104
			c0.26,0.037,0.626,0.056,0.891,0.056c1.25,0,2.669-0.422,3.642-1.168l2.487,3.481v-6.75v-30.274v-2.891l-1.129,0.359
			c-2.127-5.437-6.795-8.671-12.881-8.682C31.133,172.563,25.3,172.414,19.557,172.414L19.557,172.414z"/>
	</g>
	<g>
		<g>
			<path fill-rule="evenodd" clip-rule="evenodd" fill="#163F2A" d="M195.15,223.734h-4.314l0.145-0.575
				c-1.918-0.915-3.054-2.407-3.346-4.371c-0.293,1.56-1.058,3.162-2.957,4.183l0.571,0.722l-2.032,0.041h-4.939l0.425-0.734
				c-1.932-1.037-2.958-2.82-3.061-5.314c-0.011-0.339-0.011-0.678-0.011-1.021v-39.67c-0.556,1.773-1.959,2.921-3.921,3.195
				c-0.218,0.031-0.438,0.046-0.654,0.046c-1.4,0-2.714-0.647-3.604-1.733l-1.092,1.657l0.019-3.36v-31.72l0.553,0.208
				c1.791-5.599,6.208-8.816,12.195-8.827c5.752-0.006,11.497-0.006,17.239-0.006c5.852,0.007,10.198,3.12,12.021,8.573l0.587-0.293
				v33.656l-0.749-0.36c-0.913,1.38-2.351,2.164-4.008,2.164c-0.36,0-0.73-0.037-1.101-0.111c-1.789-0.354-3.089-1.661-3.53-3.489
				v40.299c0,1.243-0.048,2.457-0.632,3.645c-0.527,1.073-1.336,1.896-2.459,2.493l0.433,0.71L195.15,223.734z"/>
			<path fill="#FFFFFF" d="M196.365,137.454c5.633,0.006,9.703,3.089,11.263,8.504c0.055,0.163,0.143,0.314,0.219,0.477
				c0,0,0,0,0.001,0c0.005,0,0.04-0.019,0.054-0.026c0.031-0.02,0.046-0.044,0.072-0.057c0,10.148,0,20.292,0,30.447
				c-0.074-0.036-0.132-0.051-0.176-0.051c-0.195,0-0.147,0.289-0.209,0.402c-0.721,1.319-1.935,2.043-3.37,2.043
				c-0.294,0-0.597-0.03-0.907-0.092c-1.616-0.319-2.684-1.591-2.863-3.4c-0.035-0.414-0.049-0.834-0.049-1.244
				c-0.006-7.53,0-15.062-0.012-22.589c0-0.295,0.204-0.756-0.227-0.843c-0.166-0.036-0.339-0.048-0.513-0.048
				c-0.299,0-0.605,0.037-0.901,0.059c-0.16,0.023-0.145,0.235-0.145,0.38c-0.015,0.267-0.015,0.536-0.015,0.803
				c0,21.554,0,43.115,0,64.674c0,1.094-0.029,2.185-0.529,3.204c-0.615,1.252-1.654,1.981-2.916,2.442
				c-0.021,0.018-0.063,0.055-0.063,0.063c0.02,0.047,0.046,0.09,0.072,0.132c-1.006,0-2.014,0-3.031,0
				c0.098-0.388-0.251-0.283-0.415-0.345c-2.003-0.837-3.1-2.351-3.143-4.521c-0.044-2.76-0.018-5.515-0.028-8.269
				c0-9.906,0-19.812,0-29.72c0-0.619-0.496-1.058-1.055-1.058c-0.175,0-0.356,0.043-0.53,0.137
				c-0.268,0.15-0.156,0.425-0.156,0.635c-0.02,1.542-0.012,3.087-0.012,4.624c0,10.832-0.017,21.655,0.026,32.48
				c0.006,2.724-0.757,4.836-3.536,5.803c-0.047,0.021-0.11,0.065-0.127,0.116c-0.004,0.024,0.042,0.078,0.077,0.12
				c-1.06,0-2.129,0-3.204,0c0.179-0.309-0.117-0.288-0.262-0.345c-2.132-0.87-3.019-2.55-3.109-4.745
				c-0.01-0.319-0.01-0.648-0.01-0.98c0-21.527,0-43.06,0-64.591c0-0.84-0.2-1.174-0.794-1.174c-0.174,0-0.382,0.029-0.629,0.082
				c-0.352,0.078-0.332,0.287-0.332,0.518c0,0.617,0,1.244,0,1.868c0,7.118,0,14.233,0,21.353c0,0.536,0,1.08-0.099,1.594
				c-0.348,1.63-1.515,2.649-3.207,2.885c-0.173,0.025-0.346,0.037-0.516,0.037c-1.346,0-2.579-0.748-3.251-1.995
				c-0.094-0.181-0.206-0.348-0.305-0.532c0,0-0.05,0.015-0.067,0.02c-0.02,0.023-0.041,0.051-0.055,0.072
				c0-10.086,0-20.179,0-30.274c0.069,0.026,0.123,0.037,0.165,0.037c0.212,0,0.132-0.282,0.171-0.407
				c1.559-5.559,5.664-8.685,11.413-8.694C184.88,137.454,190.624,137.454,196.365,137.454 M196.368,135.454h-0.001h-0.001
				c-5.743,0-11.487,0-17.24,0.006c-6.087,0.01-10.668,3.094-12.794,8.531l-0.953-0.359v2.892v30.274v6.714l2.257-3.452
				c0.976,0.751,2.17,1.174,3.421,1.174c0.265,0,0.533-0.019,0.797-0.056c1.067-0.149,2.008-0.529,2.779-1.101v36.586
				c0,0.354,0,0.706,0.012,1.046c0.118,2.876,1.336,4.592,2.716,5.617l-0.814,1.407h3.468h3.204h4.197l-1.25-1.541
				c0.624-0.488,1.1-1.039,1.464-1.613c0.539,0.832,1.274,1.537,2.19,2.092l-0.268,1.062h2.567h3.031h3.575l-0.855-1.392
				c0.856-0.631,1.52-1.421,1.983-2.364c0.734-1.494,0.734-3.053,0.734-4.086v-36.89c0.66,0.521,1.449,0.886,2.337,1.061
				c0.432,0.086,0.869,0.13,1.294,0.13c1.704,0,3.215-0.683,4.305-1.911l1.451,0.697v-3.18v-30.447v-3.243l-1.04,0.523
				C206.776,138.414,202.286,135.461,196.368,135.454L196.368,135.454z"/>
		</g>
		<g>
			<path fill-rule="evenodd" clip-rule="evenodd" fill="#163F2A" d="M187.595,136.559c-0.636,0-1.263-0.069-1.865-0.206
				c-4.389-0.995-7.583-4.682-7.765-8.966c-0.194-4.257,2.443-8.16,6.44-9.585l-0.135-0.583h8.528l-1.25,0.878
				c2.32,1.053,4.126,2.908,5.046,5.219c1.055,2.654,0.846,5.672-0.576,8.279C194.409,134.563,191.024,136.559,187.595,136.559
				C187.595,136.559,187.596,136.559,187.595,136.559z"/>
			<path fill="#FFFFFF" d="M189.635,118.219c-0.023,0.016-0.046,0.039-0.068,0.058c-0.018,0.016-0.043,0.054-0.037,0.067
				c0.138,0.228,0.406,0.212,0.629,0.283c5.349,1.742,7.669,7.563,4.984,12.49c-1.469,2.709-4.541,4.442-7.546,4.442
				c-0.553,0-1.105-0.059-1.643-0.181c-3.97-0.9-6.824-4.181-6.988-8.033c-0.179-3.94,2.284-7.47,6.01-8.68
				c0.204-0.075,0.671,0.059,0.554-0.446C186.9,118.219,188.266,118.219,189.635,118.219 M195.938,116.219h-6.303h-4.106h-2.514
				l0.225,0.977c-3.94,1.789-6.474,5.842-6.274,10.24c0.202,4.727,3.715,8.798,8.544,9.893c0.674,0.153,1.376,0.231,2.086,0.231
				c3.785,0,7.524-2.206,9.304-5.488c1.562-2.866,1.79-6.193,0.625-9.124c-0.812-2.041-2.247-3.759-4.094-4.958L195.938,116.219
				L195.938,116.219z"/>
		</g>
	</g>
	<g>
		<path fill-rule="evenodd" clip-rule="evenodd" fill="#163F2A" d="M220.875,174.819c-0.71,0-1.412-0.078-2.086-0.231
			c-4.828-1.095-8.341-5.166-8.543-9.898c-0.199-4.393,2.335-8.445,6.275-10.234l-0.225-0.977h12.947l-2.526,1.774
			c1.845,1.199,3.277,2.915,4.088,4.953c1.166,2.931,0.938,6.258-0.626,9.127C228.399,172.613,224.66,174.819,220.875,174.819
			L220.875,174.819z"/>
		<path fill="#FFFFFF" d="M222.915,155.478c-0.023,0.016-0.046,0.039-0.068,0.059c-0.018,0.016-0.043,0.054-0.038,0.067
			c0.138,0.228,0.406,0.212,0.629,0.283c5.349,1.742,7.669,7.563,4.984,12.49c-1.469,2.709-4.54,4.442-7.546,4.442
			c-0.553,0-1.105-0.059-1.643-0.181c-3.97-0.9-6.824-4.181-6.988-8.033c-0.179-3.94,2.284-7.47,6.01-8.68
			c0.204-0.075,0.671,0.059,0.554-0.446C220.181,155.478,221.547,155.478,222.915,155.478 M235.444,151.478h-12.529h-4.106h-5.027
			l0.448,1.941c-3.827,2.389-6.192,6.715-5.981,11.366c0.24,5.621,4.393,10.458,10.099,11.753c0.818,0.186,1.669,0.28,2.528,0.28
			c4.567,0,8.909-2.565,11.062-6.535c1.845-3.386,2.111-7.331,0.725-10.817c-0.615-1.547-1.529-2.936-2.676-4.109L235.444,151.478
			L235.444,151.478z"/>
	</g>
	<g>
		<path fill-rule="evenodd" clip-rule="evenodd" fill="#163F2A" d="M208.896,250.414v-36.16c-1,1.773-1.951,2.921-3.913,3.195
			c-0.218,0.031-0.433,0.046-0.65,0.046c-1.392,0-2.698-0.64-3.588-1.716l-0.996,1.753l0.147-3.474v-31.72l0.435,0.208
			c1.79-5.599,6.147-8.817,12.136-8.827c5.752-0.007,11.467-0.007,17.209-0.007c5.85,0.007,10,3.118,11.825,8.566l0.396-0.3v33.668
			l-0.569-0.359c-0.913,1.38-2.261,2.164-3.918,2.164c-0.36,0-0.671-0.037-1.042-0.111c-1.789-0.354-3.471-1.661-3.471-3.489v36.562
			H208.896z"/>
		<path fill="#FFFFFF" d="M229.646,174.713c5.633,0.006,9.703,3.089,11.263,8.504c0.055,0.163,0.143,0.314,0.219,0.477
			c0,0,0,0,0.001,0c0.005,0-0.139-0.019-0.125-0.026c0.031-0.02-0.107-0.044-0.107-0.057c0,10.148,0,20.292,0,30.447
			c0-0.036,0.047-0.051,0.003-0.051c-0.195,0-0.057,0.289-0.12,0.402c-0.72,1.319-1.89,2.043-3.325,2.043
			c-0.294,0-0.574-0.03-0.884-0.092c-1.616-0.319-2.673-1.591-2.852-3.4c-0.035-0.414-0.043-0.834-0.043-1.244
			c-0.006-7.53,0.003-15.062-0.009-22.589c0-0.295,0.206-0.756-0.226-0.844c-0.166-0.035-0.337-0.048-0.512-0.048
			c-0.299,0-0.605,0.037-0.901,0.059c-0.16,0.023-0.13,0.235-0.13,0.38c-0.015,0.267,0,0.536,0,0.803c0,20.123,0,39.936,0,59.936
			h-10.081c0.001-1,0.081-1.556,0.081-2.556c0-9.906,0-19.812,0-29.72c0-0.619-0.537-1.058-1.097-1.058
			c-0.175,0-0.377,0.043-0.551,0.137c-0.268,0.15-0.166,0.425-0.166,0.635c-0.021,1.542-0.018,2.865-0.018,4.402
			c0,9.466-0.012,19.161,0.014,28.161h-10.182c0-20,0-39.905,0-60.081c0-0.84-0.191-1.174-0.785-1.174
			c-0.174,0-0.509,0.029-0.756,0.082c-0.352,0.078-0.459,0.286-0.459,0.518c0,0.617,0,1.244,0,1.867c0,7.118,0,14.233,0,21.353
			c0,0.536,0.131,1.079,0.033,1.594c-0.348,1.63-1.449,2.649-3.141,2.885c-0.173,0.025-0.313,0.037-0.483,0.037
			c-1.346,0-2.563-0.748-3.235-1.995c-0.094-0.181-0.198-0.348-0.297-0.532c0,0,0.073,0.015,0.056,0.02
			c-0.019,0.023,0.068,0.051,0.068,0.072c0-10.087,0-20.179,0-30.274c0,0.026,0.005,0.037,0.047,0.037
			c0.212,0,0.073-0.282,0.112-0.407c1.559-5.559,5.634-8.685,11.383-8.694C218.19,174.713,223.904,174.713,229.646,174.713
			 M229.648,172.414h-0.001h-0.001c-5.742,0-11.487,0.15-17.24,0.156c-6.087,0.01-10.549,3.17-12.676,8.607l-0.835-0.284v2.891
			v30.274v6.75l2.144-3.483c0.975,0.749,2.107,1.17,3.356,1.17c0.265,0,0.495-0.019,0.759-0.056
			c1.067-0.149,1.741-0.529,2.741-1.101v32.52v1.556h2.017h10.165h2.005h9.783h2.029v-1.556v-32.597
			c1,0.521,1.435,0.886,2.323,1.061c0.432,0.086,0.861,0.13,1.287,0.13c1.704,0,3.032-0.682,4.122-1.911l1.268,0.698v-3.181v-30.447
			v-3.247l-0.862,0.375C239.876,175.523,235.565,172.414,229.648,172.414L229.648,172.414z"/>
	</g>
	<g>
		<path fill-rule="evenodd" clip-rule="evenodd" fill="#FFFFFF" d="M153.38,127.795H96.074c-3.574,0-6.499-2.925-6.499-6.499V41.57
			c0-3.574,2.925-6.499,6.499-6.499h57.306c3.574,0,6.499,2.925,6.499,6.499v79.726C159.879,124.871,156.954,127.795,153.38,127.795
			z"/>
		<path fill="#163F2A" d="M153.38,130.286H96.074c-4.957,0-8.99-4.033-8.99-8.99V41.57c0-4.957,4.033-8.99,8.99-8.99h57.306
			c4.957,0,8.99,4.033,8.99,8.99v79.726C162.37,126.253,158.337,130.286,153.38,130.286z M96.074,37.562
			c-2.21,0-4.008,1.798-4.008,4.008v79.726c0,2.21,1.798,4.007,4.008,4.007h57.306c2.21,0,4.008-1.797,4.008-4.007V41.57
			c0-2.21-1.798-4.008-4.008-4.008H96.074z"/>
	</g>
	<g>
		<path fill="#163F2A" d="M162.414,140.009H86.616c-4.818,0-8.737-3.92-8.737-8.738V32.224c0-4.818,3.919-8.738,8.737-8.738h75.798
			c4.818,0,8.737,3.92,8.737,8.738v99.046C171.151,136.089,167.231,140.009,162.414,140.009z M86.616,27.915
			c-2.376,0-4.309,1.933-4.309,4.309v99.046c0,2.376,1.933,4.309,4.309,4.309h75.798c2.376,0,4.309-1.933,4.309-4.309V32.224
			c0-2.376-1.933-4.309-4.309-4.309H86.616z"/>
	</g>
	<g>
		<path fill="#163F2A" d="M61.395,86.591h-31.52c-4.664,0-8.458-3.794-8.458-8.458V32.498c0-4.664,3.794-8.458,8.458-8.458h31.52
			c4.664,0,8.458,3.794,8.458,8.458v45.636C69.852,82.798,66.058,86.591,61.395,86.591z M29.874,28.469
			c-2.222,0-4.029,1.807-4.029,4.029v45.636c0,2.222,1.807,4.029,4.029,4.029h31.52c2.222,0,4.029-1.807,4.029-4.029V32.498
			c0-2.222-1.807-4.029-4.029-4.029H29.874z"/>
	</g>
	<g>
		<path fill="#163F2A" d="M219.709,86.591h-31.52c-4.664,0-8.458-3.794-8.458-8.458V32.498c0-4.664,3.794-8.458,8.458-8.458h31.52
			c4.664,0,8.458,3.794,8.458,8.458v45.636C228.166,82.798,224.372,86.591,219.709,86.591z M188.188,28.469
			c-2.222,0-4.029,1.807-4.029,4.029v45.636c0,2.222,1.807,4.029,4.029,4.029h31.52c2.222,0,4.029-1.807,4.029-4.029V32.498
			c0-2.222-1.807-4.029-4.029-4.029H188.188z"/>
	</g>
	<g>
		<rect x="98.896" y="34.414" fill="#163F2A" width="4" height="94"/>
	</g>
	<g>
		<rect x="146.896" y="34.414" fill="#163F2A" width="5" height="94"/>
	</g>
</g>
</svg>
