<svg xmlns="http://www.w3.org/2000/svg" viewBox="0 0 250 250"><path fill="#163F2A" d="M256.127 203.01h-139.95a6.898 6.898 0 0 1-6.891-6.891v-1.62a6.862 6.862 0 0 1 6.854-6.854l.162.006c.008.001.947.065 2.287.065 6.28 0 8.474-1.294 8.524-1.74.402-3.617.991-15.485 1.011-16.194-.001-6.137.657-11.956.77-12.917a7.053 7.053 0 0 1 7.043-6.893h120.96v46.12h-.769v6.918zm-140.049-10.763a2.256 2.256 0 0 0-2.191 2.252v1.62a2.292 2.292 0 0 0 2.29 2.29h135.35v-6.92h.769v-36.918h-116.36a2.447 2.447 0 0 0-2.444 2.444l-.017.28c-.007.061-.751 6.201-.751 12.532 0 .406-.61 12.797-1.039 16.656-.43 3.871-4.837 5.833-13.097 5.833-1.266 0-2.21-.051-2.51-.069zM-4.104 212.414h258v5h-258zM87.407 205.635H34.425c-4.463 0-8.093-3.63-8.093-8.093V87.498c0-4.463 3.63-8.093 8.093-8.093h52.982c4.463 0 8.093 3.63 8.093 8.093v110.044c0 4.462-3.631 8.093-8.093 8.093zM34.425 84.005a3.495 3.495 0 0 0-3.492 3.492v110.044a3.495 3.495 0 0 0 3.492 3.492h52.982a3.495 3.495 0 0 0 3.492-3.492V87.498a3.495 3.495 0 0 0-3.492-3.492H34.425zM-4.104 43.414h258v5h-258z"/><path fill-rule="evenodd" clip-rule="evenodd" fill="#163F2A" d="M149.896 195.414v-4.542c-1 1.978-2.121 3.261-4.24 3.557a5.692 5.692 0 0 1-.735.048h-.031a4.844 4.844 0 0 1-3.754-1.817l-1.192 1.726-.048-3.44v-32.899l.633.212c1.846-5.824 6.464-9.171 12.68-9.182 5.977-.006 11.962-.006 17.928-.006 6.074.007 10.432 3.245 12.313 8.916l.447-.304v34.851l-.593-.36c-.94 1.441-2.351 2.259-4.07 2.259-.372 0-.497-.039-.88-.114-1.961-.387-3.457-1.889-3.457-3.965v5.061h-25.001z"/><path fill="#FFF" d="M171.154 150.071c5.852.007 10.08 3.209 11.701 8.834.057.169.149.327.227.496.003 1.113.008 1.485.015 1.485.013 0-.127-1.506-.117-1.512.032-.02-.084-.046-.084-.059v31.631c0-.037.022-.053-.024-.053-.203 0-.073.3-.138.418-.749 1.371-1.97 2.122-3.461 2.122-.305 0-.6-.031-.922-.096-1.679-.332-2.779-1.653-2.964-3.532-.036-.43-.046-.866-.046-1.292-.006-7.823.002-15.648-.01-23.468 0-.306.214-.785-.235-.876a2.54 2.54 0 0 0-.532-.05c-.31 0-.629.038-.936.062-.166.024.067.244.067.394-.015.277.202.557.202.834v29.005h-11v-.27c0-.643-.454-1.099-1.036-1.099-.182 0-.34.045-.521.142-.278.156-.147.456-.147.675-.002.179.013.552.012.552h-10.308v-29.155c0-.873-.329-1.22-.946-1.22-.181 0-.425.03-.681.085-.366.081-.373.298-.373.538V188.786c0 .557-.033 1.121-.135 1.656-.361 1.693-1.59 2.752-3.348 2.997-.18.026-.367.038-.544.038-1.398 0-2.684-.777-3.382-2.073-.098-.188-.216-.362-.319-.553 0 0-.124.015-.142.02-.02.024-.13.052-.13.074v-31.452c0 .027.2.039.244.039.22 0 .173-.293.214-.423 1.619-5.775 5.902-9.022 11.874-9.032 5.975-.006 11.96-.006 17.925-.006m.003-1.657h-.002c-5.966 0-11.934-.171-17.91-.165-6.316.011-11.134 3.139-13.319 8.8l-1.029-.446V197.67l2.321-3.447a5.843 5.843 0 0 0 3.607 1.254c.271 0 .685-.019.956-.058 1.153-.161 2.115-.585 3.115-1.224v2.219H175.896V194.109c0 .589 1.336.999 2.304 1.19.444.088.784.133 1.221.133 1.767 0 3.119-.716 4.24-2.004l1.236.696V156.071l-.885.696c-2.217-5.438-6.713-8.353-12.855-8.353z"/><path fill-rule="evenodd" clip-rule="evenodd" fill="#163F2A" d="M162.042 149.102a8.723 8.723 0 0 1-1.928-.213c-4.543-1.03-7.848-4.846-8.038-9.278a10.073 10.073 0 0 1 6.698-9.931l-.137-.592h8.719l-1.275.885c2.426 1.086 4.316 3.016 5.274 5.425 1.092 2.746.875 5.869-.596 8.568-1.665 3.071-5.169 5.136-8.717 5.136z"/><path fill="#FFF" d="M164.162 130.087c-.024.017-.047.041-.071.061-.019.017-.045.056-.039.069.143.237.422.22.653.294 5.557 1.81 7.967 7.857 5.178 12.975-1.526 2.814-4.717 4.615-7.839 4.615a7.705 7.705 0 0 1-1.707-.188c-4.124-.935-7.089-4.344-7.26-8.346a9.028 9.028 0 0 1 6.244-9.017c.212-.078.697.061.576-.463h4.265m6.273-2h-13.052l.226.982c-4.098 1.833-6.738 6.031-6.531 10.59.208 4.876 3.833 9.075 8.815 10.205a9.704 9.704 0 0 0 2.15.238c3.904 0 7.761-2.275 9.597-5.661 1.612-2.957 1.847-6.389.645-9.413-.853-2.144-2.372-3.942-4.328-5.182l2.478-1.759z"/><path fill-rule="evenodd" clip-rule="evenodd" fill="#163F2A" stroke="#FFF" stroke-width="2" stroke-miterlimit="10" d="M151.22 185.352l-16.391 4.888s-3.163 2.013-3.163 6.326.288 20.416.288 20.416.575 4.313 4.888 4.313c2.876 0 5.751-1.15 6.039-4.601.288-3.451 0-17.253 0-17.253l10.633-4.404"/><path fill-rule="evenodd" clip-rule="evenodd" fill="#163F2A" stroke="#FFF" stroke-width="2" stroke-linecap="round" stroke-linejoin="round" stroke-miterlimit="10" d="M158.128 190.592l-7.476 2.341s-3.163.438-3.163 4.751.288 20.416.288 20.416.575 4.313 4.888 4.313c2.876 0 5.751-1.15 6.039-4.601.288-3.451 0-17.253 0-17.253l14.665-5.463"/><path fill-rule="evenodd" clip-rule="evenodd" fill="#163F2A" d="M206.896 195.414v-4.542c-1 1.978-2.153 3.261-4.272 3.557a5.944 5.944 0 0 1-.752.048h-.039a4.851 4.851 0 0 1-3.771-1.833l-1.133 1.626-.034-3.325v-32.898l.6.211c1.848-5.824 6.449-9.171 12.664-9.182 5.977-.006 11.954-.006 17.92-.006 6.074.007 10.46 3.246 12.341 8.916l.475-.304v34.852l-.625-.361c-.94 1.441-2.367 2.259-4.087 2.259-.372 0-.973-.039-1.356-.114-1.96-.387-2.932-1.888-3.932-3.965v5.061h-23.999z"/><path fill="#FFF" d="M228.09 150.071c5.852.007 10.08 3.209 11.701 8.834.057.169.149.327.227.496.003 1.113.008 1.485.015 1.485.013 0-.095-1.506-.085-1.512.032-.02-.052-.046-.052-.059v31.631c0-.037-.01-.053-.057-.053-.203 0-.089.3-.154.418-.749 1.371-1.978 2.122-3.469 2.122-.305 0-.604-.031-.926-.096-1.679-.332-2.781-1.653-2.966-3.532-.037-.43-.047-.866-.047-1.292-.006-7.823.002-15.648-.011-23.468 0-.306.213-.785-.235-.876a2.54 2.54 0 0 0-.532-.05c-.31 0-.629.038-.936.062-.166.024-.401.244-.401.394-.015.277-.265.557-.265.834v29.005h-10v-.27c0-.643-.487-1.099-1.068-1.099a1.11 1.11 0 0 0-.537.142c-.278.156-.156.456-.156.675-.002.179.005.552.004.552h-10.244v-29.155c0-.873-.361-1.22-.978-1.22-.181 0-.409.03-.665.085-.366.081-.357.298-.357.538V188.786c0 .557-.065 1.121-.167 1.656-.361 1.693-1.606 2.752-3.364 2.997a3.97 3.97 0 0 1-.552.038c-1.398 0-2.688-.777-3.386-2.073-.098-.188-.218-.362-.321-.553 0 0-.093.015-.111.02-.02.024-.098.052-.098.074v-31.452c0 .027.167.039.211.039.22 0 .157-.293.198-.423 1.62-5.775 5.894-9.022 11.866-9.032 5.975-.006 11.953-.006 17.918-.006m.002-1.657h-.002c-5.966 0-11.934-.171-17.91-.165-6.316.011-11.102 3.139-13.287 8.8l-.996-.446V197.67l2.289-3.447a5.8 5.8 0 0 0 3.591 1.255c.271 0 .71-.019.98-.058 1.153-.161 2.139-.585 3.139-1.224v2.219H231.896V194.11c1 .589 1.804.999 2.772 1.19a8.187 8.187 0 0 0 1.455.133c1.767 0 3.268-.716 4.389-2.004l1.385.696V156.072l-.917.696c-2.218-5.439-6.745-8.354-12.888-8.354z"/><path fill-rule="evenodd" clip-rule="evenodd" fill="#163F2A" d="M218.978 149.102a8.723 8.723 0 0 1-1.928-.213c-4.544-1.031-7.849-4.846-8.038-9.278a10.073 10.073 0 0 1 6.698-9.931l-.137-.592h8.719l-1.275.885c2.426 1.086 4.316 3.017 5.274 5.426 1.092 2.746.875 5.869-.596 8.568-1.665 3.07-5.169 5.135-8.717 5.135z"/><path fill="#FFF" d="M221.097 130.087c-.024.017-.047.041-.071.061-.019.017-.045.056-.039.069.143.237.422.22.653.294 5.557 1.81 7.967 7.857 5.178 12.975-1.526 2.814-4.717 4.615-7.839 4.615a7.705 7.705 0 0 1-1.707-.188c-4.124-.935-7.089-4.344-7.26-8.346a9.028 9.028 0 0 1 6.244-9.017c.212-.078.697.061.576-.463h4.265m6.273-2H214.317l.226.982c-4.098 1.833-6.738 6.031-6.531 10.59.208 4.876 3.833 9.075 8.815 10.205a9.704 9.704 0 0 0 2.15.238c3.904 0 7.761-2.275 9.597-5.661 1.612-2.957 1.847-6.389.645-9.413-.853-2.144-2.372-3.942-4.328-5.182l2.479-1.759z"/><path fill-rule="evenodd" clip-rule="evenodd" fill="#163F2A" stroke="#FFF" stroke-width="2" stroke-miterlimit="10" d="M208.155 185.352l-16.391 4.888s-3.163 2.013-3.163 6.326.288 20.416.288 20.416.575 4.313 4.888 4.313c2.876 0 5.751-1.15 6.039-4.601.288-3.451 0-17.253 0-17.253l10.633-4.404"/><path fill-rule="evenodd" clip-rule="evenodd" fill="#163F2A" stroke="#FFF" stroke-width="2" stroke-linecap="round" stroke-linejoin="round" stroke-miterlimit="10" d="M215.064 190.592l-7.476 2.341s-3.163.438-3.163 4.751.288 20.416.288 20.416.575 4.313 4.888 4.313c2.876 0 5.751-1.15 6.039-4.601.288-3.451 0-17.253 0-17.253l14.665-5.463"/><path fill-rule="evenodd" clip-rule="evenodd" fill="#163F2A" d="M37.042 221.264H32.61l.146-.58c-2.08-.982-3.275-2.618-3.516-4.78-.27 1.701-1.045 3.488-3.14 4.595l.565.721-2.02.043h-5.063l.428-.739c-2.018-1.068-3.088-2.917-3.195-5.507-.012-.351-.012-.704-.012-1.059v-41.491c-.512 1.978-1.999 3.262-4.118 3.558a4.799 4.799 0 0 1-.675.048c-1.462 0-2.834-.685-3.752-1.833l-1.083 1.625.015-3.322v-32.898l.561.211c1.848-5.824 6.429-9.171 12.644-9.182 5.977-.006 11.944-.006 17.91-.006 6.074.006 10.581 3.246 12.463 8.916l.596-.304v34.852l-.752-.361c-.938 1.44-2.43 2.259-4.15 2.259-.372 0-.754-.038-1.137-.114-1.96-.388-3.352-1.889-3.713-3.966v42.246c0 1.287-.05 2.544-.652 3.77-.548 1.116-1.393 1.97-2.566 2.588l.452.727-1.804-.017z"/><path fill="#FFF" d="M38.305 131.667c5.852.007 10.08 3.209 11.701 8.834.057.169.149.327.227.496h.001c.005 0 .042-.02.056-.027.032-.02.047-.046.075-.059v31.631a.444.444 0 0 0-.183-.053c-.203 0-.152.3-.218.418-.749 1.371-2.01 2.122-3.501 2.122-.305 0-.62-.031-.942-.095-1.679-.332-2.789-1.653-2.974-3.532-.036-.43-.051-.866-.051-1.292-.006-7.823 0-15.648-.013-23.468 0-.306.212-.785-.236-.876a2.542 2.542 0 0 0-.533-.05c-.311 0-.629.038-.936.062-.166.024-.151.244-.151.394-.015.277-.015.557-.015.834v67.189c0 1.137-.03 2.27-.55 3.329-.638 1.301-1.718 2.059-3.029 2.537a.321.321 0 0 0-.065.066c.02.049.047.093.074.137h-3.149c.102-.403-.26-.294-.431-.359-2.081-.869-3.221-2.442-3.266-4.697-.046-2.867-.019-5.729-.029-8.591v-30.876c0-.643-.515-1.1-1.096-1.1-.182 0-.37.045-.551.142-.278.156-.162.442-.162.66-.021 1.602-.013 3.207-.013 4.804 0 11.254-.018 22.497.027 33.744.007 2.83-.786 5.024-3.674 6.028-.049.022-.114.068-.132.12-.004.025.044.081.08.125h-3.329c.186-.322-.122-.299-.272-.359-2.215-.903-3.136-2.649-3.23-4.929-.011-.332-.011-.673-.011-1.018v-67.103c0-.873-.207-1.22-.825-1.22-.181 0-.397.03-.653.085-.366.081-.345.298-.345.538V170.382c0 .557 0 1.121-.102 1.656-.361 1.693-1.574 2.752-3.331 2.997-.18.026-.359.038-.536.038-1.398 0-2.68-.777-3.378-2.073-.098-.188-.214-.362-.317-.553l-.069.02a1.06 1.06 0 0 0-.057.074v-31.452a.508.508 0 0 0 .172.039c.22 0 .137-.293.178-.423 1.62-5.775 5.884-9.022 11.856-9.032 5.975-.006 11.943-.006 17.908-.006m.002-2h-.002c-5.966 0-11.934 0-17.91.007-6.316.011-11.062 3.224-13.247 8.886l-.958-.36V179.24l2.245-3.423a5.744 5.744 0 0 0 4.393 1.2c1.153-.161 2.162-.585 2.976-1.224v38.167c0 .367 0 .731.012 1.084.123 2.995 1.406 4.768 2.846 5.817l-.813 1.405H28.84l-1.244-1.536a6.542 6.542 0 0 0 1.632-1.812c.568.916 1.364 1.687 2.366 2.285l-.268 1.063h9.289l-.852-1.389a6.59 6.59 0 0 0 2.094-2.47c.754-1.536.754-3.145.754-4.21v-38.49a5.558 5.558 0 0 0 2.521 1.19c.444.088.892.133 1.329.133 1.767 0 3.332-.716 4.453-2.004l1.449.696v-38.05l-1.042.522c-2.215-5.438-6.87-8.52-13.014-8.527z"/><path fill-rule="evenodd" clip-rule="evenodd" fill="#163F2A" d="M29.193 130.699a8.723 8.723 0 0 1-1.928-.213c-4.543-1.031-7.849-4.846-8.038-9.279a10.074 10.074 0 0 1 6.699-9.931l-.137-.592h8.719l-1.275.885c2.426 1.086 4.316 3.017 5.274 5.426 1.092 2.746.875 5.869-.596 8.568-1.666 3.071-5.17 5.136-8.718 5.136z"/><path fill="#FFF" d="M31.312 111.684c-.024.017-.047.041-.071.061-.019.017-.045.056-.039.069.143.237.422.22.653.294 5.557 1.81 7.967 7.857 5.178 12.975-1.526 2.814-4.717 4.615-7.839 4.615a7.705 7.705 0 0 1-1.707-.188c-4.124-.935-7.089-4.344-7.26-8.346a9.027 9.027 0 0 1 6.244-9.017c.212-.078.697.061.576-.463h4.265m6.31-2h-13.09l.226.982c-4.098 1.833-6.738 6.031-6.531 10.59.208 4.876 3.833 9.075 8.815 10.205a9.704 9.704 0 0 0 2.15.238c3.904 0 7.761-2.275 9.598-5.661 1.612-2.957 1.847-6.389.645-9.413-.851-2.141-2.367-3.936-4.318-5.176l2.505-1.765z"/><g><path fill="#163F2A" d="M256.896 72.07H-4.713V57.161h261.609V72.07zM-.112 67.47h252.407v-5.708H-.112v5.708z"/></g><g><path fill="#163F2A" d="M117.646 103.811c-2.422 0-4.848-.872-7.015-2.522l-.248-.189-.188-.248c-2.715-3.565-3.273-7.841-1.491-11.439a9.92 9.92 0 0 1 8.942-5.552c2.422 0 4.848.872 7.015 2.522l.248.189.188.248c2.715 3.565 3.273 7.841 1.491 11.439a9.918 9.918 0 0 1-8.942 5.552zm-3.976-5.998c1.287.915 2.656 1.397 3.976 1.397a5.347 5.347 0 0 0 4.819-2.993c.965-1.948.655-4.25-.842-6.358-1.287-.915-2.656-1.397-3.976-1.397a5.347 5.347 0 0 0-4.819 2.993c-.965 1.948-.656 4.25.842 6.358z"/></g><g><path fill="#163F2A" d="M115.347 69.77h4.601v17.108h-4.601z"/></g><g><path fill="#163F2A" d="M167.182 103.811c-2.422 0-4.848-.872-7.015-2.522l-.248-.189-.188-.248c-2.715-3.565-3.273-7.841-1.491-11.439a9.92 9.92 0 0 1 8.942-5.552c2.422 0 4.848.872 7.015 2.522l.248.189.188.248c2.715 3.565 3.273 7.841 1.491 11.439a9.919 9.919 0 0 1-8.942 5.552zm-3.976-5.998c1.287.915 2.656 1.397 3.976 1.397a5.347 5.347 0 0 0 4.819-2.993c.965-1.948.655-4.25-.842-6.358-1.287-.915-2.656-1.397-3.976-1.397a5.347 5.347 0 0 0-4.819 2.993c-.965 1.948-.656 4.25.842 6.358z"/></g><g><path fill="#163F2A" d="M164.883 69.77h4.601v17.108h-4.601z"/></g><g><path fill="#163F2A" d="M217.199 103.811c-2.422 0-4.848-.872-7.015-2.522l-.248-.189-.188-.248c-2.715-3.565-3.273-7.841-1.491-11.439a9.92 9.92 0 0 1 8.942-5.552c2.422 0 4.848.872 7.015 2.522l.248.189.188.248c2.715 3.565 3.273 7.841 1.491 11.439a9.92 9.92 0 0 1-8.942 5.552zm-3.977-5.998c1.287.915 2.656 1.397 3.976 1.397a5.347 5.347 0 0 0 4.819-2.993c.965-1.948.655-4.25-.842-6.358-1.287-.915-2.656-1.397-3.976-1.397a5.347 5.347 0 0 0-4.819 2.993c-.965 1.948-.656 4.25.842 6.358z"/></g><g><path fill="#163F2A" d="M214.898 69.77h4.601v17.108h-4.601z"/></g></svg>