<svg xmlns="http://www.w3.org/2000/svg" viewBox="0 0 160 160"><path fill="#163F2A" d="M112.304 45H98.936c-.4 0-1.104-2.692-1.897-4.682C94.872 34.882 93.577 33 91.167 33H82v-3.897l13.134-11.255c.849-.718 1.071-1.477.688-2.522C95.44 14.281 94.357 14 93.244 14h-27.87c-1.112 0-2.106.281-2.488 1.326-.382 1.044.346 2.01 1.195 2.728L76 27.572V33H65.691c-2.433 0-3.701 1.862-5.795 7.322C59.125 42.334 58.445 45 58.064 45H45.682C42.125 45 39 48.446 39 52.002v76.097c0 3.795 3.413 7.901 7.208 7.901h7.808c.935 0 1.984-1.192 2.984-1.533v9.134c0 1.842 1.166 3.399 3.007 3.399h1.84c1.842 0 3.152-1.557 3.152-3.399V139h28v4.601c0 1.842 1.179 3.399 3.021 3.399h1.84c1.842 0 3.139-1.557 3.139-3.399v-9.126c2 .335 1.903 1.524 2.83 1.524h7.808c3.795 0 7.362-4.106 7.362-7.901V52.002C119 48.446 115.86 45 112.304 45zm-39.69-26h13.392l-5.572 4h-2.247l-5.573-4zm-26.77 84.309c-.941 0-.678-7.705-.678-8.422l-.63-28.933c0-.717.721-.955 1.662-.955H53v40.779l-7.156-2.469zm15.639 21.013a4.783 4.783 0 1 1 0-9.566 4.783 4.783 0 0 1 0 9.566zM97 103.086A2.914 2.914 0 0 1 94.086 106H64.914A2.914 2.914 0 0 1 62 103.086V56.914A2.914 2.914 0 0 1 64.914 54h29.172A2.914 2.914 0 0 1 97 56.914v46.172zm1.984 21.236a4.782 4.782 0 1 1 0-9.566 4.782 4.782 0 1 1 0 9.566zm13.087-21.013L104 106.083V65h7.399c.985 0 1.792.238 1.792.955l-.559 29.107c-.001.717.425 8.247-.561 8.247z"/></svg>