<svg xmlns="http://www.w3.org/2000/svg" viewBox="0 0 250 250"><path fill="#163F2A" d="M84.051 173.503c-2.236 0-4.376-.689-6.187-1.992l-33.392-24.036c-4.752-3.421-5.835-10.07-2.415-14.822l41.754-58.005a10.655 10.655 0 0 1 8.635-4.408c2.236 0 4.376.689 6.187 1.992l33.391 24.036a10.545 10.545 0 0 1 4.268 6.912 10.547 10.547 0 0 1-1.853 7.91l-41.753 58.005a10.655 10.655 0 0 1-8.635 4.408zm8.395-97.633a5.012 5.012 0 0 0-4.066 2.067l-41.754 58.005a4.996 4.996 0 0 0 1.135 6.965l33.392 24.036a4.934 4.934 0 0 0 2.898.931 5.01 5.01 0 0 0 4.066-2.067l41.753-58.005a4.946 4.946 0 0 0 .865-3.715 4.947 4.947 0 0 0-2-3.249l-33.39-24.036a4.933 4.933 0 0 0-2.899-.932zM114.794 187.294a2.815 2.815 0 0 1-2.809-2.672c-.025-.479-.542-11.873 4.305-23.989 4.55-11.375 14.812-25.455 37.855-27.931a2.816 2.816 0 0 1 .602 5.598c-16.265 1.748-27.445 9.965-33.229 24.425-4.393 10.982-3.914 21.507-3.909 21.612a2.814 2.814 0 0 1-2.815 2.957z"/><path fill="#163F2A" d="M131.672 181.098a2.811 2.811 0 0 1-2.808-2.669c-.013-.257-.291-6.373 2.297-12.842 2.466-6.165 8.021-13.794 20.479-15.133a2.814 2.814 0 1 1 .602 5.598c-18.469 1.984-17.792 21.278-17.754 22.098a2.819 2.819 0 0 1-2.816 2.948zM114.396 255.414c-1.555 0-2.5-1.26-2.5-2.815v-30.4c0-.704.141-1.382.616-1.901l79.317-86.834c.533-.583 1.225-1.051 2.015-1.051h60.238c1.555 0 2.815 1.445 2.815 3s-1.26 3-2.815 3h-58.998l-78.187 84.879v29.306c-.001 1.555-.946 2.816-2.501 2.816zM85.752 151.265a2.816 2.816 0 0 1-2.271-4.476l10.696-14.637a2.816 2.816 0 0 1 4.546 3.322l-10.696 14.637a2.814 2.814 0 0 1-2.275 1.154z"/></svg>