<?xml version="1.0" encoding="utf-8"?>
<!-- Generator: Adobe Illustrator 18.0.0, SVG Export Plug-In . SVG Version: 6.00 Build 0)  -->
<!DOCTYPE svg PUBLIC "-//W3C//DTD SVG 1.1//EN" "http://www.w3.org/Graphics/SVG/1.1/DTD/svg11.dtd">
<svg version="1.1" xmlns="http://www.w3.org/2000/svg" xmlns:xlink="http://www.w3.org/1999/xlink" x="0px" y="0px"
	 viewBox="0 0 250 250" enable-background="new 0 0 250 250" xml:space="preserve">
<g id="Guides">
</g>
<g id="_x31_2_Col_Grid" opacity="0.1" enable-background="new    ">
</g>
<g id="Layer_3">
	<g>
		<path fill="#163F2A" d="M172.02,126.675c-2.579,0-4.833-1.741-5.482-4.234l-3.643-13.972c-0.786-3.02,1.031-6.119,4.051-6.906
			l24.272-6.328c0.466-0.121,0.945-0.183,1.424-0.183c2.578,0,4.833,1.741,5.483,4.233l3.643,13.973
			c0.38,1.46,0.168,2.984-0.598,4.291c-0.766,1.306-1.992,2.236-3.454,2.617l-24.272,6.327
			C172.979,126.613,172.5,126.675,172.02,126.675z M168.598,107.172l3.551,13.616l23.916-6.234l-3.551-13.624L168.598,107.172z"/>
	</g>
	<g>
		<path fill-rule="evenodd" clip-rule="evenodd" fill="#FFFFFF" d="M143.176,254.024c-3.373,0-6.133-2.647-6.133-5.883V144.205
			c0-3.236,2.76-5.883,6.133-5.883h112.436c3.373,0,6.133,2.647,6.133,5.883"/>
		<path fill="#163F2A" d="M143.175,257.678c-5.396,0-9.786-4.278-9.786-9.536V144.204c0-5.258,4.39-9.536,9.786-9.536h112.437
			c5.396,0,9.786,4.278,9.786,9.536h-7.307c0-1.209-1.135-2.23-2.48-2.23H143.175c-1.344,0-2.48,1.021-2.48,2.23v103.937
			c0,1.209,1.135,2.23,2.48,2.23V257.678z"/>
	</g>
	<path fill-rule="evenodd" clip-rule="evenodd" fill="#163F2A" d="M161.632,196.173h-20.896c-2.738,0-4.979-2.241-4.979-4.979
		v-2.898c0-2.738,2.241-4.979,4.979-4.979h20.896c2.738,0,4.979,2.241,4.979,4.979v2.898
		C166.611,193.932,164.371,196.173,161.632,196.173z"/>
	<g>
		<path fill="#163F2A" d="M212.701,152.673h-47.647c-4.779,0-8.667-3.889-8.667-8.668s3.888-8.667,8.667-8.667h47.647
			c4.779,0,8.667,3.888,8.667,8.667S217.48,152.673,212.701,152.673z M165.054,141.183c-1.556,0-2.822,1.266-2.822,2.822
			s1.266,2.823,2.822,2.823h47.647c1.556,0,2.822-1.267,2.822-2.823s-1.266-2.822-2.822-2.822H165.054z"/>
	</g>
	<g>
		<circle fill-rule="evenodd" clip-rule="evenodd" fill="#163F2A" cx="71.136" cy="46.54" r="20.732"/>
		<path fill-rule="evenodd" clip-rule="evenodd" fill="#163F2A" d="M147.584,109.144l-15.695-2.623l-11.759-1.989
			c0,0-2.234-5.156-4.234-10.674c0-0.829,0-1.658,0-2.488c-1,0.327-0.86-0.465-0.959-0.789
			c-3.299-11.756-12.109-18.378-24.273-18.395c-12.169-0.01-24.389-0.01-36.538-0.01c-7.172,0.006-13.157,2.386-17.502,6.765
			c-2.921,2.566-5.132,6.073-6.456,10.679c-0.041,0.119-0.095,0.551-0.149,1.072c-0.08,0.159-0.167,0.318-0.244,0.481
			c0,0.007-0.392-0.034-0.423-0.052c-0.064-0.038-0.456-0.09-0.456-0.117c0,21.475,0,42.933,0,64.421
			c1-0.399,0.953,0.451,1.117,0.748c1.837,3.366,5.342,4.899,9.202,4.131c3.42-0.678,5.757-3.369,6.134-7.19
			c0.074-0.885,0.143-1.764,0.143-2.636c0.01-15.938,0.019-31.87,0.043-47.808c0-0.102-0.005-0.215-0.02-0.331
			c0.072-0.169,0.184-0.293,0.359-0.321c0.955-0.149,2.005-0.199,2.992-0.121l0.03,2.34c0,0,0,23.084,0,34.341
			c0,33.897,0,67.795,0,101.696c0,2.308,0.296,4.617,1.357,6.781c1.299,2.646,3.616,4.19,6.286,5.168
			c0.045,0.031,0.193,0.003,0.193,0.02c-0.043,0.1-0.038,0.169-0.093,0.169c2.129,0,4.262,0,6.412,0
			c-0.208-1,0.533-0.489,0.879-0.623c4.236-1.768,6.188-4.917,6.281-9.509c0.093-5.84-0.313-11.611-0.313-17.444
			c0-20.962,0-41.927,0-62.892c0-1.719,2.179-2.78,3.728-1.95c0.565,0.317,0.514,0.902,0.514,1.343
			c0.043,3.266,0.118,6.529,0.118,9.788c0,22.919,0.082,45.823-0.009,68.725c-0.014,5.771,1.629,10.24,7.51,12.279
			c0.098,0.048,0.242,0.034,0.278,0.138c0.007,0.052-0.08,0.145-0.152,0.145c2.247,0,4.507,0,6.781,0
			c-0.379-1,0.248-0.503,0.555-0.623c4.511-1.84,6.426-5.337,6.617-9.981c0.022-0.668,0.06-1.313,0.06-2.015
			c0-33.733,0-67.474,0-101.214c0-11.257,0-22.946,0-34.376c0-1.748,0.084-2.818,1.221-3.006c1.459-0.511,2.384,0.868,2.384,0.868
			l7.239,13.564c1.122,2.895,2.694,3.784,6.921,4.772l14.19,1.945l16.599,2.775c0,0,10.969,3.529,12.513-5.708
			C158.507,110.178,147.584,109.144,147.584,109.144z"/>
		<path fill-rule="evenodd" clip-rule="evenodd" fill="#163F2A" d="M99.716,154.226l-0.179-2.503
			C99.543,152.568,99.577,153.413,99.716,154.226z"/>
	</g>
</g>
<g id="Layer_4">
</g>
</svg>
