<svg xmlns="http://www.w3.org/2000/svg" viewBox="0 0 250 250"><path fill="#163F2A" d="M109.551 143.539c0 13.392-10.856 24.248-24.25 24.248-13.392 0-24.248-10.856-24.248-24.248 0-13.392 10.856-24.25 24.248-24.25 13.394 0 24.25 10.858 24.25 24.25M58.896 211.414v40h55v-40.43c0-2.045.28-3.296 1.61-3.516 1.707-.598 2.88 1.015 2.88 1.015l8.512 15.865c1.312 3.386 3.173 4.426 8.118 5.582l16.609 2.275 19.42 3.246s12.833 4.127 14.638-6.676c1.806-10.804-10.968-12.013-10.968-12.013l-18.356-3.068-13.92-2.326s-7.86-19.922-11.451-26.098c-3.568-6.137-10.209-9.42-14.112-9.937l-9.359-.321C93.363 175 79.227 175 65.097 175c-13.87.012-23.891 5.598-27.723 18.927-.136.397-.352 3.826-.54 4.223l-.121 53.264H55.17c.003-14.598.004-27.241.027-40.775 0-.726-.113-2.048.561-2.154 1.117-.175 2.147-.066 3.301.026M213.61 210.832l-9.496 11.202a4.425 4.425 0 0 1-6.219.512l-22.227-18.843a4.425 4.425 0 0 1-.512-6.219l9.496-11.202a4.425 4.425 0 0 1 6.219-.512l22.227 18.843a4.425 4.425 0 0 1 .512 6.219z"/><path fill="#183F2A" d="M123.679 111.384l-7.806-15.911c-4.763-.295-18.647-1.616-27.905-7.217a2.703 2.703 0 0 1 2.798-4.626c9.879 5.977 26.738 6.514 26.907 6.519l1.632.045 5.396 10.998 7.491-9.733 1.313-.014c.234-.002 23.608-.325 37.516-6.506a2.703 2.703 0 1 1 2.195 4.941c-13.113 5.828-32.995 6.788-38.33 6.942l-11.207 14.562z"/><g fill="#163F2A"><path d="M55.932 51.858c-.114-.749-.727-2.021-2.68-2.021-1.34 0-2.203.84-2.203 1.726 0 .772.477 1.34 1.59 1.544l2.158.409c3.066.568 4.656 2.544 4.656 4.837 0 2.521-2.112 5.087-5.95 5.087-4.451 0-6.359-2.884-6.586-5.155l3.293-.795c.136 1.476 1.136 2.771 3.339 2.771 1.408 0 2.271-.681 2.271-1.681 0-.818-.659-1.408-1.726-1.612l-2.203-.409c-2.725-.522-4.383-2.339-4.383-4.724 0-3.043 2.68-5.178 5.769-5.178 4.02 0 5.541 2.408 5.882 4.292l-3.227.909zM64.31 56.581l2.657-.409c.613-.091.818-.386.818-.772 0-.659-.568-1.226-1.658-1.226-1.204 0-1.862.818-1.93 1.658l-2.998-.613c.136-1.612 1.635-3.747 4.951-3.747 3.657 0 4.997 2.044 4.997 4.361v5.519c0 .886.114 1.635.136 1.749h-3.111c-.023-.091-.114-.5-.114-1.272-.591.954-1.681 1.59-3.179 1.59-2.476 0-3.907-1.635-3.907-3.429 0-2.001 1.476-3.136 3.338-3.409zm3.475 2.09v-.5l-2.135.341c-.727.114-1.272.454-1.272 1.249 0 .591.386 1.158 1.34 1.158 1.022 0 2.067-.5 2.067-2.248zM87.722 51.858c-.114-.749-.727-2.021-2.68-2.021-1.34 0-2.203.84-2.203 1.726 0 .772.477 1.34 1.59 1.544l2.158.409c3.066.568 4.656 2.544 4.656 4.837 0 2.521-2.112 5.087-5.95 5.087-4.451 0-6.359-2.884-6.586-5.155L82 57.49c.136 1.476 1.136 2.771 3.339 2.771 1.408 0 2.271-.681 2.271-1.681 0-.818-.659-1.408-1.726-1.612l-2.203-.409c-2.725-.522-4.383-2.339-4.383-4.724 0-3.043 2.68-5.178 5.769-5.178 4.02 0 5.541 2.408 5.882 4.292l-3.227.909zM96.1 56.581l2.657-.409c.613-.091.818-.386.818-.772 0-.659-.568-1.226-1.658-1.226-1.204 0-1.862.818-1.93 1.658l-2.998-.613c.136-1.612 1.635-3.747 4.951-3.747 3.657 0 4.997 2.044 4.997 4.361v5.519c0 .886.114 1.635.136 1.749h-3.111c-.023-.091-.114-.5-.114-1.272-.591.954-1.681 1.59-3.179 1.59-2.476 0-3.907-1.635-3.907-3.429-.001-2.001 1.475-3.136 3.338-3.409zm3.475 2.09v-.5l-2.135.341c-.727.114-1.272.454-1.272 1.249 0 .591.386 1.158 1.34 1.158 1.022 0 2.067-.5 2.067-2.248zM109.293 63.1h-3.452V51.812h3.339v1.295c.613-1.067 1.998-1.59 3.157-1.59 2.839 0 4.111 2.021 4.111 4.497V63.1h-3.452v-6.495c0-1.113-.591-1.953-1.84-1.953-1.135 0-1.862.841-1.862 1.976V63.1zM123.485 51.812h2.203v3.021h-2.203v4.224c0 .931.499 1.181 1.249 1.181.364 0 .704-.068.909-.114v2.862c-.136.068-.704.318-1.794.318-2.339 0-3.77-1.385-3.77-3.634v-4.837h-1.999v-3.021h.568c1.181 0 1.749-.795 1.749-1.839v-1.454h3.089v3.293zM139.176 57.444c0 3.498-2.612 5.996-5.996 5.996-3.361 0-5.996-2.498-5.996-5.996s2.635-5.973 5.996-5.973c3.385 0 5.996 2.476 5.996 5.973zm-3.451 0c0-1.908-1.226-2.794-2.544-2.794-1.295 0-2.544.886-2.544 2.794 0 1.885 1.249 2.816 2.544 2.816 1.317.001 2.544-.908 2.544-2.816zM141.4 63.1V46.656h3.452V63.1H141.4zM150.438 56.581l2.657-.409c.613-.091.818-.386.818-.772 0-.659-.568-1.226-1.658-1.226-1.204 0-1.862.818-1.93 1.658l-2.998-.613c.136-1.612 1.635-3.747 4.951-3.747 3.657 0 4.997 2.044 4.997 4.361v5.519c0 .886.114 1.635.136 1.749H154.3c-.023-.091-.114-.5-.114-1.272-.591.954-1.681 1.59-3.18 1.59-2.476 0-3.907-1.635-3.907-3.429.001-2.001 1.477-3.136 3.339-3.409zm3.475 2.09v-.5l-2.135.341c-.727.114-1.272.454-1.272 1.249 0 .591.386 1.158 1.34 1.158 1.022 0 2.067-.5 2.067-2.248zM163.631 63.1h-3.452V51.812h3.339v1.295c.613-1.067 1.998-1.59 3.157-1.59 2.839 0 4.111 2.021 4.111 4.497V63.1h-3.452v-6.495c0-1.113-.591-1.953-1.84-1.953-1.135 0-1.862.841-1.862 1.976V63.1zM179.275 67.415V51.812h3.339v1.158c.477-.727 1.703-1.431 3.316-1.431 3.271 0 5.246 2.498 5.246 5.882 0 3.452-2.226 5.928-5.382 5.928-1.454 0-2.544-.499-3.066-1.135v5.201h-3.453zm5.951-12.764c-1.34 0-2.544.909-2.544 2.794 0 1.862 1.204 2.816 2.544 2.816 1.363 0 2.567-.931 2.567-2.816-.001-1.886-1.205-2.794-2.567-2.794zM204.573 57.444c0 3.498-2.612 5.996-5.996 5.996-3.361 0-5.996-2.498-5.996-5.996s2.635-5.973 5.996-5.973c3.384 0 5.996 2.476 5.996 5.973zm-3.452 0c0-1.908-1.226-2.794-2.544-2.794-1.295 0-2.544.886-2.544 2.794 0 1.885 1.249 2.816 2.544 2.816 1.317.001 2.544-.908 2.544-2.816zM210.067 58.058h-2.544l-.795-11.06h4.133l-.794 11.06zm-1.295 1.34c1.09 0 1.976.886 1.976 1.976 0 1.067-.886 1.953-1.976 1.953a1.953 1.953 0 0 1-1.953-1.953c0-1.091.863-1.976 1.953-1.976z"/></g></svg>