<svg xmlns="http://www.w3.org/2000/svg" viewBox="0 0 250 250"><path fill="#163F2A" d="M172.02 126.675a5.664 5.664 0 0 1-5.482-4.234l-3.643-13.972a5.67 5.67 0 0 1 4.051-6.906l24.272-6.328a5.667 5.667 0 0 1 6.907 4.05l3.643 13.973a5.628 5.628 0 0 1-.598 4.291 5.624 5.624 0 0 1-3.454 2.617l-24.272 6.327c-.465.12-.944.182-1.424.182zm-3.422-19.503l3.551 13.616 23.916-6.234-3.551-13.624-23.916 6.242z"/><path fill-rule="evenodd" clip-rule="evenodd" fill="#FFF" d="M143.176 254.024c-3.373 0-6.133-2.647-6.133-5.883V144.205c0-3.236 2.76-5.883 6.133-5.883h112.436c3.373 0 6.133 2.647 6.133 5.883"/><path fill="#163F2A" d="M143.175 257.678c-5.396 0-9.786-4.278-9.786-9.536V144.204c0-5.258 4.39-9.536 9.786-9.536h112.437c5.396 0 9.786 4.278 9.786 9.536h-7.307c0-1.209-1.135-2.23-2.48-2.23H143.175c-1.344 0-2.48 1.021-2.48 2.23v103.937c0 1.209 1.135 2.23 2.48 2.23v7.307z"/><path fill-rule="evenodd" clip-rule="evenodd" fill="#163F2A" d="M161.632 196.173h-20.896c-2.738 0-4.979-2.241-4.979-4.979v-2.898c0-2.738 2.241-4.979 4.979-4.979h20.896c2.738 0 4.979 2.241 4.979 4.979v2.898a4.994 4.994 0 0 1-4.979 4.979z"/><path fill="#163F2A" d="M212.701 152.673h-47.647c-4.779 0-8.667-3.889-8.667-8.668s3.888-8.667 8.667-8.667h47.647c4.779 0 8.667 3.888 8.667 8.667s-3.888 8.668-8.667 8.668zm-47.647-11.49c-1.556 0-2.822 1.266-2.822 2.822s1.266 2.823 2.822 2.823h47.647c1.556 0 2.822-1.267 2.822-2.823s-1.266-2.822-2.822-2.822h-47.647z"/><g fill-rule="evenodd" clip-rule="evenodd" fill="#163F2A"><circle cx="71.136" cy="46.54" r="20.732"/><path d="M147.584 109.144l-15.695-2.623-11.759-1.989s-2.234-5.156-4.234-10.674V91.37c-1 .327-.86-.465-.959-.789-3.299-11.756-12.109-18.378-24.273-18.395-12.169-.01-24.389-.01-36.538-.01-7.172.006-13.157 2.386-17.502 6.765-2.921 2.566-5.132 6.073-6.456 10.679-.041.119-.095.551-.149 1.072-.08.159-.167.318-.244.481 0 .007-.392-.034-.423-.052-.064-.038-.456-.09-.456-.117v64.421c1-.399.953.451 1.117.748 1.837 3.366 5.342 4.899 9.202 4.131 3.42-.678 5.757-3.369 6.134-7.19.074-.885.143-1.764.143-2.636.01-15.938.019-31.87.043-47.808 0-.102-.005-.215-.02-.331.072-.169.184-.293.359-.321a13.145 13.145 0 0 1 2.992-.121l.03 2.34v136.037c0 2.308.296 4.617 1.357 6.781 1.299 2.646 3.616 4.19 6.286 5.168.045.031.193.003.193.02-.043.1-.038.169-.093.169h6.412c-.208-1 .533-.489.879-.623 4.236-1.768 6.188-4.917 6.281-9.509.093-5.84-.313-11.611-.313-17.444v-62.892c0-1.719 2.179-2.78 3.728-1.95.565.317.514.902.514 1.343.043 3.266.118 6.529.118 9.788 0 22.919.082 45.823-.009 68.725-.014 5.771 1.629 10.24 7.51 12.279.098.048.242.034.278.138.007.052-.08.145-.152.145h6.781c-.379-1 .248-.503.555-.623 4.511-1.84 6.426-5.337 6.617-9.981.022-.668.06-1.313.06-2.015V138.579v-34.376c0-1.748.084-2.818 1.221-3.006 1.459-.511 2.384.868 2.384.868l7.239 13.564c1.122 2.895 2.694 3.784 6.921 4.772l14.19 1.945 16.599 2.775s10.969 3.529 12.513-5.708c1.542-9.235-9.381-10.269-9.381-10.269z"/><path d="M99.716 154.226l-.179-2.503c.006.845.04 1.69.179 2.503z"/></g></svg>