<svg xmlns="http://www.w3.org/2000/svg" viewBox="0 0 250 250"><path fill="#183F2A" d="M249.41 150.414H.038c-1.551 0-2.808-1.471-2.808-3s1.257-3 2.808-3H249.41c1.551 0 2.808 1.471 2.808 3s-1.257 3-2.808 3z"/><path fill="#163F2A" d="M90.396 249.304c-1.529 0-2.5-1.239-2.5-2.768v-80.822c0-1.529.704-2.301 2.233-2.301h68.643c1.529 0 2.124.772 2.124 2.301v79.161c0 1.529-.971 2.768-2.5 2.768s-2.5-1.239-2.5-2.768v-76.462h-63v78.123c0 1.529-.971 2.768-2.5 2.768z"/><path fill="#163F2A" d="M104.396 248.751c-1.529 0-2.5-1.239-2.5-2.768v-64.768c0-1.529.543-2.801 2.072-2.801h40.411c1.529 0 2.517 1.272 2.517 2.801v63.107c0 1.529-.971 2.768-2.5 2.768s-2.5-1.239-2.5-2.768v-59.909h-35v61.569c0 1.53-.971 2.769-2.5 2.769z"/><path fill-rule="evenodd" clip-rule="evenodd" fill="#163F2A" d="M63.897 223.734l.614-.763c-1.89-1.003-2.652-2.61-2.944-4.178-.295 1.971-1.436 3.464-3.343 4.367l.145.574h-6.113l.44-.71c-1.117-.597-1.923-1.417-2.448-2.488-.583-1.186-.631-2.401-.631-3.645v-40.305c-.443 1.836-1.743 3.142-3.531 3.495-.369.074-.74.111-1.1.111-1.656 0-3.093-.782-4.007-2.163l-.749.361v-33.67l.589.3c1.805-5.435 6.156-8.56 12.018-8.566 5.743 0 11.488 0 17.239.006 5.979.01 10.391 3.217 12.195 8.827l.554-.209v35.155l-1.09-1.713c-.894 1.078-2.198 1.715-3.587 1.715-.217 0-.436-.015-.656-.046-1.964-.274-3.369-1.426-3.919-3.189v39.664c0 .344 0 .684-.011 1.014-.103 2.504-1.132 4.29-3.061 5.323l.425.733h-7.029z"/><path fill="#FFF" d="M52.838 137.454c5.742 0 11.486 0 17.237.006 5.749.01 9.854 3.136 11.413 8.694.039.125-.041.407.171.407a.484.484 0 0 0 .165-.037v30.274a.77.77 0 0 0-.055-.072l-.067-.02c-.099.184-.211.352-.305.532-.672 1.247-1.906 1.995-3.251 1.995-.171 0-.343-.012-.516-.037-1.692-.236-2.859-1.255-3.207-2.885-.099-.514-.099-1.058-.099-1.594v-21.353-1.868c0-.231.02-.44-.332-.518a3.091 3.091 0 0 0-.629-.082c-.594 0-.794.334-.794 1.174v64.591c0 .332 0 .661-.01.98-.09 2.195-.977 3.875-3.109 4.745-.145.057-.441.036-.262.345h-3.204c.034-.042.081-.096.077-.12-.017-.051-.08-.095-.127-.116-2.779-.967-3.543-3.079-3.536-5.803.043-10.826.026-21.648.026-32.48 0-1.537.008-3.082-.012-4.624 0-.21.112-.485-.156-.635a1.11 1.11 0 0 0-.53-.137c-.56 0-1.055.439-1.055 1.058v29.72c-.01 2.755.016 5.51-.028 8.269-.043 2.17-1.141 3.685-3.143 4.521-.164.062-.513-.042-.415.345h-3.031a.985.985 0 0 0 .072-.132.33.33 0 0 0-.063-.063c-1.262-.461-2.301-1.19-2.916-2.442-.501-1.019-.529-2.11-.529-3.204v-64.674c0-.267 0-.536-.015-.803 0-.145.015-.357-.145-.38-.296-.022-.602-.059-.901-.059-.175 0-.347.013-.513.048-.431.088-.227.549-.227.843-.012 7.527-.007 15.059-.012 22.589 0 .41-.014.83-.049 1.244-.179 1.809-1.247 3.08-2.863 3.4-.31.062-.613.092-.907.092-1.435 0-2.649-.723-3.37-2.043-.063-.114-.014-.402-.209-.402a.417.417 0 0 0-.176.051v-30.447c.026.013.041.037.072.057.014.007.049.026.054.026h.001c.076-.163.164-.314.219-.477 1.558-5.411 5.628-8.493 11.261-8.499m0-2h-.002c-5.918.007-10.408 2.96-12.565 8.178l-1.04-.522v36.869l1.45-.697c1.089 1.227 2.6 1.911 4.306 1.911.426 0 .862-.044 1.297-.13a5.458 5.458 0 0 0 2.335-1.059v36.889c0 1.032 0 2.592.734 4.086a6.427 6.427 0 0 0 1.995 2.373l-.815 1.352 3.522.03H59.653l-.268-1.063c.916-.555 1.652-1.26 2.191-2.091a6.361 6.361 0 0 0 1.467 1.615l-1.222 1.512 4.166.027H72.659l-.815-1.408c1.385-1.028 2.599-2.74 2.716-5.599.012-.357.012-.708.012-1.062v-36.589c.772.575 1.715.955 2.783 1.104a5.606 5.606 0 0 0 4.219-1.12l2.251 3.428V143.633l-.953.359c-2.127-5.437-6.707-8.521-12.793-8.531-5.754-.007-11.498-.007-17.241-.007z"/><path fill-rule="evenodd" clip-rule="evenodd" fill="#163F2A" d="M61.608 136.559c-3.429 0-6.814-1.995-8.424-4.965-1.42-2.605-1.63-5.624-.575-8.277.919-2.312 2.726-4.167 5.044-5.219l-1.27-.892 3.186.014h5.363l-.134.583c3.984 1.404 6.636 5.316 6.441 9.588-.183 4.281-3.376 7.968-7.766 8.963a8.534 8.534 0 0 1-1.865.205z"/><path fill="#FFF" d="M63.675 118.219c-.116.505.35.371.554.446a8.691 8.691 0 0 1 6.01 8.68c-.164 3.852-3.019 7.133-6.988 8.033a7.44 7.44 0 0 1-1.643.181c-3.005 0-6.077-1.733-7.546-4.442-2.685-4.927-.366-10.747 4.984-12.49.222-.072.491-.055.629-.283.006-.013-.02-.05-.038-.067-.023-.02-.045-.042-.068-.058h4.106m2.514-2H53.252l2.518 1.772c-1.846 1.2-3.28 2.916-4.091 4.956-1.166 2.931-.937 6.258.626 9.127 1.779 3.279 5.518 5.485 9.302 5.485.71 0 1.412-.078 2.086-.231 4.828-1.095 8.341-5.166 8.543-9.898.2-4.393-2.334-8.445-6.274-10.234l.227-.977z"/><path fill-rule="evenodd" clip-rule="evenodd" fill="#163F2A" d="M28.328 174.819c-3.785 0-7.524-2.206-9.304-5.489-1.562-2.866-1.791-6.192-.625-9.123a10.585 10.585 0 0 1 4.088-4.955l-2.526-1.774H32.91l-.225.972c3.916 1.759 6.473 5.827 6.272 10.244-.201 4.728-3.715 8.798-8.543 9.894a9.439 9.439 0 0 1-2.086.231z"/><path fill="#FFF" d="M30.394 155.478c-.116.505.35.371.554.446a8.691 8.691 0 0 1 6.01 8.68c-.164 3.852-3.018 7.133-6.988 8.033a7.44 7.44 0 0 1-1.643.181c-3.005 0-6.077-1.733-7.546-4.442-2.685-4.927-.366-10.748 4.984-12.49.222-.072.491-.055.629-.283.006-.013-.019-.05-.037-.067-.023-.02-.046-.042-.068-.059l4.105.001m5.028-4H13.759l5.458 3.881a12.447 12.447 0 0 0-2.677 4.108c-1.386 3.485-1.12 7.43.729 10.823 2.149 3.963 6.491 6.528 11.058 6.528.859 0 1.71-.094 2.529-.281 5.705-1.294 9.858-6.131 10.099-11.763.211-4.642-2.154-8.966-5.981-11.355l.448-1.941z"/><path fill-rule="evenodd" clip-rule="evenodd" fill="#163F2A" d="M15.896 250.414v-36.567c0 1.835-1.523 3.142-3.311 3.495a4.58 4.58 0 0 1-.99.111c-1.656 0-3.065-.783-3.979-2.164l-.72.359V181.98l.615.3c1.806-5.434 6.17-8.559 12.031-8.566 5.743 0 11.494 0 17.246.007 5.979.01 10.57 3.217 12.374 8.827l.733-.209v35.055l-1.251-1.632c-.894 1.089-2.293 1.733-3.69 1.733-.217 0-.677-.015-.897-.046-1.964-.274-3.161-1.426-4.161-3.189v36.154h-24z"/><path fill="#FFF" d="M19.557 174.713c5.742 0 11.486 0 17.237.006 5.749.01 9.854 3.136 11.413 8.694.039.125.135.407.347.407.042 0 .341-.011.341-.037v30.274c0-.021-.211-.049-.23-.072a2.905 2.905 0 0 0-.155-.02c-.099.184-.255.352-.349.532-.672 1.247-1.928 1.995-3.273 1.995-.171 0-.354-.012-.527-.037-1.692-.236-2.939-1.255-3.287-2.885-.098-.515-.178-1.058-.178-1.594v-21.353-1.867c0-.231.095-.44-.258-.518a4.627 4.627 0 0 0-.789-.082c-.594 0-.954.335-.954 1.174v60.081h-9.771c.026-9 .019-18.696.019-28.161 0-1.537.008-2.971-.012-4.513 0-.21.112-.43-.156-.579-.174-.094-.602-.109-.777-.109-.56 0-1.302.467-1.302 1.086v29.72c0 1 .492 1.556.493 2.556H16.896v-59.936c0-.267.22-.536.205-.803 0-.145.125-.357-.035-.38-.296-.022-.547-.059-.846-.059-.175 0-.319.013-.485.048-.432.088-.213.549-.213.844-.012 7.527 0 15.059-.005 22.589 0 .41-.011.83-.045 1.244-.179 1.809-1.246 3.08-2.862 3.4-.31.062-.612.092-.906.092-1.435 0-2.649-.723-3.369-2.043-.063-.114-.041-.402-.236-.402-.045 0-.203.015-.203.051v-30.447c0 .013.067.037.098.057a.584.584 0 0 0 .067.026h.007c.076-.163.168-.314.222-.477 1.561-5.413 5.635-8.495 11.267-8.502m0-2.299h-.002c-5.918 0-10.434 3.11-12.592 8.327l-1.067-.373v36.872l1.477-.697c1.089 1.227 2.614 1.911 4.319 1.911.426 0 .648-.044 1.083-.13.887-.175 2.121-.54 2.121-1.059V251.416H40.896v-34.08c1 .575 1.912.955 2.98 1.104.26.037.626.056.891.056 1.25 0 2.669-.422 3.642-1.168l2.487 3.481v-39.915l-1.129.359c-2.127-5.437-6.795-8.671-12.881-8.682-5.753-.008-11.586-.157-17.329-.157z"/><path fill-rule="evenodd" clip-rule="evenodd" fill="#163F2A" d="M195.15 223.734h-4.314l.145-.575c-1.918-.915-3.054-2.407-3.346-4.371-.293 1.56-1.058 3.162-2.957 4.183l.571.722-2.032.041h-4.939l.425-.734c-1.932-1.037-2.958-2.82-3.061-5.314-.011-.339-.011-.678-.011-1.021v-39.67c-.556 1.773-1.959 2.921-3.921 3.195a4.66 4.66 0 0 1-.654.046c-1.4 0-2.714-.647-3.604-1.733l-1.092 1.657.019-3.36v-31.72l.553.208c1.791-5.599 6.208-8.816 12.195-8.827 5.752-.006 11.497-.006 17.239-.006 5.852.007 10.198 3.12 12.021 8.573l.587-.293v33.656l-.749-.36c-.913 1.38-2.351 2.164-4.008 2.164-.36 0-.73-.037-1.101-.111-1.789-.354-3.089-1.661-3.53-3.489v40.299c0 1.243-.048 2.457-.632 3.645-.527 1.073-1.336 1.896-2.459 2.493l.433.71-1.778-.008z"/><path fill="#FFF" d="M196.365 137.454c5.633.006 9.703 3.089 11.263 8.504.055.163.143.314.219.477h.001c.005 0 .04-.019.054-.026.031-.02.046-.044.072-.057v30.447a.421.421 0 0 0-.176-.051c-.195 0-.147.289-.209.402-.721 1.319-1.935 2.043-3.37 2.043-.294 0-.597-.03-.907-.092-1.616-.319-2.684-1.591-2.863-3.4a14.846 14.846 0 0 1-.049-1.244c-.006-7.53 0-15.062-.012-22.589 0-.295.204-.756-.227-.843a2.425 2.425 0 0 0-.513-.048c-.299 0-.605.037-.901.059-.16.023-.145.235-.145.38-.015.267-.015.536-.015.803v64.674c0 1.094-.029 2.185-.529 3.204-.615 1.252-1.654 1.981-2.916 2.442a.33.33 0 0 0-.063.063c.02.047.046.09.072.132h-3.031c.098-.388-.251-.283-.415-.345-2.003-.837-3.1-2.351-3.143-4.521-.044-2.76-.018-5.515-.028-8.269v-29.72a1.05 1.05 0 0 0-1.055-1.058 1.11 1.11 0 0 0-.53.137c-.268.15-.156.425-.156.635-.02 1.542-.012 3.087-.012 4.624 0 10.832-.017 21.655.026 32.48.006 2.724-.757 4.836-3.536 5.803-.047.021-.11.065-.127.116-.004.024.042.078.077.12h-3.204c.179-.309-.117-.288-.262-.345-2.132-.87-3.019-2.55-3.109-4.745-.01-.319-.01-.648-.01-.98v-64.591c0-.84-.2-1.174-.794-1.174-.174 0-.382.029-.629.082-.352.078-.332.287-.332.518v23.221c0 .536 0 1.08-.099 1.594-.348 1.63-1.515 2.649-3.207 2.885a3.613 3.613 0 0 1-.516.037c-1.346 0-2.579-.748-3.251-1.995-.094-.181-.206-.348-.305-.532l-.067.02a.77.77 0 0 0-.055.072v-30.274a.484.484 0 0 0 .165.037c.212 0 .132-.282.171-.407 1.559-5.559 5.664-8.685 11.413-8.694 5.75-.011 11.494-.011 17.235-.011m.003-2h-.002c-5.743 0-11.487 0-17.24.006-6.087.01-10.668 3.094-12.794 8.531l-.953-.359v39.88l2.257-3.452a5.603 5.603 0 0 0 4.218 1.118c1.067-.149 2.008-.529 2.779-1.101v36.586c0 .354 0 .706.012 1.046.118 2.876 1.336 4.592 2.716 5.617l-.814 1.407h10.869l-1.25-1.541a6.356 6.356 0 0 0 1.464-1.613c.539.832 1.274 1.537 2.19 2.092l-.268 1.062H198.725l-.855-1.392a6.42 6.42 0 0 0 1.983-2.364c.734-1.494.734-3.053.734-4.086v-36.89a5.44 5.44 0 0 0 2.337 1.061c.432.086.869.13 1.294.13 1.704 0 3.215-.683 4.305-1.911l1.451.697V143.108l-1.04.523c-2.158-5.217-6.648-8.17-12.566-8.177z"/><path fill-rule="evenodd" clip-rule="evenodd" fill="#163F2A" d="M187.595 136.559a8.414 8.414 0 0 1-1.865-.206c-4.389-.995-7.583-4.682-7.765-8.966a9.736 9.736 0 0 1 6.44-9.585l-.135-.583h8.528l-1.25.878c2.32 1.053 4.126 2.908 5.046 5.219 1.055 2.654.846 5.672-.576 8.279-1.609 2.968-4.994 4.964-8.423 4.964 0 0 .001 0 0 0z"/><path fill="#FFF" d="M189.635 118.219c-.023.016-.046.039-.068.058-.018.016-.043.054-.037.067.138.228.406.212.629.283 5.349 1.742 7.669 7.563 4.984 12.49-1.469 2.709-4.541 4.442-7.546 4.442a7.433 7.433 0 0 1-1.643-.181c-3.97-.9-6.824-4.181-6.988-8.033a8.691 8.691 0 0 1 6.01-8.68c.204-.075.671.059.554-.446h4.105m6.303-2H183.015l.225.977a10.742 10.742 0 0 0-6.274 10.24c.202 4.727 3.715 8.798 8.544 9.893a9.439 9.439 0 0 0 2.086.231c3.785 0 7.524-2.206 9.304-5.488 1.562-2.866 1.79-6.193.625-9.124a10.58 10.58 0 0 0-4.094-4.958l2.507-1.771z"/><g><path fill-rule="evenodd" clip-rule="evenodd" fill="#163F2A" d="M220.875 174.819c-.71 0-1.412-.078-2.086-.231-4.828-1.095-8.341-5.166-8.543-9.898-.199-4.393 2.335-8.445 6.275-10.234l-.225-.977h12.947l-2.526 1.774a10.575 10.575 0 0 1 4.088 4.953c1.166 2.931.938 6.258-.626 9.127-1.78 3.28-5.519 5.486-9.304 5.486z"/><path fill="#FFF" d="M222.915 155.478c-.023.016-.046.039-.068.059-.018.016-.043.054-.038.067.138.228.406.212.629.283 5.349 1.742 7.669 7.563 4.984 12.49-1.469 2.709-4.54 4.442-7.546 4.442a7.433 7.433 0 0 1-1.643-.181c-3.97-.9-6.824-4.181-6.988-8.033a8.691 8.691 0 0 1 6.01-8.68c.204-.075.671.059.554-.446l4.106-.001m12.529-4h-21.662l.448 1.941c-3.827 2.389-6.192 6.715-5.981 11.366.24 5.621 4.393 10.458 10.099 11.753.818.186 1.669.28 2.528.28 4.567 0 8.909-2.565 11.062-6.535 1.845-3.386 2.111-7.331.725-10.817a12.454 12.454 0 0 0-2.676-4.109l5.457-3.879z"/></g><g><path fill-rule="evenodd" clip-rule="evenodd" fill="#163F2A" d="M208.896 250.414v-36.16c-1 1.773-1.951 2.921-3.913 3.195a4.593 4.593 0 0 1-.65.046c-1.392 0-2.698-.64-3.588-1.716l-.996 1.753.147-3.474v-31.72l.435.208c1.79-5.599 6.147-8.817 12.136-8.827 5.752-.007 11.467-.007 17.209-.007 5.85.007 10 3.118 11.825 8.566l.396-.3v33.668l-.569-.359c-.913 1.38-2.261 2.164-3.918 2.164-.36 0-.671-.037-1.042-.111-1.789-.354-3.471-1.661-3.471-3.489v36.562h-24.001z"/><path fill="#FFF" d="M229.646 174.713c5.633.006 9.703 3.089 11.263 8.504.055.163.143.314.219.477h.001c.005 0-.139-.019-.125-.026.031-.02-.107-.044-.107-.057v30.447c0-.036.047-.051.003-.051-.195 0-.057.289-.12.402-.72 1.319-1.89 2.043-3.325 2.043-.294 0-.574-.03-.884-.092-1.616-.319-2.673-1.591-2.852-3.4a14.83 14.83 0 0 1-.043-1.244c-.006-7.53.003-15.062-.009-22.589 0-.295.206-.756-.226-.844a2.477 2.477 0 0 0-.512-.048c-.299 0-.605.037-.901.059-.16.023-.13.235-.13.38-.015.267 0 .536 0 .803v59.936h-10.081c.001-1 .081-1.556.081-2.556v-29.72c0-.619-.537-1.058-1.097-1.058-.175 0-.377.043-.551.137-.268.15-.166.425-.166.635-.021 1.542-.018 2.865-.018 4.402 0 9.466-.012 19.161.014 28.161h-10.182v-60.081c0-.84-.191-1.174-.785-1.174-.174 0-.509.029-.756.082-.352.078-.459.286-.459.518V211.979c0 .536.131 1.079.033 1.594-.348 1.63-1.449 2.649-3.141 2.885a3.172 3.172 0 0 1-.483.037c-1.346 0-2.563-.748-3.235-1.995-.094-.181-.198-.348-.297-.532 0 0 .073.015.056.02-.019.023.068.051.068.072v-30.274c0 .026.005.037.047.037.212 0 .073-.282.112-.407 1.559-5.559 5.634-8.685 11.383-8.694 5.749-.009 11.463-.009 17.205-.009m.002-2.299h-.002c-5.742 0-11.487.15-17.24.156-6.087.01-10.549 3.17-12.676 8.607l-.835-.284v39.915l2.144-3.483c.975.749 2.107 1.17 3.356 1.17.265 0 .495-.019.759-.056 1.067-.149 1.741-.529 2.741-1.101v34.076h25.999v-34.153c1 .521 1.435.886 2.323 1.061.432.086.861.13 1.287.13 1.704 0 3.032-.682 4.122-1.911l1.268.698v-36.875l-.862.375c-2.156-5.216-6.467-8.325-12.384-8.325z"/></g><g><path fill-rule="evenodd" clip-rule="evenodd" fill="#FFF" d="M153.38 127.795H96.074c-3.574 0-6.499-2.925-6.499-6.499V41.57c0-3.574 2.925-6.499 6.499-6.499h57.306c3.574 0 6.499 2.925 6.499 6.499v79.726c0 3.575-2.925 6.499-6.499 6.499z"/><path fill="#163F2A" d="M153.38 130.286H96.074c-4.957 0-8.99-4.033-8.99-8.99V41.57c0-4.957 4.033-8.99 8.99-8.99h57.306c4.957 0 8.99 4.033 8.99 8.99v79.726c0 4.957-4.033 8.99-8.99 8.99zM96.074 37.562a4.013 4.013 0 0 0-4.008 4.008v79.726a4.012 4.012 0 0 0 4.008 4.007h57.306a4.012 4.012 0 0 0 4.008-4.007V41.57a4.013 4.013 0 0 0-4.008-4.008H96.074z"/></g><g><path fill="#163F2A" d="M162.414 140.009H86.616c-4.818 0-8.737-3.92-8.737-8.738V32.224c0-4.818 3.919-8.738 8.737-8.738h75.798c4.818 0 8.737 3.92 8.737 8.738v99.046c0 4.819-3.92 8.739-8.737 8.739zM86.616 27.915a4.314 4.314 0 0 0-4.309 4.309v99.046a4.314 4.314 0 0 0 4.309 4.309h75.798a4.314 4.314 0 0 0 4.309-4.309V32.224a4.314 4.314 0 0 0-4.309-4.309H86.616z"/></g><g><path fill="#163F2A" d="M61.395 86.591h-31.52c-4.664 0-8.458-3.794-8.458-8.458V32.498c0-4.664 3.794-8.458 8.458-8.458h31.52c4.664 0 8.458 3.794 8.458 8.458v45.636c-.001 4.664-3.795 8.457-8.458 8.457zM29.874 28.469a4.033 4.033 0 0 0-4.029 4.029v45.636a4.033 4.033 0 0 0 4.029 4.029h31.52a4.033 4.033 0 0 0 4.029-4.029V32.498a4.033 4.033 0 0 0-4.029-4.029h-31.52z"/></g><g><path fill="#163F2A" d="M219.709 86.591h-31.52c-4.664 0-8.458-3.794-8.458-8.458V32.498c0-4.664 3.794-8.458 8.458-8.458h31.52c4.664 0 8.458 3.794 8.458 8.458v45.636c-.001 4.664-3.795 8.457-8.458 8.457zm-31.521-58.122a4.033 4.033 0 0 0-4.029 4.029v45.636a4.033 4.033 0 0 0 4.029 4.029h31.52a4.033 4.033 0 0 0 4.029-4.029V32.498a4.033 4.033 0 0 0-4.029-4.029h-31.52z"/></g><g><path fill="#163F2A" d="M98.896 34.414h4v94h-4z"/></g><g><path fill="#163F2A" d="M146.896 34.414h5v94h-5z"/></g></svg>