<svg xmlns="http://www.w3.org/2000/svg" viewBox="0 0 250 250"><path fill="#163F2A" stroke="#163F2A" stroke-width="2" stroke-miterlimit="10" d="M153.011 86.193h-26.655a2.612 2.612 0 0 1-2.604-2.604V70.362a2.612 2.612 0 0 1 2.604-2.604h26.655a2.612 2.612 0 0 1 2.604 2.604V83.59a2.612 2.612 0 0 1-2.604 2.603z"/><path fill-rule="evenodd" clip-rule="evenodd" fill="#163F2A" d="M200.046 97.911c-.214.936.648.686 1.028.822a16.072 16.072 0 0 1 11.11 16.052c-.303 7.119-5.581 13.184-12.92 14.845-6.402 1.454-13.771-1.947-16.987-7.874-4.967-9.105-.674-19.869 9.215-23.089.409-.132.906-.105 1.162-.524.009-.027-.039-.093-.069-.126-.044-.036-.086-.075-.128-.105l7.589-.001z"/><path fill="#183F2A" d="M124.896 254.062c-1.675 0-3-1.358-3-3.033v-77.046c0-1.675.943-2.57 2.618-2.57h13.168c2.316 0 4.214-2.592 4.214-4.93v-29.124c0-2.217-1.774-3.946-4.214-3.946h-13.168c-1.675 0-2.618-1.434-2.618-3.109V47.192c0-1.675.943-2.779 2.618-2.779h125.578c1.675 0 3.033 1.325 3.033 3s-1.358 3-3.033 3H127.896v77h9.786c5.785 0 11.214 4.383 11.214 9.946v29.124c0 5.71-5.527 9.93-11.214 9.93h-9.786v74.616c0 1.675-1.325 3.033-3 3.033z"/><path fill="#183F2A" d="M125.244 255.063a3.033 3.033 0 0 1-3.033-3.033v-77.357a3.033 3.033 0 0 1 3.033-3.033h124.671a3.033 3.033 0 0 1 0 6.066H128.277v74.323a3.033 3.033 0 0 1-3.033 3.034z"/><path fill-rule="evenodd" clip-rule="evenodd" fill="#163F2A" d="M54.266 97.911c-.214.936.648.686 1.028.822a16.072 16.072 0 0 1 11.11 16.052c-.303 7.119-5.581 13.184-12.92 14.845-6.402 1.454-13.771-1.947-16.987-7.874-4.967-9.105-.674-19.869 9.215-23.089.409-.132.906-.105 1.162-.524.009-.027-.039-.093-.069-.126-.044-.036-.086-.075-.128-.105l7.589-.001zM13.546 206.857c1.604 2.938 4.503 4.28 7.877 3.606 2.987-.593 4.947-2.944 5.279-6.282.063-.771.083-1.541.083-2.302.011-13.921-.004-27.845.018-41.761 0-.548-.38-1.397.418-1.559.832-.175 1.745-.045 2.615.018.293.045.15.433.15.701.027.493-.09.99-.09 1.484v92.651h19v-41.515c0-1.505 1.489-2.432 2.843-1.707.495.28.241.789.241 1.177.035 2.85-.002 5.758-.002 8.602 0 11.134-.015 22.442-.02 33.442h17.938v-92.916c0-2.011 1.495-2.453 3.508-2.02.65.145 1.492.53 1.492.957v42.929c0 .987-.469 1.995-.287 2.941.643 3.019 2.568 4.903 5.694 5.34 2.849.403 5.448-1.026 6.848-3.624.176-.331.321-.644.506-.978 0-.006-.399.024-.37.036.039.039-.39.09-.39.123v-55.961c0 .286-.073-.406-.159-.683-2.883-10.273-10.242-16.058-20.867-16.073-10.633-.015-21.138-.015-31.752-.015-10.412.015-17.882 5.71-20.764 15.724-.101.301-.237.581-.375.882 0 .006 0-.033-.026-.051a.106.106 0 0 1-.058-.102v56.281c1.123-.35.507.396.65.655zM172.57 173.414c.002-4 .003-8.835.009-13.207 0-.548-.378-1.441.42-1.603.832-.175 1.746-.067 2.616-.004.293.045.261.422.261.69.027.494.021.979.021 1.473v12.651h41v-12.916c0-2.011-.005-2.453 2.008-2.02.65.145-.008.53-.008.957v13.979h15V150.24c-1 .286-.683-.406-.769-.683-2.883-10.273-10.547-16.058-21.172-16.073-10.633-.015-21.29-.015-31.905-.015-10.412.015-17.958 5.71-20.84 15.724-.101.301-.275.581-.413.882 0 .006.09-.033.065-.051-.057-.03.033-.081.033-.102v23.493h13.674z"/></svg>