<svg xmlns="http://www.w3.org/2000/svg" viewBox="0 0 250 250"><text transform="translate(85.896 102.494)" fill="#163F2A" font-family="'Material-Design-Iconic-Font'" font-size="78.565"></text><path fill="none" stroke="#163F2A" stroke-width="6" stroke-miterlimit="10" d="M90.558 253.067H15.795c-4.181 0-7.603-3.421-7.603-7.603v-56.572c0-4.181 3.421-7.603 7.603-7.603h74.763c4.181 0 7.603 3.421 7.603 7.603v56.572c0 4.182-3.421 7.603-7.603 7.603zM232.749 253.661h-74.386c-4.244 0-7.716-3.472-7.716-7.716v-58.632c0-4.244 3.472-7.716 7.716-7.716h74.386c4.244 0 7.716 3.472 7.716 7.716v58.632c0 4.243-3.472 7.716-7.716 7.716z"/><path fill="#163F2A" stroke="#FFF" stroke-width="3" stroke-miterlimit="10" d="M69.879 186.083c0 8.908-7.221 16.128-16.129 16.128-8.908 0-16.128-7.221-16.128-16.128s7.221-16.129 16.128-16.129c8.909 0 16.129 7.222 16.129 16.129M212.516 186.083c0 8.908-7.221 16.128-16.129 16.128-8.908 0-16.128-7.221-16.128-16.128s7.221-16.129 16.128-16.129c8.908 0 16.129 7.222 16.129 16.129"/><path fill="#163F2A" d="M217.896 258.414v-25.425c0-.027.061.425-.064.425h-.046c-.027 0 .111-.125.111.247v24.753h-61.644l.012-1.487c.271-34.586.35-34.808.449-35.106 3.129-10.877 11.381-17.153 22.621-17.169 6.789 0 13.567.018 20.353.032l12.092.025c11.417.017 19.586 6.412 22.712 17.547.232.747.405 28.029.405 34.708v1.45h-17.001z"/><path fill="#FFF" d="M179.337 206.158c10.815 0 21.608.037 32.441.052 10.826.015 18.502 6.209 21.44 16.676.088.282.52 22.527.52 34.527h-13.841v-21.322-3.515c0-.435-.144-.828-.807-.975a7.678 7.678 0 0 0-1.396-.155c-1.152 0-1.797.629-1.797 2.212v23.753h-41v-23.484c0-.503.143-.98.116-1.483 0-.273.225-.64-.074-.686a20.433 20.433 0 0 0-1.468-.072c-.417 0-.842.028-1.236.111-.813.166-.433 1.37-.433 1.928-.012 7.742-.02 15.685-.02 23.685h-14.016s.269-34.573.372-34.88c2.935-10.2 10.59-16.357 21.199-16.372m0-2.744h-.004c-11.942 0-20.711 6.55-24.067 18.15-.003.011-.185-.043-.188-.031-.001.004-.181-.025-.181-.022v-.016c0 .654-.055 3.102-.311 35.678l.155 3.241H236.897v-3.45c0-6.944-.239-17.226-.307-21.324-.214-12.83-.309-13.349-.454-13.826-3.328-11.806-12.208-18.586-24.333-18.603-4.022-.006-8.049.114-12.063.105-6.801-.016-13.603.098-20.403.098z"/><path fill="#163F2A" d="M75.896 258.414v-25.425c0-.027.061.425-.064.425h-.046c-.027 0 .111-.125.111.247v24.753H14.252l.012-1.487c.271-34.586.35-34.808.449-35.106 3.129-10.877 11.381-17.153 22.621-17.169 6.789 0 13.567.018 20.353.032l12.092.025c11.417.017 19.586 6.412 22.712 17.547.232.747.405 28.029.405 34.708v1.45h-17z"/><path fill="#FFF" d="M37.337 206.158c10.815 0 21.608.037 32.441.052 10.826.015 18.502 6.209 21.44 16.676.088.282.52 22.527.52 34.527H77.896v-21.322-3.515c0-.435-.144-.828-.807-.975a7.678 7.678 0 0 0-1.396-.155c-1.152 0-1.797.629-1.797 2.212v23.753h-41v-23.484c0-.503.143-.98.116-1.483 0-.273.225-.64-.074-.686a20.433 20.433 0 0 0-1.468-.072c-.417 0-.842.028-1.236.111-.813.166-.433 1.37-.433 1.928-.012 7.742-.02 15.685-.02 23.685H15.764s.269-34.573.372-34.88c2.937-10.2 10.592-16.357 21.201-16.372m0-2.744h-.004c-11.942 0-20.711 6.55-24.067 18.15-.003.011-.006-.043-.01-.031-.001.004-.002-.025-.003-.022v-.016c-.174.654-.234 3.102-.489 35.678l-.024 3.241H94.896v-3.45c0-6.944-.239-17.226-.307-21.324-.214-12.83-.309-13.349-.454-13.826-3.328-11.806-12.208-18.586-24.333-18.603-4.022-.006-8.049.114-12.063.105-6.8-.016-13.602.098-20.402.098z"/><path fill="none" stroke="#163F2A" stroke-width="6" stroke-miterlimit="10" d="M-6.376 161.798s31.289-20.378 39.304-21.199 83.46 0 83.46 0h19.177s75.444-.821 83.46 0c8.016.821 39.304 21.199 39.304 21.199"/><path fill="#163F2A" d="M159.687 222.879h71.07v25.816h-71.07z"/><circle fill="none" stroke="#FFF" stroke-width="7" stroke-miterlimit="10" cx="195.619" cy="244.082" r="26.096"/></svg>