<svg xmlns="http://www.w3.org/2000/svg" viewBox="0 0 250 250"><path fill="#163F2A" d="M210.645 194.642H39.783c-6.009 0-10.898-4.889-10.898-10.898V94.766c0-6.009 4.889-10.898 10.898-10.898h170.861c6.009 0 10.898 4.889 10.898 10.898v88.977c.001 6.01-4.888 10.899-10.897 10.899zM39.783 90.191a4.581 4.581 0 0 0-4.576 4.576v88.977a4.581 4.581 0 0 0 4.576 4.576h170.861a4.581 4.581 0 0 0 4.576-4.576V94.766a4.581 4.581 0 0 0-4.576-4.576H39.783z"/><path fill="#163F2A" d="M76.313 138.379c-1.02.884-5.124 4.603-5.759 11.858h-3.718c.612-7.618 5.26-11.722 5.26-11.722h-7.21v-2.993h11.428v2.857zM78.284 137.698c.975-1.474 2.607-2.517 4.988-2.517 2.403 0 4.036 1.043 5.01 2.517 1.02 1.542 1.293 3.378 1.293 5.192s-.272 3.65-1.293 5.192c-.975 1.451-2.607 2.517-5.01 2.517-2.381 0-4.013-1.066-4.988-2.517-1.02-1.542-1.293-3.378-1.293-5.192s.273-3.65 1.293-5.192zm2.834 8.389c.408.816 1.066 1.361 2.154 1.361 1.111 0 1.745-.544 2.154-1.361.431-.862.567-2.018.567-3.197 0-1.179-.136-2.335-.567-3.197-.409-.816-1.043-1.361-2.154-1.361-1.088 0-1.746.544-2.154 1.361-.408.862-.544 2.018-.544 3.197 0 1.179.136 2.336.544 3.197zM93.178 145.793c1.27 0 2.336 1.043 2.336 2.312 0 1.247-1.066 2.335-2.336 2.335-1.269 0-2.312-1.088-2.312-2.335a2.322 2.322 0 0 1 2.312-2.312zM98.574 137.698c.975-1.474 2.607-2.517 4.988-2.517 2.403 0 4.036 1.043 5.01 2.517 1.02 1.542 1.293 3.378 1.293 5.192s-.272 3.65-1.293 5.192c-.975 1.451-2.607 2.517-5.01 2.517-2.381 0-4.013-1.066-4.988-2.517-1.02-1.542-1.293-3.378-1.293-5.192s.272-3.65 1.293-5.192zm2.834 8.389c.408.816 1.066 1.361 2.154 1.361 1.111 0 1.745-.544 2.154-1.361.431-.862.567-2.018.567-3.197 0-1.179-.136-2.335-.567-3.197-.409-.816-1.043-1.361-2.154-1.361-1.088 0-1.746.544-2.154 1.361-.408.862-.544 2.018-.544 3.197 0 1.179.136 2.336.544 3.197zM112.788 137.698c.975-1.474 2.607-2.517 4.988-2.517 2.403 0 4.036 1.043 5.01 2.517 1.02 1.542 1.293 3.378 1.293 5.192s-.272 3.65-1.293 5.192c-.975 1.451-2.607 2.517-5.01 2.517-2.381 0-4.013-1.066-4.988-2.517-1.02-1.542-1.293-3.378-1.293-5.192s.272-3.65 1.293-5.192zm2.834 8.389c.408.816 1.066 1.361 2.154 1.361 1.111 0 1.745-.544 2.154-1.361.431-.862.567-2.018.567-3.197 0-1.179-.136-2.335-.567-3.197-.409-.816-1.043-1.361-2.154-1.361-1.088 0-1.746.544-2.154 1.361-.408.862-.544 2.018-.544 3.197 0 1.179.136 2.336.544 3.197z"/><g><path fill="#163F2A" d="M133.54 174.853H55.53c-4.735 0-8.587-3.852-8.587-8.587v-45.357c0-4.735 3.852-8.587 8.587-8.587h78.009c4.735 0 8.587 3.852 8.587 8.587v45.357c.001 4.735-3.851 8.587-8.586 8.587zm-78.01-56.208a2.266 2.266 0 0 0-2.264 2.264v45.357c0 1.227 1.037 2.264 2.264 2.264h78.009a2.266 2.266 0 0 0 2.264-2.264v-45.357a2.266 2.266 0 0 0-2.264-2.264H55.53z"/></g><g><path fill="#163F2A" d="M209.835 195.508H40.937c-6.55 0-11.88-5.329-11.88-11.88V68.44c0-6.55 5.329-11.88 11.88-11.88h168.899c6.551 0 11.88 5.329 11.88 11.88v115.188c-.001 6.55-5.33 11.88-11.881 11.88zM40.937 62.883a5.563 5.563 0 0 0-5.557 5.557v115.188a5.563 5.563 0 0 0 5.557 5.557h168.899a5.563 5.563 0 0 0 5.557-5.557V68.44a5.563 5.563 0 0 0-5.557-5.557H40.937z"/></g><g><path fill="#163F2A" d="M196.277 144.878h-38.371a5.767 5.767 0 0 1-5.761-5.76V118.01a5.767 5.767 0 0 1 5.761-5.761h38.371a5.767 5.767 0 0 1 5.76 5.761v21.108a5.765 5.765 0 0 1-5.76 5.76zm-37.808-6.322h37.246v-19.983h-37.246v19.983z"/></g></svg>