<svg xmlns="http://www.w3.org/2000/svg" viewBox="0 0 250 250"><path fill="#163F2A" d="M70.073 117.772l-15.458-5.384c.13-.362 3.229-9.005 7.028-17.762 7.282-16.785 11.71-22.213 18.225-22.213h48.028v16H82.809c-3.1 5.001-8.757 18.279-12.736 29.359z"/><path fill="#163F2A" d="M179.947 118.007c-4.432-11.246-10.637-24.594-13.896-29.594h-43.155v-16h45.972c4.531 0 10.738-.044 26.361 39.618l-15.282 5.976z"/><path fill="#163F2A" d="M188.481 112.414H62.186c-13.479 0-25.29 11.931-25.29 25.41v10.452c0 10.512 7 19.507 17 22.969v15.989c0 4.963 3.91 8.181 8.873 8.181h8.645c4.963 0 7.482-3.218 7.482-8.181v-12.819h90v12.819c0 4.963 4.232 8.181 9.195 8.181h8.645c4.963 0 9.161-3.218 9.161-8.181v-15.561c9-3.119 17-12.449 17-23.396v-10.452c-.001-13.48-10.938-25.411-24.416-25.411zM61.276 145.147a8.914 8.914 0 1 1 8.914-8.914 8.913 8.913 0 0 1-8.914 8.914zm127.388 0a8.914 8.914 0 1 1 0-17.828 8.914 8.914 0 0 1 0 17.828z"/><path fill="#163F2A" stroke="#163F2A" stroke-width="2.571" stroke-miterlimit="10" d="M130.184 66.983h-14.957c-3.908 0-7.105-3.197-7.105-7.105v-.288c0-3.908 3.197-7.105 7.105-7.105h14.957c3.908 0 7.105 3.197 7.105 7.105v.288c0 3.908-3.197 7.105-7.105 7.105z"/><path fill="#163F2A" d="M56.12 118.597H38.367c-4.445 0-8.082-3.637-8.082-8.082v-1.137c0-4.445 3.637-8.082 8.082-8.082H56.12c4.445 0 8.082 3.637 8.082 8.082v1.137c0 4.446-3.637 8.082-8.082 8.082zM209.955 117.775h-16.049c-4.758 0-8.65-3.893-8.65-8.65 0-4.758 3.893-8.65 8.65-8.65h16.049c4.758 0 8.65 3.893 8.65 8.65.001 4.757-3.892 8.65-8.65 8.65z"/></svg>