<svg xmlns="http://www.w3.org/2000/svg" viewBox="0 0 250 250"><path fill="#183F2A" d="M133.5 101.654l1.924-23.212c-5.704-.439-18.505-1.986-27.255-7.28-14.83-8.972-18.144-22.247-18.277-22.807a2.759 2.759 0 0 1 5.364-1.291c.029.116 2.998 11.65 15.769 19.378 10.081 6.099 27.286 6.647 27.459 6.652l2.913.081-1.179 14.231 13.386-13.043 1.198.057c.095.004 9.639.453 19.05.453a2.76 2.76 0 0 1 0 5.518c-7.572 0-15.222-.286-18.11-.407l-22.242 21.67z"/><path fill="#163F2A" d="M223.252 57.541H122.508a6.704 6.704 0 0 1-6.696-6.696V22.61a6.704 6.704 0 0 1 6.696-6.696h100.744a6.704 6.704 0 0 1 6.696 6.696v28.235a6.704 6.704 0 0 1-6.696 6.696zM122.508 20.879c-.938 0-1.731.793-1.731 1.731v28.235c0 .938.793 1.731 1.731 1.731h100.744c.938 0 1.731-.793 1.731-1.731V22.61c0-.938-.793-1.731-1.731-1.731H122.508z"/><g fill="#163F2A"><path d="M143.297 41.622h-5.292l-.985 2.781h-3.206l5.157-13.693h3.534l5.099 13.693h-3.322l-.985-2.781zm-4.288-2.781h3.322l-1.642-4.732-1.68 4.732zM154.4 30.71c2.704 0 4.268 1.564 4.268 3.669 0 1.41-.889 2.569-2.009 2.936 1.236.29 2.434 1.429 2.434 3.206 0 2.24-1.7 3.882-4.288 3.882h-5.523V30.71h5.118zm-.483 5.485c1.063 0 1.758-.56 1.758-1.487 0-.889-.599-1.468-1.796-1.468h-1.622v2.955h1.66zm.251 5.717c1.178 0 1.893-.618 1.893-1.603 0-.946-.695-1.603-1.893-1.603h-1.912v3.206h1.912zM160.405 37.586c0-4.268 3.245-7.165 7.069-7.165 4.114 0 5.929 2.646 6.374 4.616l-2.878.908c-.212-.946-1.081-2.549-3.496-2.549-1.835 0-3.901 1.313-3.901 4.191 0 2.569 1.892 4.056 3.94 4.056 2.376 0 3.322-1.584 3.592-2.569l2.916.831c-.444 1.893-2.259 4.789-6.508 4.789-3.94-.001-7.108-2.84-7.108-7.108zM178.893 44.403v-9.546h-3.507v-2.375c2.195-.022 3.756-1.267 4.004-2.76h3.054v14.682h-3.551zM185.408 35.581c-.068-.181-.136-.769-.136-1.221 0-2.624 1.968-4.977 5.497-4.977 3.37 0 5.452 2.194 5.452 4.818 0 1.9-1.018 3.461-2.896 4.57l-2.782 1.651c-.43.272-.792.566-.996.995h6.787v2.986h-11.152c0-2.692.769-4.909 3.461-6.47l2.398-1.403c1.154-.679 1.606-1.289 1.606-2.262 0-.928-.656-1.742-1.968-1.742-1.38 0-2.059.95-2.059 2.172 0 .294.045.611.136.905l-3.348-.022zM200.247 35.671l3.619-2.963h-6.13v-2.986h10.587v2.76l-3.619 2.805c2.262.158 4.117 1.968 4.117 4.479 0 2.602-2.149 4.954-5.769 4.954-3.416 0-5.587-2.194-5.814-4.705l3.439-.633c.045 1.289.973 2.307 2.352 2.307s2.194-.928 2.194-2.013c0-1.403-1.086-1.991-2.126-1.991-.475 0-.973.158-1.312.339l-1.538-2.353z"/></g><g><path fill="#183F2A" d="M96.055 230.817h-54.49c-10.228 0-18.55-8.321-18.55-18.55V94.879c0-10.228 8.321-18.55 18.55-18.55h54.49c10.228 0 18.55 8.321 18.55 18.55v117.389c0 10.228-8.321 18.549-18.55 18.549zm-54.49-148.97c-7.186 0-13.032 5.846-13.032 13.032v117.389c0 7.186 5.846 13.032 13.032 13.032h54.49c7.186 0 13.032-5.846 13.032-13.032V94.879c0-7.186-5.846-13.032-13.032-13.032h-54.49z"/><path fill="#183F2A" d="M90.328 154.677H47.292c-5.172 0-9.38-4.208-9.38-9.38v-37.519c0-5.172 4.208-9.38 9.38-9.38h43.036c5.172 0 9.38 4.208 9.38 9.38v37.519c0 5.172-4.208 9.38-9.38 9.38zm-43.036-50.76a3.866 3.866 0 0 0-3.862 3.862v37.519a3.866 3.866 0 0 0 3.862 3.862h43.036a3.866 3.866 0 0 0 3.862-3.862v-37.519a3.866 3.866 0 0 0-3.862-3.862H47.292zM52.098 179.701H42.82a4.584 4.584 0 0 1-4.578-4.578v-9.997a4.584 4.584 0 0 1 4.578-4.578h9.278a4.584 4.584 0 0 1 4.578 4.578v9.997a4.584 4.584 0 0 1-4.578 4.578zm-8.338-5.518h7.399v-8.117H43.76v8.117zM73.113 179.701h-9.278a4.584 4.584 0 0 1-4.578-4.578v-9.997a4.584 4.584 0 0 1 4.578-4.578h9.278a4.584 4.584 0 0 1 4.578 4.578v9.997a4.584 4.584 0 0 1-4.578 4.578zm-8.338-5.518h7.399v-8.117h-7.399v8.117zM93.916 179.701h-9.278a4.584 4.584 0 0 1-4.578-4.578v-9.997a4.584 4.584 0 0 1 4.578-4.578h9.278a4.584 4.584 0 0 1 4.578 4.578v9.997a4.584 4.584 0 0 1-4.578 4.578zm-8.339-5.518h7.399v-8.117h-7.399v8.117zM52.098 201.771H42.82a4.584 4.584 0 0 1-4.578-4.578v-9.997a4.584 4.584 0 0 1 4.578-4.578h9.278a4.584 4.584 0 0 1 4.578 4.578v9.997a4.583 4.583 0 0 1-4.578 4.578zm-8.338-5.517h7.399v-8.117H43.76v8.117zM73.113 201.771h-9.278a4.584 4.584 0 0 1-4.578-4.578v-9.997a4.584 4.584 0 0 1 4.578-4.578h9.278a4.584 4.584 0 0 1 4.578 4.578v9.997a4.583 4.583 0 0 1-4.578 4.578zm-8.338-5.517h7.399v-8.117h-7.399v8.117zM93.916 201.771h-9.278a4.584 4.584 0 0 1-4.578-4.578v-9.997a4.584 4.584 0 0 1 4.578-4.578h9.278a4.584 4.584 0 0 1 4.578 4.578v9.997a4.583 4.583 0 0 1-4.578 4.578zm-8.339-5.517h7.399v-8.117h-7.399v8.117z"/></g></svg>