<?xml version="1.0" encoding="utf-8"?>
<!-- Generator: Adobe Illustrator 18.0.0, SVG Export Plug-In . SVG Version: 6.00 Build 0)  -->
<!DOCTYPE svg PUBLIC "-//W3C//DTD SVG 1.1//EN" "http://www.w3.org/Graphics/SVG/1.1/DTD/svg11.dtd">
<svg version="1.1" xmlns="http://www.w3.org/2000/svg" xmlns:xlink="http://www.w3.org/1999/xlink" x="0px" y="0px"
	 viewBox="0 0 250 250" enable-background="new 0 0 250 250" xml:space="preserve">
<g id="Guides">
</g>
<g id="_x31_2_Col_Grid" opacity="0.1" enable-background="new    ">
</g>
<g id="Layer_3">
	<g>
		<g>
			<path fill="#163F2A" d="M70.073,117.772l-15.458-5.384c0.13-0.362,3.229-9.005,7.028-17.762
				c7.282-16.785,11.71-22.213,18.225-22.213h48.028v16H82.809C79.709,93.414,74.052,106.692,70.073,117.772z"/>
		</g>
		<g>
			<path fill="#163F2A" d="M179.947,118.007c-4.432-11.246-10.637-24.594-13.896-29.594h-43.155v-16h45.972
				c4.531,0,10.738-0.044,26.361,39.618L179.947,118.007z"/>
		</g>
	</g>
	<path fill="#163F2A" d="M188.481,112.414H62.186c-13.479,0-25.29,11.931-25.29,25.41v10.452c0,10.512,7,19.507,17,22.969v15.989
		c0,4.963,3.91,8.181,8.873,8.181h8.645c4.963,0,7.482-3.218,7.482-8.181v-12.819h90v12.819c0,4.963,4.232,8.181,9.195,8.181h8.645
		c4.963,0,9.161-3.218,9.161-8.181v-15.561c9-3.119,17-12.449,17-23.396v-10.452C212.896,124.345,201.959,112.414,188.481,112.414z
		 M61.276,145.147c-4.923,0-8.914-3.991-8.914-8.914c0-4.923,3.991-8.914,8.914-8.914c4.923,0,8.914,3.991,8.914,8.914
		C70.191,141.156,66.2,145.147,61.276,145.147z M188.664,145.147c-4.923,0-8.914-3.991-8.914-8.914c0-4.923,3.991-8.914,8.914-8.914
		s8.914,3.991,8.914,8.914C197.578,141.156,193.587,145.147,188.664,145.147z"/>
	<path fill="#163F2A" stroke="#163F2A" stroke-width="2.5709" stroke-miterlimit="10" d="M130.184,66.983h-14.957
		c-3.908,0-7.105-3.197-7.105-7.105V59.59c0-3.908,3.197-7.105,7.105-7.105h14.957c3.908,0,7.105,3.197,7.105,7.105v0.288
		C137.289,63.786,134.092,66.983,130.184,66.983z"/>
	<path fill="#163F2A" d="M56.12,118.597H38.367c-4.445,0-8.082-3.637-8.082-8.082v-1.137c0-4.445,3.637-8.082,8.082-8.082H56.12
		c4.445,0,8.082,3.637,8.082,8.082v1.137C64.202,114.961,60.565,118.597,56.12,118.597z"/>
	<path fill="#163F2A" d="M209.955,117.775h-16.049c-4.758,0-8.65-3.893-8.65-8.65v0c0-4.758,3.893-8.65,8.65-8.65h16.049
		c4.758,0,8.65,3.893,8.65,8.65v0C218.606,113.882,214.713,117.775,209.955,117.775z"/>
</g>
<g id="Layer_4">
</g>
</svg>
