<?xml version="1.0" encoding="utf-8"?>
<!-- Generator: Adobe Illustrator 18.0.0, SVG Export Plug-In . SVG Version: 6.00 Build 0)  -->
<!DOCTYPE svg PUBLIC "-//W3C//DTD SVG 1.1//EN" "http://www.w3.org/Graphics/SVG/1.1/DTD/svg11.dtd">
<svg version="1.1" xmlns="http://www.w3.org/2000/svg" xmlns:xlink="http://www.w3.org/1999/xlink" x="0px" y="0px"
	 viewBox="0 0 250 250" enable-background="new 0 0 250 250" xml:space="preserve">
<g id="Guides">
</g>
<g id="_x31_2_Col_Grid" opacity="0.1" enable-background="new    ">
</g>
<g id="Layer_3">
	<g>
		
			<text transform="matrix(1 0 0 1 85.8958 102.4937)" fill="#163F2A" font-family="'Material-Design-Iconic-Font'" font-size="78.565"></text>
	</g>
	<path fill="none" stroke="#163F2A" stroke-width="6" stroke-miterlimit="10" d="M90.558,253.067H15.795
		c-4.181,0-7.603-3.421-7.603-7.603v-56.572c0-4.181,3.421-7.603,7.603-7.603h74.763c4.181,0,7.603,3.421,7.603,7.603v56.572
		C98.161,249.646,94.74,253.067,90.558,253.067z"/>
	<path fill="none" stroke="#163F2A" stroke-width="6" stroke-miterlimit="10" d="M232.749,253.661h-74.386
		c-4.244,0-7.716-3.472-7.716-7.716v-58.632c0-4.244,3.472-7.716,7.716-7.716h74.386c4.244,0,7.716,3.472,7.716,7.716v58.632
		C240.465,250.188,236.993,253.661,232.749,253.661z"/>
	<path fill="#163F2A" stroke="#FFFFFF" stroke-width="3" stroke-miterlimit="10" d="M69.879,186.083
		c0,8.908-7.221,16.128-16.129,16.128c-8.908,0-16.128-7.221-16.128-16.128s7.221-16.129,16.128-16.129
		C62.659,169.954,69.879,177.176,69.879,186.083"/>
	<path fill="#163F2A" stroke="#FFFFFF" stroke-width="3" stroke-miterlimit="10" d="M212.516,186.083
		c0,8.908-7.221,16.128-16.129,16.128c-8.908,0-16.128-7.221-16.128-16.128s7.221-16.129,16.128-16.129
		C205.295,169.954,212.516,177.176,212.516,186.083"/>
	<g>
		<path fill="#163F2A" d="M217.896,258.414v-25.425c0-0.027,0.061,0.425-0.064,0.425c-0.017,0-0.032,0-0.046,0
			c-0.027,0,0.111-0.125,0.111,0.247V258.414h-61.644l0.012-1.487c0.271-34.586,0.35-34.808,0.449-35.106
			c3.129-10.877,11.381-17.153,22.621-17.169c6.789,0,13.567,0.018,20.353,0.032l12.092,0.025
			c11.417,0.017,19.586,6.412,22.712,17.547c0.232,0.747,0.405,28.029,0.405,34.708v1.45H217.896z"/>
		<path fill="#FFFFFF" d="M179.337,206.158c10.815,0,21.608,0.037,32.441,0.052c10.826,0.015,18.502,6.209,21.44,16.676
			c0.088,0.282,0.52,22.527,0.52,34.527h-13.841c0-8,0-14.516,0-21.322c0-1.172,0-2.352,0-3.515c0-0.435-0.144-0.828-0.807-0.975
			c-0.466-0.1-1.057-0.155-1.396-0.155c-1.152,0-1.797,0.629-1.797,2.212c0,7.606,0,15.753,0,23.753h-41c0-8,0-15.964,0-23.484
			c0-0.503,0.143-0.98,0.116-1.483c0-0.273,0.225-0.64-0.074-0.686c-0.474-0.035-0.988-0.072-1.468-0.072
			c-0.417,0-0.842,0.028-1.236,0.111c-0.813,0.166-0.433,1.37-0.433,1.928c-0.012,7.742-0.02,15.685-0.02,23.685h-14.016
			c0,0,0.269-34.573,0.372-34.88C161.073,212.33,168.728,206.173,179.337,206.158 M179.337,203.414h-0.002h-0.002
			c-11.942,0-20.711,6.55-24.067,18.15c-0.003,0.011-0.185-0.043-0.188-0.031c-0.001,0.004-0.181-0.025-0.181-0.022v-0.016
			c0,0.654-0.055,3.102-0.311,35.678l0.155,3.241h3.024h14.016h3h41.448h3h0.561h13.948h3.159v-3.45
			c0-6.944-0.239-17.226-0.307-21.324c-0.214-12.83-0.309-13.349-0.454-13.826c-3.328-11.806-12.208-18.586-24.333-18.603
			c-4.022-0.006-8.049,0.114-12.063,0.105C192.939,203.3,186.137,203.414,179.337,203.414L179.337,203.414z"/>
	</g>
	<g>
		<path fill="#163F2A" d="M75.896,258.414v-25.425c0-0.027,0.061,0.425-0.064,0.425c-0.017,0-0.032,0-0.046,0
			c-0.027,0,0.111-0.125,0.111,0.247V258.414H14.252l0.012-1.487c0.271-34.586,0.35-34.808,0.449-35.106
			c3.129-10.877,11.381-17.153,22.621-17.169c6.789,0,13.567,0.018,20.353,0.032l12.092,0.025
			c11.417,0.017,19.586,6.412,22.712,17.547c0.232,0.747,0.405,28.029,0.405,34.708v1.45H75.896z"/>
		<path fill="#FFFFFF" d="M37.337,206.158c10.815,0,21.608,0.037,32.441,0.052c10.826,0.015,18.502,6.209,21.44,16.676
			c0.088,0.282,0.52,22.527,0.52,34.527H77.896c0-8,0-14.516,0-21.322c0-1.172,0-2.352,0-3.515c0-0.435-0.144-0.828-0.807-0.975
			c-0.466-0.1-1.057-0.155-1.396-0.155c-1.152,0-1.797,0.629-1.797,2.212c0,7.606,0,15.753,0,23.753h-41c0-8,0-15.964,0-23.484
			c0-0.503,0.143-0.98,0.116-1.483c0-0.273,0.225-0.64-0.074-0.686c-0.474-0.035-0.988-0.072-1.468-0.072
			c-0.417,0-0.842,0.028-1.236,0.111c-0.813,0.166-0.433,1.37-0.433,1.928c-0.012,7.742-0.02,15.685-0.02,23.685H15.764
			c0,0,0.269-34.573,0.372-34.88C19.073,212.33,26.728,206.173,37.337,206.158 M37.337,203.414h-0.002h-0.002
			c-11.942,0-20.711,6.55-24.067,18.15c-0.003,0.011-0.006-0.043-0.01-0.031c-0.001,0.004-0.002-0.025-0.003-0.022l0-0.016
			c-0.174,0.654-0.234,3.102-0.489,35.678l-0.024,3.241h3.024H29.78h3h41.448h3h0.561h13.948h3.159v-3.45
			c0-6.944-0.239-17.226-0.307-21.324c-0.214-12.83-0.309-13.349-0.454-13.826c-3.328-11.806-12.208-18.586-24.333-18.603
			c-4.022-0.006-8.049,0.114-12.063,0.105C50.939,203.3,44.137,203.414,37.337,203.414L37.337,203.414z"/>
	</g>
	<path fill="none" stroke="#163F2A" stroke-width="6" stroke-miterlimit="10" d="M-6.376,161.798c0,0,31.289-20.378,39.304-21.199
		s83.46,0,83.46,0h19.177c0,0,75.444-0.821,83.46,0c8.016,0.821,39.304,21.199,39.304,21.199"/>
	<rect x="159.687" y="222.879" fill="#163F2A" width="71.07" height="25.816"/>
	<circle fill="none" stroke="#FFFFFF" stroke-width="7" stroke-miterlimit="10" cx="195.619" cy="244.082" r="26.096"/>
</g>
<g id="Layer_4">
</g>
</svg>
