<?xml version="1.0" encoding="utf-8"?>
<!-- Generator: Adobe Illustrator 18.0.0, SVG Export Plug-In . SVG Version: 6.00 Build 0)  -->
<!DOCTYPE svg PUBLIC "-//W3C//DTD SVG 1.1//EN" "http://www.w3.org/Graphics/SVG/1.1/DTD/svg11.dtd">
<svg version="1.1" xmlns="http://www.w3.org/2000/svg" xmlns:xlink="http://www.w3.org/1999/xlink" x="0px" y="0px"
	 viewBox="0 0 250 250" enable-background="new 0 0 250 250" xml:space="preserve">
<g id="Guides">
</g>
<g id="_x31_2_Col_Grid" opacity="0.1" enable-background="new    ">
</g>
<g id="Layer_3">
	<g>
		<path fill="#183F2A" d="M133.5,101.654l1.924-23.212c-5.704-0.439-18.505-1.986-27.255-7.28
			c-14.83-8.972-18.144-22.247-18.277-22.807c-0.354-1.482,0.561-2.97,2.043-3.324c1.478-0.353,2.963,0.557,3.321,2.033l0,0
			c0.029,0.116,2.998,11.65,15.769,19.378c10.081,6.099,27.286,6.647,27.459,6.652l2.913,0.081l-1.179,14.231l13.386-13.043
			l1.198,0.057c0.095,0.004,9.639,0.453,19.05,0.453c1.523,0,2.759,1.235,2.759,2.759s-1.235,2.759-2.759,2.759
			c-7.572,0-15.222-0.286-18.11-0.407L133.5,101.654z"/>
	</g>
	<g>
		<path fill="#163F2A" d="M223.252,57.541H122.508c-3.692,0-6.696-3.004-6.696-6.696V22.61c0-3.692,3.004-6.696,6.696-6.696h100.744
			c3.692,0,6.696,3.004,6.696,6.696v28.235C229.948,54.537,226.944,57.541,223.252,57.541z M122.508,20.879
			c-0.938,0-1.731,0.793-1.731,1.731v28.235c0,0.938,0.793,1.731,1.731,1.731h100.744c0.938,0,1.731-0.793,1.731-1.731V22.61
			c0-0.938-0.793-1.731-1.731-1.731H122.508z"/>
	</g>
	<g>
		<path fill="#163F2A" d="M143.297,41.622h-5.292l-0.985,2.781h-3.206l5.157-13.693h3.534l5.099,13.693h-3.322L143.297,41.622z
			 M139.009,38.841h3.322l-1.642-4.732L139.009,38.841z"/>
		<path fill="#163F2A" d="M154.4,30.71c2.704,0,4.268,1.564,4.268,3.669c0,1.41-0.889,2.569-2.009,2.936
			c1.236,0.29,2.434,1.429,2.434,3.206c0,2.24-1.7,3.882-4.288,3.882h-5.523V30.71H154.4z M153.917,36.195
			c1.063,0,1.758-0.56,1.758-1.487c0-0.889-0.599-1.468-1.796-1.468h-1.622v2.955H153.917z M154.168,41.912
			c1.178,0,1.893-0.618,1.893-1.603c0-0.946-0.695-1.603-1.893-1.603h-1.912v3.206H154.168z"/>
		<path fill="#163F2A" d="M160.405,37.586c0-4.268,3.245-7.165,7.069-7.165c4.114,0,5.929,2.646,6.374,4.616l-2.878,0.908
			c-0.212-0.946-1.081-2.549-3.496-2.549c-1.835,0-3.901,1.313-3.901,4.191c0,2.569,1.892,4.056,3.94,4.056
			c2.376,0,3.322-1.584,3.592-2.569l2.916,0.831c-0.444,1.893-2.259,4.789-6.508,4.789
			C163.573,44.693,160.405,41.854,160.405,37.586z"/>
		<path fill="#163F2A" d="M178.893,44.403v-9.546h-3.507v-2.375c2.195-0.022,3.756-1.267,4.004-2.76h3.054v14.682H178.893z"/>
		<path fill="#163F2A" d="M185.408,35.581c-0.068-0.181-0.136-0.769-0.136-1.221c0-2.624,1.968-4.977,5.497-4.977
			c3.37,0,5.452,2.194,5.452,4.818c0,1.9-1.018,3.461-2.896,4.57l-2.782,1.651c-0.43,0.272-0.792,0.566-0.996,0.995h6.787v2.986
			h-11.152c0-2.692,0.769-4.909,3.461-6.47l2.398-1.403c1.154-0.679,1.606-1.289,1.606-2.262c0-0.928-0.656-1.742-1.968-1.742
			c-1.38,0-2.059,0.95-2.059,2.172c0,0.294,0.045,0.611,0.136,0.905L185.408,35.581z"/>
		<path fill="#163F2A" d="M200.247,35.671l3.619-2.963h-6.13v-2.986h10.587v2.76l-3.619,2.805c2.262,0.158,4.117,1.968,4.117,4.479
			c0,2.602-2.149,4.954-5.769,4.954c-3.416,0-5.587-2.194-5.814-4.705l3.439-0.633c0.045,1.289,0.973,2.307,2.352,2.307
			s2.194-0.928,2.194-2.013c0-1.403-1.086-1.991-2.126-1.991c-0.475,0-0.973,0.158-1.312,0.339L200.247,35.671z"/>
	</g>
</g>
<g id="Layer_4">
	<g>
		<path fill="#183F2A" d="M96.055,230.817h-54.49c-10.228,0-18.55-8.321-18.55-18.55V94.879c0-10.228,8.321-18.55,18.55-18.55h54.49
			c10.228,0,18.55,8.321,18.55,18.55v117.389C114.605,222.496,106.284,230.817,96.055,230.817z M41.565,81.847
			c-7.186,0-13.032,5.846-13.032,13.032v117.389c0,7.186,5.846,13.032,13.032,13.032h54.49c7.186,0,13.032-5.846,13.032-13.032
			V94.879c0-7.186-5.846-13.032-13.032-13.032H41.565z"/>
	</g>
	<g>
		<path fill="#183F2A" d="M90.328,154.677H47.292c-5.172,0-9.38-4.208-9.38-9.38v-37.519c0-5.172,4.208-9.38,9.38-9.38h43.036
			c5.172,0,9.38,4.208,9.38,9.38v37.519C99.708,150.469,95.5,154.677,90.328,154.677z M47.292,103.917
			c-2.13,0-3.862,1.733-3.862,3.862v37.519c0,2.13,1.733,3.862,3.862,3.862h43.036c2.13,0,3.862-1.733,3.862-3.862v-37.519
			c0-2.13-1.733-3.862-3.862-3.862H47.292z"/>
	</g>
	<g>
		<path fill="#183F2A" d="M52.098,179.701H42.82c-2.524,0-4.578-2.054-4.578-4.578v-9.997c0-2.524,2.054-4.578,4.578-4.578h9.278
			c2.524,0,4.578,2.054,4.578,4.578v9.997C56.676,177.647,54.622,179.701,52.098,179.701z M43.76,174.183h7.399v-8.117H43.76
			V174.183z"/>
	</g>
	<g>
		<path fill="#183F2A" d="M73.113,179.701h-9.278c-2.524,0-4.578-2.054-4.578-4.578v-9.997c0-2.524,2.054-4.578,4.578-4.578h9.278
			c2.524,0,4.578,2.054,4.578,4.578v9.997C77.691,177.647,75.637,179.701,73.113,179.701z M64.775,174.183h7.399v-8.117h-7.399
			V174.183z"/>
	</g>
	<g>
		<path fill="#183F2A" d="M93.916,179.701h-9.278c-2.524,0-4.578-2.054-4.578-4.578v-9.997c0-2.524,2.054-4.578,4.578-4.578h9.278
			c2.524,0,4.578,2.054,4.578,4.578v9.997C98.494,177.647,96.44,179.701,93.916,179.701z M85.577,174.183h7.399v-8.117h-7.399
			V174.183z"/>
	</g>
	<g>
		<path fill="#183F2A" d="M52.098,201.771H42.82c-2.524,0-4.578-2.054-4.578-4.578v-9.997c0-2.524,2.054-4.578,4.578-4.578h9.278
			c2.524,0,4.578,2.054,4.578,4.578v9.997C56.676,199.718,54.622,201.771,52.098,201.771z M43.76,196.254h7.399v-8.117H43.76
			V196.254z"/>
	</g>
	<g>
		<path fill="#183F2A" d="M73.113,201.771h-9.278c-2.524,0-4.578-2.054-4.578-4.578v-9.997c0-2.524,2.054-4.578,4.578-4.578h9.278
			c2.524,0,4.578,2.054,4.578,4.578v9.997C77.691,199.718,75.637,201.771,73.113,201.771z M64.775,196.254h7.399v-8.117h-7.399
			V196.254z"/>
	</g>
	<g>
		<path fill="#183F2A" d="M93.916,201.771h-9.278c-2.524,0-4.578-2.054-4.578-4.578v-9.997c0-2.524,2.054-4.578,4.578-4.578h9.278
			c2.524,0,4.578,2.054,4.578,4.578v9.997C98.494,199.718,96.44,201.771,93.916,201.771z M85.577,196.254h7.399v-8.117h-7.399
			V196.254z"/>
	</g>
</g>
</svg>
