<svg xmlns="http://www.w3.org/2000/svg" viewBox="0 0 160 160"><path d="M44.006 77.982S51.543 57 54.676 57H84m36.265 20.982S112 57 108.866 57H81" stroke="#163F2A" stroke-width="10" stroke-miterlimit="10" fill="none"/><path fill="#163F2A" d="M120.808 76H43.911C35.704 76 29 83.47 29 91.677v6.364c0 6.401 4 11.877 10 13.985v9.735c0 3.022 2.244 5.24 5.266 5.24h5.263c3.022 0 4.471-2.218 4.471-5.24V114h55v7.76c0 3.022 2.46 5.24 5.482 5.24h5.263c3.022 0 5.255-2.218 5.255-5.24v-9.475c6-1.899 11-7.58 11-14.245v-6.364C136 83.47 129.015 76 120.808 76zM43.357 96.135a5.428 5.428 0 1 1 0-10.855 5.428 5.428 0 0 1 0 10.855zm77.563 0a5.428 5.428 0 1 1 0-10.855 5.428 5.428 0 0 1 0 10.855z"/><path fill="#163F2A" stroke="#163F2A" stroke-width="2.571" stroke-miterlimit="10" d="M85.313 49.894h-9.107a4.34 4.34 0 0 1-4.326-4.326v-.175a4.34 4.34 0 0 1 4.326-4.326h9.107a4.34 4.34 0 0 1 4.326 4.326v.175a4.34 4.34 0 0 1-4.326 4.326z"/><path fill="#163F2A" d="M40.217 79.97H29.408a4.935 4.935 0 0 1-4.921-4.921v-.692a4.935 4.935 0 0 1 4.921-4.921h10.809a4.935 4.935 0 0 1 4.921 4.921v.692a4.935 4.935 0 0 1-4.921 4.921zm93.666-.501h-9.772c-2.897 0-5.267-2.37-5.267-5.267 0-2.897 2.37-5.267 5.267-5.267h9.772c2.897 0 5.267 2.37 5.267 5.267 0 2.897-2.37 5.267-5.267 5.267z"/></svg>