<?xml version="1.0" encoding="utf-8"?>
<!-- Generator: Adobe Illustrator 18.0.0, SVG Export Plug-In . SVG Version: 6.00 Build 0)  -->
<!DOCTYPE svg PUBLIC "-//W3C//DTD SVG 1.1//EN" "http://www.w3.org/Graphics/SVG/1.1/DTD/svg11.dtd">
<svg version="1.1" xmlns="http://www.w3.org/2000/svg" xmlns:xlink="http://www.w3.org/1999/xlink" x="0px" y="0px"
	 viewBox="0 0 250 250" enable-background="new 0 0 250 250" xml:space="preserve">
<g id="Guides">
</g>
<g id="_x31_2_Col_Grid" opacity="0.1" enable-background="new    ">
</g>
<g id="Layer_3">
	<g>
		<path fill="#163F2A" d="M210.645,194.642H39.783c-6.009,0-10.898-4.889-10.898-10.898V94.766c0-6.009,4.889-10.898,10.898-10.898
			h170.861c6.009,0,10.898,4.889,10.898,10.898v88.977C221.543,189.753,216.654,194.642,210.645,194.642z M39.783,90.191
			c-2.523,0-4.576,2.053-4.576,4.576v88.977c0,2.523,2.053,4.576,4.576,4.576h170.861c2.523,0,4.576-2.053,4.576-4.576V94.766
			c0-2.523-2.053-4.576-4.576-4.576H39.783z"/>
	</g>
	<g>
		<g>
			<path fill="#163F2A" d="M76.313,138.379c-1.02,0.884-5.124,4.603-5.759,11.858h-3.718c0.612-7.618,5.26-11.722,5.26-11.722h-7.21
				v-2.993h11.428V138.379z"/>
		</g>
		<g>
			<path fill="#163F2A" d="M78.284,137.698c0.975-1.474,2.607-2.517,4.988-2.517c2.403,0,4.036,1.043,5.01,2.517
				c1.02,1.542,1.293,3.378,1.293,5.192s-0.272,3.65-1.293,5.192c-0.975,1.451-2.607,2.517-5.01,2.517
				c-2.381,0-4.013-1.066-4.988-2.517c-1.02-1.542-1.293-3.378-1.293-5.192S77.264,139.24,78.284,137.698z M81.118,146.087
				c0.408,0.816,1.066,1.361,2.154,1.361c1.111,0,1.745-0.544,2.154-1.361c0.431-0.862,0.567-2.018,0.567-3.197
				c0-1.179-0.136-2.335-0.567-3.197c-0.409-0.816-1.043-1.361-2.154-1.361c-1.088,0-1.746,0.544-2.154,1.361
				c-0.408,0.862-0.544,2.018-0.544,3.197C80.574,144.069,80.71,145.226,81.118,146.087z"/>
		</g>
		<g>
			<path fill="#163F2A" d="M93.178,145.793c1.27,0,2.336,1.043,2.336,2.312c0,1.247-1.066,2.335-2.336,2.335
				c-1.269,0-2.312-1.088-2.312-2.335C90.866,146.836,91.909,145.793,93.178,145.793z"/>
		</g>
		<g>
			<path fill="#163F2A" d="M98.574,137.698c0.975-1.474,2.607-2.517,4.988-2.517c2.403,0,4.036,1.043,5.01,2.517
				c1.02,1.542,1.293,3.378,1.293,5.192s-0.272,3.65-1.293,5.192c-0.975,1.451-2.607,2.517-5.01,2.517
				c-2.381,0-4.013-1.066-4.988-2.517c-1.02-1.542-1.293-3.378-1.293-5.192S97.553,139.24,98.574,137.698z M101.408,146.087
				c0.408,0.816,1.066,1.361,2.154,1.361c1.111,0,1.745-0.544,2.154-1.361c0.431-0.862,0.567-2.018,0.567-3.197
				c0-1.179-0.136-2.335-0.567-3.197c-0.409-0.816-1.043-1.361-2.154-1.361c-1.088,0-1.746,0.544-2.154,1.361
				c-0.408,0.862-0.544,2.018-0.544,3.197C100.864,144.069,101,145.226,101.408,146.087z"/>
		</g>
		<g>
			<path fill="#163F2A" d="M112.788,137.698c0.975-1.474,2.607-2.517,4.988-2.517c2.403,0,4.036,1.043,5.01,2.517
				c1.02,1.542,1.293,3.378,1.293,5.192s-0.272,3.65-1.293,5.192c-0.975,1.451-2.607,2.517-5.01,2.517
				c-2.381,0-4.013-1.066-4.988-2.517c-1.02-1.542-1.293-3.378-1.293-5.192S111.767,139.24,112.788,137.698z M115.622,146.087
				c0.408,0.816,1.066,1.361,2.154,1.361c1.111,0,1.745-0.544,2.154-1.361c0.431-0.862,0.567-2.018,0.567-3.197
				c0-1.179-0.136-2.335-0.567-3.197c-0.409-0.816-1.043-1.361-2.154-1.361c-1.088,0-1.746,0.544-2.154,1.361
				c-0.408,0.862-0.544,2.018-0.544,3.197C115.078,144.069,115.214,145.226,115.622,146.087z"/>
		</g>
	</g>
	<g>
		<path fill="#163F2A" d="M133.54,174.853H55.53c-4.735,0-8.587-3.852-8.587-8.587v-45.357c0-4.735,3.852-8.587,8.587-8.587h78.009
			c4.735,0,8.587,3.852,8.587,8.587v45.357C142.127,171.001,138.275,174.853,133.54,174.853z M55.53,118.645
			c-1.249,0-2.264,1.016-2.264,2.264v45.357c0,1.227,1.037,2.264,2.264,2.264h78.009c1.249,0,2.264-1.016,2.264-2.264v-45.357
			c0-1.249-1.016-2.264-2.264-2.264H55.53z"/>
	</g>
	<g>
		<path fill="#163F2A" d="M209.835,195.508H40.937c-6.55,0-11.88-5.329-11.88-11.88V68.44c0-6.55,5.329-11.88,11.88-11.88h168.899
			c6.551,0,11.88,5.329,11.88,11.88v115.188C221.715,190.178,216.386,195.508,209.835,195.508z M40.937,62.883
			c-3.064,0-5.557,2.493-5.557,5.557v115.188c0,3.064,2.493,5.557,5.557,5.557h168.899c3.064,0,5.557-2.493,5.557-5.557V68.44
			c0-3.064-2.493-5.557-5.557-5.557H40.937z"/>
	</g>
	<g>
		<path fill="#163F2A" d="M196.277,144.878h-38.371c-3.177,0-5.761-2.584-5.761-5.76v-21.108c0-3.177,2.584-5.761,5.761-5.761
			h38.371c3.176,0,5.76,2.584,5.76,5.761v21.108C202.038,142.294,199.454,144.878,196.277,144.878z M158.469,138.556h37.246v-19.983
			h-37.246V138.556z"/>
	</g>
</g>
<g id="Layer_4">
</g>
</svg>
