<svg xmlns="http://www.w3.org/2000/svg" viewBox="0 0 250 250"><circle fill-rule="evenodd" clip-rule="evenodd" fill="#163F2A" cx="70.971" cy="156.053" r="21.895"/><path fill-rule="evenodd" clip-rule="evenodd" fill="#163F2A" d="M132.266 136.168s.685-7.824-8.497-8.269c-10.886-.528-9.107 9.169-9.107 9.169s-.546 31.692-.83 40.462c-.173 5.316-3.45 6.884-5.912 7.884H96.532c-1.409 0-2.475-.502-3.868-.504-12.458-.01-24.922-.161-37.359-.161-12.208.01-23.269 5.095-24.992 18.347-.12.349.266.062.1.411 0 .007-.205.527-.237.506-.07-.039-.279-.692-.279-.72v48.121h16.649c.003-12 .003-23.756.024-35.669 0-.639-.441-1.599.494-1.786.904-.19 1.894-.053 2.844.025-.777-.018.242.746.242.849.035.575-.254 1.166-.254 1.745v34.835h48v-35.146c0-2.141.293-7.161 2.516-6.874l.342-.98h5.142v1.24c16-.183 25.023-9.797 26.104-20.347 1.305-12.734.266-53.138.266-53.138z"/><path fill="#163F2A" d="M92.522 35.026v6.597h-4.088V23.28h6.908c3.726 0 6.287 2.458 6.287 5.873 0 3.467-2.561 5.873-6.287 5.873h-2.82zm2.406-3.519c1.552 0 2.613-.906 2.613-2.329 0-1.475-1.061-2.354-2.613-2.354h-2.381v4.683h2.381zM106.752 34.198l3.027-.466c.698-.103.931-.44.931-.88 0-.75-.647-1.397-1.889-1.397-1.371 0-2.121.931-2.199 1.889l-3.415-.699c.155-1.837 1.863-4.269 5.64-4.269 4.166 0 5.692 2.329 5.692 4.968v6.287c0 1.009.13 1.863.155 1.992h-3.545c-.026-.104-.129-.569-.129-1.449-.673 1.086-1.915 1.811-3.622 1.811-2.82 0-4.45-1.863-4.45-3.907.001-2.276 1.682-3.569 3.804-3.88zm3.959 2.381v-.569l-2.432.388c-.828.13-1.449.518-1.449 1.423 0 .673.44 1.319 1.526 1.319 1.164 0 2.355-.569 2.355-2.561zM126.028 32.646a5.365 5.365 0 0 0-1.242-.129c-1.578 0-3.001.931-3.001 3.493v5.614h-3.933V28.765h3.803v1.733c.673-1.449 2.303-1.863 3.338-1.863.388 0 .776.052 1.035.129v3.882zM131.539 34.198l3.027-.466c.699-.103.931-.44.931-.88 0-.75-.647-1.397-1.889-1.397-1.371 0-2.122.931-2.199 1.889l-3.415-.699c.155-1.837 1.863-4.269 5.64-4.269 4.166 0 5.692 2.329 5.692 4.968v6.287c0 1.009.13 1.863.155 1.992h-3.545c-.026-.104-.129-.569-.129-1.449-.673 1.086-1.915 1.811-3.622 1.811-2.82 0-4.45-1.863-4.45-3.907.001-2.276 1.682-3.569 3.804-3.88zm3.959 2.381v-.569l-2.432.388c-.828.13-1.449.518-1.449 1.423 0 .673.44 1.319 1.526 1.319 1.164 0 2.355-.569 2.355-2.561zM149.003 46.54V28.765h3.803v1.319c.543-.828 1.941-1.63 3.777-1.63 3.726 0 5.977 2.846 5.977 6.701 0 3.933-2.535 6.753-6.132 6.753-1.656 0-2.898-.569-3.493-1.294v5.925h-3.932zm6.779-14.541c-1.526 0-2.898 1.035-2.898 3.182 0 2.121 1.371 3.208 2.898 3.208 1.552 0 2.924-1.061 2.924-3.208 0-2.147-1.372-3.182-2.924-3.182zM177.826 35.181c0 3.984-2.975 6.83-6.83 6.83-3.829 0-6.831-2.846-6.831-6.83s3.001-6.805 6.831-6.805c3.855.001 6.83 2.821 6.83 6.805zm-3.932 0c0-2.173-1.397-3.182-2.898-3.182-1.475 0-2.898 1.009-2.898 3.182 0 2.147 1.423 3.208 2.898 3.208 1.501.001 2.898-1.034 2.898-3.208zM184.088 35.88h-2.898l-.906-12.6h4.709l-.905 12.6zm-1.474 1.527a2.253 2.253 0 0 1 2.251 2.251c0 1.216-1.009 2.225-2.251 2.225s-2.225-1.009-2.225-2.225a2.23 2.23 0 0 1 2.225-2.251z"/><g><path fill="#183F2A" d="M98.695 94.214l1.994-24.051c-5.911-.455-19.174-2.057-28.24-7.543-15.366-9.297-18.8-23.051-18.938-23.632a2.858 2.858 0 0 1 5.558-1.336c.044.174 3.137 12.089 16.339 20.077 10.422 6.305 28.274 6.888 28.453 6.893l3.016.087-1.221 14.743 13.87-13.514 1.241.059c.099.004 9.988.47 19.739.47a2.858 2.858 0 1 1 0 5.716c-7.845 0-15.772-.297-18.764-.422L98.695 94.214z"/></g><g><path fill="#163F2A" d="M151.956 252.914H-4.631v-91.048h148.297c4.571 0 8.289 3.719 8.289 8.289v82.759zM.515 247.768h146.296v-77.613a3.147 3.147 0 0 0-3.144-3.144H.515v80.757z"/></g><g><path fill="#163F2A" d="M255.484 251.66h-92.26V94.077c0-5.413 4.404-9.817 9.817-9.817h72.626c5.413 0 9.817 4.404 9.817 9.817V251.66zm-87.115-5.145h81.97V94.077a4.677 4.677 0 0 0-4.672-4.672h-72.626a4.677 4.677 0 0 0-4.672 4.672v152.438z"/></g><g><path fill="#163F2A" d="M79.87 61.294l2.68 4.392-83.264 50.8-2.68-4.391z"/></g><g><path fill="#163F2A" d="M209.353 51.666a2.572 2.572 0 0 1-.022-5.145l43.558-.377c1.421.012 2.583 1.129 2.595 2.55a2.572 2.572 0 0 1-2.55 2.595l-43.558.377h-.023z"/></g><g><path fill="#163F2A" d="M165.419 197.746h87.493v4.573h-87.493z"/></g></svg>