<?xml version="1.0" encoding="utf-8"?>
<!-- Generator: Adobe Illustrator 18.0.0, SVG Export Plug-In . SVG Version: 6.00 Build 0)  -->
<!DOCTYPE svg PUBLIC "-//W3C//DTD SVG 1.1//EN" "http://www.w3.org/Graphics/SVG/1.1/DTD/svg11.dtd">
<svg version="1.1" xmlns="http://www.w3.org/2000/svg" xmlns:xlink="http://www.w3.org/1999/xlink" x="0px" y="0px"
	 viewBox="0 0 250 250" enable-background="new 0 0 250 250" xml:space="preserve">
<g id="Guides">
</g>
<g id="_x31_2_Col_Grid" opacity="0.1" enable-background="new    ">
</g>
<g id="Layer_3">
</g>
<g id="Layer_4">
	<g>
		<path fill="#163F2A" d="M69.503,33.927v14.512h-4.109V33.927h-5.67V30h15.474v3.927H69.503z"/>
		<path fill="#163F2A" d="M81.515,48.439h-3.953V29.61h3.953v6.736c0.806-0.806,2.158-1.17,3.303-1.17
			c3.381,0,4.889,2.315,4.889,5.149v8.114h-3.953v-7.438c0-1.274-0.676-2.236-2.106-2.236c-1.248,0-2.055,0.884-2.132,2.081V48.439z
			"/>
		<path fill="#163F2A" d="M96.076,40.975l3.043-0.468c0.702-0.104,0.936-0.442,0.936-0.884c0-0.754-0.65-1.404-1.898-1.404
			c-1.379,0-2.133,0.936-2.211,1.898l-3.433-0.702c0.156-1.846,1.872-4.291,5.67-4.291c4.187,0,5.721,2.341,5.721,4.993v6.319
			c0,1.014,0.13,1.872,0.156,2.003h-3.563c-0.026-0.104-0.13-0.572-0.13-1.456c-0.676,1.092-1.925,1.821-3.641,1.821
			c-2.835,0-4.473-1.872-4.473-3.927C92.253,42.588,93.943,41.287,96.076,40.975z M100.055,43.368v-0.572l-2.445,0.39
			c-0.832,0.13-1.456,0.52-1.456,1.43c0,0.676,0.442,1.326,1.534,1.326C98.859,45.942,100.055,45.37,100.055,43.368z"/>
		<path fill="#163F2A" d="M111.184,48.439h-3.953V35.514h3.823v1.482c0.702-1.222,2.289-1.821,3.615-1.821
			c3.251,0,4.707,2.315,4.707,5.149v8.114h-3.953v-7.438c0-1.274-0.676-2.236-2.106-2.236c-1.3,0-2.132,0.962-2.132,2.262V48.439z"
			/>
		<path fill="#163F2A" d="M130.66,40.949l5.15,7.49h-4.837l-3.043-4.551l-1.274,1.378v3.173h-3.953V29.61h3.953v10.247l3.927-4.343
			h5.123L130.66,40.949z"/>
		<path fill="#163F2A" d="M144.986,53.406l2.939-6.71l-5.435-11.183h4.421l3.147,6.918l2.86-6.918h4.188l-7.958,17.892H144.986z"/>
		<path fill="#163F2A" d="M171.25,41.963c0,4.005-2.991,6.866-6.866,6.866c-3.849,0-6.865-2.861-6.865-6.866s3.017-6.84,6.865-6.84
			C168.259,35.124,171.25,37.959,171.25,41.963z M167.297,41.963c0-2.185-1.404-3.199-2.913-3.199c-1.482,0-2.913,1.014-2.913,3.199
			c0,2.158,1.431,3.225,2.913,3.225C165.893,45.188,167.297,44.148,167.297,41.963z"/>
		<path fill="#163F2A" d="M182.014,47.139c-0.676,1.118-2.158,1.586-3.459,1.586c-3.147,0-4.915-2.289-4.915-5.045v-8.166h3.953
			v7.334c0,1.248,0.676,2.237,2.081,2.237c1.327,0,2.159-0.91,2.159-2.211v-7.36h3.953v10.611c0,1.17,0.104,2.106,0.13,2.315h-3.797
			C182.066,48.205,182.014,47.477,182.014,47.139z"/>
		<path fill="#163F2A" d="M191.764,43.342c1.457,0,2.679,1.196,2.679,2.652c0,1.43-1.222,2.679-2.679,2.679
			c-1.456,0-2.652-1.248-2.652-2.679C189.112,44.538,190.308,43.342,191.764,43.342z"/>
	</g>
	<path fill="#163F2A" d="M103.317,134.743c0,14.639-11.866,26.505-26.507,26.505c-14.639,0-26.505-11.866-26.505-26.505
		c0-14.639,11.866-26.507,26.505-26.507C91.451,108.236,103.317,120.104,103.317,134.743"/>
	<path fill="#163F2A" d="M48.896,209.414c0,0,0,28.608,0,43h59c0-14.392,0-29.337,0-43.949c0-2.235,0.392-3.603,1.845-3.843
		c1.866-0.653,3.19,1.11,3.19,1.11l9.326,17.342c1.434,3.702,3.479,4.838,8.884,6.101l18.16,2.487l21.23,3.548
		c0,0,14.028,4.511,16.002-7.298c1.974-11.809-11.988-13.131-11.988-13.131l-20.065-3.353l-15.215-2.543
		c0,0-8.591-21.776-12.517-28.527c-3.901-6.708-11.159-10.297-15.426-10.862l-10.23-0.35c-15.472-0.013-30.923-0.013-46.369-0.013
		c-15.161,0.013-26.115,6.119-30.303,20.689c-0.149,0.434-0.385,4.06-0.591,4.494l-0.132,58.099h20.175
		c0.003-15.499,0.004-29.654,0.03-44.448c0-0.793-0.124-2.178,0.614-2.293c1.22-0.191,2.821,0.198,4.083,0.298"/>
	<path fill="#163F2A" d="M217.062,208.299l-10.38,12.244c-1.715,2.023-4.774,2.275-6.798,0.56l-24.296-20.597
		c-2.023-1.715-2.275-4.774-0.56-6.798l10.38-12.244c1.715-2.023,4.774-2.275,6.798-0.56l24.296,20.597
		C218.525,203.217,218.777,206.276,217.062,208.299z"/>
	<g>
		<path fill="#183F2A" d="M118.657,100.622l-8.78-17.896c-5.524-0.364-20.415-1.884-30.435-7.946c-1.654-1-2.183-3.152-1.183-4.807
			c1-1.653,3.151-2.184,4.807-1.183c10.646,6.442,28.961,7.042,29.146,7.047l2.111,0.061l5.658,11.528l7.814-10.153l1.7-0.019
			c0.255-0.002,25.696-0.355,40.792-7.064c1.766-0.786,3.834,0.01,4.62,1.777c0.785,1.766-0.01,3.834-1.777,4.62
			c-14.216,6.318-35.624,7.435-41.844,7.628L118.657,100.622z"/>
	</g>
</g>
</svg>
