<?xml version="1.0" encoding="utf-8"?>
<!-- Generator: Adobe Illustrator 18.0.0, SVG Export Plug-In . SVG Version: 6.00 Build 0)  -->
<!DOCTYPE svg PUBLIC "-//W3C//DTD SVG 1.1//EN" "http://www.w3.org/Graphics/SVG/1.1/DTD/svg11.dtd">
<svg version="1.1" xmlns="http://www.w3.org/2000/svg" xmlns:xlink="http://www.w3.org/1999/xlink" x="0px" y="0px"
	 viewBox="0 0 250 250" enable-background="new 0 0 250 250" xml:space="preserve">
<g id="Guides">
</g>
<g id="_x31_2_Col_Grid" opacity="0.1" enable-background="new    ">
</g>
<g id="Layer_3">
</g>
<g id="Layer_4">
	<g>
		<circle fill-rule="evenodd" clip-rule="evenodd" fill="#163F2A" cx="70.971" cy="156.053" r="21.895"/>
	</g>
	<g>
		<path fill-rule="evenodd" clip-rule="evenodd" fill="#163F2A" d="M132.266,136.168c0,0,0.685-7.824-8.497-8.269
			c-10.886-0.528-9.107,9.169-9.107,9.169s-0.546,31.692-0.83,40.462c-0.173,5.316-3.45,6.884-5.912,7.884H96.532
			c-1.409,0-2.475-0.502-3.868-0.504c-12.458-0.01-24.922-0.161-37.359-0.161c-12.208,0.01-23.269,5.095-24.992,18.347
			c-0.12,0.349,0.266,0.062,0.1,0.411c0,0.007-0.205,0.527-0.237,0.506c-0.07-0.039-0.279-0.692-0.279-0.72
			c0,15.898,0,32.121,0,48.121h16.649c0.003-12,0.003-23.756,0.024-35.669c0-0.639-0.441-1.599,0.494-1.786
			c0.904-0.19,1.894-0.053,2.844,0.025c-0.777-0.018,0.242,0.746,0.242,0.849c0.035,0.575-0.254,1.166-0.254,1.745
			c0,11.66,0,22.835,0,34.835h48c0-12,0-23.38,0-35.146c0-2.141,0.293-7.161,2.516-6.874l0.342-0.98h5.142v1.24
			c16-0.183,25.023-9.797,26.104-20.347C133.305,176.572,132.266,136.168,132.266,136.168z"/>
	</g>
	<g>
		<g>
			<path fill="#163F2A" d="M92.522,35.026v6.597h-4.088V23.28h6.908c3.726,0,6.287,2.458,6.287,5.873
				c0,3.467-2.561,5.873-6.287,5.873H92.522z M94.928,31.507c1.552,0,2.613-0.906,2.613-2.329c0-1.475-1.061-2.354-2.613-2.354
				h-2.381v4.683H94.928z"/>
		</g>
		<g>
			<path fill="#163F2A" d="M106.752,34.198l3.027-0.466c0.698-0.103,0.931-0.44,0.931-0.88c0-0.75-0.647-1.397-1.889-1.397
				c-1.371,0-2.121,0.931-2.199,1.889l-3.415-0.699c0.155-1.837,1.863-4.269,5.64-4.269c4.166,0,5.692,2.329,5.692,4.968v6.287
				c0,1.009,0.13,1.863,0.155,1.992h-3.545c-0.026-0.104-0.129-0.569-0.129-1.449c-0.673,1.086-1.915,1.811-3.622,1.811
				c-2.82,0-4.45-1.863-4.45-3.907C102.949,35.802,104.63,34.509,106.752,34.198z M110.711,36.579v-0.569l-2.432,0.388
				c-0.828,0.13-1.449,0.518-1.449,1.423c0,0.673,0.44,1.319,1.526,1.319C109.52,39.14,110.711,38.571,110.711,36.579z"/>
		</g>
		<g>
			<path fill="#163F2A" d="M126.028,32.646c-0.44-0.103-0.854-0.129-1.242-0.129c-1.578,0-3.001,0.931-3.001,3.493v5.614h-3.933
				V28.765h3.803v1.733c0.673-1.449,2.303-1.863,3.338-1.863c0.388,0,0.776,0.052,1.035,0.129V32.646z"/>
		</g>
		<g>
			<path fill="#163F2A" d="M131.539,34.198l3.027-0.466c0.699-0.103,0.931-0.44,0.931-0.88c0-0.75-0.647-1.397-1.889-1.397
				c-1.371,0-2.122,0.931-2.199,1.889l-3.415-0.699c0.155-1.837,1.863-4.269,5.64-4.269c4.166,0,5.692,2.329,5.692,4.968v6.287
				c0,1.009,0.13,1.863,0.155,1.992h-3.545c-0.026-0.104-0.129-0.569-0.129-1.449c-0.673,1.086-1.915,1.811-3.622,1.811
				c-2.82,0-4.45-1.863-4.45-3.907C127.736,35.802,129.417,34.509,131.539,34.198z M135.498,36.579v-0.569l-2.432,0.388
				c-0.828,0.13-1.449,0.518-1.449,1.423c0,0.673,0.44,1.319,1.526,1.319C134.307,39.14,135.498,38.571,135.498,36.579z"/>
		</g>
		<g>
			<path fill="#163F2A" d="M149.003,46.54V28.765h3.803v1.319c0.543-0.828,1.941-1.63,3.777-1.63c3.726,0,5.977,2.846,5.977,6.701
				c0,3.933-2.535,6.753-6.132,6.753c-1.656,0-2.898-0.569-3.493-1.294v5.925H149.003z M155.782,31.999
				c-1.526,0-2.898,1.035-2.898,3.182c0,2.121,1.371,3.208,2.898,3.208c1.552,0,2.924-1.061,2.924-3.208
				C158.706,33.034,157.334,31.999,155.782,31.999z"/>
		</g>
		<g>
			<path fill="#163F2A" d="M177.826,35.181c0,3.984-2.975,6.83-6.83,6.83c-3.829,0-6.831-2.846-6.831-6.83s3.001-6.805,6.831-6.805
				C174.851,28.377,177.826,31.197,177.826,35.181z M173.894,35.181c0-2.173-1.397-3.182-2.898-3.182
				c-1.475,0-2.898,1.009-2.898,3.182c0,2.147,1.423,3.208,2.898,3.208C172.497,38.39,173.894,37.355,173.894,35.181z"/>
		</g>
		<g>
			<path fill="#163F2A" d="M184.088,35.88h-2.898l-0.906-12.6h4.709L184.088,35.88z M182.614,37.407
				c1.242,0,2.251,1.009,2.251,2.251c0,1.216-1.009,2.225-2.251,2.225s-2.225-1.009-2.225-2.225
				C180.388,38.416,181.372,37.407,182.614,37.407z"/>
		</g>
	</g>
	<g>
		<path fill="#183F2A" d="M98.695,94.214l1.994-24.051c-5.911-0.455-19.174-2.057-28.24-7.543
			c-15.366-9.297-18.8-23.051-18.938-23.632c-0.367-1.536,0.581-3.077,2.116-3.444c1.538-0.365,3.072,0.578,3.442,2.108
			c0.044,0.174,3.137,12.089,16.339,20.077c10.422,6.305,28.274,6.888,28.453,6.893l3.016,0.087l-1.221,14.743l13.87-13.514
			l1.241,0.059c0.099,0.004,9.988,0.47,19.739,0.47c1.579,0,2.858,1.28,2.858,2.858c0,1.579-1.28,2.858-2.858,2.858
			c-7.845,0-15.772-0.297-18.764-0.422L98.695,94.214z"/>
	</g>
	<g>
		<path fill="#163F2A" d="M151.956,252.914H-4.631v-91.048h148.297c4.571,0,8.289,3.719,8.289,8.289V252.914z M0.515,247.768
			h146.296v-77.613c0-1.734-1.41-3.144-3.144-3.144H0.515V247.768z"/>
	</g>
	<g>
		<path fill="#163F2A" d="M255.484,251.66h-92.26V94.077c0-5.413,4.404-9.817,9.817-9.817h72.626c5.413,0,9.817,4.404,9.817,9.817
			V251.66z M168.369,246.515h81.97V94.077c0-2.576-2.096-4.672-4.672-4.672h-72.626c-2.576,0-4.672,2.096-4.672,4.672V246.515z"/>
	</g>
	<g>
		
			<rect x="37.003" y="40.125" transform="matrix(0.5208 0.8536 -0.8536 0.5208 94.8496 8.8111)" fill="#163F2A" width="5.145" height="97.544"/>
	</g>
	<g>
		<path fill="#163F2A" d="M209.353,51.666c-1.41,0-2.56-1.137-2.572-2.55c-0.012-1.421,1.129-2.583,2.55-2.595l43.558-0.377
			c1.421,0.012,2.583,1.129,2.595,2.55c0.012,1.421-1.129,2.583-2.55,2.595l-43.558,0.377
			C209.368,51.666,209.361,51.666,209.353,51.666z"/>
	</g>
	<g>
		<rect x="165.419" y="197.746" fill="#163F2A" width="87.493" height="4.573"/>
	</g>
</g>
</svg>
