<?xml version="1.0" encoding="utf-8"?>
<!-- Generator: Adobe Illustrator 18.0.0, SVG Export Plug-In . SVG Version: 6.00 Build 0)  -->
<!DOCTYPE svg PUBLIC "-//W3C//DTD SVG 1.1//EN" "http://www.w3.org/Graphics/SVG/1.1/DTD/svg11.dtd">
<svg version="1.1" xmlns="http://www.w3.org/2000/svg" xmlns:xlink="http://www.w3.org/1999/xlink" x="0px" y="0px"
	 viewBox="0 0 250 250" enable-background="new 0 0 250 250" xml:space="preserve">
<g id="Guides">
</g>
<g id="_x31_2_Col_Grid" opacity="0.1" enable-background="new    ">
</g>
<g id="Layer_3">
	<path fill="#163F2A" stroke="#163F2A" stroke-width="2" stroke-miterlimit="10" d="M41.669,201.767
		c0,2.919-2.366,5.285-5.285,5.285l0,0c-2.919,0-5.285-2.366-5.285-5.285v-46.808c0-2.919,2.366-5.285,5.285-5.285l0,0
		c2.919,0,5.285,2.366,5.285,5.285V201.767z"/>
	<path fill="#163F2A" d="M44.688,175.342H28.079v-29.599c0-3.984,2.697-6.64,6.681-6.64h2.223c3.987,0,7.706,2.657,7.706,6.644
		V175.342z"/>
	<path fill="#163F2A" d="M206.253,142.144c0,0.823-0.667,1.49-1.49,1.49h-22.689c-0.823,0-1.49-0.667-1.49-1.49v-1.55
		c0-0.823,0.667-1.49,1.49-1.49h22.689c0.823,0,1.49,0.667,1.49,1.49V142.144z"/>
	<path fill="#163F2A" d="M201.896,161.764c0-3.846-3.225-7.35-7.204-7.35h-2.772c-4.308,0-8.024,3.826-8.024,7.35v17.65h3v21.832
		c0,3.259,2.735,6.168,6.51,6.168h0.025c3.775,0,6.465-2.909,6.465-6.168v-21.832h2V161.764z"/>
	<path fill="#163F2A" d="M229.896,105.731c0-0.562,0.158-0.591-0.155-1.014c-0.955-3.268-3.604-5.303-7.112-5.303h-7.246
		c-1.884,0-3.487,1.036-3.487,2.921v2.062c0,0.349-0.228,0.753-0.254,1.186l-4.794,0.502l-1.108,3.419
		c-1.424-0.602-2.967-1.09-4.592-1.09h-15.607c-1.732,0-3.41,0.54-4.919,1.218l-1.163-3.621l-4.883-0.441
		c-0.023-0.464-0.681-0.859-0.681-1.226v-1.559c0-2.133-1.194-3.372-3.327-3.372h-7.245c-3.848,0-6.58,2.75-6.84,6.554
		c-0.008,0.084,0.413-0.323,0.413-0.237v2.16c0,0.797-0.06,0.495,0.518,0.962c1.381,2.67,3.678,3.561,6.812,3.561h2.013
		c2.165,0,4.136,0.15,5.607-1.235l2.427,0.755l0.857,2.328c-0.211,0.499-0.38,1.152-0.493,1.152h-11.289
		c-2.399,0-4.351,2.601-4.351,5c0,2.399,1.952,5,4.351,5h8.353c-0.13,0-0.199,1.938-0.199,2.764c0,3.016,0.904,5.236,2.44,8.236
		h-20.35c1.11-6,1.841-10.968,1.841-13.291c0-8.673-12.774-52.709-15.838-62.709h8.109c2.157,0,5.191-2.658,5.191-4.815v-0.259
		c0-0.591-0.516-1.296-0.752-1.799c-0.305-2.179-2.47-8.869-10.427-8.869c-7.308,0-32.353,0.052-43.301,0.075
		c-11.093-0.023-36.393-0.075-43.844-0.075c-9.645,0-9.902,10.053-9.902,10.053l0.129,2.001c0.535,1.887,2.629,3.688,4.786,3.688
		h9.907c-3.128,10-16.167,53.758-16.167,62.431c0,8.197,8.879,49.63,11.84,63.456c-2.444,0.272-4.268,1.986-4.268,4.503v0.787
		c0,2.701,2.022,4.823,4.724,4.823h86.854c2.511,0,4.556-2,4.836-4h9.345c1.333,0,2.603-0.696,3.499-1.684l15.967-17.832
		c0.182,2.646,2.362,4.516,5.054,4.516h0.844c2.811,0,4.877-2.198,4.877-5.009v-29.991h13v29.991c0,2.811,2.088,5.009,4.899,5.009
		h0.844c2.811,0,5.257-2.198,5.257-5.009v-30.762c0-0.976-0.372-1.878-0.848-2.652c3.053-2.723,4.948-6.711,4.948-11.135
		c0-0.826-0.111-2.442-0.241-2.442h9.534c2.399,0,4.351-2.601,4.351-5c0-2.399-1.952-5-4.351-5h-12.337
		c-0.136,0-0.356-0.634-0.636-1.235l0.761-2.064l2.309-1.084c1.356,1.374,3.225,1.382,5.328,1.382h2.916
		c3.167,0,5.569-0.921,6.778-3.658c0.511-0.466,0.489-0.122,0.489-0.864V105.731z M132.896,109.325
		c0,5.025-4.617,10.089-9.642,10.089H75.448c-5.025,0-9.552-5.063-9.552-10.089v-28.83c0-0.942,0.4-2.956,0.748-3.775
		c1.044-2.457,3.693-5.306,6.519-5.306h52.375c3.769,0,7.358,5.313,7.358,9.082V109.325z M175.896,158.693l-21.335,23.72h-10.483
		c1.884-8,4.976-21,7.462-35h24.357V158.693z M193.375,134.251c-4.37,0-7.913-3.542-7.913-7.912c0-4.37,3.543-7.912,7.913-7.912
		s7.912,3.543,7.912,7.912C201.287,130.708,197.745,134.251,193.375,134.251z"/>
</g>
<g id="Layer_4">
</g>
</svg>
