<svg xmlns="http://www.w3.org/2000/svg" viewBox="0 0 250 250"><g fill="#163F2A"><path d="M69.503 33.927v14.512h-4.109V33.927h-5.67V30h15.474v3.927h-5.695zM81.515 48.439h-3.953V29.61h3.953v6.736c.806-.806 2.158-1.17 3.303-1.17 3.381 0 4.889 2.315 4.889 5.149v8.114h-3.953v-7.438c0-1.274-.676-2.236-2.106-2.236-1.248 0-2.055.884-2.132 2.081v7.593zM96.076 40.975l3.043-.468c.702-.104.936-.442.936-.884 0-.754-.65-1.404-1.898-1.404-1.379 0-2.133.936-2.211 1.898l-3.433-.702c.156-1.846 1.872-4.291 5.67-4.291 4.187 0 5.721 2.341 5.721 4.993v6.319c0 1.014.13 1.872.156 2.003h-3.563c-.026-.104-.13-.572-.13-1.456-.676 1.092-1.925 1.821-3.641 1.821-2.835 0-4.473-1.872-4.473-3.927 0-2.289 1.69-3.59 3.823-3.902zm3.979 2.393v-.572l-2.445.39c-.832.13-1.456.52-1.456 1.43 0 .676.442 1.326 1.534 1.326 1.171 0 2.367-.572 2.367-2.574zM111.184 48.439h-3.953V35.514h3.823v1.482c.702-1.222 2.289-1.821 3.615-1.821 3.251 0 4.707 2.315 4.707 5.149v8.114h-3.953V41c0-1.274-.676-2.236-2.106-2.236-1.3 0-2.132.962-2.132 2.262v7.413zM130.66 40.949l5.15 7.49h-4.837l-3.043-4.551-1.274 1.378v3.173h-3.953V29.61h3.953v10.247l3.927-4.343h5.123l-5.046 5.435zM144.986 53.406l2.939-6.71-5.435-11.183h4.421l3.147 6.918 2.86-6.918h4.188l-7.958 17.892h-4.162zM171.25 41.963c0 4.005-2.991 6.866-6.866 6.866-3.849 0-6.865-2.861-6.865-6.866s3.017-6.84 6.865-6.84c3.875.001 6.866 2.836 6.866 6.84zm-3.953 0c0-2.185-1.404-3.199-2.913-3.199-1.482 0-2.913 1.014-2.913 3.199 0 2.158 1.431 3.225 2.913 3.225 1.509 0 2.913-1.04 2.913-3.225zM182.014 47.139c-.676 1.118-2.158 1.586-3.459 1.586-3.147 0-4.915-2.289-4.915-5.045v-8.166h3.953v7.334c0 1.248.676 2.237 2.081 2.237 1.327 0 2.159-.91 2.159-2.211v-7.36h3.953v10.611c0 1.17.104 2.106.13 2.315h-3.797c-.053-.235-.105-.963-.105-1.301zM191.764 43.342c1.457 0 2.679 1.196 2.679 2.652 0 1.43-1.222 2.679-2.679 2.679-1.456 0-2.652-1.248-2.652-2.679a2.663 2.663 0 0 1 2.652-2.652z"/></g><path fill="#163F2A" d="M103.317 134.743c0 14.639-11.866 26.505-26.507 26.505-14.639 0-26.505-11.866-26.505-26.505s11.866-26.507 26.505-26.507c14.641 0 26.507 11.868 26.507 26.507M48.896 209.414v43h59v-43.949c0-2.235.392-3.603 1.845-3.843 1.866-.653 3.19 1.11 3.19 1.11l9.326 17.342c1.434 3.702 3.479 4.838 8.884 6.101l18.16 2.487 21.23 3.548s14.028 4.511 16.002-7.298c1.974-11.809-11.988-13.131-11.988-13.131l-20.065-3.353-15.215-2.543s-8.591-21.776-12.517-28.527c-3.901-6.708-11.159-10.297-15.426-10.862l-10.23-.35c-15.472-.013-30.923-.013-46.369-.013-15.161.013-26.115 6.119-30.303 20.689-.149.434-.385 4.06-.591 4.494l-.132 58.099h20.175c.003-15.499.004-29.654.03-44.448 0-.793-.124-2.178.614-2.293 1.22-.191 2.821.198 4.083.298M217.062 208.299l-10.38 12.244c-1.715 2.023-4.774 2.275-6.798.56l-24.296-20.597c-2.023-1.715-2.275-4.774-.56-6.798l10.38-12.244c1.715-2.023 4.774-2.275 6.798-.56l24.296 20.597a4.838 4.838 0 0 1 .56 6.798z"/><path fill="#183F2A" d="M118.657 100.622l-8.78-17.896c-5.524-.364-20.415-1.884-30.435-7.946a3.5 3.5 0 0 1 3.624-5.99c10.646 6.442 28.961 7.042 29.146 7.047l2.111.061 5.658 11.528 7.814-10.153 1.7-.019c.255-.002 25.696-.355 40.792-7.064a3.5 3.5 0 1 1 2.843 6.397c-14.216 6.318-35.624 7.435-41.844 7.628l-12.629 16.407z"/></svg>