<svg xmlns="http://www.w3.org/2000/svg" viewBox="0 0 160 160"><path fill="#163F2A" stroke="#163F2A" stroke-width="2" stroke-miterlimit="10" d="M21.162 136.296a3.597 3.597 0 0 1-3.586-3.586v-30.39a3.597 3.597 0 0 1 3.586-3.586 3.597 3.597 0 0 1 3.586 3.586v30.39a3.597 3.597 0 0 1-3.586 3.586z"/><path fill="#163F2A" d="M26.677 116.06h-11.03V96.397a4.778 4.778 0 0 1 4.778-4.778h1.472c2.64 0 4.781 2.14 4.781 4.781v19.66z"/><path d="M133.385 114.903h-.551a1.812 1.812 0 0 1-1.806-1.806V93.026c0-.993.813-1.806 1.806-1.806h.551c.993 0 1.806.813 1.806 1.806v20.071a1.81 1.81 0 0 1-1.806 1.806zm-15.297 0h-.551a1.812 1.812 0 0 1-1.806-1.806V93.026c0-.993.813-1.806 1.806-1.806h.551c.993 0 1.806.813 1.806 1.806v20.071a1.81 1.81 0 0 1-1.806 1.806z" fill="#163F2A" stroke="#163F2A" stroke-width="3" stroke-miterlimit="10"/><path fill="#163F2A" d="M133.227 95.358h-15.406a.99.99 0 0 1-.987-.987v-1.406a.99.99 0 0 1 .987-.987h15.406a.99.99 0 0 1 .987.987v1.406a.99.99 0 0 1-.987.987z"/><path d="M125.426 135.766a3.502 3.502 0 0 1-3.492-3.492v-30.579a3.502 3.502 0 0 1 3.492-3.492 3.502 3.502 0 0 1 3.492 3.492v30.579a3.502 3.502 0 0 1-3.492 3.492zm4.932-21.808h-9.864v-11.74a4.025 4.025 0 0 1 4.014-4.014h1.836a4.025 4.025 0 0 1 4.014 4.014v11.74z" fill="#163F2A" stroke="#163F2A" stroke-width="2" stroke-miterlimit="10"/><path fill="#163F2A" d="M91.358 129.627H34.289a3.248 3.248 0 0 1-3.239-3.239v-.1a3.248 3.248 0 0 1 3.239-3.239h57.069a3.248 3.248 0 0 1 3.239 3.239v.1a3.248 3.248 0 0 1-3.239 3.239z"/><path stroke="#163F2A" stroke-width="6" stroke-linejoin="round" stroke-miterlimit="10" fill="none" d="M83 124h18.152l17.405-19.19"/><path stroke="#163F2A" stroke-width="7" stroke-miterlimit="10" fill="none" d="M95 93.5h24"/><path fill="#163F2A" d="M27.063 37c.354 1.25 1.752 2 3.18 2h6.561c-2.072 7-10.707 36.045-10.707 41.789 0 6.526 8.424 45.211 8.424 45.211h57.172s8.651-38.685 8.651-45.211c0-5.744-8.46-34.789-10.489-41.789h5.37C96.653 39 98 38.125 98 36.697v-.172c0-.391-.01-.858-.167-1.192-.202-1.443-1.47-5.873-6.74-5.873-4.84 0-21.344.034-28.594.049-7.346-.015-24.061-.049-28.995-.049-6.387 0-6.537 6.658-6.537 6.658l.096.882zM85 72.278C85 75.606 82.36 79 79.032 79H47.371C44.043 79 41 75.606 41 72.278V53.185c0-.624.288-1.543.518-2.085.691-1.628 2.468-3.1 4.34-3.1h34.686C83.041 48 85 50.689 85 53.185v19.093zm64.727-3.409c-.633-2.165-2.558-3.869-4.881-3.869h-4.799c-1.248 0-2.047 1.4-2.047 2.648v1.366c0 .231-.282.499-.299.786l-3.241.332-.766 2.427c-.943-.398-1.998-.559-3.074-.559h-10.336c-1.147 0-2.258.195-3.258.644l-.77-2.48-3.019-.332c-.015-.307-.236-.609-.236-.853v-1.032c0-1.412-1.22-2.947-2.632-2.947h-4.799c-2.549 0-4.514 2.178-4.686 4.697l.117.2v1.431c0 .528.117.666.499.975.915 1.768 2.592 2.696 4.668 2.696h1.334c1.434 0 2.739-.239 3.713-1.156l1.607.331.567 1.802c-.14.331-.252 1.023-.327 1.023h-7.477c-1.589 0-2.882 1.411-2.882 3s1.293 3 2.882 3h5.532c-.086 0-.131 1.296-.131 1.843 0 5.509 4.507 10.157 10.016 10.157h8.744c5.509 0 10.016-4.648 10.016-10.157 0-.547-.046-1.843-.132-1.843h6.314c1.589 0 2.882-1.411 2.882-3s-1.293-3-2.882-3h-8.171c-.09 0-.236-.764-.421-1.163l.504-1.539 1.529-.466c.898.91 2.136 1.167 3.528 1.167h1.931c2.097 0 3.859-.948 4.66-2.761.338-.309.495-.419.495-.91v-1.431c.001-.371-.065-.747-.272-1.027zm-24.256 19.917a5.24 5.24 0 1 1 0-10.48 5.24 5.24 0 0 1 0 10.48z"/></svg>