<svg xmlns="http://www.w3.org/2000/svg" viewBox="0 0 250 250"><g fill="#163F2A"><path stroke="#163F2A" stroke-width="2" stroke-miterlimit="10" d="M41.669 201.767a5.285 5.285 0 1 1-10.57 0v-46.808a5.285 5.285 0 1 1 10.57 0v46.808z"/><path d="M44.688 175.342H28.079v-29.599c0-3.984 2.697-6.64 6.681-6.64h2.223c3.987 0 7.706 2.657 7.706 6.644v29.595zM206.253 142.144a1.49 1.49 0 0 1-1.49 1.49h-22.689a1.49 1.49 0 0 1-1.49-1.49v-1.55c0-.823.667-1.49 1.49-1.49h22.689c.823 0 1.49.667 1.49 1.49v1.55zM201.896 161.764c0-3.846-3.225-7.35-7.204-7.35h-2.772c-4.308 0-8.024 3.826-8.024 7.35v17.65h3v21.832c0 3.259 2.735 6.168 6.51 6.168h.025c3.775 0 6.465-2.909 6.465-6.168v-21.832h2v-17.65z"/><path d="M229.896 105.731c0-.562.158-.591-.155-1.014-.955-3.268-3.604-5.303-7.112-5.303h-7.246c-1.884 0-3.487 1.036-3.487 2.921v2.062c0 .349-.228.753-.254 1.186l-4.794.502-1.108 3.419c-1.424-.602-2.967-1.09-4.592-1.09h-15.607c-1.732 0-3.41.54-4.919 1.218l-1.163-3.621-4.883-.441c-.023-.464-.681-.859-.681-1.226v-1.559c0-2.133-1.194-3.372-3.327-3.372h-7.245c-3.848 0-6.58 2.75-6.84 6.554-.008.084.413-.323.413-.237v2.16c0 .797-.06.495.518.962 1.381 2.67 3.678 3.561 6.812 3.561h2.013c2.165 0 4.136.15 5.607-1.235l2.427.755.857 2.328c-.211.499-.38 1.152-.493 1.152h-11.289c-2.399 0-4.351 2.601-4.351 5s1.952 5 4.351 5h8.353c-.13 0-.199 1.938-.199 2.764 0 3.016.904 5.236 2.44 8.236h-20.35c1.11-6 1.841-10.968 1.841-13.291 0-8.673-12.774-52.709-15.838-62.709h8.109c2.157 0 5.191-2.658 5.191-4.815v-.259c0-.591-.516-1.296-.752-1.799-.305-2.179-2.47-8.869-10.427-8.869-7.308 0-32.353.052-43.301.075-11.093-.023-36.393-.075-43.844-.075-9.645 0-9.902 10.053-9.902 10.053l.129 2.001c.535 1.887 2.629 3.688 4.786 3.688h9.907c-3.128 10-16.167 53.758-16.167 62.431 0 8.197 8.879 49.63 11.84 63.456-2.444.272-4.268 1.986-4.268 4.503v.787c0 2.701 2.022 4.823 4.724 4.823h86.854c2.511 0 4.556-2 4.836-4h9.345c1.333 0 2.603-.696 3.499-1.684l15.967-17.832c.182 2.646 2.362 4.516 5.054 4.516h.844c2.811 0 4.877-2.198 4.877-5.009v-29.991h13v29.991c0 2.811 2.088 5.009 4.899 5.009h.844c2.811 0 5.257-2.198 5.257-5.009v-30.762c0-.976-.372-1.878-.848-2.652 3.053-2.723 4.948-6.711 4.948-11.135 0-.826-.111-2.442-.241-2.442h9.534c2.399 0 4.351-2.601 4.351-5s-1.952-5-4.351-5h-12.337c-.136 0-.356-.634-.636-1.235l.761-2.064 2.309-1.084c1.356 1.374 3.225 1.382 5.328 1.382h2.916c3.167 0 5.569-.921 6.778-3.658.511-.466.489-.122.489-.864v-2.159zm-97 3.594c0 5.025-4.617 10.089-9.642 10.089H75.448c-5.025 0-9.552-5.063-9.552-10.089v-28.83c0-.942.4-2.956.748-3.775 1.044-2.457 3.693-5.306 6.519-5.306h52.375c3.769 0 7.358 5.313 7.358 9.082v28.829zm43 49.368l-21.335 23.72h-10.483c1.884-8 4.976-21 7.462-35h24.357v11.28zm17.479-24.442a7.912 7.912 0 1 1-.001-15.825 7.912 7.912 0 0 1 .001 15.825z"/></g></svg>