<svg xmlns="http://www.w3.org/2000/svg" viewBox="0 0 160 160"><path d="M49.35 130.156h-6.952a4.377 4.377 0 0 1-4.364-4.364v-16.715c0-2.4 1.964-4.364 4.364-4.364h6.952c2.4 0 4.364 1.964 4.364 4.364v16.715c0 2.4-1.964 4.364-4.364 4.364zm67.747 0h-6.952a4.377 4.377 0 0 1-4.364-4.364v-16.715c0-2.4 1.964-4.364 4.364-4.364h6.952c2.4 0 4.364 1.964 4.364 4.364v16.715c0 2.4-1.963 4.364-4.364 4.364z" fill="#163F2A" stroke="#163F2A" stroke-width="2" stroke-miterlimit="10"/><path fill="#163F2A" d="M131 90.568C131 81.97 124.03 75 115.432 75H45.568C36.97 75 30 81.97 30 90.568v10.865C30 110.03 36.97 117 45.568 117h69.865c8.598 0 15.568-6.97 15.568-15.568V90.568zm-87.713 5.986a5.237 5.237 0 1 1 0-10.475 5.237 5.237 0 0 1 0 10.475zm72.568 0a5.237 5.237 0 1 1 0-10.475 5.237 5.237 0 0 1 0 10.475z"/><path fill="#163F2A" stroke="#163F2A" stroke-width="2.571" stroke-miterlimit="10" d="M84.032 34.454h-8.787a4.186 4.186 0 0 1-4.174-4.174v-.169a4.186 4.186 0 0 1 4.174-4.174h8.787a4.186 4.186 0 0 1 4.174 4.174v.169a4.187 4.187 0 0 1-4.174 4.174z"/><path d="M41.242 82.337S49.525 42 52.692 42H81m37.836 40.337S110.632 42 107.464 42H79" stroke="#163F2A" stroke-width="10" stroke-miterlimit="10" fill="none"/><path fill="#163F2A" d="M38.998 77.722H28.569a4.762 4.762 0 0 1-4.748-4.748v-.668a4.762 4.762 0 0 1 4.748-4.748h10.429a4.762 4.762 0 0 1 4.748 4.748v.668a4.761 4.761 0 0 1-4.748 4.748zm91.373 0h-9.428c-2.795 0-5.082-2.287-5.082-5.082s2.287-5.082 5.082-5.082h9.428c2.795 0 5.082 2.287 5.082 5.082s-2.287 5.082-5.082 5.082z"/></svg>