<?xml version="1.0" encoding="utf-8"?>
<!-- Generator: Adobe Illustrator 18.0.0, SVG Export Plug-In . SVG Version: 6.00 Build 0)  -->
<!DOCTYPE svg PUBLIC "-//W3C//DTD SVG 1.1//EN" "http://www.w3.org/Graphics/SVG/1.1/DTD/svg11.dtd">
<svg version="1.1" xmlns="http://www.w3.org/2000/svg" xmlns:xlink="http://www.w3.org/1999/xlink" x="0px" y="0px"
	 viewBox="0 0 250 250" enable-background="new 0 0 250 250" xml:space="preserve">
<g id="Guides">
</g>
<g id="_x31_2_Col_Grid" opacity="0.1" enable-background="new    ">
</g>
<g id="Layer_3">
	<g>
		<path fill="#163F2A" stroke="#163F2A" stroke-width="2" stroke-miterlimit="10" d="M39.555,305.222H25.948
			c-7.812,0-14.203-6.391-14.203-14.203v-72.175c0-7.812,6.391-14.203,14.203-14.203h13.607c7.812,0,14.203,6.391,14.203,14.203
			v72.175C53.758,298.83,47.367,305.222,39.555,305.222z"/>
		<path fill="#163F2A" stroke="#163F2A" stroke-width="2" stroke-miterlimit="10" d="M221.083,305.222h-13.607
			c-7.812,0-14.203-6.391-14.203-14.203v-72.175c0-7.812,6.391-14.203,14.203-14.203h13.607c7.812,0,14.203,6.391,14.203,14.203
			v72.175C235.286,298.83,228.895,305.222,221.083,305.222z"/>
	</g>
	<path fill="#163F2A" d="M217.651,269.816H31.015c-22.942,0-41.713-18.771-41.713-41.713v-28.407
		c0-22.942,18.771-41.713,41.713-41.713h186.636c22.942,0,41.713,18.771,41.713,41.713v28.407
		C259.364,251.045,240.593,269.816,217.651,269.816z"/>
	<circle fill="#FFFFFF" cx="25.82" cy="201.153" r="14.032"/>
	<circle fill="#FFFFFF" cx="220.264" cy="201.153" r="14.032"/>
	<path fill="#163F2A" stroke="#163F2A" stroke-width="2.5709" stroke-miterlimit="10" d="M134.994,48.789H111.45
		c-6.151,0-11.183-5.032-11.183-11.183v-0.453c0-6.151,5.032-11.183,11.183-11.183h23.544c6.151,0,11.183,5.032,11.183,11.183v0.453
		C146.178,43.757,141.145,48.789,134.994,48.789z"/>
	<g>
		<g>
			<path fill="#163F2A" d="M29.785,178.62L9.961,174.55c0.057-0.272,5.782-27.474,12.476-54.367
				c3.964-15.925,7.502-28.686,10.513-37.882c4.575-13.972,8.55-23.887,18.072-23.887h74.874v20H55.79
				C49.954,91.414,38.229,138.352,29.785,178.62z"/>
		</g>
		<g>
			<path fill="#163F2A" d="M218.516,178.577c-8.251-40.226-19.751-87.164-25.53-100.164h-71.09v-20h75.885
				c9.552,0,13.489,9.952,18.008,23.948c2.97,9.198,6.449,21.959,10.341,37.884c6.572,26.894,12.173,54.064,12.228,54.336
				L218.516,178.577z"/>
		</g>
	</g>
	<path fill="#163F2A" d="M12.303,160.342h-27.944c-6.997,0-12.722-5.725-12.722-12.722v-1.789c0-6.997,5.725-12.722,12.722-12.722
		h27.944c6.997,0,12.722,5.725,12.722,12.722v1.789C25.025,154.617,19.301,160.342,12.303,160.342z"/>
	<path fill="#163F2A" d="M254.455,159.046h-25.263c-7.489,0-13.617-6.127-13.617-13.617v0c0-7.489,6.127-13.617,13.617-13.617
		h25.263c7.489,0,13.617,6.127,13.617,13.617v0C268.072,152.919,261.944,159.046,254.455,159.046z"/>
	<path fill="#163F2A" stroke="#163F2A" stroke-width="2" stroke-miterlimit="10" d="M110.262,113.679H60.693
		c-1.983,0-3.605-1.622-3.605-3.605V97.456c0-1.983,1.622-3.605,3.605-3.605h49.569c1.983,0,3.605,1.622,3.605,3.605v12.618
		C113.866,112.057,112.244,113.679,110.262,113.679z"/>
	<path fill="#163F2A" stroke="#163F2A" stroke-width="2" stroke-miterlimit="10" d="M103.341,144.083H53.772
		c-1.983,0-3.605-1.622-3.605-3.605V127.86c0-1.983,1.622-3.605,3.605-3.605h49.569c1.983,0,3.605,1.622,3.605,3.605v12.618
		C106.945,142.461,105.323,144.083,103.341,144.083z"/>
</g>
<g id="Layer_4">
</g>
</svg>
