<svg xmlns="http://www.w3.org/2000/svg" viewBox="0 0 250 250"><g fill="#163F2A" stroke="#163F2A" stroke-width="2" stroke-miterlimit="10"><path d="M39.555 305.222H25.948c-7.812 0-14.203-6.391-14.203-14.203v-72.175c0-7.812 6.391-14.203 14.203-14.203h13.607c7.812 0 14.203 6.391 14.203 14.203v72.175c0 7.811-6.391 14.203-14.203 14.203zM221.083 305.222h-13.607c-7.812 0-14.203-6.391-14.203-14.203v-72.175c0-7.812 6.391-14.203 14.203-14.203h13.607c7.812 0 14.203 6.391 14.203 14.203v72.175c0 7.811-6.391 14.203-14.203 14.203z"/></g><path fill="#163F2A" d="M217.651 269.816H31.015c-22.942 0-41.713-18.771-41.713-41.713v-28.407c0-22.942 18.771-41.713 41.713-41.713h186.636c22.942 0 41.713 18.771 41.713 41.713v28.407c0 22.942-18.771 41.713-41.713 41.713z"/><circle fill="#FFF" cx="25.82" cy="201.153" r="14.032"/><circle fill="#FFF" cx="220.264" cy="201.153" r="14.032"/><path fill="#163F2A" stroke="#163F2A" stroke-width="2.571" stroke-miterlimit="10" d="M134.994 48.789H111.45c-6.151 0-11.183-5.032-11.183-11.183v-.453c0-6.151 5.032-11.183 11.183-11.183h23.544c6.151 0 11.183 5.032 11.183 11.183v.453c.001 6.151-5.032 11.183-11.183 11.183z"/><path fill="#163F2A" d="M29.785 178.62l-19.824-4.07c.057-.272 5.782-27.474 12.476-54.367 3.964-15.925 7.502-28.686 10.513-37.882 4.575-13.972 8.55-23.887 18.072-23.887h74.874v20H55.79c-5.836 13-17.561 59.938-26.005 100.206z"/><path fill="#163F2A" d="M218.516 178.577c-8.251-40.226-19.751-87.164-25.53-100.164h-71.09v-20h75.885c9.552 0 13.489 9.952 18.008 23.948 2.97 9.198 6.449 21.959 10.341 37.884 6.572 26.894 12.173 54.064 12.228 54.336l-19.842 3.996zM12.303 160.342h-27.944c-6.997 0-12.722-5.725-12.722-12.722v-1.789c0-6.997 5.725-12.722 12.722-12.722h27.944c6.997 0 12.722 5.725 12.722 12.722v1.789c0 6.997-5.724 12.722-12.722 12.722z"/><path fill="#163F2A" d="M254.455 159.046h-25.263c-7.489 0-13.617-6.127-13.617-13.617 0-7.489 6.127-13.617 13.617-13.617h25.263c7.489 0 13.617 6.127 13.617 13.617 0 7.49-6.128 13.617-13.617 13.617z"/><path fill="#163F2A" stroke="#163F2A" stroke-width="2" stroke-miterlimit="10" d="M110.262 113.679H60.693a3.615 3.615 0 0 1-3.605-3.605V97.456a3.615 3.615 0 0 1 3.605-3.605h49.569a3.615 3.615 0 0 1 3.605 3.605v12.618a3.617 3.617 0 0 1-3.605 3.605zM103.341 144.083H53.772a3.615 3.615 0 0 1-3.605-3.605V127.86a3.615 3.615 0 0 1 3.605-3.605h49.569a3.615 3.615 0 0 1 3.605 3.605v12.618a3.617 3.617 0 0 1-3.605 3.605z"/></svg>