<svg xmlns="http://www.w3.org/2000/svg" viewBox="0 0 250 250"><g fill="#163F2A"><path d="M79.896 201.597a4.183 4.183 0 0 0-4.183-4.184h-5.634a4.183 4.183 0 0 0-4.183 4.184v12.633a4.183 4.183 0 0 0 4.183 4.184h5.634a4.183 4.183 0 0 0 4.183-4.184v-12.633zM133.896 201.597a4.183 4.183 0 0 0-4.183-4.184h-5.634a4.183 4.183 0 0 0-4.183 4.184v12.633a4.183 4.183 0 0 0 4.183 4.184h5.634a4.183 4.183 0 0 0 4.183-4.184v-12.633z"/></g><path fill="#163F2A" d="M140.105 186.61c0-6.705-5.436-12.141-12.141-12.141H73.476c-6.705 0-12.141 5.436-12.141 12.141v8.474c0 6.705 5.436 12.141 12.141 12.141h54.488c6.705 0 12.141-5.436 12.141-12.141v-8.474zm-68.408 4.669a4.084 4.084 0 1 1 0-8.168 4.084 4.084 0 0 1 0 8.168zm56.596 0a4.084 4.084 0 1 1 0-8.168 4.084 4.084 0 0 1 0 8.168z"/><path fill="#163F2A" stroke="#163F2A" stroke-width="3" stroke-miterlimit="10" d="M106.959 139.628a3.255 3.255 0 0 1-3.255 3.255h-6.748a3.255 3.255 0 0 1-3.255-3.255v-.509a3.255 3.255 0 0 1 3.255-3.255h6.748a3.255 3.255 0 0 1 3.255 3.255v.509z"/><path fill="#163F2A" d="M73.923 180.976l-7.64-1.569a501.79 501.79 0 0 1 3.571-15.872c3.974-16.249 5.612-18.702 9.18-18.702h22.077v7.799H81.063c-1.709 4.312-4.866 17.27-7.14 28.344z"/><path fill="#163F2A" d="M126.797 180.969c-2.251-11.068-5.382-24.019-7.082-28.337H99.55v-7.799h22.199c3.572 0 5.206 2.455 9.151 18.709a499.933 499.933 0 0 1 3.54 15.872l-7.643 1.555zM72.254 173.106a3.703 3.703 0 0 1-3.703 3.703h-8.192a3.703 3.703 0 0 1-3.703-3.703v-.393a3.703 3.703 0 0 1 3.703-3.703h8.192a3.703 3.703 0 0 1 3.703 3.703v.393z"/><path fill="#163F2A" d="M144.005 172.909a3.9 3.9 0 0 1-3.9 3.9h-7.799a3.9 3.9 0 1 1 0-7.8h7.799a3.9 3.9 0 0 1 3.9 3.9z"/><g fill="#163F2A"><path d="M177.896 201.597a4.183 4.183 0 0 0-4.183-4.184h-5.634a4.183 4.183 0 0 0-4.183 4.184v12.633a4.183 4.183 0 0 0 4.183 4.184h5.634a4.183 4.183 0 0 0 4.183-4.184v-12.633zM230.896 201.597a4.183 4.183 0 0 0-4.183-4.184h-5.634a4.183 4.183 0 0 0-4.183 4.184v12.633a4.183 4.183 0 0 0 4.183 4.184h5.634a4.183 4.183 0 0 0 4.183-4.184v-12.633z"/></g><path fill="#163F2A" d="M237.194 186.61c0-6.705-5.436-12.141-12.141-12.141h-54.488c-6.705 0-12.141 5.436-12.141 12.141v8.474c0 6.705 5.436 12.141 12.141 12.141h54.488c6.705 0 12.141-5.436 12.141-12.141v-8.474zm-68.407 4.669a4.084 4.084 0 1 1 0-8.168 4.084 4.084 0 0 1 0 8.168zm56.596 0a4.084 4.084 0 1 1 0-8.168 4.084 4.084 0 0 1 0 8.168z"/><path fill="#163F2A" stroke="#163F2A" stroke-width="3" stroke-miterlimit="10" d="M204.048 139.628a3.255 3.255 0 0 1-3.255 3.255h-6.748a3.255 3.255 0 0 1-3.255-3.255v-.509a3.255 3.255 0 0 1 3.255-3.255h6.748a3.255 3.255 0 0 1 3.255 3.255v.509z"/><path fill="#163F2A" d="M171.012 180.976l-7.64-1.569a501.79 501.79 0 0 1 3.571-15.872c3.974-16.249 5.612-18.702 9.18-18.702H198.2v7.799h-20.047c-1.71 4.312-4.867 17.27-7.141 28.344z"/><path fill="#163F2A" d="M223.886 180.969c-2.251-11.068-5.382-24.019-7.082-28.337H196.64v-7.799h22.199c3.572 0 5.206 2.455 9.151 18.709a499.933 499.933 0 0 1 3.54 15.872l-7.644 1.555zM169.343 173.106a3.703 3.703 0 0 1-3.703 3.703h-8.192a3.703 3.703 0 0 1-3.703-3.703v-.393a3.703 3.703 0 0 1 3.703-3.703h8.192a3.703 3.703 0 0 1 3.703 3.703v.393z"/><path fill="#163F2A" d="M241.094 172.909a3.9 3.9 0 0 1-3.9 3.9h-7.799a3.9 3.9 0 1 1 0-7.8h7.799a3.9 3.9 0 0 1 3.9 3.9z"/><g fill="none" stroke="#183F2A" stroke-width="6" stroke-linecap="round" stroke-miterlimit="10"><path d="M-.104 220.414h249M22.758 76.413h20.184v143.896H22.758zM-2.808 21.414h254.882v54.54H-2.808z"/></g></svg>