<?xml version="1.0" encoding="utf-8"?>
<!-- Generator: Adobe Illustrator 18.0.0, SVG Export Plug-In . SVG Version: 6.00 Build 0)  -->
<!DOCTYPE svg PUBLIC "-//W3C//DTD SVG 1.1//EN" "http://www.w3.org/Graphics/SVG/1.1/DTD/svg11.dtd">
<svg version="1.1" xmlns="http://www.w3.org/2000/svg" xmlns:xlink="http://www.w3.org/1999/xlink" x="0px" y="0px"
	 viewBox="0 0 250 250" enable-background="new 0 0 250 250" xml:space="preserve">
<g id="Guides">
</g>
<g id="_x31_2_Col_Grid" opacity="0.1" enable-background="new    ">
</g>
<g id="Layer_3">
	<g>
		<path fill="#163F2A" d="M79.896,201.597c0-2.311-1.873-4.184-4.183-4.184h-5.634c-2.31,0-4.183,1.873-4.183,4.184v12.633
			c0,2.311,1.873,4.184,4.183,4.184h5.634c2.31,0,4.183-1.873,4.183-4.184V201.597z"/>
		<path fill="#163F2A" d="M133.896,201.597c0-2.311-1.873-4.184-4.183-4.184h-5.634c-2.31,0-4.183,1.873-4.183,4.184v12.633
			c0,2.311,1.873,4.184,4.183,4.184h5.634c2.31,0,4.183-1.873,4.183-4.184V201.597z"/>
	</g>
	<path fill="#163F2A" d="M140.105,186.61c0-6.705-5.436-12.141-12.141-12.141H73.476c-6.705,0-12.141,5.436-12.141,12.141v8.474
		c0,6.705,5.436,12.141,12.141,12.141h54.488c6.705,0,12.141-5.436,12.141-12.141V186.61z M71.697,191.279
		c-2.256,0-4.084-1.829-4.084-4.084c0-2.256,1.829-4.084,4.084-4.084c2.256,0,4.084,1.829,4.084,4.084
		C75.782,189.45,73.953,191.279,71.697,191.279z M128.293,191.279c-2.256,0-4.084-1.829-4.084-4.084
		c0-2.256,1.829-4.084,4.084-4.084c2.256,0,4.084,1.829,4.084,4.084C132.378,189.45,130.549,191.279,128.293,191.279z"/>
	<path fill="#163F2A" stroke="#163F2A" stroke-width="3" stroke-miterlimit="10" d="M106.959,139.628
		c0,1.798-1.457,3.255-3.255,3.255h-6.748c-1.798,0-3.255-1.457-3.255-3.255v-0.509c0-1.798,1.457-3.255,3.255-3.255h6.748
		c1.798,0,3.255,1.457,3.255,3.255V139.628z"/>
	<g>
		<g>
			<path fill="#163F2A" d="M73.923,180.976l-7.64-1.569c0.016-0.079,1.652-8.027,3.571-15.872
				c3.974-16.249,5.612-18.702,9.18-18.702h22.077v7.799H81.063C79.354,156.944,76.197,169.902,73.923,180.976z"/>
		</g>
		<g>
			<path fill="#163F2A" d="M126.797,180.969c-2.251-11.068-5.382-24.019-7.082-28.337H99.55v-7.799h22.199
				c3.572,0,5.206,2.455,9.151,18.709c1.904,7.845,3.524,15.792,3.54,15.872L126.797,180.969z"/>
		</g>
	</g>
	<path fill="#163F2A" d="M72.254,173.106c0,2.045-1.658,3.703-3.703,3.703h-8.192c-2.045,0-3.703-1.658-3.703-3.703v-0.393
		c0-2.045,1.658-3.703,3.703-3.703h8.192c2.045,0,3.703,1.658,3.703,3.703V173.106z"/>
	<path fill="#163F2A" d="M144.005,172.909c0,2.154-1.746,3.9-3.9,3.9h-7.799c-2.154,0-3.9-1.746-3.9-3.9l0,0
		c0-2.154,1.746-3.9,3.9-3.9h7.799C142.259,169.01,144.005,170.755,144.005,172.909L144.005,172.909z"/>
	<g>
		<path fill="#163F2A" d="M177.896,201.597c0-2.311-1.873-4.184-4.183-4.184h-5.634c-2.31,0-4.183,1.873-4.183,4.184v12.633
			c0,2.311,1.873,4.184,4.183,4.184h5.634c2.31,0,4.183-1.873,4.183-4.184V201.597z"/>
		<path fill="#163F2A" d="M230.896,201.597c0-2.311-1.873-4.184-4.183-4.184h-5.634c-2.31,0-4.183,1.873-4.183,4.184v12.633
			c0,2.311,1.873,4.184,4.183,4.184h5.634c2.31,0,4.183-1.873,4.183-4.184V201.597z"/>
	</g>
	<path fill="#163F2A" d="M237.194,186.61c0-6.705-5.436-12.141-12.141-12.141h-54.488c-6.705,0-12.141,5.436-12.141,12.141v8.474
		c0,6.705,5.436,12.141,12.141,12.141h54.488c6.705,0,12.141-5.436,12.141-12.141V186.61z M168.787,191.279
		c-2.256,0-4.084-1.829-4.084-4.084c0-2.256,1.829-4.084,4.084-4.084c2.256,0,4.084,1.829,4.084,4.084
		C172.871,189.45,171.042,191.279,168.787,191.279z M225.383,191.279c-2.256,0-4.084-1.829-4.084-4.084
		c0-2.256,1.829-4.084,4.084-4.084c2.256,0,4.084,1.829,4.084,4.084C229.467,189.45,227.638,191.279,225.383,191.279z"/>
	<path fill="#163F2A" stroke="#163F2A" stroke-width="3" stroke-miterlimit="10" d="M204.048,139.628
		c0,1.798-1.457,3.255-3.255,3.255h-6.748c-1.798,0-3.255-1.457-3.255-3.255v-0.509c0-1.798,1.457-3.255,3.255-3.255h6.748
		c1.798,0,3.255,1.457,3.255,3.255V139.628z"/>
	<g>
		<g>
			<path fill="#163F2A" d="M171.012,180.976l-7.64-1.569c0.016-0.079,1.652-8.027,3.571-15.872
				c3.974-16.249,5.612-18.702,9.18-18.702h22.077v7.799h-20.047C176.443,156.944,173.286,169.902,171.012,180.976z"/>
		</g>
		<g>
			<path fill="#163F2A" d="M223.886,180.969c-2.251-11.068-5.382-24.019-7.082-28.337h-20.164v-7.799h22.199
				c3.572,0,5.206,2.455,9.151,18.709c1.904,7.845,3.524,15.792,3.54,15.872L223.886,180.969z"/>
		</g>
	</g>
	<path fill="#163F2A" d="M169.343,173.106c0,2.045-1.658,3.703-3.703,3.703h-8.192c-2.045,0-3.703-1.658-3.703-3.703v-0.393
		c0-2.045,1.658-3.703,3.703-3.703h8.192c2.045,0,3.703,1.658,3.703,3.703V173.106z"/>
	<path fill="#163F2A" d="M241.094,172.909c0,2.154-1.746,3.9-3.9,3.9h-7.799c-2.154,0-3.9-1.746-3.9-3.9l0,0
		c0-2.154,1.746-3.9,3.9-3.9h7.799C239.348,169.01,241.094,170.755,241.094,172.909L241.094,172.909z"/>
</g>
<g id="Layer_4">
	
		<line fill="none" stroke="#183F2A" stroke-width="6" stroke-linecap="round" stroke-miterlimit="10" x1="-0.104" y1="220.414" x2="248.896" y2="220.414"/>
	
		<rect x="22.758" y="76.413" fill="none" stroke="#183F2A" stroke-width="6" stroke-linecap="round" stroke-miterlimit="10" width="20.184" height="143.896"/>
	
		<rect x="-2.808" y="21.414" fill="none" stroke="#183F2A" stroke-width="6" stroke-linecap="round" stroke-miterlimit="10" width="254.882" height="54.54"/>
</g>
</svg>
