<svg xmlns="http://www.w3.org/2000/svg" viewBox="0 0 250 250"><path fill="#163F2A" d="M98.57 129.996c0 14.976-12.14 27.116-27.118 27.116-14.976 0-27.116-12.14-27.116-27.116 0-14.976 12.14-27.118 27.116-27.118 14.978-.001 27.118 12.141 27.118 27.118M42.896 205.414v45h61v-44.996c0-2.287.08-3.686 1.567-3.931 1.909-.669 3.103 1.135 3.103 1.135l9.461 17.742c1.467 3.787 3.519 4.95 9.049 6.242l18.559 2.544 21.71 3.63s14.347 4.615 16.366-7.466c2.019-12.082-12.267-13.434-12.267-13.434l-20.529-3.431-15.567-2.602s-8.79-22.278-12.806-29.185c-3.991-6.863-11.417-10.534-15.782-11.112l-10.466-.359c-15.829-.013-31.637-.013-47.439-.013-15.511.013-26.717 6.26-31.002 21.166-.152.444-.394 4.17-.604 4.614l-.135 59.456h20.64c.003-15.857.004-30.354.031-45.49 0-.811-.127-2.236.628-2.354 1.249-.195 2.887-.29 4.178-.187"/><g fill="#163F2A"><path d="M99.287 27.391c3.588 0 5.664 2.076 5.664 4.869 0 1.871-1.179 3.409-2.665 3.896 1.64.384 3.229 1.897 3.229 4.254 0 2.973-2.255 5.152-5.69 5.152h-7.33V27.391h6.792zm-.64 7.279c1.41 0 2.332-.743 2.332-1.974 0-1.179-.794-1.948-2.383-1.948h-2.153v3.921h2.204zm.333 7.586c1.563 0 2.512-.82 2.512-2.127 0-1.256-.922-2.127-2.512-2.127h-2.537v4.254h2.537zM111.154 38.207l2.999-.462c.692-.102.923-.436.923-.871 0-.743-.641-1.384-1.871-1.384-1.359 0-2.102.923-2.179 1.871l-3.383-.692c.154-1.819 1.845-4.229 5.587-4.229 4.126 0 5.638 2.307 5.638 4.921v6.228c0 1 .128 1.845.154 1.974h-3.511c-.025-.103-.128-.564-.128-1.435-.666 1.076-1.897 1.794-3.588 1.794-2.794 0-4.409-1.845-4.409-3.87 0-2.256 1.666-3.537 3.768-3.845zm3.922 2.358v-.564l-2.409.384c-.82.128-1.435.513-1.435 1.41 0 .666.436 1.307 1.512 1.307 1.152 0 2.332-.564 2.332-2.537zM122.662 50.458l2.896-6.612-5.357-11.021h4.357l3.101 6.818 2.819-6.818h4.126l-7.843 17.633h-4.099zM139.194 38.207l2.999-.462c.692-.102.923-.436.923-.871 0-.743-.641-1.384-1.871-1.384-1.358 0-2.102.923-2.178 1.871l-3.383-.692c.154-1.819 1.845-4.229 5.587-4.229 4.126 0 5.638 2.307 5.638 4.921v6.228c0 1 .128 1.845.154 1.974h-3.511c-.025-.103-.128-.564-.128-1.435-.666 1.076-1.897 1.794-3.588 1.794-2.794 0-4.409-1.845-4.409-3.87-.001-2.256 1.665-3.537 3.767-3.845zm3.921 2.358v-.564l-2.409.384c-.82.128-1.435.513-1.435 1.41 0 .666.436 1.307 1.512 1.307 1.153 0 2.332-.564 2.332-2.537zM162.645 43.282c0 1.153.077 1.999.103 2.281h-3.742a8.693 8.693 0 0 1-.103-1.23c-.59.871-1.871 1.512-3.409 1.512-3.588 0-6.305-2.768-6.305-6.69 0-3.793 2.563-6.638 6.177-6.638 2.178 0 3.127.82 3.434 1.307v-6.818h3.844v16.276zm-6.663-.923c1.512 0 2.87-1.076 2.87-3.178 0-2.127-1.358-3.153-2.87-3.153s-2.871 1.025-2.871 3.153c0 2.102 1.359 3.178 2.871 3.178zM172.462 50.432V32.825h3.768v1.307c.538-.82 1.922-1.615 3.742-1.615 3.691 0 5.921 2.819 5.921 6.638 0 3.896-2.512 6.69-6.074 6.69-1.64 0-2.871-.564-3.46-1.282v5.869h-3.897zm6.715-14.404c-1.512 0-2.871 1.025-2.871 3.153 0 2.102 1.359 3.178 2.871 3.178 1.538 0 2.896-1.051 2.896-3.178s-1.358-3.153-2.896-3.153zM201.014 39.181c0 3.947-2.947 6.766-6.766 6.766-3.793 0-6.766-2.819-6.766-6.766s2.973-6.741 6.766-6.741c3.819 0 6.766 2.794 6.766 6.741zm-3.896 0c0-2.153-1.384-3.153-2.871-3.153-1.461 0-2.871 1-2.871 3.153 0 2.127 1.41 3.178 2.871 3.178 1.487 0 2.871-1.025 2.871-3.178zM207.217 39.873h-2.871l-.897-12.481h4.665l-.897 12.481zm-1.461 1.512c1.23 0 2.23 1 2.23 2.23 0 1.205-1 2.204-2.23 2.204s-2.204-1-2.204-2.204c0-1.23.974-2.23 2.204-2.23z"/></g><path fill="#163F2A" d="M214.939 205.249l-10.62 12.527a4.948 4.948 0 0 1-6.954.573l-24.857-21.072a4.948 4.948 0 0 1-.573-6.954l10.62-12.527a4.948 4.948 0 0 1 6.954-.573l24.857 21.072c2.069 1.754 2.327 4.884.573 6.954z"/><path fill="#183F2A" d="M102.108 100.851l1.975-23.825c-5.855-.45-18.993-2.038-27.974-7.472-15.221-9.209-18.623-22.834-18.76-23.409a2.831 2.831 0 0 1 5.506-1.324c.029.119 3.077 11.958 16.186 19.889 10.347 6.26 28.006 6.823 28.183 6.828l2.99.084-1.21 14.606 13.739-13.387 1.229.059c.098.004 9.894.465 19.553.465a2.832 2.832 0 0 1 0 5.664c-7.772 0-15.624-.294-18.588-.418l-22.829 22.24z"/></svg>