<svg xmlns="http://www.w3.org/2000/svg" viewBox="0 0 250 250"><path fill="#183F2A" d="M156.344 203.393h-53.89c-10.116 0-18.345-8.23-18.345-18.345V68.951c0-10.116 8.23-18.345 18.345-18.345h53.89c10.116 0 18.345 8.23 18.345 18.345v116.096c0 10.117-8.229 18.346-18.345 18.346zm-53.89-147.33c-7.107 0-12.889 5.782-12.889 12.889v116.096c0 7.107 5.782 12.889 12.889 12.889h53.89c7.107 0 12.889-5.782 12.889-12.889V68.951c0-7.107-5.782-12.889-12.889-12.889h-53.89z"/><path fill="#183F2A" d="M150.68 128.091h-42.562c-5.115 0-9.276-4.161-9.276-9.276V81.709c0-5.115 4.161-9.276 9.276-9.276h42.562c5.115 0 9.276 4.161 9.276 9.276v37.106c0 5.115-4.161 9.276-9.276 9.276zm-42.562-50.202a3.824 3.824 0 0 0-3.82 3.82v37.106a3.824 3.824 0 0 0 3.82 3.82h42.562a3.824 3.824 0 0 0 3.82-3.82V81.709a3.824 3.824 0 0 0-3.82-3.82h-42.562zM112.871 152.84h-9.176a4.532 4.532 0 0 1-4.527-4.527v-9.887a4.532 4.532 0 0 1 4.527-4.527h9.176a4.532 4.532 0 0 1 4.527 4.527v9.887a4.533 4.533 0 0 1-4.527 4.527zm-8.247-5.457h7.317v-8.028h-7.317v8.028zM133.654 152.84h-9.176a4.532 4.532 0 0 1-4.527-4.527v-9.887a4.532 4.532 0 0 1 4.527-4.527h9.176a4.532 4.532 0 0 1 4.527 4.527v9.887a4.532 4.532 0 0 1-4.527 4.527zm-8.246-5.457h7.317v-8.028h-7.317v8.028zM154.228 152.84h-9.176a4.532 4.532 0 0 1-4.527-4.527v-9.887a4.532 4.532 0 0 1 4.527-4.527h9.176a4.532 4.532 0 0 1 4.527 4.527v9.887a4.533 4.533 0 0 1-4.527 4.527zm-8.247-5.457h7.317v-8.028h-7.317v8.028zM112.871 174.667h-9.176a4.532 4.532 0 0 1-4.527-4.527v-9.887a4.532 4.532 0 0 1 4.527-4.527h9.176a4.532 4.532 0 0 1 4.527 4.527v9.887a4.532 4.532 0 0 1-4.527 4.527zm-8.247-5.457h7.317v-8.028h-7.317v8.028zM133.654 174.667h-9.176a4.532 4.532 0 0 1-4.527-4.527v-9.887a4.532 4.532 0 0 1 4.527-4.527h9.176a4.532 4.532 0 0 1 4.527 4.527v9.887a4.532 4.532 0 0 1-4.527 4.527zm-8.246-5.457h7.317v-8.028h-7.317v8.028zM154.228 174.667h-9.176a4.532 4.532 0 0 1-4.527-4.527v-9.887a4.532 4.532 0 0 1 4.527-4.527h9.176a4.532 4.532 0 0 1 4.527 4.527v9.887a4.532 4.532 0 0 1-4.527 4.527zm-8.247-5.457h7.317v-8.028h-7.317v8.028z"/><path fill="#193F2A" d="M128.608 128.74a4.61 4.61 0 0 1-3.266-1.345L97.048 99.337l-28.044 28.044a4.61 4.61 0 0 1-3.28 1.358 4.607 4.607 0 0 1-3.279-1.358l-7.894-7.894a4.61 4.61 0 0 1-1.358-3.28c0-1.238.482-2.403 1.358-3.279l28.032-28.031L54.55 56.868a4.61 4.61 0 0 1-1.358-3.28c0-1.238.482-2.403 1.358-3.279l7.894-7.894a4.61 4.61 0 0 1 3.28-1.358c1.239 0 2.403.482 3.279 1.358L97.048 70.46l28.294-28.058a4.607 4.607 0 0 1 3.265-1.345c1.238 0 2.403.482 3.28 1.358l7.894 7.894a4.671 4.671 0 0 1 1.358 3.29 4.67 4.67 0 0 1-1.372 3.283l-28.252 28.017 28.252 28.016a4.668 4.668 0 0 1 1.372 3.283 4.667 4.667 0 0 1-1.358 3.289l-7.894 7.894a4.605 4.605 0 0 1-3.279 1.359z"/><path fill="#FFF" d="M128.607 43.512c.559 0 1.117.213 1.544.639l7.893 7.893a2.183 2.183 0 0 1-.007 3.093l-30.01 29.76 30.01 29.76a2.183 2.183 0 0 1 .007 3.093l-7.893 7.893a2.176 2.176 0 0 1-1.543.639 2.176 2.176 0 0 1-1.537-.633l-30.03-29.78-29.774 29.773a2.176 2.176 0 0 1-1.543.639 2.174 2.174 0 0 1-1.543-.639l-7.893-7.893a2.186 2.186 0 0 1 0-3.086l29.767-29.766-29.768-29.765a2.186 2.186 0 0 1 0-3.086l7.893-7.893a2.177 2.177 0 0 1 1.544-.639c.558 0 1.117.213 1.543.639l29.774 29.773 30.03-29.78a2.17 2.17 0 0 1 1.536-.634m0-4.911a7.05 7.05 0 0 0-4.996 2.058L97.055 66.994 70.74 40.679a7.05 7.05 0 0 0-5.016-2.077 7.047 7.047 0 0 0-5.015 2.076l-7.894 7.894a7.05 7.05 0 0 0-2.078 5.016c0 1.894.737 3.675 2.076 5.015l26.296 26.295-26.295 26.294a7.05 7.05 0 0 0-2.078 5.016c0 1.894.737 3.675 2.076 5.015l7.894 7.894c1.341 1.34 3.122 2.078 5.016 2.078s3.675-.737 5.015-2.077l26.317-26.316 26.557 26.336a7.05 7.05 0 0 0 4.995 2.057 7.05 7.05 0 0 0 5.017-2.078l7.893-7.893a7.139 7.139 0 0 0 2.077-5.032 7.137 7.137 0 0 0-2.099-5.021l-26.493-26.273 26.494-26.273a7.147 7.147 0 0 0 2.099-5.021 7.145 7.145 0 0 0-2.077-5.031l-7.894-7.894a7.046 7.046 0 0 0-5.016-2.078z"/></svg>