<?xml version="1.0" encoding="utf-8"?>
<!-- Generator: Adobe Illustrator 18.0.0, SVG Export Plug-In . SVG Version: 6.00 Build 0)  -->
<!DOCTYPE svg PUBLIC "-//W3C//DTD SVG 1.1//EN" "http://www.w3.org/Graphics/SVG/1.1/DTD/svg11.dtd">
<svg version="1.1" xmlns="http://www.w3.org/2000/svg" xmlns:xlink="http://www.w3.org/1999/xlink" x="0px" y="0px"
	 viewBox="0 0 250 250" enable-background="new 0 0 250 250" xml:space="preserve">
<g id="Guides">
</g>
<g id="_x31_2_Col_Grid" opacity="0.1" enable-background="new    ">
</g>
<g id="Layer_3">
</g>
<g id="Layer_4">
	<g>
		<path fill="#183F2A" d="M252.283,131.414H-12.859c-1.66,0-3.006-1.34-3.006-3s1.346-3,3.006-3h265.142c1.66,0,3.006,1.34,3.006,3
			S253.943,131.414,252.283,131.414z"/>
	</g>
	<g>
		<path fill="#183F2A" d="M254.687,168.414H-12.859c-1.66,0-3.006-1.34-3.006-3s1.346-3,3.006-3h267.546c1.66,0,3.006,1.34,3.006,3
			S256.348,168.414,254.687,168.414z"/>
	</g>
	<g>
		<g>
			<path fill="#183F2A" d="M219.215,216.414h-16.834c-1.66,0-3.006-0.84-3.006-2.5s1.346-2.5,3.006-2.5h16.834
				c1.66,0,3.006,0.84,3.006,2.5S220.875,216.414,219.215,216.414z M174.724,216.414H157.89c-1.66,0-3.006-0.84-3.006-2.5
				s1.346-2.5,3.006-2.5h16.834c1.66,0,3.006,0.84,3.006,2.5S176.384,216.414,174.724,216.414z M130.233,216.414h-16.834
				c-1.66,0-3.006-0.84-3.006-2.5s1.346-2.5,3.006-2.5h16.834c1.66,0,3.006,0.84,3.006,2.5S131.893,216.414,130.233,216.414z
				 M85.742,216.414H68.908c-1.66,0-3.006-0.84-3.006-2.5s1.346-2.5,3.006-2.5h16.834c1.66,0,3.006,0.84,3.006,2.5
				S87.403,216.414,85.742,216.414z M41.252,216.414H24.417c-1.66,0-3.006-0.84-3.006-2.5s1.346-2.5,3.006-2.5h16.834
				c1.66,0,3.006,0.84,3.006,2.5S42.912,216.414,41.252,216.414z"/>
		</g>
		<g>
			<path fill="#183F2A" d="M254.687,216.414h-9.018c-1.66,0-3.006-0.84-3.006-2.5s1.346-2.5,3.006-2.5h9.018
				c1.66,0,3.006,0.84,3.006,2.5S256.348,216.414,254.687,216.414z"/>
		</g>
	</g>
	<g>
		<line fill="#163F2A" x1="170.092" y1="162.702" x2="196.546" y2="129.033"/>
		<path fill="#183F2A" d="M170.09,165.708c-0.65,0-1.304-0.21-1.855-0.642c-1.305-1.026-1.532-2.916-0.507-4.221l26.454-33.669
			c1.026-1.305,2.916-1.532,4.221-0.507c1.305,1.026,1.532,2.916,0.507,4.221l-26.454,33.669
			C171.863,165.314,170.981,165.708,170.09,165.708z"/>
	</g>
	<g>
		<line fill="#163F2A" x1="103.356" y1="162.303" x2="129.81" y2="128.634"/>
		<path fill="#183F2A" d="M103.354,165.309c-0.65,0-1.304-0.21-1.855-0.642c-1.305-1.026-1.532-2.916-0.507-4.221l26.454-33.669
			c1.026-1.305,2.916-1.532,4.221-0.507c1.305,1.026,1.532,2.916,0.507,4.221L105.72,164.16
			C105.127,164.915,104.245,165.309,103.354,165.309z"/>
	</g>
	<g>
		<line fill="#163F2A" x1="37.822" y1="162.702" x2="64.276" y2="129.033"/>
		<path fill="#183F2A" d="M37.82,165.708c-0.65,0-1.304-0.21-1.855-0.642c-1.306-1.026-1.532-2.916-0.507-4.221l26.454-33.669
			c1.026-1.305,2.916-1.532,4.221-0.507c1.305,1.026,1.532,2.916,0.507,4.221l-26.454,33.669
			C39.593,165.314,38.711,165.708,37.82,165.708z"/>
	</g>
	<g>
		<g>
			<path fill="#163F2A" d="M137.35,57.243c-5.722,0-10.378-4.655-10.378-10.377s4.656-10.377,10.378-10.377
				s10.377,4.655,10.377,10.377S143.072,57.243,137.35,57.243z"/>
			<path fill="#FFFFFF" d="M137.35,37.987c4.883,0,8.877,3.969,8.877,8.878s-3.995,8.877-8.877,8.877
				c-4.909,0-8.878-3.969-8.878-8.877S132.441,37.987,137.35,37.987 M137.35,34.987c-6.549,0-11.878,5.328-11.878,11.878
				c0,6.549,5.328,11.877,11.878,11.877c6.549,0,11.877-5.328,11.877-11.877C149.227,40.316,143.899,34.987,137.35,34.987
				L137.35,34.987z"/>
		</g>
		<g>
			<path fill="#163F2A" d="M136.668,151.468c-3.264,0-5.919-2.788-5.919-6.214l0.479-23.921l-9.625-12.665l-12.284,36.728
				c-1.425,3.744-3.974,5.857-7.016,5.857c-3.328,0-6.035-2.691-6.035-5.998c0-0.126,0.016-0.252,0.047-0.374l18.528-72.708
				l-6.948,2.101v14.85c0,0.581,0.342,3.304-1.425,5.249c-0.756,0.833-2.061,1.825-4.46,1.825c0,0,0.05,0,0.049,0
				c-0.155,0-0.29-0.004-0.453-0.013c-4.5-0.23-5.456-4.728-5.339-7.073l0.004-23.509c0-0.657,0.431-1.238,1.058-1.433l26.815-8.323
				c0.906-0.265,1.908-0.4,2.92-0.4c3.48,0,6.725,2.052,8.494,5.046l9.424,15.922h16.494c0.093,0,0.187-0.183,0.278-0.166
				c4.09,0.773,5.155,4.903,5.198,5.082c0.029,0.118,0.042,0.191,0.042,0.313c-0.029,4.787-2.617,6.651-5.029,6.651
				c-0.255,0-0.464,0.12-0.605,0.12h-23.417c-0.526,0-1.013-0.458-1.285-0.908l-3.652-6.146l-2.72,10.023l13.398,24.762
				c0.129,0.239,0.191,0.497,0.179,0.768l-1.293,29.093C142.399,149.131,139.861,151.468,136.668,151.468z"/>
			<path fill="#FFFFFF" d="M127.093,57.414c2.947,0,5.676,1.286,7.175,3.824l9.865,16.176h17.344c3.185,1,4.019,4.114,4.019,4.114
				c-0.027,4.508-2.463,4.963-3.529,4.963c-0.299,0-0.49-0.077-0.49-0.077h-23.532l-5.468-8.999l-3.792,14.075l13.683,25.329
				l-1.293,29.107c-0.129,2.316-2.006,4.039-4.406,4.039c-2.484,0-4.419-2.227-4.419-4.712l0.49-24.412l-11.658-15.339
				l-13.183,39.419c-1.158,3.04-3.134,4.833-5.594,4.833c-2.484,0-4.535-2.014-4.535-4.498l19.449-75.315l-10.322,3.229v16.016
				c0,0,0.482,5.512-4.735,5.512c-0.13,0-0.231-0.003-0.368-0.01c-4.193-0.215-3.896-5.501-3.896-5.501V65.601l26.755-8.088
				c0.762-0.222,1.576-0.099,2.416-0.099c0.009,0-0.171,0-0.171,0 M127.093,54.414c-0.002,0-0.03,0-0.032,0
				c-1.146,0-2.291-0.078-3.308,0.218c-0.017,0.005-0.034-0.107-0.05-0.102l-26.755,8.264c-1.255,0.39-2.052,1.492-2.052,2.807
				v23.517c0,3.328,1.491,8.296,6.718,8.564c0.19,0.01,0.347,0.014,0.527,0.014c2.613,0,4.281-0.99,5.298-1.951l-12.567,48.761
				c-0.063,0.244-0.098,0.496-0.098,0.748c0,4.135,3.378,7.498,7.533,7.498c3.699,0,6.759-2.466,8.396-6.765
				c0.015-0.039,0.028-0.077,0.041-0.116l11.383-34.037l7.415,9.99l-0.646,23.369c0,0.02,0,0.04,0,0.06
				c0,4.253,3.505,7.714,7.596,7.714c4.001,0,7.271-2.952,7.49-6.867l1.339-29.133c0.024-0.543-0.077-1.082-0.336-1.56
				l-13.103-24.259l1.652-6.097l1.839,2.978c0.543,0.9,1.52,1.383,2.572,1.383h23.325c0.186,0,0.423,0.106,0.697,0.106
				c2.99,0,6.493-2.057,6.529-7.95c0.001-0.243-0.027-0.469-0.084-0.705c-0.479-1.983-2.361-5.591-6.379-6.35
				c-0.183-0.035-0.37-0.102-0.556-0.102h-15.644l-8.992-14.717C134.814,56.263,131.075,54.414,127.093,54.414L127.093,54.414z
				 M109.896,75.377l3.123-0.972l-3.123,12.125V75.377L109.896,75.377z"/>
		</g>
	</g>
</g>
</svg>
