<svg xmlns="http://www.w3.org/2000/svg" viewBox="0 0 250 250"><g stroke="#183F2A" stroke-linecap="round" stroke-miterlimit="10"><path fill="none" stroke-width="10" d="M65.896 142.414h13M51.896 157.414h25"/><path fill="none" stroke-width="6" stroke-linejoin="round" d="M-5.104 196.414h261"/><g fill="#163F2A" stroke-width="2" stroke-linejoin="round"><path d="M146.975 70.026c6.626 0 12.047-5.386 12.047-12.047 0-6.661-5.421-12.048-12.047-12.048a12.038 12.038 0 0 0-12.048 12.048 12.038 12.038 0 0 0 12.048 12.047zM104.896 115.408V93.674l14.383-4.382L93.106 191.5c0 3.372 2.86 6.104 6.231 6.104 3.338 0 6.058-2.432 7.63-6.558l17.91-53.494 15.83 20.817-.66 33.131c0 3.372 2.628 6.397 6 6.397 3.258 0 5.805-2.332 5.981-5.476l1.755-39.489-18.568-34.35 5.147-19.264 7.421 12.095h31.935s5.407 1.718 5.454-6.115c0 0-1.132-4.885-5.454-4.885h-23.537l-13.388-22.759c-2.041-3.455-5.761-5.805-9.774-5.792-1.14 0-2.513.048-3.547.349L92.896 83.404v32.005s-.476 7.174 5.214 7.466c7.662.392 6.786-7.467 6.786-7.467z"/></g></g></svg>