<svg xmlns="http://www.w3.org/2000/svg" viewBox="0 0 250 250"><g fill="#163F2A"><path d="M49.144 127.663h-3.728a3.903 3.903 0 0 1-3.891-3.891v-19.773a3.903 3.903 0 0 1 3.891-3.891h3.728a3.903 3.903 0 0 1 3.891 3.891v19.773a3.903 3.903 0 0 1-3.891 3.891z"/><path d="M49.144 128.218h-3.728a4.45 4.45 0 0 1-4.446-4.446v-19.773a4.45 4.45 0 0 1 4.446-4.446h3.728a4.45 4.45 0 0 1 4.446 4.446v19.773a4.451 4.451 0 0 1-4.446 4.446zm-3.728-27.555a3.34 3.34 0 0 0-3.336 3.336v19.773a3.34 3.34 0 0 0 3.336 3.336h3.728a3.34 3.34 0 0 0 3.336-3.336v-19.773a3.34 3.34 0 0 0-3.336-3.336h-3.728z"/><g><path d="M98.875 127.663h-3.728a3.903 3.903 0 0 1-3.891-3.891v-19.773a3.903 3.903 0 0 1 3.891-3.891h3.728a3.903 3.903 0 0 1 3.891 3.891v19.773a3.901 3.901 0 0 1-3.891 3.891z"/><path d="M98.875 128.218h-3.728a4.45 4.45 0 0 1-4.446-4.446v-19.773a4.45 4.45 0 0 1 4.446-4.446h3.728a4.45 4.45 0 0 1 4.446 4.446v19.773a4.45 4.45 0 0 1-4.446 4.446zm-3.727-27.555a3.34 3.34 0 0 0-3.336 3.336v19.773a3.34 3.34 0 0 0 3.336 3.336h3.728a3.34 3.34 0 0 0 3.336-3.336v-19.773a3.34 3.34 0 0 0-3.336-3.336h-3.728z"/></g></g><g fill="#163F2A"><path d="M150.743 128.367h-3.728a3.903 3.903 0 0 1-3.891-3.891v-19.773a3.903 3.903 0 0 1 3.891-3.891h3.728a3.903 3.903 0 0 1 3.891 3.891v19.773a3.901 3.901 0 0 1-3.891 3.891z"/><path d="M150.743 128.921h-3.728a4.45 4.45 0 0 1-4.446-4.446v-19.773a4.451 4.451 0 0 1 4.446-4.446h3.728a4.45 4.45 0 0 1 4.446 4.446v19.773a4.45 4.45 0 0 1-4.446 4.446zm-3.727-27.555a3.34 3.34 0 0 0-3.336 3.336v19.773a3.34 3.34 0 0 0 3.336 3.336h3.728a3.34 3.34 0 0 0 3.336-3.336v-19.773a3.34 3.34 0 0 0-3.336-3.336h-3.728z"/></g><g fill="#163F2A"><path d="M200.475 128.367h-3.728a3.903 3.903 0 0 1-3.891-3.891v-19.773a3.903 3.903 0 0 1 3.891-3.891h3.728a3.903 3.903 0 0 1 3.891 3.891v19.773a3.903 3.903 0 0 1-3.891 3.891z"/><path d="M200.475 128.921h-3.728a4.45 4.45 0 0 1-4.446-4.446v-19.773a4.45 4.45 0 0 1 4.446-4.446h3.728a4.45 4.45 0 0 1 4.446 4.446v19.773a4.451 4.451 0 0 1-4.446 4.446zm-3.728-27.555a3.34 3.34 0 0 0-3.336 3.336v19.773a3.34 3.34 0 0 0 3.336 3.336h3.728a3.34 3.34 0 0 0 3.336-3.336v-19.773a3.34 3.34 0 0 0-3.336-3.336h-3.728z"/></g><path fill="#163F2A" d="M149.573 95.427l-5.176-2.188c6.425-16.635 9.006-16.825 10.547-16.825h19.952v6h-19.118c-1.373 3-4.198 7.818-6.205 13.013z"/><path fill="#163F2A" d="M198.929 95.46c-2.095-5.221-5.025-10.046-6.422-13.046h-18.61v-6h19.429c1.532 0 4.096.189 10.754 16.792l-5.151 2.254z"/><path fill="#163F2A" d="M200.142 109.958H147.11c-2.839 0-5.163-2.323-5.163-5.163v-7.059c0-2.839 2.323-5.163 5.163-5.163h53.032c2.839 0 5.163 2.323 5.163 5.163v7.059c-.001 2.84-2.324 5.163-5.163 5.163z"/><path fill="#163F2A" d="M201.228 118.244h-54.463c-5.813 0-10.568-4.756-10.568-10.568v-4.507c0-5.813 4.756-10.568 10.568-10.568h54.463c5.813 0 10.568 4.756 10.568 10.568v4.507c0 5.812-4.756 10.568-10.568 10.568zM97.935 117.964H46.804c-6.285 0-11.428-5.142-11.428-11.428v-7.782c0-6.285 5.142-11.428 11.428-11.428h51.131c6.285 0 11.428 5.142 11.428 11.428v7.782c0 6.285-5.143 11.428-11.428 11.428z"/><circle fill="#FFF" cx="146.927" cy="103.037" r="3.844"/><circle fill="#FFF" cx="201.862" cy="103.037" r="3.844"/><circle fill="#FFF" cx="45.381" cy="99.153" r="3.844"/><circle fill="#FFF" cx="98.651" cy="99.153" r="3.844"/><g fill="#163F2A"><path d="M176.643 74.13h-6.45a3.073 3.073 0 0 1-3.064-3.064v-.124a3.073 3.073 0 0 1 3.064-3.064h6.45a3.073 3.073 0 0 1 3.064 3.064v.124a3.073 3.073 0 0 1-3.064 3.064z"/><path d="M176.643 74.843h-6.45a3.78 3.78 0 0 1-3.777-3.777v-.124a3.78 3.78 0 0 1 3.777-3.777h6.45a3.78 3.78 0 0 1 3.777 3.777v.124a3.78 3.78 0 0 1-3.777 3.777zm-6.45-6.251a2.352 2.352 0 0 0-2.35 2.35v.124a2.352 2.352 0 0 0 2.35 2.35h6.45a2.352 2.352 0 0 0 2.35-2.35v-.124a2.352 2.352 0 0 0-2.35-2.35h-6.45z"/></g><g fill="#163F2A"><path d="M75.29 57.411h-6.45a3.073 3.073 0 0 1-3.064-3.064v-.124a3.073 3.073 0 0 1 3.064-3.064h6.45a3.073 3.073 0 0 1 3.064 3.064v.124a3.073 3.073 0 0 1-3.064 3.064z"/><path d="M75.291 58.124h-6.45a3.78 3.78 0 0 1-3.777-3.777v-.124a3.78 3.78 0 0 1 3.777-3.777h6.45a3.781 3.781 0 0 1 3.777 3.777v.124a3.782 3.782 0 0 1-3.777 3.777zm-6.451-6.251a2.352 2.352 0 0 0-2.35 2.35v.124a2.352 2.352 0 0 0 2.35 2.35h6.45a2.352 2.352 0 0 0 2.35-2.35v-.124a2.352 2.352 0 0 0-2.35-2.35h-6.45z"/></g><path fill="#163F2A" d="M144.703 95.432h-7.656a3.495 3.495 0 0 1-3.485-3.485v-.49a3.495 3.495 0 0 1 3.485-3.485h7.656a3.495 3.495 0 0 1 3.485 3.485v.49a3.494 3.494 0 0 1-3.485 3.485zM211.043 95.077h-6.921a3.741 3.741 0 0 1-3.73-3.73 3.741 3.741 0 0 1 3.73-3.73h6.921a3.741 3.741 0 0 1 3.73 3.73 3.74 3.74 0 0 1-3.73 3.73zM46.467 92.923l-5.431-1.087c.016-.075 1.584-7.513 3.418-14.88 1.086-4.363 2.055-7.669 2.88-10.188 1.253-3.828 2.342-6.354 4.951-6.354h20.611v5H53.592c-1.599 4-4.812 16.477-7.125 27.509z"/><path fill="#163F2A" d="M98.172 92.911c-2.26-11.02-5.411-23.498-6.994-27.498H71.896v-5h20.595c2.617 0 3.695 2.544 4.933 6.378.814 2.52 1.767 5.924 2.833 10.287a501.522 501.522 0 0 1 3.35 14.812l-5.435 1.021zM41.678 87.972h-7.656a3.495 3.495 0 0 1-3.485-3.485v-.49a3.495 3.495 0 0 1 3.485-3.485h7.656a3.495 3.495 0 0 1 3.485 3.485v.49a3.495 3.495 0 0 1-3.485 3.485z"/><path fill="#163F2A" d="M108.018 87.617h-6.921a3.741 3.741 0 0 1-3.73-3.73 3.741 3.741 0 0 1 3.73-3.73h6.921a3.741 3.741 0 0 1 3.73 3.73 3.741 3.741 0 0 1-3.73 3.73zM105.061 49.401l23.767-40.96 23.666 40.96h-47.433zm25.891-15.07v-8.698h-4.349v8.698h4.349zm0 8.597v-4.349h-4.349v4.349h4.349z"/><path fill="#183F2A" d="M247.045 130.414H2.891c-1.532 0-2.774-1.468-2.774-3s1.242-3 2.774-3h244.154c1.532 0 2.774 1.468 2.774 3s-1.241 3-2.774 3z"/><path fill="#163F2A" d="M.672 237.639l24.415-17.756"/><path fill="#183F2A" d="M.674 240.414a2.775 2.775 0 0 1-1.634-5.019l24.415-17.757a2.775 2.775 0 0 1 3.264 4.488L2.304 239.883a2.766 2.766 0 0 1-1.63.531z"/><path fill="#163F2A" d="M42.844 237.639l24.415-17.756"/><path fill="#183F2A" d="M42.846 240.414a2.775 2.775 0 0 1-1.634-5.019l24.415-17.757a2.775 2.775 0 0 1 3.264 4.488l-24.415 17.757a2.766 2.766 0 0 1-1.63.531z"/><path fill="#163F2A" d="M87.79 237.639l24.416-17.756"/><path fill="#183F2A" d="M87.792 240.414a2.775 2.775 0 0 1-1.634-5.019l24.415-17.757a2.775 2.775 0 0 1 3.264 4.488l-24.415 17.757a2.764 2.764 0 0 1-1.63.531z"/><g><path fill="#163F2A" d="M134.956 237.639l24.416-17.756"/><path fill="#183F2A" d="M134.959 240.414a2.775 2.775 0 0 1-1.634-5.019l24.415-17.757a2.775 2.775 0 0 1 3.264 4.488l-24.415 17.757a2.766 2.766 0 0 1-1.63.531z"/></g><g><path fill="#163F2A" d="M216.526 237.639l24.416-17.756"/><path fill="#183F2A" d="M216.528 240.414a2.775 2.775 0 0 1-1.634-5.019l24.415-17.757a2.775 2.775 0 0 1 3.264 4.488l-24.415 17.757a2.764 2.764 0 0 1-1.63.531z"/></g><g><path fill="#163F2A" d="M170.333 168.347c-6.767 0-12.304-5.501-12.304-12.304s5.537-12.305 12.304-12.305a12.295 12.295 0 0 1 12.305 12.305 12.296 12.296 0 0 1-12.305 12.304z"/><path fill="#183F2A" d="M170.332 168.902c-7.091 0-12.859-5.769-12.859-12.859 0-7.091 5.769-12.86 12.859-12.86 7.091 0 12.86 5.769 12.86 12.86 0 7.09-5.769 12.859-12.86 12.859zm0-24.609c-6.479 0-11.75 5.271-11.75 11.75s5.271 11.75 11.75 11.75 11.75-5.271 11.75-11.75-5.271-11.75-11.75-11.75z"/></g><g><path fill="#163F2A" d="M177.086 198.663l5.256 19.424-10.869 20.327h20.851l.556-.732.245.732h18.049l-13.262-50.206 13.983 4.292v22.198s-.523 8.026 7.303 7.625c5.811-.298 5.697-7.625 5.697-7.625V182.01l-37.023-11.573a12.45 12.45 0 0 0-3.415-.499c-4.099-.013-7.834 2.188-9.919 5.717l-13.61 22.76h-24.039c-4.414 0-5.57 5.872-5.57 5.872.048 8 5.57 7.128 5.57 7.128h32.616l7.581-12.752z"/><path fill="#183F2A" d="M211.186 239.414h-18.06a.551.551 0 0 1-.4-.171.556.556 0 0 1-.4.171h-20.851c-.195 0-.376-.435-.476-.603-.1-.168-.105-.542-.012-.714l10.764-20.069-4.853-17.84-6.911 11.823c-.1.169-.282.402-.478.402h-32.586c-.062 0-.19-.133-.371-.133-1.346 0-5.741-.641-5.784-7.93 0-.04.004-.117.012-.155.051-.239 1.292-5.524 6.044-6.122.023-.003.046.34.069.34h23.725l13.512-22.769c2.149-3.637 6.142-6.081 10.419-6.081 1.231 0 2.614.104 3.735.431l37.755 11.531c.232.072.859.242.859.485v32.687c0 2.705-1.547 7.921-6.574 8.179-.201.01-.63.015-.82.015-2.224 0-4.1-.684-5.345-2.032-2.227-2.412-2.023-6.053-2.01-6.207l-.031-21.743-13.032-3.991 12.608 49.034c.035.073.052.487.052.574-.002.307-.254.888-.56.888zm-17.661-1h16.934l-12.711-49.79c-.05-.194.009-.594.154-.733s.355-.285.546-.226l14.206 4.353c.233.072.242.238.242.482v22.198c0 .076-.084 3.365 1.814 5.415 1.119 1.208 2.85 1.767 5.035 1.656 5.195-.267 5.151-6.777 5.151-7.054v-32.296l-36.91-11.452a12.904 12.904 0 0 0-3.389-.474c-3.924 0-7.558 2.053-9.51 5.358l-13.679 22.486c-.101.166-.284.077-.478.077h-24.003c-3.715 1-4.918 5.181-5.051 5.728.022 2.064.535 6.783 4.674 6.783.159 0 .257.242.272.241.022-.003.047.248.069.248h32.299l7.418-12.756c.114-.192.333-.398.552-.37.221.03.403.138.461.353l5.257 19.253c.037.137.021.658-.047.783l-10.428 19.737h19.647l.389-.899c.124-.164.328-.439.532-.405.203.034.371.467.436.662l.118.642z"/></g></svg>