<?xml version="1.0" encoding="utf-8"?>
<!-- Generator: Adobe Illustrator 18.0.0, SVG Export Plug-In . SVG Version: 6.00 Build 0)  -->
<!DOCTYPE svg PUBLIC "-//W3C//DTD SVG 1.1//EN" "http://www.w3.org/Graphics/SVG/1.1/DTD/svg11.dtd">
<svg version="1.1" xmlns="http://www.w3.org/2000/svg" xmlns:xlink="http://www.w3.org/1999/xlink" x="0px" y="0px"
	 viewBox="0 0 250 250" enable-background="new 0 0 250 250" xml:space="preserve">
<g id="Guides">
</g>
<g id="_x31_2_Col_Grid" opacity="0.1" enable-background="new    ">
</g>
<g id="Layer_3">
</g>
<g id="Layer_4">
	
		<line fill="none" stroke="#183F2A" stroke-width="10" stroke-linecap="round" stroke-miterlimit="10" x1="65.896" y1="142.414" x2="78.896" y2="142.414"/>
	
		<line fill="none" stroke="#183F2A" stroke-width="10" stroke-linecap="round" stroke-miterlimit="10" x1="51.896" y1="157.414" x2="76.896" y2="157.414"/>
	
		<line fill="none" stroke="#183F2A" stroke-width="6" stroke-linecap="round" stroke-linejoin="round" stroke-miterlimit="10" x1="-5.104" y1="196.414" x2="255.896" y2="196.414"/>
	<g>
		
			<path fill="#163F2A" stroke="#183F2A" stroke-width="2" stroke-linecap="round" stroke-linejoin="round" stroke-miterlimit="10" d="
			M146.975,70.026c6.626,0,12.047-5.386,12.047-12.047c0-6.661-5.421-12.048-12.047-12.048c-6.661,0-12.048,5.386-12.048,12.048
			C134.927,64.64,140.314,70.026,146.975,70.026z"/>
		
			<path fill="#163F2A" stroke="#183F2A" stroke-width="2" stroke-linecap="round" stroke-linejoin="round" stroke-miterlimit="10" d="
			M104.896,115.408V93.674l14.383-4.382L93.106,191.5c0,3.372,2.86,6.104,6.231,6.104c3.338,0,6.058-2.432,7.63-6.558l17.91-53.494
			l15.83,20.817l-0.66,33.131c0,3.372,2.628,6.397,6,6.397c3.258,0,5.805-2.332,5.981-5.476l1.755-39.489l-18.568-34.35
			l5.147-19.264l7.421,12.095h31.935c0,0,5.407,1.718,5.454-6.115c0,0-1.132-4.885-5.454-4.885h-23.537l-13.388-22.759
			c-2.041-3.455-5.761-5.805-9.774-5.792c-1.14,0-2.513,0.048-3.547,0.349L92.896,83.404v32.005c0,0-0.476,7.174,5.214,7.466
			C105.772,123.267,104.896,115.408,104.896,115.408z"/>
	</g>
</g>
</svg>
