<?xml version="1.0" encoding="utf-8"?>
<!-- Generator: Adobe Illustrator 18.0.0, SVG Export Plug-In . SVG Version: 6.00 Build 0)  -->
<!DOCTYPE svg PUBLIC "-//W3C//DTD SVG 1.1//EN" "http://www.w3.org/Graphics/SVG/1.1/DTD/svg11.dtd">
<svg version="1.1" xmlns="http://www.w3.org/2000/svg" xmlns:xlink="http://www.w3.org/1999/xlink" x="0px" y="0px"
	 viewBox="0 0 250 250" enable-background="new 0 0 250 250" xml:space="preserve">
<g id="Guides">
</g>
<g id="_x31_2_Col_Grid" opacity="0.1" enable-background="new    ">
</g>
<g id="Layer_3">
</g>
<g id="Layer_4">
	<g>
		<g>
			<path fill="#163F2A" d="M49.144,127.663h-3.728c-2.14,0-3.891-1.751-3.891-3.891v-19.773c0-2.14,1.751-3.891,3.891-3.891h3.728
				c2.14,0,3.891,1.751,3.891,3.891v19.773C53.035,125.912,51.284,127.663,49.144,127.663z"/>
			<path fill="#163F2A" d="M49.144,128.218h-3.728c-2.452,0-4.446-1.994-4.446-4.446v-19.773c0-2.452,1.994-4.446,4.446-4.446h3.728
				c2.452,0,4.446,1.994,4.446,4.446v19.773C53.59,126.224,51.595,128.218,49.144,128.218z M45.416,100.663
				c-1.839,0-3.336,1.497-3.336,3.336v19.773c0,1.839,1.497,3.336,3.336,3.336h3.728c1.84,0,3.336-1.497,3.336-3.336v-19.773
				c0-1.839-1.497-3.336-3.336-3.336H45.416z"/>
		</g>
		<g>
			<path fill="#163F2A" d="M98.875,127.663h-3.728c-2.14,0-3.891-1.751-3.891-3.891v-19.773c0-2.14,1.751-3.891,3.891-3.891h3.728
				c2.14,0,3.891,1.751,3.891,3.891v19.773C102.767,125.912,101.016,127.663,98.875,127.663z"/>
			<path fill="#163F2A" d="M98.875,128.218h-3.728c-2.452,0-4.446-1.994-4.446-4.446v-19.773c0-2.452,1.994-4.446,4.446-4.446h3.728
				c2.452,0,4.446,1.994,4.446,4.446v19.773C103.321,126.224,101.327,128.218,98.875,128.218z M95.148,100.663
				c-1.839,0-3.336,1.497-3.336,3.336v19.773c0,1.839,1.497,3.336,3.336,3.336h3.728c1.839,0,3.336-1.497,3.336-3.336v-19.773
				c0-1.839-1.497-3.336-3.336-3.336H95.148z"/>
		</g>
	</g>
	<g>
		<path fill="#163F2A" d="M150.743,128.367h-3.728c-2.14,0-3.891-1.751-3.891-3.891v-19.773c0-2.14,1.751-3.891,3.891-3.891h3.728
			c2.14,0,3.891,1.751,3.891,3.891v19.773C154.635,126.616,152.884,128.367,150.743,128.367z"/>
		<path fill="#163F2A" d="M150.743,128.921h-3.728c-2.452,0-4.446-1.994-4.446-4.446v-19.773c0-2.452,1.995-4.446,4.446-4.446h3.728
			c2.452,0,4.446,1.994,4.446,4.446v19.773C155.189,126.927,153.195,128.921,150.743,128.921z M147.016,101.366
			c-1.84,0-3.336,1.497-3.336,3.336v19.773c0,1.839,1.497,3.336,3.336,3.336h3.728c1.839,0,3.336-1.497,3.336-3.336v-19.773
			c0-1.839-1.497-3.336-3.336-3.336H147.016z"/>
	</g>
	<g>
		<path fill="#163F2A" d="M200.475,128.367h-3.728c-2.14,0-3.891-1.751-3.891-3.891v-19.773c0-2.14,1.751-3.891,3.891-3.891h3.728
			c2.14,0,3.891,1.751,3.891,3.891v19.773C204.366,126.616,202.615,128.367,200.475,128.367z"/>
		<path fill="#163F2A" d="M200.475,128.921h-3.728c-2.452,0-4.446-1.994-4.446-4.446v-19.773c0-2.452,1.994-4.446,4.446-4.446h3.728
			c2.452,0,4.446,1.994,4.446,4.446v19.773C204.921,126.927,202.926,128.921,200.475,128.921z M196.747,101.366
			c-1.839,0-3.336,1.497-3.336,3.336v19.773c0,1.839,1.497,3.336,3.336,3.336h3.728c1.84,0,3.336-1.497,3.336-3.336v-19.773
			c0-1.839-1.497-3.336-3.336-3.336H196.747z"/>
	</g>
	<g>
		<g>
			<path fill="#163F2A" d="M149.573,95.427l-5.176-2.188c6.425-16.635,9.006-16.825,10.547-16.825h19.952v6h-19.118
				C154.405,85.414,151.58,90.232,149.573,95.427z"/>
		</g>
		<g>
			<path fill="#163F2A" d="M198.929,95.46c-2.095-5.221-5.025-10.046-6.422-13.046h-18.61v-6h19.429
				c1.532,0,4.096,0.189,10.754,16.792L198.929,95.46z"/>
		</g>
	</g>
	<g>
		<path fill="#163F2A" d="M200.142,109.958H147.11c-2.839,0-5.163-2.323-5.163-5.163v-7.059c0-2.839,2.323-5.163,5.163-5.163h53.032
			c2.839,0,5.163,2.323,5.163,5.163v7.059C205.304,107.635,202.981,109.958,200.142,109.958z"/>
	</g>
	<g>
		<path fill="#163F2A" d="M201.228,118.244h-54.463c-5.813,0-10.568-4.756-10.568-10.568v-4.507c0-5.813,4.756-10.568,10.568-10.568
			h54.463c5.813,0,10.568,4.756,10.568,10.568v4.507C211.796,113.488,207.04,118.244,201.228,118.244z"/>
	</g>
	<g>
		<path fill="#163F2A" d="M97.935,117.964H46.804c-6.285,0-11.428-5.142-11.428-11.428v-7.782c0-6.285,5.142-11.428,11.428-11.428
			h51.131c6.285,0,11.428,5.142,11.428,11.428v7.782C109.363,112.821,104.22,117.964,97.935,117.964z"/>
	</g>
	<g>
		<circle fill="#FFFFFF" cx="146.927" cy="103.037" r="3.844"/>
	</g>
	<g>
		<circle fill="#FFFFFF" cx="201.862" cy="103.037" r="3.844"/>
	</g>
	<g>
		<circle fill="#FFFFFF" cx="45.381" cy="99.153" r="3.844"/>
	</g>
	<g>
		<circle fill="#FFFFFF" cx="98.651" cy="99.153" r="3.844"/>
	</g>
	<g>
		<path fill="#163F2A" d="M176.643,74.13h-6.45c-1.685,0-3.064-1.379-3.064-3.064v-0.124c0-1.685,1.379-3.064,3.064-3.064h6.45
			c1.685,0,3.064,1.379,3.064,3.064v0.124C179.707,72.751,178.328,74.13,176.643,74.13z"/>
		<path fill="#163F2A" d="M176.643,74.843h-6.45c-2.083,0-3.777-1.694-3.777-3.777v-0.124c0-2.083,1.694-3.777,3.777-3.777h6.45
			c2.083,0,3.777,1.694,3.777,3.777v0.124C180.42,73.149,178.726,74.843,176.643,74.843z M170.193,68.592
			c-1.296,0-2.35,1.054-2.35,2.35v0.124c0,1.296,1.054,2.35,2.35,2.35h6.45c1.296,0,2.35-1.054,2.35-2.35v-0.124
			c0-1.296-1.054-2.35-2.35-2.35H170.193z"/>
	</g>
	<g>
		<path fill="#163F2A" d="M75.29,57.411h-6.45c-1.685,0-3.064-1.379-3.064-3.064v-0.124c0-1.685,1.379-3.064,3.064-3.064h6.45
			c1.685,0,3.064,1.379,3.064,3.064v0.124C78.354,56.032,76.975,57.411,75.29,57.411z"/>
		<path fill="#163F2A" d="M75.291,58.124h-6.45c-2.083,0-3.777-1.694-3.777-3.777v-0.124c0-2.083,1.694-3.777,3.777-3.777h6.45
			c2.082,0,3.777,1.694,3.777,3.777v0.124C79.067,56.43,77.373,58.124,75.291,58.124z M68.84,51.873c-1.296,0-2.35,1.054-2.35,2.35
			v0.124c0,1.296,1.054,2.35,2.35,2.35h6.45c1.296,0,2.35-1.054,2.35-2.35v-0.124c0-1.296-1.054-2.35-2.35-2.35H68.84z"/>
	</g>
	<g>
		<path fill="#163F2A" d="M144.703,95.432h-7.656c-1.917,0-3.485-1.568-3.485-3.485v-0.49c0-1.917,1.568-3.485,3.485-3.485h7.656
			c1.917,0,3.485,1.568,3.485,3.485v0.49C148.189,93.864,146.62,95.432,144.703,95.432z"/>
	</g>
	<g>
		<path fill="#163F2A" d="M211.043,95.077h-6.921c-2.052,0-3.73-1.679-3.73-3.73v0c0-2.052,1.679-3.73,3.73-3.73h6.921
			c2.052,0,3.73,1.679,3.73,3.73v0C214.774,93.398,213.095,95.077,211.043,95.077z"/>
	</g>
	<g>
		<g>
			<path fill="#163F2A" d="M46.467,92.923l-5.431-1.087c0.016-0.075,1.584-7.513,3.418-14.88c1.086-4.363,2.055-7.669,2.88-10.188
				c1.253-3.828,2.342-6.354,4.951-6.354h20.611v5H53.592C51.993,69.414,48.78,81.891,46.467,92.923z"/>
		</g>
		<g>
			<path fill="#163F2A" d="M98.172,92.911c-2.26-11.02-5.411-23.498-6.994-27.498H71.896v-5h20.595c2.617,0,3.695,2.544,4.933,6.378
				c0.814,2.52,1.767,5.924,2.833,10.287c1.8,7.368,3.335,14.737,3.35,14.812L98.172,92.911z"/>
		</g>
	</g>
	<g>
		<path fill="#163F2A" d="M41.678,87.972h-7.656c-1.917,0-3.485-1.568-3.485-3.485v-0.49c0-1.917,1.568-3.485,3.485-3.485h7.656
			c1.917,0,3.485,1.568,3.485,3.485v0.49C45.163,86.404,43.595,87.972,41.678,87.972z"/>
	</g>
	<g>
		<path fill="#163F2A" d="M108.018,87.617h-6.921c-2.052,0-3.73-1.679-3.73-3.73v0c0-2.052,1.679-3.73,3.73-3.73h6.921
			c2.052,0,3.73,1.679,3.73,3.73v0C111.748,85.938,110.07,87.617,108.018,87.617z"/>
	</g>
	<g>
		<path fill="#163F2A" d="M105.061,49.401l23.767-40.96l23.666,40.96H105.061z M130.952,34.331v-8.698h-4.349v8.698H130.952z
			 M130.952,42.928v-4.349h-4.349v4.349H130.952z"/>
	</g>
	<g>
		<path fill="#183F2A" d="M247.045,130.414H2.891c-1.532,0-2.774-1.468-2.774-3s1.242-3,2.774-3h244.154
			c1.532,0,2.774,1.468,2.774,3S248.578,130.414,247.045,130.414z"/>
	</g>
	<g>
		<line fill="#163F2A" x1="0.672" y1="237.639" x2="25.087" y2="219.883"/>
		<path fill="#183F2A" d="M0.674,240.414c-0.858,0-1.703-0.396-2.246-1.143c-0.901-1.239-0.628-2.974,0.612-3.876l24.415-17.757
			c1.239-0.901,2.974-0.627,3.876,0.612c0.901,1.239,0.628,2.974-0.612,3.876L2.304,239.883
			C1.811,240.241,1.24,240.414,0.674,240.414z"/>
	</g>
	<g>
		<line fill="#163F2A" x1="42.844" y1="237.639" x2="67.259" y2="219.883"/>
		<path fill="#183F2A" d="M42.846,240.414c-0.858,0-1.703-0.396-2.246-1.143c-0.901-1.239-0.628-2.974,0.612-3.876l24.415-17.757
			c1.239-0.901,2.974-0.627,3.876,0.612c0.901,1.239,0.628,2.974-0.612,3.876l-24.415,17.757
			C43.983,240.241,43.412,240.414,42.846,240.414z"/>
	</g>
	<g>
		<line fill="#163F2A" x1="87.79" y1="237.639" x2="112.206" y2="219.883"/>
		<path fill="#183F2A" d="M87.792,240.414c-0.858,0-1.703-0.396-2.246-1.143c-0.901-1.239-0.628-2.974,0.612-3.876l24.415-17.757
			c1.239-0.901,2.974-0.627,3.876,0.612c0.901,1.239,0.628,2.974-0.612,3.876l-24.415,17.757
			C88.93,240.241,88.358,240.414,87.792,240.414z"/>
	</g>
	<g>
		<line fill="#163F2A" x1="134.956" y1="237.639" x2="159.372" y2="219.883"/>
		<path fill="#183F2A" d="M134.959,240.414c-0.858,0-1.703-0.396-2.246-1.143c-0.901-1.239-0.628-2.974,0.612-3.876l24.415-17.757
			c1.24-0.901,2.974-0.627,3.876,0.612c0.901,1.239,0.628,2.974-0.612,3.876l-24.415,17.757
			C136.096,240.241,135.525,240.414,134.959,240.414z"/>
	</g>
	<g>
		<line fill="#163F2A" x1="216.526" y1="237.639" x2="240.942" y2="219.883"/>
		<path fill="#183F2A" d="M216.528,240.414c-0.858,0-1.703-0.396-2.246-1.143c-0.901-1.239-0.628-2.974,0.612-3.876l24.415-17.757
			c1.239-0.901,2.974-0.627,3.876,0.612c0.901,1.239,0.628,2.974-0.612,3.876l-24.415,17.757
			C217.666,240.241,217.094,240.414,216.528,240.414z"/>
	</g>
	<g>
		<path fill="#163F2A" d="M170.333,168.347c-6.767,0-12.304-5.501-12.304-12.304c0-6.803,5.537-12.305,12.304-12.305
			c6.803,0,12.305,5.501,12.305,12.305C182.637,162.846,177.136,168.347,170.333,168.347z"/>
		<path fill="#183F2A" d="M170.332,168.902c-7.091,0-12.859-5.769-12.859-12.859c0-7.091,5.769-12.86,12.859-12.86
			c7.091,0,12.86,5.769,12.86,12.86C183.192,163.133,177.423,168.902,170.332,168.902z M170.332,144.293
			c-6.479,0-11.75,5.271-11.75,11.75c0,6.479,5.271,11.75,11.75,11.75c6.479,0,11.75-5.271,11.75-11.75
			C182.082,149.564,176.811,144.293,170.332,144.293z"/>
	</g>
	<g>
		<g>
			<path fill="#163F2A" d="M177.086,198.663l5.256,19.424l-10.869,20.327h20.851l0.556-0.732l0.245,0.732h18.049l-13.262-50.206
				l13.983,4.292v22.198c0,0-0.523,8.026,7.303,7.625c5.811-0.298,5.697-7.625,5.697-7.625V182.01l-37.023-11.573
				c-1.056-0.308-2.251-0.499-3.415-0.499c-4.099-0.013-7.834,2.188-9.919,5.717l-13.61,22.76h-24.039
				c-4.414,0-5.57,5.872-5.57,5.872c0.048,8,5.57,7.128,5.57,7.128h32.616L177.086,198.663z"/>
			<path fill="#183F2A" d="M211.186,239.414c-0.004,0-0.007,0-0.011,0h-18.049c-0.155,0-0.298-0.064-0.4-0.171
				c-0.104,0.108-0.248,0.171-0.4,0.171h-20.851c-0.195,0-0.376-0.435-0.476-0.603c-0.1-0.168-0.105-0.542-0.012-0.714
				l10.764-20.069l-4.853-17.84l-6.911,11.823c-0.1,0.169-0.282,0.402-0.478,0.402h-32.586c-0.062,0-0.19-0.133-0.371-0.133
				c-1.346,0-5.741-0.641-5.784-7.93c0-0.04,0.004-0.117,0.012-0.155c0.051-0.239,1.292-5.524,6.044-6.122
				c0.023-0.003,0.046,0.34,0.069,0.34h23.725l13.512-22.769c2.149-3.637,6.142-6.081,10.419-6.081c1.231,0,2.614,0.104,3.735,0.431
				l37.755,11.531c0.232,0.072,0.859,0.242,0.859,0.485v32.687c0,2.705-1.547,7.921-6.574,8.179c-0.201,0.01-0.63,0.015-0.82,0.015
				c-2.224,0-4.1-0.684-5.345-2.032c-2.227-2.412-2.023-6.053-2.01-6.207l-0.031-21.743l-13.032-3.991l12.608,49.034
				c0.035,0.073,0.052,0.487,0.052,0.574C211.744,238.833,211.492,239.414,211.186,239.414z M193.525,238.414h16.934l-12.711-49.79
				c-0.05-0.194,0.009-0.594,0.154-0.733c0.145-0.139,0.355-0.285,0.546-0.226l14.206,4.353c0.233,0.072,0.242,0.238,0.242,0.482
				v22.198c0,0.076-0.084,3.365,1.814,5.415c1.119,1.208,2.85,1.767,5.035,1.656c5.195-0.267,5.151-6.777,5.151-7.054v-32.296
				l-36.91-11.452c-1.017-0.296-2.295-0.474-3.389-0.474c-3.924,0-7.558,2.053-9.51,5.358l-13.679,22.486
				c-0.101,0.166-0.284,0.077-0.478,0.077h-24.003c-3.715,1-4.918,5.181-5.051,5.728c0.022,2.064,0.535,6.783,4.674,6.783
				c0.159,0,0.257,0.242,0.272,0.241c0.022-0.003,0.047,0.248,0.069,0.248h32.299l7.418-12.756c0.114-0.192,0.333-0.398,0.552-0.37
				c0.221,0.03,0.403,0.138,0.461,0.353l5.257,19.253c0.037,0.137,0.021,0.658-0.047,0.783l-10.428,19.737h19.647l0.389-0.899
				c0.124-0.164,0.328-0.439,0.532-0.405c0.203,0.034,0.371,0.467,0.436,0.662L193.525,238.414z"/>
		</g>
	</g>
</g>
</svg>
