<svg xmlns="http://www.w3.org/2000/svg" viewBox="0 0 250 250"><path fill="#FFF" d="M173.17 189.399H92.618c-14.217 0-25.849-11.632-25.849-25.849V80.593c0-14.217 11.632-25.849 25.849-25.849h80.552c14.217 0 25.849 11.632 25.849 25.849v82.957c0 14.217-11.632 25.849-25.849 25.849z"/><path fill="#183F2A" d="M173.17 192.404H92.618c-15.91 0-28.855-12.944-28.855-28.855V80.593c0-15.91 12.944-28.855 28.855-28.855h80.552c15.91 0 28.855 12.944 28.855 28.855v82.957c0 15.91-12.944 28.854-28.855 28.854zM92.618 57.75c-12.596 0-22.843 10.247-22.843 22.843v82.957c0 12.596 10.247 22.843 22.843 22.843h80.552c12.596 0 22.843-10.247 22.843-22.843V80.593c0-12.596-10.247-22.843-22.843-22.843H92.618z"/><path fill="#FFF" d="M173.17 190.601H92.618c-14.217 0-25.849-11.632-25.849-25.849V81.795c0-14.217 11.632-25.849 25.849-25.849h80.552c14.217 0 25.849 11.632 25.849 25.849v82.957c0 14.217-11.632 25.849-25.849 25.849z"/><path fill="#183F2A" d="M173.17 193.607H92.618c-15.91 0-28.855-12.944-28.855-28.855V81.795c0-15.91 12.944-28.855 28.855-28.855h80.552c15.91 0 28.855 12.944 28.855 28.855v82.957c0 15.91-12.944 28.855-28.855 28.855zM92.618 58.952c-12.596 0-22.843 10.247-22.843 22.843v82.957c0 12.596 10.247 22.843 22.843 22.843h80.552c12.596 0 22.843-10.247 22.843-22.843V81.795c0-12.596-10.247-22.843-22.843-22.843H92.618z"/><path fill="#183F2A" d="M197.216 125.077H109.45a3.006 3.006 0 0 1 0-6.012h87.766a3.006 3.006 0 0 1 0 6.012z"/><path fill="#FFF" d="M170.165 123.574a7.514 7.514 0 0 1-7.514 7.514h-17.433a7.514 7.514 0 1 1 0-15.028h17.433a7.514 7.514 0 0 1 7.514 7.514z"/><path fill="#183F2A" d="M162.785 134.094h-17.132c-5.883 0-10.67-4.637-10.67-10.52s4.786-10.52 10.67-10.52h17.132c5.883 0 10.67 4.637 10.67 10.52s-4.786 10.52-10.67 10.52zm-17.131-15.028c-2.569 0-4.658 1.94-4.658 4.509 0 2.569 2.09 4.508 4.658 4.508h17.132c2.569 0 4.659-1.94 4.659-4.508 0-2.569-2.09-4.509-4.659-4.509h-17.132zM67.915 182.646c-9.698 0-17.029-2.46-22.325-7.469-11.055-10.458-10.779-29.989-10.486-50.667.048-3.352.097-6.818.097-10.244 0-10.446 2.551-24.853 14.702-34.169 7.315-5.608 14.648-6.639 14.956-6.68a3.005 3.005 0 0 1 .805 5.957c-.998.141-24.452 3.803-24.452 34.892 0 3.468-.049 6.956-.097 10.329-.273 19.321-.531 37.571 8.607 46.215 4.789 4.531 12.065 6.387 22.238 5.678a3.006 3.006 0 0 1 .419 5.997 64.48 64.48 0 0 1-4.464.161z"/><g><path fill="#183F2A" d="M64.431 169.345c-3.447 0-6.462-1.123-8.984-3.352-7.881-6.967-9.496-23.635-9.496-46.519 0-26.773 16.334-29.984 17.03-30.107a3.006 3.006 0 0 1 1.082 5.913c-.567.117-12.101 2.785-12.101 24.194 0 12.377 0 35.415 7.466 42.015 1.723 1.523 3.747 2.082 6.371 1.757a3.007 3.007 0 0 1 .738 5.966c-.719.088-1.421.133-2.106.133z"/></g><g><path fill="#FFF" d="M92.685 190.601h-2.136c-13.41 0-24.381-10.972-24.381-24.381V80.328c0-13.41 10.972-24.381 24.381-24.381h2.136c8.559 0 15.562 7.003 15.562 15.562v103.529c.001 8.56-7.003 15.563-15.562 15.563z"/><path fill="#183F2A" d="M92.685 193.607h-2.136c-15.101 0-27.387-12.286-27.387-27.387V80.328c0-15.101 12.286-27.387 27.387-27.387h2.136c10.239 0 18.568 8.33 18.568 18.568v103.529c0 10.239-8.329 18.569-18.568 18.569zM90.549 58.952c-11.786 0-21.376 9.589-21.376 21.376v85.892c0 11.786 9.589 21.376 21.376 21.376h2.136c6.924 0 12.557-5.633 12.557-12.557V71.509c0-6.924-5.633-12.557-12.557-12.557h-2.136z"/></g><g><path fill="#163F2A" d="M170.524 155.134c-2.464 0-4.55-.911-6.271-2.631-1.745-1.745-2.505-3.849-2.505-6.25v-31.45c0-2.368.785-4.571 2.505-6.291 1.721-1.72 3.808-2.672 6.271-2.672h.241v-3.529c0-5.035 1.894-9.411 5.491-13.009 3.598-3.597 8.01-5.422 13.044-5.422 5.042 0 9.324 1.829 12.876 5.437 3.539 3.598 5.259 7.969 5.259 12.993v3.529h.712c2.364 0 4.538.951 6.261 2.67 1.723 1.727 2.646 3.929 2.646 6.293v31.45c0 2.398-.898 4.501-2.642 6.248-1.726 1.723-3.901 2.633-6.265 2.633h-37.623zm18.738-28.22c-.99 0-1.783.332-2.496 1.045-.723.723-1.045 1.515-1.045 2.57 0 1.042.331 1.857 1.043 2.568.724.725 1.493 1.047 2.498 1.047 1.004 0 1.773-.322 2.496-1.045.713-.713 1.045-1.529 1.045-2.57 0-1.039-.333-1.856-1.047-2.571-.712-.711-1.505-1.044-2.494-1.044zm7.353-21.073v-3.529c0-1.916-.821-3.526-2.216-4.921-1.395-1.395-3.1-2.073-5.065-2.073-1.953 0-3.667.67-5.008 2.048-1.363 1.398-2.138 3.016-2.138 4.947v3.529h14.427z"/><path fill="#FFF" d="M189.336 86.587c4.31 0 8.043 1.543 11.081 4.629 3.036 3.086 4.614 6.785 4.614 11.096v6.534h3.116c1.665 0 2.973.506 4.199 1.729 1.224 1.226 1.701 2.563 1.701 4.228v31.45c0 1.667-.477 2.96-1.701 4.187-1.226 1.224-2.535 1.688-4.199 1.688h-37.622c-1.764 0-3.284-.464-4.508-1.688-1.226-1.226-1.863-2.52-1.863-4.187v-31.45c0-1.665.637-3.002 1.863-4.228 1.224-1.224 2.745-1.729 4.508-1.729h3.247v-6.534c0-4.31 1.463-8.01 4.549-11.096 3.086-3.086 6.702-4.629 11.015-4.629m-9.553 22.259h19.236v-6.534c0-2.646-.947-4.923-2.858-6.834-1.911-1.911-4.21-2.866-6.903-2.866-2.696 0-4.898.955-6.758 2.866-1.862 1.91-2.717 4.188-2.717 6.834v6.534m9.479 28.002c1.713 0 3.182-.611 4.409-1.837 1.224-1.224 1.837-2.719 1.837-4.482 0-1.764-.613-3.256-1.837-4.482-1.226-1.224-2.696-1.837-4.409-1.837-1.715 0-3.185.613-4.409 1.837-1.226 1.226-1.837 2.719-1.837 4.482 0 1.764.611 3.258 1.837 4.482 1.224 1.226 2.694 1.837 4.409 1.837m.074-55.671c-5.777 0-10.717 2.091-14.841 6.214-4.123 4.124-6.134 9.144-6.134 14.921v1.128c-2.405.437-4.409 1.522-6.09 3.203-2.239 2.239-3.528 5.061-3.528 8.162v31.45c0 3.101 1.209 5.774 3.448 8.012 2.239 2.238 5.137 3.273 8.334 3.273h37.622c3.096 0 5.781-1.033 8.021-3.269 2.243-2.248 3.29-4.92 3.29-8.016v-31.45c0-3.096-.988-5.917-3.224-8.158-1.709-1.705-3.389-2.797-5.793-3.223v-1.112c0-5.759-2.114-10.769-6.168-14.89-4.08-4.145-9.144-6.245-14.937-6.245zm-4.143 22.259v-1.124c0-1.24.302-2.154 1.183-3.057.842-.865 1.689-1.232 2.923-1.232 1.262 0 2.157.383 3.055 1.281.898.898 1.255 1.798 1.255 3.008v1.124h-8.416zm4.069 28.002c-.265 0-.36-.029-.579-.249-.188-.188-.256-.291-.256-.66 0-.369.069-.473.252-.657.223-.223.319-.253.583-.253.245 0 .351.021.587.256.179.179.249.284.249.653 0 .368-.073.477-.252.657-.224.223-.32.253-.584.253z"/></g></svg>