<svg xmlns="http://www.w3.org/2000/svg" viewBox="0 0 250 250"><path fill="#183F2A" d="M252.283 131.414H-12.859a3.001 3.001 0 1 1 0-6h265.142a3.001 3.001 0 1 1 0 6zM254.687 168.414H-12.859a3.001 3.001 0 1 1 0-6h267.546a3.001 3.001 0 1 1 0 6zM219.215 216.414h-16.834c-1.66 0-3.006-.84-3.006-2.5s1.346-2.5 3.006-2.5h16.834c1.66 0 3.006.84 3.006 2.5s-1.346 2.5-3.006 2.5zm-44.491 0H157.89c-1.66 0-3.006-.84-3.006-2.5s1.346-2.5 3.006-2.5h16.834c1.66 0 3.006.84 3.006 2.5s-1.346 2.5-3.006 2.5zm-44.491 0h-16.834c-1.66 0-3.006-.84-3.006-2.5s1.346-2.5 3.006-2.5h16.834c1.66 0 3.006.84 3.006 2.5s-1.346 2.5-3.006 2.5zm-44.491 0H68.908c-1.66 0-3.006-.84-3.006-2.5s1.346-2.5 3.006-2.5h16.834c1.66 0 3.006.84 3.006 2.5s-1.345 2.5-3.006 2.5zm-44.49 0H24.417c-1.66 0-3.006-.84-3.006-2.5s1.346-2.5 3.006-2.5h16.834c1.66 0 3.006.84 3.006 2.5s-1.345 2.5-3.005 2.5zM254.687 216.414h-9.018c-1.66 0-3.006-.84-3.006-2.5s1.346-2.5 3.006-2.5h9.018c1.66 0 3.006.84 3.006 2.5s-1.345 2.5-3.006 2.5z"/><path fill="#163F2A" d="M170.092 162.702l26.454-33.669"/><path fill="#183F2A" d="M170.09 165.708a3.007 3.007 0 0 1-2.362-4.863l26.454-33.669a3.007 3.007 0 0 1 4.728 3.714l-26.454 33.669a3 3 0 0 1-2.366 1.149z"/><path fill="#163F2A" d="M103.356 162.303l26.454-33.669"/><path fill="#183F2A" d="M103.354 165.309a3.007 3.007 0 0 1-2.362-4.863l26.454-33.669a3.007 3.007 0 0 1 4.728 3.714L105.72 164.16a3 3 0 0 1-2.366 1.149z"/><g><path fill="#163F2A" d="M37.822 162.702l26.454-33.669"/><path fill="#183F2A" d="M37.82 165.708a3.006 3.006 0 0 1-2.362-4.863l26.454-33.669a3.007 3.007 0 0 1 4.728 3.714l-26.454 33.669a3 3 0 0 1-2.366 1.149z"/></g><g><path fill="#163F2A" d="M137.35 57.243c-5.722 0-10.378-4.655-10.378-10.377s4.656-10.377 10.378-10.377 10.377 4.655 10.377 10.377-4.655 10.377-10.377 10.377z"/><path fill="#FFF" d="M137.35 37.987c4.883 0 8.877 3.969 8.877 8.878s-3.995 8.877-8.877 8.877c-4.909 0-8.878-3.969-8.878-8.877s3.969-8.878 8.878-8.878m0-3c-6.549 0-11.878 5.328-11.878 11.878 0 6.549 5.328 11.877 11.878 11.877 6.549 0 11.877-5.328 11.877-11.877s-5.328-11.878-11.877-11.878z"/><g><path fill="#163F2A" d="M136.668 151.468c-3.264 0-5.919-2.788-5.919-6.214l.479-23.921-9.625-12.665-12.284 36.728c-1.425 3.744-3.974 5.857-7.016 5.857-3.328 0-6.035-2.691-6.035-5.998 0-.126.016-.252.047-.374l18.528-72.708-6.948 2.101v14.85c0 .581.342 3.304-1.425 5.249-.756.833-2.061 1.825-4.46 1.825h.049a7.81 7.81 0 0 1-.453-.013c-4.5-.23-5.456-4.728-5.339-7.073l.004-23.509c0-.657.431-1.238 1.058-1.433l26.815-8.323c.906-.265 1.908-.4 2.92-.4 3.48 0 6.725 2.052 8.494 5.046l9.424 15.922h16.494c.093 0 .187-.183.278-.166 4.09.773 5.155 4.903 5.198 5.082.029.118.042.191.042.313-.029 4.787-2.617 6.651-5.029 6.651-.255 0-.464.12-.605.12h-23.417c-.526 0-1.013-.458-1.285-.908l-3.652-6.146-2.72 10.023 13.398 24.762c.129.239.191.497.179.768l-1.293 29.093c-.171 3.124-2.709 5.461-5.902 5.461z"/><path fill="#FFF" d="M127.093 57.414c2.947 0 5.676 1.286 7.175 3.824l9.865 16.176h17.344c3.185 1 4.019 4.114 4.019 4.114-.027 4.508-2.463 4.963-3.529 4.963-.299 0-.49-.077-.49-.077h-23.532l-5.468-8.999-3.792 14.075 13.683 25.329-1.293 29.107c-.129 2.316-2.006 4.039-4.406 4.039-2.484 0-4.419-2.227-4.419-4.712l.49-24.412-11.658-15.339-13.183 39.419c-1.158 3.04-3.134 4.833-5.594 4.833-2.484 0-4.535-2.014-4.535-4.498l19.449-75.315-10.322 3.229v16.016s.482 5.512-4.735 5.512c-.13 0-.231-.003-.368-.01-4.193-.215-3.896-5.501-3.896-5.501V65.601l26.755-8.088c.762-.222 1.576-.099 2.416-.099h-.171m.195-3h-.032c-1.146 0-2.291-.078-3.308.218-.017.005-.034-.107-.05-.102l-26.755 8.264c-1.255.39-2.052 1.492-2.052 2.807v23.517c0 3.328 1.491 8.296 6.718 8.564.19.01.347.014.527.014 2.613 0 4.281-.99 5.298-1.951l-12.567 48.761a3 3 0 0 0-.098.748c0 4.135 3.378 7.498 7.533 7.498 3.699 0 6.759-2.466 8.396-6.765.015-.039.028-.077.041-.116l11.383-34.037 7.415 9.99-.646 23.369v.06c0 4.253 3.505 7.714 7.596 7.714 4.001 0 7.271-2.952 7.49-6.867l1.339-29.133a2.978 2.978 0 0 0-.336-1.56l-13.103-24.259 1.652-6.097 1.839 2.978c.543.9 1.52 1.383 2.572 1.383h23.325c.186 0 .423.106.697.106 2.99 0 6.493-2.057 6.529-7.95a2.887 2.887 0 0 0-.084-.705c-.479-1.983-2.361-5.591-6.379-6.35-.183-.035-.37-.102-.556-.102h-15.644l-8.992-14.717c-2.027-3.431-5.766-5.28-9.748-5.28zm-17.197 20.963l3.123-.972-3.123 12.125V75.377z"/></g></g></svg>