<?xml version="1.0" encoding="utf-8"?>
<!-- Generator: Adobe Illustrator 18.0.0, SVG Export Plug-In . SVG Version: 6.00 Build 0)  -->
<!DOCTYPE svg PUBLIC "-//W3C//DTD SVG 1.1//EN" "http://www.w3.org/Graphics/SVG/1.1/DTD/svg11.dtd">
<svg version="1.1" xmlns="http://www.w3.org/2000/svg" xmlns:xlink="http://www.w3.org/1999/xlink" x="0px" y="0px"
	 viewBox="0 0 250 250" enable-background="new 0 0 250 250" xml:space="preserve">
<g id="Guides">
</g>
<g id="_x31_2_Col_Grid" opacity="0.1" enable-background="new    ">
</g>
<g id="Layer_3">
</g>
<g id="Layer_4">
	<g>
		<path fill="#183F2A" d="M156.344,203.393h-53.89c-10.116,0-18.345-8.23-18.345-18.345V68.951c0-10.116,8.23-18.345,18.345-18.345
			h53.89c10.116,0,18.345,8.23,18.345,18.345v116.096C174.689,195.164,166.46,203.393,156.344,203.393z M102.454,56.063
			c-7.107,0-12.889,5.782-12.889,12.889v116.096c0,7.107,5.782,12.889,12.889,12.889h53.89c7.107,0,12.889-5.782,12.889-12.889
			V68.951c0-7.107-5.782-12.889-12.889-12.889H102.454z"/>
	</g>
	<g>
		<path fill="#183F2A" d="M150.68,128.091h-42.562c-5.115,0-9.276-4.161-9.276-9.276V81.709c0-5.115,4.161-9.276,9.276-9.276h42.562
			c5.115,0,9.276,4.161,9.276,9.276v37.106C159.956,123.93,155.795,128.091,150.68,128.091z M108.118,77.889
			c-2.106,0-3.82,1.713-3.82,3.82v37.106c0,2.106,1.713,3.82,3.82,3.82h42.562c2.106,0,3.82-1.713,3.82-3.82V81.709
			c0-2.106-1.713-3.82-3.82-3.82H108.118z"/>
	</g>
	<g>
		<path fill="#183F2A" d="M112.871,152.84h-9.176c-2.496,0-4.527-2.031-4.527-4.527v-9.887c0-2.496,2.031-4.527,4.527-4.527h9.176
			c2.496,0,4.527,2.031,4.527,4.527v9.887C117.398,150.808,115.367,152.84,112.871,152.84z M104.624,147.383h7.317v-8.028h-7.317
			V147.383z"/>
	</g>
	<g>
		<path fill="#183F2A" d="M133.654,152.84h-9.176c-2.496,0-4.527-2.031-4.527-4.527v-9.887c0-2.496,2.031-4.527,4.527-4.527h9.176
			c2.496,0,4.527,2.031,4.527,4.527v9.887C138.182,150.808,136.15,152.84,133.654,152.84z M125.408,147.383h7.317v-8.028h-7.317
			V147.383z"/>
	</g>
	<g>
		<path fill="#183F2A" d="M154.228,152.84h-9.176c-2.496,0-4.527-2.031-4.527-4.527v-9.887c0-2.496,2.031-4.527,4.527-4.527h9.176
			c2.496,0,4.527,2.031,4.527,4.527v9.887C158.755,150.808,156.724,152.84,154.228,152.84z M145.981,147.383h7.317v-8.028h-7.317
			V147.383z"/>
	</g>
	<g>
		<path fill="#183F2A" d="M112.871,174.667h-9.176c-2.496,0-4.527-2.031-4.527-4.527v-9.887c0-2.496,2.031-4.527,4.527-4.527h9.176
			c2.496,0,4.527,2.031,4.527,4.527v9.887C117.398,172.636,115.367,174.667,112.871,174.667z M104.624,169.21h7.317v-8.028h-7.317
			V169.21z"/>
	</g>
	<g>
		<path fill="#183F2A" d="M133.654,174.667h-9.176c-2.496,0-4.527-2.031-4.527-4.527v-9.887c0-2.496,2.031-4.527,4.527-4.527h9.176
			c2.496,0,4.527,2.031,4.527,4.527v9.887C138.182,172.636,136.15,174.667,133.654,174.667z M125.408,169.21h7.317v-8.028h-7.317
			V169.21z"/>
	</g>
	<g>
		<path fill="#183F2A" d="M154.228,174.667h-9.176c-2.496,0-4.527-2.031-4.527-4.527v-9.887c0-2.496,2.031-4.527,4.527-4.527h9.176
			c2.496,0,4.527,2.031,4.527,4.527v9.887C158.755,172.636,156.724,174.667,154.228,174.667z M145.981,169.21h7.317v-8.028h-7.317
			V169.21z"/>
	</g>
	<g>
		<path fill="#193F2A" d="M128.608,128.74c-1.232,0-2.392-0.478-3.266-1.345L97.048,99.337l-28.044,28.044
			c-0.877,0.876-2.041,1.358-3.28,1.358c-1.238,0-2.403-0.482-3.279-1.358l-7.894-7.894c-0.876-0.877-1.358-2.041-1.358-3.28
			c0-1.238,0.482-2.403,1.358-3.279l28.032-28.031L54.55,56.868c-0.876-0.877-1.358-2.041-1.358-3.28
			c0-1.238,0.482-2.403,1.358-3.279l7.894-7.894c0.877-0.876,2.041-1.358,3.28-1.358c1.239,0,2.403,0.482,3.279,1.358l28.045,28.045
			l28.294-28.058c0.874-0.867,2.033-1.345,3.265-1.345c1.238,0,2.403,0.482,3.28,1.358l7.894,7.894
			c0.866,0.867,1.361,2.066,1.358,3.29c-0.003,1.225-0.503,2.421-1.372,3.283l-28.252,28.017l28.252,28.016
			c0.869,0.862,1.37,2.059,1.372,3.283c0.003,1.224-0.492,2.423-1.358,3.289l-7.894,7.894
			C131.012,128.257,129.847,128.74,128.608,128.74C128.608,128.74,128.608,128.74,128.608,128.74z"/>
		<path fill="#FFFFFF" d="M128.607,43.512c0.559,0,1.117,0.213,1.544,0.639l7.893,7.893c0.41,0.411,0.641,0.968,0.639,1.548
			c-0.001,0.581-0.234,1.137-0.646,1.545l-30.01,29.76l30.01,29.76c0.412,0.409,0.645,0.965,0.646,1.545
			c0.001,0.58-0.229,1.137-0.639,1.548l-7.893,7.893c-0.426,0.426-0.985,0.639-1.543,0.639c-0.556,0-1.111-0.211-1.537-0.633
			l-30.03-29.78l-29.774,29.773c-0.426,0.426-0.985,0.639-1.543,0.639c-0.559,0-1.117-0.213-1.543-0.639l-7.893-7.893
			c-0.409-0.41-0.639-0.965-0.639-1.543c0-0.579,0.23-1.134,0.639-1.543l29.767-29.766L56.287,55.132
			c-0.409-0.41-0.639-0.965-0.639-1.543c0-0.579,0.23-1.134,0.639-1.543l7.893-7.893c0.426-0.426,0.985-0.639,1.544-0.639
			c0.558,0,1.117,0.213,1.543,0.639l29.774,29.773l30.03-29.78C127.496,43.723,128.052,43.512,128.607,43.512 M128.607,38.601
			c-1.884,0-3.659,0.731-4.996,2.058L97.055,66.994L70.74,40.679c-1.341-1.34-3.122-2.077-5.016-2.077
			c-1.894,0-3.676,0.737-5.015,2.076l-7.894,7.894c-1.34,1.341-2.078,3.122-2.078,5.016c0,1.894,0.737,3.675,2.076,5.015
			l26.296,26.295l-26.295,26.294c-1.34,1.341-2.078,3.122-2.078,5.016c0,1.894,0.737,3.675,2.076,5.015l7.894,7.894
			c1.341,1.34,3.122,2.078,5.016,2.078s3.675-0.737,5.015-2.077l26.317-26.316l26.557,26.336c1.337,1.326,3.111,2.057,4.995,2.057
			c1.895,0,3.677-0.738,5.017-2.078l7.893-7.893c1.325-1.326,2.082-3.159,2.077-5.032c-0.004-1.873-0.769-3.703-2.099-5.021
			l-26.493-26.273l26.494-26.273c1.329-1.318,2.094-3.149,2.099-5.021c0.004-1.872-0.753-3.706-2.077-5.031l-7.894-7.894
			C132.282,39.338,130.501,38.601,128.607,38.601L128.607,38.601z"/>
	</g>
</g>
</svg>
