<?xml version="1.0" encoding="utf-8"?>
<!-- Generator: Adobe Illustrator 18.0.0, SVG Export Plug-In . SVG Version: 6.00 Build 0)  -->
<!DOCTYPE svg PUBLIC "-//W3C//DTD SVG 1.1//EN" "http://www.w3.org/Graphics/SVG/1.1/DTD/svg11.dtd">
<svg version="1.1" xmlns="http://www.w3.org/2000/svg" xmlns:xlink="http://www.w3.org/1999/xlink" x="0px" y="0px"
	 viewBox="0 0 250 250" enable-background="new 0 0 250 250" xml:space="preserve">
<g id="Guides">
</g>
<g id="_x31_2_Col_Grid" opacity="0.1" enable-background="new    ">
</g>
<g id="Layer_3">
</g>
<g id="Layer_4">
	<g>
		<path fill="#FFFFFF" d="M173.17,189.399H92.618c-14.217,0-25.849-11.632-25.849-25.849V80.593
			c0-14.217,11.632-25.849,25.849-25.849h80.552c14.217,0,25.849,11.632,25.849,25.849v82.957
			C199.019,177.767,187.387,189.399,173.17,189.399z"/>
		<path fill="#183F2A" d="M173.17,192.404H92.618c-15.91,0-28.855-12.944-28.855-28.855V80.593c0-15.91,12.944-28.855,28.855-28.855
			h80.552c15.91,0,28.855,12.944,28.855,28.855v82.957C202.025,179.46,189.081,192.404,173.17,192.404z M92.618,57.75
			c-12.596,0-22.843,10.247-22.843,22.843v82.957c0,12.596,10.247,22.843,22.843,22.843h80.552
			c12.596,0,22.843-10.247,22.843-22.843V80.593c0-12.596-10.247-22.843-22.843-22.843H92.618z"/>
	</g>
	<g>
		<path fill="#FFFFFF" d="M173.17,190.601H92.618c-14.217,0-25.849-11.632-25.849-25.849V81.795
			c0-14.217,11.632-25.849,25.849-25.849h80.552c14.217,0,25.849,11.632,25.849,25.849v82.957
			C199.019,178.969,187.387,190.601,173.17,190.601z"/>
		<path fill="#183F2A" d="M173.17,193.607H92.618c-15.91,0-28.855-12.944-28.855-28.855V81.795c0-15.91,12.944-28.855,28.855-28.855
			h80.552c15.91,0,28.855,12.944,28.855,28.855v82.957C202.025,180.662,189.081,193.607,173.17,193.607z M92.618,58.952
			c-12.596,0-22.843,10.247-22.843,22.843v82.957c0,12.596,10.247,22.843,22.843,22.843h80.552
			c12.596,0,22.843-10.247,22.843-22.843V81.795c0-12.596-10.247-22.843-22.843-22.843H92.618z"/>
	</g>
	<g>
		<path fill="#183F2A" d="M197.216,125.077H109.45c-1.66,0-3.006-1.346-3.006-3.006s1.346-3.006,3.006-3.006h87.766
			c1.66,0,3.006,1.346,3.006,3.006S198.876,125.077,197.216,125.077z"/>
	</g>
	<g>
		<path fill="#FFFFFF" d="M170.165,123.574c0,4.15-3.364,7.514-7.514,7.514h-17.433c-4.15,0-7.514-3.364-7.514-7.514l0,0
			c0-4.15,3.364-7.514,7.514-7.514h17.433C166.8,116.06,170.165,119.424,170.165,123.574L170.165,123.574z"/>
		<path fill="#183F2A" d="M162.785,134.094h-17.132c-5.883,0-10.67-4.637-10.67-10.52c0-5.883,4.786-10.52,10.67-10.52h17.132
			c5.883,0,10.67,4.637,10.67,10.52C173.455,129.457,168.669,134.094,162.785,134.094z M145.654,119.066
			c-2.569,0-4.658,1.94-4.658,4.509c0,2.569,2.09,4.508,4.658,4.508h17.132c2.569,0,4.659-1.94,4.659-4.508
			c0-2.569-2.09-4.509-4.659-4.509H145.654z"/>
	</g>
	<g>
		<path fill="#183F2A" d="M67.915,182.646c-9.698,0-17.029-2.46-22.325-7.469c-11.055-10.458-10.779-29.989-10.486-50.667
			c0.048-3.352,0.097-6.818,0.097-10.244c0-10.446,2.551-24.853,14.702-34.169c7.315-5.608,14.648-6.639,14.956-6.68
			c1.645-0.22,3.157,0.937,3.376,2.582c0.219,1.642-0.931,3.15-2.571,3.375l0,0c-0.998,0.141-24.452,3.803-24.452,34.892
			c0,3.468-0.049,6.956-0.097,10.329c-0.273,19.321-0.531,37.571,8.607,46.215c4.789,4.531,12.065,6.387,22.238,5.678
			c1.663-0.114,3.092,1.133,3.208,2.789c0.116,1.656-1.133,3.092-2.789,3.208C70.838,182.592,69.351,182.646,67.915,182.646z"/>
	</g>
	<g>
		<path fill="#183F2A" d="M64.431,169.345c-3.447,0-6.462-1.123-8.984-3.352c-7.881-6.967-9.496-23.635-9.496-46.519
			c0-26.773,16.334-29.984,17.03-30.107c1.636-0.291,3.195,0.799,3.485,2.433c0.289,1.624-0.785,3.175-2.403,3.48
			c-0.567,0.117-12.101,2.785-12.101,24.194c0,12.377,0,35.415,7.466,42.015c1.723,1.523,3.747,2.082,6.371,1.757
			c1.651-0.2,3.148,0.967,3.352,2.614c0.204,1.648-0.967,3.148-2.614,3.352C65.818,169.3,65.116,169.345,64.431,169.345z"/>
	</g>
	<g>
		<path fill="#FFFFFF" d="M92.685,190.601h-2.136c-13.41,0-24.381-10.972-24.381-24.381V80.328c0-13.41,10.972-24.381,24.381-24.381
			h2.136c8.559,0,15.562,7.003,15.562,15.562v103.529C108.248,183.598,101.244,190.601,92.685,190.601z"/>
		<path fill="#183F2A" d="M92.685,193.607h-2.136c-15.101,0-27.387-12.286-27.387-27.387V80.328
			c0-15.101,12.286-27.387,27.387-27.387h2.136c10.239,0,18.568,8.33,18.568,18.568v103.529
			C111.253,185.277,102.924,193.607,92.685,193.607z M90.549,58.952c-11.786,0-21.376,9.589-21.376,21.376v85.892
			c0,11.786,9.589,21.376,21.376,21.376h2.136c6.924,0,12.557-5.633,12.557-12.557V71.509c0-6.924-5.633-12.557-12.557-12.557
			H90.549z"/>
	</g>
	<g>
		<g>
			<path fill="#163F2A" d="M170.524,155.134c-2.464,0-4.55-0.911-6.271-2.631c-1.745-1.745-2.505-3.849-2.505-6.25v-31.45
				c0-2.368,0.785-4.571,2.505-6.291c1.721-1.72,3.808-2.672,6.271-2.672h0.241v-3.529c0-5.035,1.894-9.411,5.491-13.009
				c3.598-3.597,8.01-5.422,13.044-5.422c5.042,0,9.324,1.829,12.876,5.437c3.539,3.598,5.259,7.969,5.259,12.993v3.529h0.712
				c2.364,0,4.538,0.951,6.261,2.67c1.723,1.727,2.646,3.929,2.646,6.293v31.45c0,2.398-0.898,4.501-2.642,6.248
				c-1.726,1.723-3.901,2.633-6.265,2.633H170.524z M189.262,126.914c-0.99,0-1.783,0.332-2.496,1.045
				c-0.723,0.723-1.045,1.515-1.045,2.57c0,1.042,0.331,1.857,1.043,2.568c0.724,0.725,1.493,1.047,2.498,1.047
				c1.004,0,1.773-0.322,2.496-1.045c0.713-0.713,1.045-1.529,1.045-2.57c0-1.039-0.333-1.856-1.047-2.571
				C191.044,127.247,190.251,126.914,189.262,126.914z M196.615,105.841v-3.529c0-1.916-0.821-3.526-2.216-4.921
				c-1.395-1.395-3.1-2.073-5.065-2.073c-1.953,0-3.667,0.67-5.008,2.048c-1.363,1.398-2.138,3.016-2.138,4.947v3.529H196.615z"/>
			<path fill="#FFFFFF" d="M189.336,86.587c4.31,0,8.043,1.543,11.081,4.629c3.036,3.086,4.614,6.785,4.614,11.096v6.534h3.116
				c1.665,0,2.973,0.506,4.199,1.729c1.224,1.226,1.701,2.563,1.701,4.228v31.45c0,1.667-0.477,2.96-1.701,4.187
				c-1.226,1.224-2.535,1.688-4.199,1.688h-37.622c-1.764,0-3.284-0.464-4.508-1.688c-1.226-1.226-1.863-2.52-1.863-4.187v-31.45
				c0-1.665,0.637-3.002,1.863-4.228c1.224-1.224,2.745-1.729,4.508-1.729h3.247v-6.534c0-4.31,1.463-8.01,4.549-11.096
				C181.407,88.13,185.023,86.587,189.336,86.587 M179.783,108.846h19.236v-6.534c0-2.646-0.947-4.923-2.858-6.834
				c-1.911-1.911-4.21-2.866-6.903-2.866c-2.696,0-4.898,0.955-6.758,2.866c-1.862,1.91-2.717,4.188-2.717,6.834V108.846
				 M189.262,136.848c1.713,0,3.182-0.611,4.409-1.837c1.224-1.224,1.837-2.719,1.837-4.482c0-1.764-0.613-3.256-1.837-4.482
				c-1.226-1.224-2.696-1.837-4.409-1.837c-1.715,0-3.185,0.613-4.409,1.837c-1.226,1.226-1.837,2.719-1.837,4.482
				c0,1.764,0.611,3.258,1.837,4.482C186.077,136.237,187.547,136.848,189.262,136.848 M189.336,81.177
				c-5.777,0-10.717,2.091-14.841,6.214c-4.123,4.124-6.134,9.144-6.134,14.921v1.128c-2.405,0.437-4.409,1.522-6.09,3.203
				c-2.239,2.239-3.528,5.061-3.528,8.162v31.45c0,3.101,1.209,5.774,3.448,8.012c2.239,2.238,5.137,3.273,8.334,3.273h37.622
				c3.096,0,5.781-1.033,8.021-3.269c2.243-2.248,3.29-4.92,3.29-8.016v-31.45c0-3.096-0.988-5.917-3.224-8.158
				c-1.709-1.705-3.389-2.797-5.793-3.223v-1.112c0-5.759-2.114-10.769-6.168-14.89C200.193,83.277,195.129,81.177,189.336,81.177
				L189.336,81.177z M185.193,103.436v-1.124c0-1.24,0.302-2.154,1.183-3.057c0.842-0.865,1.689-1.232,2.923-1.232
				c1.262,0,2.157,0.383,3.055,1.281c0.898,0.898,1.255,1.798,1.255,3.008v1.124H185.193L185.193,103.436z M189.262,131.438
				c-0.265,0-0.36-0.029-0.579-0.249c-0.188-0.188-0.256-0.291-0.256-0.66c0-0.369,0.069-0.473,0.252-0.657
				c0.223-0.223,0.319-0.253,0.583-0.253c0.245,0,0.351,0.021,0.587,0.256c0.179,0.179,0.249,0.284,0.249,0.653
				c0,0.368-0.073,0.477-0.252,0.657C189.622,131.408,189.526,131.438,189.262,131.438L189.262,131.438z"/>
		</g>
	</g>
</g>
</svg>
