<svg xmlns="http://www.w3.org/2000/svg" viewBox="0 0 160 160"><path d="M87.167 47.125c4.216 0 7.665-3.427 7.665-7.665 0-4.238-3.449-7.665-7.665-7.665a7.659 7.659 0 0 0-7.665 7.665 7.659 7.659 0 0 0 7.665 7.665zM61 76V62.172l8.848-2.788-16.804 65.03a3.888 3.888 0 0 0 3.889 3.884c2.124 0 3.817-1.548 4.817-4.173l11.376-34.036 10.063 13.245-.425 21.079c0 2.145 1.67 4.07 3.815 4.07 2.073 0 3.692-1.484 3.804-3.484L91.5 99.875 79.685 78.02l3.275-11.986L87.681 74H108s3.44.592 3.47-4.391c0 0-.72-3.484-3.47-3.609H93.025l-8.518-14.251c-1.299-2.198-3.665-3.579-6.219-3.571-.725 0-1.478.088-2.136.28L53 55.637V76s-.12 4.564 3.5 4.75C61.375 81 61 76 61 76z" fill="#163F2A" stroke="#183F2A" stroke-width="2" stroke-linecap="round" stroke-linejoin="round" stroke-miterlimit="10"/></svg>