<?xml version="1.0" standalone="no"?>
<!DOCTYPE svg PUBLIC "-//W3C//DTD SVG 1.1//EN" "http://www.w3.org/Graphics/SVG/1.1/DTD/svg11.dtd" >
<svg xmlns="http://www.w3.org/2000/svg">
<metadata></metadata>
<defs>
<font id="museo_sans_cond500" horiz-adv-x="987" >
<font-face units-per-em="2048" ascent="1536" descent="-512" />
<missing-glyph horiz-adv-x="405" />
<glyph unicode="&#xfb01;" horiz-adv-x="993" d="M57 879v159h99v33q0 97 24 170.5t58 113t80.5 64t82.5 31t74 6.5q43 0 68 -4v-164q-16 4 -39 4q-20 0 -38.5 -4t-41 -18t-38.5 -37.5t-27 -66t-11 -99.5v-29h526v-1038h-190v879h-336v-879h-192v879h-99zM680 1243v205h197v-205h-197z" />
<glyph unicode="&#xfb02;" horiz-adv-x="1040" d="M59 866v160h99v45q0 96 23.5 169t57 113t80 64.5t84 31.5t76.5 7q43 0 68 -4v-170q-24 4 -37 4q-160 0 -160 -219v-41h176v-160h-176v-866h-192v866h-99zM692 287v1161h191v-1131q0 -89 20 -120t64 -31q18 0 28 2v-172q-28 -4 -61 -4q-30 0 -54.5 4t-54 14t-52 31 t-41.5 52t-29.5 80.5t-10.5 113.5z" />
<glyph unicode="&#xfb03;" horiz-adv-x="1579" d="M57 879v159h99v33q0 97 24 170.5t58 113t80.5 64t82.5 31t74 6.5q43 0 68 -4v-164q-16 4 -39 4q-20 0 -38.5 -4t-41 -18t-38.5 -37.5t-27 -66t-11 -99.5v-29h385v33q0 97 23.5 170.5t57.5 113t80.5 64t82.5 31t74 6.5q44 0 69 -4v-164q-16 4 -39 4q-20 0 -38.5 -4 t-41 -18t-39 -37.5t-27.5 -66t-11 -99.5v-29h536v-1038h-188v879h-348v-879h-191v879h-385v-879h-192v879h-99zM1268 1243v205h196v-205h-196z" />
<glyph unicode="&#xfb04;" horiz-adv-x="1615" d="M57 879v159h99v33q0 97 24 170.5t58 113t80.5 64t82.5 31t74 6.5q43 0 68 -4v-164q-16 4 -39 4q-20 0 -38.5 -4t-41 -18t-38.5 -37.5t-27 -66t-11 -99.5v-29h385v33q0 97 23.5 170.5t57.5 113t80.5 64t82.5 31t74 6.5q44 0 69 -4v-164q-16 4 -39 4q-20 0 -38.5 -4 t-41 -18t-39 -37.5t-27.5 -66t-11 -99.5v-29h178v-159h-178v-879h-191v879h-385v-879h-192v879h-99zM1268 287v1161h190v-1131q0 -89 20 -120t62 -31q21 0 29 2v-172q-28 -4 -60 -4q-30 0 -54.5 3.5t-54 14t-51.5 31.5t-41 52t-29.5 80.5t-10.5 113.5z" />
<glyph horiz-adv-x="0" />
<glyph horiz-adv-x="682" />
<glyph unicode=" "  horiz-adv-x="405" />
<glyph unicode="&#x09;" horiz-adv-x="405" />
<glyph unicode="&#xa0;" horiz-adv-x="405" />
<glyph unicode="!" horiz-adv-x="473" d="M137 1448h199l-17 -1049h-165zM143 0v201h185v-201h-185z" />
<glyph unicode="&#x22;" horiz-adv-x="626" d="M119 1083v387h143v-387h-143zM365 1083v387h143v-387h-143z" />
<glyph unicode="#" horiz-adv-x="1146" d="M72 391l20 148h193l45 350h-189l23 149h186l58 410h149l-57 -410h231l57 410h150l-57 -410h194l-22 -149h-193l-45 -350h191l-23 -148h-190l-54 -391h-147l53 391h-233l-52 -391h-149l53 391h-192zM434 539h232l45 350h-232z" />
<glyph unicode="$" horiz-adv-x="919" d="M72 135l92 156q52 -48 125.5 -79.5t142.5 -31.5q97 0 155 55t58 146q0 60 -30 109.5t-78 85t-105.5 69.5t-115.5 72t-106 82.5t-78 111.5t-30 150q0 139 79.5 240t221.5 131v225h129v-215q75 -2 152.5 -24.5t134.5 -61.5l-74 -166q-40 30 -110 54t-127 24 q-98 0 -152.5 -57t-54.5 -144q0 -58 30 -105.5t78 -82t105.5 -68t115.5 -71.5t106 -83.5t78 -113.5t30 -152q0 -145 -82 -249.5t-230 -131.5v-219h-129v213q-192 10 -331 131z" />
<glyph unicode="%" horiz-adv-x="1275" d="M80 1165q0 130 69.5 219t182.5 89t183.5 -89.5t70.5 -218.5t-70.5 -216t-183.5 -87t-182.5 87t-69.5 216zM115 0l872 1448h170l-872 -1448h-170zM229 1167q0 -71 25 -114t78 -43q54 0 80 43t26 114q0 70 -26 114t-80 44q-52 0 -77.5 -44t-25.5 -114zM690 279 q0 129 70 217t184 88q113 0 183.5 -88t70.5 -217t-70.5 -216.5t-183.5 -87.5q-114 0 -184 87.5t-70 216.5zM840 281q0 -71 25.5 -114.5t78.5 -43.5t79 43.5t26 114.5q0 69 -26 113t-79 44t-78.5 -44t-25.5 -113z" />
<glyph unicode="&#x26;" horiz-adv-x="1085" d="M88 401q0 135 57 231t156 140v10q-82 43 -124 127.5t-42 192.5q0 92 31 164.5t82.5 116.5t115.5 67t134 23q81 0 151 -25l-45 -162q-44 14 -88 14q-84 0 -135 -61t-51 -156q0 -94 50 -163.5t144 -69.5h170v190h189v-190h145v-174h-145v-236q0 -225 -111.5 -345 t-284.5 -120q-179 0 -289 117t-110 309zM285 412q0 -116 53.5 -184t148.5 -68q90 0 148.5 72t58.5 237v207h-180q-101 0 -165 -68.5t-64 -195.5z" />
<glyph unicode="'" horiz-adv-x="382" d="M119 1083v387h145v-387h-145z" />
<glyph unicode="(" horiz-adv-x="499" d="M86 696q0 430 186 811h162q-178 -387 -178 -811q0 -474 178 -891h-162q-89 187 -137.5 416.5t-48.5 474.5z" />
<glyph unicode=")" horiz-adv-x="499" d="M63 -195q179 420 179 891q0 429 -179 811h162q189 -388 189 -811q0 -243 -49.5 -473t-139.5 -418h-162z" />
<glyph unicode="*" horiz-adv-x="843" d="M82 1085l68 175l198 -103l-12 291h172l-14 -291l200 103l68 -175l-223 -75v-4l157 -240l-145 -94l-127 241h-4l-127 -239l-148 92l160 240v4z" />
<glyph unicode="+" d="M72 502v162h344v503h157v-503h342v-162h-342v-502h-157v502h-344z" />
<glyph unicode="," horiz-adv-x="462" d="M53 -207l105 426h186l-145 -426h-146z" />
<glyph unicode="-" horiz-adv-x="696" d="M113 494v180h471v-180h-471z" />
<glyph unicode="." horiz-adv-x="415" d="M113 0v213h190v-213h-190z" />
<glyph unicode="/" horiz-adv-x="688" d="M61 -86l404 1610h164l-404 -1610h-164z" />
<glyph unicode="0" horiz-adv-x="1017" d="M100 725q0 109 8 200.5t25.5 178t48.5 152t75.5 115.5t108.5 76t144 26q96 0 168 -38.5t117.5 -104t73.5 -163.5t38.5 -204t10.5 -238q0 -133 -10.5 -239.5t-38.5 -204.5t-73.5 -163.5t-117.5 -104t-168 -38.5q-80 0 -144 26t-108.5 76t-75.5 115.5t-48.5 152.5 t-25.5 178.5t-8 201.5zM299 725q0 -85 3 -152.5t11.5 -134.5t23.5 -115t38 -86.5t57 -57.5t78 -19q64 0 106.5 42t64 123.5t30 175.5t8.5 224q0 129 -8.5 222.5t-30 175t-64 123.5t-106.5 42q-44 0 -78 -19t-57 -57.5t-38 -86.5t-23.5 -115t-11.5 -133.5t-3 -151.5z" />
<glyph unicode="1" horiz-adv-x="817" d="M80 1102l278 346h170v-1280h242v-168h-676v168h244v934l4 86h-4q-10 -31 -49 -80l-92 -117z" />
<glyph unicode="2" horiz-adv-x="942" d="M80 1280q55 84 157.5 138.5t213.5 54.5q168 0 274 -107.5t106 -292.5q0 -72 -17.5 -138.5t-48 -119.5t-69.5 -102t-82 -91.5t-86.5 -84t-83 -83t-70 -84t-49.5 -93t-20 -103.5h543v-174h-735q-11 56 -11 117q0 98 29 183.5t76 148.5t103 120t112.5 110t103.5 107.5 t76 123t29 145.5q0 107 -56 168t-149 61q-65 0 -121.5 -29.5t-91.5 -83.5z" />
<glyph unicode="3" horiz-adv-x="915" d="M70 104l92 154q94 -94 225 -94q105 0 174.5 70.5t69.5 201.5q0 127 -77 193.5t-220 66.5h-92l-41 119l303 381q21 25 38 44.5t24 26.5l7 7v4q-33 -4 -96 -4h-354v174h680v-156l-357 -436q174 -18 279.5 -124.5t105.5 -295.5q0 -198 -115.5 -329.5t-312.5 -131.5 q-204 0 -333 129z" />
<glyph unicode="4" horiz-adv-x="985" d="M55 371v139l482 938h235v-899h148v-178h-148v-371h-188v371h-529zM248 549h336v534l4 129h-4q-14 -51 -41 -106l-295 -553v-4z" />
<glyph unicode="5" horiz-adv-x="919" d="M78 104l94 154q42 -42 100 -68t121 -26q117 0 184.5 84.5t67.5 214.5q0 134 -73.5 211.5t-186.5 77.5q-82 0 -147 -35l-111 47l53 684h586v-174h-416l-24 -293l-11 -74h7q47 19 114 19q75 0 147 -31t130.5 -88t94.5 -147t36 -199q0 -208 -122.5 -347t-309.5 -139 q-92 0 -179 33.5t-155 95.5z" />
<glyph unicode="6" horiz-adv-x="983" d="M92 659q0 82 8 162t27 161.5t47 153t70.5 134t95.5 107t124 70.5t154 26q126 0 220 -52l-56 -172q-68 39 -161 39q-278 0 -320 -467h4q38 49 101.5 79t138.5 30q164 0 264 -132t100 -339q0 -216 -102.5 -350t-278.5 -134q-199 0 -317.5 184t-118.5 500zM293 541 q0 -58 14 -121.5t41 -123.5t76 -99t111 -39q89 0 134.5 80t45.5 208q0 88 -21.5 156.5t-72.5 113t-127 44.5q-89 0 -145 -60.5t-56 -158.5z" />
<glyph unicode="7" horiz-adv-x="870" d="M68 1274v174h763v-143l-497 -1305h-199l438 1135q15 37 30.5 72t23.5 51l8 16v4q-29 -4 -76 -4h-491z" />
<glyph unicode="8" d="M84 375q0 81 25.5 154t65.5 124.5t69 80t57 48.5q-82 66 -128 144.5t-46 185.5q0 71 21.5 134t64.5 114.5t116 82t167 30.5q95 0 168.5 -28.5t117.5 -78t66 -112t22 -134.5q0 -200 -168 -393q59 -42 99.5 -86.5t69 -112.5t28.5 -149q0 -109 -47.5 -200t-143 -147.5 t-223.5 -56.5q-189 0 -295 114t-106 286zM281 395q0 -107 55.5 -174t155.5 -67q97 0 152.5 63.5t55.5 155.5q0 32 -7.5 61.5t-16.5 51.5t-29.5 46t-33.5 37.5t-43 35t-43.5 30t-48.5 29.5t-46 28q-151 -120 -151 -297zM319 1116q0 -56 17.5 -100.5t58 -83t68 -58t86.5 -55.5 q11 -7 16 -10q115 132 115 283q0 94 -46 148t-140 54q-91 0 -133 -49.5t-42 -128.5z" />
<glyph unicode="9" horiz-adv-x="983" d="M80 985q0 218 103.5 353t279.5 135q186 0 307 -189t121 -500q0 -117 -17.5 -228.5t-58.5 -218t-101.5 -186t-153.5 -128t-208 -48.5q-121 0 -221 50l59 172q67 -39 160 -39q67 0 121 27.5t90 72t62 107.5t39.5 126.5t19.5 135.5h-4q-39 -51 -101.5 -80t-138.5 -29 q-167 0 -262.5 130.5t-95.5 336.5zM276 999q0 -65 12 -120t36.5 -99t66.5 -69t98 -25q89 0 145 61.5t56 159.5q0 57 -14 120.5t-41 123t-74.5 98.5t-105.5 39q-87 0 -133 -80.5t-46 -208.5z" />
<glyph unicode=":" horiz-adv-x="415" d="M113 0v215h190v-215h-190zM113 823v215h190v-215h-190z" />
<glyph unicode=";" horiz-adv-x="493" d="M82 -207l90 426h188l-131 -426h-147zM176 823v215h186v-215h-186z" />
<glyph unicode="&#x3c;" d="M96 522v123l754 434v-184l-551 -309v-4l551 -310v-184z" />
<glyph unicode="=" d="M111 307v162h766v-162h-766zM111 696v162h766v-162h-766z" />
<glyph unicode="&#x3e;" d="M137 88v184l551 310v4l-551 309v184l754 -434v-123z" />
<glyph unicode="?" horiz-adv-x="776" d="M66 1382q48 41 123.5 67t150.5 26q163 0 264 -106.5t101 -283.5q0 -66 -15.5 -122.5t-40.5 -97t-55 -77t-59.5 -71t-54.5 -70t-40.5 -82t-15.5 -100.5v-66h-182v80q0 89 27 160.5t65.5 119t77 91.5t65.5 99.5t27 121.5q0 100 -52.5 160.5t-138.5 60.5q-99 0 -163 -55z M240 0v201h186v-201h-186z" />
<glyph unicode="@" horiz-adv-x="1292" d="M90 506q0 213 73.5 381.5t213 266t323.5 97.5q195 0 302.5 -111t107.5 -294v-594h113v-146h-422q-82 0 -146 31.5t-103 86t-59 123t-20 147.5q0 77 20 145t58.5 121.5t103 85t146.5 31.5h129q0 101 -63 154.5t-165 53.5q-133 0 -230.5 -78t-145 -207.5t-47.5 -293.5 q0 -171 53 -308.5t152.5 -216.5t226.5 -79v-158q-181 0 -323.5 99t-220 272.5t-77.5 390.5zM637 496q0 -104 45.5 -172t130.5 -68h117v481h-113q-88 0 -134 -68t-46 -173z" />
<glyph unicode="A" horiz-adv-x="1034" d="M23 0l389 1448h209l393 -1448h-195l-108 418h-389l-105 -418h-194zM356 582h322l-117 456l-41 205h-6q-21 -129 -39 -205z" />
<glyph unicode="B" horiz-adv-x="1013" d="M143 0v1448h369q169 0 275 -98t106 -271q0 -106 -46.5 -188t-123.5 -125v-4q100 -32 157.5 -127.5t57.5 -224.5q0 -201 -113.5 -305.5t-310.5 -104.5h-371zM336 174h172q118 0 175.5 65.5t57.5 178.5q0 117 -54 185.5t-140 68.5h-211v-498zM336 838h194q71 0 117.5 62 t46.5 159q0 98 -50.5 156.5t-137.5 58.5h-170v-436z" />
<glyph unicode="C" horiz-adv-x="1116" d="M78 727q0 216 73.5 384t216.5 265t334 97q96 0 188.5 -30t160.5 -89l-82 -168q-45 44 -119 73t-143 29q-132 0 -230.5 -74t-148 -198t-49.5 -281q0 -159 49.5 -289t147 -209t224.5 -79q156 0 295 112l76 -166q-149 -129 -381 -129q-187 0 -327.5 100t-212.5 269.5 t-72 382.5z" />
<glyph unicode="D" horiz-adv-x="1185" d="M143 0v1448h387q264 0 419 -192t155 -531q0 -341 -155 -533t-419 -192h-387zM336 174h182q182 0 284.5 142.5t102.5 408.5q0 263 -103.5 405t-283.5 142h-182v-1098z" />
<glyph unicode="E" horiz-adv-x="897" d="M143 0v1448h666v-174h-473v-457h383v-174h-383v-469h498v-174h-691z" />
<glyph unicode="F" horiz-adv-x="831" d="M143 0v1448h637v-174h-444v-481h377v-172h-377v-621h-193z" />
<glyph unicode="G" horiz-adv-x="1222" d="M78 723q0 339 169.5 544.5t448.5 205.5q100 0 199.5 -33t175.5 -92l-84 -164q-53 48 -129 76t-158 28q-195 0 -308 -153.5t-113 -407.5q0 -256 114.5 -411.5t288.5 -155.5q83 0 156 33.5t118 95.5v266h-174v174h346v-729h-155v59l4 58h-4q-46 -62 -133.5 -102t-188.5 -40 q-113 0 -216.5 52t-183 145.5t-126.5 236.5t-47 314z" />
<glyph unicode="H" horiz-adv-x="1200" d="M143 0v1448h193v-639h528v639h191v-1448h-191v637h-528v-637h-193z" />
<glyph unicode="I" horiz-adv-x="481" d="M143 0v1448h193v-1448h-193z" />
<glyph unicode="J" horiz-adv-x="872" d="M43 410v79h193v-81q0 -62 9.5 -108.5t24 -73.5t36 -43t42 -21.5t45.5 -5.5q33 0 58 11t47.5 38t34.5 78.5t12 126.5v864h-271v174h463v-1038q0 -117 -29 -204.5t-79.5 -136t-109.5 -71.5t-128 -23t-129 23.5t-110.5 72.5t-79.5 136t-29 203z" />
<glyph unicode="K" horiz-adv-x="1005" d="M143 0v1448h193v-606h135l283 606h209l-318 -688v-4l338 -756h-219l-293 662h-135v-662h-193z" />
<glyph unicode="L" horiz-adv-x="849" d="M143 0v1448h193v-1274h487v-174h-680z" />
<glyph unicode="M" horiz-adv-x="1378" d="M100 0l93 1448h213l233 -766q10 -36 22.5 -88t19.5 -86l7 -33h4q27 125 47 207l234 766h213l90 -1448h-180l-56 905q-2 39 -2 92t1 86l1 33h-6q-26 -143 -49 -223l-199 -635h-192l-199 635q-10 36 -23 92.5t-20 95.5l-8 39h-6q3 -64 3 -117.5t-3 -97.5l-55 -905h-183z " />
<glyph unicode="N" horiz-adv-x="1198" d="M143 0v1448h201l457 -922q16 -36 35 -87t30 -84l11 -33h6q-13 126 -13 208v918h183v-1448h-199l-457 924q-16 36 -35 87.5t-30 84.5l-10 34h-7q13 -128 13 -208v-922h-185z" />
<glyph unicode="O" horiz-adv-x="1312" d="M80 733q0 219 71.5 387t202.5 260.5t301 92.5q258 0 419 -204.5t161 -535.5q0 -223 -73 -395.5t-205 -267.5t-302 -95t-301 94.5t-202.5 267t-71.5 396.5zM279 733q0 -262 103 -417.5t273 -155.5t274.5 156t104.5 417q0 254 -104.5 403.5t-274.5 149.5t-273 -149 t-103 -404z" />
<glyph unicode="P" horiz-adv-x="991" d="M143 0v1448h383q185 0 302.5 -126t117.5 -331q0 -204 -118 -331.5t-302 -127.5h-190v-532h-193zM336 707h160q116 0 185 77t69 207t-70 206.5t-182 76.5h-162v-567z" />
<glyph unicode="Q" horiz-adv-x="1312" d="M78 733q0 331 159.5 535.5t417.5 204.5t418 -204.5t160 -535.5q0 -288 -137 -495l155 -150l-110 -127l-148 148q-145 -134 -338 -134q-170 0 -301.5 94.5t-203.5 267t-72 396.5zM279 733q0 -264 103 -420.5t273 -156.5q117 0 207 84l-172 174l113 125l149 -164 q82 152 82 358q0 255 -103.5 404t-275.5 149q-170 0 -273 -149t-103 -404z" />
<glyph unicode="R" horiz-adv-x="1030" d="M143 0v1448h396q103 0 190 -47q92 -46 147.5 -144t55.5 -229q0 -142 -65 -244t-156 -151v-4q19 -25 37 -70l245 -559h-213l-235 575h-209v-575h-193zM336 748h178q89 0 154 73.5t65 194.5q0 73 -24.5 130.5t-67.5 86.5q-55 39 -127 39h-178v-524z" />
<glyph unicode="S" horiz-adv-x="882" d="M55 111l92 168q52 -55 120.5 -89t140.5 -34q95 0 151.5 59t56.5 156q0 62 -29 112.5t-75.5 87.5t-103 72.5t-113 75.5t-103 86.5t-75.5 116t-29 155.5q0 170 110.5 283t299.5 113q169 0 303 -93l-70 -174q-41 35 -107.5 59.5t-123.5 24.5q-103 0 -160 -61t-57 -152 q0 -53 23 -98t60 -76.5t84.5 -64t97.5 -60.5t97.5 -67t84.5 -82t60 -107t23 -141q0 -176 -106 -291t-293 -115q-97 0 -190.5 35t-168.5 101z" />
<glyph unicode="T" d="M27 1274v174h934v-174h-373v-1274h-191v1274h-370z" />
<glyph unicode="U" horiz-adv-x="1165" d="M135 459v989h193v-985q0 -152 67.5 -229.5t186.5 -77.5q120 0 188 78t68 231v983h192v-989q0 -225 -121.5 -354.5t-324.5 -129.5q-205 0 -327 129.5t-122 354.5z" />
<glyph unicode="V" horiz-adv-x="1044" d="M16 1448h209l256 -1020l37 -197h6q19 119 39 197l260 1020h205l-405 -1448h-201z" />
<glyph unicode="W" horiz-adv-x="1490" d="M39 1448h190l183 -1059l16 -160h6q9 90 21 160l204 1059h191l190 -1059l17 -160h6q8 92 20 160l181 1059h188l-270 -1448h-226l-174 934q-7 41 -13.5 91.5t-9.5 80.5l-3 31h-4q-13 -109 -29 -203l-186 -934h-228z" />
<glyph unicode="X" horiz-adv-x="980" d="M27 0l348 743l-336 705h215l172 -391q16 -35 31.5 -76.5t23.5 -65.5l8 -24h5q28 86 61 166l174 391h213l-336 -705l350 -743h-208l-193 442l-63 162h-5q-26 -82 -61 -164l-193 -440h-206z" />
<glyph unicode="Y" horiz-adv-x="960" d="M10 1448h213l195 -473q15 -37 30 -82t23 -71l8 -27h4q31 96 62 180l194 473h211l-372 -836v-612h-193v612z" />
<glyph unicode="Z" horiz-adv-x="952" d="M53 0v137l531 1004q18 36 37.5 69.5t30.5 48.5l10 15v4q-29 -4 -82 -4h-500v174h803v-137l-531 -1006q-19 -36 -39 -69.5t-31 -48.5l-10 -15v-4q31 6 82 6h535v-174h-836z" />
<glyph unicode="[" horiz-adv-x="518" d="M139 -195v1702h299v-147h-135v-1407h135v-148h-299z" />
<glyph unicode="\" horiz-adv-x="688" d="M59 1524h164l404 -1610h-164z" />
<glyph unicode="]" horiz-adv-x="518" d="M78 -47h137v1407h-137v147h301v-1702h-301v148z" />
<glyph unicode="^" horiz-adv-x="972" d="M102 506l316 942h123l315 -942h-166l-211 678l-209 -678h-168z" />
<glyph unicode="_" horiz-adv-x="970" d="M47 0h877v-162h-877v162z" />
<glyph unicode="`" horiz-adv-x="780" d="M238 1808h196l121 -262h-156z" />
<glyph unicode="a" horiz-adv-x="862" d="M55 293q0 64 16.5 116t43 87.5t65.5 63t78.5 43t87 25t86.5 12.5t82 3h47v27q0 125 -43.5 177t-124.5 52q-54 0 -115.5 -21t-109.5 -53l-53 148q52 39 134.5 64.5t164.5 25.5q165 0 250.5 -104t85.5 -304v-655h-170v80l4 82h-4q-39 -75 -104 -126.5t-152 -51.5 q-112 0 -190.5 81t-78.5 228zM231 305q0 -71 37 -118.5t99 -47.5q47 0 85.5 27.5t61 70.5t35 92t12.5 97v78h-45q-285 0 -285 -199z" />
<glyph unicode="b" horiz-adv-x="985" d="M121 0v1448h190v-459q0 -22 -1.5 -43t-3.5 -31l-1 -10h4q28 68 91 113t161 45q166 0 258 -149t92 -394q0 -249 -97.5 -397t-266.5 -148q-87 0 -154.5 41t-97.5 115h-4q6 -33 6 -74v-57h-176zM305 518q0 -77 10 -141t32.5 -119t64 -86t98.5 -31q100 0 154.5 98.5 t54.5 278.5q0 175 -51.5 275t-153.5 100q-100 0 -154.5 -92t-54.5 -283z" />
<glyph unicode="c" horiz-adv-x="874" d="M70 516q0 156 54.5 279.5t161 195.5t249.5 72q169 0 274 -102l-70 -148q-82 82 -196 82q-130 0 -205.5 -104.5t-75.5 -270.5q0 -164 75 -270.5t206 -106.5q64 0 125.5 27t107.5 74l53 -152q-49 -52 -131.5 -84.5t-177.5 -32.5q-204 0 -327 151.5t-123 389.5z" />
<glyph unicode="d" horiz-adv-x="985" d="M74 520q0 250 95 396.5t269 146.5q80 0 143.5 -36.5t92.5 -100.5h4q-4 36 -4 75v447h190v-1448h-180v78l4 74h-4q-30 -78 -96 -127.5t-166 -49.5q-168 0 -258 148t-90 397zM266 518q0 -178 51 -277.5t154 -99.5q96 0 152.5 93.5t56.5 281.5q0 103 -18.5 184.5t-66.5 137 t-120 55.5q-102 0 -155.5 -97.5t-53.5 -277.5z" />
<glyph unicode="e" horiz-adv-x="903" d="M72 528q0 239 108 387t295 148q74 0 134.5 -25.5t101 -69.5t68 -104.5t40 -128t12.5 -143.5q0 -24 -4 -98h-563q6 -173 78 -261t182 -88q68 0 132.5 26t111.5 73l51 -148q-55 -55 -140 -88t-175 -33q-138 0 -237 73t-147 196t-48 284zM262 633h385q-3 272 -176 272 q-88 0 -141.5 -71.5t-67.5 -200.5z" />
<glyph unicode="f" horiz-adv-x="567" d="M59 866v160h99v45q0 96 23.5 169t57 113t80 64.5t84 31.5t76.5 7q43 0 68 -4v-170q-24 4 -37 4q-160 0 -160 -219v-41h176v-160h-176v-866h-192v866h-99z" />
<glyph unicode="g" horiz-adv-x="972" d="M74 539q0 153 40.5 270.5t122 185.5t193.5 68q84 0 149 -39.5t95 -112.5h4v33v94h174v-993q0 -100 -24 -181t-63.5 -135t-94.5 -90.5t-114 -52.5t-124 -16q-146 0 -278 76l47 159q38 -28 100 -46.5t117 -18.5q112 0 178 70.5t66 222.5v65l2 70h-2q-34 -76 -87.5 -115 t-140.5 -39q-114 0 -197 71t-123 188t-40 266zM268 547q0 -166 53 -264.5t152 -98.5q41 0 74.5 18.5t61 58.5t42.5 111t15 169q0 350 -201 350q-99 0 -148 -90t-49 -254z" />
<glyph unicode="h" horiz-adv-x="985" d="M121 0v1448h190v-500q0 -20 -1.5 -39t-3.5 -28l-1 -9h4q39 81 111.5 136t185.5 55q127 0 195.5 -90t68.5 -262v-711h-188v668q0 98 -29 153.5t-108 55.5q-70 0 -125 -50.5t-82 -123t-27 -148.5v-555h-190z" />
<glyph unicode="i" horiz-adv-x="432" d="M119 1243v205h194v-205h-194zM121 0v1038h190v-1038h-190z" />
<glyph unicode="j" horiz-adv-x="432" d="M-78 -252q16 -4 35 -4q20 0 39 4t43 19t41 38.5t29 67t12 100.5v1065h190v-1073q0 -83 -16.5 -148.5t-45.5 -106t-62 -68.5t-73 -41t-70.5 -18t-61.5 -5q-28 0 -60 4v166zM117 1243v205h194v-205h-194z" />
<glyph unicode="k" horiz-adv-x="880" d="M121 0v1448h190v-786h99l211 376h206l-256 -458v-5l283 -575h-211l-229 485h-103v-485h-190z" />
<glyph unicode="l" horiz-adv-x="468" d="M121 287v1161h190v-1131q0 -89 20 -120t64 -31q19 0 29 2v-172q-28 -4 -62 -4q-30 0 -54.5 3.5t-54 14t-51.5 31.5t-41 52t-29.5 80.5t-10.5 113.5z" />
<glyph unicode="m" horiz-adv-x="1462" d="M121 0v1038h184v-88q0 -16 -1.5 -32.5t-3.5 -24.5l-1 -8h4q86 178 277 178q173 0 225 -178h8q98 178 285 178q123 0 187.5 -86t64.5 -252v-725h-191v688q0 195 -125 195q-88 0 -146.5 -84.5t-58.5 -198.5v-600h-190v688q0 195 -125 195q-89 0 -146 -88t-57 -207v-588 h-190z" />
<glyph unicode="n" horiz-adv-x="985" d="M121 0v1038h184v-88q0 -16 -1.5 -32.5t-3.5 -24.5l-1 -8h4q15 31 37.5 59t57.5 56.5t87 45.5t113 17q134 0 203 -86.5t69 -251.5v-725h-188v688q0 42 -5.5 74t-19.5 61t-42.5 44.5t-69.5 15.5q-70 0 -125 -46.5t-82 -113.5t-27 -137v-586h-190z" />
<glyph unicode="o" horiz-adv-x="1017" d="M70 520q0 238 122 390.5t318 152.5t317 -153t121 -390q0 -156 -54 -279.5t-154 -194.5t-230 -71q-196 0 -318 153.5t-122 391.5zM262 520q0 -168 66 -272.5t182 -104.5q115 0 180.5 104.5t65.5 272.5q0 169 -65.5 272t-180.5 103q-116 0 -182 -103t-66 -272z" />
<glyph unicode="p" horiz-adv-x="985" d="M121 -410v1448h174v-71l-4 -76h4q29 75 92.5 123.5t169.5 48.5q170 0 262 -148t92 -393q0 -251 -98 -399t-266 -148q-78 0 -144 38t-94 106h-4q6 -37 6 -86v-443h-190zM305 518q0 -77 10 -141t32 -119t63.5 -86t99.5 -31q100 0 154.5 98t54.5 277q0 177 -51.5 277 t-153.5 100q-100 0 -154.5 -92t-54.5 -283z" />
<glyph unicode="q" horiz-adv-x="985" d="M74 518q0 251 96 398t270 147q84 0 150.5 -41t97.5 -113h4q-6 35 -6 78v51h178v-1448h-190v461l4 84h-4q-24 -75 -91.5 -117.5t-156.5 -42.5q-169 0 -260.5 147.5t-91.5 395.5zM266 518q0 -177 51.5 -277t153.5 -100q100 0 154.5 93t54.5 284q0 76 -10 139.5t-32.5 118.5 t-64 86t-98.5 31q-100 0 -154.5 -98t-54.5 -277z" />
<glyph unicode="r" horiz-adv-x="632" d="M121 0v1038h184v-157l-4 -76h4q25 101 97 173.5t155 72.5q15 0 39 -7v-194q-12 4 -47 4q-61 0 -108.5 -39t-74.5 -101.5t-41 -132.5t-14 -141v-440h-190z" />
<glyph unicode="s" horiz-adv-x="729" d="M51 88l74 145q114 -94 217 -94q64 0 103.5 36t39.5 97q0 43 -22 76.5t-57 57t-77.5 46t-85.5 49.5t-78 60t-57 85.5t-22 119.5q0 135 85.5 216t229.5 81q141 0 244 -78l-61 -154q-89 66 -181 66q-59 0 -97 -33.5t-38 -93.5q0 -42 22 -75t57 -56t77.5 -45t85 -48.5 t77.5 -59.5t57 -85t22 -118q0 -133 -82.5 -220.5t-235.5 -87.5q-171 0 -297 113z" />
<glyph unicode="t" horiz-adv-x="579" d="M43 866v160h111v297h184v-297h184v-160h-184v-467q0 -73 14.5 -122.5t40.5 -72t50.5 -30.5t56.5 -8q25 0 37 4v-174q-16 -4 -62 -4q-27 0 -53 3t-60 13.5t-63 27t-57.5 46t-49 69t-33 98t-12.5 130.5v487h-104z" />
<glyph unicode="u" horiz-adv-x="978" d="M113 313v725h190v-690q0 -41 5.5 -72.5t19.5 -60t42.5 -44t69.5 -15.5q65 0 119 45.5t81.5 112.5t27.5 137v587h188v-1038h-182v86l4 66h-4q-12 -23 -27 -44.5t-41 -46.5t-55.5 -43.5t-72.5 -30.5t-91 -12q-136 0 -205 86.5t-69 251.5z" />
<glyph unicode="v" horiz-adv-x="878" d="M35 1038h201l176 -698q6 -25 12 -60.5t9 -57.5l3 -23h6q13 82 25 141l176 698h199l-289 -1038h-225z" />
<glyph unicode="w" horiz-adv-x="1318" d="M37 1038h188l146 -725l18 -110h4q9 65 19 110l155 721h187l157 -721q4 -20 8 -47.5t5 -45.5l2 -17h6q8 57 18 110l148 725h184l-238 -1038h-215l-149 666l-16 112h-7q-6 -63 -16 -112l-147 -666h-220z" />
<glyph unicode="x" horiz-adv-x="829" d="M31 0l264 543l-248 495h197l141 -305l25 -67h4q12 38 24 67l148 305h196l-247 -495l264 -543h-189l-166 356l-24 64h-4q-11 -37 -25 -64l-168 -356h-192z" />
<glyph unicode="y" horiz-adv-x="878" d="M23 1038h202l191 -673q6 -23 11.5 -55t8.5 -53l2 -21h6q11 75 23 124l176 678h199l-355 -1208q-37 -125 -115 -192.5t-171 -67.5q-44 0 -85.5 13t-61.5 27l-19 13l55 148q47 -37 98 -37q44 0 82 42.5t60 117.5l32 112z" />
<glyph unicode="z" horiz-adv-x="829" d="M61 0v117l404 661l63 96v5q-20 -5 -71 -5h-381v164h680v-116l-404 -664q-16 -24 -32.5 -47.5t-25.5 -34.5l-9 -12v-4q22 4 73 4h410v-164h-707z" />
<glyph unicode="{" horiz-adv-x="591" d="M66 580v174q71 14 103 78t32 149v174q0 92 21 160.5t50 104.5t69.5 57.5t70 26.5t61.5 5h47v-151q-10 2 -26 2t-30.5 -3.5t-33.5 -16.5t-32.5 -35t-23 -63t-9.5 -97v-215q0 -84 -32 -154t-100 -106v-4q67 -30 99.5 -103.5t32.5 -156.5v-240q0 -56 9.5 -97t23 -63 t32.5 -35t33.5 -16.5t30.5 -3.5l26 2v-150q-18 -4 -47 -4q-31 0 -61 5.5t-70.5 27.5t-69.5 58.5t-50 105.5t-21 162v196q0 83 -32 147.5t-103 78.5z" />
<glyph unicode="|" horiz-adv-x="434" d="M135 -326v1948h164v-1948h-164z" />
<glyph unicode="}" horiz-adv-x="591" d="M72 -47q10 -2 26 -2t30.5 3.5t33.5 16.5t32.5 35t23 63t9.5 97v240q0 87 32.5 159t98.5 101v4q-61 30 -96 98.5t-35 161.5v215q0 56 -9.5 97t-23 63t-32.5 35t-33.5 16.5t-30.5 3.5l-26 -2v151h47q32 0 61.5 -5t70 -26.5t69.5 -57.5t50 -104.5t21 -160.5v-174 q0 -38 6.5 -73t21.5 -67.5t42.5 -55.5t64.5 -31v-174q-67 -11 -101 -75.5t-34 -150.5v-196q0 -93 -21 -162t-50 -105.5t-69.5 -58.5t-70.5 -27.5t-61 -5.5l-47 4v150z" />
<glyph unicode="~" horiz-adv-x="993" d="M106 416q0 175 62.5 261.5t171.5 86.5q52 0 93 -20.5t66 -50t46 -59.5t45 -50.5t51 -20.5q50 0 73 58t23 135h150q0 -175 -62.5 -261.5t-169.5 -86.5q-52 0 -93 20.5t-66 50t-46 59t-45 50t-51 20.5q-35 0 -57.5 -31t-30.5 -71.5t-8 -89.5h-152z" />
<glyph unicode="&#xa1;" horiz-adv-x="438" d="M119 -412l16 1049h166l16 -1049h-198zM127 836v200h184v-200h-184z" />
<glyph unicode="&#xa2;" horiz-adv-x="919" d="M76 723q0 148 40.5 272t116.5 204.5t177 98.5v172h131v-172q102 -17 176.5 -86t113.5 -176l-165 -73q-59 153 -181 153q-99 0 -158 -111t-59 -282q0 -175 57.5 -284t159.5 -109q123 0 181 155l165 -71q-37 -105 -110 -177.5t-180 -86.5v-177h-131v177 q-151 27 -242.5 187.5t-91.5 385.5z" />
<glyph unicode="&#xa3;" horiz-adv-x="919" d="M70 653v144h98v268q0 186 97.5 297t256.5 111q78 0 154.5 -26.5t128.5 -76.5l-98 -143q-32 27 -78 45t-92 18q-83 0 -127.5 -63.5t-44.5 -159.5v-270h280v-144h-280v-479h495v-174h-786v174h94v479h-98z" />
<glyph unicode="&#xa5;" horiz-adv-x="919" d="M14 1458h213l179 -471q13 -40 25.5 -86t18.5 -72l7 -26h6q22 94 51 184l178 471h213l-248 -604h156v-131h-213l-43 -100v-74h256v-131h-256v-418h-195v418h-258v131h258v74l-43 100h-215v131h158z" />
<glyph unicode="&#xa7;" horiz-adv-x="753" d="M90 -47l72 131q33 -22 81.5 -36.5t90.5 -14.5q48 0 82 18t51.5 49.5t25 66t7.5 75.5q0 35 -11 88l-110 784h156l114 -792q8 -41 8 -93q0 -70 -18.5 -132t-55.5 -113t-100 -81t-145 -30q-145 0 -248 80zM94 1116q0 70 19 132t56.5 113.5t101 81.5t145.5 30q147 0 248 -82 l-72 -131q-31 22 -81 37.5t-91 15.5q-38 0 -68 -12.5t-48 -33t-29.5 -49t-16 -56.5t-4.5 -60q0 -42 10 -90l109 -781h-154l-115 793q-10 48 -10 92z" />
<glyph unicode="&#xa8;" horiz-adv-x="778" d="M174 1599v209h148v-209h-148zM457 1599v209h147v-209h-147z" />
<glyph unicode="&#xa9;" horiz-adv-x="1329" d="M90 723q0 214 70.5 384.5t202 268t301.5 97.5q173 0 304.5 -98t200 -267.5t68.5 -384.5t-68.5 -384t-200 -266.5t-304.5 -97.5q-170 0 -301.5 97t-202 267t-70.5 384zM231 723q0 -179 51 -317.5t150 -217.5t232 -79q136 0 235.5 79t149 217t49.5 318t-49.5 318t-149 218 t-235.5 80q-200 0 -316.5 -171t-116.5 -445zM375 721q0 108 32 198.5t102 150.5t167 60q85 0 153 -54t93 -138l-107 -49q-12 44 -50.5 75t-84.5 31q-78 0 -119 -81.5t-41 -194.5q0 -52 9 -98.5t27 -86.5t49.5 -64t72.5 -24q48 0 86.5 32.5t54.5 80.5l103 -55 q-24 -81 -92 -137t-154 -56q-73 0 -132 34.5t-95 93t-55 131t-19 151.5z" />
<glyph unicode="&#xaa;" horiz-adv-x="694" d="M119 543v119h450v-119h-450zM119 981q0 51 15 90.5t41.5 63t54.5 39t63.5 22t58.5 8.5t49 2h25v19q0 66 -26.5 96.5t-69.5 30.5q-68 0 -129 -41l-49 98q31 25 87.5 42t108.5 17q109 0 163 -67t54 -193v-411h-125v98h-4q-19 -46 -57.5 -79.5t-87.5 -33.5q-71 0 -121.5 53 t-50.5 146zM244 995q0 -40 22 -67t56 -27q45 0 74.5 51.5t29.5 120.5v33h-25q-26 0 -49.5 -4t-50 -14.5t-42 -34t-15.5 -58.5z" />
<glyph unicode="&#xab;" horiz-adv-x="946" d="M76 578l258 421h182l-260 -421l260 -420h-182zM422 578l258 421h182l-258 -421l258 -420h-182z" />
<glyph unicode="&#xac;" horiz-adv-x="1005" d="M115 696v162h766v-551h-154v389h-612z" />
<glyph unicode="&#xad;" horiz-adv-x="696" d="M113 494v180h471v-180h-471z" />
<glyph unicode="&#xae;" horiz-adv-x="1329" d="M90 723q0 214 70.5 384.5t202 268t301.5 97.5q173 0 304.5 -98t200 -267.5t68.5 -384.5t-68.5 -384t-200 -266.5t-304.5 -97.5q-170 0 -301.5 97t-202 267t-70.5 384zM231 723q0 -179 51 -317.5t150 -217.5t232 -79q136 0 235.5 79t149 217t49.5 318t-49.5 318t-149 218 t-235.5 80q-200 0 -316.5 -171t-116.5 -445zM463 340v772h244q89 0 141.5 -65t52.5 -173q0 -81 -34 -134.5t-76 -67.5v-4q10 -10 22 -45l102 -283h-141l-100 299h-76v-299h-135zM598 748h78q41 0 64.5 33t23.5 93q0 61 -23 93t-63 32h-80v-251z" />
<glyph unicode="&#xaf;" horiz-adv-x="778" d="M184 1606v147h410v-147h-410z" />
<glyph unicode="&#xb0;" horiz-adv-x="677" d="M86 1165q0 130 69.5 219t182.5 89t183.5 -89.5t70.5 -218.5t-70.5 -216t-183.5 -87t-182.5 87t-69.5 216zM231 1167q0 -70 27 -113.5t80 -43.5t79.5 43.5t26.5 113.5q0 69 -26.5 113.5t-79.5 44.5t-80 -44.5t-27 -113.5z" />
<glyph unicode="&#xb1;" d="M72 506v156h344v505h157v-505h342v-156h-342v-506h-157v506h-344zM92 -199h801v-155h-801v155z" />
<glyph unicode="&#xb2;" horiz-adv-x="620" d="M61 1653q30 56 94.5 92.5t141.5 36.5q104 0 174 -66t70 -188q0 -59 -18 -110.5t-46.5 -89.5t-63 -72t-69.5 -64t-63.5 -59.5t-47 -64t-18.5 -71.5h334v-131h-475q-6 75 -6 76q0 65 18 121t47 95t64 73.5t69.5 65.5t63.5 61.5t47 69.5t18 83q0 63 -32.5 96t-86.5 33 q-77 0 -122 -73z" />
<glyph unicode="&#xb3;" horiz-adv-x="620" d="M55 926l66 114q56 -59 137 -59q63 0 104 41t41 113q0 74 -45.5 112.5t-130.5 38.5h-57l-27 76l160 219q8 12 19 23.5t18 17.5l6 6v4q-20 -2 -63 -2h-197v131h438v-94l-209 -276q108 -12 172 -78.5t64 -177.5q0 -125 -76.5 -207t-204.5 -82q-122 0 -215 80z" />
<glyph unicode="&#xb4;" horiz-adv-x="780" d="M231 1546l119 262h199l-164 -262h-154z" />
<glyph unicode="&#xb6;" horiz-adv-x="989" d="M63 971q0 204 104.5 340.5t266.5 136.5h473v-180h-329v-1370h-142v596q-107 0 -193 63t-133 172t-47 242zM674 -102v1251h141v-1251h-141z" />
<glyph unicode="&#xb7;" horiz-adv-x="409" d="M113 487v213h184v-213h-184z" />
<glyph unicode="&#xb8;" horiz-adv-x="778" d="M258 -295q23 -14 68 -14q73 0 73 67q0 34 -22.5 52t-59.5 18l-30 -4l47 223l88 -20v-17l-16 -112q51 -8 84.5 -47t33.5 -103q0 -86 -50.5 -129t-121.5 -43q-40 0 -94 14v115z" />
<glyph unicode="&#xb9;" horiz-adv-x="620" d="M90 1542l182 219h127v-766h148v-129h-441v129h154v527l2 53h-4q-4 -18 -29 -51l-55 -66z" />
<glyph unicode="&#xba;" horiz-adv-x="778" d="M113 1130q0 146 77 242t195 96q122 0 200.5 -95.5t78.5 -242.5q0 -151 -77.5 -247.5t-197.5 -96.5q-121 0 -198.5 96.5t-77.5 247.5zM137 543v119h504v-119h-504zM254 1130q0 -95 36.5 -152.5t98.5 -57.5q60 0 96.5 58t36.5 152q0 90 -37 148.5t-96 58.5q-62 0 -98.5 -58 t-36.5 -149z" />
<glyph unicode="&#xbb;" horiz-adv-x="946" d="M84 158l258 420l-258 421h182l260 -421l-260 -420h-182zM432 158l258 420l-258 421h182l258 -421l-258 -420h-182z" />
<glyph unicode="&#xbc;" horiz-adv-x="1576" d="M84 1229l182 219h127v-766h148v-129h-441v129h154v526l2 54h-4q-4 -19 -29 -52l-55 -65zM446 0l531 1448h139l-528 -1448h-142zM950 225v111l295 559h170v-549h96v-121h-96v-225h-133v225h-332zM1085 346h197v275l2 108h-4q-16 -49 -41 -92l-154 -289v-2z" />
<glyph unicode="&#xbd;" horiz-adv-x="1560" d="M82 1229l182 219h127v-766h148v-129h-441v129h154v526l2 54h-4q-4 -19 -29 -52l-55 -65zM449 0l530 1448h139l-528 -1448h-141zM991 786q30 56 94.5 92.5t141.5 36.5q104 0 173.5 -65.5t69.5 -187.5q0 -68 -24 -127t-60 -98.5t-78 -79.5t-78 -71t-60.5 -71.5t-24.5 -83.5 h334v-131h-475q0 5 -3.5 31.5t-3.5 44.5q0 65 18 121t47 95t64 73.5t70 65.5t64 61.5t47 69.5t18 83q0 63 -32.5 96t-86.5 33q-78 0 -123 -74z" />
<glyph unicode="&#xbe;" horiz-adv-x="1583" d="M74 612l65 115q56 -59 137 -59q64 0 105 41t41 112q0 75 -45.5 113.5t-130.5 38.5h-58l-26 76l160 219q8 12 19 24t17 18l7 5v4q-21 -2 -64 -2h-197v131h439v-94l-209 -277q107 -12 171 -78.5t64 -177.5q0 -125 -76 -207t-204 -82q-122 0 -215 80zM455 0l530 1448h139 l-528 -1448h-141zM956 225v111l295 559h170v-549h97v-121h-97v-225h-133v225h-332zM1092 346h196v275l2 108h-4q-16 -49 -41 -92l-153 -289v-2z" />
<glyph unicode="&#xbf;" horiz-adv-x="757" d="M63 -49q0 66 15.5 122.5t40.5 97t55 77t59.5 71t54.5 70t40.5 82t15.5 100.5v66h182v-80q0 -89 -27 -160.5t-65.5 -119t-77 -91.5t-65.5 -99.5t-27 -121.5q0 -100 52.5 -160.5t138.5 -60.5q99 0 163 55l84 -145q-48 -40 -123.5 -66t-150.5 -26q-163 0 -264 106t-101 283z M342 836v200h186v-200h-186z" />
<glyph unicode="&#xc0;" horiz-adv-x="1034" d="M23 0l389 1448h209l393 -1448h-195l-108 418h-389l-105 -418h-194zM272 1808h197l121 -262h-156zM356 582h322l-117 456l-41 205h-6q-21 -129 -39 -205z" />
<glyph unicode="&#xc1;" horiz-adv-x="1034" d="M23 0l389 1448h209l393 -1448h-195l-108 418h-389l-105 -418h-194zM356 582h322l-117 456l-41 205h-6q-21 -129 -39 -205zM428 1546l119 262h198l-163 -262h-154z" />
<glyph unicode="&#xc2;" horiz-adv-x="1034" d="M23 0l389 1448h209l393 -1448h-195l-108 418h-389l-105 -418h-194zM276 1546l146 262h190l144 -262h-158l-80 166h-4l-80 -166h-158zM356 582h322l-117 456l-41 205h-6q-21 -129 -39 -205z" />
<glyph unicode="&#xc3;" horiz-adv-x="1034" d="M23 0l389 1448h209l393 -1448h-195l-108 418h-389l-105 -418h-194zM233 1548q0 128 43 195t123 67q34 0 62 -14.5t46 -35t33.5 -40.5t32.5 -34.5t35 -14.5q30 0 44 40t14 93h131q0 -128 -43 -195t-123 -67q-34 0 -62 14.5t-46.5 35t-34 40.5t-33 34.5t-35.5 14.5 q-29 0 -42 -39t-13 -94h-132zM356 582h322l-117 456l-41 205h-6q-21 -129 -39 -205z" />
<glyph unicode="&#xc4;" horiz-adv-x="1034" d="M23 0l389 1448h209l393 -1448h-195l-108 418h-389l-105 -418h-194zM301 1599v209h148v-209h-148zM356 582h322l-117 456l-41 205h-6q-21 -129 -39 -205zM584 1599v209h147v-209h-147z" />
<glyph unicode="&#xc5;" horiz-adv-x="1034" d="M23 0l389 1448h209l393 -1448h-195l-108 418h-389l-105 -418h-194zM356 582h322l-117 456l-41 205h-6q-21 -129 -39 -205zM369 1675q0 69 44 111.5t105 42.5q60 0 104 -42.5t44 -111.5t-44 -111t-104 -42q-61 0 -105 42t-44 111zM465 1675q0 -71 53 -71q51 0 51 71 q0 72 -51 72q-26 0 -39.5 -19.5t-13.5 -52.5z" />
<glyph unicode="&#xc6;" horiz-adv-x="1425" d="M14 0l463 1448h862v-174h-473v-457h383v-174h-383v-469h498v-174h-690v582h-281l-182 -582h-197zM444 752h230v516h-68z" />
<glyph unicode="&#xc7;" horiz-adv-x="1116" d="M78 727q0 216 73.5 384t216.5 265t334 97q96 0 188.5 -30t160.5 -89l-82 -168q-45 44 -119 73t-143 29q-132 0 -230.5 -74t-148 -198t-49.5 -281q0 -159 49.5 -289t147 -209t224.5 -79q156 0 295 112l76 -166q-133 -117 -348 -129l-10 -77q51 -8 84.5 -47t33.5 -103 q0 -86 -50.5 -129t-121.5 -43q-40 0 -94 14v115q23 -14 68 -14q32 0 53 16t21 51q0 34 -22.5 52t-59.5 18l-31 -4l33 156q-169 16 -295 118.5t-190 265t-64 363.5z" />
<glyph unicode="&#xc8;" horiz-adv-x="897" d="M143 0v1448h666v-174h-473v-457h383v-174h-383v-469h498v-174h-691zM254 1808h197l120 -262h-155z" />
<glyph unicode="&#xc9;" horiz-adv-x="897" d="M143 0v1448h666v-174h-473v-457h383v-174h-383v-469h498v-174h-691zM410 1546l118 262h199l-164 -262h-153z" />
<glyph unicode="&#xca;" horiz-adv-x="897" d="M143 0v1448h666v-174h-473v-457h383v-174h-383v-469h498v-174h-691zM258 1546l145 262h191l143 -262h-157l-80 166h-4l-80 -166h-158z" />
<glyph unicode="&#xcb;" horiz-adv-x="897" d="M143 0v1448h666v-174h-473v-457h383v-174h-383v-469h498v-174h-691zM283 1599v209h147v-209h-147zM565 1599v209h148v-209h-148z" />
<glyph unicode="&#xcc;" horiz-adv-x="481" d="M2 1808h197l120 -262h-155zM143 0v1448h193v-1448h-193z" />
<glyph unicode="&#xcd;" horiz-adv-x="481" d="M143 0v1448h193v-1448h-193zM158 1546l118 262h199l-164 -262h-153z" />
<glyph unicode="&#xce;" horiz-adv-x="481" d="M6 1546l146 262h190l143 -262h-157l-80 166h-4l-80 -166h-158zM143 0v1448h193v-1448h-193z" />
<glyph unicode="&#xcf;" horiz-adv-x="481" d="M31 1599v209h147v-209h-147zM143 0v1448h193v-1448h-193zM313 1599v209h148v-209h-148z" />
<glyph unicode="&#xd0;" horiz-adv-x="1189" d="M51 641v166h99v641h385q265 0 420 -191.5t155 -531.5q0 -341 -155 -533t-420 -192h-385v641h-99zM342 174h182q181 0 283 143t102 408q0 263 -102.5 405t-282.5 142h-182v-465h231v-166h-231v-467z" />
<glyph unicode="&#xd1;" horiz-adv-x="1198" d="M143 0v1448h201l457 -922q16 -36 35 -87t30 -84l11 -33h6q-13 126 -13 208v918h183v-1448h-199l-457 924q-16 36 -35 87.5t-30 84.5l-10 34h-7q13 -128 13 -208v-922h-185zM322 1548q0 128 42.5 195t122.5 67q34 0 62 -14.5t46 -35t33.5 -40.5t32.5 -34.5t35 -14.5 q30 0 44 40t14 93h131q0 -128 -43 -195t-123 -67q-34 0 -62 14.5t-46.5 35t-34 40.5t-33 34.5t-35.5 14.5q-29 0 -42 -39t-13 -94h-131z" />
<glyph unicode="&#xd2;" horiz-adv-x="1312" d="M80 733q0 219 71.5 387t202.5 260.5t301 92.5q258 0 419 -204.5t161 -535.5q0 -223 -73 -395.5t-205 -267.5t-302 -95t-301 94.5t-202.5 267t-71.5 396.5zM279 733q0 -262 103 -417.5t273 -155.5t274.5 156t104.5 417q0 254 -104.5 403.5t-274.5 149.5t-273 -149 t-103 -404zM412 1808h196l121 -262h-156z" />
<glyph unicode="&#xd3;" horiz-adv-x="1312" d="M80 733q0 219 71.5 387t202.5 260.5t301 92.5q258 0 419 -204.5t161 -535.5q0 -223 -73 -395.5t-205 -267.5t-302 -95t-301 94.5t-202.5 267t-71.5 396.5zM279 733q0 -262 103 -417.5t273 -155.5t274.5 156t104.5 417q0 254 -104.5 403.5t-274.5 149.5t-273 -149 t-103 -404zM567 1546l119 262h199l-164 -262h-154z" />
<glyph unicode="&#xd4;" horiz-adv-x="1312" d="M80 733q0 219 71.5 387t202.5 260.5t301 92.5q258 0 419 -204.5t161 -535.5q0 -223 -73 -395.5t-205 -267.5t-302 -95t-301 94.5t-202.5 267t-71.5 396.5zM279 733q0 -262 103 -417.5t273 -155.5t274.5 156t104.5 417q0 254 -104.5 403.5t-274.5 149.5t-273 -149 t-103 -404zM416 1546l145 262h191l143 -262h-158l-80 166h-4l-80 -166h-157z" />
<glyph unicode="&#xd5;" horiz-adv-x="1312" d="M80 733q0 219 71.5 387t202.5 260.5t301 92.5q258 0 419 -204.5t161 -535.5q0 -223 -73 -395.5t-205 -267.5t-302 -95t-301 94.5t-202.5 267t-71.5 396.5zM279 733q0 -262 103 -417.5t273 -155.5t274.5 156t104.5 417q0 254 -104.5 403.5t-274.5 149.5t-273 -149 t-103 -404zM373 1548q0 128 43 195t123 67q34 0 62 -14.5t46 -35t33.5 -40.5t32.5 -34.5t35 -14.5q20 0 33.5 21.5t18.5 49.5t5 62h131q0 -128 -43 -195t-123 -67q-34 0 -62 14.5t-46.5 35t-34 40.5t-33 34.5t-35.5 14.5q-29 0 -42 -39t-13 -94h-131z" />
<glyph unicode="&#xd6;" horiz-adv-x="1312" d="M80 733q0 219 71.5 387t202.5 260.5t301 92.5q258 0 419 -204.5t161 -535.5q0 -223 -73 -395.5t-205 -267.5t-302 -95t-301 94.5t-202.5 267t-71.5 396.5zM279 733q0 -262 103 -417.5t273 -155.5t274.5 156t104.5 417q0 254 -104.5 403.5t-274.5 149.5t-273 -149 t-103 -404zM440 1599v209h148v-209h-148zM723 1599v209h147v-209h-147z" />
<glyph unicode="&#xd7;" d="M59 1057l125 104l310 -446l307 446l127 -104l-336 -484l334 -479l-127 -102l-305 440l-308 -440l-125 102l332 479z" />
<glyph unicode="&#xd8;" horiz-adv-x="1312" d="M80 733q0 331 158.5 534t416.5 203q169 0 289 -84l64 117l106 -59l-74 -135q195 -198 195 -576q0 -339 -161 -548.5t-419 -209.5q-169 0 -299 95l-67 -123l-107 59l78 148q-180 198 -180 579zM279 733q0 -237 90 -389l483 879q-84 63 -197 63q-173 0 -274.5 -148 t-101.5 -405zM449 236q85 -76 206 -76q172 0 275.5 155t103.5 418q0 248 -94 393z" />
<glyph unicode="&#xd9;" horiz-adv-x="1165" d="M135 459v989h193v-985q0 -152 67.5 -229.5t186.5 -77.5q120 0 188 78t68 231v983h192v-989q0 -225 -121.5 -354.5t-324.5 -129.5q-205 0 -327 129.5t-122 354.5zM338 1808h197l120 -262h-155z" />
<glyph unicode="&#xda;" horiz-adv-x="1165" d="M135 459v989h193v-985q0 -152 67.5 -229.5t186.5 -77.5q120 0 188 78t68 231v983h192v-989q0 -225 -121.5 -354.5t-324.5 -129.5q-205 0 -327 129.5t-122 354.5zM494 1546l118 262h199l-164 -262h-153z" />
<glyph unicode="&#xdb;" horiz-adv-x="1165" d="M135 459v989h193v-985q0 -152 67.5 -229.5t186.5 -77.5q120 0 188 78t68 231v983h192v-989q0 -225 -121.5 -354.5t-324.5 -129.5q-205 0 -327 129.5t-122 354.5zM342 1546l145 262h191l143 -262h-157l-80 166h-4l-80 -166h-158z" />
<glyph unicode="&#xdc;" horiz-adv-x="1165" d="M135 459v989h193v-985q0 -152 67.5 -229.5t186.5 -77.5q120 0 188 78t68 231v983h192v-989q0 -225 -121.5 -354.5t-324.5 -129.5q-205 0 -327 129.5t-122 354.5zM367 1599v209h147v-209h-147zM649 1599v209h148v-209h-148z" />
<glyph unicode="&#xdd;" horiz-adv-x="960" d="M10 1448h213l195 -473q15 -37 30 -82t23 -71l8 -27h4q31 96 62 180l194 473h211l-372 -836v-612h-193v612zM393 1546l119 262h199l-164 -262h-154z" />
<glyph unicode="&#xde;" horiz-adv-x="989" d="M143 0v1448h193v-248h190q185 0 302.5 -125.5t117.5 -329.5t-118 -331t-302 -127h-190v-287h-193zM336 459h160q116 0 185 77t69 209q0 130 -70 206.5t-182 76.5h-162v-569z" />
<glyph unicode="&#xdf;" horiz-adv-x="972" d="M121 0v1085q0 95 31 171t82.5 122.5t114 70.5t130.5 24q141 0 233.5 -93.5t92.5 -240.5q0 -64 -22.5 -123t-49 -95t-49 -78.5t-22.5 -76.5q0 -40 27 -78t65 -73.5t76 -77t65 -104.5t27 -140q0 -139 -79 -223t-216 -84q-120 0 -199 59v172q32 -26 81 -44.5t89 -18.5 q64 0 100.5 36t36.5 101q0 41 -14.5 77t-37.5 63.5t-51 54t-56 54.5t-51 58t-37.5 70t-14.5 86q0 47 15.5 89.5t38 76t45 65.5t38 72t15.5 82q0 71 -36.5 118.5t-107.5 47.5q-74 0 -122 -57.5t-48 -176.5v-1071h-190z" />
<glyph unicode="&#xe0;" horiz-adv-x="862" d="M55 293q0 64 16.5 116t43 87.5t65.5 63t78.5 43t87 25t86.5 12.5t82 3h47v27q0 125 -43.5 177t-124.5 52q-54 0 -115.5 -21t-109.5 -53l-53 148q52 39 134.5 64.5t164.5 25.5q165 0 250.5 -104t85.5 -304v-655h-170v80l4 82h-4q-39 -75 -104 -126.5t-152 -51.5 q-112 0 -190.5 81t-78.5 228zM182 1450h197l121 -262h-156zM231 305q0 -71 37 -118.5t99 -47.5q47 0 85.5 27.5t61 70.5t35 92t12.5 97v78h-45q-285 0 -285 -199z" />
<glyph unicode="&#xe1;" horiz-adv-x="862" d="M55 293q0 64 16.5 116t43 87.5t65.5 63t78.5 43t87 25t86.5 12.5t82 3h47v27q0 125 -43.5 177t-124.5 52q-54 0 -115.5 -21t-109.5 -53l-53 148q52 39 134.5 64.5t164.5 25.5q165 0 250.5 -104t85.5 -304v-655h-170v80l4 82h-4q-39 -75 -104 -126.5t-152 -51.5 q-112 0 -190.5 81t-78.5 228zM231 305q0 -71 37 -118.5t99 -47.5q47 0 85.5 27.5t61 70.5t35 92t12.5 97v78h-45q-285 0 -285 -199zM336 1188l119 262h198l-164 -262h-153z" />
<glyph unicode="&#xe2;" horiz-adv-x="862" d="M55 293q0 64 16.5 116t43 87.5t65.5 63t78.5 43t87 25t86.5 12.5t82 3h47v27q0 125 -43.5 177t-124.5 52q-54 0 -115.5 -21t-109.5 -53l-53 148q52 39 134.5 64.5t164.5 25.5q165 0 250.5 -104t85.5 -304v-655h-170v80l4 82h-4q-39 -75 -104 -126.5t-152 -51.5 q-112 0 -190.5 81t-78.5 228zM184 1188l146 262h190l144 -262h-158l-80 166h-4l-80 -166h-158zM231 305q0 -71 37 -118.5t99 -47.5q47 0 85.5 27.5t61 70.5t35 92t12.5 97v78h-45q-285 0 -285 -199z" />
<glyph unicode="&#xe3;" horiz-adv-x="862" d="M55 293q0 64 16.5 116t43 87.5t65.5 63t78.5 43t87 25t86.5 12.5t82 3h47v27q0 125 -43.5 177t-124.5 52q-54 0 -115.5 -21t-109.5 -53l-53 148q52 39 134.5 64.5t164.5 25.5q165 0 250.5 -104t85.5 -304v-655h-170v80l4 82h-4q-39 -75 -104 -126.5t-152 -51.5 q-112 0 -190.5 81t-78.5 228zM139 1190q0 128 43 195t123 67q34 0 62 -14.5t46 -35t33.5 -40.5t32.5 -34.5t35 -14.5q20 0 33.5 21.5t18.5 49.5t5 62h131q0 -128 -42.5 -195t-122.5 -67q-34 0 -62 14.5t-46.5 35t-34 40.5t-33 34.5t-35.5 14.5q-29 0 -42.5 -39.5 t-13.5 -93.5h-131zM231 305q0 -71 37 -118.5t99 -47.5q47 0 85.5 27.5t61 70.5t35 92t12.5 97v78h-45q-285 0 -285 -199z" />
<glyph unicode="&#xe4;" horiz-adv-x="862" d="M55 293q0 64 16.5 116t43 87.5t65.5 63t78.5 43t87 25t86.5 12.5t82 3h47v27q0 125 -43.5 177t-124.5 52q-54 0 -115.5 -21t-109.5 -53l-53 148q52 39 134.5 64.5t164.5 25.5q165 0 250.5 -104t85.5 -304v-655h-170v80l4 82h-4q-39 -75 -104 -126.5t-152 -51.5 q-112 0 -190.5 81t-78.5 228zM207 1241v209h147v-209h-147zM231 305q0 -71 37 -118.5t99 -47.5q47 0 85.5 27.5t61 70.5t35 92t12.5 97v78h-45q-285 0 -285 -199zM489 1241v209h148v-209h-148z" />
<glyph unicode="&#xe5;" horiz-adv-x="862" d="M55 293q0 64 16.5 116t43 87.5t65.5 63t78.5 43t87 25t86.5 12.5t82 3h47v27q0 125 -43.5 177t-124.5 52q-54 0 -115.5 -21t-109.5 -53l-53 148q52 39 134.5 64.5t164.5 25.5q165 0 250.5 -104t85.5 -304v-655h-170v80l4 82h-4q-39 -75 -104 -126.5t-152 -51.5 q-112 0 -190.5 81t-78.5 228zM231 305q0 -71 37 -118.5t99 -47.5q47 0 85.5 27.5t61 70.5t35 92t12.5 97v78h-45q-285 0 -285 -199zM274 1317q0 69 44.5 111t105.5 42q60 0 103.5 -42t43.5 -111t-43.5 -111.5t-103.5 -42.5q-61 0 -105.5 42.5t-44.5 111.5zM371 1317 q0 -72 53 -72q25 0 38 20t13 52q0 72 -51 72q-26 0 -39.5 -19.5t-13.5 -52.5z" />
<glyph unicode="&#xe6;" horiz-adv-x="1386" d="M53 291q0 84 31.5 148t79.5 100.5t113 59.5t122 30.5t117 7.5h43v33q0 123 -43 175t-121 52q-54 0 -118 -19.5t-111 -50.5l-51 146q54 39 133 64.5t166 25.5q186 0 256 -164h4q105 164 282 164q93 0 163.5 -38t112.5 -104t62.5 -147.5t20.5 -175.5q0 -48 -6 -100h-561 q7 -178 79.5 -265.5t182.5 -87.5q131 0 241 99l49 -148q-55 -57 -138.5 -89t-172.5 -32q-238 0 -344 228h-6q-42 -106 -120.5 -167t-178.5 -61q-123 0 -205 84t-82 232zM231 307q0 -76 38 -126t100 -50q49 0 87.5 29.5t60.5 76t33 96.5t11 97v68h-39q-26 0 -46.5 -1 t-52.5 -5t-56 -11t-51 -21.5t-44.5 -34t-29 -50t-11.5 -68.5zM748 637h382q-6 270 -176 270q-86 0 -140 -72.5t-66 -197.5z" />
<glyph unicode="&#xe7;" horiz-adv-x="876" d="M70 516q0 156 54.5 279.5t161 195.5t249.5 72q169 0 274 -102l-70 -148q-82 82 -196 82q-130 0 -205.5 -104.5t-75.5 -270.5q0 -164 75 -270.5t206 -106.5q64 0 125.5 27t107.5 74l53 -152q-46 -48 -119 -79.5t-159 -35.5l-10 -79q51 -8 84.5 -47t33.5 -103 q0 -86 -50.5 -129t-121.5 -43q-40 0 -94 14v115q23 -14 68 -14q32 0 53 16t21 51q0 34 -22.5 52t-59.5 18l-31 -4l33 158q-178 23 -281.5 169t-103.5 365z" />
<glyph unicode="&#xe8;" horiz-adv-x="903" d="M72 528q0 239 108 387t295 148q74 0 134.5 -25.5t101 -69.5t68 -104.5t40 -128t12.5 -143.5q0 -24 -4 -98h-563q6 -173 78 -261t182 -88q68 0 132.5 26t111.5 73l51 -148q-55 -55 -140 -88t-175 -33q-138 0 -237 73t-147 196t-48 284zM231 1450h197l121 -262h-156z M262 633h385q-3 272 -176 272q-88 0 -141.5 -71.5t-67.5 -200.5z" />
<glyph unicode="&#xe9;" horiz-adv-x="903" d="M72 528q0 239 108 387t295 148q74 0 134.5 -25.5t101 -69.5t68 -104.5t40 -128t12.5 -143.5q0 -24 -4 -98h-563q6 -173 78 -261t182 -88q68 0 132.5 26t111.5 73l51 -148q-55 -55 -140 -88t-175 -33q-138 0 -237 73t-147 196t-48 284zM262 633h385q-3 272 -176 272 q-88 0 -141.5 -71.5t-67.5 -200.5zM385 1188l119 262h198l-163 -262h-154z" />
<glyph unicode="&#xea;" horiz-adv-x="903" d="M72 528q0 239 108 387t295 148q74 0 134.5 -25.5t101 -69.5t68 -104.5t40 -128t12.5 -143.5q0 -24 -4 -98h-563q6 -173 78 -261t182 -88q68 0 132.5 26t111.5 73l51 -148q-55 -55 -140 -88t-175 -33q-138 0 -237 73t-147 196t-48 284zM233 1188l146 262h190l144 -262 h-158l-80 166h-4l-80 -166h-158zM262 633h385q-3 272 -176 272q-88 0 -141.5 -71.5t-67.5 -200.5z" />
<glyph unicode="&#xeb;" horiz-adv-x="903" d="M72 528q0 239 108 387t295 148q74 0 134.5 -25.5t101 -69.5t68 -104.5t40 -128t12.5 -143.5q0 -24 -4 -98h-563q6 -173 78 -261t182 -88q68 0 132.5 26t111.5 73l51 -148q-55 -55 -140 -88t-175 -33q-138 0 -237 73t-147 196t-48 284zM258 1241v209h148v-209h-148z M262 633h385q-3 272 -176 272q-88 0 -141.5 -71.5t-67.5 -200.5zM541 1241v209h147v-209h-147z" />
<glyph unicode="&#xec;" horiz-adv-x="432" d="M-27 1450h197l121 -262h-156zM121 0v1038h190v-1038h-190z" />
<glyph unicode="&#xed;" horiz-adv-x="432" d="M121 0v1038h190v-1038h-190zM129 1188l119 262h198l-163 -262h-154z" />
<glyph unicode="&#xee;" horiz-adv-x="432" d="M-23 1188l146 262h190l144 -262h-158l-80 166h-4l-80 -166h-158zM121 0v1038h190v-1038h-190z" />
<glyph unicode="&#xef;" horiz-adv-x="432" d="M2 1241v209h148v-209h-148zM121 0v1038h190v-1038h-190zM285 1241v209h147v-209h-147z" />
<glyph unicode="&#xf0;" horiz-adv-x="935" d="M72 475q0 127 43 234.5t125 174t186 66.5q40 0 76 -9.5t58.5 -23t39.5 -27t24 -22.5l7 -10l6 4q-25 90 -67.5 155t-104.5 120l-309 -170l4 137l200 106q-84 67 -206 107l51 156q197 -55 336 -166l243 135l-2 -135l-151 -90q106 -110 167.5 -273.5t61.5 -353.5 q0 -121 -23.5 -228.5t-70 -195.5t-124.5 -139.5t-179 -51.5q-93 0 -169 43t-123.5 115t-73 160t-25.5 182zM264 469q0 -82 20 -154t66 -122t109 -50q53 0 95.5 36t66.5 92.5t36.5 119t12.5 123.5q0 131 -52.5 207t-142.5 76q-103 0 -157 -94t-54 -234z" />
<glyph unicode="&#xf1;" horiz-adv-x="985" d="M121 0v1038h184v-88q0 -16 -1.5 -32.5t-3.5 -24.5l-1 -8h4q15 31 37.5 59t57.5 56.5t87 45.5t113 17q134 0 203 -86.5t69 -251.5v-725h-188v688q0 42 -5.5 74t-19.5 61t-42.5 44.5t-69.5 15.5q-70 0 -125 -46.5t-82 -113.5t-27 -137v-586h-190zM229 1190q0 128 43 195 t123 67q34 0 62 -14.5t46 -35t33.5 -40.5t32.5 -34.5t35 -14.5q30 0 44 40t14 93h131q0 -128 -43 -195t-123 -67q-34 0 -62 14.5t-46.5 35t-34 40.5t-33 34.5t-35.5 14.5q-29 0 -42.5 -39.5t-13.5 -93.5h-131z" />
<glyph unicode="&#xf2;" horiz-adv-x="1017" d="M70 520q0 238 122 390.5t318 152.5t317 -153t121 -390q0 -156 -54 -279.5t-154 -194.5t-230 -71q-196 0 -318 153.5t-122 391.5zM262 520q0 -168 66 -272.5t182 -104.5q115 0 180.5 104.5t65.5 272.5q0 169 -65.5 272t-180.5 103q-116 0 -182 -103t-66 -272zM264 1450 h197l121 -262h-156z" />
<glyph unicode="&#xf3;" horiz-adv-x="1017" d="M70 520q0 238 122 390.5t318 152.5t317 -153t121 -390q0 -156 -54 -279.5t-154 -194.5t-230 -71q-196 0 -318 153.5t-122 391.5zM262 520q0 -168 66 -272.5t182 -104.5q115 0 180.5 104.5t65.5 272.5q0 169 -65.5 272t-180.5 103q-116 0 -182 -103t-66 -272zM420 1188 l119 262h198l-164 -262h-153z" />
<glyph unicode="&#xf4;" horiz-adv-x="1017" d="M70 520q0 238 122 390.5t318 152.5t317 -153t121 -390q0 -156 -54 -279.5t-154 -194.5t-230 -71q-196 0 -318 153.5t-122 391.5zM262 520q0 -168 66 -272.5t182 -104.5q115 0 180.5 104.5t65.5 272.5q0 169 -65.5 272t-180.5 103q-116 0 -182 -103t-66 -272zM268 1188 l146 262h190l144 -262h-158l-80 166h-4l-80 -166h-158z" />
<glyph unicode="&#xf5;" horiz-adv-x="1017" d="M70 520q0 238 122 390.5t318 152.5t317 -153t121 -390q0 -156 -54 -279.5t-154 -194.5t-230 -71q-196 0 -318 153.5t-122 391.5zM225 1190q0 128 43 195t123 67q34 0 62 -14.5t46 -35t33.5 -40.5t32.5 -34.5t35 -14.5q20 0 33.5 21.5t18.5 49.5t5 62h131 q0 -128 -42.5 -195t-122.5 -67q-34 0 -62 14.5t-46.5 35t-34 40.5t-33 34.5t-35.5 14.5q-29 0 -42.5 -39.5t-13.5 -93.5h-131zM262 520q0 -168 66 -272.5t182 -104.5q115 0 180.5 104.5t65.5 272.5q0 169 -65.5 272t-180.5 103q-116 0 -182 -103t-66 -272z" />
<glyph unicode="&#xf6;" horiz-adv-x="1017" d="M70 520q0 238 122 390.5t318 152.5t317 -153t121 -390q0 -156 -54 -279.5t-154 -194.5t-230 -71q-196 0 -318 153.5t-122 391.5zM262 520q0 -168 66 -272.5t182 -104.5q115 0 180.5 104.5t65.5 272.5q0 169 -65.5 272t-180.5 103q-116 0 -182 -103t-66 -272zM293 1241 v209h147v-209h-147zM575 1241v209h148v-209h-148z" />
<glyph unicode="&#xf7;" d="M86 502v162h815v-162h-815zM406 88v188h174v-188h-174zM406 891v188h174v-188h-174z" />
<glyph unicode="&#xf8;" horiz-adv-x="1017" d="M70 520q0 238 121.5 389.5t318.5 151.5q116 0 199 -51l55 104l102 -65l-63 -115q145 -151 145 -414q0 -156 -54 -279.5t-154 -194.5t-230 -71q-122 0 -203 52l-59 -111l-101 61l66 123q-143 149 -143 420zM260 520q0 -146 55 -239l312 577q-50 39 -117 39 q-116 0 -183 -104t-67 -273zM389 176q51 -33 121 -33q116 0 181 103.5t65 273.5q0 154 -51 240z" />
<glyph unicode="&#xf9;" horiz-adv-x="978" d="M113 313v725h190v-690q0 -41 5.5 -72.5t19.5 -60t42.5 -44t69.5 -15.5q65 0 119 45.5t81.5 112.5t27.5 137v587h188v-1038h-182v86l4 66h-4q-12 -23 -27 -44.5t-41 -46.5t-55.5 -43.5t-72.5 -30.5t-91 -12q-136 0 -205 86.5t-69 251.5zM240 1450h196l121 -262h-156z" />
<glyph unicode="&#xfa;" horiz-adv-x="978" d="M113 313v725h190v-690q0 -41 5.5 -72.5t19.5 -60t42.5 -44t69.5 -15.5q65 0 119 45.5t81.5 112.5t27.5 137v587h188v-1038h-182v86l4 66h-4q-12 -23 -27 -44.5t-41 -46.5t-55.5 -43.5t-72.5 -30.5t-91 -12q-136 0 -205 86.5t-69 251.5zM395 1188l119 262h199l-164 -262 h-154z" />
<glyph unicode="&#xfb;" horiz-adv-x="978" d="M113 313v725h190v-690q0 -41 5.5 -72.5t19.5 -60t42.5 -44t69.5 -15.5q65 0 119 45.5t81.5 112.5t27.5 137v587h188v-1038h-182v86l4 66h-4q-12 -23 -27 -44.5t-41 -46.5t-55.5 -43.5t-72.5 -30.5t-91 -12q-136 0 -205 86.5t-69 251.5zM244 1188l145 262h191l143 -262 h-158l-80 166h-4l-80 -166h-157z" />
<glyph unicode="&#xfc;" horiz-adv-x="978" d="M113 313v725h190v-690q0 -41 5.5 -72.5t19.5 -60t42.5 -44t69.5 -15.5q65 0 119 45.5t81.5 112.5t27.5 137v587h188v-1038h-182v86l4 66h-4q-12 -23 -27 -44.5t-41 -46.5t-55.5 -43.5t-72.5 -30.5t-91 -12q-136 0 -205 86.5t-69 251.5zM268 1241v209h148v-209h-148z M551 1241v209h147v-209h-147z" />
<glyph unicode="&#xfd;" horiz-adv-x="878" d="M23 1038h202l191 -673q6 -23 11.5 -55t8.5 -53l2 -21h6q11 75 23 124l176 678h199l-355 -1208q-37 -125 -115 -192.5t-171 -67.5q-44 0 -85.5 13t-61.5 27l-19 13l55 148q47 -37 98 -37q44 0 82 42.5t60 117.5l32 112zM352 1188l119 262h199l-164 -262h-154z" />
<glyph unicode="&#xfe;" horiz-adv-x="985" d="M121 -410v1858h190v-471l-6 -74h4q29 75 94.5 117.5t153.5 42.5q171 0 262.5 -147.5t91.5 -395.5q0 -250 -98 -397.5t-266 -147.5q-78 0 -142 37.5t-96 106.5h-4q6 -37 6 -86v-443h-190zM305 518q0 -76 9.5 -139t31.5 -119t63 -87.5t99 -31.5q100 0 155.5 98t55.5 277 q0 177 -51.5 277t-153.5 100q-100 0 -154.5 -92.5t-54.5 -282.5z" />
<glyph unicode="&#xff;" horiz-adv-x="878" d="M23 1038h202l191 -673q6 -23 11.5 -55t8.5 -53l2 -21h6q11 75 23 124l176 678h199l-355 -1208q-37 -125 -115 -192.5t-171 -67.5q-44 0 -85.5 13t-61.5 27l-19 13l55 148q47 -37 98 -37q44 0 82 42.5t60 117.5l32 112zM225 1241v209h148v-209h-148zM508 1241v209h147 v-209h-147z" />
<glyph unicode="&#x152;" horiz-adv-x="1517" d="M80 735q0 218 71 385.5t202 260t302 92.5q86 0 154 -25h623v-174h-474v-457h383v-174h-383v-469h498v-174h-647q-71 -25 -154 -25q-259 0 -417 209t-158 551zM279 735q0 -267 103 -425t273 -158q64 0 111 16v1112q-55 16 -111 16q-170 0 -273 -151.5t-103 -409.5z" />
<glyph unicode="&#x153;" horiz-adv-x="1593" d="M70 520q0 156 54.5 279t155.5 193.5t232 70.5q109 0 194.5 -57t139.5 -166h4q45 108 128.5 165.5t188.5 57.5q90 0 159.5 -38.5t110.5 -104.5t62 -149t21 -179l-4 -98h-564q6 -175 82.5 -262t190.5 -87q138 0 231 99l51 -148q-50 -57 -134 -89t-173 -32 q-115 0 -206.5 58.5t-141.5 171.5h-4q-52 -112 -139 -171t-197 -59q-131 0 -232.5 71t-155.5 194.5t-54 279.5zM262 522q0 -168 66 -273.5t182 -105.5q114 0 180 105t66 272q0 168 -65.5 271.5t-180.5 103.5q-116 0 -182 -103t-66 -270zM952 633h385q-6 274 -176 274 q-89 0 -143 -72t-66 -202z" />
<glyph unicode="&#x178;" horiz-adv-x="960" d="M10 1448h213l195 -473q15 -37 30 -82t23 -71l8 -27h4q31 96 62 180l194 473h211l-372 -836v-612h-193v612zM266 1599v209h148v-209h-148zM549 1599v209h147v-209h-147z" />
<glyph unicode="&#x2c6;" horiz-adv-x="780" d="M150 1546l145 262h190l144 -262h-158l-80 166h-4l-80 -166h-157z" />
<glyph unicode="&#x2dc;" horiz-adv-x="780" d="M109 1548q0 128 42.5 195t122.5 67q34 0 62 -14.5t46 -35t33.5 -40.5t32.5 -34.5t35 -14.5q30 0 44 40t14 93h131q0 -128 -43 -195t-123 -67q-34 0 -62 14.5t-46.5 35t-34 40.5t-33 34.5t-35.5 14.5q-29 0 -42 -39t-13 -94h-131z" />
<glyph unicode="&#x2000;" horiz-adv-x="914" />
<glyph unicode="&#x2001;" horiz-adv-x="1829" />
<glyph unicode="&#x2002;" horiz-adv-x="914" />
<glyph unicode="&#x2003;" horiz-adv-x="1829" />
<glyph unicode="&#x2004;" horiz-adv-x="609" />
<glyph unicode="&#x2005;" horiz-adv-x="457" />
<glyph unicode="&#x2006;" horiz-adv-x="304" />
<glyph unicode="&#x2007;" horiz-adv-x="304" />
<glyph unicode="&#x2008;" horiz-adv-x="228" />
<glyph unicode="&#x2009;" horiz-adv-x="365" />
<glyph unicode="&#x200a;" horiz-adv-x="101" />
<glyph unicode="&#x2010;" horiz-adv-x="696" d="M113 494v180h471v-180h-471z" />
<glyph unicode="&#x2011;" horiz-adv-x="696" d="M113 494v180h471v-180h-471z" />
<glyph unicode="&#x2012;" horiz-adv-x="696" d="M113 494v180h471v-180h-471z" />
<glyph unicode="&#x2013;" horiz-adv-x="1093" d="M115 502v162h864v-162h-864z" />
<glyph unicode="&#x2014;" horiz-adv-x="1404" d="M113 502v162h1179v-162h-1179z" />
<glyph unicode="&#x2018;" horiz-adv-x="425" d="M94 1067l115 401h133l-72 -401h-176z" />
<glyph unicode="&#x2019;" horiz-adv-x="415" d="M100 1069l74 401h174l-112 -401h-136z" />
<glyph unicode="&#x201a;" horiz-adv-x="438" d="M76 -184l74 403h172l-115 -403h-131z" />
<glyph unicode="&#x201c;" horiz-adv-x="677" d="M94 1067l115 401h135l-74 -401h-176zM344 1067l115 401h135l-74 -401h-176z" />
<glyph unicode="&#x201d;" horiz-adv-x="667" d="M100 1069l74 401h176l-112 -401h-138zM350 1069l74 401h176l-115 -401h-135z" />
<glyph unicode="&#x201e;" horiz-adv-x="684" d="M76 -184l74 403h172l-115 -403h-131zM319 -184l74 403h172l-112 -403h-134z" />
<glyph unicode="&#x2022;" horiz-adv-x="806" d="M143 596q0 135 72 226t188 91t187.5 -91t71.5 -226t-71.5 -226t-187.5 -91t-188 91t-72 226z" />
<glyph unicode="&#x2026;" horiz-adv-x="1292" d="M113 0v213h184v-213h-184zM553 0v213h186v-213h-186zM995 0v213h185v-213h-185z" />
<glyph unicode="&#x202f;" horiz-adv-x="365" />
<glyph unicode="&#x2039;" horiz-adv-x="600" d="M76 578l258 421h182l-260 -421l260 -420h-182z" />
<glyph unicode="&#x203a;" horiz-adv-x="600" d="M84 158l258 420l-258 421h182l260 -421l-260 -420h-182z" />
<glyph unicode="&#x205f;" horiz-adv-x="457" />
<glyph unicode="&#x20ac;" horiz-adv-x="919" d="M37 532v115h98q-7 98 4 182h-102v115h117q49 237 192.5 383t353.5 146q67 0 156 -21l-37 -186q-63 20 -129 20q-120 0 -212 -93.5t-126 -248.5h420l-20 -115h-412q-7 -107 2 -182h381l-18 -115h-343q13 -57 31.5 -107t48.5 -99t66.5 -84t88.5 -56.5t112 -21.5 q74 0 129 22l34 -184q-90 -27 -178 -27q-208 0 -354 154t-190 403h-113z" />
<glyph unicode="&#x2122;" horiz-adv-x="1607" d="M109 1311v137h616v-137h-236v-766h-145v766h-235zM762 545l55 903h154l133 -457l18 -96h6q9 59 19 96l135 457h152l53 -903h-144l-28 534l6 103h-8l-131 -471h-113l-131 471h-6q4 -72 4 -103l-29 -534h-145z" />
<glyph unicode="&#x25fc;" horiz-adv-x="1034" d="M0 0v1034h1034v-1034h-1034z" />
</font>
</defs>
</svg>
