<?xml version="1.0" encoding="utf-8"?>
<!-- Generator: Adobe Illustrator 17.1.0, SVG Export Plug-In . SVG Version: 6.00 Build 0)  -->
<!DOCTYPE svg PUBLIC "-//W3C//DTD SVG 1.1//EN" "http://www.w3.org/Graphics/SVG/1.1/DTD/svg11.dtd">
<svg version="1.1" id="Layer_1" xmlns="http://www.w3.org/2000/svg" xmlns:xlink="http://www.w3.org/1999/xlink" x="0px" y="0px"
	 viewBox="0 0 221.5 221.5" enable-background="new 0 0 221.5 221.5" xml:space="preserve">
<g>
	<g>
		
			<line fill="none" stroke="#163F2A" stroke-width="2.5709" stroke-miterlimit="10" x1="63.174" y1="91.151" x2="156.924" y2="91.151"/>
		<path fill="#FFFFFF" stroke="#163F2A" stroke-width="2.5709" stroke-miterlimit="10" d="M162.231,99.438h-6.201
			c-1.034,0-1.871-0.838-1.871-1.871V84.736c0-1.034,0.838-1.871,1.871-1.871h6.201c1.034,0,1.871,0.838,1.871,1.871v12.831
			C164.102,98.6,163.264,99.438,162.231,99.438z"/>
		<path fill="#FFFFFF" stroke="#163F2A" stroke-width="2.5709" stroke-miterlimit="10" d="M63.924,99.438h-5.912
			c-1.113,0-2.016-0.903-2.016-2.016V84.881c0-1.113,0.903-2.016,2.016-2.016h5.912c1.113,0,2.016,0.903,2.016,2.016v12.541
			C65.94,98.535,65.037,99.438,63.924,99.438z"/>
	</g>
	<g>
		<path fill="#FFFFFF" stroke="#163F2A" stroke-width="2.5709" stroke-miterlimit="10" d="M144.162,165.43h-6.324
			c-1.129,0-2.045-0.915-2.045-2.045V150.12c0-1.129,0.915-2.045,2.045-2.045h6.324c1.129,0,2.045,0.915,2.045,2.045v13.265
			C146.206,164.514,145.291,165.43,144.162,165.43z"/>
		<path fill="#FFFFFF" stroke="#163F2A" stroke-width="2.5709" stroke-miterlimit="10" d="M82.26,165.43h-6.324
			c-1.129,0-2.045-0.915-2.045-2.045V150.12c0-1.129,0.915-2.045,2.045-2.045h6.324c1.129,0,2.045,0.915,2.045,2.045v13.265
			C84.305,164.514,83.389,165.43,82.26,165.43z"/>
	</g>
	<path fill="#FFFFFF" stroke="#163F2A" stroke-width="2.5709" stroke-miterlimit="10" d="M150.175,148.456
		c0,3.535-2.317,6.401-5.174,6.401H75.097c-2.858,0-5.174-2.866-5.174-6.401V61.972c0-3.535,2.317-6.401,5.174-6.401h69.904
		c2.858,0,5.174,2.866,5.174,6.401V148.456z"/>
	<path fill="#FFFFFF" stroke="#163F2A" stroke-width="2.5709" stroke-miterlimit="10" d="M138.65,74.765h-15.079H96.527H81.448
		c-1.679,0-3.04,1.367-3.04,3.052v8.016v13.505v8.016c0,1.686,1.361,3.052,3.04,3.052h15.079h27.044h15.079
		c1.679,0,3.04-1.367,3.04-3.052v-8.016V85.833v-8.016C141.69,76.132,140.329,74.765,138.65,74.765z"/>
	<path fill="#FFFFFF" stroke="#163F2A" stroke-width="2.5709" stroke-miterlimit="10" d="M116.369,67.869h-12.639
		c-1.029,0-1.863-0.834-1.863-1.863v-1.655c0-1.029,0.834-1.863,1.863-1.863h12.639c1.029,0,1.863,0.834,1.863,1.863v1.655
		C118.231,67.035,117.397,67.869,116.369,67.869z"/>
	<g>
		<circle fill="#FFFFFF" stroke="#163F2A" stroke-width="2.5709" stroke-miterlimit="10" cx="82.253" cy="135.567" r="5.071"/>
		<circle fill="#FFFFFF" stroke="#163F2A" stroke-width="2.5709" stroke-miterlimit="10" cx="137.844" cy="135.29" r="5.071"/>
	</g>
	<g>
		
			<line fill="none" stroke="#163F2A" stroke-width="2.5709" stroke-miterlimit="10" x1="94.742" y1="131.46" x2="125.356" y2="131.46"/>
		
			<line fill="none" stroke="#163F2A" stroke-width="2.5709" stroke-miterlimit="10" x1="94.742" y1="135.567" x2="125.356" y2="135.567"/>
		
			<line fill="none" stroke="#163F2A" stroke-width="2.5709" stroke-miterlimit="10" x1="94.742" y1="139.674" x2="125.356" y2="139.674"/>
	</g>
</g>
</svg>
