<?xml version="1.0" encoding="utf-8"?>
<!-- Generator: Adobe Illustrator 17.1.0, SVG Export Plug-In . SVG Version: 6.00 Build 0)  -->
<!DOCTYPE svg PUBLIC "-//W3C//DTD SVG 1.1//EN" "http://www.w3.org/Graphics/SVG/1.1/DTD/svg11.dtd">
<svg version="1.1" id="Layer_1" xmlns="http://www.w3.org/2000/svg" xmlns:xlink="http://www.w3.org/1999/xlink" x="0px" y="0px"
	 viewBox="0 0 221.5 188" enable-background="new 0 0 221.5 188" xml:space="preserve">
<g>
	<defs>
		<rect id="SVGID_9_" x="43.799" y="93.068" width="130.415" height="96.572"/>
	</defs>
	<clipPath id="SVGID_38_">
		<use xlink:href="#SVGID_9_"  overflow="visible"/>
	</clipPath>
	<path clip-path="url(#SVGID_38_)" fill="#FFFFFF" d="M170.815,146.307h-7.949c-1.325,0-2.399-1.029-2.399-2.299v-15.761
		c0-1.27,1.074-2.299,2.399-2.299h7.949c1.325,0,2.399,1.029,2.399,2.299v15.761C173.214,145.278,172.14,146.307,170.815,146.307"/>
	<path clip-path="url(#SVGID_38_)" fill="none" stroke="#153F2A" stroke-width="2" stroke-miterlimit="10" d="M170.815,146.307
		h-7.949c-1.325,0-2.399-1.029-2.399-2.299v-15.761c0-1.27,1.074-2.299,2.399-2.299h7.949c1.325,0,2.399,1.029,2.399,2.299v15.761
		C173.214,145.278,172.14,146.307,170.815,146.307z"/>
	<path clip-path="url(#SVGID_38_)" fill="#FFFFFF" d="M54.961,146.307h-7.578c-1.428,0-2.585-1.109-2.585-2.477v-15.406
		c0-1.367,1.157-2.476,2.585-2.476h7.578c1.427,0,2.584,1.109,2.584,2.476v15.406C57.545,145.198,56.388,146.307,54.961,146.307"/>
	<path clip-path="url(#SVGID_38_)" fill="none" stroke="#153F2A" stroke-width="2" stroke-miterlimit="10" d="M54.961,146.307
		h-7.578c-1.428,0-2.585-1.109-2.585-2.477v-15.406c0-1.367,1.157-2.476,2.585-2.476h7.578c1.427,0,2.584,1.109,2.584,2.476v15.406
		C57.545,145.198,56.388,146.307,54.961,146.307z"/>
	<path clip-path="url(#SVGID_38_)" fill="#FFFFFF" d="M61.209,188.639v-87.013c0-4.174,2.759-7.557,6.163-7.557h83.268
		c3.404,0,6.163,3.383,6.163,7.557v86.889L61.209,188.639z"/>
	<path clip-path="url(#SVGID_38_)" fill="none" stroke="#153F2A" stroke-width="2" stroke-miterlimit="10" d="M61.209,188.639
		v-87.013c0-4.174,2.759-7.557,6.163-7.557h83.268c3.404,0,6.163,3.383,6.163,7.557v86.889L61.209,188.639z"/>
	<path clip-path="url(#SVGID_38_)" fill="#FFFFFF" d="M143.173,116.487h-18.014H92.853H74.839c-2.006,0-3.632,1.635-3.632,3.651
		v9.588v16.153v9.587c0,2.017,1.626,3.651,3.632,3.651h18.014h32.306h18.014c2.006,0,3.631-1.634,3.631-3.651v-9.587v-16.153v-9.588
		C146.804,118.122,145.179,116.487,143.173,116.487"/>
	<path clip-path="url(#SVGID_38_)" fill="none" stroke="#153F2A" stroke-width="2" stroke-miterlimit="10" d="M143.173,116.487
		h-18.014H92.853H74.839c-2.006,0-3.632,1.635-3.632,3.651v9.588v16.153v9.587c0,2.017,1.626,3.651,3.632,3.651h18.014h32.306
		h18.014c2.006,0,3.631-1.634,3.631-3.651v-9.587v-16.153v-9.588C146.804,118.122,145.179,116.487,143.173,116.487z"/>
	<path clip-path="url(#SVGID_38_)" fill="#FFFFFF" d="M116.851,109.436h-15.689c-1.277,0-2.312-1.129-2.312-2.522v-2.242
		c0-1.393,1.035-2.523,2.312-2.523h15.689c1.277,0,2.312,1.13,2.312,2.523v2.242C119.163,108.307,118.128,109.436,116.851,109.436"
		/>
	<path clip-path="url(#SVGID_38_)" fill="none" stroke="#153F2A" stroke-width="2" stroke-miterlimit="10" d="M116.851,109.436
		h-15.689c-1.277,0-2.312-1.129-2.312-2.522v-2.242c0-1.393,1.035-2.523,2.312-2.523h15.689c1.277,0,2.312,1.13,2.312,2.523v2.242
		C119.163,108.307,118.128,109.436,116.851,109.436z"/>
	<path clip-path="url(#SVGID_38_)" fill="#FFFFFF" d="M82.744,187.857c-0.188-3.676-3.008-6.603-6.49-6.603
		c-3.482,0-6.301,2.927-6.49,6.603H82.744z"/>
	<path clip-path="url(#SVGID_38_)" fill="none" stroke="#153F2A" stroke-width="2" stroke-miterlimit="10" d="M82.744,187.857
		c-0.188-3.676-3.008-6.603-6.49-6.603c-3.482,0-6.301,2.927-6.49,6.603H82.744z"/>
	<path clip-path="url(#SVGID_38_)" fill="#FFFFFF" d="M148.249,187.857c-0.188-3.676-3.008-6.603-6.49-6.603
		c-3.482,0-6.302,2.927-6.49,6.603H148.249z"/>
	<path clip-path="url(#SVGID_38_)" fill="none" stroke="#153F2A" stroke-width="2" stroke-miterlimit="10" d="M148.249,187.857
		c-0.188-3.676-3.008-6.603-6.49-6.603c-3.482,0-6.302,2.927-6.49,6.603H148.249z"/>
	<path clip-path="url(#SVGID_38_)" fill="#153F2A" d="M94.722,153.648H77.936c-0.929,0-1.682-0.746-1.682-1.667v-5.421
		c0-0.92,0.753-1.667,1.682-1.667h16.786c0.929,0,1.682,0.747,1.682,1.667v5.421C96.404,152.902,95.651,153.648,94.722,153.648"/>
	<path clip-path="url(#SVGID_38_)" fill="#153F2A" d="M94.722,142.18H77.936c-0.929,0-1.682-0.746-1.682-1.667v-5.421
		c0-0.921,0.753-1.667,1.682-1.667h16.786c0.929,0,1.682,0.746,1.682,1.667v5.421C96.404,141.434,95.651,142.18,94.722,142.18"/>
</g>
</svg>
