<?xml version="1.0" encoding="utf-8"?>
<!-- Generator: Adobe Illustrator 17.1.0, SVG Export Plug-In . SVG Version: 6.00 Build 0)  -->
<!DOCTYPE svg PUBLIC "-//W3C//DTD SVG 1.1//EN" "http://www.w3.org/Graphics/SVG/1.1/DTD/svg11.dtd">
<svg version="1.1" id="Layer_1" xmlns="http://www.w3.org/2000/svg" xmlns:xlink="http://www.w3.org/1999/xlink" x="0px" y="0px"
	 viewBox="0 0 221.5 189.5" enable-background="new 0 0 221.5 189.5" xml:space="preserve">
<g>
	<defs>
		<rect id="SVGID_12_" x="33.076" y="66.958" width="156.875" height="115.95"/>
	</defs>
	<clipPath id="SVGID_38_">
		<use xlink:href="#SVGID_12_"  overflow="visible"/>
	</clipPath>
	<path clip-path="url(#SVGID_38_)" fill="#FFFFFF" d="M61.968,94.28c0,4.964-4.024,8.987-8.987,8.987
		c-4.964,0-8.988-4.023-8.988-8.987c0-4.964,4.024-8.987,8.988-8.987C57.944,85.293,61.968,89.316,61.968,94.28"/>
	
		<circle clip-path="url(#SVGID_38_)" fill="none" stroke="#153F2A" stroke-width="2" stroke-miterlimit="10" cx="52.98" cy="94.28" r="8.988"/>
	<path clip-path="url(#SVGID_38_)" fill="#FFFFFF" d="M34.076,116.019v26.49c0,0.739,0.599,1.339,1.339,1.339h3.64
		c0.739,0,1.339-0.6,1.339-1.339v-23.488c0-0.739,0.599-1.339,1.339-1.339h0.027c0.739,0,1.339,0.6,1.339,1.339v61.548
		c0,0.74,0.599,1.339,1.339,1.339h4.073c0.739,0,1.339-0.599,1.339-1.339V155.91c0-0.74,0.599-1.339,1.339-1.339h3.583
		c0.74,0,1.339,0.599,1.339,1.339v24.659c0,0.74,0.6,1.339,1.339,1.339h4.073c0.74,0,1.339-0.599,1.339-1.339v-61.548
		c0-0.739,0.6-1.339,1.339-1.339h0.027c0.74,0,1.339,0.6,1.339,1.339v23.488c0,0.739,0.6,1.339,1.339,1.339h3.64
		c0.74,0,1.339-0.6,1.339-1.339v-26.49c0-3.972-3.22-7.193-7.193-7.193H41.269C37.296,108.826,34.076,112.047,34.076,116.019"/>
	<path clip-path="url(#SVGID_38_)" fill="none" stroke="#153F2A" stroke-width="2" stroke-miterlimit="10" d="M34.076,116.019v26.49
		c0,0.739,0.599,1.339,1.339,1.339h3.64c0.739,0,1.339-0.6,1.339-1.339v-23.488c0-0.739,0.599-1.339,1.339-1.339h0.027
		c0.739,0,1.339,0.6,1.339,1.339v61.548c0,0.74,0.599,1.339,1.339,1.339h4.073c0.739,0,1.339-0.599,1.339-1.339V155.91
		c0-0.74,0.599-1.339,1.339-1.339h3.583c0.74,0,1.339,0.599,1.339,1.339v24.659c0,0.74,0.6,1.339,1.339,1.339h4.073
		c0.74,0,1.339-0.599,1.339-1.339v-61.548c0-0.739,0.6-1.339,1.339-1.339h0.027c0.74,0,1.339,0.6,1.339,1.339v23.488
		c0,0.739,0.6,1.339,1.339,1.339h3.64c0.74,0,1.339-0.6,1.339-1.339v-26.49c0-3.972-3.22-7.193-7.193-7.193H41.269
		C37.296,108.826,34.076,112.047,34.076,116.019z"/>
	<path clip-path="url(#SVGID_38_)" fill="#FFFFFF" d="M79.098,94.076c0,4.964-4.024,8.987-8.987,8.987
		c-4.964,0-8.988-4.023-8.988-8.987c0-4.964,4.024-8.987,8.988-8.987C75.074,85.089,79.098,89.112,79.098,94.076"/>
	
		<circle clip-path="url(#SVGID_38_)" fill="none" stroke="#153F2A" stroke-width="2" stroke-miterlimit="10" cx="70.111" cy="94.076" r="8.988"/>
	<path clip-path="url(#SVGID_38_)" fill="#FFFFFF" d="M51.206,115.815v26.49c0,0.739,0.6,1.339,1.339,1.339h3.64
		c0.739,0,1.339-0.6,1.339-1.339v-23.488c0-0.739,0.599-1.339,1.339-1.339h0.027c0.739,0,1.339,0.6,1.339,1.339v61.548
		c0,0.74,0.599,1.339,1.339,1.339h4.073c0.739,0,1.339-0.599,1.339-1.339v-24.659c0-0.74,0.599-1.339,1.339-1.339h3.583
		c0.74,0,1.339,0.599,1.339,1.339v24.659c0,0.74,0.6,1.339,1.339,1.339h4.073c0.74,0,1.339-0.599,1.339-1.339v-61.548
		c0-0.739,0.6-1.339,1.339-1.339h0.027c0.74,0,1.339,0.6,1.339,1.339v23.488c0,0.739,0.6,1.339,1.339,1.339h3.64
		c0.74,0,1.339-0.6,1.339-1.339v-26.49c0-3.972-3.22-7.193-7.193-7.193H58.399C54.426,108.622,51.206,111.843,51.206,115.815"/>
	<path clip-path="url(#SVGID_38_)" fill="none" stroke="#153F2A" stroke-width="2" stroke-miterlimit="10" d="M51.206,115.815v26.49
		c0,0.739,0.6,1.339,1.339,1.339h3.64c0.739,0,1.339-0.6,1.339-1.339v-23.488c0-0.739,0.599-1.339,1.339-1.339h0.027
		c0.739,0,1.339,0.6,1.339,1.339v61.548c0,0.74,0.599,1.339,1.339,1.339h4.073c0.739,0,1.339-0.599,1.339-1.339v-24.659
		c0-0.74,0.599-1.339,1.339-1.339h3.583c0.74,0,1.339,0.599,1.339,1.339v24.659c0,0.74,0.6,1.339,1.339,1.339h4.073
		c0.74,0,1.339-0.599,1.339-1.339v-61.548c0-0.739,0.6-1.339,1.339-1.339h0.027c0.74,0,1.339,0.6,1.339,1.339v23.488
		c0,0.739,0.6,1.339,1.339,1.339h3.64c0.74,0,1.339-0.6,1.339-1.339v-26.49c0-3.972-3.22-7.193-7.193-7.193H58.399
		C54.426,108.622,51.206,111.843,51.206,115.815z"/>
	<path clip-path="url(#SVGID_38_)" fill="#FFFFFF" d="M96.903,94.299c0,4.964-4.024,8.987-8.987,8.987
		c-4.964,0-8.988-4.023-8.988-8.987c0-4.964,4.024-8.987,8.988-8.987C92.879,85.312,96.903,89.335,96.903,94.299"/>
	
		<circle clip-path="url(#SVGID_38_)" fill="none" stroke="#153F2A" stroke-width="2" stroke-miterlimit="10" cx="87.916" cy="94.299" r="8.988"/>
	<path clip-path="url(#SVGID_38_)" fill="#FFFFFF" d="M110.41,92.544l-0.779-0.509c-0.934-0.61-2.185-0.347-2.795,0.587
		c0,0-11.749,16.204-12.102,16.204H79.562c-0.528,0-2.406,0-2.406,0c-0.088,0.007-0.18,0.021-0.273,0.042
		c-0.997,0.22-1.78,0.996-2.144,1.95l-5.208,13.611c-0.13,0.339-0.197,0.699-0.197,1.063v13.569c0,1.389,1.127,2.516,2.516,2.516
		h0.051c1.39,0,2.516-1.127,2.516-2.516v-11.016c0.027-0.143,0.053-0.283,0.079-0.426l2.158-5.639
		c0.151-0.397,0.739-0.288,0.739,0.136l-0.155,58.255c0,0.848,0.688,1.537,1.537,1.537h2.637c1.295,0,2.345-1.051,2.345-2.346
		v-22.861c0-1.205,0.977-2.182,2.182-2.182h2.291c1.205,0,2.181,0.977,2.181,2.182v22.861c0,1.295,1.051,2.346,2.346,2.346h2.637
		c0.848,0,1.537-0.689,1.537-1.537l-0.028-61.614c0.066-0.222,0.128-0.43,0.194-0.652l14.135-21.647
		C112.086,95.15,111.718,93.398,110.41,92.544"/>
	<path clip-path="url(#SVGID_38_)" fill="none" stroke="#153F2A" stroke-width="2" stroke-miterlimit="10" d="M110.41,92.544
		l-0.779-0.509c-0.934-0.61-2.185-0.347-2.795,0.587c0,0-11.749,16.204-12.102,16.204H79.562c-0.528,0-2.406,0-2.406,0
		c-0.088,0.007-0.18,0.021-0.273,0.042c-0.997,0.22-1.78,0.996-2.144,1.95l-5.208,13.611c-0.13,0.339-0.197,0.699-0.197,1.063
		v13.569c0,1.389,1.127,2.516,2.516,2.516h0.051c1.39,0,2.516-1.127,2.516-2.516v-11.016c0.027-0.143,0.053-0.283,0.079-0.426
		l2.158-5.639c0.151-0.397,0.739-0.288,0.739,0.136l-0.155,58.255c0,0.848,0.688,1.537,1.537,1.537h2.637
		c1.295,0,2.345-1.051,2.345-2.346v-22.861c0-1.205,0.977-2.182,2.182-2.182h2.291c1.205,0,2.181,0.977,2.181,2.182v22.861
		c0,1.295,1.051,2.346,2.346,2.346h2.637c0.848,0,1.537-0.689,1.537-1.537l-0.028-61.614c0.066-0.222,0.128-0.43,0.194-0.652
		l14.135-21.647C112.086,95.15,111.718,93.398,110.41,92.544z"/>
</g>
<line fill="none" stroke="#153F2A" stroke-width="2" stroke-miterlimit="10" x1="124.921" y1="90.549" x2="184.567" y2="90.549"/>
<g>
	<defs>
		<rect id="SVGID_10_" x="33.076" y="67.959" width="156.875" height="115.95"/>
	</defs>
	<clipPath id="SVGID_39_">
		<use xlink:href="#SVGID_10_"  overflow="visible"/>
	</clipPath>
	<path clip-path="url(#SVGID_39_)" fill="#FFFFFF" d="M187.829,96.596h-3.718c-0.62,0-1.122-0.517-1.122-1.154v-7.91
		c0-0.638,0.502-1.154,1.122-1.154h3.718c0.62,0,1.122,0.516,1.122,1.154v7.91C188.951,96.079,188.449,96.596,187.829,96.596"/>
	<path clip-path="url(#SVGID_39_)" fill="none" stroke="#153F2A" stroke-width="2" stroke-miterlimit="10" d="M187.829,96.596
		h-3.718c-0.62,0-1.122-0.517-1.122-1.154v-7.91c0-0.638,0.502-1.154,1.122-1.154h3.718c0.62,0,1.122,0.516,1.122,1.154v7.91
		C188.951,96.079,188.449,96.596,187.829,96.596z"/>
	<path clip-path="url(#SVGID_39_)" fill="#FFFFFF" d="M125.29,96.596h-3.545c-0.667,0-1.209-0.557-1.209-1.243v-7.732
		c0-0.686,0.542-1.243,1.209-1.243h3.545c0.668,0,1.209,0.557,1.209,1.243v7.732C126.499,96.039,125.958,96.596,125.29,96.596"/>
	<path clip-path="url(#SVGID_39_)" fill="none" stroke="#153F2A" stroke-width="2" stroke-miterlimit="10" d="M125.29,96.596h-3.545
		c-0.667,0-1.209-0.557-1.209-1.243v-7.732c0-0.686,0.542-1.243,1.209-1.243h3.545c0.668,0,1.209,0.557,1.209,1.243v7.732
		C126.499,96.039,125.958,96.596,125.29,96.596z"/>
	<path clip-path="url(#SVGID_39_)" fill="#FFFFFF" d="M176.336,138.712h-3.802c-0.679,0-1.229-0.565-1.229-1.263v-8.191
		c0-0.697,0.55-1.263,1.229-1.263h3.802c0.679,0,1.229,0.566,1.229,1.263v8.191C177.565,138.147,177.015,138.712,176.336,138.712"/>
	<path clip-path="url(#SVGID_39_)" fill="none" stroke="#153F2A" stroke-width="2" stroke-miterlimit="10" d="M176.336,138.712
		h-3.802c-0.679,0-1.229-0.565-1.229-1.263v-8.191c0-0.697,0.55-1.263,1.229-1.263h3.802c0.679,0,1.229,0.566,1.229,1.263v8.191
		C177.565,138.147,177.015,138.712,176.336,138.712z"/>
	<path clip-path="url(#SVGID_39_)" fill="#FFFFFF" d="M136.953,138.712h-3.802c-0.679,0-1.229-0.565-1.229-1.263v-8.191
		c0-0.697,0.55-1.263,1.229-1.263h3.802c0.679,0,1.229,0.566,1.229,1.263v8.191C138.182,138.147,137.632,138.712,136.953,138.712"/>
	<path clip-path="url(#SVGID_39_)" fill="none" stroke="#153F2A" stroke-width="2" stroke-miterlimit="10" d="M136.953,138.712
		h-3.802c-0.679,0-1.229-0.565-1.229-1.263v-8.191c0-0.697,0.55-1.263,1.229-1.263h3.802c0.679,0,1.229,0.566,1.229,1.263v8.191
		C138.182,138.147,137.632,138.712,136.953,138.712z"/>
	<path clip-path="url(#SVGID_39_)" fill="#FFFFFF" d="M180.091,127.902c0,2.243-1.463,4.062-3.268,4.062h-44.158
		c-1.805,0-3.268-1.819-3.268-4.062V73.021c0-2.244,1.463-4.063,3.268-4.063h44.158c1.805,0,3.268,1.819,3.268,4.063V127.902z"/>
	<path clip-path="url(#SVGID_39_)" fill="none" stroke="#153F2A" stroke-width="2" stroke-miterlimit="10" d="M180.091,127.902
		c0,2.243-1.463,4.062-3.268,4.062h-44.158c-1.805,0-3.268-1.819-3.268-4.062V73.021c0-2.244,1.463-4.063,3.268-4.063h44.158
		c1.805,0,3.268,1.819,3.268,4.063V127.902z"/>
	<path clip-path="url(#SVGID_39_)" fill="#FFFFFF" d="M172.776,81.209h-9.507h-17.05h-9.507c-1.058,0-1.917,0.858-1.917,1.917v5.035
		v8.483v5.035c0,1.059,0.859,1.917,1.917,1.917h9.507h17.05h9.507c1.058,0,1.916-0.858,1.916-1.917v-5.035v-8.483v-5.035
		C174.692,82.067,173.834,81.209,172.776,81.209"/>
	<path clip-path="url(#SVGID_39_)" fill="none" stroke="#153F2A" stroke-width="2" stroke-miterlimit="10" d="M172.776,81.209
		h-9.507h-17.05h-9.507c-1.058,0-1.917,0.858-1.917,1.917v5.035v8.483v5.035c0,1.059,0.859,1.917,1.917,1.917h9.507h17.05h9.507
		c1.058,0,1.916-0.858,1.916-1.917v-5.035v-8.483v-5.035C174.692,82.067,173.834,81.209,172.776,81.209z"/>
	<path clip-path="url(#SVGID_39_)" fill="#FFFFFF" d="M158.624,76.449h-7.76c-0.632,0-1.144-0.477-1.144-1.065v-0.945
		c0-0.588,0.512-1.065,1.144-1.065h7.76c0.632,0,1.144,0.477,1.144,1.065v0.945C159.768,75.972,159.256,76.449,158.624,76.449"/>
	<path clip-path="url(#SVGID_39_)" fill="none" stroke="#153F2A" stroke-width="2" stroke-miterlimit="10" d="M158.624,76.449h-7.76
		c-0.632,0-1.144-0.477-1.144-1.065v-0.945c0-0.588,0.512-1.065,1.144-1.065h7.76c0.632,0,1.144,0.477,1.144,1.065v0.945
		C159.768,75.972,159.256,76.449,158.624,76.449z"/>
	<path clip-path="url(#SVGID_39_)" fill="#FFFFFF" d="M140.104,119.833c0,1.688-1.363,3.057-3.044,3.057s-3.044-1.369-3.044-3.057
		c0-1.688,1.363-3.057,3.044-3.057S140.104,118.145,140.104,119.833"/>
	
		<ellipse clip-path="url(#SVGID_39_)" fill="none" stroke="#153F2A" stroke-width="2" stroke-miterlimit="10" cx="137.06" cy="119.833" rx="3.044" ry="3.057"/>
	<path clip-path="url(#SVGID_39_)" fill="#FFFFFF" d="M175.472,119.656c0,1.688-1.363,3.057-3.044,3.057s-3.044-1.369-3.044-3.057
		c0-1.688,1.363-3.057,3.044-3.057S175.472,117.968,175.472,119.656"/>
	
		<ellipse clip-path="url(#SVGID_39_)" fill="none" stroke="#153F2A" stroke-width="2" stroke-miterlimit="10" cx="172.428" cy="119.656" rx="3.044" ry="3.057"/>
</g>
<line fill="none" stroke="#153F2A" stroke-width="2" stroke-miterlimit="10" x1="145.005" y1="116.142" x2="164.483" y2="116.142"/>
<line fill="none" stroke="#153F2A" stroke-width="2" stroke-miterlimit="10" x1="145.005" y1="118.75" x2="164.483" y2="118.75"/>
<line fill="none" stroke="#153F2A" stroke-width="2" stroke-miterlimit="10" x1="145.005" y1="121.358" x2="164.483" y2="121.358"/>
</svg>
