<?xml version="1.0" encoding="utf-8"?>
<!-- Generator: Adobe Illustrator 17.1.0, SVG Export Plug-In . SVG Version: 6.00 Build 0)  -->
<!DOCTYPE svg PUBLIC "-//W3C//DTD SVG 1.1//EN" "http://www.w3.org/Graphics/SVG/1.1/DTD/svg11.dtd">
<svg version="1.1" id="Layer_1" xmlns="http://www.w3.org/2000/svg" xmlns:xlink="http://www.w3.org/1999/xlink" x="0px" y="0px"
	 viewBox="0 0 221.5 189.5" enable-background="new 0 0 221.5 189.5" xml:space="preserve">
<g>
	<g>
		<path fill="#153F2A" d="M191.352,168.146h-47.405c-0.849,0-1.538-0.689-1.538-1.538v-28.059c0-0.85,0.689-1.538,1.538-1.538
			h47.405c0.85,0,1.538,0.688,1.538,1.538v28.059C192.89,167.457,192.202,168.146,191.352,168.146"/>
	</g>
	<polygon fill="#FFFFFF" points="150.243,149.165 147.341,149.165 147.341,148.133 154.333,148.133 154.333,149.165 151.43,149.165 
		151.43,156.601 150.243,156.601 	"/>
	<rect x="155.548" y="148.133" fill="#FFFFFF" width="1.187" height="8.468"/>
	<g>
		<path fill="#FFFFFF" d="M162.769,147.989c2.039,0,3.083,1.115,3.083,1.115l-0.588,0.888c0,0-0.984-0.924-2.447-0.924
			c-1.895,0-3.13,1.44-3.13,3.238c0,1.812,1.259,3.347,3.142,3.347c1.595,0,2.614-1.103,2.614-1.103l0.636,0.851
			c0,0-1.163,1.343-3.286,1.343c-2.543,0-4.33-1.943-4.33-4.425C158.463,149.86,160.311,147.989,162.769,147.989"/>
	</g>
	<polygon fill="#FFFFFF" points="167.703,148.133 168.89,148.133 168.89,151.696 170.15,151.696 172.285,148.133 173.592,148.133 
		171.133,152.152 171.133,152.175 173.748,156.601 172.404,156.601 170.15,152.715 168.89,152.715 168.89,156.601 167.703,156.601 	
		"/>
	<polygon fill="#FFFFFF" points="175.179,148.133 180.096,148.133 180.096,149.165 176.366,149.165 176.366,151.816 
		179.401,151.816 179.401,152.847 176.366,152.847 176.366,155.57 180.3,155.57 180.3,156.601 175.179,156.601 	"/>
	<polygon fill="#FFFFFF" points="183.866,149.165 180.964,149.165 180.964,148.133 187.956,148.133 187.956,149.165 
		185.053,149.165 185.053,156.601 183.866,156.601 	"/>
	<g>
		<path fill="#FFFFFF" d="M155.194,119.883H45.708c-0.371,0-0.734,0.109-1.045,0.312l-11.504,7.559
			c-1.264,0.831-2.945-0.076-2.945-1.589v-6.282V79.599c0-1.05,0.851-1.901,1.901-1.901h123.079c1.05,0,1.901,0.851,1.901,1.901
			v38.383C157.094,119.032,156.243,119.883,155.194,119.883"/>
		<path fill="#153F2A" d="M32.114,78.861c-0.407,0-0.738,0.331-0.738,0.739v46.565c0,0.264,0.121,0.434,0.222,0.53
			c0.244,0.234,0.626,0.283,0.922,0.088l11.504-7.559c0.504-0.329,1.085-0.503,1.683-0.503h109.487c0.407,0,0.738-0.332,0.738-0.739
			V79.6c0-0.408-0.331-0.739-0.738-0.739H32.114z M32.12,129.233c-0.782,0-1.557-0.311-2.127-0.855
			c-0.608-0.579-0.942-1.364-0.942-2.213V79.6c0-1.689,1.374-3.064,3.063-3.064h123.08c1.689,0,3.063,1.375,3.063,3.064v38.382
			c0,1.689-1.374,3.064-3.063,3.064H45.707c-0.144,0-0.285,0.042-0.407,0.123l-11.503,7.558
			C33.293,129.058,32.713,129.233,32.12,129.233"/>
		<path fill="#153F2A" d="M49.694,101.518c0,0,1.046,1.061,2.51,1.061c0.92,0,1.701-0.517,1.701-1.451
			c0-2.134-4.768-1.674-4.768-4.7c0-1.532,1.324-2.746,3.179-2.746c1.826,0,2.788,0.99,2.788,0.99l-0.627,1.143
			c0,0-0.906-0.85-2.161-0.85c-1.046,0-1.785,0.655-1.785,1.436c0,2.036,4.768,1.492,4.768,4.685c0,1.52-1.171,2.774-3.123,2.774
			c-2.091,0-3.263-1.296-3.263-1.296L49.694,101.518z"/>
		<path fill="#153F2A" d="M59.123,102.773c1.144,0,1.883-1.199,1.883-2.245v-0.222h-0.349c-1.018,0-2.858,0.069-2.858,1.338
			C57.799,102.215,58.245,102.773,59.123,102.773 M60.685,99.287h0.307v-0.125c0-1.158-0.656-1.548-1.548-1.548
			c-1.088,0-1.966,0.683-1.966,0.683l-0.558-0.99c0,0,1.018-0.837,2.636-0.837c1.785,0,2.788,0.977,2.788,2.761v4.462H61.09v-0.669
			c0-0.321,0.028-0.558,0.028-0.558H61.09c0,0-0.572,1.394-2.26,1.394c-1.212,0-2.397-0.739-2.397-2.147
			C56.433,99.385,59.5,99.287,60.685,99.287"/>
		<path fill="#153F2A" d="M72.627,102.592c0.739,0,1.562-0.265,2.133-0.725l-1.157-1.13l0.809-0.864l1.129,1.143
			c0.447-0.613,0.725-1.436,0.725-2.3c0-2.175-1.589-3.779-3.639-3.779c-2.036,0-3.625,1.604-3.625,3.779
			C69.002,100.919,70.591,102.592,72.627,102.592 M72.627,93.682c2.858,0,5.061,2.189,5.061,5.034c0,1.241-0.446,2.384-1.157,3.248
			l1.172,1.116l-0.809,0.864l-1.144-1.143c-0.85,0.684-1.924,1.059-3.123,1.059c-2.845,0-5.047-2.271-5.047-5.144
			C67.58,95.871,69.782,93.682,72.627,93.682"/>
		<path fill="#153F2A" d="M79.48,96.638h1.352v4.211c0,0.975,0.196,1.756,1.325,1.756c1.436,0,2.287-1.269,2.287-2.663v-3.304h1.352
			v7.055h-1.31v-0.934c0-0.293,0.028-0.516,0.028-0.516h-0.028c-0.293,0.697-1.213,1.617-2.594,1.617
			c-1.589,0-2.412-0.837-2.412-2.704V96.638z"/>
	</g>
	<path fill="#153F2A" d="M87.92,96.638h1.352v7.055H87.92V96.638z M87.906,93.848h1.366v1.381h-1.366V93.848z"/>
	<g>
		<path fill="#153F2A" d="M93.512,102.773c1.144,0,1.883-1.199,1.883-2.245v-0.222h-0.349c-1.018,0-2.858,0.069-2.858,1.338
			C92.188,102.215,92.634,102.773,93.512,102.773 M95.074,99.287h0.307v-0.125c0-1.158-0.656-1.548-1.548-1.548
			c-1.088,0-1.966,0.683-1.966,0.683l-0.558-0.99c0,0,1.018-0.837,2.636-0.837c1.785,0,2.788,0.977,2.788,2.761v4.462h-1.254v-0.669
			c0-0.321,0.028-0.558,0.028-0.558h-0.028c0,0-0.572,1.394-2.26,1.394c-1.213,0-2.397-0.739-2.397-2.147
			C90.822,99.385,93.889,99.287,95.074,99.287"/>
		<path fill="#153F2A" d="M102.063,102.703c1.116,0,2.036-0.921,2.036-2.524c0-1.534-0.822-2.524-1.994-2.524
			c-1.059,0-2.035,0.739-2.035,2.538C100.071,101.449,100.768,102.703,102.063,102.703 M98.76,96.638h1.241v0.599
			c0,0.279-0.028,0.516-0.028,0.516h0.028c0,0,0.599-1.283,2.37-1.283c1.897,0,3.096,1.507,3.096,3.696
			c0,2.244-1.353,3.694-3.193,3.694c-1.548,0-2.162-1.157-2.162-1.157h-0.028c0,0,0.028,0.251,0.028,0.613v3.166H98.76V96.638z"/>
		<path fill="#153F2A" d="M110.421,102.689c1.338,0,2.426-1.06,2.426-2.537c0-1.465-1.088-2.51-2.426-2.51
			c-1.324,0-2.426,1.045-2.426,2.51C107.995,101.629,109.097,102.689,110.421,102.689 M110.421,96.47
			c2.105,0,3.807,1.549,3.807,3.682c0,2.147-1.702,3.708-3.807,3.708c-2.105,0-3.806-1.561-3.806-3.708
			C106.615,98.019,108.316,96.47,110.421,96.47"/>
		<path fill="#153F2A" d="M122.725,102.703c1.116,0,2.036-0.921,2.036-2.524c0-1.534-0.823-2.524-1.994-2.524
			c-1.059,0-2.035,0.739-2.035,2.538C120.732,101.449,121.429,102.703,122.725,102.703 M119.421,96.638h1.241v0.599
			c0,0.279-0.028,0.516-0.028,0.516h0.028c0,0,0.599-1.283,2.37-1.283c1.897,0,3.095,1.507,3.095,3.696
			c0,2.244-1.352,3.694-3.193,3.694c-1.547,0-2.161-1.157-2.161-1.157h-0.028c0,0,0.028,0.251,0.028,0.613v3.166h-1.352V96.638z"/>
		<path fill="#153F2A" d="M131.082,102.689c1.339,0,2.426-1.06,2.426-2.537c0-1.465-1.087-2.51-2.426-2.51
			c-1.324,0-2.426,1.045-2.426,2.51C128.656,101.629,129.758,102.689,131.082,102.689 M131.082,96.47
			c2.105,0,3.807,1.549,3.807,3.682c0,2.147-1.702,3.708-3.807,3.708s-3.806-1.561-3.806-3.708
			C127.276,98.019,128.977,96.47,131.082,96.47"/>
	</g>
	<rect x="136.497" y="102.257" fill="#153F2A" width="1.422" height="1.436"/>
</g>
</svg>
