<?xml version="1.0" encoding="utf-8"?>
<!-- Generator: Adobe Illustrator 17.1.0, SVG Export Plug-In . SVG Version: 6.00 Build 0)  -->
<!DOCTYPE svg PUBLIC "-//W3C//DTD SVG 1.1//EN" "http://www.w3.org/Graphics/SVG/1.1/DTD/svg11.dtd">
<svg version="1.1" id="Layer_1" xmlns="http://www.w3.org/2000/svg" xmlns:xlink="http://www.w3.org/1999/xlink" x="0px" y="0px"
	 viewBox="0 0 221.5 189.5" enable-background="new 0 0 221.5 189.5" xml:space="preserve">
<g>
	<defs>
		<rect id="SVGID_74_" x="30.292" y="77.573" width="193.229" height="113.311"/>
	</defs>
	<clipPath id="SVGID_38_">
		<use xlink:href="#SVGID_74_"  overflow="visible"/>
	</clipPath>
	<path clip-path="url(#SVGID_38_)" fill="#153F2A" d="M192.594,168.967h-47.405c-0.849,0-1.538-0.689-1.538-1.538V139.37
		c0-0.85,0.689-1.538,1.538-1.538h47.405c0.85,0,1.538,0.688,1.538,1.538v28.059C194.132,168.278,193.444,168.967,192.594,168.967"
		/>
</g>
<polygon fill="#FFFFFF" points="151.484,149.986 148.582,149.986 148.582,148.954 155.574,148.954 155.574,149.986 152.671,149.986 
	152.671,157.422 151.484,157.422 "/>
<rect x="156.789" y="148.954" fill="#FFFFFF" width="1.187" height="8.468"/>
<g>
	<defs>
		<rect id="SVGID_76_" x="30.292" y="77.573" width="193.229" height="113.311"/>
	</defs>
	<clipPath id="SVGID_39_">
		<use xlink:href="#SVGID_76_"  overflow="visible"/>
	</clipPath>
	<path clip-path="url(#SVGID_39_)" fill="#FFFFFF" d="M164.011,148.81c2.039,0,3.083,1.115,3.083,1.115l-0.588,0.888
		c0,0-0.984-0.924-2.447-0.924c-1.895,0-3.13,1.44-3.13,3.238c0,1.812,1.259,3.347,3.142,3.347c1.595,0,2.614-1.103,2.614-1.103
		l0.636,0.851c0,0-1.163,1.343-3.286,1.343c-2.543,0-4.33-1.943-4.33-4.425C159.705,150.681,161.553,148.81,164.011,148.81"/>
</g>
<polygon fill="#FFFFFF" points="168.945,148.954 170.132,148.954 170.132,152.517 171.392,152.517 173.527,148.954 174.834,148.954 
	172.375,152.973 172.375,152.996 174.99,157.422 173.646,157.422 171.392,153.536 170.132,153.536 170.132,157.422 168.945,157.422 
	"/>
<polygon fill="#FFFFFF" points="176.42,148.954 181.337,148.954 181.337,149.986 177.607,149.986 177.607,152.637 180.642,152.637 
	180.642,153.668 177.607,153.668 177.607,156.391 181.541,156.391 181.541,157.422 176.42,157.422 "/>
<polygon fill="#FFFFFF" points="185.107,149.986 182.205,149.986 182.205,148.954 189.197,148.954 189.197,149.986 186.294,149.986 
	186.294,157.422 185.107,157.422 "/>
<g>
	<defs>
		<rect id="SVGID_78_" x="30.292" y="77.573" width="193.229" height="113.311"/>
	</defs>
	<clipPath id="SVGID_40_">
		<use xlink:href="#SVGID_78_"  overflow="visible"/>
	</clipPath>
	<path clip-path="url(#SVGID_40_)" fill="#FFFFFF" d="M156.505,122.011H46.928c-0.358,0-0.707,0.107-1.006,0.309l-11.63,7.833
		c-1.218,0.821-2.837-0.075-2.837-1.569v-6.573V80.642c0-1.037,0.82-1.878,1.831-1.878h123.219c1.011,0,1.832,0.841,1.832,1.878
		v39.491C158.337,121.17,157.516,122.011,156.505,122.011"/>
	<path clip-path="url(#SVGID_40_)" fill="#153F2A" d="M33.286,79.957c-0.369,0-0.668,0.307-0.668,0.685v47.942
		c0,0.245,0.109,0.403,0.2,0.491c0.223,0.218,0.566,0.262,0.836,0.082l11.63-7.833c0.489-0.33,1.057-0.504,1.644-0.504h109.577
		c0.369,0,0.669-0.308,0.669-0.686V80.642c0-0.378-0.3-0.685-0.669-0.685H33.286z M33.291,131.657c-0.764,0-1.521-0.312-2.077-0.855
		c-0.595-0.581-0.921-1.368-0.921-2.218V80.642c0-1.692,1.343-3.069,2.993-3.069h123.219c1.651,0,2.994,1.377,2.994,3.069v39.492
		c0,1.693-1.343,3.069-2.994,3.069H46.928c-0.131,0-0.258,0.039-0.366,0.112l-11.631,7.835
		C34.438,131.481,33.871,131.657,33.291,131.657"/>
</g>
<polygon fill="#153F2A" points="66.566,96.552 63.192,96.552 63.192,95.322 71.321,95.322 71.321,96.552 67.947,96.552 
	67.947,105.414 66.566,105.414 "/>
<path fill="#153F2A" d="M72.454,98.181h1.352v7.233h-1.352V98.181z M72.44,95.321h1.366v1.415H72.44V95.321z"/>
<g>
	<defs>
		<rect id="SVGID_80_" x="30.292" y="77.573" width="193.229" height="113.311"/>
	</defs>
	<clipPath id="SVGID_41_">
		<use xlink:href="#SVGID_80_"  overflow="visible"/>
	</clipPath>
	<path clip-path="url(#SVGID_41_)" fill="#153F2A" d="M79.205,98.009c1.771,0,2.649,1.058,2.649,1.058l-0.641,0.972
		c0,0-0.753-0.829-1.952-0.829c-1.422,0-2.454,1.086-2.454,2.573c0,1.473,1.032,2.602,2.496,2.602c1.311,0,2.175-0.972,2.175-0.972
		l0.544,1.015c0,0-0.976,1.157-2.817,1.157c-2.217,0-3.779-1.615-3.779-3.787C75.426,99.654,76.988,98.009,79.205,98.009"/>
</g>
<polygon fill="#153F2A" points="83.56,95.321 84.912,95.321 84.912,100.839 85.902,100.839 87.827,98.181 89.361,98.181 
	87.018,101.367 87.018,101.397 89.625,105.413 88.05,105.413 85.93,102.011 84.912,102.011 84.912,105.413 83.56,105.413 "/>
<g>
	<defs>
		<rect id="SVGID_82_" x="30.292" y="77.573" width="193.229" height="113.311"/>
	</defs>
	<clipPath id="SVGID_42_">
		<use xlink:href="#SVGID_82_"  overflow="visible"/>
	</clipPath>
	<path clip-path="url(#SVGID_42_)" fill="#153F2A" d="M95.5,100.954c-0.042-1.243-0.795-1.844-1.702-1.844
		c-1.031,0-1.868,0.658-2.063,1.844H95.5z M93.826,98.009c1.994,0,3.054,1.515,3.054,3.388c0,0.186-0.042,0.601-0.042,0.601h-5.145
		c0.069,1.586,1.171,2.387,2.426,2.387c1.213,0,2.092-0.844,2.092-0.844l0.557,1.015c0,0-1.045,1.029-2.732,1.029
		c-2.218,0-3.738-1.644-3.738-3.787C90.298,99.496,91.818,98.009,93.826,98.009"/>
	<path clip-path="url(#SVGID_42_)" fill="#153F2A" d="M98.822,99.396h-0.921v-1.115h0.962v-2.087h1.311v2.087h1.701v1.115h-1.701
		v3.216c0,1.443,0.99,1.629,1.506,1.629c0.195,0,0.321-0.029,0.321-0.029v1.231c0,0-0.195,0.028-0.474,0.028
		c-0.907,0-2.705-0.285-2.705-2.702V99.396z"/>
	<path clip-path="url(#SVGID_42_)" fill="#153F2A" d="M110.413,104.399c1.116,0,2.036-0.944,2.036-2.588
		c0-1.572-0.822-2.587-1.994-2.587c-1.059,0-2.035,0.758-2.035,2.601C108.42,103.113,109.117,104.399,110.413,104.399
		 M107.109,98.181h1.241v0.615c0,0.285-0.028,0.528-0.028,0.528h0.028c0,0,0.599-1.315,2.37-1.315c1.897,0,3.096,1.544,3.096,3.788
		c0,2.301-1.353,3.788-3.193,3.788c-1.548,0-2.162-1.186-2.162-1.186h-0.028c0,0,0.028,0.257,0.028,0.628v3.245h-1.352V98.181z"/>
	<path clip-path="url(#SVGID_42_)" fill="#153F2A" d="M118.77,104.385c1.339,0,2.426-1.087,2.426-2.602
		c0-1.501-1.087-2.573-2.426-2.573c-1.325,0-2.426,1.072-2.426,2.573C116.344,103.298,117.445,104.385,118.77,104.385
		 M118.77,98.009c2.105,0,3.806,1.587,3.806,3.774c0,2.202-1.701,3.802-3.806,3.802c-2.105,0-3.807-1.6-3.807-3.802
		C114.963,99.596,116.665,98.009,118.77,98.009"/>
</g>
<rect x="124.184" y="103.941" fill="#153F2A" width="1.422" height="1.472"/>
</svg>
