<?xml version="1.0" encoding="utf-8"?>
<!-- Generator: Adobe Illustrator 17.1.0, SVG Export Plug-In . SVG Version: 6.00 Build 0)  -->
<!DOCTYPE svg PUBLIC "-//W3C//DTD SVG 1.1//EN" "http://www.w3.org/Graphics/SVG/1.1/DTD/svg11.dtd">
<svg version="1.1" id="Layer_1" xmlns="http://www.w3.org/2000/svg" xmlns:xlink="http://www.w3.org/1999/xlink" x="0px" y="0px"
	 viewBox="0 0 221.5 189.5" enable-background="new 0 0 221.5 189.5" xml:space="preserve">
<g>
	<defs>
		<rect id="SVGID_20_" x="30.512" y="77.96" width="181.67" height="111.541"/>
	</defs>
	<clipPath id="SVGID_38_">
		<use xlink:href="#SVGID_20_"  overflow="visible"/>
	</clipPath>
	<path clip-path="url(#SVGID_38_)" fill="#FFFFFF" d="M157.254,121.308H46.99c-0.254,0-0.503,0.074-0.715,0.214l-12.582,8.267
		c-0.866,0.569-2.018-0.053-2.018-1.089v-7.392V80.425c0-0.719,0.583-1.302,1.303-1.302h124.276c0.72,0,1.303,0.583,1.303,1.302
		v39.581C158.557,120.725,157.974,121.308,157.254,121.308"/>
	<path clip-path="url(#SVGID_38_)" fill="#153F2A" d="M32.978,80.285c-0.078,0-0.141,0.063-0.141,0.14V128.7
		c0,0.067,0.077,0.142,0.144,0.142c0.016,0,0.04-0.002,0.074-0.025l12.581-8.267c0.403-0.264,0.872-0.405,1.354-0.405h110.264
		c0.077,0,0.14-0.062,0.14-0.14v-39.58c0-0.077-0.063-0.14-0.14-0.14H32.978z M32.981,131.167c-0.638,0-1.245-0.243-1.709-0.686
		c-0.49-0.466-0.76-1.099-0.76-1.781V80.425c0-1.359,1.106-2.465,2.466-2.465h124.276c1.359,0,2.465,1.106,2.465,2.465v39.58
		c0,1.36-1.106,2.465-2.465,2.465H46.99l-12.659,8.291C33.926,131.026,33.459,131.167,32.981,131.167"/>
	<path clip-path="url(#SVGID_38_)" fill="#153F2A" d="M74.688,104.016c0.739,0,1.562-0.265,2.133-0.725l-1.157-1.13l0.809-0.864
		l1.129,1.143c0.447-0.613,0.725-1.436,0.725-2.3c0-2.175-1.589-3.779-3.639-3.779c-2.036,0-3.625,1.604-3.625,3.779
		C71.063,102.343,72.652,104.016,74.688,104.016 M74.688,95.106c2.858,0,5.061,2.189,5.061,5.034c0,1.241-0.446,2.384-1.157,3.248
		l1.172,1.116l-0.809,0.864l-1.144-1.143c-0.85,0.684-1.924,1.059-3.123,1.059c-2.845,0-5.047-2.271-5.047-5.144
		C69.641,97.295,71.843,95.106,74.688,95.106"/>
	<path clip-path="url(#SVGID_38_)" fill="#153F2A" d="M81.541,98.063h1.352v4.211c0,0.975,0.196,1.756,1.325,1.756
		c1.436,0,2.287-1.269,2.287-2.663v-3.304h1.353v7.055h-1.311v-0.934c0-0.293,0.028-0.516,0.028-0.516h-0.028
		c-0.293,0.697-1.213,1.617-2.594,1.617c-1.589,0-2.412-0.837-2.412-2.704V98.063z"/>
</g>
<path fill="#153F2A" d="M89.981,98.063h1.352v7.055h-1.352V98.063z M89.967,95.273h1.366v1.381h-1.366V95.273z"/>
<g>
	<defs>
		<rect id="SVGID_18_" x="30.512" y="77.96" width="181.67" height="111.541"/>
	</defs>
	<clipPath id="SVGID_39_">
		<use xlink:href="#SVGID_18_"  overflow="visible"/>
	</clipPath>
	<path clip-path="url(#SVGID_39_)" fill="#153F2A" d="M95.574,104.197c1.144,0,1.883-1.199,1.883-2.245v-0.222h-0.349
		c-1.018,0-2.858,0.069-2.858,1.338C94.25,103.639,94.696,104.197,95.574,104.197 M97.136,100.711h0.307v-0.125
		c0-1.158-0.656-1.548-1.548-1.548c-1.088,0-1.966,0.683-1.966,0.683l-0.558-0.99c0,0,1.018-0.837,2.636-0.837
		c1.785,0,2.788,0.977,2.788,2.761v4.462h-1.254v-0.669c0-0.321,0.028-0.558,0.028-0.558h-0.028c0,0-0.572,1.394-2.26,1.394
		c-1.213,0-2.397-0.739-2.397-2.147C92.884,100.809,95.951,100.711,97.136,100.711"/>
	<path clip-path="url(#SVGID_39_)" fill="#153F2A" d="M104.125,104.128c1.116,0,2.036-0.921,2.036-2.524
		c0-1.534-0.822-2.524-1.994-2.524c-1.059,0-2.035,0.739-2.035,2.538C102.132,102.874,102.829,104.128,104.125,104.128
		 M100.821,98.063h1.241v0.599c0,0.279-0.028,0.516-0.028,0.516h0.028c0,0,0.599-1.283,2.37-1.283c1.897,0,3.096,1.507,3.096,3.696
		c0,2.244-1.353,3.694-3.193,3.694c-1.548,0-2.162-1.157-2.162-1.157h-0.028c0,0,0.028,0.251,0.028,0.613v3.166h-1.352V98.063z"/>
	<path clip-path="url(#SVGID_39_)" fill="#153F2A" d="M112.482,104.114c1.339,0,2.426-1.06,2.426-2.537
		c0-1.465-1.087-2.51-2.426-2.51c-1.324,0-2.426,1.045-2.426,2.51C110.056,103.054,111.158,104.114,112.482,104.114 M112.482,97.895
		c2.105,0,3.807,1.549,3.807,3.682c0,2.147-1.702,3.708-3.807,3.708c-2.105,0-3.806-1.561-3.806-3.708
		C108.676,99.444,110.377,97.895,112.482,97.895"/>
</g>
<path fill="#153F2A" d="M118.371,103.765h1.381v1.352h-1.381V103.765z M118.357,95.273h1.395l-0.084,7.139h-1.213L118.357,95.273z"
	/>
<g>
	<defs>
		<rect id="SVGID_16_" x="30.512" y="77.96" width="181.67" height="111.541"/>
	</defs>
	<clipPath id="SVGID_40_">
		<use xlink:href="#SVGID_16_"  overflow="visible"/>
	</clipPath>
	<path clip-path="url(#SVGID_40_)" fill="#FFFFFF" d="M183.743,181.014h-76.372c-0.569,0-1.03-0.461-1.03-1.03v-31.555
		c0-0.569,0.461-1.031,1.03-1.031h76.372c0.569,0,1.03,0.462,1.03,1.031v31.555C184.773,180.553,184.312,181.014,183.743,181.014"/>
</g>
<g>
	<defs>
		<rect id="SVGID_14_" x="93.789" y="114.023" width="118.393" height="75.478"/>
	</defs>
	<clipPath id="SVGID_41_">
		<use xlink:href="#SVGID_14_"  overflow="visible"/>
	</clipPath>
	<path clip-path="url(#SVGID_41_)" fill="#153F2A" d="M107.371,148.36c-0.038,0-0.068,0.031-0.068,0.069v31.555
		c0,0.037,0.03,0.067,0.068,0.067h76.372c0.038,0,0.068-0.03,0.068-0.067v-31.555c0-0.038-0.03-0.069-0.068-0.069H107.371z
		 M183.743,181.975h-76.372c-1.098,0-1.992-0.893-1.992-1.991v-31.555c0-1.1,0.894-1.993,1.992-1.993h76.372
		c1.099,0,1.992,0.893,1.992,1.993v31.555C185.735,181.082,184.842,181.975,183.743,181.975"/>
	<path clip-path="url(#SVGID_41_)" fill="#FFFFFF" d="M183.929,200.204h-76.744c-0.466,0-0.844-0.378-0.844-0.844v-11.473
		c0-0.466,0.378-0.844,0.844-0.844h76.744c0.466,0,0.844,0.378,0.844,0.844v11.473C184.773,199.826,184.395,200.204,183.929,200.204
		"/>
	<path clip-path="url(#SVGID_41_)" fill="#153F2A" d="M107.303,199.243h76.509v-11.238h-76.509V199.243z M183.929,201.167h-76.744
		c-0.996,0-1.806-0.811-1.806-1.806v-11.473c0-0.995,0.81-1.806,1.806-1.806h76.744c0.996,0,1.806,0.811,1.806,1.806v11.473
		C185.735,200.356,184.925,201.167,183.929,201.167"/>
</g>
<g>
	<defs>
		<rect id="SVGID_21_" x="30.512" y="77.96" width="181.67" height="111.541"/>
	</defs>
	<clipPath id="SVGID_42_">
		<use xlink:href="#SVGID_21_"  overflow="visible"/>
	</clipPath>
	<path clip-path="url(#SVGID_42_)" fill="#FFFFFF" d="M177.796,143.577c0,4.568-3.703,8.272-8.272,8.272
		c-4.568,0-8.272-3.704-8.272-8.272c0-4.569,3.704-8.272,8.272-8.272C174.093,135.305,177.796,139.008,177.796,143.577"/>
</g>
<g>
	<defs>
		<rect id="SVGID_23_" x="93.789" y="114.023" width="118.393" height="75.478"/>
	</defs>
	<clipPath id="SVGID_44_">
		<use xlink:href="#SVGID_23_"  overflow="visible"/>
	</clipPath>
	<path clip-path="url(#SVGID_44_)" fill="#153F2A" d="M169.523,136.267c-4.03,0-7.31,3.279-7.31,7.31c0,4.031,3.28,7.31,7.31,7.31
		c4.031,0,7.311-3.279,7.311-7.31C176.834,139.546,173.554,136.267,169.523,136.267 M169.523,152.811
		c-5.091,0-9.233-4.143-9.233-9.234s4.142-9.233,9.233-9.233c5.092,0,9.234,4.142,9.234,9.233S174.615,152.811,169.523,152.811"/>
	<path clip-path="url(#SVGID_44_)" fill="#FFFFFF" d="M152.124,162.623v24.381c0,0.681,0.552,1.233,1.232,1.233h3.351
		c0.68,0,1.232-0.552,1.232-1.233v-21.618c0-0.68,0.552-1.232,1.232-1.232h0.025c0.681,0,1.233,0.552,1.233,1.232v56.649
		c0,0.68,0.551,1.232,1.232,1.232h3.749c0.68,0,1.232-0.552,1.232-1.232v-22.697c0-0.681,0.552-1.232,1.233-1.232h3.298
		c0.68,0,1.232,0.551,1.232,1.232v22.697c0,0.68,0.552,1.232,1.232,1.232h3.75c0.68,0,1.232-0.552,1.232-1.232v-56.649
		c0-0.68,0.552-1.232,1.232-1.232h0.025c0.681,0,1.232,0.552,1.232,1.232v21.618c0,0.681,0.552,1.233,1.233,1.233h3.35
		c0.68,0,1.232-0.552,1.232-1.233v-24.381c0-3.656-2.964-6.62-6.62-6.62h-21.559C155.088,156.003,152.124,158.967,152.124,162.623"
		/>
	<path clip-path="url(#SVGID_44_)" fill="#153F2A" d="M167.875,197.144h3.298c1.209,0,2.194,0.984,2.194,2.194v22.697
		c0,0.149,0.121,0.27,0.27,0.27h3.75c0.149,0,0.271-0.121,0.271-0.27v-56.649c0-1.209,0.984-2.194,2.194-2.194
		c1.234,0,2.218,0.985,2.218,2.194v21.618c0,0.15,0.122,0.271,0.271,0.271h3.35c0.15,0,0.271-0.121,0.271-0.271v-24.381
		c0-3.12-2.538-5.658-5.658-5.658h-21.56c-3.12,0-5.658,2.538-5.658,5.658v24.381c0,0.15,0.121,0.271,0.27,0.271h3.351
		c0.149,0,0.27-0.121,0.27-0.271v-21.618c0-1.209,0.985-2.194,2.194-2.194c1.235,0,2.219,0.985,2.219,2.194v56.649
		c0,0.149,0.121,0.27,0.271,0.27h3.749c0.15,0,0.271-0.121,0.271-0.27v-22.697C165.681,198.128,166.665,197.144,167.875,197.144
		 M177.387,224.229h-3.75c-1.209,0-2.194-0.984-2.194-2.194v-22.697c0-0.149-0.121-0.271-0.27-0.271h-3.298
		c-0.149,0-0.271,0.122-0.271,0.271v22.697c0,1.21-0.984,2.194-2.194,2.194h-3.749c-1.21,0-2.195-0.984-2.195-2.194v-56.649
		c0-0.149-0.121-0.27-0.27-0.27c-0.174,0-0.295,0.121-0.295,0.27v21.618c0,1.21-0.984,2.194-2.194,2.194h-3.351
		c-1.209,0-2.194-0.984-2.194-2.194v-24.381c0-4.181,3.401-7.582,7.582-7.582h21.56c4.18,0,7.581,3.401,7.581,7.582v24.381
		c0,1.21-0.984,2.194-2.194,2.194h-3.35c-1.21,0-2.194-0.984-2.194-2.194v-21.618c0-0.149-0.122-0.27-0.271-0.27
		c-0.174,0-0.295,0.121-0.295,0.27v56.649C179.581,223.245,178.597,224.229,177.387,224.229"/>
</g>
</svg>
