<?xml version="1.0" encoding="utf-8"?>
<!-- Generator: Adobe Illustrator 17.1.0, SVG Export Plug-In . SVG Version: 6.00 Build 0)  -->
<!DOCTYPE svg PUBLIC "-//W3C//DTD SVG 1.1//EN" "http://www.w3.org/Graphics/SVG/1.1/DTD/svg11.dtd">
<svg version="1.1" id="Layer_1" xmlns="http://www.w3.org/2000/svg" xmlns:xlink="http://www.w3.org/1999/xlink" x="0px" y="0px"
	 viewBox="0 0 221.5 189.5" enable-background="new 0 0 221.5 189.5" xml:space="preserve">
<g>
	<g>
		<rect x="122.359" y="98.43" fill="#153F2A" width="8.465" height="1.72"/>
	</g>
	<g>
		<defs>
			<rect id="SVGID_172_" x="66.184" y="88.618" width="92.632" height="100.881"/>
		</defs>
		<clipPath id="SVGID_38_">
			<use xlink:href="#SVGID_172_"  overflow="visible"/>
		</clipPath>
		<g clip-path="url(#SVGID_38_)">
			<path fill="#FFFFFF" d="M155.94,181.7H69.06c-0.909,0-1.645-0.743-1.645-1.659v-25.576c0-0.916,0.736-1.659,1.645-1.659h86.88
				c0.909,0,1.645,0.743,1.645,1.659v25.576C157.585,180.957,156.849,181.7,155.94,181.7"/>
		</g>
		<g clip-path="url(#SVGID_38_)">
			<path fill="#153F2A" d="M155.939,182.932H69.06c-1.586,0-2.876-1.297-2.876-2.891v-25.575c0-1.594,1.29-2.891,2.876-2.891h86.88
				c1.586,0,2.877,1.297,2.877,2.891v25.575C158.816,181.635,157.525,182.932,155.939,182.932z M69.06,154.038
				c-0.228,0-0.413,0.191-0.413,0.428v25.575c0,0.236,0.186,0.428,0.413,0.428h86.88c0.229,0,0.414-0.191,0.414-0.428v-25.575
				c0-0.236-0.186-0.428-0.414-0.428H69.06z"/>
		</g>
		<g clip-path="url(#SVGID_38_)">
			<path fill="#FFFFFF" d="M155.754,152.804H69.246c-0.967,0-1.724-0.832-1.637-1.798l3.694-41.046
				c0.077-0.85,0.787-1.501,1.638-1.501h79.117c0.851,0,1.561,0.651,1.638,1.501l3.694,41.046
				C157.478,151.972,156.719,152.804,155.754,152.804"/>
		</g>
		<g clip-path="url(#SVGID_38_)">
			<path fill="#153F2A" d="M155.754,153.805H69.246c-0.739,0-1.45-0.313-1.949-0.859c-0.501-0.548-0.75-1.287-0.684-2.028
				l3.694-41.047c0.125-1.375,1.257-2.411,2.634-2.411h79.117c1.377,0,2.509,1.036,2.634,2.41l3.694,41.048
				c0.066,0.74-0.183,1.479-0.684,2.028C157.203,153.491,156.493,153.805,155.754,153.805z M72.941,109.459
				c-0.335,0-0.611,0.254-0.642,0.592l-3.694,41.046c-0.022,0.25,0.096,0.42,0.168,0.499c0.071,0.078,0.228,0.209,0.473,0.209
				h86.508c0.245,0,0.401-0.131,0.473-0.209c0.072-0.079,0.19-0.249,0.168-0.499L152.7,110.05c-0.03-0.337-0.307-0.591-0.642-0.591
				H72.941z"/>
		</g>
		<g clip-path="url(#SVGID_38_)">
			<path fill="#FFFFFF" d="M132.5,152.804h-40c-0.97,0-1.73-0.832-1.643-1.798l3.708-41.046c0.076-0.85,0.789-1.501,1.643-1.501
				h32.584c0.854,0,1.567,0.651,1.644,1.501l3.707,41.046C134.23,151.972,133.47,152.804,132.5,152.804"/>
		</g>
		<g clip-path="url(#SVGID_38_)">
			<path fill="#153F2A" d="M132.5,153.805h-40c-0.742,0-1.455-0.314-1.956-0.862s-0.75-1.286-0.684-2.025l3.708-41.047
				c0.123-1.374,1.258-2.411,2.64-2.411h32.584c1.38,0,2.515,1.036,2.64,2.41l3.707,41.048c0.066,0.74-0.183,1.479-0.684,2.026
				C133.955,153.49,133.242,153.805,132.5,153.805z M96.208,109.459c-0.339,0-0.617,0.254-0.647,0.59l-3.708,41.048
				c-0.022,0.248,0.096,0.418,0.167,0.496c0.072,0.079,0.231,0.212,0.48,0.212h40c0.249,0,0.407-0.132,0.479-0.211
				c0.071-0.079,0.189-0.249,0.167-0.497l-3.707-41.047c-0.03-0.337-0.309-0.591-0.647-0.591H96.208z"/>
		</g>
		<g clip-path="url(#SVGID_38_)">
			<path fill="#FFFFFF" d="M118.974,126.626c0,3.576-2.899,6.474-6.474,6.474c-3.576,0-6.474-2.898-6.474-6.474
				c0-3.576,2.898-6.474,6.474-6.474C116.075,120.152,118.974,123.05,118.974,126.626"/>
		</g>
		<g clip-path="url(#SVGID_38_)">
			<path fill="#153F2A" d="M112.5,134.1c-4.121,0-7.474-3.353-7.474-7.474s3.353-7.475,7.474-7.475s7.475,3.354,7.475,7.475
				S116.621,134.1,112.5,134.1z M112.5,121.151c-3.019,0-5.474,2.456-5.474,5.475s2.455,5.474,5.474,5.474s5.475-2.455,5.475-5.474
				S115.519,121.151,112.5,121.151z"/>
		</g>
		<g clip-path="url(#SVGID_38_)">
			<path fill="#FFFFFF" d="M99.039,141.825v18.765c0,0.524,0.427,0.948,0.953,0.948h2.592c0.527,0,0.954-0.424,0.954-0.948v-16.638
				c0-0.524,0.426-0.949,0.953-0.949h0.019c0.527,0,0.953,0.425,0.953,0.949v43.599c0,0.524,0.427,0.948,0.954,0.948h2.9
				c0.527,0,0.954-0.424,0.954-0.948v-17.468c0-0.524,0.426-0.949,0.953-0.949h2.551c0.527,0,0.954,0.425,0.954,0.949v17.468
				c0,0.524,0.427,0.948,0.953,0.948h2.9c0.527,0,0.954-0.424,0.954-0.948v-43.599c0-0.524,0.426-0.949,0.953-0.949h0.019
				c0.527,0,0.954,0.425,0.954,0.949v16.638c0,0.524,0.426,0.948,0.953,0.948h2.592c0.526,0,0.953-0.424,0.953-0.948v-18.765
				c0-2.814-2.293-5.095-5.121-5.095h-16.678C101.332,136.73,99.039,139.011,99.039,141.825"/>
		</g>
		<g clip-path="url(#SVGID_38_)">
			<path fill="#153F2A" d="M118.582,189.499h-2.899c-1.077,0-1.953-0.874-1.953-1.948v-17.468l-2.505,0.051l0.047,17.417
				c0,1.074-0.877,1.948-1.954,1.948h-2.9c-1.077,0-1.954-0.874-1.954-1.948v-26.425c-0.234,0.814-0.987,1.412-1.879,1.412h-2.592
				c-1.077,0-1.953-0.874-1.953-1.948v-18.765c0-3.361,2.746-6.096,6.122-6.096h16.678c3.375,0,6.121,2.734,6.121,6.096v18.765
				c0,1.074-0.876,1.948-1.953,1.948h-2.592c-0.963,0-1.765-0.698-1.924-1.613l0.045,26.626
				C120.536,188.625,119.659,189.499,118.582,189.499z M111.225,168.134h2.551c1.077,0,1.954,0.874,1.954,1.949v17.468l2.807-0.051
				v-43.548c0-1.075,0.876-1.949,1.953-1.949c1.096,0,1.973,0.874,1.973,1.949v16.638l2.545-0.052l-0.047-18.713
				c0-2.259-1.849-4.096-4.121-4.096h-16.678c-2.272,0-4.122,1.837-4.122,4.096v18.765l2.545-0.052l-0.046-16.586
				c0-1.075,0.876-1.949,1.953-1.949c1.096,0,1.972,0.874,1.972,1.949v43.599l2.854-0.052l-0.046-17.416
				C109.271,169.008,110.147,168.134,111.225,168.134z"/>
		</g>
		<g clip-path="url(#SVGID_38_)">
			<path fill="#FFFFFF" d="M155.908,108.746H69.091c-0.907,0-1.643-0.745-1.643-1.664v-15.8c0-0.919,0.736-1.664,1.643-1.664h86.817
				c0.908,0,1.644,0.745,1.644,1.664v15.8C157.552,108.001,156.816,108.746,155.908,108.746"/>
		</g>
		<g clip-path="url(#SVGID_38_)">
			<path fill="#153F2A" d="M155.908,109.746H69.091c-1.457,0-2.643-1.195-2.643-2.664v-15.8c0-1.469,1.186-2.664,2.643-2.664h86.817
				c1.458,0,2.644,1.195,2.644,2.664v15.8C158.552,108.551,157.366,109.746,155.908,109.746z M69.091,90.618
				c-0.354,0-0.643,0.298-0.643,0.664v15.8c0,0.366,0.288,0.664,0.643,0.664h86.817c0.354,0,0.644-0.298,0.644-0.664v-15.8
				c0-0.366-0.289-0.664-0.644-0.664H69.091z"/>
		</g>
	</g>
	<g>
		<path fill="#153F2A" d="M93.586,94.179c2.373,0,3.594,1.331,3.594,1.331l-0.85,1.316c0,0-1.111-1.028-2.662-1.028
			c-2.057,0-3.265,1.536-3.265,3.347c0,1.852,1.249,3.484,3.278,3.484c1.688,0,2.826-1.234,2.826-1.234l0.933,1.275
			c0,0-1.345,1.578-3.827,1.578c-2.977,0-5.034-2.209-5.034-5.076C88.579,96.347,90.719,94.179,93.586,94.179z"/>
		<path fill="#153F2A" d="M103.434,94.179c2.867,0,5.035,2.182,5.035,4.966c0,2.867-2.168,5.104-5.035,5.104
			c-2.866,0-5.033-2.236-5.033-5.104C98.4,96.36,100.567,94.179,103.434,94.179z M103.434,102.629c1.783,0,3.211-1.481,3.211-3.484
			c0-1.92-1.428-3.347-3.211-3.347s-3.209,1.427-3.209,3.347C100.225,101.147,101.65,102.629,103.434,102.629z"/>
		<path fill="#153F2A" d="M110.758,94.344h1.894l1.907,4.814c0.219,0.576,0.493,1.427,0.493,1.427h0.027c0,0,0.261-0.851,0.48-1.427
			l1.907-4.814h1.893l0.781,9.739h-1.756l-0.411-5.446c-0.041-0.645-0.014-1.509-0.014-1.509h-0.027c0,0-0.288,0.946-0.521,1.509
			l-1.577,3.772h-1.551l-1.563-3.772c-0.233-0.562-0.534-1.522-0.534-1.522h-0.028c0,0,0.028,0.878-0.014,1.522l-0.411,5.446h-1.77
			L110.758,94.344z"/>
		<path fill="#153F2A" d="M122.307,94.344h5.83v1.522h-4.061v2.552h3.279v1.522h-3.279v2.62h4.28v1.522h-6.05V94.344z"/>
	</g>
	<g>
		<path fill="#153F2A" d="M132.142,95.866h-3.196v-1.522h8.162v1.522h-3.196v8.217h-1.77V95.866z"/>
	</g>
</g>
</svg>
