<?xml version="1.0" encoding="utf-8"?>
<!-- Generator: Adobe Illustrator 17.1.0, SVG Export Plug-In . SVG Version: 6.00 Build 0)  -->
<!DOCTYPE svg PUBLIC "-//W3C//DTD SVG 1.1//EN" "http://www.w3.org/Graphics/SVG/1.1/DTD/svg11.dtd">
<svg version="1.1" id="Layer_1" xmlns="http://www.w3.org/2000/svg" xmlns:xlink="http://www.w3.org/1999/xlink" x="0px" y="0px"
	 viewBox="0 0 221.5 189.5" enable-background="new 0 0 221.5 189.5" xml:space="preserve">
<g>
	<defs>
		<rect id="SVGID_174_" x="73.438" y="79.078" width="77.624" height="108.922"/>
	</defs>
	<clipPath id="SVGID_38_">
		<use xlink:href="#SVGID_174_"  overflow="visible"/>
	</clipPath>
	<g clip-path="url(#SVGID_38_)">
		<path fill="#FFFFFF" d="M150.062,184.994V82.7c0-1.448-1.175-2.622-2.625-2.622H77.064c-1.45,0-2.626,1.174-2.626,2.622v102.294
			c0,1.108,0.9,2.006,2.009,2.006h71.606C149.162,187,150.062,186.102,150.062,184.994"/>
	</g>
	<g clip-path="url(#SVGID_38_)">
		<path fill="#153F2A" d="M148.053,188H76.447c-1.659,0-3.01-1.349-3.01-3.006V82.7c0-1.997,1.627-3.622,3.626-3.622h70.373
			c1.999,0,3.625,1.625,3.625,3.622v102.294C151.062,186.651,149.712,188,148.053,188z M77.063,81.078
			c-0.896,0-1.626,0.728-1.626,1.622v102.294c0,0.555,0.453,1.006,1.01,1.006h71.605c0.557,0,1.009-0.451,1.009-1.006V82.7
			c0-0.895-0.729-1.622-1.625-1.622H77.063z"/>
	</g>
	<g clip-path="url(#SVGID_38_)">
		<path fill="#FFFFFF" d="M135.967,162.378H88.532c-0.766,0-1.386-0.624-1.386-1.393v-28.321c0-0.769,0.62-1.393,1.386-1.393h47.435
			c0.766,0,1.386,0.624,1.386,1.393v28.321C137.353,161.754,136.733,162.378,135.967,162.378"/>
	</g>
	<g clip-path="url(#SVGID_38_)">
		<path fill="#153F2A" d="M135.968,163.378H88.532c-1.315,0-2.386-1.073-2.386-2.393v-28.321c0-1.319,1.07-2.393,2.386-2.393h47.436
			c1.315,0,2.386,1.073,2.386,2.393v28.321C138.354,162.305,137.283,163.378,135.968,163.378z M88.532,132.271
			c-0.213,0-0.386,0.176-0.386,0.393v28.321c0,0.217,0.173,0.393,0.386,0.393h47.436c0.213,0,0.386-0.176,0.386-0.393v-28.321
			c0-0.217-0.173-0.393-0.386-0.393H88.532z"/>
	</g>
</g>
<g>
	<path fill="#153F2A" d="M90.416,96.013h-2.271v-1.082h5.801v1.082h-2.271v5.841h-1.258V96.013z"/>
</g>
<g>
	<path fill="#153F2A" d="M97.902,100.079h-2.428l-0.586,1.774h-1.297l2.438-6.923h1.316l2.438,6.923h-1.297L97.902,100.079z
		 M96.684,96.13c0,0-0.156,0.683-0.293,1.072l-0.614,1.853h1.813l-0.614-1.853c-0.126-0.39-0.272-1.072-0.272-1.072H96.684z"/>
	<path fill="#153F2A" d="M100.668,94.931h2.672c1.297,0,2.203,0.907,2.203,2.252c0,1.346-0.906,2.282-2.203,2.282h-1.414v2.389
		h-1.258V94.931z M103.105,98.373c0.731,0,1.16-0.469,1.16-1.19c0-0.711-0.429-1.17-1.141-1.17h-1.199v2.36H103.105z"/>
	<path fill="#153F2A" d="M109.02,94.931h1.258v2.935h3.17v-2.935h1.258v6.923h-1.258v-2.905h-3.17v2.905h-1.258V94.931z"/>
	<path fill="#153F2A" d="M116.456,94.931h4.144v1.082h-2.886v1.813h2.331v1.083h-2.331v1.862h3.042v1.082h-4.3V94.931z"/>
	<path fill="#153F2A" d="M122.06,94.931h2.233c0.75,0,1.092,0.059,1.395,0.195c0.691,0.312,1.131,0.975,1.131,1.892
		c0,0.828-0.439,1.599-1.17,1.892v0.02c0,0,0.097,0.098,0.233,0.341l1.423,2.584h-1.403l-1.375-2.584h-1.209v2.584h-1.258V94.931z
		 M124.449,98.178c0.672,0,1.092-0.399,1.092-1.092c0-0.663-0.283-1.073-1.268-1.073h-0.956v2.165H124.449z"/>
	<path fill="#153F2A" d="M128.473,94.931h4.144v1.082h-2.886v1.813h2.33v1.083h-2.33v1.862h3.041v1.082h-4.299V94.931z"/>
	<path fill="#153F2A" d="M134.154,94.931h1.287l-0.098,4.924h-1.082L134.154,94.931z M134.203,100.703h1.199v1.15h-1.199V100.703z"
		/>
</g>
<g>
	<path fill="#153F2A" d="M112.25,119.86l-4.356-3.656l0.643-0.766l3.714,3.117l3.714-3.117l0.643,0.766L112.25,119.86z
		 M112.25,116.227l-4.356-3.656l0.643-0.766l3.714,3.117l3.714-3.117l0.643,0.766L112.25,116.227z M112.25,112.595l-4.356-3.659
		l0.643-0.766l3.714,3.118l3.714-3.118l0.643,0.766L112.25,112.595z"/>
</g>
</svg>
