<?xml version="1.0" encoding="utf-8"?>
<!-- Generator: Adobe Illustrator 17.1.0, SVG Export Plug-In . SVG Version: 6.00 Build 0)  -->
<!DOCTYPE svg PUBLIC "-//W3C//DTD SVG 1.1//EN" "http://www.w3.org/Graphics/SVG/1.1/DTD/svg11.dtd">
<svg version="1.1" id="Layer_1" xmlns="http://www.w3.org/2000/svg" xmlns:xlink="http://www.w3.org/1999/xlink" x="0px" y="0px"
	 viewBox="0 0 221.5 188" enable-background="new 0 0 221.5 188" xml:space="preserve">
<g>
	<defs>
		<rect id="SVGID_178_" x="78.184" y="99.885" width="144.391" height="90.084"/>
	</defs>
	<clipPath id="SVGID_38_">
		<use xlink:href="#SVGID_178_"  overflow="visible"/>
	</clipPath>
	<path clip-path="url(#SVGID_38_)" fill="#153F2A" d="M142.519,140.692H80.01c-1.009,0-1.827-0.818-1.827-1.827v-37.153
		c0-1.009,0.818-1.827,1.827-1.827h62.509c1.009,0,1.827,0.818,1.827,1.827v37.153C144.346,139.874,143.528,140.692,142.519,140.692
		"/>
	<path clip-path="url(#SVGID_38_)" fill="#FFFFFF" d="M96.188,114.274c2.672,0,4.039,1.462,4.039,1.462l-0.77,1.163
		c0,0-1.289-1.211-3.207-1.211c-2.484,0-4.103,1.887-4.103,4.244c0,2.375,1.65,4.387,4.119,4.387c2.09,0,3.427-1.447,3.427-1.447
		l0.833,1.117c0,0-1.525,1.759-4.307,1.759c-3.333,0-5.675-2.545-5.675-5.799C90.544,116.726,92.965,114.274,96.188,114.274"/>
	<path clip-path="url(#SVGID_38_)" fill="#FFFFFF" d="M106.066,115.987c0,0-0.252,1.006-0.44,1.572l-1.242,3.521h3.364l-1.226-3.521
		c-0.189-0.566-0.424-1.572-0.424-1.572H106.066z M108.156,122.369h-4.18l-1.101,3.191h-1.604l3.992-11.098h1.636l3.993,11.098
		h-1.62L108.156,122.369z"/>
	<path clip-path="url(#SVGID_38_)" fill="#FFFFFF" d="M116.319,119.792c1.21,0,1.966-0.771,1.966-2.013
		c0-0.817-0.315-1.399-0.881-1.713c-0.3-0.158-0.66-0.251-1.526-0.251h-1.792v3.977H116.319z M112.53,114.462h3.396
		c1.163,0,1.651,0.095,2.074,0.252c1.132,0.425,1.872,1.541,1.872,3.003c0,1.414-0.786,2.608-1.997,3.001v0.032
		c0,0,0.125,0.141,0.33,0.503l2.358,4.307h-1.761l-2.341-4.417h-2.375v4.417h-1.556V114.462z"/>
	<path clip-path="url(#SVGID_38_)" fill="#FFFFFF" d="M126.18,124.209c2.5,0,4.135-1.479,4.135-4.214c0-2.719-1.65-4.18-4.135-4.18
		h-2.012v8.394H126.18z M122.612,114.462h3.678c3.396,0,5.628,2.029,5.628,5.533c0,3.521-2.232,5.565-5.628,5.565h-3.678V114.462z"
		/>
</g>
</svg>
