<?xml version="1.0" encoding="utf-8"?>
<!-- Generator: Adobe Illustrator 17.1.0, SVG Export Plug-In . SVG Version: 6.00 Build 0)  -->
<!DOCTYPE svg PUBLIC "-//W3C//DTD SVG 1.1//EN" "http://www.w3.org/Graphics/SVG/1.1/DTD/svg11.dtd">
<svg version="1.1" id="Layer_1" xmlns="http://www.w3.org/2000/svg" xmlns:xlink="http://www.w3.org/1999/xlink" x="0px" y="0px"
	 viewBox="0 0 221.5 189.5" enable-background="new 0 0 221.5 189.5" xml:space="preserve">
<rect x="57.568" y="81.799" fill="#FFFFFF" width="106.276" height="79.096"/>
<g>
	
		<rect x="57.568" y="81.799" fill="none" stroke="#153F2A" stroke-width="2" stroke-miterlimit="10" width="106.276" height="79.096"/>
	<path fill="#153F2A" d="M70.783,122.385c0,0.99-0.803,1.793-1.793,1.793s-1.793-0.803-1.793-1.793c0-0.99,0.803-1.793,1.793-1.793
		S70.783,121.395,70.783,122.385"/>
	<path fill="#153F2A" d="M81.027,112.665c0,0.99-0.803,1.793-1.793,1.793c-0.99,0-1.793-0.803-1.793-1.793
		c0-0.99,0.803-1.793,1.793-1.793C80.224,110.872,81.027,111.675,81.027,112.665"/>
	<path fill="#153F2A" d="M81.027,104.155c0,0.99-0.803,1.793-1.793,1.793c-0.99,0-1.793-0.803-1.793-1.793
		c0-0.99,0.803-1.793,1.793-1.793C80.224,102.362,81.027,103.165,81.027,104.155"/>
	<path fill="#153F2A" d="M84.614,95.3c0,0.99-0.803,1.793-1.793,1.793s-1.793-0.803-1.793-1.793c0-0.99,0.803-1.793,1.793-1.793
		S84.614,94.31,84.614,95.3"/>
	<path fill="#153F2A" d="M94.376,95.3c0,0.99-0.803,1.793-1.793,1.793S90.79,96.29,90.79,95.3c0-0.99,0.803-1.793,1.793-1.793
		S94.376,94.31,94.376,95.3"/>
	<path fill="#153F2A" d="M104.138,95.3c0,0.99-0.803,1.793-1.793,1.793s-1.793-0.803-1.793-1.793c0-0.99,0.803-1.793,1.793-1.793
		S104.138,94.31,104.138,95.3"/>
	<path fill="#153F2A" d="M113.9,95.3c0,0.99-0.803,1.793-1.793,1.793s-1.793-0.803-1.793-1.793c0-0.99,0.803-1.793,1.793-1.793
		S113.9,94.31,113.9,95.3"/>
	<path fill="#153F2A" d="M123.663,95.3c0,0.99-0.803,1.793-1.793,1.793c-0.99,0-1.793-0.803-1.793-1.793
		c0-0.99,0.803-1.793,1.793-1.793C122.86,93.507,123.663,94.31,123.663,95.3"/>
	<path fill="#153F2A" d="M133.425,95.3c0,0.99-0.803,1.793-1.793,1.793c-0.99,0-1.793-0.803-1.793-1.793
		c0-0.99,0.803-1.793,1.793-1.793C132.622,93.507,133.425,94.31,133.425,95.3"/>
	<path fill="#153F2A" d="M143.187,95.3c0,0.99-0.803,1.793-1.793,1.793c-0.99,0-1.793-0.803-1.793-1.793
		c0-0.99,0.803-1.793,1.793-1.793C142.384,93.507,143.187,94.31,143.187,95.3"/>
	<path fill="#153F2A" d="M155.631,105.948c0,0.99-0.803,1.793-1.793,1.793s-1.793-0.803-1.793-1.793c0-0.99,0.803-1.793,1.793-1.793
		S155.631,104.958,155.631,105.948"/>
	<path fill="#153F2A" d="M147.666,116.251c0,0.99-0.803,1.793-1.793,1.793c-0.99,0-1.793-0.803-1.793-1.793
		c0-0.99,0.803-1.793,1.793-1.793C146.863,114.458,147.666,115.261,147.666,116.251"/>
	<path fill="#153F2A" d="M147.666,123.109c0,0.99-0.803,1.793-1.793,1.793c-0.99,0-1.793-0.803-1.793-1.793
		c0-0.99,0.803-1.793,1.793-1.793C146.863,121.316,147.666,122.119,147.666,123.109"/>
	<path fill="#153F2A" d="M147.666,129.966c0,0.99-0.803,1.793-1.793,1.793c-0.99,0-1.793-0.803-1.793-1.793s0.803-1.793,1.793-1.793
		C146.863,128.173,147.666,128.976,147.666,129.966"/>
	<path fill="#153F2A" d="M147.666,136.824c0,0.99-0.803,1.793-1.793,1.793c-0.99,0-1.793-0.803-1.793-1.793
		c0-0.99,0.803-1.793,1.793-1.793C146.863,135.031,147.666,135.834,147.666,136.824"/>
	<path fill="#153F2A" d="M147.666,143.682c0,0.99-0.803,1.793-1.793,1.793c-0.99,0-1.793-0.803-1.793-1.793s0.803-1.793,1.793-1.793
		C146.863,141.889,147.666,142.692,147.666,143.682"/>
	<path fill="#153F2A" d="M147.666,150.54c0,0.99-0.803,1.793-1.793,1.793c-0.99,0-1.793-0.803-1.793-1.793s0.803-1.793,1.793-1.793
		C146.863,148.747,147.666,149.55,147.666,150.54"/>
	<path fill="none" stroke="#153F2A" stroke-miterlimit="10" d="M68.99,122.44h9.551c0.313,0,0.566-0.253,0.566-0.565V95.972
		c0-0.312,0.253-0.565,0.565-0.565h65.602c0.312,0,0.565,0.253,0.565,0.565v6.28c0,0.312,0.253,0.565,0.565,0.565h6.761
		c0.312,0,0.565,0.253,0.565,0.565v9.796c0,0.312-0.253,0.565-0.565,0.565h-6.887c-0.312,0-0.565,0.253-0.565,0.565v36.232"/>
</g>
</svg>
