<?xml version="1.0" encoding="utf-8"?>
<!-- Generator: Adobe Illustrator 17.1.0, SVG Export Plug-In . SVG Version: 6.00 Build 0)  -->
<!DOCTYPE svg PUBLIC "-//W3C//DTD SVG 1.1//EN" "http://www.w3.org/Graphics/SVG/1.1/DTD/svg11.dtd">
<svg version="1.1" id="Layer_1" xmlns="http://www.w3.org/2000/svg" xmlns:xlink="http://www.w3.org/1999/xlink" x="0px" y="0px"
	 viewBox="0 0 221.5 221.5" enable-background="new 0 0 221.5 221.5" xml:space="preserve">
<g>
	<path fill="#FFFFFF" stroke="#163F2A" stroke-width="2.5709" stroke-miterlimit="10" d="M157.415,102.966l-3.199-37.972
		c-0.019-0.229,0.062-0.454,0.222-0.618c0,0-0.488-2.532-0.522-2.941l-0.043-0.505c-0.034-0.409-0.376-0.723-0.787-0.723H68.229
		c-0.677,0,0.954,3.225,0.936,3.438l-3.477,41.276c0,0.043,0,0.087,0,0.13l3.433,39.175c0.073,0.836,0.773,1.477,1.612,1.477h81.541
		c1.058,0,1.934-0.821,2.004-1.877c0.55-8.232,3.136-40.727,3.136-40.727C157.419,103.055,157.419,103.01,157.415,102.966z"/>
	<g>
		<path fill="#FFFFFF" stroke="#163F2A" stroke-width="2.5709" stroke-miterlimit="10" d="M148.34,163.877h-7.453
			c-1.331,0-2.41-1.079-2.41-2.41v-15.634c0-1.331,1.079-2.41,2.41-2.41h7.453c1.331,0,2.41,1.079,2.41,2.41v15.634
			C150.75,162.798,149.671,163.877,148.34,163.877z"/>
		<path fill="#FFFFFF" stroke="#163F2A" stroke-width="2.5709" stroke-miterlimit="10" d="M82.216,163.877h-7.453
			c-1.331,0-2.41-1.079-2.41-2.41v-15.634c0-1.331,1.079-2.41,2.41-2.41h7.453c1.331,0,2.41,1.079,2.41,2.41v15.634
			C84.626,162.798,83.547,163.877,82.216,163.877z"/>
	</g>
	<path fill="#FFFFFF" stroke="#163F2A" stroke-width="2.5709" stroke-miterlimit="10" d="M156.21,64.208
		c0,0-35.315-1.369-44.658-1.369s-44.658,1.369-44.658,1.369c-0.436,0-0.79-0.354-0.79-0.79v-7.182c0-0.436,0.354-0.79,0.79-0.79
		c0,0,34.037-1.527,44.658-1.527s44.658,1.527,44.658,1.527c0.436,0,0.79,0.354,0.79,0.79v7.182
		C156.999,63.855,156.646,64.208,156.21,64.208z"/>
	<path fill="#FFFFFF" stroke="#163F2A" stroke-width="2.5709" stroke-miterlimit="10" d="M133.661,148.579H89.443
		c-0.541,0-0.922-0.533-0.747-1.045l3.376-9.887c0.109-0.32,0.41-0.535,0.747-0.535h37.466c0.338,0,0.638,0.215,0.747,0.535
		l3.376,9.887C134.583,148.046,134.202,148.579,133.661,148.579z"/>
	<path fill="#FFFFFF" stroke="#163F2A" stroke-width="2.5709" stroke-miterlimit="10" d="M61.441,142.687
		c-0.431,0-0.79,0.397-0.79,0.79c0,0.393,0,1.695,0,1.695c0,0.487,0.26,0.936,0.681,1.179l6.59,3.802h0.28
		c0,0,19.994,2.779,42.474,2.779s44.225-2.779,44.225-2.779h0.28l6.877-3.967c0.244-0.141,0.395-0.402,0.395-0.684
		c0,0,0-1.671,0-2.025s-0.321-0.79-0.79-0.79C161.195,142.687,61.871,142.687,61.441,142.687z"/>
	<g>
		<g>
			<path fill="#FFFFFF" stroke="#163F2A" stroke-width="2.5709" stroke-miterlimit="10" d="M86.692,114.811H74.119
				c-0.436,0-0.79-0.354-0.79-0.79v-4.269c0-0.476,0.419-0.844,0.891-0.783l11.168,1.444c0.261,0.034,0.488,0.196,0.606,0.431
				l1.405,2.824C87.66,114.194,87.278,114.811,86.692,114.811z"/>
			<path fill="#FFFFFF" stroke="#163F2A" stroke-width="2.5709" stroke-miterlimit="10" d="M87.748,123.209H74.119
				c-0.436,0-0.79-0.354-0.79-0.79v-3.673c0-0.436,0.354-0.79,0.79-0.79h12.402c0.34,0,0.641,0.217,0.749,0.54l1.227,3.673
				C88.667,122.68,88.287,123.209,87.748,123.209z"/>
		</g>
		<g>
			<path fill="#FFFFFF" stroke="#163F2A" stroke-width="2.5709" stroke-miterlimit="10" d="M136.412,114.811h12.573
				c0.436,0,0.79-0.354,0.79-0.79v-4.269c0-0.476-0.419-0.844-0.891-0.783l-11.168,1.444c-0.261,0.034-0.488,0.196-0.606,0.431
				l-1.405,2.824C135.444,114.194,135.825,114.811,136.412,114.811z"/>
			<path fill="#FFFFFF" stroke="#163F2A" stroke-width="2.5709" stroke-miterlimit="10" d="M135.356,123.209h13.629
				c0.436,0,0.79-0.354,0.79-0.79v-3.673c0-0.436-0.354-0.79-0.79-0.79h-12.402c-0.34,0-0.641,0.217-0.749,0.54l-1.227,3.673
				C134.436,122.68,134.817,123.209,135.356,123.209z"/>
		</g>
	</g>
	<path fill="#FFFFFF" stroke="#163F2A" stroke-width="2.5709" stroke-miterlimit="10" d="M146.732,72.82
		c-0.031-0.368-0.325-0.655-0.694-0.672c-3.929-0.184-24.95-1.144-34.52-1.144c-9.569,0-28.957,0.961-32.577,1.144
		c-0.346,0.018-0.629,0.274-0.684,0.616l-3.937,24.25c-0.074,0.456,0.284,0.867,0.746,0.853c4.831-0.151,28.02-0.862,36.453-0.862
		c8.473,0,31.843,0.718,36.52,0.864c0.44,0.014,0.789-0.359,0.751-0.797L146.732,72.82z"/>
	<path fill="#FFFFFF" stroke="#163F2A" stroke-width="2.5709" stroke-miterlimit="10" d="M119.4,113.235h-15.697
		c-0.42,0-0.795-0.265-0.935-0.662l-2.779-7.885h23.124l-2.779,7.885C120.195,112.97,119.821,113.235,119.4,113.235z"/>
	<circle fill="#FFFFFF" stroke="#163F2A" stroke-width="2.5709" stroke-miterlimit="10" cx="111.552" cy="109.514" r="0.875"/>
	<path fill="#FFFFFF" stroke="#163F2A" stroke-width="2.5709" stroke-miterlimit="10" d="M151.242,100.956
		c0,0.455-0.344,0.835-0.798,0.877c-4.864,0.45-30.592,2.795-38.892,2.795s-34.028-2.345-38.892-2.795
		c-0.453-0.042-0.798-0.422-0.798-0.877v-3.032c0-0.475,0.374-0.864,0.849-0.881c5.238-0.178,33.127-1.119,38.841-1.119
		s33.603,0.94,38.841,1.119c0.475,0.016,0.849,0.406,0.849,0.881V100.956z"/>
</g>
</svg>
