<?xml version="1.0" encoding="utf-8"?>
<!-- Generator: Adobe Illustrator 17.1.0, SVG Export Plug-In . SVG Version: 6.00 Build 0)  -->
<!DOCTYPE svg PUBLIC "-//W3C//DTD SVG 1.1//EN" "http://www.w3.org/Graphics/SVG/1.1/DTD/svg11.dtd">
<svg version="1.1" id="Layer_1" xmlns="http://www.w3.org/2000/svg" xmlns:xlink="http://www.w3.org/1999/xlink" x="0px" y="0px"
	 viewBox="0 0 221.5 221.5" enable-background="new 0 0 221.5 221.5" xml:space="preserve">
<g>
	<g>
		<path fill="#FFFFFF" stroke="#163F2A" stroke-width="2.5709" stroke-miterlimit="10" d="M79.072,150.388h-8.5
			c-1.08,0-1.956-0.876-1.956-1.956v-12.884c0-1.08,0.876-1.956,1.956-1.956h8.5c1.08,0,1.956,0.876,1.956,1.956v12.884
			C81.028,149.512,80.152,150.388,79.072,150.388z"/>
		<path fill="#FFFFFF" stroke="#163F2A" stroke-width="2.5709" stroke-miterlimit="10" d="M149.691,150.785h-8.789
			c-1.08,0-1.956-0.876-1.956-1.956v-11.675c0-1.08,0.876-1.956,1.956-1.956h8.789c1.08,0,1.956,0.876,1.956,1.956v11.675
			C151.647,149.909,150.771,150.785,149.691,150.785z"/>
	</g>
	<g>
		
			<line fill="#FFFFFF" stroke="#163F2A" stroke-width="2.5709" stroke-miterlimit="10" x1="61.662" y1="91.221" x2="74.222" y2="91.221"/>
		
			<line fill="#FFFFFF" stroke="#163F2A" stroke-width="2.5709" stroke-miterlimit="10" x1="145.556" y1="91.221" x2="158.116" y2="91.221"/>
		<path fill="#FFFFFF" stroke="#163F2A" stroke-width="2.5709" stroke-miterlimit="10" d="M59.354,96.896V85.547
			c0-0.886,0.718-1.604,1.604-1.604h4.159c0.886,0,1.604,0.718,1.604,1.604v11.349c0,0.886-0.718,1.604-1.604,1.604h-4.159
			C60.072,98.5,59.354,97.782,59.354,96.896z"/>
		<path fill="#FFFFFF" stroke="#163F2A" stroke-width="2.5709" stroke-miterlimit="10" d="M153.541,96.896V85.547
			c0-0.886,0.718-1.604,1.604-1.604h4.159c0.886,0,1.604,0.718,1.604,1.604v11.349c0,0.886-0.718,1.604-1.604,1.604h-4.159
			C154.26,98.5,153.541,97.782,153.541,96.896z"/>
	</g>
	<path fill="#FFFFFF" stroke="#163F2A" stroke-width="2.5709" stroke-miterlimit="10" d="M153.843,116.155l-9.945-48.94
		c-0.127-0.331-0.445-0.549-0.8-0.549H110.21H77.165c-0.355,0-0.674,0.219-0.801,0.552l-9.946,48.94
		c-0.192,0.561,0.18,1.162,0.718,1.162h5.742l8.55-43.796c0.094-0.247,0.331-0.411,0.596-0.411h4.932h20.836h4.839h20.715h4.932
		c0.264,0,0.5,0.162,0.595,0.409l9.097,43.798h5.156C153.665,117.32,154.037,116.716,153.843,116.155z"/>
	<path fill="#FFFFFF" stroke="#163F2A" stroke-width="2.5709" stroke-miterlimit="10" d="M155.71,104.566H64.553
		c-1.06,0-1.918,0.859-1.918,1.918v19.149c0,1.06,0.859,1.918,1.918,1.918h91.157c1.06,0,1.918-0.859,1.918-1.918v-19.149
		C157.628,105.425,156.769,104.566,155.71,104.566z"/>
	
		<rect x="83.124" y="109.639" fill="#FFFFFF" stroke="#163F2A" stroke-width="2.5709" stroke-miterlimit="10" width="54.015" height="12.84"/>
	<g>
		<g>
			<path fill="#FFFFFF" stroke="#163F2A" stroke-width="2.5709" stroke-miterlimit="10" d="M157.785,121.325H143.23
				c-1.032,0-1.869-0.837-1.869-1.869v-6.795c0-1.032,0.837-1.869,1.869-1.869h14.555c1.032,0,1.869,0.837,1.869,1.869v6.795
				C159.654,120.489,158.817,121.325,157.785,121.325z"/>
			
				<line fill="#FFFFFF" stroke="#163F2A" stroke-width="2.5709" stroke-miterlimit="10" x1="154.27" y1="110.793" x2="154.27" y2="121.325"/>
		</g>
		<g>
			<path fill="#FFFFFF" stroke="#163F2A" stroke-width="2.5709" stroke-miterlimit="10" d="M62.343,110.793h14.826
				c0.957,0,1.733,0.776,1.733,1.733v7.066c0,0.957-0.776,1.733-1.733,1.733H62.343c-0.957,0-1.733-0.776-1.733-1.733v-7.066
				C60.609,111.569,61.385,110.793,62.343,110.793z"/>
			
				<line fill="#FFFFFF" stroke="#163F2A" stroke-width="2.5709" stroke-miterlimit="10" x1="65.993" y1="121.325" x2="65.993" y2="110.793"/>
		</g>
	</g>
	<path fill="#FFFFFF" stroke="#163F2A" stroke-width="2.5709" stroke-miterlimit="10" d="M156.281,137.607h-92.3
		c-0.82,0-1.564-0.48-1.901-1.228l-3.275-7.263c-0.622-1.38,0.387-2.942,1.901-2.942h98.851c1.514,0,2.523,1.562,1.901,2.942
		l-3.275,7.263C157.845,137.127,157.101,137.607,156.281,137.607z"/>
	<g>
		
			<line fill="#FFFFFF" stroke="#163F2A" stroke-width="2.5709" stroke-miterlimit="10" x1="106.273" y1="109.54" x2="106.273" y2="122.906"/>
		
			<line fill="#FFFFFF" stroke="#163F2A" stroke-width="2.5709" stroke-miterlimit="10" x1="98.557" y1="109.54" x2="98.557" y2="122.906"/>
		
			<line fill="#FFFFFF" stroke="#163F2A" stroke-width="2.5709" stroke-miterlimit="10" x1="90.84" y1="109.54" x2="90.84" y2="122.906"/>
		
			<line fill="#FFFFFF" stroke="#163F2A" stroke-width="2.5709" stroke-miterlimit="10" x1="83.124" y1="109.54" x2="83.124" y2="122.906"/>
		
			<line fill="#FFFFFF" stroke="#163F2A" stroke-width="2.5709" stroke-miterlimit="10" x1="137.139" y1="109.54" x2="137.139" y2="122.906"/>
		<g>
			
				<line fill="#FFFFFF" stroke="#163F2A" stroke-width="2.5709" stroke-miterlimit="10" x1="113.99" y1="109.54" x2="113.99" y2="122.906"/>
		</g>
		
			<line fill="#FFFFFF" stroke="#163F2A" stroke-width="2.5709" stroke-miterlimit="10" x1="129.423" y1="109.54" x2="129.423" y2="122.906"/>
		
			<line fill="#FFFFFF" stroke="#163F2A" stroke-width="2.5709" stroke-miterlimit="10" x1="121.706" y1="109.54" x2="121.706" y2="122.906"/>
	</g>
	
		<ellipse fill="#FFFFFF" stroke="#163F2A" stroke-width="2.5709" stroke-miterlimit="10" cx="110.131" cy="116.059" rx="6.254" ry="2.825"/>
	<path fill="#FFFFFF" stroke="#163F2A" stroke-width="2.5709" stroke-miterlimit="10" d="M118.551,62.559h-16.839
		c-1.371,0-2.482-1.111-2.482-2.482v-2.204c0-1.371,1.111-2.482,2.482-2.482h16.839c1.371,0,2.482,1.111,2.482,2.482v2.204
		C121.032,61.448,119.921,62.559,118.551,62.559z"/>
</g>
</svg>
