<?xml version="1.0" encoding="utf-8"?>
<!-- Generator: Adobe Illustrator 17.1.0, SVG Export Plug-In . SVG Version: 6.00 Build 0)  -->
<!DOCTYPE svg PUBLIC "-//W3C//DTD SVG 1.1//EN" "http://www.w3.org/Graphics/SVG/1.1/DTD/svg11.dtd">
<svg version="1.1" id="Layer_1" xmlns="http://www.w3.org/2000/svg" xmlns:xlink="http://www.w3.org/1999/xlink" x="0px" y="0px"
	 viewBox="0 0 221.5 188" enable-background="new 0 0 221.5 188" xml:space="preserve">
<g>
	<g>
		<defs>
			<rect id="SVGID_100_" x="48" y="100.557" width="125.73" height="89.939"/>
		</defs>
		<clipPath id="SVGID_38_">
			<use xlink:href="#SVGID_100_"  overflow="visible"/>
		</clipPath>
		<path clip-path="url(#SVGID_38_)" fill="#153F2A" d="M96.231,156.925H78.52c-0.98,0-1.775-0.794-1.775-1.774v-5.771
			c0-0.98,0.795-1.774,1.775-1.774h17.711c0.98,0,1.774,0.794,1.774,1.774v5.771C98.005,156.131,97.211,156.925,96.231,156.925"/>
		<path clip-path="url(#SVGID_38_)" fill="#153F2A" d="M96.231,144.717H78.52c-0.98,0-1.775-0.794-1.775-1.774v-5.771
			c0-0.98,0.795-1.774,1.775-1.774h17.711c0.98,0,1.774,0.794,1.774,1.774v5.771C98.005,143.923,97.211,144.717,96.231,144.717"/>
		
			<line clip-path="url(#SVGID_38_)" fill="none" stroke="#153F2A" stroke-width="2.075" stroke-miterlimit="10" x1="51.848" y1="145.222" x2="67.141" y2="145.222"/>
	</g>
	
		<line fill="none" stroke="#153F2A" stroke-width="2.075" stroke-miterlimit="10" x1="153.998" y1="145.222" x2="169.291" y2="145.222"/>
	<g>
		<defs>
			<rect id="SVGID_102_" x="48" y="100.557" width="125.73" height="89.939"/>
		</defs>
		<clipPath id="SVGID_39_">
			<use xlink:href="#SVGID_102_"  overflow="visible"/>
		</clipPath>
		<path clip-path="url(#SVGID_39_)" fill="#FFFFFF" d="M49.037,152.132v-13.819c0-1.079,0.874-1.953,1.953-1.953h5.065
			c1.078,0,1.953,0.874,1.953,1.953v13.819c0,1.079-0.875,1.953-1.953,1.953h-5.065C49.911,154.085,49.037,153.211,49.037,152.132"
			/>
		<path clip-path="url(#SVGID_39_)" fill="none" stroke="#153F2A" stroke-width="2.075" stroke-miterlimit="10" d="M49.037,152.132
			v-13.819c0-1.079,0.874-1.953,1.953-1.953h5.065c1.078,0,1.953,0.874,1.953,1.953v13.819c0,1.079-0.875,1.953-1.953,1.953h-5.065
			C49.911,154.085,49.037,153.211,49.037,152.132z"/>
		<path clip-path="url(#SVGID_39_)" fill="#FFFFFF" d="M163.721,152.132v-13.819c0-1.079,0.875-1.953,1.953-1.953h5.065
			c1.078,0,1.953,0.874,1.953,1.953v13.819c0,1.079-0.875,1.953-1.953,1.953h-5.065
			C164.596,154.085,163.721,153.211,163.721,152.132"/>
		<path clip-path="url(#SVGID_39_)" fill="none" stroke="#153F2A" stroke-width="2.075" stroke-miterlimit="10" d="M163.721,152.132
			v-13.819c0-1.079,0.875-1.953,1.953-1.953h5.065c1.078,0,1.953,0.874,1.953,1.953v13.819c0,1.079-0.875,1.953-1.953,1.953h-5.065
			C164.596,154.085,163.721,153.211,163.721,152.132z"/>
		<path clip-path="url(#SVGID_39_)" fill="#FFFFFF" d="M164.089,175.581l-12.109-59.59c-0.155-0.403-0.542-0.669-0.973-0.669
			h-40.046H70.725c-0.432,0-0.82,0.268-0.974,0.672l-12.11,59.59c-0.234,0.683,0.218,1.415,0.874,1.415h6.991l10.41-53.327
			c0.115-0.301,0.404-0.5,0.726-0.5h6.005h25.37h5.892h25.223h6.005c0.321,0,0.609,0.198,0.725,0.498l11.076,53.329h6.278
			C163.873,176.999,164.325,176.264,164.089,175.581"/>
		<path clip-path="url(#SVGID_39_)" fill="none" stroke="#153F2A" stroke-width="2.075" stroke-miterlimit="10" d="M164.089,175.581
			l-12.109-59.59c-0.155-0.403-0.542-0.669-0.973-0.669h-40.046H70.725c-0.432,0-0.82,0.268-0.974,0.672l-12.11,59.59
			c-0.234,0.683,0.218,1.415,0.874,1.415h6.991l10.41-53.327c0.115-0.301,0.404-0.5,0.726-0.5h6.005h25.37h5.892h25.223h6.005
			c0.321,0,0.609,0.198,0.725,0.498l11.076,53.329h6.278C163.873,176.999,164.325,176.264,164.089,175.581z"/>
		<path clip-path="url(#SVGID_39_)" fill="#FFFFFF" d="M166.362,161.471H55.368c-1.29,0-2.336,1.046-2.336,2.336v23.316
			c0,1.29,1.046,2.336,2.336,2.336h110.994c1.29,0,2.336-1.046,2.336-2.336v-23.316
			C168.698,162.517,167.652,161.471,166.362,161.471"/>
		<path clip-path="url(#SVGID_39_)" fill="none" stroke="#153F2A" stroke-width="2.075" stroke-miterlimit="10" d="M166.362,161.471
			H55.368c-1.29,0-2.336,1.046-2.336,2.336v23.316c0,1.29,1.046,2.336,2.336,2.336h110.994c1.29,0,2.336-1.046,2.336-2.336v-23.316
			C168.698,162.517,167.652,161.471,166.362,161.471z"/>
	</g>
	<rect x="77.98" y="167.647" fill="#FFFFFF" width="65.77" height="15.634"/>
	
		<rect x="77.98" y="167.647" fill="none" stroke="#153F2A" stroke-width="2.075" stroke-miterlimit="10" width="65.77" height="15.634"/>
	<g>
		<defs>
			<rect id="SVGID_104_" x="48" y="100.557" width="125.73" height="89.939"/>
		</defs>
		<clipPath id="SVGID_40_">
			<use xlink:href="#SVGID_104_"  overflow="visible"/>
		</clipPath>
		<path clip-path="url(#SVGID_40_)" fill="#FFFFFF" d="M168.889,181.877h-17.722c-1.257,0-2.276-1.019-2.276-2.275v-8.274
			c0-1.257,1.019-2.275,2.276-2.275h17.722c1.257,0,2.275,1.018,2.275,2.275v8.274C171.164,180.858,170.146,181.877,168.889,181.877
			"/>
		<path clip-path="url(#SVGID_40_)" fill="none" stroke="#153F2A" stroke-width="2.075" stroke-miterlimit="10" d="M168.889,181.877
			h-17.722c-1.257,0-2.276-1.019-2.276-2.275v-8.274c0-1.257,1.019-2.275,2.276-2.275h17.722c1.257,0,2.275,1.018,2.275,2.275v8.274
			C171.164,180.858,170.146,181.877,168.889,181.877z"/>
	</g>
	
		<line fill="none" stroke="#153F2A" stroke-width="2.075" stroke-miterlimit="10" x1="164.609" y1="169.053" x2="164.609" y2="181.877"/>
	<g>
		<defs>
			<rect id="SVGID_106_" x="48" y="100.557" width="125.73" height="89.939"/>
		</defs>
		<clipPath id="SVGID_41_">
			<use xlink:href="#SVGID_106_"  overflow="visible"/>
		</clipPath>
		<path clip-path="url(#SVGID_41_)" fill="#FFFFFF" d="M52.676,169.053h18.052c1.166,0,2.111,0.945,2.111,2.11v8.604
			c0,1.165-0.945,2.11-2.111,2.11H52.676c-1.165,0-2.11-0.945-2.11-2.11v-8.604C50.566,169.998,51.511,169.053,52.676,169.053"/>
		<path clip-path="url(#SVGID_41_)" fill="none" stroke="#153F2A" stroke-width="2.075" stroke-miterlimit="10" d="M52.676,169.053
			h18.052c1.166,0,2.111,0.945,2.111,2.11v8.604c0,1.165-0.945,2.11-2.111,2.11H52.676c-1.165,0-2.11-0.945-2.11-2.11v-8.604
			C50.566,169.998,51.511,169.053,52.676,169.053z"/>
	</g>
	
		<line fill="none" stroke="#153F2A" stroke-width="2.075" stroke-miterlimit="10" x1="57.121" y1="181.877" x2="57.121" y2="169.053"/>
	
		<line fill="none" stroke="#153F2A" stroke-width="2.075" stroke-miterlimit="10" x1="106.167" y1="167.528" x2="106.167" y2="183.802"/>
	
		<line fill="none" stroke="#153F2A" stroke-width="2.075" stroke-miterlimit="10" x1="96.771" y1="167.528" x2="96.771" y2="183.802"/>
	
		<line fill="none" stroke="#153F2A" stroke-width="2.075" stroke-miterlimit="10" x1="87.376" y1="167.528" x2="87.376" y2="183.802"/>
	
		<line fill="none" stroke="#153F2A" stroke-width="2.075" stroke-miterlimit="10" x1="77.98" y1="167.528" x2="77.98" y2="183.802"/>
	
		<line fill="none" stroke="#153F2A" stroke-width="2.075" stroke-miterlimit="10" x1="143.75" y1="167.528" x2="143.75" y2="183.802"/>
	
		<line fill="none" stroke="#153F2A" stroke-width="2.075" stroke-miterlimit="10" x1="115.563" y1="167.528" x2="115.563" y2="183.802"/>
	
		<line fill="none" stroke="#153F2A" stroke-width="2.075" stroke-miterlimit="10" x1="134.354" y1="167.528" x2="134.354" y2="183.802"/>
	
		<line fill="none" stroke="#153F2A" stroke-width="2.075" stroke-miterlimit="10" x1="124.959" y1="167.528" x2="124.959" y2="183.802"/>
	<g>
		<defs>
			<rect id="SVGID_108_" x="48" y="100.557" width="125.73" height="89.939"/>
		</defs>
		<clipPath id="SVGID_42_">
			<use xlink:href="#SVGID_108_"  overflow="visible"/>
		</clipPath>
		<path clip-path="url(#SVGID_42_)" fill="#FFFFFF" d="M118.479,175.465c0,1.9-3.409,3.44-7.614,3.44
			c-4.206,0-7.615-1.54-7.615-3.44s3.409-3.44,7.615-3.44C115.07,172.025,118.479,173.565,118.479,175.465"/>
		
			<ellipse clip-path="url(#SVGID_42_)" fill="none" stroke="#153F2A" stroke-width="2.075" stroke-miterlimit="10" cx="110.865" cy="175.465" rx="7.615" ry="3.44"/>
		<path clip-path="url(#SVGID_42_)" fill="#FFFFFF" d="M121.116,110.323h-20.503c-1.669,0-3.021-1.353-3.021-3.022v-2.684
			c0-1.669,1.352-3.022,3.021-3.022h20.503c1.669,0,3.022,1.353,3.022,3.022v2.684C124.138,108.97,122.785,110.323,121.116,110.323"
			/>
		<path clip-path="url(#SVGID_42_)" fill="none" stroke="#153F2A" stroke-width="2.075" stroke-miterlimit="10" d="M121.116,110.323
			h-20.503c-1.669,0-3.021-1.353-3.021-3.022v-2.684c0-1.669,1.352-3.022,3.021-3.022h20.503c1.669,0,3.022,1.353,3.022,3.022v2.684
			C124.138,108.97,122.785,110.323,121.116,110.323z"/>
	</g>
</g>
</svg>
