<?xml version="1.0" encoding="utf-8"?>
<!-- Generator: Adobe Illustrator 17.1.0, SVG Export Plug-In . SVG Version: 6.00 Build 0)  -->
<!DOCTYPE svg PUBLIC "-//W3C//DTD SVG 1.1//EN" "http://www.w3.org/Graphics/SVG/1.1/DTD/svg11.dtd">
<svg version="1.1" id="Layer_1" xmlns="http://www.w3.org/2000/svg" xmlns:xlink="http://www.w3.org/1999/xlink" x="0px" y="0px"
	 viewBox="0 0 221.5 189.5" enable-background="new 0 0 221.5 189.5" xml:space="preserve">
<g>
	<defs>
		<rect id="SVGID_36_" x="31.756" y="73.6" width="156.875" height="109.601"/>
	</defs>
	<clipPath id="SVGID_38_">
		<use xlink:href="#SVGID_36_"  overflow="visible"/>
	</clipPath>
	<path clip-path="url(#SVGID_38_)" fill="#FFFFFF" d="M132.911,138.236h-5.649c-0.718,0-1.3-0.588-1.3-1.313v-8.65
		c0-0.725,0.582-1.313,1.3-1.313h5.649c0.718,0,1.3,0.588,1.3,1.313v8.65C134.211,137.648,133.629,138.236,132.911,138.236"/>
	<path clip-path="url(#SVGID_38_)" fill="#153F2A" d="M127.262,127.816c-0.249,0-0.451,0.204-0.451,0.456v8.65
		c0,0.252,0.202,0.457,0.451,0.457h5.649c0.249,0,0.452-0.205,0.452-0.457v-8.65c0-0.252-0.203-0.456-0.452-0.456H127.262z
		 M132.911,139.092h-5.649c-1.184,0-2.147-0.974-2.147-2.17v-8.65c0-1.196,0.963-2.17,2.147-2.17h5.649
		c1.184,0,2.148,0.974,2.148,2.17v8.65C135.059,138.118,134.095,139.092,132.911,139.092"/>
	<path clip-path="url(#SVGID_38_)" fill="#153F2A" d="M173.646,128.522c-0.249,0-0.451,0.205-0.451,0.457v7.839
		c0,0.252,0.202,0.456,0.451,0.456h5.841c0.249,0,0.452-0.204,0.452-0.456v-7.839c0-0.252-0.203-0.457-0.452-0.457H173.646z
		 M179.487,138.987h-5.841c-1.184,0-2.147-0.973-2.147-2.169v-7.839c0-1.196,0.963-2.17,2.147-2.17h5.841
		c1.184,0,2.148,0.974,2.148,2.17v7.839C181.635,138.014,180.671,138.987,179.487,138.987"/>
</g>
<rect x="121.341" y="97.655" fill="#153F2A" width="8.346" height="1.713"/>
<rect x="177.093" y="97.655" fill="#153F2A" width="8.346" height="1.713"/>
<g>
	<defs>
		<rect id="SVGID_35_" x="31.756" y="73.6" width="156.875" height="109.601"/>
	</defs>
	<clipPath id="SVGID_39_">
		<use xlink:href="#SVGID_35_"  overflow="visible"/>
	</clipPath>
	<path clip-path="url(#SVGID_39_)" fill="#FFFFFF" d="M119.807,102.321v-7.62c0-0.595,0.477-1.077,1.066-1.077h2.764
		c0.589,0,1.066,0.482,1.066,1.077v7.62c0,0.595-0.477,1.077-1.066,1.077h-2.764C120.284,103.398,119.807,102.916,119.807,102.321"
		/>
	<path clip-path="url(#SVGID_39_)" fill="#153F2A" d="M120.873,94.481c-0.121,0-0.218,0.099-0.218,0.22v7.621
		c0,0.121,0.097,0.22,0.218,0.22h2.764c0.12,0,0.218-0.099,0.218-0.22v-7.621c0-0.121-0.098-0.22-0.218-0.22H120.873z
		 M123.637,104.255h-2.764c-1.055,0-1.914-0.867-1.914-1.933v-7.621c0-1.066,0.859-1.933,1.914-1.933h2.764
		c1.055,0,1.914,0.867,1.914,1.933v7.621C125.551,103.388,124.692,104.255,123.637,104.255"/>
	<path clip-path="url(#SVGID_39_)" fill="#FFFFFF" d="M182.399,102.321v-7.62c0-0.595,0.477-1.077,1.066-1.077h2.764
		c0.589,0,1.066,0.482,1.066,1.077v7.62c0,0.595-0.477,1.077-1.066,1.077h-2.764C182.876,103.398,182.399,102.916,182.399,102.321"
		/>
	<path clip-path="url(#SVGID_39_)" fill="#153F2A" d="M183.465,94.481c-0.121,0-0.218,0.099-0.218,0.22v7.621
		c0,0.121,0.097,0.22,0.218,0.22h2.764c0.12,0,0.218-0.099,0.218-0.22v-7.621c0-0.121-0.098-0.22-0.218-0.22H183.465z
		 M186.23,104.255h-2.764c-1.055,0-1.914-0.867-1.914-1.933v-7.621c0-1.066,0.859-1.933,1.914-1.933h2.764
		c1.055,0,1.914,0.867,1.914,1.933v7.621C188.143,103.388,187.285,104.255,186.23,104.255"/>
	<path clip-path="url(#SVGID_39_)" fill="#FFFFFF" d="M182.6,115.252l-6.609-32.858c-0.084-0.222-0.296-0.369-0.531-0.369h-21.857
		h-21.959c-0.236,0-0.448,0.148-0.532,0.371l-6.61,32.858c-0.127,0.376,0.12,0.78,0.477,0.78h3.816l5.682-29.405
		c0.062-0.166,0.22-0.275,0.396-0.275h3.278h13.846h3.216h13.766h3.277c0.176,0,0.333,0.109,0.396,0.274l6.045,29.406h3.427
		C182.482,116.034,182.729,115.629,182.6,115.252"/>
	<path clip-path="url(#SVGID_39_)" fill="#153F2A" d="M179.387,115.177h2.333l-6.496-32.296H131.88l-6.497,32.296h2.714
		l5.588-28.855c0.188-0.494,0.665-0.826,1.188-0.826h37.383c0.521,0,0.998,0.33,1.187,0.821l0.039,0.136L179.387,115.177z
		 M182.124,116.89h-4.116l-6.102-29.68h-36.677l-5.735,29.68h-4.515c-0.433,0-0.829-0.209-1.088-0.574
		c-0.26-0.367-0.337-0.84-0.211-1.276l6.64-32.95c0.208-0.552,0.74-0.922,1.324-0.922h43.816c0.582,0,1.113,0.369,1.323,0.918
		l0.039,0.137l6.6,32.814c0.127,0.436,0.051,0.909-0.209,1.278C182.955,116.68,182.558,116.89,182.124,116.89"/>
	<path clip-path="url(#SVGID_39_)" fill="#FFFFFF" d="M183.841,107.471h-60.578c-0.705,0-1.275,0.577-1.275,1.288v12.857
		c0,0.711,0.57,1.288,1.275,1.288h60.578c0.704,0,1.275-0.577,1.275-1.288v-12.857C185.116,108.048,184.545,107.471,183.841,107.471
		"/>
	<path clip-path="url(#SVGID_39_)" fill="#153F2A" d="M123.262,108.327c-0.235,0-0.426,0.194-0.426,0.432v12.857
		c0,0.238,0.191,0.431,0.426,0.431h60.579c0.235,0,0.427-0.193,0.427-0.431v-12.857c0-0.238-0.192-0.432-0.427-0.432H123.262z
		 M183.841,123.76h-60.579c-1.17,0-2.122-0.962-2.122-2.144v-12.857c0-1.183,0.952-2.145,2.122-2.145h60.579
		c1.171,0,2.123,0.962,2.123,2.145v12.857C185.964,122.798,185.012,123.76,183.841,123.76"/>
</g>
<rect x="135.603" y="110.877" fill="#FFFFFF" width="35.896" height="8.621"/>
<path fill="#153F2A" d="M136.451,118.641h34.2v-6.907h-34.2V118.641z M172.347,120.354h-37.592v-10.333h37.592V120.354z"/>
<g>
	<defs>
		<rect id="SVGID_34_" x="31.756" y="73.6" width="156.875" height="109.601"/>
	</defs>
	<clipPath id="SVGID_40_">
		<use xlink:href="#SVGID_34_"  overflow="visible"/>
	</clipPath>
	<path clip-path="url(#SVGID_40_)" fill="#FFFFFF" d="M185.22,118.723h-9.673c-0.685,0-1.241-0.562-1.241-1.255v-4.562
		c0-0.693,0.556-1.255,1.241-1.255h9.673c0.686,0,1.242,0.562,1.242,1.255v4.562C186.462,118.161,185.906,118.723,185.22,118.723"/>
	<path clip-path="url(#SVGID_40_)" fill="#153F2A" d="M175.547,112.508c-0.217,0-0.394,0.179-0.394,0.399v4.561
		c0,0.22,0.177,0.399,0.394,0.399h9.673c0.217,0,0.394-0.179,0.394-0.399v-4.561c0-0.22-0.177-0.399-0.394-0.399H175.547z
		 M185.22,119.58h-9.673c-1.152,0-2.09-0.947-2.09-2.112v-4.561c0-1.165,0.938-2.112,2.09-2.112h9.673
		c1.152,0,2.09,0.947,2.09,2.112v4.561C187.31,118.633,186.372,119.58,185.22,119.58"/>
</g>
<rect x="182.035" y="111.651" fill="#153F2A" width="1.696" height="7.072"/>
<g>
	<defs>
		<rect id="SVGID_33_" x="31.756" y="73.6" width="156.875" height="109.601"/>
	</defs>
	<clipPath id="SVGID_41_">
		<use xlink:href="#SVGID_33_"  overflow="visible"/>
	</clipPath>
	<path clip-path="url(#SVGID_41_)" fill="#FFFFFF" d="M121.793,111.652h9.853c0.636,0,1.151,0.521,1.151,1.164v4.744
		c0,0.642-0.515,1.164-1.151,1.164h-9.853c-0.636,0-1.152-0.522-1.152-1.164v-4.744
		C120.641,112.173,121.157,111.652,121.793,111.652"/>
	<path clip-path="url(#SVGID_41_)" fill="#153F2A" d="M121.793,112.508c-0.167,0-0.304,0.138-0.304,0.307v4.745
		c0,0.169,0.137,0.307,0.304,0.307h9.853c0.168,0,0.304-0.138,0.304-0.307v-4.745c0-0.169-0.136-0.307-0.304-0.307H121.793z
		 M131.646,119.58h-9.853c-1.102,0-1.999-0.906-1.999-2.02v-4.745c0-1.114,0.897-2.02,1.999-2.02h9.853c1.103,0,2,0.906,2,2.02
		v4.745C133.646,118.674,132.749,119.58,131.646,119.58"/>
</g>
<rect x="123.371" y="111.651" fill="#153F2A" width="1.696" height="7.072"/>
<g>
	<defs>
		<rect id="SVGID_32_" x="31.756" y="73.6" width="156.875" height="109.601"/>
	</defs>
	<clipPath id="SVGID_42_">
		<use xlink:href="#SVGID_32_"  overflow="visible"/>
	</clipPath>
	<path clip-path="url(#SVGID_42_)" fill="#FFFFFF" d="M184.22,129.655h-61.338c-0.545,0-1.039-0.323-1.263-0.824l-2.177-4.877
		c-0.413-0.926,0.257-1.975,1.263-1.975h65.692c1.006,0,1.676,1.049,1.263,1.975l-2.177,4.877
		C185.259,129.332,184.765,129.655,184.22,129.655"/>
	<path clip-path="url(#SVGID_42_)" fill="#153F2A" d="M120.706,122.835c-0.265,0-0.404,0.174-0.452,0.249
		c-0.048,0.074-0.148,0.275-0.039,0.519l2.177,4.876c0.087,0.194,0.279,0.32,0.49,0.32h61.338c0.211,0,0.404-0.126,0.49-0.32
		l2.177-4.876c0.109-0.244,0.009-0.445-0.039-0.519c-0.047-0.075-0.187-0.249-0.451-0.249H120.706z M184.22,130.512h-61.338
		c-0.876,0-1.675-0.521-2.036-1.329l-2.177-4.876c-0.313-0.702-0.253-1.507,0.161-2.153c0.413-0.646,1.114-1.032,1.876-1.032h65.691
		c0.761,0,1.462,0.386,1.876,1.032c0.413,0.646,0.473,1.451,0.16,2.153l-2.177,4.876C185.895,129.99,185.096,130.512,184.22,130.512
		"/>
</g>
<rect x="150.139" y="110.81" fill="#153F2A" width="1.696" height="8.974"/>
<rect x="145.011" y="110.81" fill="#153F2A" width="1.696" height="8.974"/>
<rect x="139.883" y="110.81" fill="#153F2A" width="1.696" height="8.974"/>
<rect x="134.755" y="110.81" fill="#153F2A" width="1.696" height="8.974"/>
<rect x="170.651" y="110.81" fill="#153F2A" width="1.696" height="8.974"/>
<rect x="155.267" y="110.81" fill="#153F2A" width="1.696" height="8.974"/>
<rect x="165.523" y="110.81" fill="#153F2A" width="1.696" height="8.974"/>
<rect x="160.395" y="110.81" fill="#153F2A" width="1.696" height="8.974"/>
<g>
	<defs>
		<rect id="SVGID_31_" x="31.756" y="73.6" width="156.875" height="109.601"/>
	</defs>
	<clipPath id="SVGID_44_">
		<use xlink:href="#SVGID_31_"  overflow="visible"/>
	</clipPath>
	<path clip-path="url(#SVGID_44_)" fill="#FFFFFF" d="M157.707,115.187c0,1.048-1.861,1.897-4.156,1.897
		c-2.295,0-4.156-0.849-4.156-1.897c0-1.047,1.861-1.896,4.156-1.896C155.846,113.291,157.707,114.14,157.707,115.187"/>
	<path clip-path="url(#SVGID_44_)" fill="#153F2A" d="M153.551,114.148c-2.135,0-3.308,0.781-3.308,1.04
		c0,0.258,1.173,1.04,3.308,1.04c2.135,0,3.308-0.782,3.308-1.04C156.859,114.929,155.686,114.148,153.551,114.148 M153.551,117.941
		c-2.486,0-5.004-0.945-5.004-2.753c0-1.808,2.518-2.753,5.004-2.753c2.486,0,5.004,0.945,5.004,2.753
		C158.555,116.996,156.037,117.941,153.551,117.941"/>
	<path clip-path="url(#SVGID_44_)" fill="#FFFFFF" d="M159.146,79.268h-11.19c-0.911,0-1.649-0.746-1.649-1.666v-1.48
		c0-0.92,0.738-1.666,1.649-1.666h11.19c0.911,0,1.649,0.746,1.649,1.666v1.48C160.795,78.522,160.057,79.268,159.146,79.268"/>
	<path clip-path="url(#SVGID_44_)" fill="#153F2A" d="M147.957,75.312c-0.442,0-0.802,0.363-0.802,0.809v1.48
		c0,0.447,0.36,0.81,0.802,0.81h11.19c0.442,0,0.801-0.363,0.801-0.81v-1.48c0-0.446-0.359-0.809-0.801-0.809H147.957z
		 M159.147,80.124h-11.19c-1.377,0-2.497-1.132-2.497-2.523v-1.48c0-1.39,1.12-2.522,2.497-2.522h11.19
		c1.377,0,2.497,1.132,2.497,2.522v1.48C161.643,78.992,160.523,80.124,159.147,80.124"/>
	<path clip-path="url(#SVGID_44_)" fill="#FFFFFF" d="M60.648,94.573c0,4.964-4.024,8.987-8.987,8.987
		c-4.964,0-8.988-4.023-8.988-8.987c0-4.964,4.024-8.987,8.988-8.987C56.624,85.586,60.648,89.609,60.648,94.573"/>
	
		<circle clip-path="url(#SVGID_44_)" fill="none" stroke="#153F2A" stroke-width="2" stroke-miterlimit="10" cx="51.661" cy="94.573" r="8.988"/>
	<path clip-path="url(#SVGID_44_)" fill="#FFFFFF" d="M32.756,116.311v26.49c0,0.739,0.599,1.339,1.339,1.339h3.64
		c0.739,0,1.339-0.6,1.339-1.339v-23.488c0-0.739,0.599-1.339,1.339-1.339h0.027c0.739,0,1.339,0.6,1.339,1.339v61.548
		c0,0.74,0.599,1.339,1.339,1.339h4.073c0.739,0,1.339-0.599,1.339-1.339v-24.659c0-0.74,0.599-1.339,1.339-1.339h3.583
		c0.74,0,1.339,0.599,1.339,1.339v24.659c0,0.74,0.6,1.339,1.339,1.339h4.073c0.74,0,1.339-0.599,1.339-1.339v-61.548
		c0-0.739,0.6-1.339,1.339-1.339h0.027c0.74,0,1.339,0.6,1.339,1.339v23.488c0,0.739,0.6,1.339,1.339,1.339h3.64
		c0.74,0,1.339-0.6,1.339-1.339v-26.49c0-3.972-3.22-7.193-7.193-7.193H39.949C35.976,109.118,32.756,112.339,32.756,116.311"/>
	<path clip-path="url(#SVGID_44_)" fill="none" stroke="#153F2A" stroke-width="2" stroke-miterlimit="10" d="M32.756,116.311v26.49
		c0,0.739,0.599,1.339,1.339,1.339h3.64c0.739,0,1.339-0.6,1.339-1.339v-23.488c0-0.739,0.599-1.339,1.339-1.339h0.027
		c0.739,0,1.339,0.6,1.339,1.339v61.548c0,0.74,0.599,1.339,1.339,1.339h4.073c0.739,0,1.339-0.599,1.339-1.339v-24.659
		c0-0.74,0.599-1.339,1.339-1.339h3.583c0.74,0,1.339,0.599,1.339,1.339v24.659c0,0.74,0.6,1.339,1.339,1.339h4.073
		c0.74,0,1.339-0.599,1.339-1.339v-61.548c0-0.739,0.6-1.339,1.339-1.339h0.027c0.74,0,1.339,0.6,1.339,1.339v23.488
		c0,0.739,0.6,1.339,1.339,1.339h3.64c0.74,0,1.339-0.6,1.339-1.339v-26.49c0-3.972-3.22-7.193-7.193-7.193H39.949
		C35.976,109.118,32.756,112.339,32.756,116.311z"/>
	<path clip-path="url(#SVGID_44_)" fill="#FFFFFF" d="M77.779,94.369c0,4.964-4.024,8.987-8.987,8.987
		c-4.964,0-8.988-4.023-8.988-8.987c0-4.964,4.024-8.987,8.988-8.987C73.755,85.382,77.779,89.405,77.779,94.369"/>
	
		<circle clip-path="url(#SVGID_44_)" fill="none" stroke="#153F2A" stroke-width="2" stroke-miterlimit="10" cx="68.791" cy="94.369" r="8.988"/>
	<path clip-path="url(#SVGID_44_)" fill="#FFFFFF" d="M49.887,116.107v26.49c0,0.739,0.6,1.339,1.339,1.339h3.64
		c0.739,0,1.339-0.6,1.339-1.339v-23.488c0-0.739,0.599-1.339,1.339-1.339h0.027c0.739,0,1.339,0.6,1.339,1.339v61.548
		c0,0.74,0.599,1.339,1.339,1.339h4.073c0.739,0,1.339-0.599,1.339-1.339v-24.659c0-0.74,0.599-1.339,1.339-1.339h3.583
		c0.74,0,1.339,0.599,1.339,1.339v24.659c0,0.74,0.6,1.339,1.339,1.339h4.073c0.74,0,1.339-0.599,1.339-1.339v-61.548
		c0-0.739,0.6-1.339,1.339-1.339h0.027c0.74,0,1.339,0.6,1.339,1.339v23.488c0,0.739,0.6,1.339,1.339,1.339h3.64
		c0.74,0,1.339-0.6,1.339-1.339v-26.49c0-3.972-3.22-7.193-7.193-7.193H57.08C53.107,108.914,49.887,112.135,49.887,116.107"/>
	<path clip-path="url(#SVGID_44_)" fill="none" stroke="#153F2A" stroke-width="2" stroke-miterlimit="10" d="M49.887,116.107v26.49
		c0,0.739,0.6,1.339,1.339,1.339h3.64c0.739,0,1.339-0.6,1.339-1.339v-23.488c0-0.739,0.599-1.339,1.339-1.339h0.027
		c0.739,0,1.339,0.6,1.339,1.339v61.548c0,0.74,0.599,1.339,1.339,1.339h4.073c0.739,0,1.339-0.599,1.339-1.339v-24.659
		c0-0.74,0.599-1.339,1.339-1.339h3.583c0.74,0,1.339,0.599,1.339,1.339v24.659c0,0.74,0.6,1.339,1.339,1.339h4.073
		c0.74,0,1.339-0.599,1.339-1.339v-61.548c0-0.739,0.6-1.339,1.339-1.339h0.027c0.74,0,1.339,0.6,1.339,1.339v23.488
		c0,0.739,0.6,1.339,1.339,1.339h3.64c0.74,0,1.339-0.6,1.339-1.339v-26.49c0-3.972-3.22-7.193-7.193-7.193H57.08
		C53.107,108.914,49.887,112.135,49.887,116.107z"/>
	<path clip-path="url(#SVGID_44_)" fill="#FFFFFF" d="M95.584,94.592c0,4.964-4.024,8.987-8.987,8.987
		c-4.964,0-8.988-4.023-8.988-8.987s4.024-8.987,8.988-8.987C91.56,85.605,95.584,89.628,95.584,94.592"/>
	
		<circle clip-path="url(#SVGID_44_)" fill="none" stroke="#153F2A" stroke-width="2" stroke-miterlimit="10" cx="86.596" cy="94.592" r="8.988"/>
	<path clip-path="url(#SVGID_44_)" fill="#FFFFFF" d="M109.091,92.837l-0.779-0.509c-0.934-0.61-2.185-0.347-2.795,0.587
		c0,0-11.749,16.204-12.102,16.204H78.243c-0.528,0-2.406,0-2.406,0c-0.088,0.007-0.18,0.021-0.273,0.042
		c-0.997,0.22-1.78,0.996-2.144,1.95l-5.208,13.611c-0.13,0.339-0.197,0.699-0.197,1.063v13.569c0,1.389,1.127,2.516,2.516,2.516
		h0.051c1.39,0,2.516-1.127,2.516-2.516v-11.016c0.027-0.143,0.053-0.283,0.079-0.426l2.158-5.639
		c0.151-0.397,0.739-0.288,0.739,0.136l-0.155,58.255c0,0.848,0.688,1.537,1.537,1.537h2.637c1.295,0,2.345-1.051,2.345-2.346
		v-22.861c0-1.205,0.977-2.182,2.182-2.182h2.291c1.205,0,2.181,0.977,2.181,2.182v22.861c0,1.295,1.051,2.346,2.346,2.346h2.637
		c0.848,0,1.537-0.689,1.537-1.537l-0.028-61.614c0.066-0.222,0.128-0.43,0.194-0.652l14.135-21.647
		C110.767,95.443,110.399,93.691,109.091,92.837"/>
	<path clip-path="url(#SVGID_44_)" fill="none" stroke="#153F2A" stroke-width="2" stroke-miterlimit="10" d="M109.091,92.837
		l-0.779-0.509c-0.934-0.61-2.185-0.347-2.795,0.587c0,0-11.749,16.204-12.102,16.204H78.243c-0.528,0-2.406,0-2.406,0
		c-0.088,0.007-0.18,0.021-0.273,0.042c-0.997,0.22-1.78,0.996-2.144,1.95l-5.208,13.611c-0.13,0.339-0.197,0.699-0.197,1.063
		v13.569c0,1.389,1.127,2.516,2.516,2.516h0.051c1.39,0,2.516-1.127,2.516-2.516v-11.016c0.027-0.143,0.053-0.283,0.079-0.426
		l2.158-5.639c0.151-0.397,0.739-0.288,0.739,0.136l-0.155,58.255c0,0.848,0.688,1.537,1.537,1.537h2.637
		c1.295,0,2.345-1.051,2.345-2.346v-22.861c0-1.205,0.977-2.182,2.182-2.182h2.291c1.205,0,2.181,0.977,2.181,2.182v22.861
		c0,1.295,1.051,2.346,2.346,2.346h2.637c0.848,0,1.537-0.689,1.537-1.537l-0.028-61.614c0.066-0.222,0.128-0.43,0.194-0.652
		l14.135-21.647C110.767,95.443,110.399,93.691,109.091,92.837z"/>
</g>
</svg>
