<?xml version="1.0" encoding="utf-8"?>
<!-- Generator: Adobe Illustrator 17.1.0, SVG Export Plug-In . SVG Version: 6.00 Build 0)  -->
<!DOCTYPE svg PUBLIC "-//W3C//DTD SVG 1.1//EN" "http://www.w3.org/Graphics/SVG/1.1/DTD/svg11.dtd">
<svg version="1.1" id="Layer_1" xmlns="http://www.w3.org/2000/svg" xmlns:xlink="http://www.w3.org/1999/xlink" x="0px" y="0px"
	 viewBox="0 0 221.5 189.5" enable-background="new 0 0 221.5 189.5" xml:space="preserve">
<g>
	<defs>
		<rect id="SVGID_116_" x="31.952" y="80.962" width="191.545" height="108.885"/>
	</defs>
	<clipPath id="SVGID_38_">
		<use xlink:href="#SVGID_116_"  overflow="visible"/>
	</clipPath>
	<path clip-path="url(#SVGID_38_)" fill="#FFFFFF" d="M157.121,138.176H48.327l-11.545,10.072c-1.284,1.12-3.292,0.21-3.292-1.492
		v-8.58V84.479c0-1.094,0.889-1.981,1.985-1.981h121.646c1.381,0,2.501,1.118,2.501,2.496v50.686
		C159.622,137.059,158.502,138.176,157.121,138.176"/>
	<path clip-path="url(#SVGID_38_)" fill="#153F2A" d="M35.475,84.031c-0.247,0-0.447,0.201-0.447,0.448v62.276
		c0,0.133,0.042,0.237,0.129,0.319c0.165,0.153,0.422,0.18,0.613,0.018l11.98-10.45h109.371c0.531,0,0.963-0.432,0.963-0.962V84.993
		c0-0.53-0.432-0.962-0.963-0.962H35.475z M35.487,150.275c-0.895,0-1.782-0.352-2.436-0.965c-0.708-0.665-1.098-1.572-1.098-2.555
		V84.479c0-1.939,1.58-3.517,3.522-3.517h121.646c2.227,0,4.039,1.809,4.039,4.031v50.687c0,2.222-1.812,4.031-4.039,4.031H48.904
		l-11.111,9.692C37.148,149.965,36.329,150.275,35.487,150.275"/>
	<path clip-path="url(#SVGID_38_)" fill="#153F2A" d="M60.648,115.227c1.402,0,2.232-0.884,2.232-2.209
		c0-1.324-0.886-2.227-2.25-2.227h-2.913v4.436H60.648z M60.446,109.283c1.18,0,1.917-0.829,1.917-1.969
		c0-1.142-0.7-1.914-1.954-1.914h-2.692v3.883H60.446z M55.891,103.816h4.555c2.194,0,3.78,1.215,3.78,3.313
		c0,1.269-0.627,2.282-1.623,2.798v0.036c1.364,0.406,2.139,1.693,2.139,3.147c0,2.448-1.899,3.7-4.186,3.7h-4.665V103.816z"/>
	<path clip-path="url(#SVGID_38_)" fill="#153F2A" d="M70.023,115.594c1.512,0,2.489-1.582,2.489-2.962v-0.294h-0.461
		c-1.346,0-3.78,0.092-3.78,1.767C68.271,114.859,68.861,115.594,70.023,115.594 M72.088,110.994h0.406v-0.165
		c0-1.528-0.867-2.044-2.047-2.044c-1.439,0-2.6,0.902-2.6,0.902l-0.738-1.306c0,0,1.346-1.105,3.486-1.105
		c2.36,0,3.687,1.289,3.687,3.645v5.889h-1.659v-0.883c0-0.424,0.037-0.737,0.037-0.737h-0.037c0,0-0.756,1.84-2.988,1.84
		c-1.604,0-3.171-0.976-3.171-2.834C66.464,111.123,70.52,110.994,72.088,110.994"/>
	<path clip-path="url(#SVGID_38_)" fill="#153F2A" d="M76.279,118.742c0,0,0.517,0.385,1.088,0.385c0.719,0,1.328-0.514,1.678-1.36
		l0.461-1.069l-3.909-9.201h2.009l2.343,6.092c0.184,0.478,0.35,1.122,0.35,1.122h0.037c0,0,0.147-0.626,0.313-1.104l2.268-6.11
		h1.936l-4.37,10.987c-0.571,1.436-1.714,2.19-3.024,2.19c-1.051,0-1.807-0.571-1.807-0.571L76.279,118.742z"/>
	<path clip-path="url(#SVGID_38_)" fill="#153F2A" d="M89.174,115.594c1.512,0,2.489-1.582,2.489-2.962v-0.294h-0.461
		c-1.346,0-3.78,0.092-3.78,1.767C87.422,114.859,88.012,115.594,89.174,115.594 M91.239,110.994h0.406v-0.165
		c0-1.528-0.867-2.044-2.047-2.044c-1.438,0-2.6,0.902-2.6,0.902l-0.738-1.306c0,0,1.346-1.105,3.486-1.105
		c2.36,0,3.688,1.289,3.688,3.645v5.889h-1.66v-0.883c0-0.424,0.037-0.737,0.037-0.737h-0.037c0,0-0.756,1.84-2.988,1.84
		c-1.604,0-3.171-0.976-3.171-2.834C85.615,111.123,89.671,110.994,91.239,110.994"/>
	<path clip-path="url(#SVGID_38_)" fill="#153F2A" d="M99.967,115.485c1.383,0,2.692-0.976,2.692-3.349
		c0-1.658-0.867-3.314-2.637-3.314c-1.475,0-2.692,1.216-2.692,3.332C97.33,114.178,98.418,115.485,99.967,115.485 M99.727,107.276
		c2.158,0,2.877,1.473,2.877,1.473h0.037c0,0-0.037-0.276-0.037-0.626v-4.307h1.788v12.993h-1.696v-0.882
		c0-0.369,0.018-0.627,0.018-0.627h-0.037c0,0-0.756,1.73-3.06,1.73c-2.527,0-4.113-1.987-4.113-4.876
		C95.504,109.191,97.256,107.276,99.727,107.276"/>
	<path clip-path="url(#SVGID_38_)" fill="#153F2A" d="M116.313,115.503c1.475,0,2.692-1.215,2.692-3.331
		c0-2.025-1.088-3.331-2.636-3.331c-1.402,0-2.693,0.975-2.693,3.349C113.676,113.847,114.598,115.503,116.313,115.503
		 M111.943,107.498h1.641v0.791c0,0.367-0.037,0.68-0.037,0.68h0.037c0,0,0.793-1.693,3.134-1.693c2.509,0,4.094,1.989,4.094,4.878
		c0,2.962-1.788,4.876-4.222,4.876c-2.047,0-2.859-1.527-2.859-1.527h-0.037c0,0,0.037,0.331,0.037,0.809v4.178h-1.788V107.498z"/>
	<path clip-path="url(#SVGID_38_)" fill="#153F2A" d="M127.365,115.485c1.77,0,3.208-1.4,3.208-3.349
		c0-1.933-1.438-3.314-3.208-3.314c-1.752,0-3.209,1.381-3.209,3.314C124.156,114.085,125.613,115.485,127.365,115.485
		 M127.365,107.276c2.784,0,5.034,2.044,5.034,4.86c0,2.833-2.25,4.894-5.034,4.894c-2.784,0-5.034-2.061-5.034-4.894
		C122.331,109.32,124.581,107.276,127.365,107.276"/>
</g>
<path fill="#153F2A" d="M135.153,115.025h1.826v1.785h-1.826V115.025z M135.134,103.816h1.845l-0.112,9.423h-1.604L135.134,103.816z
	"/>
<g>
	<defs>
		<rect id="SVGID_118_" x="31.952" y="80.962" width="191.545" height="108.885"/>
	</defs>
	<clipPath id="SVGID_39_">
		<use xlink:href="#SVGID_118_"  overflow="visible"/>
	</clipPath>
	<path clip-path="url(#SVGID_39_)" fill="#FFFFFF" d="M154.215,152.983v4.111c0,2.27,5.153,4.11,11.51,4.11
		c6.357,0,11.51-1.84,11.51-4.11v-4.111H154.215z"/>
	<path clip-path="url(#SVGID_39_)" fill="none" stroke="#153F2A" stroke-width="2" stroke-miterlimit="10" d="M154.215,152.983
		v4.111c0,2.27,5.153,4.11,11.51,4.11c6.357,0,11.51-1.84,11.51-4.11v-4.111H154.215z"/>
	<path clip-path="url(#SVGID_39_)" fill="#FFFFFF" d="M177.235,152.983c0,2.27-5.153,4.111-11.51,4.111
		c-6.357,0-11.51-1.841-11.51-4.111c0-2.27,5.153-4.111,11.51-4.111C172.082,148.872,177.235,150.713,177.235,152.983"/>
	
		<ellipse clip-path="url(#SVGID_39_)" fill="none" stroke="#153F2A" stroke-width="2" stroke-miterlimit="10" cx="165.725" cy="152.983" rx="11.51" ry="4.111"/>
	<path clip-path="url(#SVGID_39_)" fill="#FFFFFF" d="M149.583,163.135v4.111c0,2.27,5.153,4.11,11.51,4.11
		c6.357,0,11.51-1.84,11.51-4.11v-4.111H149.583z"/>
	<path clip-path="url(#SVGID_39_)" fill="none" stroke="#153F2A" stroke-width="2" stroke-miterlimit="10" d="M149.583,163.135
		v4.111c0,2.27,5.153,4.11,11.51,4.11c6.357,0,11.51-1.84,11.51-4.11v-4.111H149.583z"/>
	<path clip-path="url(#SVGID_39_)" fill="#FFFFFF" d="M172.603,163.135c0,2.27-5.153,4.111-11.51,4.111
		c-6.357,0-11.51-1.841-11.51-4.111c0-2.27,5.153-4.111,11.51-4.111C167.45,159.024,172.603,160.865,172.603,163.135"/>
	
		<ellipse clip-path="url(#SVGID_39_)" fill="none" stroke="#153F2A" stroke-width="2" stroke-miterlimit="10" cx="161.094" cy="163.135" rx="11.51" ry="4.111"/>
	<path clip-path="url(#SVGID_39_)" fill="#FFFFFF" d="M168.374,161.08v4.111c0,2.27,5.153,4.11,11.51,4.11
		c6.357,0,11.51-1.84,11.51-4.11v-4.111H168.374z"/>
	<path clip-path="url(#SVGID_39_)" fill="none" stroke="#153F2A" stroke-width="2" stroke-miterlimit="10" d="M168.374,161.08v4.111
		c0,2.27,5.153,4.11,11.51,4.11c6.357,0,11.51-1.84,11.51-4.11v-4.111H168.374z"/>
	<path clip-path="url(#SVGID_39_)" fill="#FFFFFF" d="M191.394,161.08c0,2.27-5.153,4.111-11.51,4.111
		c-6.357,0-11.51-1.841-11.51-4.111c0-2.27,5.153-4.111,11.51-4.111C186.241,156.969,191.394,158.81,191.394,161.08"/>
	
		<ellipse clip-path="url(#SVGID_39_)" fill="none" stroke="#153F2A" stroke-width="2" stroke-miterlimit="10" cx="179.884" cy="161.08" rx="11.51" ry="4.111"/>
</g>
<g>
	<defs>
		<polygon id="SVGID_120_" points="164.088,151.395 164.044,154.464 167.392,154.454 167.436,151.386 		"/>
	</defs>
	<clipPath id="SVGID_40_">
		<use xlink:href="#SVGID_120_"  overflow="visible"/>
	</clipPath>
	<path clip-path="url(#SVGID_40_)" fill="#153F2A" d="M167.095,151.387l-2.556,0.007l-0.273,1.497l0.412,0.09
		c0,0,0.362-0.151,0.857-0.152c0.648-0.002,1.149,0.253,1.144,0.611c-0.006,0.369-0.522,0.617-1.125,0.618
		c-0.711,0.002-1.102-0.323-1.102-0.323l-0.401,0.306c0,0,0.498,0.421,1.542,0.418c1.026-0.003,1.806-0.443,1.814-1.02
		c0.008-0.546-0.687-0.982-1.758-0.979c-0.369,0.001-0.65,0.098-0.65,0.098h-0.018c0,0,0.028-0.07,0.039-0.161l0.135-0.636
		l1.935-0.005L167.095,151.387z"/>
</g>
<g>
	<defs>
		<polygon id="SVGID_122_" points="159.453,161.547 159.409,164.615 162.757,164.607 162.801,161.538 		"/>
	</defs>
	<clipPath id="SVGID_41_">
		<use xlink:href="#SVGID_122_"  overflow="visible"/>
	</clipPath>
	<path clip-path="url(#SVGID_41_)" fill="#153F2A" d="M162.469,161.539l-2.565,0.007l-0.273,1.497l0.412,0.09
		c0,0,0.363-0.151,0.858-0.152c0.656-0.002,1.148,0.253,1.142,0.611c-0.005,0.369-0.521,0.617-1.115,0.618
		c-0.72,0.002-1.111-0.323-1.111-0.323l-0.401,0.306c0,0,0.507,0.421,1.551,0.418c1.026-0.003,1.797-0.443,1.805-1.02
		c0.008-0.546-0.678-0.982-1.749-0.979c-0.378,0.001-0.658,0.098-0.658,0.098h-0.018c0,0,0.036-0.07,0.038-0.161l0.135-0.636
		l1.944-0.005L162.469,161.539z"/>
</g>
<g>
	<defs>
		<polygon id="SVGID_124_" points="178.245,159.494 178.201,162.556 181.549,162.547 181.593,159.485 		"/>
	</defs>
	<clipPath id="SVGID_42_">
		<use xlink:href="#SVGID_124_"  overflow="visible"/>
	</clipPath>
	<path clip-path="url(#SVGID_42_)" fill="#153F2A" d="M181.261,159.485l-2.565,0.007l-0.273,1.492l0.412,0.089
		c0,0,0.363-0.15,0.857-0.151c0.648-0.002,1.149,0.253,1.143,0.617c-0.005,0.368-0.521,0.61-1.115,0.612
		c-0.72,0.002-1.111-0.323-1.111-0.323l-0.401,0.311c0,0,0.507,0.415,1.542,0.413c1.035-0.003,1.806-0.438,1.814-1.021
		c0.008-0.54-0.678-0.981-1.749-0.979c-0.378,0.001-0.659,0.098-0.659,0.098h-0.018c0,0,0.037-0.069,0.039-0.155l0.135-0.636
		l1.944-0.005L181.261,159.485z"/>
</g>
</svg>
