<?xml version="1.0" encoding="utf-8"?>
<!-- Generator: Adobe Illustrator 17.1.0, SVG Export Plug-In . SVG Version: 6.00 Build 0)  -->
<!DOCTYPE svg PUBLIC "-//W3C//DTD SVG 1.1//EN" "http://www.w3.org/Graphics/SVG/1.1/DTD/svg11.dtd">
<svg version="1.1" id="Layer_1" xmlns="http://www.w3.org/2000/svg" xmlns:xlink="http://www.w3.org/1999/xlink" x="0px" y="0px"
	 viewBox="0 0 221.5 189.5" enable-background="new 0 0 221.5 189.5" xml:space="preserve">
<g>
	<defs>
		<rect id="SVGID_128_" x="32.751" y="76.351" width="154.888" height="113.298"/>
	</defs>
	<clipPath id="SVGID_38_">
		<use xlink:href="#SVGID_128_"  overflow="visible"/>
	</clipPath>
	<path clip-path="url(#SVGID_38_)" fill="#FFFFFF" d="M60.972,187.45h-4.864c-0.618,0-1.119-0.501-1.119-1.119v-7.373
		c0-0.618,0.501-1.119,1.119-1.119h4.864c0.618,0,1.119,0.501,1.119,1.119v7.373C62.091,186.949,61.59,187.45,60.972,187.45"/>
	<path clip-path="url(#SVGID_38_)" fill="#153F2A" d="M56.108,178.569c-0.215,0-0.389,0.175-0.389,0.389v7.372
		c0,0.215,0.174,0.39,0.389,0.39h4.864c0.214,0,0.389-0.175,0.389-0.39v-7.372c0-0.214-0.175-0.389-0.389-0.389H56.108z
		 M60.972,188.18h-4.864c-1.02,0-1.849-0.83-1.849-1.85v-7.372c0-1.019,0.829-1.849,1.849-1.849h4.864
		c1.02,0,1.849,0.83,1.849,1.849v7.372C62.821,187.35,61.992,188.18,60.972,188.18"/>
	<path clip-path="url(#SVGID_38_)" fill="#FFFFFF" d="M101.383,187.104h-5.029c-0.619,0-1.12-0.501-1.12-1.119v-6.682
		c0-0.618,0.501-1.119,1.12-1.119h5.029c0.618,0,1.119,0.501,1.119,1.119v6.682C102.502,186.603,102.001,187.104,101.383,187.104"/>
	<path clip-path="url(#SVGID_38_)" fill="#153F2A" d="M96.395,179.247c-0.214,0-0.388,0.175-0.388,0.39v6.681
		c0,0.215,0.174,0.389,0.388,0.389h5.03c0.214,0,0.389-0.174,0.389-0.389v-6.681c0-0.215-0.175-0.39-0.389-0.39H96.395z
		 M101.425,188.167h-5.03c-1.019,0-1.849-0.829-1.849-1.849v-6.681c0-1.02,0.83-1.85,1.849-1.85h5.03c1.02,0,1.849,0.83,1.849,1.85
		v6.681C103.274,187.338,102.445,188.167,101.425,188.167"/>
</g>
<rect x="51.009" y="152.863" fill="#153F2A" width="7.187" height="1.46"/>
<rect x="99.017" y="152.863" fill="#153F2A" width="7.187" height="1.46"/>
<g>
	<defs>
		<rect id="SVGID_130_" x="32.751" y="76.351" width="154.888" height="113.298"/>
	</defs>
	<clipPath id="SVGID_39_">
		<use xlink:href="#SVGID_130_"  overflow="visible"/>
	</clipPath>
	<path clip-path="url(#SVGID_39_)" fill="#FFFFFF" d="M49.688,156.839v-6.495c0-0.506,0.411-0.917,0.918-0.917h2.38
		c0.507,0,0.918,0.411,0.918,0.917v6.495c0,0.507-0.411,0.918-0.918,0.918h-2.38C50.099,157.757,49.688,157.346,49.688,156.839"/>
	<path clip-path="url(#SVGID_39_)" fill="#153F2A" d="M50.607,150.157c-0.104,0-0.188,0.084-0.188,0.187v6.495
		c0,0.104,0.084,0.188,0.188,0.188h2.38c0.104,0,0.188-0.084,0.188-0.188v-6.495c0-0.103-0.084-0.187-0.188-0.187H50.607z
		 M52.987,158.487h-2.38c-0.909,0-1.648-0.739-1.648-1.648v-6.495c0-0.908,0.739-1.648,1.648-1.648h2.38
		c0.909,0,1.648,0.74,1.648,1.648v6.495C54.635,157.748,53.896,158.487,52.987,158.487"/>
	<path clip-path="url(#SVGID_39_)" fill="#FFFFFF" d="M103.587,156.839v-6.495c0-0.506,0.411-0.917,0.918-0.917h2.38
		c0.507,0,0.918,0.411,0.918,0.917v6.495c0,0.507-0.411,0.918-0.918,0.918h-2.38C103.998,157.757,103.587,157.346,103.587,156.839"
		/>
	<path clip-path="url(#SVGID_39_)" fill="#153F2A" d="M104.505,150.157c-0.104,0-0.188,0.084-0.188,0.187v6.495
		c0,0.104,0.084,0.188,0.188,0.188h2.38c0.104,0,0.188-0.084,0.188-0.188v-6.495c0-0.103-0.084-0.187-0.188-0.187H104.505z
		 M106.885,158.487h-2.38c-0.909,0-1.648-0.739-1.648-1.648v-6.495c0-0.908,0.739-1.648,1.648-1.648h2.38
		c0.909,0,1.648,0.74,1.648,1.648v6.495C108.533,157.748,107.794,158.487,106.885,158.487"/>
	<path clip-path="url(#SVGID_39_)" fill="#FFFFFF" d="M103.759,167.86l-5.691-28.006c-0.073-0.189-0.255-0.314-0.457-0.314H78.79
		H59.881c-0.204,0-0.386,0.125-0.459,0.316l-5.691,28.005c-0.11,0.321,0.103,0.665,0.411,0.665h3.286l4.892-25.062
		c0.054-0.141,0.19-0.235,0.341-0.235h2.822h11.924h2.769H92.03h2.822c0.151,0,0.286,0.093,0.341,0.234l5.205,25.063h2.951
		C103.657,168.526,103.87,168.181,103.759,167.86"/>
	<path clip-path="url(#SVGID_39_)" fill="#153F2A" d="M100.992,167.796h2.009l-5.593-27.527H60.084l-5.594,27.527h2.336
		l4.812-24.594c0.162-0.421,0.573-0.704,1.023-0.704h32.191c0.449,0,0.859,0.281,1.022,0.7l0.034,0.116L100.992,167.796z
		 M103.349,169.256h-3.544l-5.255-25.297H62.968l-4.939,25.297h-3.887c-0.373,0-0.715-0.178-0.937-0.489
		c-0.224-0.313-0.291-0.716-0.182-1.088l5.718-28.084c0.179-0.47,0.637-0.786,1.14-0.786h37.73c0.501,0,0.959,0.314,1.139,0.782
		l0.034,0.117l5.683,27.969c0.11,0.371,0.044,0.774-0.18,1.088C104.065,169.077,103.723,169.256,103.349,169.256"/>
	<path clip-path="url(#SVGID_39_)" fill="#FFFFFF" d="M104.828,161.228H52.664c-0.606,0-1.098,0.491-1.098,1.098v10.958
		c0,0.606,0.492,1.098,1.098,1.098h52.164c0.606,0,1.098-0.492,1.098-1.098v-10.958
		C105.926,161.719,105.434,161.228,104.828,161.228"/>
	<path clip-path="url(#SVGID_39_)" fill="#153F2A" d="M52.664,161.958c-0.203,0-0.368,0.165-0.368,0.368v10.959
		c0,0.202,0.165,0.367,0.368,0.367h52.164c0.202,0,0.368-0.165,0.368-0.367v-10.959c0-0.203-0.166-0.368-0.368-0.368H52.664z
		 M104.828,175.112H52.664c-1.008,0-1.828-0.82-1.828-1.827v-10.959c0-1.008,0.82-1.828,1.828-1.828h52.164
		c1.008,0,1.828,0.82,1.828,1.828v10.959C106.656,174.292,105.836,175.112,104.828,175.112"/>
</g>
<rect x="63.29" y="164.132" fill="#FFFFFF" width="30.91" height="7.348"/>
<path fill="#153F2A" d="M64.021,170.749H93.47v-5.887H64.021V170.749z M94.93,172.21H62.56v-8.808h32.37V172.21z"/>
<g>
	<defs>
		<rect id="SVGID_132_" x="32.751" y="76.351" width="154.888" height="113.298"/>
	</defs>
	<clipPath id="SVGID_40_">
		<use xlink:href="#SVGID_132_"  overflow="visible"/>
	</clipPath>
	<path clip-path="url(#SVGID_40_)" fill="#FFFFFF" d="M106.015,170.819h-8.329c-0.591,0-1.069-0.479-1.069-1.069v-3.889
		c0-0.591,0.478-1.069,1.069-1.069h8.329c0.591,0,1.069,0.478,1.069,1.069v3.889C107.084,170.34,106.606,170.819,106.015,170.819"/>
	<path clip-path="url(#SVGID_40_)" fill="#153F2A" d="M97.686,165.521c-0.187,0-0.34,0.153-0.34,0.34v3.888
		c0,0.187,0.153,0.34,0.34,0.34h8.329c0.187,0,0.339-0.153,0.339-0.34v-3.888c0-0.187-0.152-0.34-0.339-0.34H97.686z
		 M106.015,171.549h-8.329c-0.992,0-1.8-0.807-1.8-1.8v-3.888c0-0.992,0.808-1.8,1.8-1.8h8.329c0.992,0,1.799,0.808,1.799,1.8v3.888
		C107.814,170.742,107.007,171.549,106.015,171.549"/>
</g>
<rect x="103.274" y="164.792" fill="#153F2A" width="1.46" height="6.027"/>
<g>
	<defs>
		<rect id="SVGID_134_" x="32.751" y="76.351" width="154.888" height="113.298"/>
	</defs>
	<clipPath id="SVGID_41_">
		<use xlink:href="#SVGID_134_"  overflow="visible"/>
	</clipPath>
	<path clip-path="url(#SVGID_41_)" fill="#FFFFFF" d="M51.399,164.792h8.484c0.548,0,0.992,0.444,0.992,0.992v4.043
		c0,0.548-0.444,0.992-0.992,0.992h-8.484c-0.548,0-0.992-0.444-0.992-0.992v-4.043C50.407,165.236,50.851,164.792,51.399,164.792"
		/>
	<path clip-path="url(#SVGID_41_)" fill="#153F2A" d="M51.399,165.521c-0.145,0-0.262,0.118-0.262,0.262v4.044
		c0,0.144,0.117,0.262,0.262,0.262h8.484c0.144,0,0.262-0.118,0.262-0.262v-4.044c0-0.144-0.118-0.262-0.262-0.262H51.399z
		 M59.883,171.549h-8.484c-0.95,0-1.722-0.772-1.722-1.722v-4.044c0-0.95,0.772-1.722,1.722-1.722h8.484
		c0.949,0,1.722,0.772,1.722,1.722v4.044C61.605,170.777,60.832,171.549,59.883,171.549"/>
</g>
<rect x="52.757" y="164.792" fill="#153F2A" width="1.46" height="6.027"/>
<g>
	<defs>
		<rect id="SVGID_136_" x="32.751" y="76.351" width="154.888" height="113.298"/>
	</defs>
	<clipPath id="SVGID_42_">
		<use xlink:href="#SVGID_136_"  overflow="visible"/>
	</clipPath>
	<path clip-path="url(#SVGID_42_)" fill="#FFFFFF" d="M105.155,180.136H52.337c-0.469,0-0.895-0.275-1.088-0.703l-1.874-4.156
		c-0.356-0.79,0.221-1.684,1.088-1.684h56.566c0.867,0,1.444,0.894,1.088,1.684l-1.874,4.156
		C106.05,179.861,105.624,180.136,105.155,180.136"/>
	<path clip-path="url(#SVGID_42_)" fill="#153F2A" d="M50.463,174.323c-0.228,0-0.348,0.148-0.389,0.212
		c-0.041,0.063-0.127,0.235-0.033,0.442l1.874,4.156c0.074,0.166,0.24,0.273,0.422,0.273h52.818c0.182,0,0.348-0.107,0.422-0.273
		l1.874-4.156c0.094-0.207,0.008-0.379-0.033-0.442c-0.041-0.064-0.161-0.212-0.389-0.212H50.463z M105.155,180.866H52.337
		c-0.754,0-1.442-0.444-1.753-1.132l-1.875-4.157c-0.269-0.598-0.218-1.284,0.138-1.834c0.356-0.552,0.96-0.88,1.616-0.88h56.566
		c0.656,0,1.26,0.328,1.616,0.88c0.356,0.55,0.407,1.236,0.138,1.834l-1.875,4.157C106.597,180.422,105.909,180.866,105.155,180.866
		"/>
</g>
<rect x="75.808" y="164.075" fill="#153F2A" width="1.46" height="7.649"/>
<rect x="71.392" y="164.075" fill="#153F2A" width="1.46" height="7.649"/>
<rect x="66.976" y="164.075" fill="#153F2A" width="1.46" height="7.649"/>
<rect x="62.561" y="164.075" fill="#153F2A" width="1.46" height="7.649"/>
<rect x="93.47" y="164.075" fill="#153F2A" width="1.46" height="7.649"/>
<rect x="80.223" y="164.075" fill="#153F2A" width="1.46" height="7.649"/>
<rect x="89.055" y="164.075" fill="#153F2A" width="1.46" height="7.649"/>
<rect x="84.639" y="164.075" fill="#153F2A" width="1.46" height="7.649"/>
<g>
	<defs>
		<rect id="SVGID_138_" x="32.751" y="76.351" width="154.888" height="113.298"/>
	</defs>
	<clipPath id="SVGID_44_">
		<use xlink:href="#SVGID_138_"  overflow="visible"/>
	</clipPath>
	<path clip-path="url(#SVGID_44_)" fill="#FFFFFF" d="M82.324,167.805c0,0.893-1.602,1.616-3.579,1.616
		c-1.976,0-3.578-0.723-3.578-1.616c0-0.893,1.602-1.617,3.578-1.617C80.722,166.188,82.324,166.912,82.324,167.805"/>
	<path clip-path="url(#SVGID_44_)" fill="#153F2A" d="M78.746,166.919c-1.838,0-2.848,0.666-2.848,0.886
		c0,0.221,1.01,0.887,2.848,0.887c1.838,0,2.848-0.666,2.848-0.887C81.594,167.585,80.584,166.919,78.746,166.919 M78.746,170.152
		c-2.141,0-4.309-0.806-4.309-2.347c0-1.54,2.168-2.346,4.309-2.346s4.309,0.806,4.309,2.346
		C83.055,169.346,80.887,170.152,78.746,170.152"/>
	<path clip-path="url(#SVGID_44_)" fill="#FFFFFF" d="M83.564,137.19h-9.636c-0.784,0-1.42-0.636-1.42-1.42v-1.262
		c0-0.784,0.636-1.42,1.42-1.42h9.636c0.784,0,1.42,0.636,1.42,1.42v1.262C84.984,136.554,84.348,137.19,83.564,137.19"/>
	<path clip-path="url(#SVGID_44_)" fill="#153F2A" d="M73.928,133.819c-0.38,0-0.69,0.309-0.69,0.689v1.261
		c0,0.381,0.31,0.691,0.69,0.691h9.636c0.38,0,0.69-0.31,0.69-0.691v-1.261c0-0.38-0.31-0.689-0.69-0.689H73.928z M83.564,137.92
		h-9.636c-1.186,0-2.15-0.965-2.15-2.151v-1.261c0-1.185,0.964-2.15,2.15-2.15h9.636c1.185,0,2.15,0.965,2.15,2.15v1.261
		C85.714,136.955,84.749,137.92,83.564,137.92"/>
	<path clip-path="url(#SVGID_44_)" fill="#FFFFFF" d="M124.484,187.45h-4.864c-0.618,0-1.119-0.501-1.119-1.119v-7.373
		c0-0.618,0.501-1.119,1.119-1.119h4.864c0.618,0,1.119,0.501,1.119,1.119v7.373C125.603,186.949,125.102,187.45,124.484,187.45"/>
	<path clip-path="url(#SVGID_44_)" fill="#153F2A" d="M119.62,178.569c-0.215,0-0.389,0.175-0.389,0.389v7.372
		c0,0.215,0.174,0.39,0.389,0.39h4.864c0.215,0,0.389-0.175,0.389-0.39v-7.372c0-0.214-0.174-0.389-0.389-0.389H119.62z
		 M124.484,188.18h-4.864c-1.02,0-1.849-0.83-1.849-1.85v-7.372c0-1.019,0.829-1.849,1.849-1.849h4.864
		c1.02,0,1.849,0.83,1.849,1.849v7.372C126.333,187.35,125.504,188.18,124.484,188.18"/>
	<path clip-path="url(#SVGID_44_)" fill="#FFFFFF" d="M164.895,187.104h-5.029c-0.619,0-1.12-0.501-1.12-1.119v-6.682
		c0-0.618,0.501-1.119,1.12-1.119h5.029c0.618,0,1.119,0.501,1.119,1.119v6.682C166.014,186.603,165.513,187.104,164.895,187.104"/>
	<path clip-path="url(#SVGID_44_)" fill="#153F2A" d="M159.906,179.247c-0.214,0-0.388,0.175-0.388,0.39v6.681
		c0,0.215,0.174,0.389,0.388,0.389h5.03c0.215,0,0.389-0.174,0.389-0.389v-6.681c0-0.215-0.174-0.39-0.389-0.39H159.906z
		 M164.936,188.167h-5.03c-1.019,0-1.849-0.829-1.849-1.849v-6.681c0-1.02,0.83-1.85,1.849-1.85h5.03c1.02,0,1.849,0.83,1.849,1.85
		v6.681C166.785,187.338,165.956,188.167,164.936,188.167"/>
</g>
<rect x="114.521" y="152.863" fill="#153F2A" width="7.187" height="1.46"/>
<rect x="162.529" y="152.863" fill="#153F2A" width="7.187" height="1.46"/>
<g>
	<defs>
		<rect id="SVGID_140_" x="32.751" y="76.351" width="154.888" height="113.298"/>
	</defs>
	<clipPath id="SVGID_45_">
		<use xlink:href="#SVGID_140_"  overflow="visible"/>
	</clipPath>
	<path clip-path="url(#SVGID_45_)" fill="#FFFFFF" d="M113.2,156.839v-6.495c0-0.506,0.411-0.917,0.918-0.917h2.38
		c0.507,0,0.918,0.411,0.918,0.917v6.495c0,0.507-0.411,0.918-0.918,0.918h-2.38C113.611,157.757,113.2,157.346,113.2,156.839"/>
	<path clip-path="url(#SVGID_45_)" fill="#153F2A" d="M114.118,150.157c-0.104,0-0.188,0.084-0.188,0.187v6.495
		c0,0.104,0.084,0.188,0.188,0.188h2.38c0.104,0,0.188-0.084,0.188-0.188v-6.495c0-0.103-0.084-0.187-0.188-0.187H114.118z
		 M116.498,158.487h-2.38c-0.909,0-1.648-0.739-1.648-1.648v-6.495c0-0.908,0.739-1.648,1.648-1.648h2.38
		c0.909,0,1.648,0.74,1.648,1.648v6.495C118.146,157.748,117.407,158.487,116.498,158.487"/>
	<path clip-path="url(#SVGID_45_)" fill="#FFFFFF" d="M167.099,156.839v-6.495c0-0.506,0.411-0.917,0.918-0.917h2.38
		c0.507,0,0.918,0.411,0.918,0.917v6.495c0,0.507-0.411,0.918-0.918,0.918h-2.38C167.51,157.757,167.099,157.346,167.099,156.839"/>
	<path clip-path="url(#SVGID_45_)" fill="#153F2A" d="M168.017,150.157c-0.104,0-0.188,0.084-0.188,0.187v6.495
		c0,0.104,0.084,0.188,0.188,0.188h2.38c0.104,0,0.188-0.084,0.188-0.188v-6.495c0-0.103-0.084-0.187-0.188-0.187H168.017z
		 M170.397,158.487h-2.38c-0.909,0-1.648-0.739-1.648-1.648v-6.495c0-0.908,0.739-1.648,1.648-1.648h2.38
		c0.909,0,1.648,0.74,1.648,1.648v6.495C172.045,157.748,171.306,158.487,170.397,158.487"/>
	<path clip-path="url(#SVGID_45_)" fill="#FFFFFF" d="M167.271,167.86l-5.691-28.006c-0.073-0.189-0.254-0.314-0.457-0.314h-18.821
		h-18.909c-0.204,0-0.386,0.125-0.459,0.316l-5.691,28.005c-0.11,0.321,0.103,0.665,0.411,0.665h3.286l4.892-25.062
		c0.054-0.141,0.19-0.235,0.341-0.235h2.823h11.923h2.769h11.854h2.822c0.151,0,0.286,0.093,0.341,0.234l5.205,25.063h2.951
		C167.169,168.526,167.382,168.181,167.271,167.86"/>
	<path clip-path="url(#SVGID_45_)" fill="#153F2A" d="M164.504,167.796h2.009l-5.593-27.527h-37.324l-5.595,27.527h2.337
		l4.812-24.594c0.162-0.421,0.573-0.704,1.023-0.704h32.191c0.448,0,0.859,0.281,1.021,0.7l0.035,0.116L164.504,167.796z
		 M166.861,169.256h-3.545l-5.254-25.297H126.48l-4.939,25.297h-3.887c-0.373,0-0.715-0.178-0.937-0.489
		c-0.224-0.313-0.291-0.716-0.182-1.088l5.718-28.084c0.179-0.47,0.637-0.786,1.14-0.786h37.73c0.501,0,0.959,0.314,1.138,0.782
		l0.035,0.117l5.683,27.969c0.109,0.371,0.044,0.774-0.18,1.088C167.576,169.077,167.235,169.256,166.861,169.256"/>
	<path clip-path="url(#SVGID_45_)" fill="#FFFFFF" d="M168.339,161.228h-52.164c-0.606,0-1.098,0.491-1.098,1.098v10.958
		c0,0.606,0.492,1.098,1.098,1.098h52.164c0.606,0,1.098-0.492,1.098-1.098v-10.958
		C169.437,161.719,168.945,161.228,168.339,161.228"/>
	<path clip-path="url(#SVGID_45_)" fill="#153F2A" d="M116.176,161.958c-0.203,0-0.368,0.165-0.368,0.368v10.959
		c0,0.202,0.165,0.367,0.368,0.367h52.164c0.202,0,0.367-0.165,0.367-0.367v-10.959c0-0.203-0.165-0.368-0.367-0.368H116.176z
		 M168.34,175.112h-52.164c-1.008,0-1.828-0.82-1.828-1.827v-10.959c0-1.008,0.82-1.828,1.828-1.828h52.164
		c1.008,0,1.828,0.82,1.828,1.828v10.959C170.167,174.292,169.348,175.112,168.34,175.112"/>
</g>
<rect x="126.802" y="164.132" fill="#FFFFFF" width="30.91" height="7.348"/>
<path fill="#153F2A" d="M127.532,170.749h29.45v-5.887h-29.45V170.749z M158.442,172.21h-32.37v-8.808h32.37V172.21z"/>
<g>
	<defs>
		<rect id="SVGID_142_" x="32.751" y="76.351" width="154.888" height="113.298"/>
	</defs>
	<clipPath id="SVGID_46_">
		<use xlink:href="#SVGID_142_"  overflow="visible"/>
	</clipPath>
	<path clip-path="url(#SVGID_46_)" fill="#FFFFFF" d="M169.527,170.819h-8.329c-0.591,0-1.069-0.479-1.069-1.069v-3.889
		c0-0.591,0.478-1.069,1.069-1.069h8.329c0.591,0,1.069,0.478,1.069,1.069v3.889C170.596,170.34,170.118,170.819,169.527,170.819"/>
	<path clip-path="url(#SVGID_46_)" fill="#153F2A" d="M161.198,165.521c-0.187,0-0.34,0.153-0.34,0.34v3.888
		c0,0.187,0.153,0.34,0.34,0.34h8.329c0.187,0,0.339-0.153,0.339-0.34v-3.888c0-0.187-0.152-0.34-0.339-0.34H161.198z
		 M169.527,171.549h-8.329c-0.992,0-1.8-0.807-1.8-1.8v-3.888c0-0.992,0.808-1.8,1.8-1.8h8.329c0.992,0,1.799,0.808,1.799,1.8v3.888
		C171.326,170.742,170.519,171.549,169.527,171.549"/>
</g>
<rect x="166.785" y="164.792" fill="#153F2A" width="1.46" height="6.027"/>
<g>
	<defs>
		<rect id="SVGID_144_" x="32.751" y="76.351" width="154.888" height="113.298"/>
	</defs>
	<clipPath id="SVGID_47_">
		<use xlink:href="#SVGID_144_"  overflow="visible"/>
	</clipPath>
	<path clip-path="url(#SVGID_47_)" fill="#FFFFFF" d="M114.91,164.792h8.484c0.548,0,0.992,0.444,0.992,0.992v4.043
		c0,0.548-0.444,0.992-0.992,0.992h-8.484c-0.548,0-0.992-0.444-0.992-0.992v-4.043C113.918,165.236,114.362,164.792,114.91,164.792
		"/>
	<path clip-path="url(#SVGID_47_)" fill="#153F2A" d="M114.911,165.521c-0.145,0-0.262,0.118-0.262,0.262v4.044
		c0,0.144,0.117,0.262,0.262,0.262h8.484c0.144,0,0.262-0.118,0.262-0.262v-4.044c0-0.144-0.118-0.262-0.262-0.262H114.911z
		 M123.395,171.549h-8.484c-0.95,0-1.722-0.772-1.722-1.722v-4.044c0-0.95,0.772-1.722,1.722-1.722h8.484
		c0.949,0,1.722,0.772,1.722,1.722v4.044C125.117,170.777,124.344,171.549,123.395,171.549"/>
</g>
<rect x="116.269" y="164.792" fill="#153F2A" width="1.46" height="6.027"/>
<g>
	<defs>
		<rect id="SVGID_146_" x="32.751" y="76.351" width="154.888" height="113.298"/>
	</defs>
	<clipPath id="SVGID_48_">
		<use xlink:href="#SVGID_146_"  overflow="visible"/>
	</clipPath>
	<path clip-path="url(#SVGID_48_)" fill="#FFFFFF" d="M168.666,180.136h-52.818c-0.469,0-0.895-0.275-1.088-0.703l-1.874-4.156
		c-0.356-0.79,0.221-1.684,1.087-1.684h56.567c0.867,0,1.444,0.894,1.088,1.684l-1.874,4.156
		C169.561,179.861,169.135,180.136,168.666,180.136"/>
	<path clip-path="url(#SVGID_48_)" fill="#153F2A" d="M113.974,174.323c-0.228,0-0.348,0.148-0.389,0.212
		c-0.041,0.063-0.127,0.235-0.033,0.442l1.874,4.156c0.074,0.166,0.24,0.273,0.422,0.273h52.818c0.182,0,0.348-0.107,0.422-0.273
		l1.874-4.156c0.094-0.207,0.008-0.379-0.033-0.442c-0.041-0.064-0.161-0.212-0.389-0.212H113.974z M168.666,180.866h-52.818
		c-0.754,0-1.443-0.444-1.753-1.132l-1.875-4.157c-0.269-0.598-0.218-1.284,0.138-1.834c0.356-0.552,0.96-0.88,1.616-0.88h56.566
		c0.656,0,1.26,0.328,1.616,0.88c0.356,0.55,0.407,1.236,0.138,1.834l-1.875,4.157C170.109,180.422,169.42,180.866,168.666,180.866"
		/>
</g>
<rect x="139.319" y="164.075" fill="#153F2A" width="1.46" height="7.649"/>
<rect x="134.904" y="164.075" fill="#153F2A" width="1.46" height="7.649"/>
<rect x="130.488" y="164.075" fill="#153F2A" width="1.46" height="7.649"/>
<rect x="126.072" y="164.075" fill="#153F2A" width="1.46" height="7.649"/>
<rect x="156.982" y="164.075" fill="#153F2A" width="1.46" height="7.649"/>
<rect x="143.735" y="164.075" fill="#153F2A" width="1.46" height="7.649"/>
<rect x="152.567" y="164.075" fill="#153F2A" width="1.46" height="7.649"/>
<rect x="148.151" y="164.075" fill="#153F2A" width="1.46" height="7.649"/>
<g>
	<defs>
		<rect id="SVGID_148_" x="32.751" y="76.351" width="154.888" height="113.298"/>
	</defs>
	<clipPath id="SVGID_49_">
		<use xlink:href="#SVGID_148_"  overflow="visible"/>
	</clipPath>
	<path clip-path="url(#SVGID_49_)" fill="#FFFFFF" d="M145.836,167.805c0,0.893-1.602,1.616-3.579,1.616
		c-1.976,0-3.578-0.723-3.578-1.616c0-0.893,1.602-1.617,3.578-1.617C144.234,166.188,145.836,166.912,145.836,167.805"/>
	<path clip-path="url(#SVGID_49_)" fill="#153F2A" d="M142.257,166.919c-1.838,0-2.848,0.666-2.848,0.886
		c0,0.221,1.01,0.887,2.848,0.887c1.838,0,2.848-0.666,2.848-0.887C145.105,167.585,144.095,166.919,142.257,166.919
		 M142.257,170.152c-2.141,0-4.309-0.806-4.309-2.347c0-1.54,2.168-2.346,4.309-2.346c2.141,0,4.309,0.806,4.309,2.346
		C146.566,169.346,144.398,170.152,142.257,170.152"/>
	<path clip-path="url(#SVGID_49_)" fill="#FFFFFF" d="M147.075,137.19h-9.636c-0.784,0-1.42-0.636-1.42-1.42v-1.262
		c0-0.784,0.636-1.42,1.42-1.42h9.636c0.784,0,1.42,0.636,1.42,1.42v1.262C148.495,136.554,147.859,137.19,147.075,137.19"/>
	<path clip-path="url(#SVGID_49_)" fill="#153F2A" d="M137.44,133.819c-0.381,0-0.69,0.309-0.69,0.689v1.261
		c0,0.381,0.309,0.691,0.69,0.691h9.636c0.38,0,0.69-0.31,0.69-0.691v-1.261c0-0.38-0.31-0.689-0.69-0.689H137.44z M147.076,137.92
		h-9.636c-1.186,0-2.15-0.965-2.15-2.151v-1.261c0-1.185,0.964-2.15,2.15-2.15h9.636c1.185,0,2.15,0.965,2.15,2.15v1.261
		C149.226,136.955,148.261,137.92,147.076,137.92"/>
	<path clip-path="url(#SVGID_49_)" fill="#FFFFFF" d="M42.374,188.185h-4.652c-1.264,0-2.289-1.025-2.289-2.29v-84.404
		c0-1.264,1.025-2.29,2.289-2.29h4.652c1.264,0,2.289,1.026,2.289,2.29v84.404C44.663,187.16,43.638,188.185,42.374,188.185"/>
	<path clip-path="url(#SVGID_49_)" fill="#153F2A" d="M37.722,100.666c-0.454,0-0.824,0.371-0.824,0.825v84.404
		c0,0.454,0.37,0.825,0.824,0.825h4.652c0.454,0,0.824-0.371,0.824-0.825v-84.404c0-0.454-0.37-0.825-0.824-0.825H37.722z
		 M42.374,189.65h-4.652c-2.07,0-3.754-1.685-3.754-3.755v-84.404c0-2.07,1.684-3.755,3.754-3.755h4.652
		c2.07,0,3.755,1.685,3.755,3.755v84.404C46.129,187.965,44.444,189.65,42.374,189.65"/>
	<path clip-path="url(#SVGID_49_)" fill="#FFFFFF" d="M182.669,188.185h-4.652c-1.264,0-2.289-1.025-2.289-2.29v-84.404
		c0-1.264,1.025-2.29,2.289-2.29h4.652c1.265,0,2.29,1.026,2.29,2.29v84.404C184.959,187.16,183.934,188.185,182.669,188.185"/>
	<path clip-path="url(#SVGID_49_)" fill="#153F2A" d="M178.018,100.666c-0.454,0-0.824,0.371-0.824,0.825v84.404
		c0,0.454,0.37,0.825,0.824,0.825h4.652c0.454,0,0.824-0.371,0.824-0.825v-84.404c0-0.454-0.37-0.825-0.824-0.825H178.018z
		 M182.67,189.65h-4.652c-2.07,0-3.754-1.685-3.754-3.755v-84.404c0-2.07,1.684-3.755,3.754-3.755h4.652
		c2.07,0,3.755,1.685,3.755,3.755v84.404C186.424,187.965,184.74,189.65,182.67,189.65"/>
	<path clip-path="url(#SVGID_49_)" fill="#FFFFFF" d="M184.55,112.984H35.842c-0.898,0-1.625-0.727-1.625-1.625V79.442
		c0-0.897,0.727-1.625,1.625-1.625H184.55c0.897,0,1.625,0.728,1.625,1.625v31.917C186.175,112.257,185.447,112.984,184.55,112.984"
		/>
	<path clip-path="url(#SVGID_49_)" fill="#153F2A" d="M35.842,79.283c-0.089,0-0.161,0.071-0.161,0.159v31.918
		c0,0.088,0.072,0.16,0.161,0.16H184.55c0.087,0,0.159-0.072,0.159-0.16V79.442c0-0.088-0.072-0.159-0.159-0.159H35.842z
		 M184.55,114.45H35.842c-1.705,0-3.091-1.386-3.091-3.09V79.442c0-1.704,1.386-3.09,3.091-3.09H184.55
		c1.703,0,3.089,1.386,3.089,3.09v31.918C187.639,113.064,186.253,114.45,184.55,114.45"/>
</g>
<polygon fill="#153F2A" points="71.651,91.341 67.397,91.341 67.397,89.828 77.645,89.828 77.645,91.341 73.391,91.341 
	73.391,102.238 71.651,102.238 "/>
<polygon fill="#153F2A" points="79.425,89.829 86.631,89.829 86.631,91.342 81.165,91.342 81.165,95.226 85.612,95.226 
	85.612,96.737 81.165,96.737 81.165,100.727 86.93,100.727 86.93,102.239 79.425,102.239 "/>
<g>
	<defs>
		<rect id="SVGID_150_" x="32.751" y="76.351" width="154.888" height="113.298"/>
	</defs>
	<clipPath id="SVGID_51_">
		<use xlink:href="#SVGID_150_"  overflow="visible"/>
	</clipPath>
	<path clip-path="url(#SVGID_51_)" fill="#153F2A" d="M93.736,95.788c1.353,0,2.197-0.861,2.197-2.25
		c0-0.914-0.352-1.564-0.984-1.916c-0.334-0.176-0.739-0.28-1.705-0.28H91.24v4.446H93.736z M89.5,89.829h3.797
		c1.301,0,1.845,0.106,2.32,0.282c1.265,0.475,2.091,1.723,2.091,3.357c0,1.582-0.879,2.917-2.231,3.357v0.035
		c0,0,0.14,0.158,0.369,0.563l2.636,4.816h-1.969L93.894,97.3H91.24v4.939H89.5V89.829z"/>
	<path clip-path="url(#SVGID_51_)" fill="#153F2A" d="M101.386,89.829h1.828l2.848,6.715c0.28,0.686,0.614,1.67,0.614,1.67h0.036
		c0,0,0.333-0.984,0.615-1.67l2.847-6.715h1.829l1.001,12.41h-1.723l-0.615-7.822c-0.052-0.755-0.017-1.828-0.017-1.828h-0.035
		c0,0-0.369,1.143-0.668,1.828l-2.479,5.589h-1.547l-2.46-5.589c-0.281-0.668-0.669-1.863-0.669-1.863h-0.034
		c0,0,0.017,1.108-0.036,1.863l-0.597,7.822h-1.74L101.386,89.829z"/>
</g>
<rect x="115.997" y="89.829" fill="#153F2A" width="1.74" height="12.41"/>
<g>
	<defs>
		<rect id="SVGID_152_" x="32.751" y="76.351" width="154.888" height="113.298"/>
	</defs>
	<clipPath id="SVGID_53_">
		<use xlink:href="#SVGID_152_"  overflow="visible"/>
	</clipPath>
	<path clip-path="url(#SVGID_53_)" fill="#153F2A" d="M121.114,89.829h1.723l5.519,8.069c0.456,0.667,1.036,1.792,1.036,1.792h0.036
		c0,0-0.123-1.107-0.123-1.792v-8.069h1.74v12.41h-1.704l-5.538-8.051c-0.456-0.685-1.037-1.81-1.037-1.81h-0.035
		c0,0,0.123,1.107,0.123,1.81v8.051h-1.74V89.829z"/>
	<path clip-path="url(#SVGID_53_)" fill="#153F2A" d="M138.238,91.534c0,0-0.281,1.125-0.492,1.758l-1.389,3.937h3.761l-1.371-3.937
		c-0.21-0.633-0.473-1.758-0.473-1.758H138.238z M140.575,98.67h-4.674l-1.231,3.568h-1.793l4.465-12.41h1.828l4.463,12.41h-1.81
		L140.575,98.67z"/>
</g>
<polygon fill="#153F2A" points="145.467,89.829 147.207,89.829 147.207,100.727 152.762,100.727 152.762,102.239 145.467,102.239 
	"/>
</svg>
