<?xml version="1.0" encoding="utf-8"?>
<!-- Generator: Adobe Illustrator 16.0.0, SVG Export Plug-In . SVG Version: 6.00 Build 0)  -->
<!DOCTYPE svg PUBLIC "-//W3C//DTD SVG 1.1//EN" "http://www.w3.org/Graphics/SVG/1.1/DTD/svg11.dtd">
<svg version="1.1" id="Layer_1" xmlns="http://www.w3.org/2000/svg" xmlns:xlink="http://www.w3.org/1999/xlink" x="0px" y="0px"
	 width="16px" height="16px" viewBox="327.99 136 16 16" enable-background="new 327.99 136 16 16" xml:space="preserve">
<g>
	<polygon fill="#FFFFFF" points="329.463,146.779 329.468,146.779 329.468,146.805 342.514,146.805 342.514,146.779 
		342.516,146.779 342.516,144.17 329.463,144.17 	"/>
	<rect x="329.468" y="138.95" fill="#FFFFFF" width="7.831" height="2.61"/>
	<polygon fill="#FFFFFF" points="329.467,149.389 329.467,151.998 329.468,151.998 329.468,152 334.688,152 334.688,151.998 
		334.688,149.389 329.468,149.389 	"/>
	<polygon fill="#FFFFFF" points="337.297,149.389 337.295,149.389 337.295,151.998 337.297,151.998 337.297,152 342.514,152 
		342.514,151.998 342.516,151.998 342.516,149.389 342.514,149.389 	"/>
	<rect x="339.906" y="138.95" fill="#FFFFFF" width="2.611" height="2.61"/>
</g>
</svg>
