<?xml version="1.0" encoding="utf-8"?>
<!-- Generator: Adobe Illustrator 17.1.0, SVG Export Plug-In . SVG Version: 6.00 Build 0)  -->
<!DOCTYPE svg PUBLIC "-//W3C//DTD SVG 1.1//EN" "http://www.w3.org/Graphics/SVG/1.1/DTD/svg11.dtd">
<svg version="1.1" id="Layer_1" xmlns="http://www.w3.org/2000/svg" xmlns:xlink="http://www.w3.org/1999/xlink" x="0px" y="0px"
	 viewBox="0 0 221.5 188" enable-background="new 0 0 221.5 188" xml:space="preserve">
<g>
	<g>
		<defs>
			<rect id="SVGID_5_" x="42.935" y="90.356" width="134.13" height="97.711"/>
		</defs>
		<clipPath id="SVGID_38_">
			<use xlink:href="#SVGID_5_"  overflow="visible"/>
		</clipPath>
		<path clip-path="url(#SVGID_38_)" fill="#FFFFFF" d="M175.231,187.068v-15.552c0-2.685-2.136-4.86-4.77-4.86h-9.908v-15.552
			c0-2.684-2.136-4.86-4.77-4.86H64.218c-2.635,0-4.771,2.176-4.771,4.86v15.552H49.54c-2.635,0-4.771,2.175-4.771,4.86v15.552
			H175.231z"/>
		<path clip-path="url(#SVGID_38_)" fill="none" stroke="#153F2A" stroke-width="2" stroke-miterlimit="10" d="M175.231,187.068
			v-15.552c0-2.685-2.136-4.86-4.77-4.86h-9.908v-15.552c0-2.684-2.136-4.86-4.77-4.86H64.218c-2.635,0-4.771,2.176-4.771,4.86
			v15.552H49.54c-2.635,0-4.771,2.175-4.771,4.86v15.552H175.231z"/>
	</g>
	<line fill="none" stroke="#153F2A" stroke-width="2" stroke-miterlimit="10" x1="50.663" y1="131.782" x2="169.337" y2="131.782"/>
	<g>
		<defs>
			<rect id="SVGID_7_" x="42.935" y="90.356" width="134.13" height="97.711"/>
		</defs>
		<clipPath id="SVGID_39_">
			<use xlink:href="#SVGID_7_"  overflow="visible"/>
		</clipPath>
		<path clip-path="url(#SVGID_39_)" fill="#FFFFFF" d="M173.533,142.613h-8.392c-1.398,0-2.532-1.085-2.532-2.423v-16.613
			c0-1.338,1.134-2.423,2.532-2.423h8.392c1.399,0,2.532,1.085,2.532,2.423v16.613C176.065,141.528,174.932,142.613,173.533,142.613
			"/>
		<path clip-path="url(#SVGID_39_)" fill="none" stroke="#153F2A" stroke-width="2" stroke-miterlimit="10" d="M173.533,142.613
			h-8.392c-1.398,0-2.532-1.085-2.532-2.423v-16.613c0-1.338,1.134-2.423,2.532-2.423h8.392c1.399,0,2.532,1.085,2.532,2.423v16.613
			C176.065,141.528,174.932,142.613,173.533,142.613z"/>
		<path clip-path="url(#SVGID_39_)" fill="#FFFFFF" d="M54.664,142.613h-8.001c-1.506,0-2.728-1.168-2.728-2.61v-16.238
			c0-1.442,1.222-2.611,2.728-2.611h8.001c1.507,0,2.728,1.169,2.728,2.611v16.238C57.392,141.445,56.171,142.613,54.664,142.613"/>
		<path clip-path="url(#SVGID_39_)" fill="none" stroke="#153F2A" stroke-width="2" stroke-miterlimit="10" d="M54.664,142.613
			h-8.001c-1.506,0-2.728-1.168-2.728-2.61v-16.238c0-1.442,1.222-2.611,2.728-2.611h8.001c1.507,0,2.728,1.169,2.728,2.611v16.238
			C57.392,141.445,56.171,142.613,54.664,142.613z"/>
		<path clip-path="url(#SVGID_39_)" fill="#FFFFFF" d="M164.889,112.655c0,2.735-2.14,4.951-4.779,4.951H59.89
			c-2.64,0-4.779-2.216-4.779-4.951V96.307c0-2.734,2.139-4.951,4.779-4.951h100.22c2.639,0,4.779,2.217,4.779,4.951V112.655z"/>
		<path clip-path="url(#SVGID_39_)" fill="none" stroke="#153F2A" stroke-width="2" stroke-miterlimit="10" d="M164.889,112.655
			c0,2.735-2.14,4.951-4.779,4.951H59.89c-2.64,0-4.779-2.216-4.779-4.951V96.307c0-2.734,2.139-4.951,4.779-4.951h100.22
			c2.639,0,4.779,2.217,4.779,4.951V112.655z"/>
		<path clip-path="url(#SVGID_39_)" fill="#FFFFFF" d="M152.196,116.214H67.66c-0.84,0-1.545,0.648-1.637,1.504l-2.991,27.964
			c-0.107,0.999,0.657,1.872,1.637,1.872h90.662c0.984,0,1.748-0.879,1.636-1.881l-3.135-27.964
			C153.736,116.857,153.033,116.214,152.196,116.214"/>
		<path clip-path="url(#SVGID_39_)" fill="none" stroke="#153F2A" stroke-width="2" stroke-miterlimit="10" d="M152.196,116.214
			H67.66c-0.84,0-1.545,0.648-1.637,1.504l-2.991,27.964c-0.107,0.999,0.657,1.872,1.637,1.872h90.662
			c0.984,0,1.748-0.879,1.636-1.881l-3.135-27.964C153.736,116.857,153.033,116.214,152.196,116.214z"/>
		<path clip-path="url(#SVGID_39_)" fill="#FFFFFF" d="M143.458,116.214H76.429c-0.666,0-1.225,0.648-1.298,1.504l-2.371,27.964
			c-0.085,0.999,0.52,1.872,1.298,1.872h71.886c0.78,0,1.386-0.879,1.297-1.881l-2.486-27.964
			C144.68,116.857,144.122,116.214,143.458,116.214"/>
		<path clip-path="url(#SVGID_39_)" fill="none" stroke="#153F2A" stroke-width="2" stroke-miterlimit="10" d="M143.458,116.214
			H76.429c-0.666,0-1.225,0.648-1.298,1.504l-2.371,27.964c-0.085,0.999,0.52,1.872,1.298,1.872h71.886
			c0.78,0,1.386-0.879,1.297-1.881l-2.486-27.964C144.68,116.857,144.122,116.214,143.458,116.214z"/>
		<path clip-path="url(#SVGID_39_)" fill="#FFFFFF" d="M88.064,160.236c0,4.409-3.589,7.983-8.017,7.983
			c-4.427,0-8.016-3.574-8.016-7.983s3.589-7.983,8.016-7.983C84.475,152.253,88.064,155.827,88.064,160.236"/>
		
			<ellipse clip-path="url(#SVGID_39_)" fill="none" stroke="#153F2A" stroke-width="2" stroke-miterlimit="10" cx="80.047" cy="160.236" rx="8.017" ry="7.983"/>
		<path clip-path="url(#SVGID_39_)" fill="#FFFFFF" d="M147.97,160.236c0,4.409-3.589,7.983-8.017,7.983
			c-4.427,0-8.016-3.574-8.016-7.983s3.589-7.983,8.016-7.983C144.381,152.253,147.97,155.827,147.97,160.236"/>
		
			<ellipse clip-path="url(#SVGID_39_)" fill="none" stroke="#153F2A" stroke-width="2" stroke-miterlimit="10" cx="139.953" cy="160.236" rx="8.017" ry="7.983"/>
		
			<line clip-path="url(#SVGID_39_)" fill="none" stroke="#153F2A" stroke-width="2" stroke-miterlimit="10" x1="106.354" y1="165.143" x2="106.354" y2="186.065"/>
		
			<line clip-path="url(#SVGID_39_)" fill="none" stroke="#153F2A" stroke-width="2" stroke-miterlimit="10" x1="98.9" y1="165.143" x2="98.9" y2="186.065"/>
		
			<line clip-path="url(#SVGID_39_)" fill="none" stroke="#153F2A" stroke-width="2" stroke-miterlimit="10" x1="91.445" y1="165.143" x2="91.445" y2="186.065"/>
		
			<line clip-path="url(#SVGID_39_)" fill="none" stroke="#153F2A" stroke-width="2" stroke-miterlimit="10" x1="113.808" y1="165.143" x2="113.808" y2="186.065"/>
		
			<line clip-path="url(#SVGID_39_)" fill="none" stroke="#153F2A" stroke-width="2" stroke-miterlimit="10" x1="128.717" y1="165.143" x2="128.717" y2="186.065"/>
		
			<line clip-path="url(#SVGID_39_)" fill="none" stroke="#153F2A" stroke-width="2" stroke-miterlimit="10" x1="121.263" y1="165.143" x2="121.263" y2="186.065"/>
		<path clip-path="url(#SVGID_39_)" fill="#153F2A" d="M97.081,143.202H81.978c-1.066,0-1.931-0.861-1.931-1.923v-4.222
			c0-1.062,0.865-1.923,1.931-1.923h15.103c1.066,0,1.93,0.861,1.93,1.923v4.222C99.011,142.341,98.147,143.202,97.081,143.202"/>
		<path clip-path="url(#SVGID_39_)" fill="#153F2A" d="M97.081,131.884H81.978c-1.066,0-1.931-0.861-1.931-1.923v-4.222
			c0-1.062,0.865-1.923,1.931-1.923h15.103c1.066,0,1.93,0.861,1.93,1.923v4.222C99.011,131.023,98.147,131.884,97.081,131.884"/>
	</g>
</g>
</svg>
