<?xml version="1.0" encoding="utf-8"?>
<!-- Generator: Adobe Illustrator 17.1.0, SVG Export Plug-In . SVG Version: 6.00 Build 0)  -->
<!DOCTYPE svg PUBLIC "-//W3C//DTD SVG 1.1//EN" "http://www.w3.org/Graphics/SVG/1.1/DTD/svg11.dtd">
<svg version="1.1" id="Layer_1" xmlns="http://www.w3.org/2000/svg" xmlns:xlink="http://www.w3.org/1999/xlink" x="0px" y="0px"
	 viewBox="0 0 221.5 189.5" enable-background="new 0 0 221.5 189.5" xml:space="preserve">
<g>
	<path fill="#FFFFFF" d="M153.074,137.351H44.259l-11.545,10.062c-1.284,1.119-3.292,0.21-3.292-1.49v-8.572V83.703
		c0-1.094,0.889-1.98,1.985-1.98h121.667c1.37,0,2.481,1.108,2.481,2.474v50.68C155.555,136.243,154.444,137.351,153.074,137.351"/>
	<path fill="#153F2A" d="M31.407,83.257c-0.247,0-0.447,0.2-0.447,0.446v62.22c0,0.134,0.042,0.237,0.129,0.319
		c0.165,0.154,0.422,0.181,0.613,0.018l11.98-10.442h109.391c0.521,0,0.943-0.423,0.943-0.941v-50.68c0-0.518-0.422-0.94-0.943-0.94
		H31.407z M31.419,149.44c-0.895,0-1.782-0.352-2.436-0.964c-0.708-0.665-1.098-1.571-1.098-2.553v-62.22
		c0-1.938,1.58-3.513,3.522-3.513h121.666c2.216,0,4.019,1.797,4.019,4.007v50.68c0,2.21-1.803,4.007-4.019,4.007H44.836
		l-11.111,9.685C33.08,149.13,32.261,149.44,31.419,149.44"/>
	<path fill="#153F2A" d="M63.325,109.623c1.568,0,2.527-0.973,2.527-2.536c0-1.563-0.959-2.482-2.508-2.482h-2.655v5.018H63.325z
		 M58.863,103.022h4.758c2.379,0,4.093,1.6,4.093,4.065c0,2.462-1.714,4.118-4.093,4.118h-2.932v4.799h-1.826V103.022z"/>
	<path fill="#153F2A" d="M72.496,114.789c1.512,0,2.489-1.581,2.489-2.96v-0.293h-0.461c-1.346,0-3.78,0.091-3.78,1.765
		C70.744,114.054,71.334,114.789,72.496,114.789 M74.561,110.193h0.406v-0.165c0-1.527-0.867-2.042-2.047-2.042
		c-1.439,0-2.6,0.902-2.6,0.902l-0.738-1.306c0,0,1.346-1.103,3.486-1.103c2.36,0,3.687,1.287,3.687,3.641v5.883h-1.659v-0.883
		c0-0.422,0.037-0.735,0.037-0.735h-0.037c0,0-0.757,1.838-2.988,1.838c-1.603,0-3.171-0.974-3.171-2.831
		C68.937,110.322,72.993,110.193,74.561,110.193"/>
	<path fill="#153F2A" d="M79.435,106.7h1.733v1.617c0,0.386-0.037,0.699-0.037,0.699h0.037c0.425-1.361,1.512-2.427,2.951-2.427
		c0.239,0,0.461,0.038,0.461,0.038v1.765c0,0-0.24-0.056-0.517-0.056c-1.143,0-2.194,0.809-2.618,2.188
		c-0.166,0.533-0.222,1.103-0.222,1.673v3.806h-1.788V106.7z"/>
	<path fill="#153F2A" d="M89.157,114.789c1.512,0,2.489-1.581,2.489-2.96v-0.293h-0.461c-1.346,0-3.78,0.091-3.78,1.765
		C87.405,114.054,87.995,114.789,89.157,114.789 M91.222,110.193h0.406v-0.165c0-1.527-0.867-2.042-2.047-2.042
		c-1.439,0-2.6,0.902-2.6,0.902l-0.738-1.306c0,0,1.346-1.103,3.486-1.103c2.36,0,3.687,1.287,3.687,3.641v5.883h-1.659v-0.883
		c0-0.422,0.037-0.735,0.037-0.735h-0.037c0,0-0.756,1.838-2.988,1.838c-1.603,0-3.171-0.974-3.171-2.831
		C85.598,110.322,89.654,110.193,91.222,110.193"/>
	<path fill="#153F2A" d="M105.207,114.698c1.475,0,2.692-1.215,2.692-3.328c0-2.023-1.088-3.329-2.636-3.329
		c-1.402,0-2.692,0.975-2.692,3.346C102.571,113.043,103.492,114.698,105.207,114.698 M100.837,106.7h1.641v0.791
		c0,0.366-0.037,0.679-0.037,0.679h0.037c0,0,0.793-1.692,3.135-1.692c2.508,0,4.093,1.987,4.093,4.874
		c0,2.959-1.788,4.871-4.223,4.871c-2.046,0-2.858-1.525-2.858-1.525h-0.036c0,0,0.036,0.33,0.036,0.808v4.174h-1.788V106.7z"/>
	<path fill="#153F2A" d="M116.258,114.679c1.77,0,3.209-1.398,3.209-3.346c0-1.931-1.439-3.31-3.209-3.31
		c-1.752,0-3.208,1.379-3.208,3.31C113.05,113.281,114.506,114.679,116.258,114.679 M116.258,106.478
		c2.784,0,5.034,2.042,5.034,4.855c0,2.831-2.25,4.89-5.034,4.89c-2.784,0-5.034-2.059-5.034-4.89
		C111.224,108.52,113.474,106.478,116.258,106.478"/>
</g>
<path fill="#153F2A" d="M124.047,114.221h1.826v1.783h-1.826V114.221z M124.028,103.022h1.845l-0.111,9.414h-1.605L124.028,103.022z
	"/>
</svg>
