<?xml version="1.0" encoding="utf-8"?>
<!-- Generator: Adobe Illustrator 17.1.0, SVG Export Plug-In . SVG Version: 6.00 Build 0)  -->
<!DOCTYPE svg PUBLIC "-//W3C//DTD SVG 1.1//EN" "http://www.w3.org/Graphics/SVG/1.1/DTD/svg11.dtd">
<svg version="1.1" id="Layer_1" xmlns="http://www.w3.org/2000/svg" xmlns:xlink="http://www.w3.org/1999/xlink" x="0px" y="0px"
	 viewBox="0 0 221.5 189.5" enable-background="new 0 0 221.5 189.5" xml:space="preserve">
<g>
	<path fill="#FFFFFF" d="M156.121,138.743H47.327l-11.545,10.072c-1.284,1.12-3.292,0.21-3.292-1.492v-8.58V85.046
		c0-1.094,0.889-1.981,1.985-1.981h121.646c1.381,0,2.501,1.118,2.501,2.496v50.686
		C158.622,137.626,157.502,138.743,156.121,138.743"/>
	<path fill="#153F2A" d="M34.475,84.599c-0.247,0-0.447,0.201-0.447,0.448v62.276c0,0.133,0.042,0.237,0.129,0.319
		c0.165,0.153,0.422,0.18,0.613,0.018l11.98-10.45h109.371c0.531,0,0.963-0.432,0.963-0.962V85.561c0-0.53-0.432-0.962-0.963-0.962
		H34.475z M34.487,150.843c-0.895,0-1.782-0.352-2.436-0.965c-0.708-0.665-1.098-1.572-1.098-2.555V85.047
		c0-1.939,1.58-3.517,3.522-3.517h121.646c2.227,0,4.039,1.809,4.039,4.031v50.687c0,2.222-1.812,4.031-4.039,4.031H47.904
		l-11.111,9.692C36.148,150.533,35.329,150.843,34.487,150.843"/>
	<path fill="#153F2A" d="M59.648,115.794c1.402,0,2.232-0.884,2.232-2.209c0-1.324-0.886-2.227-2.25-2.227h-2.913v4.436H59.648z
		 M59.446,109.85c1.18,0,1.917-0.829,1.917-1.969c0-1.142-0.7-1.914-1.954-1.914h-2.692v3.883H59.446z M54.891,104.383h4.555
		c2.194,0,3.78,1.215,3.78,3.313c0,1.269-0.627,2.282-1.623,2.798v0.036c1.364,0.406,2.139,1.693,2.139,3.147
		c0,2.448-1.899,3.7-4.186,3.7h-4.665V104.383z"/>
	<path fill="#153F2A" d="M69.023,116.161c1.512,0,2.489-1.582,2.489-2.962v-0.294h-0.461c-1.346,0-3.78,0.092-3.78,1.767
		C67.271,115.426,67.861,116.161,69.023,116.161 M71.088,111.561h0.406v-0.165c0-1.528-0.867-2.044-2.047-2.044
		c-1.439,0-2.6,0.902-2.6,0.902l-0.738-1.306c0,0,1.346-1.105,3.486-1.105c2.36,0,3.687,1.289,3.687,3.645v5.889h-1.659v-0.883
		c0-0.424,0.037-0.737,0.037-0.737h-0.037c0,0-0.756,1.84-2.988,1.84c-1.604,0-3.171-0.976-3.171-2.834
		C65.464,111.69,69.52,111.561,71.088,111.561"/>
	<path fill="#153F2A" d="M75.279,119.31c0,0,0.517,0.385,1.088,0.385c0.719,0,1.328-0.514,1.678-1.36l0.461-1.069l-3.909-9.201
		h2.009l2.343,6.092c0.184,0.478,0.35,1.122,0.35,1.122h0.037c0,0,0.147-0.626,0.313-1.104l2.268-6.11h1.936l-4.37,10.987
		c-0.571,1.436-1.714,2.19-3.024,2.19c-1.051,0-1.807-0.571-1.807-0.571L75.279,119.31z"/>
	<path fill="#153F2A" d="M88.174,116.161c1.512,0,2.489-1.582,2.489-2.962v-0.294h-0.461c-1.346,0-3.78,0.092-3.78,1.767
		C86.422,115.426,87.012,116.161,88.174,116.161 M90.239,111.561h0.406v-0.165c0-1.528-0.867-2.044-2.047-2.044
		c-1.438,0-2.6,0.902-2.6,0.902l-0.738-1.306c0,0,1.346-1.105,3.486-1.105c2.36,0,3.688,1.289,3.688,3.645v5.889h-1.66v-0.883
		c0-0.424,0.037-0.737,0.037-0.737h-0.037c0,0-0.756,1.84-2.988,1.84c-1.604,0-3.171-0.976-3.171-2.834
		C84.615,111.69,88.671,111.561,90.239,111.561"/>
	<path fill="#153F2A" d="M98.967,116.052c1.383,0,2.692-0.976,2.692-3.349c0-1.658-0.867-3.314-2.637-3.314
		c-1.475,0-2.692,1.216-2.692,3.332C96.33,114.745,97.418,116.052,98.967,116.052 M98.727,107.843c2.158,0,2.877,1.473,2.877,1.473
		h0.037c0,0-0.037-0.276-0.037-0.626v-4.307h1.788v12.993h-1.696v-0.882c0-0.369,0.018-0.627,0.018-0.627h-0.037
		c0,0-0.756,1.73-3.06,1.73c-2.527,0-4.113-1.987-4.113-4.876C94.504,109.758,96.256,107.843,98.727,107.843"/>
	<path fill="#153F2A" d="M115.313,116.07c1.475,0,2.692-1.215,2.692-3.331c0-2.025-1.088-3.331-2.636-3.331
		c-1.402,0-2.693,0.975-2.693,3.349C112.676,114.414,113.598,116.07,115.313,116.07 M110.943,108.065h1.641v0.791
		c0,0.367-0.037,0.68-0.037,0.68h0.037c0,0,0.793-1.693,3.134-1.693c2.509,0,4.094,1.989,4.094,4.878
		c0,2.962-1.788,4.876-4.222,4.876c-2.047,0-2.859-1.527-2.859-1.527h-0.037c0,0,0.037,0.331,0.037,0.809v4.178h-1.788V108.065z"/>
	<path fill="#153F2A" d="M126.365,116.052c1.77,0,3.208-1.4,3.208-3.349c0-1.933-1.438-3.314-3.208-3.314
		c-1.752,0-3.209,1.381-3.209,3.314C123.156,114.652,124.613,116.052,126.365,116.052 M126.365,107.843
		c2.784,0,5.034,2.044,5.034,4.86c0,2.833-2.25,4.894-5.034,4.894c-2.784,0-5.034-2.061-5.034-4.894
		C121.331,109.887,123.581,107.843,126.365,107.843"/>
</g>
<path fill="#153F2A" d="M134.153,115.592h1.826v1.785h-1.826V115.592z M134.134,104.383h1.845l-0.112,9.423h-1.604L134.134,104.383z
	"/>
<g>
	<path fill="#FFFFFF" d="M153.215,153.55v4.111c0,2.27,5.153,4.11,11.51,4.11c6.357,0,11.51-1.84,11.51-4.11v-4.111H153.215z"/>
	<path fill="none" stroke="#153F2A" stroke-width="2" stroke-miterlimit="10" d="M153.215,153.55v4.111
		c0,2.27,5.153,4.11,11.51,4.11c6.357,0,11.51-1.84,11.51-4.11v-4.111H153.215z"/>
	<path fill="#FFFFFF" d="M176.235,153.55c0,2.27-5.153,4.111-11.51,4.111c-6.357,0-11.51-1.841-11.51-4.111
		c0-2.27,5.153-4.111,11.51-4.111C171.082,149.439,176.235,151.28,176.235,153.55"/>
	<ellipse fill="none" stroke="#153F2A" stroke-width="2" stroke-miterlimit="10" cx="164.725" cy="153.55" rx="11.51" ry="4.111"/>
	<path fill="#FFFFFF" d="M148.583,163.703v4.111c0,2.27,5.153,4.11,11.51,4.11c6.357,0,11.51-1.84,11.51-4.11v-4.111H148.583z"/>
	<path fill="none" stroke="#153F2A" stroke-width="2" stroke-miterlimit="10" d="M148.583,163.703v4.111
		c0,2.27,5.153,4.11,11.51,4.11c6.357,0,11.51-1.84,11.51-4.11v-4.111H148.583z"/>
	<path fill="#FFFFFF" d="M171.603,163.703c0,2.27-5.153,4.111-11.51,4.111c-6.357,0-11.51-1.841-11.51-4.111
		c0-2.27,5.153-4.111,11.51-4.111C166.45,159.592,171.603,161.433,171.603,163.703"/>
	<ellipse fill="none" stroke="#153F2A" stroke-width="2" stroke-miterlimit="10" cx="160.094" cy="163.703" rx="11.51" ry="4.111"/>
	<path fill="#FFFFFF" d="M167.374,161.647v4.111c0,2.27,5.153,4.11,11.51,4.11c6.357,0,11.51-1.84,11.51-4.11v-4.111H167.374z"/>
	<path fill="none" stroke="#153F2A" stroke-width="2" stroke-miterlimit="10" d="M167.374,161.647v4.111
		c0,2.27,5.153,4.11,11.51,4.11c6.357,0,11.51-1.84,11.51-4.11v-4.111H167.374z"/>
	<path fill="#FFFFFF" d="M190.394,161.647c0,2.27-5.153,4.111-11.51,4.111c-6.357,0-11.51-1.841-11.51-4.111
		c0-2.27,5.153-4.111,11.51-4.111C185.241,157.536,190.394,159.377,190.394,161.647"/>
	<ellipse fill="none" stroke="#153F2A" stroke-width="2" stroke-miterlimit="10" cx="178.884" cy="161.647" rx="11.51" ry="4.111"/>
</g>
<g>
	<defs>
		<polygon id="SVGID_15_" points="163.088,151.963 163.044,155.032 166.392,155.022 166.436,151.954 		"/>
	</defs>
	<clipPath id="SVGID_38_">
		<use xlink:href="#SVGID_15_"  overflow="visible"/>
	</clipPath>
	<path clip-path="url(#SVGID_38_)" fill="#153F2A" d="M166.095,151.955l-2.556,0.007l-0.273,1.497l0.412,0.09
		c0,0,0.362-0.151,0.857-0.152c0.648-0.002,1.149,0.253,1.144,0.611c-0.006,0.369-0.522,0.617-1.125,0.618
		c-0.711,0.002-1.102-0.323-1.102-0.323l-0.401,0.306c0,0,0.498,0.421,1.542,0.418c1.026-0.003,1.806-0.443,1.814-1.02
		c0.008-0.546-0.687-0.982-1.758-0.979c-0.369,0.001-0.65,0.098-0.65,0.098h-0.018c0,0,0.028-0.07,0.039-0.161l0.135-0.636
		l1.935-0.005L166.095,151.955z"/>
</g>
<g>
	<defs>
		<polygon id="SVGID_17_" points="158.453,162.115 158.409,165.183 161.757,165.175 161.801,162.106 		"/>
	</defs>
	<clipPath id="SVGID_39_">
		<use xlink:href="#SVGID_17_"  overflow="visible"/>
	</clipPath>
	<path clip-path="url(#SVGID_39_)" fill="#153F2A" d="M161.469,162.107l-2.565,0.007l-0.273,1.497l0.412,0.09
		c0,0,0.363-0.151,0.858-0.152c0.656-0.002,1.148,0.253,1.142,0.611c-0.005,0.369-0.521,0.617-1.115,0.618
		c-0.72,0.002-1.111-0.323-1.111-0.323l-0.401,0.306c0,0,0.507,0.421,1.551,0.418c1.026-0.003,1.797-0.443,1.805-1.02
		c0.008-0.546-0.678-0.982-1.749-0.979c-0.378,0.001-0.658,0.098-0.658,0.098h-0.018c0,0,0.036-0.07,0.038-0.161l0.135-0.636
		l1.944-0.005L161.469,162.107z"/>
</g>
<g>
	<defs>
		<polygon id="SVGID_19_" points="177.245,160.062 177.201,163.124 180.549,163.115 180.593,160.053 		"/>
	</defs>
	<clipPath id="SVGID_40_">
		<use xlink:href="#SVGID_19_"  overflow="visible"/>
	</clipPath>
	<path clip-path="url(#SVGID_40_)" fill="#153F2A" d="M180.261,160.053l-2.565,0.007l-0.273,1.492l0.412,0.089
		c0,0,0.363-0.15,0.857-0.151c0.648-0.002,1.149,0.253,1.143,0.617c-0.005,0.368-0.521,0.61-1.115,0.612
		c-0.72,0.002-1.111-0.323-1.111-0.323l-0.401,0.311c0,0,0.507,0.415,1.542,0.413c1.035-0.003,1.806-0.438,1.814-1.021
		c0.008-0.54-0.678-0.981-1.749-0.979c-0.378,0.001-0.659,0.098-0.659,0.098h-0.018c0,0,0.037-0.069,0.039-0.155l0.135-0.636
		l1.944-0.005L180.261,160.053z"/>
</g>
</svg>
