<?xml version="1.0" encoding="utf-8"?>
<!-- Generator: Adobe Illustrator 17.1.0, SVG Export Plug-In . SVG Version: 6.00 Build 0)  -->
<!DOCTYPE svg PUBLIC "-//W3C//DTD SVG 1.1//EN" "http://www.w3.org/Graphics/SVG/1.1/DTD/svg11.dtd">
<svg version="1.1" id="Layer_1" xmlns="http://www.w3.org/2000/svg" xmlns:xlink="http://www.w3.org/1999/xlink" x="0px" y="0px"
	 viewBox="0 0 221.5 221.5" enable-background="new 0 0 221.5 221.5" xml:space="preserve">
<text transform="matrix(1 0 0 1 77.5372 203.1299)" fill="#FFFFFF" font-family="'MuseoSans-700'" font-size="18">Walking</text>
<g>
	<g>
		<path fill="#FFFFFF" stroke="#163F2A" stroke-width="2.5709" stroke-miterlimit="10" d="M155.948,164.967h-9.034
			c-1.613,0-2.921-1.308-2.921-2.921v-18.952c0-1.613,1.308-2.921,2.921-2.921h9.034c1.613,0,2.921,1.308,2.921,2.921v18.952
			C158.869,163.659,157.561,164.967,155.948,164.967z"/>
		<path fill="#FFFFFF" stroke="#163F2A" stroke-width="2.5709" stroke-miterlimit="10" d="M75.792,164.967h-9.034
			c-1.613,0-2.921-1.308-2.921-2.921v-18.952c0-1.613,1.308-2.921,2.921-2.921h9.034c1.613,0,2.921,1.308,2.921,2.921v18.952
			C78.713,163.659,77.405,164.967,75.792,164.967z"/>
	</g>
	<path fill="#FFFFFF" stroke="#163F2A" stroke-width="2.5709" stroke-miterlimit="10" d="M161.45,127.358v-11.692
		c0-2.018-1.636-3.654-3.654-3.654h-7.589V100.32c0-2.018-1.636-3.654-3.654-3.654H76.413c-2.018,0-3.654,1.636-3.654,3.654v11.691
		H65.17c-2.018,0-3.654,1.636-3.654,3.654v11.692H161.45z"/>
	<g>
		
			<line fill="#FFFFFF" stroke="#163F2A" stroke-width="2.5709" stroke-miterlimit="10" x1="65.565" y1="85.004" x2="157.4" y2="85.004"/>
		<path fill="#FFFFFF" stroke="#163F2A" stroke-width="2.5709" stroke-miterlimit="10" d="M160.328,92.829h-5.856
			c-0.976,0-1.767-0.791-1.767-1.767V78.946c0-0.976,0.791-1.767,1.767-1.767h5.856c0.976,0,1.767,0.791,1.767,1.767v12.116
			C162.095,92.038,161.304,92.829,160.328,92.829z"/>
		<path fill="#FFFFFF" stroke="#163F2A" stroke-width="2.5709" stroke-miterlimit="10" d="M68.356,92.829h-5.583
			c-1.051,0-1.904-0.852-1.904-1.904V79.082c0-1.051,0.852-1.904,1.904-1.904h5.583c1.051,0,1.904,0.852,1.904,1.904v11.843
			C70.26,91.976,69.408,92.829,68.356,92.829z"/>
	</g>
	<path fill="#FFFFFF" stroke="#163F2A" stroke-width="2.5709" stroke-miterlimit="10" d="M153.447,69.751
		c0,2.018-1.636,3.654-3.654,3.654h-76.62c-2.018,0-3.654-1.636-3.654-3.654V57.687c0-2.018,1.636-3.654,3.654-3.654h76.62
		c2.018,0,3.654,1.636,3.654,3.654V69.751z"/>
	<path fill="#FFFFFF" stroke="#163F2A" stroke-width="2.5709" stroke-miterlimit="10" d="M143.676,73.341H79.179
		c-0.641,0-1.179,0.482-1.249,1.119l-2.282,20.812c-0.082,0.744,0.501,1.393,1.249,1.393h69.171c0.751,0,1.334-0.654,1.248-1.4
		l-2.392-20.812C144.852,73.82,144.315,73.341,143.676,73.341z"/>
	<path fill="#FFFFFF" stroke="#163F2A" stroke-width="2.5709" stroke-miterlimit="10" d="M136.914,73.341H85.965
		c-0.506,0-0.931,0.482-0.987,1.119l-1.803,20.812c-0.064,0.744,0.396,1.393,0.987,1.393h54.641c0.593,0,1.054-0.654,0.986-1.4
		L137.9,74.454C137.842,73.82,137.418,73.341,136.914,73.341z"/>
	<g>
		<circle fill="#FFFFFF" stroke="#163F2A" stroke-width="2.5709" stroke-miterlimit="10" cx="88.304" cy="107.025" r="5.692"/>
		<circle fill="#FFFFFF" stroke="#163F2A" stroke-width="2.5709" stroke-miterlimit="10" cx="134.662" cy="107.025" r="5.692"/>
	</g>
	<g>
		
			<line fill="none" stroke="#163F2A" stroke-width="2.5709" stroke-miterlimit="10" x1="108.689" y1="110.837" x2="108.689" y2="134.821"/>
		
			<line fill="none" stroke="#163F2A" stroke-width="2.5709" stroke-miterlimit="10" x1="102.978" y1="110.837" x2="102.978" y2="134.821"/>
		
			<line fill="none" stroke="#163F2A" stroke-width="2.5709" stroke-miterlimit="10" x1="97.268" y1="110.837" x2="97.268" y2="134.821"/>
		<g>
			
				<line fill="none" stroke="#163F2A" stroke-width="2.5709" stroke-miterlimit="10" x1="114.4" y1="110.837" x2="114.4" y2="134.821"/>
		</g>
		
			<line fill="none" stroke="#163F2A" stroke-width="2.5709" stroke-miterlimit="10" x1="125.822" y1="110.837" x2="125.822" y2="134.821"/>
		
			<line fill="none" stroke="#163F2A" stroke-width="2.5709" stroke-miterlimit="10" x1="120.111" y1="110.837" x2="120.111" y2="134.821"/>
	</g>
	<path fill="#FFFFFF" stroke="#163F2A" stroke-width="2.5709" stroke-miterlimit="10" d="M163.644,152.57H59.062
		c-1.138,0-2.06-0.922-2.06-2.06v-21.074c0-1.138,0.922-2.06,2.06-2.06h104.582c1.138,0,2.06,0.922,2.06,2.06v21.074
		C165.704,151.647,164.782,152.57,163.644,152.57z"/>
	<g>
		
			<line fill="none" stroke="#163F2A" stroke-width="2.5709" stroke-miterlimit="10" x1="158.869" y1="147.185" x2="63.837" y2="147.185"/>
	</g>
</g>
</svg>
