<?xml version="1.0" encoding="utf-8"?>
<!-- Generator: Adobe Illustrator 17.1.0, SVG Export Plug-In . SVG Version: 6.00 Build 0)  -->
<!DOCTYPE svg PUBLIC "-//W3C//DTD SVG 1.1//EN" "http://www.w3.org/Graphics/SVG/1.1/DTD/svg11.dtd">
<svg version="1.1" id="Layer_1" xmlns="http://www.w3.org/2000/svg" xmlns:xlink="http://www.w3.org/1999/xlink" x="0px" y="0px"
	 viewBox="0 0 221.5 189.5" enable-background="new 0 0 221.5 189.5" xml:space="preserve">
<g>
	<path fill="#FFFFFF" stroke="#163F2A" stroke-width="2" stroke-miterlimit="10" d="M120.848,72.39h-18.36
		c-1.331,0-2.41-1.079-2.41-2.41v-9.321c0-1.331,1.079-2.41,2.41-2.41h18.36c1.331,0,2.41,1.079,2.41,2.41v9.321
		C123.258,71.311,122.179,72.39,120.848,72.39z"/>
	<path fill="#FFFFFF" stroke="#163F2A" stroke-width="2" stroke-miterlimit="10" d="M143.559,161.78H79.776
		c-1.516,0-2.745-1.229-2.745-2.745V78.664c0-1.516,1.229-2.745,2.745-2.745h63.782c1.516,0,2.745,1.229,2.745,2.745v80.372
		C146.303,160.551,145.075,161.78,143.559,161.78z"/>
	<g>
		<path fill="#FFFFFF" stroke="#163F2A" stroke-width="2" stroke-miterlimit="10" d="M98.001,169.059h-4.282
			c-1.147,0-2.076-0.93-2.076-2.076v-4.665c0-1.147,0.93-2.076,2.076-2.076h4.282c1.147,0,2.076,0.93,2.076,2.076v4.665
			C100.077,168.13,99.147,169.059,98.001,169.059z"/>
		<path fill="#FFFFFF" stroke="#163F2A" stroke-width="2" stroke-miterlimit="10" d="M129.617,169.059h-4.282
			c-1.147,0-2.076-0.93-2.076-2.076v-4.665c0-1.147,0.93-2.076,2.076-2.076h4.282c1.147,0,2.076,0.93,2.076,2.076v4.665
			C131.693,168.13,130.763,169.059,129.617,169.059z"/>
	</g>
	<g>
		<path fill="#FFFFFF" stroke="#163F2A" stroke-width="2" stroke-miterlimit="10" d="M98.001,115.494h-4.282
			c-1.147,0-2.076-0.93-2.076-2.076v-4.665c0-1.147,0.93-2.076,2.076-2.076h4.282c1.147,0,2.076,0.93,2.076,2.076v4.665
			C100.077,114.564,99.147,115.494,98.001,115.494z"/>
		<path fill="#FFFFFF" stroke="#163F2A" stroke-width="2" stroke-miterlimit="10" d="M129.617,115.494h-4.282
			c-1.147,0-2.076-0.93-2.076-2.076v-4.665c0-1.147,0.93-2.076,2.076-2.076h4.282c1.147,0,2.076,0.93,2.076,2.076v4.665
			C131.693,114.564,130.763,115.494,129.617,115.494z"/>
	</g>
	<path fill="#FFFFFF" stroke="#163F2A" stroke-width="2" stroke-miterlimit="10" d="M136.932,156.636c0,2.69-2.181,4.87-4.87,4.87
		H91.273c-2.69,0-4.87-2.181-4.87-4.87v-26.787c0-2.69,2.181-4.87,4.87-4.87h40.789c2.69,0,4.87,2.181,4.87,4.87V156.636z"/>
	<path fill="#FFFFFF" stroke="#163F2A" stroke-width="2" stroke-miterlimit="10" d="M136.932,138.372c0,2.69-2.181,4.87-4.87,4.87
		H91.273c-2.69,0-4.87-2.181-4.87-4.87v-8.523c0-2.69,2.181-4.87,4.87-4.87h40.789c2.69,0,4.87,2.181,4.87,4.87V138.372z"/>
	<path fill="#FFFFFF" stroke="#163F2A" stroke-width="2" stroke-miterlimit="10" d="M140.256,64.9h-28.19h-0.796h-28.19
		c-3.525,0-6.382,2.857-6.382,6.382l6.382,30.317c0.862,3.288,3.655,8.377,7.18,8.377h20.477h1.862h20.477
		c3.525,0,6.319-5.089,7.18-8.377l6.382-30.317C146.638,67.757,143.781,64.9,140.256,64.9z"/>
	
		<line fill="#FFFFFF" stroke="#163F2A" stroke-width="2" stroke-miterlimit="10" x1="82.589" y1="99.272" x2="140.746" y2="99.272"/>
	<circle fill="#FFFFFF" stroke="#163F2A" stroke-width="2" stroke-miterlimit="10" cx="111.667" cy="99.272" r="3.723"/>
</g>
</svg>
