<?xml version="1.0" encoding="utf-8"?>
<!-- Generator: Adobe Illustrator 16.0.0, SVG Export Plug-In . SVG Version: 6.00 Build 0)  -->
<!DOCTYPE svg PUBLIC "-//W3C//DTD SVG 1.1//EN" "http://www.w3.org/Graphics/SVG/1.1/DTD/svg11.dtd">
<svg version="1.1" id="Layer_1" xmlns="http://www.w3.org/2000/svg" xmlns:xlink="http://www.w3.org/1999/xlink" x="0px" y="0px"
	 width="1366px" height="769px" viewBox="0 0 1366 769" enable-background="new 0 0 1366 769" xml:space="preserve">
<g>
	<g>
		<path fill="#FFFFFF" stroke="#163F2A" stroke-width="15" stroke-miterlimit="10" d="M900.223,687.17h-43
			c-7.678,0-13.903-6.225-13.903-13.902v-90.207c0-7.676,6.226-13.902,13.903-13.902h43c7.677,0,13.902,6.227,13.902,13.902v90.207
			C914.125,680.945,907.899,687.17,900.223,687.17z"/>
		<path fill="#FFFFFF" stroke="#163F2A" stroke-width="15" stroke-miterlimit="10" d="M518.703,687.17h-42.999
			c-7.679,0-13.904-6.225-13.904-13.902v-90.207c0-7.676,6.226-13.902,13.904-13.902h42.999c7.677,0,13.903,6.227,13.903,13.902
			v90.207C532.606,680.945,526.38,687.17,518.703,687.17z"/>
	</g>
	<path fill="#FFFFFF" stroke="#163F2A" stroke-width="15" stroke-miterlimit="10" d="M926.41,508.162v-55.65
		c0-9.604-7.787-17.391-17.392-17.391h-36.122v-55.652c0-9.604-7.786-17.391-17.393-17.391H521.658
		c-9.605,0-17.392,7.787-17.392,17.391v55.646h-36.122c-9.604,0-17.391,7.787-17.391,17.393v55.65H926.41V508.162z"/>
	<g>
		
			<line fill="none" stroke="#163F2A" stroke-width="15" stroke-miterlimit="10" x1="470.026" y1="306.57" x2="907.134" y2="306.57"/>
		<path fill="#FFFFFF" stroke="#163F2A" stroke-width="15" stroke-miterlimit="10" d="M921.069,343.815h-27.873
			c-4.646,0-8.411-3.765-8.411-8.411v-57.668c0-4.646,3.766-8.411,8.411-8.411h27.873c4.646,0,8.411,3.765,8.411,8.411v57.668
			C929.48,340.05,925.715,343.815,921.069,343.815z"/>
		<path fill="#FFFFFF" stroke="#163F2A" stroke-width="15" stroke-miterlimit="10" d="M483.31,343.815h-26.573
			c-5.003,0-9.063-4.056-9.063-9.063v-56.369c0-5.002,4.056-9.063,9.063-9.063h26.573c5.002,0,9.063,4.055,9.063,9.063v56.369
			C492.373,339.754,488.317,343.815,483.31,343.815z"/>
	</g>
	<path fill="#FFFFFF" stroke="#163F2A" stroke-width="15" stroke-miterlimit="10" d="M888.317,233.97
		c0,9.605-7.786,17.392-17.392,17.392H506.237c-9.605,0-17.393-7.787-17.393-17.392v-57.421c0-9.605,7.788-17.392,17.393-17.392
		h364.688c9.605,0,17.392,7.787,17.392,17.392V233.97z"/>
	<path fill="#FFFFFF" stroke="#163F2A" stroke-width="15" stroke-miterlimit="10" d="M841.811,251.058H534.824
		c-3.051,0-5.612,2.294-5.946,5.326l-10.861,99.06c-0.391,3.541,2.385,6.63,5.945,6.63h329.233c3.575,0,6.351-3.113,5.94-6.664
		l-11.385-99.059C847.408,253.337,844.852,251.058,841.811,251.058z"/>
	<path fill="#FFFFFF" stroke="#163F2A" stroke-width="15" stroke-miterlimit="10" d="M809.626,251.058H567.124
		c-2.409,0-4.432,2.294-4.698,5.326l-8.582,99.06c-0.305,3.541,1.885,6.63,4.698,6.63h260.075c2.823,0,5.017-3.113,4.694-6.664
		l-8.992-99.054C814.043,253.337,812.025,251.058,809.626,251.058z"/>
	<g>
		<circle fill="#FFFFFF" stroke="#163F2A" stroke-width="15" stroke-miterlimit="10" cx="578.256" cy="411.385" r="27.092"/>
		<circle fill="#FFFFFF" stroke="#163F2A" stroke-width="15" stroke-miterlimit="10" cx="798.907" cy="411.385" r="27.092"/>
	</g>
	<g>
		
			<line fill="none" stroke="#163F2A" stroke-width="15" stroke-miterlimit="10" x1="675.283" y1="429.527" x2="675.283" y2="543.684"/>
		
			<line fill="none" stroke="#163F2A" stroke-width="15" stroke-miterlimit="10" x1="648.101" y1="429.527" x2="648.101" y2="543.684"/>
		
			<line fill="none" stroke="#163F2A" stroke-width="15" stroke-miterlimit="10" x1="620.922" y1="429.527" x2="620.922" y2="543.684"/>
		<g>
			
				<line fill="none" stroke="#163F2A" stroke-width="15" stroke-miterlimit="10" x1="702.465" y1="429.527" x2="702.465" y2="543.684"/>
		</g>
		
			<line fill="none" stroke="#163F2A" stroke-width="15" stroke-miterlimit="10" x1="756.832" y1="429.527" x2="756.832" y2="543.684"/>
		
			<line fill="none" stroke="#163F2A" stroke-width="15" stroke-miterlimit="10" x1="729.648" y1="429.527" x2="729.648" y2="543.684"/>
	</g>
	<path fill="#FFFFFF" stroke="#163F2A" stroke-width="15" stroke-miterlimit="10" d="M936.853,628.166H439.073
		c-5.417,0-9.806-4.389-9.806-9.807V518.055c0-5.418,4.389-9.807,9.806-9.807h497.779c5.417,0,9.805,4.389,9.805,9.807v100.305
		C946.657,623.771,942.27,628.166,936.853,628.166z"/>
	<g>
		
			<line fill="none" stroke="#163F2A" stroke-width="15" stroke-miterlimit="10" x1="914.125" y1="602.533" x2="461.8" y2="602.533"/>
	</g>
</g>
</svg>
