<svg xmlns="http://www.w3.org/2000/svg" width="1366" height="769" viewBox="0 0 1366 769"><g fill="#fff" stroke="#163F2A" stroke-width="12" stroke-miterlimit="10"><path d="M896.223 601.922h-43c-7.678 0-13.903-6.226-13.903-13.902v-90.207c0-7.677 6.226-13.902 13.903-13.902h43c7.677 0 13.902 6.226 13.902 13.902v90.207c0 7.676-6.226 13.902-13.902 13.902zM514.703 601.922h-42.999c-7.679 0-13.904-6.226-13.904-13.902v-90.207c0-7.677 6.226-13.902 13.904-13.902h42.999c7.677 0 13.903 6.226 13.903 13.902v90.207c0 7.676-6.226 13.902-13.903 13.902z"/></g><path fill="#fff" stroke="#163F2A" stroke-width="12" stroke-miterlimit="10" d="M922.41 422.914v-55.65c0-9.604-7.787-17.391-17.392-17.391h-36.122v-55.652c0-9.604-7.786-17.391-17.393-17.391h-333.845c-9.605 0-17.392 7.787-17.392 17.391v55.646h-36.122c-9.604 0-17.391 7.787-17.391 17.391v55.652h475.657v.004z"/><g stroke="#163F2A" stroke-width="12" stroke-miterlimit="10"><path fill="none" d="M466.026 221.321h437.108"/><path fill="#fff" d="M917.069 258.566h-27.873c-4.646 0-8.411-3.765-8.411-8.411v-57.668c0-4.646 3.766-8.411 8.411-8.411h27.873c4.646 0 8.411 3.765 8.411 8.411v57.668c0 4.647-3.765 8.411-8.411 8.411zM479.31 258.566h-26.573c-5.003 0-9.063-4.056-9.063-9.063v-56.369c0-5.002 4.056-9.063 9.063-9.063h26.573c5.002 0 9.063 4.055 9.063 9.063v56.369c0 5.003-4.056 9.063-9.063 9.063z"/></g><path fill="#fff" stroke="#163F2A" stroke-width="12" stroke-miterlimit="10" d="M884.317 148.722c0 9.605-7.786 17.392-17.392 17.392h-364.688c-9.605 0-17.393-7.787-17.393-17.392v-57.421c0-9.605 7.788-17.392 17.393-17.392h364.688c9.605 0 17.392 7.787 17.392 17.392v57.421zM837.811 165.809h-306.987c-3.051 0-5.612 2.294-5.946 5.326l-10.861 99.06c-.391 3.541 2.385 6.63 5.945 6.63h329.233c3.575 0 6.351-3.113 5.94-6.664l-11.385-99.059c-.342-3.013-2.898-5.293-5.939-5.293zM805.626 165.809h-242.502c-2.409 0-4.432 2.294-4.698 5.326l-8.582 99.06c-.305 3.541 1.885 6.63 4.698 6.63h260.075c2.823 0 5.017-3.113 4.694-6.664l-8.992-99.054c-.276-3.018-2.294-5.298-4.693-5.298z"/><g fill="#fff" stroke="#163F2A" stroke-width="12" stroke-miterlimit="10"><circle cx="574.256" cy="326.135" r="27.092"/><circle cx="794.907" cy="326.135" r="27.092"/></g><path stroke="#163F2A" stroke-width="12" stroke-miterlimit="10" fill="none" d="M671.283 344.279v114.157M644.101 344.279v114.157M616.922 344.279v114.157M698.465 344.279v114.157M752.832 344.279v114.157M725.648 344.279v114.157"/><path fill="#fff" stroke="#163F2A" stroke-width="12" stroke-miterlimit="10" d="M932.853 542.917h-497.78c-5.417 0-9.806-4.389-9.806-9.806v-100.305c0-5.417 4.389-9.806 9.806-9.806h497.779c5.417 0 9.805 4.389 9.805 9.806v100.306c0 5.41-4.387 9.805-9.804 9.805z"/><path stroke="#163F2A" stroke-width="12" stroke-miterlimit="10" fill="none" d="M910.125 517.284h-452.325"/></svg>