<?xml version="1.0" encoding="utf-8"?>
<!-- Generator: Adobe Illustrator 17.1.0, SVG Export Plug-In . SVG Version: 6.00 Build 0)  -->
<!DOCTYPE svg PUBLIC "-//W3C//DTD SVG 1.1//EN" "http://www.w3.org/Graphics/SVG/1.1/DTD/svg11.dtd">
<svg version="1.1" id="Layer_1" xmlns="http://www.w3.org/2000/svg" xmlns:xlink="http://www.w3.org/1999/xlink" x="0px" y="0px"
	 viewBox="0 0 221.5 189.5" enable-background="new 0 0 221.5 189.5" xml:space="preserve">
<g>
	<g>
		<path fill="#FFFFFF" d="M61.497,95.116c0,4.964-4.024,8.987-8.987,8.987c-4.964,0-8.988-4.023-8.988-8.987
			c0-4.964,4.024-8.987,8.988-8.987C57.473,86.129,61.497,90.152,61.497,95.116"/>
		<circle fill="none" stroke="#153F2A" stroke-width="2" stroke-miterlimit="10" cx="52.509" cy="95.116" r="8.988"/>
		<path fill="#FFFFFF" d="M33.605,116.855v26.49c0,0.739,0.599,1.339,1.339,1.339h3.64c0.739,0,1.339-0.6,1.339-1.339v-23.488
			c0-0.739,0.599-1.339,1.339-1.339h0.027c0.739,0,1.339,0.6,1.339,1.339v61.548c0,0.74,0.599,1.339,1.339,1.339h4.073
			c0.739,0,1.339-0.599,1.339-1.339v-24.659c0-0.74,0.599-1.339,1.339-1.339h3.583c0.74,0,1.339,0.599,1.339,1.339v24.659
			c0,0.74,0.6,1.339,1.339,1.339h4.073c0.74,0,1.339-0.599,1.339-1.339v-61.548c0-0.739,0.6-1.339,1.339-1.339h0.027
			c0.74,0,1.339,0.6,1.339,1.339v23.488c0,0.739,0.6,1.339,1.339,1.339h3.64c0.74,0,1.339-0.6,1.339-1.339v-26.49
			c0-3.972-3.22-7.193-7.193-7.193H40.798C36.825,109.662,33.605,112.883,33.605,116.855"/>
		<path fill="none" stroke="#153F2A" stroke-width="2" stroke-miterlimit="10" d="M33.605,116.855v26.49
			c0,0.739,0.599,1.339,1.339,1.339h3.64c0.739,0,1.339-0.6,1.339-1.339v-23.488c0-0.739,0.599-1.339,1.339-1.339h0.027
			c0.739,0,1.339,0.6,1.339,1.339v61.548c0,0.74,0.599,1.339,1.339,1.339h4.073c0.739,0,1.339-0.599,1.339-1.339v-24.659
			c0-0.74,0.599-1.339,1.339-1.339h3.583c0.74,0,1.339,0.599,1.339,1.339v24.659c0,0.74,0.6,1.339,1.339,1.339h4.073
			c0.74,0,1.339-0.599,1.339-1.339v-61.548c0-0.739,0.6-1.339,1.339-1.339h0.027c0.74,0,1.339,0.6,1.339,1.339v23.488
			c0,0.739,0.6,1.339,1.339,1.339h3.64c0.74,0,1.339-0.6,1.339-1.339v-26.49c0-3.972-3.22-7.193-7.193-7.193H40.798
			C36.825,109.662,33.605,112.883,33.605,116.855z"/>
		<path fill="#FFFFFF" d="M78.627,94.912c0,4.964-4.024,8.987-8.987,8.987c-4.964,0-8.988-4.023-8.988-8.987
			c0-4.964,4.024-8.987,8.988-8.987C74.603,85.925,78.627,89.948,78.627,94.912"/>
		<circle fill="none" stroke="#153F2A" stroke-width="2" stroke-miterlimit="10" cx="69.64" cy="94.912" r="8.988"/>
		<path fill="#FFFFFF" d="M50.736,116.651v26.49c0,0.739,0.6,1.339,1.339,1.339h3.64c0.739,0,1.339-0.6,1.339-1.339v-23.488
			c0-0.739,0.599-1.339,1.339-1.339h0.027c0.739,0,1.339,0.6,1.339,1.339v61.548c0,0.74,0.599,1.339,1.339,1.339h4.073
			c0.739,0,1.339-0.599,1.339-1.339v-24.659c0-0.74,0.599-1.339,1.339-1.339h3.583c0.74,0,1.339,0.599,1.339,1.339v24.659
			c0,0.74,0.6,1.339,1.339,1.339h4.073c0.74,0,1.339-0.599,1.339-1.339v-61.548c0-0.739,0.6-1.339,1.339-1.339h0.027
			c0.74,0,1.339,0.6,1.339,1.339v23.488c0,0.739,0.6,1.339,1.339,1.339h3.64c0.74,0,1.339-0.6,1.339-1.339v-26.49
			c0-3.972-3.22-7.193-7.193-7.193H57.929C53.956,109.458,50.736,112.679,50.736,116.651"/>
		<path fill="none" stroke="#153F2A" stroke-width="2" stroke-miterlimit="10" d="M50.736,116.651v26.49
			c0,0.739,0.6,1.339,1.339,1.339h3.64c0.739,0,1.339-0.6,1.339-1.339v-23.488c0-0.739,0.599-1.339,1.339-1.339h0.027
			c0.739,0,1.339,0.6,1.339,1.339v61.548c0,0.74,0.599,1.339,1.339,1.339h4.073c0.739,0,1.339-0.599,1.339-1.339v-24.659
			c0-0.74,0.599-1.339,1.339-1.339h3.583c0.74,0,1.339,0.599,1.339,1.339v24.659c0,0.74,0.6,1.339,1.339,1.339h4.073
			c0.74,0,1.339-0.599,1.339-1.339v-61.548c0-0.739,0.6-1.339,1.339-1.339h0.027c0.74,0,1.339,0.6,1.339,1.339v23.488
			c0,0.739,0.6,1.339,1.339,1.339h3.64c0.74,0,1.339-0.6,1.339-1.339v-26.49c0-3.972-3.22-7.193-7.193-7.193H57.929
			C53.956,109.458,50.736,112.679,50.736,116.651z"/>
		<path fill="#FFFFFF" d="M96.432,95.135c0,4.964-4.024,8.987-8.987,8.987c-4.964,0-8.988-4.023-8.988-8.987
			c0-4.964,4.024-8.987,8.988-8.987C92.408,86.148,96.432,90.171,96.432,95.135"/>
		<circle fill="none" stroke="#153F2A" stroke-width="2" stroke-miterlimit="10" cx="87.445" cy="95.135" r="8.988"/>
		<path fill="#FFFFFF" d="M109.939,93.381l-0.779-0.509c-0.934-0.61-2.185-0.347-2.795,0.587c0,0-11.749,16.204-12.102,16.204
			H79.091c-0.528,0-2.406,0-2.406,0c-0.088,0.007-0.18,0.021-0.273,0.042c-0.997,0.22-1.78,0.996-2.144,1.95l-5.208,13.611
			c-0.13,0.339-0.197,0.699-0.197,1.063v13.569c0,1.389,1.127,2.516,2.516,2.516h0.051c1.39,0,2.516-1.127,2.516-2.516v-11.016
			c0.027-0.143,0.053-0.283,0.079-0.426l2.158-5.639c0.151-0.397,0.739-0.288,0.739,0.136l-0.155,58.255
			c0,0.848,0.688,1.537,1.537,1.537h2.637c1.295,0,2.345-1.051,2.345-2.346v-22.861c0-1.205,0.977-2.182,2.182-2.182h2.291
			c1.205,0,2.181,0.977,2.181,2.182v22.861c0,1.295,1.051,2.346,2.346,2.346h2.637c0.848,0,1.537-0.689,1.537-1.537l-0.028-61.614
			c0.066-0.222,0.128-0.43,0.194-0.652l14.135-21.647C111.615,95.987,111.247,94.235,109.939,93.381"/>
		<path fill="none" stroke="#153F2A" stroke-width="2" stroke-miterlimit="10" d="M109.939,93.381l-0.779-0.509
			c-0.934-0.61-2.185-0.347-2.795,0.587c0,0-11.749,16.204-12.102,16.204H79.091c-0.528,0-2.406,0-2.406,0
			c-0.088,0.007-0.18,0.021-0.273,0.042c-0.997,0.22-1.78,0.996-2.144,1.95l-5.208,13.611c-0.13,0.339-0.197,0.699-0.197,1.063
			v13.569c0,1.389,1.127,2.516,2.516,2.516h0.051c1.39,0,2.516-1.127,2.516-2.516v-11.016c0.027-0.143,0.053-0.283,0.079-0.426
			l2.158-5.639c0.151-0.397,0.739-0.288,0.739,0.136l-0.155,58.255c0,0.848,0.688,1.537,1.537,1.537h2.637
			c1.295,0,2.345-1.051,2.345-2.346v-22.861c0-1.205,0.977-2.182,2.182-2.182h2.291c1.205,0,2.181,0.977,2.181,2.182v22.861
			c0,1.295,1.051,2.346,2.346,2.346h2.637c0.848,0,1.537-0.689,1.537-1.537l-0.028-61.614c0.066-0.222,0.128-0.43,0.194-0.652
			l14.135-21.647C111.615,95.987,111.247,94.235,109.939,93.381z"/>
		<path fill="#FFFFFF" d="M182.493,138.734h-5.717c-1.021,0-1.849-0.828-1.849-1.849v-11.993c0-1.021,0.828-1.848,1.849-1.848h5.717
			c1.021,0,1.849,0.827,1.849,1.848v11.993C184.342,137.906,183.514,138.734,182.493,138.734"/>
		<path fill="#153F2A" d="M176.776,123.857c-0.57,0-1.035,0.464-1.035,1.035v11.993c0,0.57,0.465,1.035,1.035,1.035h5.717
			c0.57,0,1.035-0.465,1.035-1.035v-11.993c0-0.571-0.465-1.035-1.035-1.035H176.776z M182.493,139.547h-5.717
			c-1.468,0-2.662-1.194-2.662-2.662v-11.993c0-1.468,1.194-2.662,2.662-2.662h5.717c1.468,0,2.662,1.194,2.662,2.662v11.993
			C185.155,138.353,183.961,139.547,182.493,139.547"/>
		<path fill="#FFFFFF" d="M131.769,138.734h-5.717c-1.021,0-1.848-0.828-1.848-1.849v-11.993c0-1.021,0.827-1.848,1.848-1.848h5.717
			c1.021,0,1.849,0.827,1.849,1.848v11.993C133.618,137.906,132.79,138.734,131.769,138.734"/>
		<path fill="#153F2A" d="M126.052,123.857c-0.57,0-1.035,0.464-1.035,1.035v11.993c0,0.57,0.465,1.035,1.035,1.035h5.717
			c0.57,0,1.035-0.465,1.035-1.035v-11.993c0-0.571-0.465-1.035-1.035-1.035H126.052z M131.769,139.547h-5.717
			c-1.468,0-2.662-1.194-2.662-2.662v-11.993c0-1.468,1.194-2.662,2.662-2.662h5.717c1.468,0,2.662,1.194,2.662,2.662v11.993
			C134.431,138.353,133.237,139.547,131.769,139.547"/>
		<path fill="#FFFFFF" d="M185.975,114.934v-7.399c0-1.277-1.035-2.312-2.312-2.312h-4.803v-7.399c0-1.277-1.035-2.312-2.312-2.312
			h-44.385c-1.277,0-2.312,1.035-2.312,2.312v7.399h-4.803c-1.277,0-2.312,1.035-2.312,2.312v7.399H185.975z"/>
		<path fill="#153F2A" d="M123.549,114.121h61.612v-6.586c0-0.826-0.673-1.499-1.499-1.499h-5.616v-8.212
			c0-0.826-0.672-1.499-1.498-1.499h-44.385c-0.826,0-1.499,0.673-1.499,1.499v8.212h-5.616c-0.826,0-1.499,0.673-1.499,1.499
			V114.121z M186.788,115.748h-64.866v-8.213c0-1.724,1.402-3.126,3.126-3.126h3.989v-6.585c0-1.723,1.402-3.126,3.126-3.126h44.385
			c1.723,0,3.125,1.403,3.125,3.126v6.585h3.989c1.724,0,3.126,1.402,3.126,3.126V115.748z"/>
	</g>
	<rect x="125.298" y="87.318" fill="#153F2A" width="58.114" height="1.627"/>
	<g>
		<path fill="#FFFFFF" d="M185.265,93.084h-3.706c-0.617,0-1.118-0.501-1.118-1.118v-7.667c0-0.618,0.501-1.119,1.118-1.119h3.706
			c0.618,0,1.118,0.501,1.118,1.119v7.667C186.383,92.583,185.883,93.084,185.265,93.084"/>
		<path fill="#153F2A" d="M181.559,83.994c-0.168,0-0.305,0.136-0.305,0.305v7.667c0,0.168,0.137,0.305,0.305,0.305h3.705
			c0.169,0,0.306-0.137,0.306-0.305v-7.667c0-0.169-0.137-0.305-0.306-0.305H181.559z M185.264,93.898h-3.705
			c-1.066,0-1.932-0.866-1.932-1.932v-7.667c0-1.065,0.866-1.932,1.932-1.932h3.705c1.065,0,1.933,0.867,1.933,1.932v7.667
			C187.197,93.032,186.329,93.898,185.264,93.898"/>
		<path fill="#FFFFFF" d="M127.064,93.084h-3.533c-0.665,0-1.204-0.539-1.204-1.205v-7.494c0-0.665,0.539-1.205,1.204-1.205h3.533
			c0.665,0,1.205,0.54,1.205,1.205v7.494C128.269,92.545,127.729,93.084,127.064,93.084"/>
		<path fill="#153F2A" d="M123.531,83.994c-0.216,0-0.391,0.175-0.391,0.391v7.494c0,0.216,0.175,0.392,0.391,0.392h3.533
			c0.216,0,0.391-0.176,0.391-0.392v-7.494c0-0.216-0.175-0.391-0.391-0.391H123.531z M127.064,93.898h-3.533
			c-1.113,0-2.018-0.905-2.018-2.019v-7.494c0-1.113,0.905-2.018,2.018-2.018h3.533c1.112,0,2.018,0.905,2.018,2.018v7.494
			C129.082,92.993,128.176,93.898,127.064,93.898"/>
		<path fill="#FFFFFF" d="M180.91,78.48c0,1.277-1.035,2.312-2.312,2.312h-48.487c-1.277,0-2.312-1.035-2.312-2.312v-7.634
			c0-1.277,1.035-2.313,2.312-2.313h48.487c1.277,0,2.312,1.036,2.312,2.313V78.48z"/>
		<path fill="#153F2A" d="M130.112,69.347c-0.827,0-1.499,0.673-1.499,1.499v7.635c0,0.826,0.672,1.498,1.499,1.498h48.486
			c0.826,0,1.498-0.672,1.498-1.498v-7.635c0-0.826-0.672-1.499-1.498-1.499H130.112z M178.598,81.606h-48.486
			c-1.724,0-3.126-1.402-3.126-3.125v-7.635c0-1.723,1.402-3.126,3.126-3.126h48.486c1.723,0,3.125,1.403,3.125,3.126v7.635
			C181.723,80.204,180.321,81.606,178.598,81.606"/>
		<path fill="#FFFFFF" d="M174.727,80.752h-40.814c-0.406,0-0.746,0.305-0.791,0.708l-1.444,13.171
			c-0.052,0.47,0.317,0.881,0.79,0.881h43.772c0.476,0,0.845-0.413,0.79-0.885l-1.513-13.171
			C175.471,81.055,175.131,80.752,174.727,80.752"/>
		<path fill="#153F2A" d="M174.709,81.549l-40.796,0.016l-1.426,13.155l43.739-0.022L174.709,81.549z M176.241,94.698v0.814V94.698z
			 M176.241,96.325h-43.773c-0.456,0-0.893-0.195-1.198-0.535c-0.304-0.34-0.45-0.795-0.4-1.248l1.444-13.171
			c0.089-0.817,0.777-1.433,1.599-1.433h40.814c0.819,0,1.505,0.613,1.599,1.425l1.514,13.17c0.051,0.456-0.094,0.913-0.399,1.255
			C177.137,96.129,176.699,96.325,176.241,96.325"/>
		<path fill="#FFFFFF" d="M170.448,80.752h-32.241c-0.321,0-0.59,0.305-0.625,0.708l-1.14,13.171
			c-0.041,0.47,0.25,0.881,0.624,0.881h34.578c0.375,0,0.666-0.413,0.624-0.885l-1.196-13.171
			C171.036,81.055,170.767,80.752,170.448,80.752"/>
		<path fill="#153F2A" d="M137.252,94.698h34.187l-1.174-13.133h-31.868L137.252,94.698z M171.643,96.325h-34.577
			c-0.381,0-0.74-0.162-1.01-0.456c-0.312-0.342-0.468-0.818-0.425-1.309l1.141-13.171c0.072-0.827,0.688-1.451,1.434-1.451h32.242
			c0.743,0,1.36,0.621,1.434,1.445l1.196,13.17c0.044,0.492-0.11,0.971-0.423,1.314C172.385,96.162,172.026,96.325,171.643,96.325"
			/>
		<path fill="#FFFFFF" d="M143.289,102.068c0,1.989-1.613,3.602-3.602,3.602s-3.602-1.613-3.602-3.602
			c0-1.989,1.613-3.602,3.602-3.602S143.289,100.079,143.289,102.068"/>
		<path fill="#153F2A" d="M139.687,99.28c-1.538,0-2.789,1.251-2.789,2.788c0,1.537,1.251,2.788,2.789,2.788
			c1.537,0,2.788-1.251,2.788-2.788C142.475,100.531,141.224,99.28,139.687,99.28 M139.687,106.482c-2.435,0-4.416-1.98-4.416-4.415
			c0-2.435,1.981-4.415,4.416-4.415c2.435,0,4.415,1.98,4.415,4.415C144.102,104.503,142.122,106.482,139.687,106.482"/>
		<path fill="#FFFFFF" d="M172.625,102.068c0,1.989-1.613,3.602-3.602,3.602s-3.602-1.613-3.602-3.602
			c0-1.989,1.613-3.602,3.602-3.602S172.625,100.079,172.625,102.068"/>
		<path fill="#153F2A" d="M169.023,99.28c-1.538,0-2.789,1.251-2.789,2.788c0,1.537,1.251,2.788,2.789,2.788
			c1.537,0,2.788-1.251,2.788-2.788C171.811,100.531,170.56,99.28,169.023,99.28 M169.023,106.482c-2.435,0-4.416-1.98-4.416-4.415
			c0-2.435,1.981-4.415,4.416-4.415c2.435,0,4.415,1.98,4.415,4.415C173.438,104.503,171.458,106.482,169.023,106.482"/>
	</g>
	<rect x="151.773" y="104.479" fill="#153F2A" width="1.627" height="15.178"/>
	<rect x="148.16" y="104.479" fill="#153F2A" width="1.627" height="15.178"/>
	<rect x="144.546" y="104.479" fill="#153F2A" width="1.627" height="15.178"/>
	<rect x="155.387" y="104.479" fill="#153F2A" width="1.627" height="15.178"/>
	<rect x="162.615" y="104.479" fill="#153F2A" width="1.627" height="15.178"/>
	<rect x="159.002" y="104.479" fill="#153F2A" width="1.627" height="15.178"/>
	<g>
		<path fill="#FFFFFF" d="M187.363,130.889h-66.181c-0.72,0-1.304-0.584-1.304-1.304v-13.336c0-0.719,0.584-1.303,1.304-1.303
			h66.181c0.72,0,1.304,0.584,1.304,1.303v13.336C188.667,130.305,188.083,130.889,187.363,130.889"/>
		<path fill="#153F2A" d="M121.182,115.759c-0.27,0-0.49,0.219-0.49,0.49v13.336c0,0.27,0.22,0.49,0.49,0.49h66.181
			c0.27,0,0.49-0.22,0.49-0.49v-13.336c0-0.271-0.22-0.49-0.49-0.49H121.182z M187.363,131.702h-66.181
			c-1.167,0-2.117-0.95-2.117-2.117v-13.336c0-1.167,0.95-2.117,2.117-2.117h66.181c1.167,0,2.117,0.95,2.117,2.117v13.336
			C189.48,130.752,188.53,131.702,187.363,131.702"/>
	</g>
	<rect x="124.205" y="126.667" fill="#153F2A" width="60.137" height="1.627"/>
</g>
</svg>
