<?xml version="1.0" encoding="utf-8"?>
<!-- Generator: Adobe Illustrator 17.1.0, SVG Export Plug-In . SVG Version: 6.00 Build 0)  -->
<!DOCTYPE svg PUBLIC "-//W3C//DTD SVG 1.1//EN" "http://www.w3.org/Graphics/SVG/1.1/DTD/svg11.dtd">
<svg version="1.1" id="Layer_1" xmlns="http://www.w3.org/2000/svg" xmlns:xlink="http://www.w3.org/1999/xlink" x="0px" y="0px"
	 viewBox="0 0 221.5 189.5" enable-background="new 0 0 221.5 189.5" xml:space="preserve">
<g>
	<g>
		<path fill="#FFFFFF" d="M167.234,189.325H54.776c-0.99,0-1.793-0.803-1.793-1.793V94.123c0-0.99,0.803-1.793,1.793-1.793h112.458
			c0.99,0,1.793,0.803,1.793,1.793v93.408C169.027,188.522,168.224,189.325,167.234,189.325z"/>
		<path fill="#163F2A" d="M167.233,190.42H54.776c-1.593,0-2.889-1.296-2.889-2.889V94.123c0-1.592,1.296-2.888,2.889-2.888h112.457
			c1.593,0,2.889,1.296,2.889,2.888v93.408C170.122,189.124,168.826,190.42,167.233,190.42z M54.776,93.425
			c-0.386,0-0.699,0.313-0.699,0.698v93.408c0,0.386,0.313,0.699,0.699,0.699h112.457c0.386,0,0.699-0.313,0.699-0.699V94.123
			c0-0.385-0.313-0.698-0.699-0.698H54.776z"/>
	</g>
	<g>
		<path fill="#FFFFFF" d="M168.477,161.833l-14.818,9.433c-0.229,0.146-0.494,0.223-0.765,0.223H68.334
			c-0.283,0-0.559-0.084-0.794-0.242l-14.034-9.41c-0.395-0.265-0.632-0.71-0.632-1.186l0.106-66.898
			c0.001-0.786,0.639-1.423,1.425-1.423h113.306c0.787,0,1.425,0.638,1.425,1.425v66.875
			C169.137,161.118,168.888,161.571,168.477,161.833z"/>
		<path fill="#163F2A" d="M152.893,172.584H68.334c-0.502,0-0.987-0.147-1.403-0.427l-14.034-9.411
			c-0.701-0.469-1.119-1.253-1.117-2.097l0.106-66.898c0.002-1.387,1.132-2.516,2.52-2.516h113.307c1.39,0,2.52,1.131,2.52,2.521
			v66.875c0,0.866-0.437,1.66-1.167,2.126l-14.818,9.434C153.842,172.447,153.373,172.584,152.893,172.584z M54.405,93.425
			c-0.182,0-0.33,0.147-0.33,0.329l-0.106,66.899c0,0.11,0.055,0.213,0.146,0.273l14.035,9.412c0.055,0.036,0.118,0.056,0.185,0.056
			h84.559c0.063,0,0.125-0.018,0.178-0.052l14.818-9.434c0.096-0.061,0.153-0.165,0.153-0.278V93.756
			c0-0.183-0.148-0.331-0.33-0.331H54.405z"/>
	</g>
	<g>
		<path fill="#FFFFFF" d="M150.742,171.489H70.404c-0.872,0-1.58-0.707-1.58-1.58V96.856c0-0.872,0.707-1.58,1.58-1.58h80.338
			c0.872,0,1.58,0.707,1.58,1.58v73.053C152.322,170.782,151.614,171.489,150.742,171.489z"/>
		<path fill="#163F2A" d="M150.742,172.584H70.404c-1.475,0-2.675-1.2-2.675-2.675V96.856c0-1.475,1.2-2.675,2.675-2.675h80.338
			c1.475,0,2.674,1.2,2.674,2.675v73.053C153.416,171.384,152.217,172.584,150.742,172.584z M70.404,96.371
			c-0.268,0-0.485,0.218-0.485,0.485v73.053c0,0.268,0.218,0.485,0.485,0.485h80.338c0.268,0,0.484-0.218,0.484-0.485V96.856
			c0-0.268-0.217-0.485-0.484-0.485H70.404z"/>
	</g>
	<g>
		<path fill="#163F2A" d="M111.005,151.075c-5.625,0-10.202-4.577-10.202-10.202s4.577-10.202,10.202-10.202
			s10.202,4.577,10.202,10.202S116.63,151.075,111.005,151.075z M111.005,132.86c-4.418,0-8.013,3.595-8.013,8.013
			s3.595,8.013,8.013,8.013s8.013-3.595,8.013-8.013S115.423,132.86,111.005,132.86z"/>
	</g>
	<g>
		<path fill="#163F2A" d="M126.861,172.584H94.761c-1.263,0-2.29-1.027-2.29-2.29v-2.647c0-1.263,1.027-2.29,2.29-2.29h32.101
			c1.263,0,2.29,1.027,2.29,2.29v2.647C129.151,171.557,128.124,172.584,126.861,172.584z M94.761,167.546
			c-0.056,0-0.101,0.045-0.101,0.101v2.647c0,0.056,0.045,0.101,0.101,0.101h32.101c0.056,0,0.101-0.045,0.101-0.101v-2.647
			c0-0.056-0.045-0.101-0.101-0.101H94.761z"/>
	</g>
	<g>
		<path fill="#FFFFFF" d="M153.258,97.541H69.063c-0.033,0-0.066-0.005-0.097-0.015l-14.091-4.58
			c-0.341-0.111-0.261-0.615,0.097-0.615h112.103c0.358,0,0.439,0.502,0.099,0.614l-13.817,4.58
			C153.325,97.535,153.291,97.541,153.258,97.541z"/>
		<path fill="#163F2A" d="M153.258,98.636H68.896l-0.257-0.065l-14.103-4.584c-0.665-0.217-1.066-0.874-0.956-1.562
			c0.109-0.688,0.694-1.188,1.392-1.188h112.103c0.696,0,1.282,0.499,1.393,1.187c0.11,0.687-0.289,1.344-0.949,1.562l-13.816,4.58
			C153.565,98.61,153.413,98.636,153.258,98.636z M69.187,96.446h83.943l9.116-3.021H59.89L69.187,96.446z"/>
	</g>
	<g>
		<path fill="#163F2A" d="M88.144,151.679H74.958c-1.068,0-1.933-0.865-1.933-1.933v-17.837c0-1.068,0.865-1.933,1.933-1.933h13.186
			c1.068,0,1.933,0.865,1.933,1.933v17.837C90.077,150.813,89.212,151.679,88.144,151.679z"/>
	</g>
	<g>
		<path fill="#FFFFFF" d="M150.689,189.503H70.457c-0.902,0-1.632-0.731-1.632-1.632v-14.925c0-0.902,0.731-1.632,1.632-1.632
			h80.232c0.902,0,1.632,0.731,1.632,1.632v14.925C152.322,188.772,151.591,189.503,150.689,189.503z"/>
		<path fill="#163F2A" d="M150.689,190.598H70.457c-1.504,0-2.728-1.224-2.728-2.728v-14.925c0-1.504,1.224-2.728,2.728-2.728
			h80.232c1.503,0,2.727,1.224,2.727,2.728v14.925C153.416,189.374,152.192,190.598,150.689,190.598z M70.457,172.407
			c-0.297,0-0.538,0.241-0.538,0.538v14.925c0,0.297,0.241,0.538,0.538,0.538h80.232c0.296,0,0.537-0.241,0.537-0.538v-14.925
			c0-0.297-0.241-0.538-0.537-0.538H70.457z"/>
	</g>
</g>
</svg>
