<?xml version="1.0" encoding="utf-8"?>
<!-- Generator: Adobe Illustrator 17.1.0, SVG Export Plug-In . SVG Version: 6.00 Build 0)  -->
<!DOCTYPE svg PUBLIC "-//W3C//DTD SVG 1.1//EN" "http://www.w3.org/Graphics/SVG/1.1/DTD/svg11.dtd">
<svg version="1.1" id="Layer_1" xmlns="http://www.w3.org/2000/svg" xmlns:xlink="http://www.w3.org/1999/xlink" x="0px" y="0px"
	 viewBox="0 0 221.5 189.5" enable-background="new 0 0 221.5 189.5" xml:space="preserve">
<g>
	<path fill="#FFFFFF" d="M195.576,109.015H23.424c-0.658,0-1.192-0.534-1.192-1.192v-5.281c0-0.658,0.534-1.192,1.192-1.192h172.151
		c0.658,0,1.192,0.534,1.192,1.192v5.281C196.768,108.481,196.234,109.015,195.576,109.015z"/>
	<path fill="#163F2A" d="M195.575,110.074H23.425c-1.242,0-2.252-1.01-2.252-2.252v-5.281c0-1.242,1.01-2.252,2.252-2.252h172.15
		c1.242,0,2.252,1.01,2.252,2.252v5.281C197.827,109.064,196.817,110.074,195.575,110.074z M23.425,102.408
		c-0.073,0-0.133,0.06-0.133,0.133v5.281c0,0.073,0.06,0.133,0.133,0.133h172.15c0.073,0,0.133-0.06,0.133-0.133v-5.281
		c0-0.073-0.06-0.133-0.133-0.133H23.425z"/>
</g>
<g>
	<path fill="#163F2A" d="M159.195,122.908H60.564c-0.459,0-0.871,0.281-1.039,0.707l-25.178,63.824
		c-0.291,0.738,0.253,1.538,1.046,1.538h12.692c0.469,0,0.889-0.291,1.053-0.73l19.453-51.873c0.165-0.439,0.584-0.73,1.053-0.73
		h80.713c0.469,0,0.889,0.291,1.053,0.73l19.453,51.873c0.165,0.439,0.584,0.73,1.053,0.73h12.692c0.794,0,1.338-0.799,1.046-1.538
		l-25.09-63.599C160.344,123.278,159.8,122.908,159.195,122.908z"/>
</g>
<g>
	<g>
		<path fill="#FFFFFF" d="M105.727,95.989H15.68c-0.837,0-1.515-0.678-1.515-1.515V43.799c0-0.837,0.678-1.515,1.515-1.515h90.048
			c0.837,0,1.515,0.678,1.515,1.515v50.674C107.243,95.311,106.564,95.989,105.727,95.989z"/>
		<path fill="#163F2A" d="M105.728,97.049H15.68c-1.42,0-2.575-1.155-2.575-2.575V43.8c0-1.42,1.155-2.575,2.575-2.575h90.048
			c1.42,0,2.575,1.155,2.575,2.575v50.674C108.303,95.894,107.147,97.049,105.728,97.049z M15.68,43.344
			c-0.251,0-0.456,0.205-0.456,0.456v50.674c0,0.251,0.205,0.456,0.456,0.456h90.048c0.251,0,0.456-0.205,0.456-0.456V43.8
			c0-0.251-0.205-0.456-0.456-0.456H15.68z"/>
	</g>
	<g>
		<rect x="45.194" y="42.284" fill="#FFFFFF" width="31.018" height="53.705"/>
		<path fill="#163F2A" d="M77.272,97.049H44.135V41.225h33.138V97.049z M46.254,94.93h28.899V43.344H46.254V94.93z"/>
	</g>
	<g>
		<rect x="59.644" y="42.284" fill="#163F2A" width="2.119" height="53.803"/>
	</g>
	<g>
		<path fill="#FFFFFF" d="M71.751,70.929h-6.195c-0.835,0-1.512-0.677-1.512-1.512V49.336c0-0.835,0.677-1.512,1.512-1.512h6.195
			c0.835,0,1.512,0.677,1.512,1.512v20.081C73.263,70.251,72.586,70.929,71.751,70.929z"/>
		<path fill="#163F2A" d="M71.751,71.988h-6.195c-1.419,0-2.572-1.153-2.572-2.572v-20.08c0-1.419,1.153-2.572,2.572-2.572h6.195
			c1.419,0,2.572,1.153,2.572,2.572v20.08C74.323,70.835,73.17,71.988,71.751,71.988z M65.556,48.883
			c-0.25,0-0.453,0.203-0.453,0.453v20.08c0,0.25,0.203,0.453,0.453,0.453h6.195c0.25,0,0.453-0.203,0.453-0.453v-20.08
			c0-0.25-0.203-0.453-0.453-0.453H65.556z"/>
	</g>
	<g>
		<path fill="#FFFFFF" d="M55.851,70.929h-6.195c-0.835,0-1.512-0.677-1.512-1.512V49.336c0-0.835,0.677-1.512,1.512-1.512h6.195
			c0.835,0,1.512,0.677,1.512,1.512v20.081C57.364,70.251,56.687,70.929,55.851,70.929z"/>
		<path fill="#163F2A" d="M55.852,71.988h-6.195c-1.419,0-2.572-1.153-2.572-2.572v-20.08c0-1.419,1.153-2.572,2.572-2.572h6.195
			c1.418,0,2.571,1.153,2.571,2.572v20.08C58.423,70.835,57.27,71.988,55.852,71.988z M49.656,48.883
			c-0.25,0-0.453,0.203-0.453,0.453v20.08c0,0.25,0.203,0.453,0.453,0.453h6.195c0.249,0,0.452-0.203,0.452-0.453v-20.08
			c0-0.25-0.203-0.453-0.452-0.453H49.656z"/>
	</g>
	<g>
		<path fill="#FFFFFF" d="M82.099,70.929h23.345c0.993,0,1.799-0.805,1.799-1.799V49.622c0-0.993-0.805-1.799-1.799-1.799H82.099
			c-0.993,0-1.799,0.805-1.799,1.799V69.13C80.3,70.123,81.105,70.929,82.099,70.929z"/>
		<path fill="#163F2A" d="M105.444,71.988H82.099c-1.576,0-2.858-1.282-2.858-2.858V49.622c0-1.576,1.282-2.858,2.858-2.858h23.346
			c1.576,0,2.858,1.282,2.858,2.858V69.13C108.303,70.706,107.021,71.988,105.444,71.988z M82.099,48.883
			c-0.407,0-0.739,0.332-0.739,0.739V69.13c0,0.407,0.332,0.739,0.739,0.739h23.346c0.407,0,0.739-0.332,0.739-0.739V49.622
			c0-0.407-0.332-0.739-0.739-0.739H82.099z"/>
	</g>
	<g>
		<path fill="#FFFFFF" d="M15.963,70.929h23.345c0.993,0,1.799-0.805,1.799-1.799V49.622c0-0.993-0.805-1.799-1.799-1.799H15.963
			c-0.993,0-1.799,0.805-1.799,1.799V69.13C14.164,70.123,14.969,70.929,15.963,70.929z"/>
		<path fill="#163F2A" d="M39.309,71.988H15.963c-1.576,0-2.858-1.282-2.858-2.858V49.622c0-1.576,1.282-2.858,2.858-2.858h23.346
			c1.576,0,2.857,1.282,2.857,2.858V69.13C42.166,70.706,40.885,71.988,39.309,71.988z M15.963,48.883
			c-0.407,0-0.739,0.332-0.739,0.739V69.13c0,0.407,0.332,0.739,0.739,0.739h23.346c0.407,0,0.738-0.332,0.738-0.739V49.622
			c0-0.407-0.331-0.739-0.738-0.739H15.963z"/>
	</g>
	<g>
		<rect x="14.164" y="54.076" fill="#163F2A" width="26.942" height="2.119"/>
	</g>
	<g>
		<rect x="80.3" y="54.076" fill="#163F2A" width="26.943" height="2.119"/>
	</g>
</g>
<g>
	<g>
		<path fill="#FFFFFF" d="M203.32,95.94h-90.048c-0.837,0-1.515-0.678-1.515-1.515V43.75c0-0.837,0.678-1.515,1.515-1.515h90.048
			c0.837,0,1.515,0.678,1.515,1.515v50.674C204.836,95.262,204.157,95.94,203.32,95.94z"/>
		<path fill="#163F2A" d="M203.32,97h-90.048c-1.42,0-2.575-1.155-2.575-2.575V43.75c0-1.42,1.155-2.574,2.575-2.574h90.048
			c1.42,0,2.575,1.154,2.575,2.574v50.675C205.896,95.845,204.74,97,203.32,97z M113.272,43.295c-0.251,0-0.456,0.204-0.456,0.455
			v50.675c0,0.251,0.205,0.456,0.456,0.456h90.048c0.251,0,0.456-0.205,0.456-0.456V43.75c0-0.251-0.205-0.455-0.456-0.455H113.272z
			"/>
	</g>
	<g>
		<rect x="142.787" y="42.235" fill="#FFFFFF" width="31.018" height="53.705"/>
		<path fill="#163F2A" d="M174.865,97h-33.138V41.176h33.138V97z M143.847,94.881h28.899V43.295h-28.899V94.881z"/>
	</g>
	<g>
		<rect x="157.237" y="42.235" fill="#163F2A" width="2.119" height="53.803"/>
	</g>
	<g>
		<path fill="#FFFFFF" d="M169.344,70.88h-6.195c-0.835,0-1.512-0.677-1.512-1.512V49.287c0-0.835,0.677-1.512,1.512-1.512h6.195
			c0.835,0,1.512,0.677,1.512,1.512v20.081C170.856,70.203,170.179,70.88,169.344,70.88z"/>
		<path fill="#163F2A" d="M169.344,71.939h-6.195c-1.418,0-2.571-1.153-2.571-2.572v-20.08c0-1.419,1.153-2.572,2.571-2.572h6.195
			c1.419,0,2.572,1.153,2.572,2.572v20.08C171.916,70.786,170.763,71.939,169.344,71.939z M163.148,48.834
			c-0.249,0-0.452,0.203-0.452,0.453v20.08c0,0.25,0.203,0.453,0.452,0.453h6.195c0.25,0,0.453-0.203,0.453-0.453v-20.08
			c0-0.25-0.203-0.453-0.453-0.453H163.148z"/>
	</g>
	<g>
		<path fill="#FFFFFF" d="M153.444,70.88h-6.195c-0.835,0-1.512-0.677-1.512-1.512V49.287c0-0.835,0.677-1.512,1.512-1.512h6.195
			c0.835,0,1.512,0.677,1.512,1.512v20.081C154.957,70.203,154.28,70.88,153.444,70.88z"/>
		<path fill="#163F2A" d="M153.444,71.939h-6.195c-1.419,0-2.572-1.153-2.572-2.572v-20.08c0-1.419,1.153-2.572,2.572-2.572h6.195
			c1.419,0,2.572,1.153,2.572,2.572v20.08C156.017,70.786,154.863,71.939,153.444,71.939z M147.249,48.834
			c-0.25,0-0.453,0.203-0.453,0.453v20.08c0,0.25,0.203,0.453,0.453,0.453h6.195c0.25,0,0.453-0.203,0.453-0.453v-20.08
			c0-0.25-0.203-0.453-0.453-0.453H147.249z"/>
	</g>
	<g>
		<path fill="#FFFFFF" d="M179.692,70.88h23.346c0.993,0,1.799-0.805,1.799-1.799V49.573c0-0.993-0.805-1.799-1.799-1.799h-23.346
			c-0.993,0-1.799,0.805-1.799,1.799v19.508C177.893,70.074,178.698,70.88,179.692,70.88z"/>
		<path fill="#163F2A" d="M203.037,71.939h-23.346c-1.576,0-2.857-1.282-2.857-2.858V49.573c0-1.576,1.281-2.858,2.857-2.858h23.346
			c1.576,0,2.858,1.282,2.858,2.858v19.508C205.896,70.657,204.613,71.939,203.037,71.939z M179.691,48.834
			c-0.407,0-0.738,0.332-0.738,0.739v19.508c0,0.407,0.331,0.739,0.738,0.739h23.346c0.407,0,0.739-0.332,0.739-0.739V49.573
			c0-0.407-0.332-0.739-0.739-0.739H179.691z"/>
	</g>
	<g>
		<path fill="#FFFFFF" d="M113.556,70.88h23.345c0.993,0,1.799-0.805,1.799-1.799V49.573c0-0.993-0.805-1.799-1.799-1.799h-23.345
			c-0.993,0-1.799,0.805-1.799,1.799v19.508C111.757,70.074,112.562,70.88,113.556,70.88z"/>
		<path fill="#163F2A" d="M136.901,71.939h-23.346c-1.576,0-2.858-1.282-2.858-2.858V49.573c0-1.576,1.282-2.858,2.858-2.858h23.346
			c1.576,0,2.858,1.282,2.858,2.858v19.508C139.76,70.657,138.478,71.939,136.901,71.939z M113.556,48.834
			c-0.407,0-0.739,0.332-0.739,0.739v19.508c0,0.407,0.332,0.739,0.739,0.739h23.346c0.407,0,0.739-0.332,0.739-0.739V49.573
			c0-0.407-0.332-0.739-0.739-0.739H113.556z"/>
	</g>
	<g>
		<rect x="111.757" y="54.027" fill="#163F2A" width="26.943" height="2.119"/>
	</g>
	<g>
		<rect x="177.894" y="54.027" fill="#163F2A" width="26.942" height="2.119"/>
	</g>
</g>
</svg>
