<?xml version="1.0" encoding="utf-8"?>
<!-- Generator: Adobe Illustrator 17.1.0, SVG Export Plug-In . SVG Version: 6.00 Build 0)  -->
<!DOCTYPE svg PUBLIC "-//W3C//DTD SVG 1.1//EN" "http://www.w3.org/Graphics/SVG/1.1/DTD/svg11.dtd">
<svg version="1.1" id="Layer_1" xmlns="http://www.w3.org/2000/svg" xmlns:xlink="http://www.w3.org/1999/xlink" x="0px" y="0px"
	 viewBox="0 0 221.5 189.5" enable-background="new 0 0 221.5 189.5" xml:space="preserve">
<g>
	<path fill="#FFFFFF" d="M158.17,116.489h-40.249c-1.076,0-1.947-0.872-1.947-1.947v-5.42c0-1.076,0.872-1.947,1.947-1.947h40.249
		c1.076,0,1.947,0.872,1.947,1.947v5.42C160.117,115.617,159.245,116.489,158.17,116.489z"/>
	<path fill="#163F2A" d="M158.17,117.724h-40.249c-1.755,0-3.182-1.427-3.182-3.182v-5.421c0-1.755,1.427-3.182,3.182-3.182h40.249
		c1.755,0,3.182,1.427,3.182,3.182v5.421C161.352,116.297,159.925,117.724,158.17,117.724z M117.921,108.408
		c-0.393,0-0.713,0.32-0.713,0.713v5.421c0,0.393,0.32,0.713,0.713,0.713h40.249c0.393,0,0.713-0.32,0.713-0.713v-5.421
		c0-0.393-0.32-0.713-0.713-0.713H117.921z"/>
</g>
<g>
	<path fill="#FFFFFF" d="M173.409,132.673l-27.177,29.688c-0.726,0.793-1.958,0.848-2.751,0.121l-3.998-3.66
		c-0.793-0.726-0.848-1.958-0.121-2.751l27.177-29.688c0.726-0.793,1.958-0.848,2.751-0.121l3.998,3.66
		C174.08,130.648,174.135,131.88,173.409,132.673z"/>
	<path fill="#163F2A" d="M144.794,164.229c-0.797,0-1.56-0.297-2.148-0.835l-3.998-3.66c-1.294-1.187-1.383-3.203-0.197-4.496
		l27.177-29.688c1.14-1.244,3.251-1.338,4.496-0.197l3.998,3.659c1.294,1.187,1.383,3.203,0.197,4.496l-27.176,29.688
		C146.541,163.852,145.685,164.229,144.794,164.229z M167.975,126.985c-0.117,0-0.342,0.03-0.525,0.231l-27.178,29.688
		c-0.266,0.289-0.246,0.741,0.044,1.007l3.998,3.659c0.169,0.155,0.354,0.188,0.48,0.188c0.117,0,0.342-0.03,0.526-0.232
		l27.177-29.688c0.266-0.289,0.246-0.741-0.044-1.007l-3.998-3.659C168.323,127.052,168.153,126.985,167.975,126.985z"/>
</g>
<g>
	<path fill="#FFFFFF" d="M192.435,189.596h-35.001c-1.076,0-1.947-0.872-1.947-1.947v-92.11c0-1.076,0.872-1.947,1.947-1.947h35.001
		c1.076,0,1.947,0.872,1.947,1.947v92.11C194.382,188.724,193.511,189.596,192.435,189.596z"/>
	<path fill="#163F2A" d="M192.435,190.83h-35c-1.755,0-3.183-1.427-3.183-3.182V95.539c0-1.755,1.428-3.182,3.183-3.182h35
		c1.755,0,3.183,1.427,3.183,3.182v92.109C195.617,189.403,194.189,190.83,192.435,190.83z M157.435,94.826
		c-0.394,0-0.714,0.32-0.714,0.713v92.109c0,0.393,0.32,0.713,0.714,0.713h35c0.394,0,0.714-0.32,0.714-0.713V95.539
		c0-0.393-0.32-0.713-0.714-0.713H157.435z"/>
</g>
<g>
	<path fill="#163F2A" d="M187.538,104.705h-25.516c-1.052,0-1.905-0.853-1.905-1.905v-0.82c0-1.052,0.853-1.905,1.905-1.905h25.516
		c1.052,0,1.905,0.853,1.905,1.905v0.82C189.443,103.852,188.59,104.705,187.538,104.705z"/>
	<path fill="#FFFFFF" d="M187.538,105.938h-25.516c-1.731,0-3.14-1.408-3.14-3.139v-0.82c0-1.731,1.408-3.14,3.14-3.14h25.516
		c1.731,0,3.14,1.408,3.14,3.14v0.82C190.678,104.53,189.27,105.938,187.538,105.938z M162.022,101.309
		c-0.37,0-0.671,0.301-0.671,0.671v0.82c0,0.369,0.301,0.67,0.671,0.67h25.516c0.37,0,0.671-0.301,0.671-0.67v-0.82
		c0-0.37-0.301-0.671-0.671-0.671H162.022z"/>
</g>
<g>
	<path fill="#FFFFFF" d="M187.771,176.322h-25.982c-0.923,0-1.672-0.749-1.672-1.672v-48.517c0-0.923,0.749-1.672,1.672-1.672
		h25.982c0.923,0,1.672,0.749,1.672,1.672v48.517C189.443,175.574,188.695,176.322,187.771,176.322z"/>
	<path fill="#163F2A" d="M187.771,177.557h-25.982c-1.603,0-2.906-1.304-2.906-2.906v-48.518c0-1.603,1.304-2.906,2.906-2.906
		h25.982c1.603,0,2.906,1.304,2.906,2.906v48.518C190.678,176.253,189.374,177.557,187.771,177.557z M161.789,125.695
		c-0.241,0-0.438,0.196-0.438,0.438v48.518c0,0.241,0.196,0.438,0.438,0.438h25.982c0.241,0,0.438-0.196,0.438-0.438v-48.518
		c0-0.241-0.196-0.438-0.438-0.438H161.789z"/>
</g>
<g>
	<path fill="#163F2A" d="M181.514,108.199l-13.287,0.053c-1.165,0.005-1.818-1.341-1.092-2.253l2.43-3.054
		c0.262-0.33,0.66-0.522,1.082-0.524l8.233-0.03c0.405-0.001,0.79,0.174,1.055,0.48l2.624,3.03
		C183.335,106.799,182.701,108.194,181.514,108.199z"/>
</g>
<g>
	<rect x="163.305" y="102.081" fill="#FFFFFF" width="23.26" height="0.617"/>
</g>
<g>
	<g>
		<g>
			<circle fill="#FFFFFF" cx="99.254" cy="45.117" r="14.737"/>
			<path fill="#163F2A" d="M99.254,60.866c-8.685,0-15.75-7.065-15.75-15.749c0-8.685,7.065-15.75,15.75-15.75
				s15.75,7.065,15.75,15.75C115.004,53.801,107.938,60.866,99.254,60.866z M99.254,31.393c-7.568,0-13.725,6.156-13.725,13.725
				c0,7.567,6.156,13.724,13.725,13.724s13.725-6.156,13.725-13.724C112.979,37.549,106.822,31.393,99.254,31.393z"/>
		</g>
	</g>
	<g>
		<path fill="#FFFFFF" d="M68.255,80.763V124.2c0,1.213,0.983,2.196,2.196,2.196h5.969c1.213,0,2.196-0.983,2.196-2.196V85.686
			c0-1.213,0.983-2.196,2.196-2.196h0.044c1.213,0,2.196,0.983,2.196,2.196V186.61c0,1.213,0.983,2.196,2.196,2.196h6.679
			c1.213,0,2.196-0.983,2.196-2.196v-40.436c0-1.213,0.983-2.196,2.196-2.196h5.876c1.213,0,2.196,0.983,2.196,2.196v40.436
			c0,1.213,0.983,2.196,2.196,2.196h6.679c1.213,0,2.196-0.983,2.196-2.196V85.686c0-1.213,0.983-2.196,2.196-2.196h0.044
			c1.213,0,2.196,0.983,2.196,2.196V124.2c0,1.213,0.983,2.196,2.196,2.196h5.969c1.213,0,2.196-0.983,2.196-2.196V80.763
			c0-6.514-5.281-11.795-11.795-11.795H80.049C73.535,68.969,68.255,74.249,68.255,80.763z"/>
		<path fill="#163F2A" d="M113.262,189.818h-6.679c-1.77,0-3.209-1.439-3.209-3.208v-40.437c0-0.652-0.53-1.183-1.183-1.183h-5.876
			c-0.652,0-1.183,0.53-1.183,1.183v40.437c0,1.769-1.439,3.208-3.208,3.208h-6.68c-1.769,0-3.208-1.439-3.208-3.208V85.686
			c0-0.652-0.53-1.183-1.183-1.183c-0.697,0-1.228,0.53-1.228,1.183V124.2c0,1.769-1.439,3.208-3.208,3.208H70.45
			c-1.769,0-3.208-1.439-3.208-3.208V80.763c0-7.062,5.745-12.807,12.807-12.807h38.409c7.062,0,12.808,5.745,12.808,12.807V124.2
			c0,1.769-1.439,3.208-3.209,3.208h-5.968c-1.77,0-3.209-1.439-3.209-3.208V85.686c0-0.652-0.53-1.183-1.183-1.183
			c-0.697,0-1.228,0.53-1.228,1.183V186.61C116.47,188.379,115.03,189.818,113.262,189.818z M96.315,142.966h5.876
			c1.769,0,3.208,1.439,3.208,3.208v40.437c0,0.652,0.53,1.183,1.184,1.183h6.679c0.652,0,1.183-0.53,1.183-1.183V85.686
			c0-1.769,1.439-3.208,3.209-3.208c1.812,0,3.252,1.439,3.252,3.208V124.2c0,0.652,0.53,1.183,1.184,1.183h5.968
			c0.653,0,1.184-0.53,1.184-1.183V80.763c0-5.945-4.837-10.781-10.782-10.781H80.049c-5.945,0-10.781,4.836-10.781,10.781V124.2
			c0,0.652,0.53,1.183,1.183,1.183h5.969c0.652,0,1.183-0.53,1.183-1.183V85.686c0-1.769,1.439-3.208,3.208-3.208
			c1.813,0,3.253,1.439,3.253,3.208V186.61c0,0.652,0.53,1.183,1.183,1.183h6.68c0.652,0,1.183-0.53,1.183-1.183v-40.437
			C93.107,144.405,94.547,142.966,96.315,142.966z"/>
	</g>
</g>
</svg>
