<?xml version="1.0" encoding="utf-8"?>
<!-- Generator: Adobe Illustrator 17.1.0, SVG Export Plug-In . SVG Version: 6.00 Build 0)  -->
<!DOCTYPE svg PUBLIC "-//W3C//DTD SVG 1.1//EN" "http://www.w3.org/Graphics/SVG/1.1/DTD/svg11.dtd">
<svg version="1.1" id="Layer_1" xmlns="http://www.w3.org/2000/svg" xmlns:xlink="http://www.w3.org/1999/xlink" x="0px" y="0px"
	 viewBox="0 0 221.5 189.5" enable-background="new 0 0 221.5 189.5" xml:space="preserve">
<g>
	<defs>
		<rect id="SVGID_4_" x="21.446" y="43.17" width="179.03" height="144.874"/>
	</defs>
	<clipPath id="SVGID_38_">
		<use xlink:href="#SVGID_4_"  overflow="visible"/>
	</clipPath>
	<path clip-path="url(#SVGID_38_)" fill="#FFFFFF" d="M198.36,155.24H23.562c-0.625,0-1.132-0.523-1.132-1.167v-4.999
		c0-0.645,0.507-1.167,1.132-1.167H198.36c0.625,0,1.131,0.522,1.131,1.167v4.999C199.491,154.717,198.985,155.24,198.36,155.24"/>
	<path clip-path="url(#SVGID_38_)" fill="none" stroke="#153F2A" stroke-width="1.969" stroke-miterlimit="10" d="M198.36,155.24
		H23.562c-0.625,0-1.132-0.523-1.132-1.167v-4.999c0-0.645,0.507-1.167,1.132-1.167H198.36c0.625,0,1.131,0.522,1.131,1.167v4.999
		C199.491,154.717,198.985,155.24,198.36,155.24z"/>
	<path clip-path="url(#SVGID_38_)" fill="#FFFFFF" d="M198.36,147.907H23.562c-0.625,0-1.132-0.523-1.132-1.167v-28.499
		c0-0.645,0.507-1.167,1.132-1.167H198.36c0.625,0,1.131,0.522,1.131,1.167v28.499C199.491,147.384,198.985,147.907,198.36,147.907"
		/>
	<path clip-path="url(#SVGID_38_)" fill="none" stroke="#153F2A" stroke-width="1.969" stroke-miterlimit="10" d="M198.36,147.907
		H23.562c-0.625,0-1.132-0.523-1.132-1.167v-28.499c0-0.645,0.507-1.167,1.132-1.167H198.36c0.625,0,1.131,0.522,1.131,1.167v28.499
		C199.491,147.384,198.985,147.907,198.36,147.907z"/>
	<path clip-path="url(#SVGID_38_)" fill="#FFFFFF" d="M105.293,61.907H23.628c-0.645,0-1.168,0.522-1.168,1.167v47.332
		c0,0.645,0.523,1.168,1.168,1.168h81.665c0.645,0,1.167-0.523,1.167-1.168V63.074C106.46,62.429,105.938,61.907,105.293,61.907"/>
	<path clip-path="url(#SVGID_38_)" fill="none" stroke="#153F2A" stroke-width="2" stroke-miterlimit="10" d="M105.293,61.907
		H23.628c-0.645,0-1.168,0.522-1.168,1.167v47.332c0,0.645,0.523,1.168,1.168,1.168h81.665c0.645,0,1.167-0.523,1.167-1.168V63.074
		C106.46,62.429,105.938,61.907,105.293,61.907z"/>
	<path clip-path="url(#SVGID_38_)" fill="#FFFFFF" d="M198.293,61.907h-81.665c-0.645,0-1.168,0.522-1.168,1.167v47.332
		c0,0.645,0.523,1.168,1.168,1.168h81.665c0.645,0,1.167-0.523,1.167-1.168V63.074C199.46,62.429,198.938,61.907,198.293,61.907"/>
	<path clip-path="url(#SVGID_38_)" fill="none" stroke="#153F2A" stroke-width="2" stroke-miterlimit="10" d="M198.293,61.907
		h-81.665c-0.645,0-1.168,0.522-1.168,1.167v47.332c0,0.645,0.523,1.168,1.168,1.168h81.665c0.645,0,1.167-0.523,1.167-1.168V63.074
		C199.46,62.429,198.938,61.907,198.293,61.907z"/>
	<path clip-path="url(#SVGID_38_)" fill="#FFFFFF" d="M198.027,187.059H23.894c-0.808,0-1.464-0.676-1.464-1.511v-11.797
		c0-0.834,0.656-1.511,1.464-1.511h174.133c0.809,0,1.464,0.677,1.464,1.511v11.797
		C199.491,186.383,198.836,187.059,198.027,187.059"/>
	<path clip-path="url(#SVGID_38_)" fill="none" stroke="#153F2A" stroke-width="1.969" stroke-miterlimit="10" d="M198.027,187.059
		H23.894c-0.808,0-1.464-0.676-1.464-1.511v-11.797c0-0.834,0.656-1.511,1.464-1.511h174.133c0.809,0,1.464,0.677,1.464,1.511
		v11.797C199.491,186.383,198.836,187.059,198.027,187.059z"/>
	<path clip-path="url(#SVGID_38_)" fill="#FFFFFF" d="M51.627,44.17h-4.999c-0.644,0-1.167,0.573-1.167,1.281v14.333V163.94v14.333
		c0,0.707,0.523,1.281,1.167,1.281h4.999c0.645,0,1.167-0.574,1.167-1.281V163.94V59.784V45.451
		C52.794,44.743,52.272,44.17,51.627,44.17"/>
	<path clip-path="url(#SVGID_38_)" fill="none" stroke="#153F2A" stroke-width="2" stroke-miterlimit="10" d="M51.627,44.17h-4.999
		c-0.644,0-1.167,0.573-1.167,1.281v14.333V163.94v14.333c0,0.707,0.523,1.281,1.167,1.281h4.999c0.645,0,1.167-0.574,1.167-1.281
		V163.94V59.784V45.451C52.794,44.743,52.272,44.17,51.627,44.17z"/>
	<path clip-path="url(#SVGID_38_)" fill="#FFFFFF" d="M86.604,86.3c0,5.282-4.282,9.564-9.564,9.564
		c-5.283,0-9.565-4.282-9.565-9.564c0-5.282,4.282-9.564,9.565-9.564C82.322,76.736,86.604,81.018,86.604,86.3"/>
	
		<circle clip-path="url(#SVGID_38_)" fill="none" stroke="#153F2A" stroke-width="2" stroke-miterlimit="10" cx="77.04" cy="86.3" r="9.565"/>
	<path clip-path="url(#SVGID_38_)" fill="#FFFFFF" d="M56.922,109.435v28.19c0,0.788,0.638,1.425,1.425,1.425h3.874
		c0.787,0,1.424-0.637,1.424-1.425V112.63c0-0.787,0.638-1.425,1.425-1.425h0.029c0.787,0,1.425,0.638,1.425,1.425v65.499
		c0,0.787,0.638,1.425,1.425,1.425h4.335c0.787,0,1.425-0.638,1.425-1.425v-26.243c0-0.786,0.638-1.424,1.425-1.424h3.813
		c0.787,0,1.425,0.638,1.425,1.424v26.243c0,0.787,0.638,1.425,1.425,1.425h4.334c0.787,0,1.425-0.638,1.425-1.425V112.63
		c0-0.787,0.638-1.425,1.425-1.425h0.029c0.787,0,1.425,0.638,1.425,1.425v24.995c0,0.788,0.638,1.425,1.425,1.425h3.873
		c0.787,0,1.425-0.637,1.425-1.425v-28.19c0-4.228-3.427-7.655-7.654-7.655H64.577C60.349,101.78,56.922,105.207,56.922,109.435"/>
	<path clip-path="url(#SVGID_38_)" fill="none" stroke="#153F2A" stroke-width="2" stroke-miterlimit="10" d="M56.922,109.435v28.19
		c0,0.788,0.638,1.425,1.425,1.425h3.874c0.787,0,1.424-0.637,1.424-1.425V112.63c0-0.787,0.638-1.425,1.425-1.425h0.029
		c0.787,0,1.425,0.638,1.425,1.425v65.499c0,0.787,0.638,1.425,1.425,1.425h4.335c0.787,0,1.425-0.638,1.425-1.425v-26.243
		c0-0.786,0.638-1.424,1.425-1.424h3.813c0.787,0,1.425,0.638,1.425,1.424v26.243c0,0.787,0.638,1.425,1.425,1.425h4.334
		c0.787,0,1.425-0.638,1.425-1.425V112.63c0-0.787,0.638-1.425,1.425-1.425h0.029c0.787,0,1.425,0.638,1.425,1.425v24.995
		c0,0.788,0.638,1.425,1.425,1.425h3.873c0.787,0,1.425-0.637,1.425-1.425v-28.19c0-4.228-3.427-7.655-7.654-7.655H64.577
		C60.349,101.78,56.922,105.207,56.922,109.435z"/>
	<path clip-path="url(#SVGID_38_)" fill="#FFFFFF" d="M118.729,105.976c6.546,1.074,12.125-4.505,11.051-11.051
		c-0.65-3.964-3.847-7.161-7.811-7.811c-6.546-1.074-12.125,4.505-11.051,11.051C111.568,102.129,114.765,105.326,118.729,105.976"
		/>
	<path clip-path="url(#SVGID_38_)" fill="none" stroke="#153F2A" stroke-width="2" stroke-miterlimit="10" d="M118.729,105.976
		c6.546,1.074,12.125-4.505,11.051-11.051c-0.65-3.964-3.847-7.161-7.811-7.811c-6.546-1.074-12.125,4.505-11.051,11.051
		C111.568,102.129,114.765,105.326,118.729,105.976z"/>
	<path clip-path="url(#SVGID_38_)" fill="#FFFFFF" d="M140.467,142.496v-22.83c0-4.22-3.421-7.641-7.641-7.641h-24.954
		c-4.22,0-7.641,3.421-7.641,7.641v22.83c0,0.78,0.632,1.411,1.411,1.411h3.901c0.779,0,1.411-0.631,1.411-1.411v-19.635
		c0-0.78,0.632-1.412,1.412-1.412h0.056c0.779,0,1.411,0.627,1.411,1.406c0.002,4.806,0.006,20.44-0.001,23.268
		c-0.001,0.289-0.09,0.565-0.256,0.802l-2.388,3.404c-0.166,0.236-0.255,0.509-0.256,0.798c-0.008,3.112-0.014,21.931-0.016,27.26
		c0,0.78,0.632,1.405,1.412,1.405h4.361c0.78,0,1.412-0.632,1.412-1.411v-25.027c0-0.643,0.521-1.164,1.164-1.163l10.119,0.007
		c0.641,0.001,1.161,0.52,1.162,1.161l0.051,24.858c0,0.78,0.632,1.412,1.412,1.412h4.361c0.78,0,1.412-0.626,1.411-1.405
		c-0.001-5.318-0.008-24.069-0.018-27.239c-0.001-0.301-0.097-0.583-0.277-0.823c-0.719-0.956-2.596-3.453-2.596-3.465
		l-0.024-23.835c0-0.78,0.632-1.413,1.412-1.413h0.057c0.779,0,1.41,0.63,1.412,1.408l0.043,19.642
		c0.002,0.778,0.634,1.408,1.412,1.408h3.854C139.835,143.907,140.467,143.276,140.467,142.496"/>
	<path clip-path="url(#SVGID_38_)" fill="none" stroke="#153F2A" stroke-width="2" stroke-miterlimit="10" d="M140.467,142.496
		v-22.83c0-4.22-3.421-7.641-7.641-7.641h-24.954c-4.22,0-7.641,3.421-7.641,7.641v22.83c0,0.78,0.632,1.411,1.411,1.411h3.901
		c0.779,0,1.411-0.631,1.411-1.411v-19.635c0-0.78,0.632-1.412,1.412-1.412h0.056c0.779,0,1.411,0.627,1.411,1.406
		c0.002,4.806,0.006,20.44-0.001,23.268c-0.001,0.289-0.09,0.565-0.256,0.802l-2.388,3.404c-0.166,0.236-0.255,0.509-0.256,0.798
		c-0.008,3.112-0.014,21.931-0.016,27.26c0,0.78,0.632,1.405,1.412,1.405h4.361c0.78,0,1.412-0.632,1.412-1.411v-25.027
		c0-0.643,0.521-1.164,1.164-1.163l10.119,0.007c0.641,0.001,1.161,0.52,1.162,1.161l0.051,24.858c0,0.78,0.632,1.412,1.412,1.412
		h4.361c0.78,0,1.412-0.626,1.411-1.405c-0.001-5.318-0.008-24.069-0.018-27.239c-0.001-0.301-0.097-0.583-0.277-0.823
		c-0.719-0.956-2.596-3.453-2.596-3.465l-0.024-23.835c0-0.78,0.632-1.413,1.412-1.413h0.057c0.779,0,1.41,0.63,1.412,1.408
		l0.043,19.642c0.002,0.778,0.634,1.408,1.412,1.408h3.854C139.835,143.907,140.467,143.276,140.467,142.496z"/>
	<path clip-path="url(#SVGID_38_)" fill="#FFFFFF" d="M161.729,105.976c6.546,1.074,12.125-4.505,11.051-11.051
		c-0.65-3.964-3.847-7.161-7.811-7.811c-6.546-1.074-12.125,4.505-11.051,11.051C154.568,102.129,157.765,105.326,161.729,105.976"
		/>
	<path clip-path="url(#SVGID_38_)" fill="none" stroke="#153F2A" stroke-width="2" stroke-miterlimit="10" d="M161.729,105.976
		c6.546,1.074,12.125-4.505,11.051-11.051c-0.65-3.964-3.847-7.161-7.811-7.811c-6.546-1.074-12.125,4.505-11.051,11.051
		C154.568,102.129,157.765,105.326,161.729,105.976z"/>
	<path clip-path="url(#SVGID_38_)" fill="#FFFFFF" d="M183.467,142.496v-22.83c0-4.22-3.421-7.641-7.641-7.641h-24.954
		c-4.22,0-7.641,3.421-7.641,7.641v22.83c0,0.78,0.632,1.411,1.411,1.411h3.901c0.779,0,1.411-0.631,1.411-1.411v-19.635
		c0-0.78,0.632-1.412,1.412-1.412h0.056c0.779,0,1.411,0.627,1.411,1.406c0.002,4.806,0.006,20.44-0.001,23.268
		c-0.001,0.289-0.09,0.565-0.256,0.802l-2.388,3.404c-0.166,0.236-0.255,0.509-0.256,0.798c-0.008,3.112-0.014,21.931-0.016,27.26
		c0,0.78,0.632,1.405,1.412,1.405h4.361c0.78,0,1.412-0.632,1.412-1.411v-25.027c0-0.643,0.521-1.164,1.164-1.163l10.119,0.007
		c0.641,0.001,1.161,0.52,1.162,1.161l0.051,24.858c0,0.78,0.632,1.412,1.412,1.412h4.361c0.78,0,1.412-0.626,1.411-1.405
		c-0.001-5.318-0.008-24.069-0.018-27.239c-0.001-0.301-0.097-0.583-0.277-0.823c-0.719-0.956-2.596-3.453-2.596-3.465
		l-0.024-23.835c0-0.78,0.632-1.413,1.412-1.413h0.057c0.779,0,1.41,0.63,1.412,1.408l0.043,19.642
		c0.002,0.778,0.634,1.408,1.412,1.408h3.854C182.835,143.907,183.467,143.276,183.467,142.496"/>
	<path clip-path="url(#SVGID_38_)" fill="none" stroke="#153F2A" stroke-width="2" stroke-miterlimit="10" d="M183.467,142.496
		v-22.83c0-4.22-3.421-7.641-7.641-7.641h-24.954c-4.22,0-7.641,3.421-7.641,7.641v22.83c0,0.78,0.632,1.411,1.411,1.411h3.901
		c0.779,0,1.411-0.631,1.411-1.411v-19.635c0-0.78,0.632-1.412,1.412-1.412h0.056c0.779,0,1.411,0.627,1.411,1.406
		c0.002,4.806,0.006,20.44-0.001,23.268c-0.001,0.289-0.09,0.565-0.256,0.802l-2.388,3.404c-0.166,0.236-0.255,0.509-0.256,0.798
		c-0.008,3.112-0.014,21.931-0.016,27.26c0,0.78,0.632,1.405,1.412,1.405h4.361c0.78,0,1.412-0.632,1.412-1.411v-25.027
		c0-0.643,0.521-1.164,1.164-1.163l10.119,0.007c0.641,0.001,1.161,0.52,1.162,1.161l0.051,24.858c0,0.78,0.632,1.412,1.412,1.412
		h4.361c0.78,0,1.412-0.626,1.411-1.405c-0.001-5.318-0.008-24.069-0.018-27.239c-0.001-0.301-0.097-0.583-0.277-0.823
		c-0.719-0.956-2.596-3.453-2.596-3.465l-0.024-23.835c0-0.78,0.632-1.413,1.412-1.413h0.057c0.779,0,1.41,0.63,1.412,1.408
		l0.043,19.642c0.002,0.778,0.634,1.408,1.412,1.408h3.854C182.835,143.907,183.467,143.276,183.467,142.496z"/>
</g>
</svg>
