<?xml version="1.0" encoding="utf-8"?>
<!-- Generator: Adobe Illustrator 17.1.0, SVG Export Plug-In . SVG Version: 6.00 Build 0)  -->
<!DOCTYPE svg PUBLIC "-//W3C//DTD SVG 1.1//EN" "http://www.w3.org/Graphics/SVG/1.1/DTD/svg11.dtd">
<svg version="1.1" id="Layer_1" xmlns="http://www.w3.org/2000/svg" xmlns:xlink="http://www.w3.org/1999/xlink" x="0px" y="0px"
	 viewBox="0 0 221.5 189.5" enable-background="new 0 0 221.5 189.5" xml:space="preserve">
<g>
	<defs>
		<rect id="SVGID_54_" x="12.545" y="37.654" width="192.908" height="151.346"/>
	</defs>
	<clipPath id="SVGID_38_">
		<use xlink:href="#SVGID_54_"  overflow="visible"/>
	</clipPath>
	<path clip-path="url(#SVGID_38_)" fill="#153F2A" d="M158.2,122.931H59.569c-0.459,0-0.871,0.281-1.04,0.707l-25.178,63.824
		C33.06,188.2,33.604,189,34.397,189H47.09c0.468,0,0.888-0.291,1.053-0.73l19.452-51.874c0.165-0.439,0.585-0.73,1.054-0.73h80.713
		c0.469,0,0.889,0.291,1.053,0.73l19.453,51.874c0.164,0.439,0.584,0.73,1.053,0.73h12.692c0.794,0,1.338-0.8,1.047-1.538
		l-25.09-63.599C159.348,123.301,158.805,122.931,158.2,122.931"/>
	<path clip-path="url(#SVGID_38_)" fill="#FFFFFF" d="M190.211,108.959H27.8c-0.621,0-1.125-0.504-1.125-1.125v-4.982
		c0-0.621,0.504-1.125,1.125-1.125h162.411c0.621,0,1.125,0.504,1.125,1.125v4.982C191.336,108.455,190.832,108.959,190.211,108.959
		"/>
	<path clip-path="url(#SVGID_38_)" fill="none" stroke="#153F2A" stroke-width="2" stroke-miterlimit="10" d="M190.211,108.959H27.8
		c-0.621,0-1.125-0.504-1.125-1.125v-4.982c0-0.621,0.504-1.125,1.125-1.125h162.411c0.621,0,1.125,0.504,1.125,1.125v4.982
		C191.336,108.455,190.832,108.959,190.211,108.959z"/>
	<path clip-path="url(#SVGID_38_)" fill="#FFFFFF" d="M105.283,92.562h-90.22c-0.838,0-1.518-0.68-1.518-1.52V40.223
		c0-0.84,0.68-1.52,1.518-1.52h90.22c0.838,0,1.518,0.68,1.518,1.52v50.819C106.801,91.882,106.121,92.562,105.283,92.562"/>
	<path clip-path="url(#SVGID_38_)" fill="none" stroke="#153F2A" stroke-width="2" stroke-miterlimit="10" d="M105.283,92.562
		h-90.22c-0.838,0-1.518-0.68-1.518-1.52V40.223c0-0.84,0.68-1.52,1.518-1.52h90.22c0.838,0,1.518,0.68,1.518,1.52v50.819
		C106.801,91.882,106.121,92.562,105.283,92.562z"/>
</g>
<rect x="44.594" y="38.703" fill="#FFFFFF" width="31.158" height="53.859"/>
<g>
	<defs>
		<rect id="SVGID_56_" x="12.545" y="37.654" width="192.908" height="151.346"/>
	</defs>
	<clipPath id="SVGID_39_">
		<use xlink:href="#SVGID_56_"  overflow="visible"/>
	</clipPath>
	
		<rect x="44.594" y="38.703" clip-path="url(#SVGID_39_)" fill="none" stroke="#153F2A" stroke-width="2" stroke-miterlimit="10" width="31.158" height="53.859"/>
	
		<line clip-path="url(#SVGID_39_)" fill="none" stroke="#153F2A" stroke-width="2" stroke-miterlimit="10" x1="60.142" y1="38.763" x2="60.142" y2="92.598"/>
	<path clip-path="url(#SVGID_39_)" fill="#FFFFFF" d="M71.268,67.486h-6.28c-0.847,0-1.534-0.681-1.534-1.521V45.767
		c0-0.84,0.687-1.521,1.534-1.521h6.28c0.847,0,1.533,0.681,1.533,1.521v20.198C72.801,66.805,72.115,67.486,71.268,67.486"/>
	<path clip-path="url(#SVGID_39_)" fill="none" stroke="#153F2A" stroke-width="2" stroke-miterlimit="10" d="M71.268,67.486h-6.28
		c-0.847,0-1.534-0.681-1.534-1.521V45.767c0-0.84,0.687-1.521,1.534-1.521h6.28c0.847,0,1.533,0.681,1.533,1.521v20.198
		C72.801,66.805,72.115,67.486,71.268,67.486z"/>
	<path clip-path="url(#SVGID_39_)" fill="#FFFFFF" d="M55.359,67.486h-6.28c-0.847,0-1.534-0.681-1.534-1.521V45.767
		c0-0.84,0.687-1.521,1.534-1.521h6.28c0.847,0,1.533,0.681,1.533,1.521v20.198C56.892,66.805,56.206,67.486,55.359,67.486"/>
	<path clip-path="url(#SVGID_39_)" fill="none" stroke="#153F2A" stroke-width="2" stroke-miterlimit="10" d="M55.359,67.486h-6.28
		c-0.847,0-1.534-0.681-1.534-1.521V45.767c0-0.84,0.687-1.521,1.534-1.521h6.28c0.847,0,1.533,0.681,1.533,1.521v20.198
		C56.892,66.805,56.206,67.486,55.359,67.486z"/>
	<path clip-path="url(#SVGID_39_)" fill="#FFFFFF" d="M81.529,67.486h23.465c0.998,0,1.807-0.81,1.807-1.809V46.055
		c0-0.999-0.809-1.809-1.807-1.809H81.529c-0.998,0-1.808,0.81-1.808,1.809v19.622C79.721,66.676,80.531,67.486,81.529,67.486"/>
	<path clip-path="url(#SVGID_39_)" fill="none" stroke="#153F2A" stroke-width="2" stroke-miterlimit="10" d="M81.529,67.486h23.465
		c0.998,0,1.807-0.81,1.807-1.809V46.055c0-0.999-0.809-1.809-1.807-1.809H81.529c-0.998,0-1.808,0.81-1.808,1.809v19.622
		C79.721,66.676,80.531,67.486,81.529,67.486z"/>
	<path clip-path="url(#SVGID_39_)" fill="#FFFFFF" d="M15.353,67.486h23.464c0.999,0,1.808-0.81,1.808-1.809V46.055
		c0-0.999-0.809-1.809-1.808-1.809H15.353c-0.998,0-1.808,0.81-1.808,1.809v19.622C13.545,66.676,14.355,67.486,15.353,67.486"/>
	<path clip-path="url(#SVGID_39_)" fill="none" stroke="#153F2A" stroke-width="2" stroke-miterlimit="10" d="M15.353,67.486h23.464
		c0.999,0,1.808-0.81,1.808-1.809V46.055c0-0.999-0.809-1.809-1.808-1.809H15.353c-0.998,0-1.808,0.81-1.808,1.809v19.622
		C13.545,66.676,14.355,67.486,15.353,67.486z"/>
	<path clip-path="url(#SVGID_39_)" fill="none" stroke="#153F2A" stroke-width="2" stroke-miterlimit="10" d="M79.782,51.592h26.959
		 M13.606,51.592h26.959"/>
	<path clip-path="url(#SVGID_39_)" fill="#FFFFFF" d="M202.935,92.513h-90.219c-0.839,0-1.519-0.68-1.519-1.52V40.174
		c0-0.839,0.68-1.52,1.519-1.52h90.219c0.839,0,1.518,0.681,1.518,1.52v50.819C204.453,91.833,203.774,92.513,202.935,92.513"/>
	<path clip-path="url(#SVGID_39_)" fill="none" stroke="#153F2A" stroke-width="2" stroke-miterlimit="10" d="M202.935,92.513
		h-90.219c-0.839,0-1.519-0.68-1.519-1.52V40.174c0-0.839,0.68-1.52,1.519-1.52h90.219c0.839,0,1.518,0.681,1.518,1.52v50.819
		C204.453,91.833,203.774,92.513,202.935,92.513z"/>
</g>
<rect x="142.246" y="38.654" fill="#FFFFFF" width="31.158" height="53.859"/>
<g>
	<defs>
		<rect id="SVGID_58_" x="12.545" y="37.654" width="192.908" height="151.346"/>
	</defs>
	<clipPath id="SVGID_40_">
		<use xlink:href="#SVGID_58_"  overflow="visible"/>
	</clipPath>
	
		<rect x="142.246" y="38.654" clip-path="url(#SVGID_40_)" fill="none" stroke="#153F2A" stroke-width="2" stroke-miterlimit="10" width="31.158" height="53.859"/>
	
		<line clip-path="url(#SVGID_40_)" fill="none" stroke="#153F2A" stroke-width="2" stroke-miterlimit="10" x1="157.856" y1="38.714" x2="157.856" y2="92.549"/>
	<path clip-path="url(#SVGID_40_)" fill="#FFFFFF" d="M168.92,67.437h-6.281c-0.846,0-1.532-0.681-1.532-1.521V45.718
		c0-0.84,0.686-1.521,1.532-1.521h6.281c0.847,0,1.533,0.681,1.533,1.521v20.198C170.453,66.756,169.767,67.437,168.92,67.437"/>
	<path clip-path="url(#SVGID_40_)" fill="none" stroke="#153F2A" stroke-width="2" stroke-miterlimit="10" d="M168.92,67.437h-6.281
		c-0.846,0-1.532-0.681-1.532-1.521V45.718c0-0.84,0.686-1.521,1.532-1.521h6.281c0.847,0,1.533,0.681,1.533,1.521v20.198
		C170.453,66.756,169.767,67.437,168.92,67.437z"/>
	<path clip-path="url(#SVGID_40_)" fill="#FFFFFF" d="M153.011,67.437h-6.281c-0.846,0-1.532-0.681-1.532-1.521V45.718
		c0-0.84,0.686-1.521,1.532-1.521h6.281c0.847,0,1.533,0.681,1.533,1.521v20.198C154.544,66.756,153.858,67.437,153.011,67.437"/>
	<path clip-path="url(#SVGID_40_)" fill="none" stroke="#153F2A" stroke-width="2" stroke-miterlimit="10" d="M153.011,67.437
		h-6.281c-0.846,0-1.532-0.681-1.532-1.521V45.718c0-0.84,0.686-1.521,1.532-1.521h6.281c0.847,0,1.533,0.681,1.533,1.521v20.198
		C154.544,66.756,153.858,67.437,153.011,67.437z"/>
	<path clip-path="url(#SVGID_40_)" fill="#FFFFFF" d="M179.181,67.437h23.465c0.998,0,1.807-0.81,1.807-1.809V46.006
		c0-0.999-0.809-1.809-1.807-1.809h-23.465c-0.999,0-1.808,0.81-1.808,1.809v19.622C177.373,66.627,178.182,67.437,179.181,67.437"
		/>
	<path clip-path="url(#SVGID_40_)" fill="none" stroke="#153F2A" stroke-width="2" stroke-miterlimit="10" d="M179.181,67.437
		h23.465c0.998,0,1.807-0.81,1.807-1.809V46.006c0-0.999-0.809-1.809-1.807-1.809h-23.465c-0.999,0-1.808,0.81-1.808,1.809v19.622
		C177.373,66.627,178.182,67.437,179.181,67.437z"/>
	<path clip-path="url(#SVGID_40_)" fill="#FFFFFF" d="M113.005,67.437h23.465c0.998,0,1.808-0.81,1.808-1.809V46.006
		c0-0.999-0.81-1.809-1.808-1.809h-23.465c-0.998,0-1.808,0.81-1.808,1.809v19.622C111.197,66.627,112.007,67.437,113.005,67.437"/>
	<path clip-path="url(#SVGID_40_)" fill="none" stroke="#153F2A" stroke-width="2" stroke-miterlimit="10" d="M113.005,67.437
		h23.465c0.998,0,1.808-0.81,1.808-1.809V46.006c0-0.999-0.81-1.809-1.808-1.809h-23.465c-0.998,0-1.808,0.81-1.808,1.809v19.622
		C111.197,66.627,112.007,67.437,113.005,67.437z"/>
	<path clip-path="url(#SVGID_40_)" fill="none" stroke="#153F2A" stroke-width="2" stroke-miterlimit="10" d="M177.434,51.543
		h26.959 M111.258,51.543h26.959"/>
</g>
</svg>
