<?xml version="1.0" encoding="utf-8"?>
<!-- Generator: Adobe Illustrator 17.1.0, SVG Export Plug-In . SVG Version: 6.00 Build 0)  -->
<!DOCTYPE svg PUBLIC "-//W3C//DTD SVG 1.1//EN" "http://www.w3.org/Graphics/SVG/1.1/DTD/svg11.dtd">
<svg version="1.1" id="Layer_1" xmlns="http://www.w3.org/2000/svg" xmlns:xlink="http://www.w3.org/1999/xlink" x="0px" y="0px"
	 viewBox="0 0 221.5 188" enable-background="new 0 0 221.5 188" xml:space="preserve">
<g>
	<defs>
		<rect id="SVGID_43_" x="51.611" y="89.552" width="117.778" height="98.796"/>
	</defs>
	<clipPath id="SVGID_38_">
		<use xlink:href="#SVGID_43_"  overflow="visible"/>
	</clipPath>
	<path clip-path="url(#SVGID_38_)" fill="#FFFFFF" d="M166.494,187.171H54.505c-0.986,0-1.786-0.8-1.786-1.786V92.338
		c0-0.987,0.8-1.786,1.786-1.786h111.989c0.986,0,1.786,0.799,1.786,1.786v93.047C168.28,186.371,167.48,187.171,166.494,187.171"/>
	<path clip-path="url(#SVGID_38_)" fill="none" stroke="#153F2A" stroke-width="2" stroke-miterlimit="10" d="M166.494,187.171
		H54.505c-0.986,0-1.786-0.8-1.786-1.786V92.338c0-0.987,0.8-1.786,1.786-1.786h111.989c0.986,0,1.786,0.799,1.786,1.786v93.047
		C168.28,186.371,167.48,187.171,166.494,187.171z"/>
	<path clip-path="url(#SVGID_38_)" fill="#FFFFFF" d="M167.732,159.814l-14.757,9.401c-0.227,0.145-0.492,0.222-0.762,0.222H68.007
		c-0.282,0-0.557-0.084-0.791-0.241l-13.976-9.378c-0.394-0.264-0.629-0.707-0.629-1.182l0.106-66.666
		c0.002-0.784,0.637-1.418,1.42-1.418H166.97c0.784,0,1.419,0.636,1.419,1.42v66.644
		C168.389,159.101,168.141,159.553,167.732,159.814"/>
	<path clip-path="url(#SVGID_38_)" fill="none" stroke="#153F2A" stroke-width="2" stroke-miterlimit="10" d="M167.732,159.814
		l-14.757,9.401c-0.227,0.145-0.492,0.222-0.762,0.222H68.007c-0.282,0-0.557-0.084-0.791-0.241l-13.976-9.378
		c-0.394-0.264-0.629-0.707-0.629-1.182l0.106-66.666c0.002-0.784,0.637-1.418,1.42-1.418H166.97c0.784,0,1.419,0.636,1.419,1.42
		v66.644C168.389,159.101,168.141,159.553,167.732,159.814z"/>
	<path clip-path="url(#SVGID_38_)" fill="#FFFFFF" d="M150.096,169.437H70.044c-0.869,0-1.574-0.705-1.574-1.574V95.056
		c0-0.87,0.705-1.575,1.574-1.575h80.051c0.869,0,1.574,0.705,1.574,1.575v72.807C151.669,168.732,150.964,169.437,150.096,169.437"
		/>
	<path clip-path="url(#SVGID_38_)" fill="none" stroke="#153F2A" stroke-width="2" stroke-miterlimit="10" d="M150.096,169.437
		H70.044c-0.869,0-1.574-0.705-1.574-1.574V95.056c0-0.87,0.705-1.575,1.574-1.575h80.051c0.869,0,1.574,0.705,1.574,1.575v72.807
		C151.669,168.732,150.964,169.437,150.096,169.437z"/>
	<path clip-path="url(#SVGID_38_)" fill="none" stroke="#153F2A" stroke-width="2" stroke-miterlimit="10" d="M126.348,169.437
		H94.266c-0.66,0-1.195-0.534-1.195-1.193v-2.645c0-0.659,0.535-1.194,1.195-1.194h32.083c0.659,0,1.194,0.535,1.194,1.194v2.645
		C127.542,168.903,127.007,169.437,126.348,169.437z M119.603,138.859c0,5.024-4.075,9.096-9.102,9.096
		c-5.027,0-9.102-4.072-9.102-9.096c0-5.024,4.075-9.096,9.102-9.096C115.528,129.763,119.603,133.835,119.603,138.859z"/>
	<path clip-path="url(#SVGID_38_)" fill="#FFFFFF" d="M152.578,95.91H68.73c-0.033,0-0.066-0.005-0.097-0.016L54.6,91.185
		c-0.34-0.114-0.26-0.633,0.097-0.633h111.641c0.356,0,0.437,0.516,0.099,0.632l-13.76,4.71
		C152.645,95.905,152.612,95.91,152.578,95.91"/>
	<path clip-path="url(#SVGID_38_)" fill="none" stroke="#153F2A" stroke-width="2" stroke-miterlimit="10" d="M152.578,95.91H68.73
		c-0.033,0-0.066-0.005-0.097-0.016L54.6,91.185c-0.34-0.114-0.26-0.633,0.097-0.633h111.641c0.356,0,0.437,0.516,0.099,0.632
		l-13.76,4.71C152.645,95.905,152.612,95.91,152.578,95.91z"/>
	<path clip-path="url(#SVGID_38_)" fill="#153F2A" d="M87.769,149.651H74.658c-1.062,0-1.922-0.861-1.922-1.922v-17.735
		c0-1.062,0.86-1.922,1.922-1.922h13.111c1.061,0,1.922,0.86,1.922,1.922v17.735C89.691,148.79,88.83,149.651,87.769,149.651"/>
	<path clip-path="url(#SVGID_38_)" fill="#FFFFFF" d="M150.043,187.348H70.098c-0.899,0-1.627-0.734-1.627-1.639v-14.985
		c0-0.906,0.728-1.639,1.627-1.639h79.945c0.898,0,1.627,0.733,1.627,1.639v14.985C151.67,186.614,150.941,187.348,150.043,187.348"
		/>
	<path clip-path="url(#SVGID_38_)" fill="none" stroke="#153F2A" stroke-width="2" stroke-miterlimit="10" d="M150.043,187.348
		H70.098c-0.899,0-1.627-0.734-1.627-1.639v-14.985c0-0.906,0.728-1.639,1.627-1.639h79.945c0.898,0,1.627,0.733,1.627,1.639v14.985
		C151.67,186.614,150.941,187.348,150.043,187.348z"/>
</g>
</svg>
