<?xml version="1.0" encoding="utf-8"?>
<!-- Generator: Adobe Illustrator 17.1.0, SVG Export Plug-In . SVG Version: 6.00 Build 0)  -->
<!DOCTYPE svg PUBLIC "-//W3C//DTD SVG 1.1//EN" "http://www.w3.org/Graphics/SVG/1.1/DTD/svg11.dtd">
<svg version="1.1" id="Layer_1" xmlns="http://www.w3.org/2000/svg" xmlns:xlink="http://www.w3.org/1999/xlink" x="0px" y="0px"
	 viewBox="0 0 221.5 189.5" enable-background="new 0 0 221.5 189.5" xml:space="preserve">
<g>
	<path fill="#FFFFFF" d="M156.761,123.579H45.437c-0.301,0-0.595,0.088-0.847,0.253l-12.334,8.104
		c-1.025,0.674-2.389-0.062-2.389-1.289v-7.069v-41.16c0-0.852,0.69-1.542,1.542-1.542h125.351c0.852,0,1.542,0.69,1.542,1.542
		v39.618C158.303,122.889,157.612,123.579,156.761,123.579z"/>
	<path fill="#163F2A" d="M31.414,133.369c-0.693,0-1.381-0.276-1.886-0.758c-0.54-0.515-0.837-1.212-0.837-1.964V82.42
		c0-1.499,1.219-2.719,2.718-2.719h125.352c1.499,0,2.719,1.22,2.719,2.719v39.617c0,1.499-1.22,2.719-2.719,2.719H45.437
		c-0.071,0-0.14,0.021-0.199,0.06l-12.335,8.104C32.455,133.214,31.94,133.369,31.414,133.369z M31.409,82.055
		c-0.201,0-0.364,0.164-0.364,0.365v48.228c0,0.106,0.035,0.192,0.107,0.261c0.12,0.115,0.303,0.146,0.457,0.045l12.334-8.104
		c0.444-0.292,0.961-0.447,1.493-0.447h111.324c0.201,0,0.365-0.164,0.365-0.365V82.42c0-0.201-0.164-0.365-0.365-0.365H31.409z"/>
</g>
<g>
	<path fill="#163F2A" d="M45.188,104.989c0,0,1.059,1.073,2.541,1.073c0.932,0,1.722-0.522,1.722-1.468
		c0-2.16-4.827-1.694-4.827-4.757c0-1.553,1.341-2.78,3.219-2.78c1.849,0,2.822,1.002,2.822,1.002l-0.635,1.157
		c0,0-0.918-0.861-2.188-0.861c-1.059,0-1.807,0.664-1.807,1.454c0,2.061,4.827,1.511,4.827,4.742c0,1.539-1.187,2.809-3.162,2.809
		c-2.117,0-3.303-1.312-3.303-1.312L45.188,104.989z"/>
	<path fill="#163F2A" d="M56.314,102.731h0.311v-0.127c0-1.172-0.663-1.567-1.566-1.567c-1.102,0-1.99,0.692-1.99,0.692
		l-0.564-1.003c0,0,1.03-0.847,2.667-0.847c1.807,0,2.823,0.988,2.823,2.795v4.517h-1.271v-0.678c0-0.324,0.028-0.564,0.028-0.564
		h-0.028c0,0-0.578,1.411-2.286,1.411c-1.229,0-2.428-0.748-2.428-2.173C52.01,102.83,55.115,102.731,56.314,102.731z
		 M54.733,106.26c1.157,0,1.905-1.214,1.905-2.272v-0.226h-0.353c-1.03,0-2.894,0.07-2.894,1.354
		C53.393,105.695,53.845,106.26,54.733,106.26z"/>
	<path fill="#163F2A" d="M63.983,104.989c0,0,1.059,1.073,2.541,1.073c0.932,0,1.722-0.522,1.722-1.468
		c0-2.16-4.827-1.694-4.827-4.757c0-1.553,1.341-2.78,3.219-2.78c1.849,0,2.822,1.002,2.822,1.002l-0.635,1.157
		c0,0-0.918-0.861-2.188-0.861c-1.059,0-1.807,0.664-1.807,1.454c0,2.061,4.827,1.511,4.827,4.742c0,1.539-1.186,2.809-3.162,2.809
		c-2.117,0-3.303-1.312-3.303-1.312L63.983,104.989z"/>
	<path fill="#163F2A" d="M75.11,102.731h0.311v-0.127c0-1.172-0.663-1.567-1.566-1.567c-1.102,0-1.99,0.692-1.99,0.692l-0.564-1.003
		c0,0,1.03-0.847,2.667-0.847c1.807,0,2.823,0.988,2.823,2.795v4.517H75.52v-0.678c0-0.324,0.028-0.564,0.028-0.564H75.52
		c0,0-0.578,1.411-2.286,1.411c-1.229,0-2.428-0.748-2.428-2.173C70.806,102.83,73.911,102.731,75.11,102.731z M73.529,106.26
		c1.157,0,1.905-1.214,1.905-2.272v-0.226h-0.353c-1.03,0-2.894,0.07-2.894,1.354C72.188,105.695,72.641,106.26,73.529,106.26z"/>
	<path fill="#163F2A" d="M78.84,100.05h1.327v0.945c0,0.282-0.028,0.522-0.028,0.522h0.028c0.282-0.621,1.129-1.638,2.682-1.638
		c1.68,0,2.456,0.918,2.456,2.738v4.573h-1.369v-4.263c0-1.002-0.212-1.792-1.354-1.792c-1.087,0-1.962,0.72-2.259,1.75
		c-0.085,0.282-0.113,0.606-0.113,0.96v3.345H78.84V100.05z"/>
	<path fill="#163F2A" d="M87.652,101.249h-0.932v-1.101h0.974v-2.061h1.327v2.061h1.722v1.101h-1.722v3.176
		c0,1.426,1.002,1.609,1.524,1.609c0.197,0,0.324-0.028,0.324-0.028v1.214c0,0-0.197,0.028-0.479,0.028
		c-0.918,0-2.738-0.282-2.738-2.668V101.249z"/>
	<path fill="#163F2A" d="M95.742,99.88c2.132,0,3.854,1.567,3.854,3.727c0,2.174-1.722,3.754-3.854,3.754
		c-2.131,0-3.853-1.58-3.853-3.754C91.89,101.447,93.611,99.88,95.742,99.88z M95.742,106.175c1.355,0,2.456-1.072,2.456-2.568
		c0-1.482-1.101-2.541-2.456-2.541c-1.341,0-2.455,1.059-2.455,2.541C93.287,105.103,94.401,106.175,95.742,106.175z"/>
	<path fill="#163F2A" d="M101.139,97.227h1.369v7.777c0,0.86,0.339,1.016,0.762,1.016c0.127,0,0.24-0.014,0.24-0.014v1.214
		c0,0-0.212,0.028-0.452,0.028c-0.776,0-1.919-0.212-1.919-2.005V97.227z"/>
	<path fill="#163F2A" d="M108.691,102.731h0.311v-0.127c0-1.172-0.663-1.567-1.566-1.567c-1.102,0-1.99,0.692-1.99,0.692
		l-0.564-1.003c0,0,1.03-0.847,2.667-0.847c1.807,0,2.823,0.988,2.823,2.795v4.517h-1.271v-0.678c0-0.324,0.028-0.564,0.028-0.564
		h-0.028c0,0-0.578,1.411-2.286,1.411c-1.229,0-2.428-0.748-2.428-2.173C104.387,102.83,107.492,102.731,108.691,102.731z
		 M107.11,106.26c1.157,0,1.905-1.214,1.905-2.272v-0.226h-0.353c-1.03,0-2.894,0.07-2.894,1.354
		C105.77,105.695,106.222,106.26,107.11,106.26z"/>
	<path fill="#163F2A" d="M112.422,100.05h1.327v0.945c0,0.282-0.028,0.522-0.028,0.522h0.028c0.282-0.621,1.129-1.638,2.682-1.638
		c1.68,0,2.456,0.918,2.456,2.738v4.573h-1.369v-4.263c0-1.002-0.212-1.792-1.354-1.792c-1.087,0-1.962,0.72-2.259,1.75
		c-0.085,0.282-0.113,0.606-0.113,0.96v3.345h-1.369V100.05z"/>
	<path fill="#163F2A" d="M124.566,100.05h1.257v0.606c0,0.282-0.028,0.522-0.028,0.522h0.028c0,0,0.606-1.299,2.399-1.299
		c1.919,0,3.133,1.524,3.133,3.74c0,2.272-1.369,3.74-3.231,3.74c-1.567,0-2.188-1.171-2.188-1.171h-0.028
		c0,0,0.028,0.254,0.028,0.621v3.204h-1.369V100.05z M127.912,106.189c1.129,0,2.061-0.932,2.061-2.555
		c0-1.553-0.833-2.555-2.019-2.555c-1.072,0-2.061,0.748-2.061,2.568C125.894,104.919,126.6,106.189,127.912,106.189z"/>
	<path fill="#163F2A" d="M136.37,99.88c2.132,0,3.854,1.567,3.854,3.727c0,2.174-1.722,3.754-3.854,3.754
		c-2.131,0-3.853-1.58-3.853-3.754C132.518,101.447,134.239,99.88,136.37,99.88z M136.37,106.175c1.355,0,2.456-1.072,2.456-2.568
		c0-1.482-1.101-2.541-2.456-2.541c-1.341,0-2.455,1.059-2.455,2.541C133.915,105.103,135.029,106.175,136.37,106.175z"/>
	<path fill="#163F2A" d="M141.852,105.737h1.44v1.454h-1.44V105.737z"/>
</g>
<g>
	<g>
		<g>
			<path fill="#FFFFFF" d="M154.425,151.948v4.111c0,2.27,5.153,4.111,11.51,4.111c6.357,0,11.51-1.84,11.51-4.111v-4.111H154.425z"
				/>
			<path fill="#163F2A" d="M165.936,161.169c-6.217,0-12.511-1.756-12.511-5.11v-5.111h25.021v5.111
				C178.445,159.413,172.152,161.169,165.936,161.169z M155.425,152.947v3.111c0,1.238,4.192,3.11,10.511,3.11
				s10.51-1.872,10.51-3.11v-3.111H155.425z"/>
		</g>
		<g>
			<ellipse fill="#FFFFFF" cx="165.935" cy="151.948" rx="11.51" ry="4.111"/>
			<path fill="#163F2A" d="M165.936,157.059c-6.217,0-12.511-1.756-12.511-5.111c0-3.354,6.294-5.11,12.511-5.11
				s12.51,1.756,12.51,5.11C178.445,155.303,172.152,157.059,165.936,157.059z M165.936,148.837c-6.318,0-10.511,1.872-10.511,3.11
				s4.192,3.111,10.511,3.111s10.51-1.873,10.51-3.111S172.254,148.837,165.936,148.837z"/>
		</g>
	</g>
	<g>
		<g>
			<path fill="#FFFFFF" d="M149.793,162.1v4.111c0,2.27,5.153,4.111,11.51,4.111c6.357,0,11.51-1.84,11.51-4.111V162.1H149.793z"/>
			<path fill="#163F2A" d="M161.303,171.321c-6.217,0-12.51-1.756-12.51-5.11V161.1h25.021v5.111
				C173.813,169.565,167.52,171.321,161.303,171.321z M150.793,163.1v3.111c0,1.238,4.191,3.11,10.51,3.11s10.511-1.872,10.511-3.11
				V163.1H150.793z"/>
		</g>
		<g>
			<ellipse fill="#FFFFFF" cx="161.303" cy="162.1" rx="11.51" ry="4.111"/>
			<path fill="#163F2A" d="M161.303,167.211c-6.217,0-12.51-1.756-12.51-5.111c0-3.354,6.293-5.11,12.51-5.11
				s12.511,1.756,12.511,5.11C173.813,165.455,167.52,167.211,161.303,167.211z M161.303,158.989c-6.318,0-10.51,1.872-10.51,3.11
				s4.191,3.111,10.51,3.111s10.511-1.873,10.511-3.111S167.621,158.989,161.303,158.989z"/>
		</g>
	</g>
	<g>
		<g>
			<path fill="#FFFFFF" d="M168.584,160.045v4.111c0,2.27,5.153,4.111,11.51,4.111c6.357,0,11.51-1.84,11.51-4.111v-4.111H168.584z"
				/>
			<path fill="#163F2A" d="M180.094,169.267c-6.217,0-12.51-1.756-12.51-5.111v-5.11h25.021v5.11
				C192.604,167.511,186.311,169.267,180.094,169.267z M169.584,161.045v3.11c0,1.238,4.191,3.111,10.51,3.111
				s10.511-1.873,10.511-3.111v-3.11H169.584z"/>
		</g>
		<g>
			<ellipse fill="#FFFFFF" cx="180.094" cy="160.045" rx="11.51" ry="4.111"/>
			<path fill="#163F2A" d="M180.094,165.155c-6.217,0-12.51-1.756-12.51-5.11c0-3.355,6.293-5.111,12.51-5.111
				s12.511,1.756,12.511,5.111C192.604,163.399,186.311,165.155,180.094,165.155z M180.094,156.934
				c-6.318,0-10.51,1.873-10.51,3.111s4.191,3.11,10.51,3.11s10.511-1.872,10.511-3.11S186.412,156.934,180.094,156.934z"/>
		</g>
	</g>
</g>
<g>
	<g enable-background="new    ">
		<defs>
			<polygon id="SVGID_143_" enable-background="new    " points="164.255,153.428 164.299,150.36 167.647,150.351 167.603,153.419 
							"/>
		</defs>
		<clipPath id="SVGID_1_">
			<use xlink:href="#SVGID_143_"  overflow="visible"/>
		</clipPath>
		<g clip-path="url(#SVGID_1_)">
			<g>
				<path fill="#163F2A" d="M167.305,150.352l-2.556,0.007l-0.274,1.497l0.413,0.09c0,0,0.362-0.151,0.857-0.152
					c0.648-0.002,1.148,0.254,1.143,0.612c-0.005,0.369-0.522,0.616-1.125,0.618c-0.711,0.002-1.102-0.323-1.102-0.323l-0.4,0.306
					c0,0,0.498,0.421,1.542,0.418c1.026-0.003,1.806-0.443,1.814-1.02c0.008-0.545-0.688-0.982-1.759-0.979
					c-0.369,0.001-0.649,0.098-0.649,0.098l-0.018,0c0,0,0.028-0.07,0.038-0.16l0.135-0.636l1.935-0.005L167.305,150.352"/>
			</g>
		</g>
	</g>
</g>
<g>
	<g enable-background="new    ">
		<defs>
			<polygon id="SVGID_145_" enable-background="new    " points="159.62,163.58 159.664,160.512 163.012,160.503 162.967,163.571 
							"/>
		</defs>
		<clipPath id="SVGID_2_">
			<use xlink:href="#SVGID_145_"  overflow="visible"/>
		</clipPath>
		<g clip-path="url(#SVGID_2_)">
			<g>
				<path fill="#163F2A" d="M162.679,160.504l-2.565,0.007l-0.273,1.497l0.413,0.09c0,0,0.362-0.151,0.857-0.152
					c0.657-0.002,1.148,0.253,1.143,0.612c-0.005,0.369-0.522,0.616-1.116,0.618c-0.72,0.002-1.111-0.323-1.111-0.323l-0.4,0.306
					c0,0,0.507,0.421,1.551,0.418c1.026-0.003,1.797-0.443,1.805-1.02c0.008-0.545-0.679-0.982-1.75-0.979
					c-0.378,0.001-0.658,0.098-0.658,0.098l-0.018,0c0,0,0.037-0.07,0.038-0.16l0.135-0.636l1.944-0.005L162.679,160.504"/>
			</g>
		</g>
	</g>
</g>
<g>
	<g enable-background="new    ">
		<defs>
			<polygon id="SVGID_147_" enable-background="new    " points="178.412,161.521 178.456,158.458 181.804,158.449 181.76,161.512 
							"/>
		</defs>
		<clipPath id="SVGID_3_">
			<use xlink:href="#SVGID_147_"  overflow="visible"/>
		</clipPath>
		<g clip-path="url(#SVGID_3_)">
			<g>
				<path fill="#163F2A" d="M181.471,158.45l-2.565,0.007l-0.273,1.492l0.413,0.09c0,0,0.362-0.151,0.857-0.152
					c0.648-0.002,1.148,0.254,1.143,0.617c-0.005,0.369-0.522,0.611-1.116,0.612c-0.72,0.002-1.111-0.323-1.111-0.323l-0.4,0.311
					c0,0,0.507,0.416,1.542,0.413c1.035-0.003,1.806-0.438,1.814-1.02c0.008-0.54-0.679-0.982-1.75-0.979
					c-0.378,0.001-0.658,0.098-0.658,0.098l-0.018,0c0,0,0.037-0.07,0.038-0.155l0.135-0.636l1.944-0.005L181.471,158.45"/>
			</g>
		</g>
	</g>
</g>
</svg>
