<?xml version="1.0" encoding="utf-8"?>
<!-- Generator: Adobe Illustrator 17.1.0, SVG Export Plug-In . SVG Version: 6.00 Build 0)  -->
<!DOCTYPE svg PUBLIC "-//W3C//DTD SVG 1.1//EN" "http://www.w3.org/Graphics/SVG/1.1/DTD/svg11.dtd">
<svg version="1.1" id="Layer_1" xmlns="http://www.w3.org/2000/svg" xmlns:xlink="http://www.w3.org/1999/xlink" x="0px" y="0px"
	 viewBox="0 0 221.5 189.5" enable-background="new 0 0 221.5 189.5" xml:space="preserve">
<g>
	<g>
		<path fill="#FFFFFF" d="M167.096,187.805H55.904c-1.163,0-2.106-0.943-2.106-2.106v-32.461c0-1.163,0.943-2.106,2.106-2.106
			h111.193c1.163,0,2.106,0.943,2.106,2.106v32.461C169.202,186.862,168.259,187.805,167.096,187.805z"/>
		<path fill="#163F2A" d="M167.097,189.04H55.903c-1.842,0-3.341-1.499-3.341-3.341v-32.461c0-1.842,1.499-3.341,3.341-3.341
			h111.193c1.842,0,3.341,1.499,3.341,3.341v32.461C170.438,187.541,168.938,189.04,167.097,189.04z M55.903,152.368
			c-0.479,0-0.87,0.39-0.87,0.87v32.461c0,0.48,0.391,0.87,0.87,0.87h111.193c0.479,0,0.87-0.39,0.87-0.87v-32.461
			c0-0.48-0.391-0.87-0.87-0.87H55.903z"/>
	</g>
	<g>
		<path fill="#FFFFFF" d="M166.898,150.72H56.102c-1.238,0-2.208-1.062-2.097-2.295l4.732-52.398
			c0.098-1.085,1.008-1.916,2.097-1.916h101.331c1.089,0,1.999,0.831,2.097,1.916l4.732,52.398
			C169.106,149.658,168.135,150.72,166.898,150.72z"/>
		<path fill="#163F2A" d="M166.897,151.956H56.103c-0.937,0-1.835-0.396-2.467-1.088c-0.631-0.69-0.945-1.621-0.861-2.554
			l4.732-52.398c0.156-1.732,1.587-3.04,3.327-3.04h101.332c1.74,0,3.171,1.308,3.327,3.041l4.732,52.397
			c0.084,0.933-0.23,1.863-0.861,2.554C168.732,151.56,167.834,151.956,166.897,151.956z M60.834,95.347
			c-0.453,0-0.826,0.34-0.866,0.791l-4.732,52.399c-0.03,0.332,0.127,0.56,0.224,0.665s0.31,0.283,0.644,0.283h110.795
			c0.334,0,0.547-0.178,0.644-0.283s0.254-0.333,0.224-0.665l-4.732-52.398c-0.04-0.452-0.413-0.792-0.866-0.792H60.834z"/>
	</g>
	<g>
		<path fill="#FFFFFF" d="M166.856,94.111H56.144c-1.296,0-2.346-1.05-2.346-2.346V72.248c0-1.296,1.05-2.346,2.346-2.346h110.712
			c1.296,0,2.346,1.05,2.346,2.346v19.516C169.202,93.061,168.152,94.111,166.856,94.111z"/>
		<path fill="#163F2A" d="M166.855,95.347H56.145c-1.975,0-3.582-1.607-3.582-3.582V72.248c0-1.975,1.607-3.581,3.582-3.581h110.711
			c1.975,0,3.582,1.606,3.582,3.581v19.517C170.438,93.739,168.83,95.347,166.855,95.347z M56.145,71.138
			c-0.613,0-1.111,0.498-1.111,1.11v19.517c0,0.613,0.498,1.111,1.111,1.111h110.711c0.613,0,1.111-0.498,1.111-1.111V72.248
			c0-0.612-0.498-1.11-1.111-1.11H56.145z"/>
	</g>
	<g>
		<path fill="#FFFFFF" d="M142.359,88.725H80.641c-0.645,0-1.169-0.523-1.169-1.169v-11.1c0-0.645,0.523-1.169,1.169-1.169h61.719
			c0.645,0,1.169,0.523,1.169,1.169v11.1C143.528,88.202,143.005,88.725,142.359,88.725z"/>
		<path fill="#163F2A" d="M142.359,89.961H80.641c-1.325,0-2.404-1.079-2.404-2.404v-11.1c0-1.325,1.079-2.404,2.404-2.404h61.719
			c1.325,0,2.404,1.079,2.404,2.404v11.1C144.764,88.882,143.685,89.961,142.359,89.961z M142.293,76.457l-61.652,0.066
			l0.066,11.033l61.586-0.066V76.457z"/>
	</g>
	<g>
		<path fill="#FFFFFF" d="M94.909,142.944H70.587c-0.993,0-1.798-0.805-1.798-1.798v-24.322c0-0.993,0.805-1.798,1.798-1.798h24.322
			c0.993,0,1.798,0.805,1.798,1.798v24.322C96.707,142.139,95.902,142.944,94.909,142.944z"/>
		<path fill="#163F2A" d="M94.909,144.18H70.588c-1.672,0-3.033-1.361-3.033-3.033v-24.322c0-1.672,1.361-3.033,3.033-3.033h24.321
			c1.672,0,3.033,1.361,3.033,3.033v24.322C97.942,142.818,96.581,144.18,94.909,144.18z M70.588,116.262
			c-0.311,0-0.562,0.252-0.562,0.562v24.322c0,0.311,0.252,0.562,0.562,0.562h24.321c0.311,0,0.562-0.252,0.562-0.562v-24.322
			c0-0.311-0.252-0.562-0.562-0.562H70.588z"/>
	</g>
	<g>
		<path fill="#163F2A" d="M70.021,100.899h1.224l1.374,4.076c0.123,0.361,0.229,0.916,0.237,0.916h0.018
			c0.009,0,0.114-0.555,0.237-0.916l1.383-4.076h1.215l-2.28,6.251h-1.127L70.021,100.899z"/>
		<path fill="#163F2A" d="M76.497,100.899h3.742v0.978h-2.606v1.638h2.104v0.977h-2.104v1.682h2.747v0.978h-3.883V100.899z"/>
		<path fill="#163F2A" d="M81.563,100.899h1.136l2.369,3.609c0.237,0.361,0.52,0.969,0.52,0.969h0.018c0,0-0.062-0.599-0.062-0.969
			v-3.609h1.127v6.251h-1.127l-2.368-3.601c-0.237-0.361-0.52-0.969-0.52-0.969h-0.018c0,0,0.062,0.599,0.062,0.969v3.601h-1.136
			V100.899z"/>
		<path fill="#163F2A" d="M88.261,100.899h2.131c1.929,0,3.188,1.145,3.188,3.116c0,1.973-1.259,3.135-3.188,3.135h-2.131V100.899z
			 M90.33,106.173c1.268,0,2.078-0.748,2.078-2.157c0-1.391-0.828-2.139-2.078-2.139h-0.934v4.296H90.33z"/>
		<path fill="#163F2A" d="M94.772,100.899h1.136v6.251h-1.136V100.899z"/>
		<path fill="#163F2A" d="M97.495,100.899h1.136l2.369,3.609c0.237,0.361,0.52,0.969,0.52,0.969h0.018c0,0-0.062-0.599-0.062-0.969
			v-3.609h1.127v6.251h-1.127l-2.368-3.601c-0.237-0.361-0.52-0.969-0.52-0.969h-0.018c0,0,0.062,0.599,0.062,0.969v3.601h-1.136
			V100.899z"/>
		<path fill="#163F2A" d="M106.992,100.794c1.532,0,2.325,0.792,2.325,0.792l-0.564,0.846c0,0-0.669-0.599-1.663-0.599
			c-1.4,0-2.148,0.968-2.148,2.147c0,1.356,0.924,2.236,2.095,2.236c0.942,0,1.567-0.651,1.567-0.651v-0.73h-0.959v-0.978h1.98
			v3.293h-0.969v-0.3c0-0.132,0.009-0.264,0.009-0.264h-0.018c0,0-0.651,0.669-1.813,0.669c-1.646,0-3.063-1.276-3.063-3.24
			C103.771,102.202,105.135,100.794,106.992,100.794z"/>
		<path fill="#163F2A" d="M113.348,100.899h1.215l1.224,3.09c0.142,0.37,0.317,0.916,0.317,0.916h0.018c0,0,0.167-0.546,0.308-0.916
			l1.225-3.09h1.215l0.502,6.251h-1.127l-0.265-3.495c-0.026-0.414-0.009-0.969-0.009-0.969h-0.018c0,0-0.185,0.607-0.334,0.969
			l-1.013,2.421h-0.995l-1.004-2.421c-0.149-0.361-0.343-0.978-0.343-0.978h-0.018c0,0,0.018,0.563-0.009,0.978l-0.265,3.495h-1.136
			L113.348,100.899z"/>
		<path fill="#163F2A" d="M123.875,105.548h-2.192l-0.528,1.603h-1.171l2.201-6.251h1.188l2.201,6.251h-1.171L123.875,105.548z
			 M122.774,101.982c0,0-0.141,0.616-0.264,0.969l-0.555,1.673h1.637l-0.555-1.673c-0.114-0.353-0.246-0.969-0.246-0.969H122.774z"
			/>
		<path fill="#163F2A" d="M129.127,100.794c1.523,0,2.307,0.854,2.307,0.854l-0.546,0.846c0,0-0.713-0.66-1.708-0.66
			c-1.32,0-2.095,0.985-2.095,2.147c0,1.188,0.801,2.236,2.104,2.236c1.083,0,1.814-0.792,1.814-0.792l0.599,0.818
			c0,0-0.863,1.013-2.457,1.013c-1.91,0-3.23-1.417-3.23-3.258C125.914,102.185,127.287,100.794,129.127,100.794z"/>
		<path fill="#163F2A" d="M132.653,100.899h1.136v2.65h2.862v-2.65h1.136v6.251h-1.136v-2.624h-2.862v2.624h-1.136V100.899z"/>
		<path fill="#163F2A" d="M139.377,100.899h1.136v6.251h-1.136V100.899z"/>
		<path fill="#163F2A" d="M142.1,100.899h1.136l2.369,3.609c0.237,0.361,0.52,0.969,0.52,0.969h0.018c0,0-0.062-0.599-0.062-0.969
			v-3.609h1.127v6.251h-1.127l-2.368-3.601c-0.237-0.361-0.52-0.969-0.52-0.969h-0.018c0,0,0.062,0.599,0.062,0.969v3.601H142.1
			V100.899z"/>
		<path fill="#163F2A" d="M148.796,100.899h3.742v0.978h-2.606v1.638h2.104v0.977h-2.104v1.682h2.747v0.978h-3.883V100.899z"/>
	</g>
	<g>
		<path fill="#FFFFFF" d="M156.784,142.944h-33.065c-1.171,0-2.12-0.949-2.12-2.12v-9.718c0-1.171,0.949-2.12,2.12-2.12h33.065
			c1.171,0,2.12,0.949,2.12,2.12v9.718C158.904,141.995,157.955,142.944,156.784,142.944z"/>
		<path fill="#163F2A" d="M156.784,144.18h-33.065c-1.85,0-3.355-1.506-3.355-3.356v-9.718c0-1.85,1.506-3.355,3.355-3.355h33.065
			c1.85,0,3.355,1.506,3.355,3.355v9.718C160.14,142.674,158.634,144.18,156.784,144.18z M123.719,130.221
			c-0.488,0-0.885,0.396-0.885,0.885v9.718c0,0.488,0.396,0.886,0.885,0.886h33.065c0.488,0,0.885-0.397,0.885-0.886v-9.718
			c0-0.488-0.396-0.885-0.885-0.885H123.719z"/>
	</g>
</g>
</svg>
