<?xml version="1.0" encoding="utf-8"?>
<!-- Generator: Adobe Illustrator 17.1.0, SVG Export Plug-In . SVG Version: 6.00 Build 0)  -->
<!DOCTYPE svg PUBLIC "-//W3C//DTD SVG 1.1//EN" "http://www.w3.org/Graphics/SVG/1.1/DTD/svg11.dtd">
<svg version="1.1" id="Layer_1" xmlns="http://www.w3.org/2000/svg" xmlns:xlink="http://www.w3.org/1999/xlink" x="0px" y="0px"
	 viewBox="0 0 221.5 221.5" enable-background="new 0 0 221.5 221.5" xml:space="preserve">
<g>
	<path fill="#FFFFFF" stroke="#163F2A" stroke-width="2.5709" stroke-miterlimit="10" d="M112.143,69.506h-2.286
		c-0.503,0-0.911-0.408-0.911-0.911v-8.169c0-0.503,0.408-0.911,0.911-0.911h2.286c0.503,0,0.911,0.408,0.911,0.911v8.169
		C113.054,69.098,112.646,69.506,112.143,69.506z"/>
	<path fill="#FFFFFF" stroke="#163F2A" stroke-width="2.5709" stroke-miterlimit="10" d="M122.622,76.643
		c0,1.689-1.369,3.059-3.059,3.059h-17.128c-1.689,0-3.059-1.369-3.059-3.059v-5.913c0-1.689,1.369-3.059,3.059-3.059h17.128
		c1.689,0,3.059,1.369,3.059,3.059V76.643z"/>
	<path fill="#FFFFFF" stroke="#163F2A" stroke-width="2.5709" stroke-miterlimit="10" d="M120.08,60.738h-18.16
		c-0.503,0-0.911-0.408-0.911-0.911v-2.256c0-0.503,0.408-0.911,0.911-0.911h18.16c0.503,0,0.911,0.408,0.911,0.911v2.256
		C120.991,60.331,120.583,60.738,120.08,60.738z"/>
	<path fill="#FFFFFF" stroke="#163F2A" stroke-width="2.5709" stroke-miterlimit="10" d="M140.362,150.251
		c0,1.689-1.369,3.059-3.059,3.059H84.697c-1.689,0-3.059-1.369-3.059-3.059V78.274c0-1.689,1.369-3.059,3.059-3.059h52.606
		c1.689,0,3.059,1.369,3.059,3.059V150.251z"/>
	<path fill="#FFFFFF" stroke="#163F2A" stroke-width="2.5709" stroke-miterlimit="10" d="M130.249,121.518H91.751
		c-0.947,0-1.716-1.395-1.716-3.117l-1.612-35.729c0-1.41,0.827-2.553,1.847-2.553h41.457c1.02,0,1.847,1.143,1.847,2.553
		l-1.612,35.729C131.964,120.122,131.196,121.518,130.249,121.518z"/>
	<path fill="#FFFFFF" stroke="#163F2A" stroke-width="2.5709" stroke-miterlimit="10" d="M117.425,90.001h-12.851
		c-1.046,0-1.894-0.848-1.894-1.894v-1.682c0-1.046,0.848-1.894,1.894-1.894h12.851c1.046,0,1.894,0.848,1.894,1.894v1.682
		C119.319,89.153,118.471,90.001,117.425,90.001z"/>
	<g>
		<circle fill="#FFFFFF" stroke="#163F2A" stroke-width="2.5709" stroke-miterlimit="10" cx="92.705" cy="141.591" r="4.281"/>
		<circle fill="#FFFFFF" stroke="#163F2A" stroke-width="2.5709" stroke-miterlimit="10" cx="129.295" cy="141.591" r="4.281"/>
	</g>
	<path fill="#FFFFFF" stroke="#163F2A" stroke-width="2.5709" stroke-miterlimit="10" d="M128.379,156.894H94.723
		c-0.54,0-1.049,0.249-1.38,0.675l-4.626,5.948c-0.893,1.149-0.075,2.822,1.38,2.822h41.808c1.355,0,2.195-1.475,1.505-2.64
		l-3.525-5.948C129.569,157.22,128.997,156.894,128.379,156.894z"/>
</g>
</svg>
