<?xml version="1.0" encoding="utf-8"?>
<!-- Generator: Adobe Illustrator 17.1.0, SVG Export Plug-In . SVG Version: 6.00 Build 0)  -->
<!DOCTYPE svg PUBLIC "-//W3C//DTD SVG 1.1//EN" "http://www.w3.org/Graphics/SVG/1.1/DTD/svg11.dtd">
<svg version="1.1" id="Layer_1" xmlns="http://www.w3.org/2000/svg" xmlns:xlink="http://www.w3.org/1999/xlink" x="0px" y="0px"
	 viewBox="0 0 221.5 189.5" enable-background="new 0 0 221.5 189.5" xml:space="preserve">
<g>
	<path fill="#FFFFFF" d="M93.553,133.33H30.247c-0.388,0-0.758-0.165-1.017-0.454l-10.682-11.913
		c-0.485-0.541-0.462-1.366,0.053-1.879l10.637-10.599c0.256-0.255,0.602-0.398,0.964-0.398h63.351c0.754,0,1.365,0.611,1.365,1.365
		v22.512C94.918,132.719,94.307,133.33,93.553,133.33z"/>
	<path fill="#163F2A" d="M93.553,134.182H30.247c-0.629,0-1.23-0.268-1.65-0.735l-10.683-11.914
		c-0.788-0.879-0.75-2.219,0.085-3.051l10.637-10.599c0.419-0.417,0.975-0.646,1.565-0.646h63.352c1.223,0,2.217,0.994,2.217,2.217
		v22.512C95.77,133.188,94.775,134.182,93.553,134.182z M30.201,108.939c-0.135,0-0.267,0.055-0.362,0.15l-10.637,10.599
		c-0.193,0.192-0.202,0.503-0.02,0.707l10.682,11.913c0.098,0.107,0.237,0.17,0.383,0.17h63.306c0.283,0,0.514-0.23,0.514-0.514
		v-22.512c0-0.283-0.23-0.514-0.514-0.514H30.201z"/>
</g>
<g>
	<g>
		<rect x="42.001" y="117.019" fill="#163F2A" width="40.682" height="1.703"/>
	</g>
	<g>
		<rect x="42.001" y="123.833" fill="#163F2A" width="40.682" height="1.703"/>
	</g>
</g>
<g>
	<path fill="#FFFFFF" d="M129.957,108.088h63.306c0.388,0,0.758,0.165,1.017,0.454l10.682,11.913
		c0.485,0.541,0.462,1.366-0.053,1.879l-10.637,10.599c-0.256,0.255-0.602,0.398-0.964,0.398h-63.351
		c-0.754,0-1.365-0.611-1.365-1.365v-22.512C128.592,108.699,129.203,108.088,129.957,108.088z"/>
	<path fill="#163F2A" d="M193.309,134.182h-63.352c-1.223,0-2.217-0.994-2.217-2.217v-22.512c0-1.223,0.994-2.217,2.217-2.217
		h63.306c0.63,0,1.231,0.269,1.651,0.737l10.682,11.912c0.787,0.878,0.749,2.218-0.085,3.05l-10.637,10.601
		C194.456,133.952,193.899,134.182,193.309,134.182z M129.957,108.939c-0.283,0-0.514,0.23-0.514,0.514v22.512
		c0,0.283,0.23,0.514,0.514,0.514h63.352c0.138,0,0.267-0.054,0.362-0.149l10.637-10.6c0.193-0.192,0.202-0.504,0.02-0.707
		l-10.682-11.912c-0.098-0.108-0.237-0.171-0.383-0.171H129.957z"/>
</g>
<g>
	<g>
		<rect x="140.827" y="122.697" fill="#163F2A" width="40.682" height="1.703"/>
	</g>
	<g>
		<rect x="140.827" y="115.882" fill="#163F2A" width="40.682" height="1.703"/>
	</g>
</g>
</svg>
