<?xml version="1.0" encoding="utf-8"?>
<!-- Generator: Adobe Illustrator 17.1.0, SVG Export Plug-In . SVG Version: 6.00 Build 0)  -->
<!DOCTYPE svg PUBLIC "-//W3C//DTD SVG 1.1//EN" "http://www.w3.org/Graphics/SVG/1.1/DTD/svg11.dtd">
<svg version="1.1" id="Layer_1" xmlns="http://www.w3.org/2000/svg" xmlns:xlink="http://www.w3.org/1999/xlink" x="0px" y="0px"
	 viewBox="0 0 221.5 189.5" enable-background="new 0 0 221.5 189.5" xml:space="preserve">
<g>
	<path fill="#FFFFFF" d="M198.867,155.169H22.144c-0.632,0-1.144-0.528-1.144-1.18v-5.054c0-0.652,0.512-1.18,1.144-1.18h176.723
		c0.632,0,1.144,0.528,1.144,1.18v5.054C200.011,154.64,199.499,155.169,198.867,155.169z"/>
	<path fill="#163F2A" d="M198.867,156.164H22.144c-1.18,0-2.139-0.976-2.139-2.176v-5.054c0-1.199,0.959-2.175,2.139-2.175h176.724
		c1.18,0,2.139,0.976,2.139,2.175v5.054C201.006,155.188,200.047,156.164,198.867,156.164z M22.144,148.75
		c-0.08,0-0.148,0.085-0.148,0.185v5.054c0,0.101,0.068,0.186,0.148,0.186h176.724c0.08,0,0.148-0.085,0.148-0.186v-5.054
		c0-0.1-0.068-0.185-0.148-0.185H22.144z"/>
</g>
<g>
	<path fill="#FFFFFF" d="M198.867,147.755H22.144c-0.632,0-1.144-0.528-1.144-1.18v-28.813c0-0.652,0.512-1.18,1.144-1.18h176.723
		c0.632,0,1.144,0.528,1.144,1.18v28.813C200.011,147.226,199.499,147.755,198.867,147.755z"/>
	<path fill="#163F2A" d="M198.867,148.75H22.144c-1.18,0-2.139-0.976-2.139-2.176v-28.812c0-1.199,0.959-2.175,2.139-2.175h176.724
		c1.18,0,2.139,0.976,2.139,2.175v28.812C201.006,147.774,200.047,148.75,198.867,148.75z M22.144,117.577
		c-0.08,0-0.148,0.085-0.148,0.185v28.812c0,0.101,0.068,0.186,0.148,0.186h176.724c0.08,0,0.148-0.085,0.148-0.186v-28.812
		c0-0.1-0.068-0.185-0.148-0.185H22.144z"/>
</g>
<g>
	<path fill="#FFFFFF" d="M104.776,60.808H22.211c-0.652,0-1.18,0.528-1.18,1.18v47.853c0,0.652,0.528,1.18,1.18,1.18h82.565
		c0.652,0,1.18-0.528,1.18-1.18V61.988C105.956,61.336,105.427,60.808,104.776,60.808z"/>
	<path fill="#163F2A" d="M104.775,112.032H22.211c-1.208,0-2.19-0.983-2.19-2.191V61.988c0-1.209,0.982-2.191,2.19-2.191h82.564
		c1.209,0,2.191,0.982,2.191,2.191v47.853C106.967,111.049,105.984,112.032,104.775,112.032z M22.211,61.818
		c-0.093,0-0.169,0.076-0.169,0.17v47.853c0,0.094,0.076,0.17,0.169,0.17h82.564c0.094,0,0.17-0.076,0.17-0.17V61.988
		c0-0.094-0.076-0.17-0.17-0.17H22.211z"/>
</g>
<g>
	<path fill="#FFFFFF" d="M198.8,60.808h-82.565c-0.652,0-1.18,0.528-1.18,1.18v47.853c0,0.652,0.528,1.18,1.18,1.18H198.8
		c0.652,0,1.18-0.528,1.18-1.18V61.988C199.98,61.336,199.452,60.808,198.8,60.808z"/>
	<path fill="#163F2A" d="M198.8,112.032h-82.564c-1.208,0-2.191-0.983-2.191-2.191V61.988c0-1.209,0.983-2.191,2.191-2.191H198.8
		c1.208,0,2.19,0.982,2.19,2.191v47.853C200.99,111.049,200.008,112.032,198.8,112.032z M116.235,61.818
		c-0.094,0-0.17,0.076-0.17,0.17v47.853c0,0.094,0.076,0.17,0.17,0.17H198.8c0.093,0,0.169-0.076,0.169-0.17V61.988
		c0-0.094-0.076-0.17-0.169-0.17H116.235z"/>
</g>
<g>
	<path fill="#FFFFFF" d="M198.53,187.338H22.48c-0.818,0-1.481-0.684-1.481-1.527v-11.927c0-0.844,0.663-1.527,1.481-1.527h176.05
		c0.818,0,1.481,0.684,1.481,1.527v11.927C200.011,186.654,199.348,187.338,198.53,187.338z"/>
	<path fill="#163F2A" d="M198.53,188.333H22.48c-1.365,0-2.476-1.132-2.476-2.522v-11.927c0-1.391,1.11-2.522,2.476-2.522h176.05
		c1.365,0,2.476,1.132,2.476,2.522v11.927C201.006,187.201,199.896,188.333,198.53,188.333z M22.48,173.352
		c-0.268,0-0.485,0.239-0.485,0.532v11.927c0,0.293,0.218,0.532,0.485,0.532h176.05c0.268,0,0.485-0.239,0.485-0.532v-11.927
		c0-0.293-0.218-0.532-0.485-0.532H22.48z"/>
</g>
<g>
	<path fill="#FFFFFF" d="M50.518,42.875h-5.054c-0.652,0-1.18,0.58-1.18,1.295v14.491v105.302v14.491
		c0,0.715,0.528,1.295,1.18,1.295h5.054c0.652,0,1.18-0.58,1.18-1.295v-14.491V58.661V44.17
		C51.698,43.455,51.17,42.875,50.518,42.875z"/>
	<path fill="#163F2A" d="M50.518,180.761h-5.053c-1.208,0-2.191-1.034-2.191-2.306V44.17c0-1.271,0.983-2.306,2.191-2.306h5.053
		c1.208,0,2.191,1.034,2.191,2.306v134.285C52.709,179.727,51.726,180.761,50.518,180.761z M45.465,43.886
		c-0.067,0-0.17,0.113-0.17,0.284v134.285c0,0.171,0.103,0.284,0.17,0.284h5.053c0.067,0,0.17-0.113,0.17-0.284V44.17
		c0-0.171-0.103-0.284-0.17-0.284H45.465z"/>
</g>
<g>
	<g>
		<g>
			<circle fill="#FFFFFF" cx="76.211" cy="85.47" r="9.67"/>
			<path fill="#163F2A" d="M76.211,96.15c-5.89,0-10.681-4.791-10.681-10.681s4.791-10.681,10.681-10.681S86.892,79.58,86.892,85.47
				S82.101,96.15,76.211,96.15z M76.211,76.811c-4.774,0-8.659,3.885-8.659,8.659s3.885,8.659,8.659,8.659s8.659-3.885,8.659-8.659
				S80.985,76.811,76.211,76.811z"/>
		</g>
	</g>
	<g>
		<path fill="#FFFFFF" d="M55.871,108.859v28.501c0,0.796,0.645,1.441,1.441,1.441h3.916c0.796,0,1.441-0.645,1.441-1.441v-25.271
			c0-0.796,0.645-1.441,1.441-1.441h0.029c0.796,0,1.441,0.645,1.441,1.441v66.22c0,0.796,0.645,1.441,1.441,1.441h4.383
			c0.796,0,1.441-0.645,1.441-1.441v-26.532c0-0.796,0.645-1.441,1.441-1.441h3.855c0.796,0,1.441,0.645,1.441,1.441v26.532
			c0,0.796,0.645,1.441,1.441,1.441h4.383c0.796,0,1.441-0.645,1.441-1.441v-66.22c0-0.796,0.645-1.441,1.441-1.441h0.029
			c0.796,0,1.441,0.645,1.441,1.441v25.271c0,0.796,0.645,1.441,1.441,1.441h3.916c0.796,0,1.441-0.645,1.441-1.441v-28.501
			c0-4.274-3.465-7.739-7.739-7.739H63.61C59.336,101.12,55.871,104.585,55.871,108.859z"/>
		<path fill="#163F2A" d="M85.402,180.761H81.02c-1.352,0-2.451-1.1-2.451-2.451v-26.532c0-0.236-0.193-0.43-0.43-0.43h-3.855
			c-0.236,0-0.43,0.193-0.43,0.43v26.532c0,1.352-1.1,2.451-2.451,2.451H67.02c-1.352,0-2.451-1.1-2.451-2.451v-66.221
			c0-0.236-0.193-0.43-0.43-0.43c-0.266,0-0.459,0.193-0.459,0.43v25.271c0,1.352-1.1,2.451-2.451,2.451h-3.917
			c-1.352,0-2.451-1.1-2.451-2.451v-28.501c0-4.824,3.925-8.749,8.75-8.749h25.201c4.825,0,8.75,3.925,8.75,8.749v28.501
			c0,1.352-1.1,2.451-2.451,2.451h-3.917c-1.352,0-2.451-1.1-2.451-2.451v-25.271c0-0.236-0.193-0.43-0.43-0.43
			c-0.266,0-0.459,0.193-0.459,0.43v66.221C87.854,179.661,86.754,180.761,85.402,180.761z M74.283,149.326h3.855
			c1.352,0,2.451,1.1,2.451,2.451v26.532c0,0.236,0.193,0.43,0.43,0.43h4.383c0.236,0,0.43-0.193,0.43-0.43v-66.221
			c0-1.352,1.1-2.451,2.451-2.451c1.381,0,2.48,1.1,2.48,2.451v25.271c0,0.236,0.193,0.43,0.43,0.43h3.917
			c0.236,0,0.43-0.193,0.43-0.43v-28.501c0-3.709-3.019-6.728-6.729-6.728H63.61c-3.71,0-6.729,3.019-6.729,6.728v28.501
			c0,0.236,0.193,0.43,0.43,0.43h3.917c0.236,0,0.43-0.193,0.43-0.43v-25.271c0-1.352,1.1-2.451,2.451-2.451
			c1.381,0,2.48,1.1,2.48,2.451v66.221c0,0.236,0.193,0.43,0.43,0.43h4.383c0.236,0,0.43-0.193,0.43-0.43v-26.532
			C71.832,150.426,72.932,149.326,74.283,149.326z"/>
	</g>
</g>
<g>
	<g>
		<path fill="#FFFFFF" d="M118.359,105.362c6.618,1.086,12.259-4.555,11.173-11.173c-0.657-4.007-3.89-7.24-7.897-7.897
			c-6.618-1.086-12.259,4.555-11.173,11.173C111.12,101.472,114.352,104.704,118.359,105.362z"/>
		<path fill="#163F2A" d="M119.998,106.507C119.998,106.507,119.998,106.507,119.998,106.507c-0.598,0-1.204-0.05-1.803-0.147
			c-4.415-0.725-8.006-4.314-8.731-8.73c-0.515-3.144,0.356-6.318,2.39-8.713c2.422-2.852,6.202-4.231,9.946-3.622
			c4.416,0.725,8.006,4.314,8.73,8.73c0.516,3.143-0.355,6.318-2.389,8.713C126.106,105.133,123.139,106.507,119.998,106.507z
			 M119.997,87.168c-2.546,0-4.952,1.114-6.603,3.057c-1.673,1.97-2.36,4.483-1.935,7.077c0.587,3.572,3.491,6.477,7.063,7.062
			c0.49,0.081,0.986,0.122,1.475,0.122l0,0c2.546,0,4.952-1.114,6.602-3.057c1.649-1.941,2.354-4.521,1.935-7.076
			c-0.586-3.572-3.49-6.477-7.062-7.062C120.981,87.209,120.485,87.168,119.997,87.168z"/>
	</g>
	<g>
		<path fill="#FFFFFF" d="M140.337,142.284v-23.082c0-4.267-3.459-7.725-7.725-7.725h-25.229c-4.267,0-7.725,3.459-7.725,7.725
			l0,23.082c0,0.788,0.639,1.427,1.427,1.427h3.943c0.788,0,1.427-0.639,1.427-1.427l0-19.852c0-0.788,0.639-1.427,1.427-1.427
			h0.057c0.788,0,1.427,0.633,1.427,1.421c0.001,4.859,0.005,20.665-0.001,23.524c-0.001,0.292-0.091,0.572-0.259,0.811
			l-2.414,3.441c-0.168,0.239-0.258,0.516-0.259,0.808c-0.009,3.146-0.014,22.173-0.016,27.56c0,0.788,0.639,1.42,1.427,1.42h4.409
			c0.788,0,1.427-0.639,1.427-1.427v-25.302c0-0.65,0.527-1.177,1.177-1.176l10.23,0.008c0.648,0,1.174,0.525,1.175,1.174
			l0.052,25.132c0,0.788,0.639,1.427,1.427,1.427h4.409c0.788,0,1.427-0.633,1.427-1.421c-0.002-5.377-0.008-24.333-0.018-27.539
			c-0.001-0.304-0.098-0.589-0.281-0.832c-0.726-0.966-2.624-3.491-2.624-3.503l-0.023-24.098c-0.001-0.789,0.638-1.428,1.427-1.428
			h0.058c0.787,0,1.425,0.637,1.427,1.424l0.044,19.858c0.002,0.787,0.64,1.424,1.427,1.424h3.896
			C139.698,143.711,140.337,143.072,140.337,142.284z"/>
		<path fill="#163F2A" d="M112.253,181.001h-4.409c-1.344,0-2.438-1.09-2.438-2.431c0.001-5.389,0.007-24.417,0.016-27.563
			c0.001-0.497,0.154-0.976,0.442-1.386l2.414-3.44c0.05-0.071,0.075-0.148,0.075-0.23c0.006-2.655,0.003-16.465,0.002-22.317
			v-1.206c-0.001-0.226-0.188-0.411-0.417-0.411c-0.286,0-0.473,0.187-0.473,0.416v19.853c0,1.344-1.094,2.438-2.438,2.438h-3.943
			c-1.345,0-2.438-1.094-2.438-2.438v-23.082c0-4.817,3.919-8.736,8.736-8.736h25.229c4.817,0,8.736,3.919,8.736,8.736v23.082
			c0,1.344-1.094,2.438-2.438,2.438h-3.896c-1.341,0-2.435-1.091-2.438-2.432l-0.044-19.859c-0.001-0.229-0.188-0.415-0.416-0.415
			c-0.208,0-0.308,0.077-0.353,0.122c-0.046,0.046-0.122,0.145-0.122,0.295l0.023,23.767c0.435,0.584,1.528,2.038,2.181,2.907
			l0.241,0.32c0.314,0.42,0.482,0.916,0.483,1.436c0.01,3.184,0.017,21.899,0.019,27.426v0.116c0,1.341-1.094,2.432-2.438,2.432
			h-4.409c-1.344,0-2.438-1.094-2.438-2.438l-0.052-25.13c0-0.091-0.074-0.165-0.166-0.165l-10.229-0.008
			c-0.091,0-0.166,0.074-0.166,0.166v25.302C114.69,179.907,113.597,181.001,112.253,181.001z M107.882,119.994
			c1.399,0,2.494,1.091,2.495,2.432l0.001,1.206c0.001,5.854,0.004,19.667-0.003,22.32c0,0.497-0.152,0.979-0.442,1.391l-2.414,3.44
			c-0.05,0.071-0.074,0.146-0.075,0.229c-0.009,3.146-0.015,22.171-0.016,27.558c0,0.229,0.183,0.409,0.416,0.409h4.409
			c0.229,0,0.416-0.187,0.416-0.416v-25.302c0-1.206,0.981-2.188,2.188-2.188l10.231,0.008c1.203,0.002,2.183,0.981,2.185,2.183
			l0.052,25.132c0,0.231,0.187,0.418,0.416,0.418h4.409c0.233,0,0.417-0.181,0.417-0.41v-0.115
			c-0.002-5.525-0.009-24.237-0.019-27.421c-0.001-0.084-0.025-0.156-0.079-0.227l-0.24-0.32c-2.586-3.442-2.586-3.442-2.586-3.79
			l-0.023-24.097c-0.001-0.651,0.252-1.265,0.713-1.726s1.073-0.715,1.725-0.715c1.399,0,2.493,1.091,2.496,2.432l0.044,19.859
			c0.001,0.229,0.188,0.415,0.416,0.415h3.896c0.229,0,0.416-0.187,0.416-0.416v-23.082c0-3.702-3.013-6.715-6.715-6.715h-25.229
			c-3.702,0-6.715,3.013-6.715,6.715v23.082c0,0.229,0.188,0.416,0.417,0.416h3.943c0.229,0,0.416-0.187,0.416-0.416v-19.853
			C105.444,121.088,106.538,119.994,107.882,119.994z"/>
	</g>
</g>
<g>
	<g>
		<path fill="#FFFFFF" d="M161.833,105.362c6.618,1.086,12.259-4.555,11.173-11.173c-0.657-4.007-3.89-7.24-7.897-7.897
			c-6.618-1.086-12.259,4.555-11.173,11.173C154.593,101.472,157.825,104.704,161.833,105.362z"/>
		<path fill="#163F2A" d="M163.472,106.507C163.472,106.507,163.472,106.507,163.472,106.507c-0.598,0-1.204-0.05-1.803-0.147
			c-4.416-0.725-8.007-4.314-8.731-8.73c-0.515-3.144,0.356-6.318,2.39-8.713c2.423-2.851,6.193-4.233,9.945-3.622
			c4.416,0.725,8.007,4.314,8.731,8.73c0.516,3.143-0.355,6.318-2.389,8.713C169.58,105.133,166.612,106.507,163.472,106.507z
			 M163.471,87.168c-2.546,0-4.952,1.114-6.603,3.057c-1.648,1.941-2.354,4.521-1.935,7.077c0.586,3.572,3.49,6.476,7.063,7.062
			c0.49,0.081,0.986,0.122,1.475,0.122l0,0c2.546,0,4.952-1.114,6.602-3.057c1.649-1.941,2.354-4.521,1.935-7.076
			c-0.586-3.573-3.49-6.477-7.063-7.062C164.454,87.209,163.958,87.168,163.471,87.168z"/>
	</g>
	<g>
		<path fill="#FFFFFF" d="M183.811,142.284v-23.082c0-4.267-3.459-7.725-7.725-7.725h-25.229c-4.267,0-7.725,3.459-7.725,7.725
			v23.082c0,0.788,0.639,1.427,1.427,1.427h3.943c0.788,0,1.427-0.639,1.427-1.427v-19.852c0-0.788,0.639-1.427,1.427-1.427h0.057
			c0.788,0,1.427,0.633,1.427,1.421c0.001,4.859,0.005,20.665-0.001,23.524c-0.001,0.292-0.091,0.572-0.259,0.811l-2.414,3.441
			c-0.168,0.239-0.258,0.516-0.259,0.808c-0.009,3.146-0.014,22.173-0.016,27.56c0,0.788,0.639,1.42,1.427,1.42h4.409
			c0.788,0,1.427-0.639,1.427-1.427l0-25.302c0-0.65,0.527-1.177,1.177-1.176l10.23,0.008c0.648,0,1.174,0.525,1.175,1.174
			l0.052,25.132c0,0.788,0.639,1.427,1.427,1.427h4.409c0.788,0,1.427-0.633,1.427-1.421c-0.002-5.377-0.008-24.333-0.018-27.539
			c-0.001-0.304-0.098-0.589-0.281-0.832c-0.726-0.966-2.624-3.491-2.624-3.503l-0.023-24.098c-0.001-0.789,0.638-1.428,1.427-1.428
			h0.058c0.787,0,1.425,0.637,1.427,1.424l0.044,19.858c0.002,0.787,0.64,1.424,1.427,1.424h3.896
			C183.172,143.711,183.811,143.072,183.811,142.284z"/>
		<path fill="#163F2A" d="M155.727,181.001h-4.409c-1.344,0-2.438-1.09-2.438-2.431c0.001-5.389,0.007-24.417,0.016-27.563
			c0.001-0.497,0.154-0.976,0.442-1.386l2.414-3.44c0.05-0.071,0.075-0.148,0.075-0.23c0.007-2.86,0.003-18.665,0.001-23.523
			c0-0.227-0.187-0.411-0.416-0.411c-0.286,0-0.473,0.187-0.473,0.416v19.853c0,1.344-1.094,2.438-2.438,2.438h-3.943
			c-1.345,0-2.438-1.094-2.438-2.438v-23.082c0-4.817,3.919-8.736,8.736-8.736h25.229c4.817,0,8.736,3.919,8.736,8.736v23.082
			c0,1.344-1.094,2.438-2.438,2.438h-3.896c-1.341,0-2.435-1.091-2.438-2.432l-0.044-19.859c-0.001-0.229-0.188-0.415-0.416-0.415
			c-0.209,0-0.308,0.076-0.353,0.122c-0.046,0.046-0.122,0.145-0.122,0.295l0.023,23.767c0.494,0.663,1.838,2.451,2.421,3.228
			c0.315,0.42,0.483,0.916,0.484,1.436c0.01,3.206,0.017,22.165,0.018,27.542c0.001,0.647-0.251,1.258-0.709,1.717
			c-0.461,0.461-1.074,0.715-1.729,0.715h-4.409c-1.344,0-2.438-1.094-2.438-2.438l-0.052-25.13c0-0.091-0.074-0.165-0.166-0.165
			l-10.229-0.008c-0.091,0-0.166,0.074-0.166,0.166v25.302C158.164,179.907,157.07,181.001,155.727,181.001z M151.355,119.994
			c1.4,0,2.494,1.091,2.494,2.433c0.002,4.858,0.006,20.667-0.001,23.525c0,0.497-0.152,0.979-0.442,1.391l-2.414,3.44
			c-0.05,0.071-0.074,0.146-0.075,0.229c-0.009,3.146-0.015,22.171-0.016,27.558c0,0.229,0.183,0.409,0.416,0.409h4.409
			c0.229,0,0.416-0.187,0.416-0.416v-25.302c0-1.206,0.981-2.188,2.188-2.188l10.231,0.008c1.203,0.002,2.183,0.981,2.185,2.183
			l0.052,25.132c0,0.231,0.187,0.418,0.416,0.418h4.409c0.153,0,0.252-0.077,0.298-0.122c0.054-0.055,0.118-0.147,0.118-0.287
			c-0.001-5.376-0.008-24.331-0.018-27.537c-0.001-0.084-0.025-0.156-0.079-0.227c-2.826-3.758-2.826-3.758-2.826-4.11
			l-0.023-24.097c-0.001-0.651,0.252-1.265,0.713-1.726c0.46-0.461,1.072-0.715,1.725-0.715c1.399,0,2.493,1.091,2.496,2.432
			l0.044,19.859c0.001,0.229,0.188,0.415,0.416,0.415h3.896c0.229,0,0.416-0.187,0.416-0.416v-23.082
			c0-3.702-3.013-6.715-6.715-6.715h-25.229c-3.702,0-6.715,3.013-6.715,6.715v23.082c0,0.229,0.188,0.416,0.417,0.416h3.943
			c0.229,0,0.416-0.187,0.416-0.416v-19.853C148.918,121.088,150.012,119.994,151.355,119.994z"/>
	</g>
</g>
</svg>
