<?xml version="1.0" encoding="utf-8"?>
<!-- Generator: Adobe Illustrator 17.1.0, SVG Export Plug-In . SVG Version: 6.00 Build 0)  -->
<!DOCTYPE svg PUBLIC "-//W3C//DTD SVG 1.1//EN" "http://www.w3.org/Graphics/SVG/1.1/DTD/svg11.dtd">
<svg version="1.1" id="Layer_1" xmlns="http://www.w3.org/2000/svg" xmlns:xlink="http://www.w3.org/1999/xlink" x="0px" y="0px"
	 viewBox="0 0 221.5 189.5" enable-background="new 0 0 221.5 189.5" xml:space="preserve">
<g>
	<defs>
		<rect id="SVGID_149_" x="79.5" y="68" width="141" height="122"/>
	</defs>
	<clipPath id="SVGID_1_">
		<use xlink:href="#SVGID_149_"  overflow="visible"/>
	</clipPath>
	<g clip-path="url(#SVGID_1_)">
		<g>
			<path fill="#FFFFFF" d="M245.482,224.431H116.53c-1.589,0-2.877-1.288-2.877-2.877V92.602c0-1.589,1.288-2.877,2.877-2.877
				h128.952c1.589,0,2.877,1.288,2.877,2.877v128.952C248.359,223.143,247.071,224.431,245.482,224.431z"/>
			<path fill="#163F2A" d="M245.481,226.119H116.53c-2.518,0-4.565-2.048-4.565-4.565V92.603c0-2.518,2.048-4.565,4.565-4.565
				h128.951c2.518,0,4.565,2.048,4.565,4.565v128.951C250.047,224.071,247.999,226.119,245.481,226.119z M116.53,91.414
				c-0.655,0-1.188,0.533-1.188,1.188v128.951c0,0.655,0.533,1.188,1.188,1.188h128.951c0.655,0,1.188-0.533,1.188-1.188V92.603
				c0-0.655-0.533-1.188-1.188-1.188H116.53z"/>
		</g>
		<g>
			<g>
				<path fill="#FFFFFF" d="M200.469,195.757c0,0,0.925-29.778-0.74-34.461s-17.068-16.615-17.068-16.615l-13.443,1.208
					l2.266,32.172c0,0-0.45,6.193,1.661,10.271c1.571,3.035,3.758,5.233,4.774,6.159c0.359,0.327,0.558,0.791,0.555,1.277
					l-0.042,6.158"/>
				<path fill="#163F2A" d="M179.802,201.937l-2.738-0.02l0.042-6.157c0.001-0.1-0.038-0.192-0.108-0.257
					c-1.187-1.08-3.424-3.368-5.067-6.54c-2.135-4.124-1.87-10.017-1.817-10.896l-2.354-33.42l15.316-1.376l0.425,0.329
					c1.609,1.246,15.771,12.32,17.52,17.238c1.701,4.787,0.914,31.887,0.818,34.961l-2.736-0.084
					c0.368-11.867,0.496-30.704-0.662-33.961c-1.088-3.06-10.327-11.077-16.192-15.661l-11.568,1.04l2.178,30.931l-0.007,0.098
					c-0.004,0.058-0.393,5.864,1.512,9.543c1.501,2.897,3.633,5.005,4.48,5.776c0.644,0.588,1.009,1.426,1.002,2.3L179.802,201.937z
					"/>
			</g>
			<g>
				<path fill="#FFFFFF" d="M184.899,176.552h-21.548c-1.14,0-2.065-0.925-2.065-2.065V135.93c0-1.14,0.924-2.065,2.065-2.065
					h21.548c1.14,0,2.065,0.925,2.065,2.065v38.557C186.964,175.627,186.039,176.552,184.899,176.552z"/>
				<path fill="#163F2A" d="M184.898,177.921h-21.547c-1.894,0-3.435-1.54-3.435-3.434V135.93c0-1.894,1.541-3.435,3.435-3.435
					h21.547c1.894,0,3.435,1.541,3.435,3.435v38.558C188.333,176.381,186.792,177.921,184.898,177.921z M163.352,135.233
					c-0.384,0-0.696,0.312-0.696,0.696v38.558c0,0.384,0.312,0.695,0.696,0.695h21.547c0.384,0,0.696-0.312,0.696-0.695V135.93
					c0-0.384-0.312-0.696-0.696-0.696H163.352z"/>
			</g>
			<g>
				<path fill="#FFFFFF" d="M190.9,176.146l-13.745-14.948c0,0-4.005-3.547-7.552,0s0,6.582,0,6.582l8.307,9.876
					c0,0-1.444,8.411,6.108,12.791"/>
				<path fill="#163F2A" d="M183.332,191.632c-6.985-4.052-7.015-11.312-6.843-13.54l-7.872-9.357
					c-0.423-0.392-1.871-1.885-1.955-4.06c-0.062-1.578,0.603-3.073,1.974-4.444c3.526-3.525,7.708-1.58,9.427-0.057l0.101,0.098
					l13.745,14.948l-2.016,1.854l-13.689-14.889c-0.475-0.396-3.193-2.457-5.632-0.019c-0.804,0.804-1.198,1.605-1.175,2.385
					c0.039,1.24,1.094,2.187,1.104,2.196l0.15,0.152l8.717,10.362l-0.108,0.626c-0.05,0.303-1.163,7.544,5.445,11.377
					L183.332,191.632z"/>
			</g>
		</g>
		<g>
			<g>
				<path fill="#163F2A" d="M181.006,214.574c-31.703,0-57.496-25.793-57.496-57.496s25.793-57.496,57.496-57.496
					s57.496,25.793,57.496,57.496S212.709,214.574,181.006,214.574z M181.006,100.832c-31.014,0-56.246,25.232-56.246,56.246
					s25.232,56.246,56.246,56.246s56.246-25.232,56.246-56.246S212.02,100.832,181.006,100.832z"/>
			</g>
			<g>
				<path fill="#163F2A" d="M181.006,209.409c-28.855,0-52.331-23.476-52.331-52.331s23.476-52.331,52.331-52.331
					s52.331,23.476,52.331,52.331S209.861,209.409,181.006,209.409z M181.006,107.247c-27.477,0-49.831,22.354-49.831,49.831
					s22.354,49.831,49.831,49.831s49.831-22.354,49.831-49.831S208.482,107.247,181.006,107.247z"/>
			</g>
			<g>
				<path fill="#163F2A" d="M180.257,202.837c-25.231,0-45.759-20.527-45.759-45.759s20.527-45.759,45.759-45.759
					s45.759,20.527,45.759,45.759S205.488,202.837,180.257,202.837z M180.257,115.069c-23.164,0-42.009,18.845-42.009,42.009
					s18.845,42.009,42.009,42.009s42.009-18.845,42.009-42.009S203.421,115.069,180.257,115.069z"/>
			</g>
		</g>
	</g>
</g>
<g>
	<g>
		<path fill="#163F2A" d="M92.348,121.84H44.655c-0.77,0-1.394-0.624-1.394-1.394V92.099c0-0.77,0.624-1.394,1.394-1.394h47.693
			c0.77,0,1.394,0.624,1.394,1.394v28.347C93.742,121.216,93.118,121.84,92.348,121.84z"/>
	</g>
</g>
<g>
	<g>
		<path fill="#FFFFFF" d="M56.998,101.684c2.039,0,3.082,1.115,3.082,1.115l-0.588,0.888c0,0-0.983-0.924-2.447-0.924
			c-1.895,0-3.13,1.439-3.13,3.238c0,1.812,1.259,3.347,3.143,3.347c1.595,0,2.614-1.104,2.614-1.104l0.636,0.852
			c0,0-1.163,1.343-3.286,1.343c-2.543,0-4.33-1.942-4.33-4.425C52.692,103.555,54.539,101.684,56.998,101.684z"/>
	</g>
	<g>
		<path fill="#FFFFFF" d="M66.129,107.86H62.94l-0.84,2.435h-1.224l3.046-8.468h1.248l3.047,8.468h-1.236L66.129,107.86z
			 M64.534,102.991c0,0-0.192,0.768-0.336,1.199l-0.947,2.687h2.566l-0.936-2.687c-0.144-0.432-0.323-1.199-0.323-1.199H64.534z"/>
	</g>
	<g>
		<path fill="#FFFFFF" d="M69.467,101.827h2.591c0.888,0,1.26,0.072,1.583,0.192c0.863,0.324,1.428,1.176,1.428,2.291
			c0,1.079-0.6,1.99-1.523,2.29v0.024c0,0,0.096,0.107,0.252,0.384l1.799,3.286h-1.344l-1.786-3.37h-1.812v3.37h-1.188V101.827z
			 M72.358,105.893c0.924,0,1.5-0.588,1.5-1.535c0-0.624-0.24-1.067-0.672-1.308c-0.229-0.12-0.504-0.191-1.164-0.191h-1.367v3.034
			H72.358z"/>
	</g>
	<g>
		<path fill="#FFFFFF" d="M77.159,101.827h2.807c2.591,0,4.294,1.548,4.294,4.222c0,2.687-1.703,4.246-4.294,4.246h-2.807V101.827z
			 M79.882,109.264c1.907,0,3.154-1.128,3.154-3.215c0-2.074-1.259-3.189-3.154-3.189h-1.535v6.404H79.882z"/>
	</g>
</g>
</svg>
