<?xml version="1.0" encoding="utf-8"?>
<!-- Generator: Adobe Illustrator 17.1.0, SVG Export Plug-In . SVG Version: 6.00 Build 0)  -->
<!DOCTYPE svg PUBLIC "-//W3C//DTD SVG 1.1//EN" "http://www.w3.org/Graphics/SVG/1.1/DTD/svg11.dtd">
<svg version="1.1" id="Layer_1" xmlns="http://www.w3.org/2000/svg" xmlns:xlink="http://www.w3.org/1999/xlink" x="0px" y="0px"
	 viewBox="0 0 221.5 189.5" enable-background="new 0 0 221.5 189.5" xml:space="preserve">
<path fill="#153F2A" d="M123.047,114.46h1.826v1.783h-1.826V114.46z M123.028,103.261h1.845l-0.111,9.414h-1.605L123.028,103.261z"
	/>
<g>
	<defs>
		<rect id="SVGID_65_" x="65.984" y="29.463" width="156.391" height="160.577"/>
	</defs>
	<clipPath id="SVGID_38_">
		<use xlink:href="#SVGID_65_"  overflow="visible"/>
	</clipPath>
	<path clip-path="url(#SVGID_38_)" fill="#FFFFFF" d="M158.988,116.273h-40.835c-1.091,0-1.975-0.899-1.975-2.008v-5.59
		c0-1.109,0.884-2.008,1.975-2.008h40.835c1.091,0,1.976,0.899,1.976,2.008v5.59C160.964,115.374,160.079,116.273,158.988,116.273"
		/>
	<path clip-path="url(#SVGID_38_)" fill="none" stroke="#153F2A" stroke-width="2" stroke-miterlimit="10" d="M158.988,116.273
		h-40.835c-1.091,0-1.975-0.899-1.975-2.008v-5.59c0-1.109,0.884-2.008,1.975-2.008h40.835c1.091,0,1.976,0.899,1.976,2.008v5.59
		C160.964,115.374,160.079,116.273,158.988,116.273z"/>
	<path clip-path="url(#SVGID_38_)" fill="#FFFFFF" d="M174.297,131.859l-27.649,29.581c-0.739,0.791-1.992,0.845-2.799,0.121
		l-4.068-3.646c-0.807-0.724-0.862-1.952-0.123-2.742l27.649-29.581c0.739-0.791,1.992-0.845,2.799-0.122l4.068,3.647
		C174.981,129.841,175.036,131.069,174.297,131.859"/>
	<path clip-path="url(#SVGID_38_)" fill="none" stroke="#153F2A" stroke-width="2" stroke-miterlimit="10" d="M174.297,131.859
		l-27.649,29.581c-0.739,0.791-1.992,0.845-2.799,0.121l-4.068-3.646c-0.807-0.724-0.862-1.952-0.123-2.742l27.649-29.581
		c0.739-0.791,1.992-0.845,2.799-0.122l4.068,3.647C174.981,129.841,175.036,131.069,174.297,131.859z"/>
	<path clip-path="url(#SVGID_38_)" fill="#FFFFFF" d="M193.377,188.27h-35.562c-1.092,0-1.978-0.863-1.978-1.927V95.218
		c0-1.065,0.886-1.927,1.978-1.927h35.562c1.093,0,1.979,0.862,1.979,1.927v91.125C195.356,187.407,194.47,188.27,193.377,188.27"/>
	<path clip-path="url(#SVGID_38_)" fill="none" stroke="#153F2A" stroke-width="2" stroke-miterlimit="10" d="M193.377,188.27
		h-35.562c-1.092,0-1.978-0.863-1.978-1.927V95.218c0-1.065,0.886-1.927,1.978-1.927h35.562c1.093,0,1.979,0.862,1.979,1.927v91.125
		C195.356,187.407,194.47,188.27,193.377,188.27z"/>
	<path clip-path="url(#SVGID_38_)" fill="#153F2A" d="M188.455,104.667h-26.027c-1.073,0-1.943-0.92-1.943-2.054v-0.884
		c0-1.135,0.87-2.054,1.943-2.054h26.027c1.073,0,1.943,0.919,1.943,2.054v0.884C190.398,103.747,189.528,104.667,188.455,104.667"
		/>
	<path clip-path="url(#SVGID_38_)" fill="none" stroke="#FFFFFF" stroke-width="2" stroke-miterlimit="10" d="M188.455,104.667
		h-26.027c-1.073,0-1.943-0.92-1.943-2.054v-0.884c0-1.135,0.87-2.054,1.943-2.054h26.027c1.073,0,1.943,0.919,1.943,2.054v0.884
		C190.398,103.747,189.528,104.667,188.455,104.667z"/>
	<path clip-path="url(#SVGID_38_)" fill="#FFFFFF" d="M188.693,175.197h-26.502c-0.942,0-1.706-0.744-1.706-1.661v-48.184
		c0-0.917,0.764-1.661,1.706-1.661h26.502c0.942,0,1.706,0.744,1.706,1.661v48.184C190.399,174.453,189.635,175.197,188.693,175.197
		"/>
	<path clip-path="url(#SVGID_38_)" fill="none" stroke="#153F2A" stroke-width="2" stroke-miterlimit="10" d="M188.693,175.197
		h-26.502c-0.942,0-1.706-0.744-1.706-1.661v-48.184c0-0.917,0.764-1.661,1.706-1.661h26.502c0.942,0,1.706,0.744,1.706,1.661
		v48.184C190.399,174.453,189.635,175.197,188.693,175.197z"/>
	<path clip-path="url(#SVGID_38_)" fill="#153F2A" d="M182.2,107.892l-13.336,0.053c-1.17,0.004-1.825-1.321-1.097-2.219l2.44-3.008
		c0.263-0.325,0.662-0.515,1.085-0.516l8.264-0.029c0.406-0.002,0.792,0.171,1.058,0.472l2.634,2.984
		C184.028,106.513,183.391,107.887,182.2,107.892"/>
</g>
<line fill="none" stroke="#FFFFFF" stroke-width="0.5" stroke-miterlimit="10" x1="163.924" y1="102.127" x2="187.269" y2="102.127"/>
<g>
	<defs>
		<rect id="SVGID_67_" x="65.984" y="29.463" width="156.391" height="160.577"/>
	</defs>
	<clipPath id="SVGID_39_">
		<use xlink:href="#SVGID_67_"  overflow="visible"/>
	</clipPath>
	<path clip-path="url(#SVGID_39_)" fill="#FFFFFF" d="M114.866,45.921c0,8.537-7.069,15.458-15.788,15.458
		c-8.72,0-15.788-6.921-15.788-15.458c0-8.537,7.068-15.458,15.788-15.458C107.797,30.463,114.866,37.384,114.866,45.921"/>
	
		<ellipse clip-path="url(#SVGID_39_)" fill="none" stroke="#153F2A" stroke-width="2" stroke-miterlimit="10" cx="99.079" cy="45.921" rx="15.788" ry="15.458"/>
	<path clip-path="url(#SVGID_39_)" fill="#FFFFFF" d="M66.984,80.182v43.403c0,1.212,1.018,2.194,2.273,2.194h6.18
		c1.255,0,2.273-0.982,2.273-2.194V85.101c0-1.212,1.018-2.194,2.273-2.194h0.046c1.255,0,2.273,0.982,2.273,2.194v100.845
		c0,1.212,1.018,2.194,2.273,2.194h6.915c1.256,0,2.274-0.982,2.274-2.194v-40.404c0-1.212,1.017-2.194,2.273-2.194h6.083
		c1.256,0,2.273,0.982,2.273,2.194v40.404c0,1.212,1.018,2.194,2.273,2.194h6.916c1.255,0,2.273-0.982,2.273-2.194V85.101
		c0-1.212,1.018-2.194,2.273-2.194h0.046c1.255,0,2.273,0.982,2.273,2.194v38.484c0,1.212,1.018,2.194,2.273,2.194h6.18
		c1.255,0,2.273-0.982,2.273-2.194V80.182c0-6.509-5.467-11.785-12.211-11.785H79.195C72.451,68.397,66.984,73.673,66.984,80.182"/>
	<path clip-path="url(#SVGID_39_)" fill="none" stroke="#153F2A" stroke-width="2" stroke-miterlimit="10" d="M66.984,80.182v43.403
		c0,1.212,1.018,2.194,2.273,2.194h6.18c1.255,0,2.273-0.982,2.273-2.194V85.101c0-1.212,1.018-2.194,2.273-2.194h0.046
		c1.255,0,2.273,0.982,2.273,2.194v100.845c0,1.212,1.018,2.194,2.273,2.194h6.915c1.256,0,2.274-0.982,2.274-2.194v-40.404
		c0-1.212,1.017-2.194,2.273-2.194h6.083c1.256,0,2.273,0.982,2.273,2.194v40.404c0,1.212,1.018,2.194,2.273,2.194h6.916
		c1.255,0,2.273-0.982,2.273-2.194V85.101c0-1.212,1.018-2.194,2.273-2.194h0.046c1.255,0,2.273,0.982,2.273,2.194v38.484
		c0,1.212,1.018,2.194,2.273,2.194h6.18c1.255,0,2.273-0.982,2.273-2.194V80.182c0-6.509-5.467-11.785-12.211-11.785H79.195
		C72.451,68.397,66.984,73.673,66.984,80.182z"/>
</g>
</svg>
