<?xml version="1.0" encoding="utf-8"?>
<!-- Generator: Adobe Illustrator 17.1.0, SVG Export Plug-In . SVG Version: 6.00 Build 0)  -->
<!DOCTYPE svg PUBLIC "-//W3C//DTD SVG 1.1//EN" "http://www.w3.org/Graphics/SVG/1.1/DTD/svg11.dtd">
<svg version="1.1" id="Layer_1" xmlns="http://www.w3.org/2000/svg" xmlns:xlink="http://www.w3.org/1999/xlink" x="0px" y="0px"
	 viewBox="0 0 221.5 189.5" enable-background="new 0 0 221.5 189.5" xml:space="preserve">
<path fill="#153F2A" d="M134.153,114.831h1.826v1.785h-1.826V114.831z M134.134,103.622h1.845l-0.112,9.423h-1.604L134.134,103.622z
	"/>
<g>
	<path fill="#FFFFFF" d="M183.209,141.374H56.276c-0.34,0-0.673,0.1-0.958,0.287l-14.085,9.254c-1.16,0.762-2.702-0.07-2.702-1.458
		v-8.083V84.568c0-0.964,0.781-1.745,1.744-1.745h142.934c0.964,0,1.745,0.781,1.745,1.745v55.061
		C184.954,140.593,184.173,141.374,183.209,141.374"/>
	<path fill="#153F2A" d="M40.275,84.165c-0.223,0-0.403,0.181-0.403,0.403v64.89c0,0.116,0.037,0.211,0.117,0.285
		c0.134,0.129,0.337,0.162,0.506,0.05l14.086-9.254c0.506-0.331,1.092-0.507,1.696-0.507h126.931c0.223,0,0.404-0.181,0.404-0.402
		V84.568c0-0.222-0.181-0.403-0.404-0.403H40.275z M40.279,152.546c-0.786,0-1.567-0.313-2.14-0.859
		c-0.613-0.584-0.951-1.376-0.951-2.229v-64.89c0-1.702,1.385-3.086,3.087-3.086h142.933c1.702,0,3.087,1.384,3.087,3.086v55.062
		c0,1.702-1.385,3.085-3.087,3.085H56.277c-0.079,0-0.156,0.024-0.223,0.067l-14.085,9.254
		C41.462,152.369,40.878,152.546,40.279,152.546"/>
	<path fill="#153F2A" d="M65.857,97.491h1.578l5.052,7.387c0.418,0.611,0.949,1.64,0.949,1.64h0.032c0,0-0.113-1.012-0.113-1.64
		v-7.387h1.594v11.361h-1.561l-5.069-7.37c-0.418-0.628-0.949-1.658-0.949-1.658h-0.033c0,0,0.113,1.015,0.113,1.658v7.37h-1.593
		V97.491z"/>
	<path fill="#153F2A" d="M83.162,103.831c-0.048-1.399-0.917-2.075-1.964-2.075c-1.189,0-2.155,0.74-2.38,2.075H83.162z
		 M81.231,100.516c2.301,0,3.525,1.706,3.525,3.814c0,0.21-0.049,0.676-0.049,0.676h-5.938c0.08,1.786,1.352,2.687,2.8,2.687
		c1.399,0,2.413-0.95,2.413-0.95l0.644,1.143c0,0-1.207,1.158-3.154,1.158c-2.559,0-4.312-1.85-4.312-4.263
		C77.16,102.19,78.913,100.516,81.231,100.516"/>
	<path fill="#153F2A" d="M89.506,105.682c0,0-0.128,0.257-0.241,0.449l-1.706,2.72h-1.77l2.767-4.183l-2.623-3.958h1.787
		l1.512,2.477c0.128,0.21,0.274,0.483,0.274,0.483h0.031c0,0,0.146-0.273,0.274-0.483l1.513-2.477h1.786l-2.623,3.958l2.767,4.183
		h-1.77l-1.704-2.72c-0.113-0.192-0.243-0.449-0.243-0.449H89.506z"/>
	<path fill="#153F2A" d="M95.176,102.078h-1.062v-1.255h1.109v-2.349h1.513v2.349h1.963v1.255h-1.963v3.62
		c0,1.625,1.143,1.834,1.738,1.834c0.225,0,0.371-0.032,0.371-0.032v1.385c0,0-0.226,0.031-0.548,0.031
		c-1.046,0-3.121-0.321-3.121-3.041V102.078z"/>
	<path fill="#153F2A" d="M104.835,106.743c0,0,0.917,0.95,2.333,0.95c0.675,0,1.351-0.354,1.351-1.014
		c0-1.496-4.183-1.191-4.183-3.846c0-1.48,1.319-2.317,2.945-2.317c1.786,0,2.622,0.901,2.622,0.901l-0.628,1.175
		c0,0-0.723-0.724-2.011-0.724c-0.676,0-1.335,0.289-1.335,0.997c0,1.465,4.183,1.142,4.183,3.814c0,1.352-1.158,2.365-2.944,2.365
		c-1.995,0-3.089-1.19-3.089-1.19L104.835,106.743z"/>
	<path fill="#153F2A" d="M112.288,102.078h-1.063v-1.255h1.111v-2.349h1.512v2.349h1.964v1.255h-1.964v3.62
		c0,1.625,1.143,1.834,1.739,1.834c0.225,0,0.37-0.032,0.37-0.032v1.385c0,0-0.226,0.031-0.547,0.031
		c-1.047,0-3.122-0.321-3.122-3.041V102.078z"/>
	<path fill="#153F2A" d="M120.16,107.788c1.32,0,2.173-1.383,2.173-2.59v-0.257h-0.402c-1.176,0-3.3,0.08-3.3,1.545
		C118.631,107.145,119.146,107.788,120.16,107.788 M121.962,103.766h0.355v-0.144c0-1.336-0.757-1.787-1.787-1.787
		c-1.255,0-2.268,0.789-2.268,0.789l-0.645-1.143c0,0,1.176-0.966,3.043-0.966c2.059,0,3.218,1.127,3.218,3.187v5.149h-1.448v-0.773
		c0-0.369,0.031-0.643,0.031-0.643h-0.031c0,0-0.661,1.609-2.608,1.609c-1.4,0-2.767-0.853-2.767-2.478
		C117.055,103.879,120.594,103.766,121.962,103.766"/>
	<path fill="#153F2A" d="M126.505,102.078h-1.062v-1.255h1.109v-2.349h1.513v2.349h1.963v1.255h-1.963v3.62
		c0,1.625,1.143,1.834,1.738,1.834c0.225,0,0.371-0.032,0.371-0.032v1.385c0,0-0.226,0.031-0.548,0.031
		c-1.046,0-3.121-0.321-3.121-3.041V102.078z"/>
</g>
<path fill="#153F2A" d="M131.93,100.71h1.561v8.142h-1.561V100.71z M131.913,97.491h1.578v1.593h-1.578V97.491z"/>
<g>
	<defs>
		<rect id="SVGID_61_" x="37.189" y="81.481" width="185.309" height="107.459"/>
	</defs>
	<clipPath id="SVGID_38_">
		<use xlink:href="#SVGID_61_"  overflow="visible"/>
	</clipPath>
	<path clip-path="url(#SVGID_38_)" fill="#153F2A" d="M139.736,107.693c1.545,0,2.8-1.223,2.8-2.928c0-1.69-1.255-2.897-2.8-2.897
		c-1.528,0-2.799,1.207-2.799,2.897C136.937,106.47,138.208,107.693,139.736,107.693 M139.736,100.516
		c2.43,0,4.393,1.787,4.393,4.249c0,2.478-1.963,4.279-4.393,4.279c-2.429,0-4.392-1.801-4.392-4.279
		C135.344,102.303,137.307,100.516,139.736,100.516"/>
	<path clip-path="url(#SVGID_38_)" fill="#153F2A" d="M145.986,100.71h1.512v1.078c0,0.321-0.033,0.595-0.033,0.595h0.033
		c0.322-0.707,1.288-1.867,3.057-1.867c1.915,0,2.8,1.047,2.8,3.122v5.214h-1.561v-4.86c0-1.142-0.241-2.044-1.545-2.044
		c-1.239,0-2.236,0.822-2.574,1.996c-0.097,0.322-0.129,0.691-0.129,1.094v3.814h-1.56V100.71z"/>
</g>
<path fill="#153F2A" d="M155.999,107.194h1.642v1.657h-1.642V107.194z M155.999,100.71h1.642v1.657h-1.642V100.71z"/>
<g>
	<defs>
		<rect id="SVGID_63_" x="37.189" y="81.481" width="185.309" height="107.459"/>
	</defs>
	<clipPath id="SVGID_39_">
		<use xlink:href="#SVGID_63_"  overflow="visible"/>
	</clipPath>
	<path clip-path="url(#SVGID_39_)" fill="#153F2A" d="M80.677,125.661c0,0,1.207,1.224,2.897,1.224c1.061,0,1.963-0.596,1.963-1.675
		c0-2.462-5.503-1.931-5.503-5.423c0-1.768,1.529-3.169,3.668-3.169c2.108,0,3.218,1.142,3.218,1.142l-0.723,1.32
		c0,0-1.047-0.981-2.495-0.981c-1.206,0-2.059,0.755-2.059,1.657c0,2.349,5.503,1.722,5.503,5.406c0,1.754-1.351,3.202-3.605,3.202
		c-2.413,0-3.764-1.496-3.764-1.496L80.677,125.661z"/>
	<path clip-path="url(#SVGID_39_)" fill="#153F2A" d="M91.559,127.109c1.32,0,2.173-1.383,2.173-2.59v-0.257H93.33
		c-1.176,0-3.3,0.08-3.3,1.545C90.03,126.466,90.545,127.109,91.559,127.109 M93.361,123.087h0.355v-0.144
		c0-1.337-0.757-1.787-1.787-1.787c-1.255,0-2.268,0.788-2.268,0.788l-0.645-1.142c0,0,1.176-0.966,3.043-0.966
		c2.059,0,3.218,1.127,3.218,3.187v5.149h-1.448v-0.773c0-0.37,0.031-0.643,0.031-0.643h-0.031c0,0-0.661,1.608-2.608,1.608
		c-1.4,0-2.767-0.852-2.767-2.477C88.454,123.2,91.993,123.087,93.361,123.087"/>
	<path clip-path="url(#SVGID_39_)" fill="#153F2A" d="M97.614,120.03h1.513v1.078c0,0.321-0.033,0.595-0.033,0.595h0.033
		c0.321-0.707,1.287-1.867,3.057-1.867c1.914,0,2.8,1.047,2.8,3.122v5.214h-1.561v-4.86c0-1.142-0.242-2.044-1.544-2.044
		c-1.24,0-2.237,0.822-2.575,1.996c-0.097,0.322-0.13,0.691-0.13,1.094v3.814h-1.56V120.03z"/>
	<path clip-path="url(#SVGID_39_)" fill="#153F2A" d="M107.661,121.398h-1.063v-1.255h1.111v-2.349h1.512v2.349h1.965v1.255h-1.965
		v3.62c0,1.625,1.143,1.834,1.739,1.834c0.226,0,0.37-0.032,0.37-0.032v1.385c0,0-0.226,0.031-0.547,0.031
		c-1.047,0-3.122-0.321-3.122-3.041V121.398z"/>
	<path clip-path="url(#SVGID_39_)" fill="#153F2A" d="M116.883,127.013c1.545,0,2.8-1.224,2.8-2.928c0-1.69-1.255-2.897-2.8-2.897
		c-1.529,0-2.8,1.207-2.8,2.897C114.083,125.789,115.354,127.013,116.883,127.013 M116.883,119.836c2.429,0,4.393,1.787,4.393,4.249
		c0,2.478-1.964,4.279-4.393,4.279c-2.429,0-4.393-1.801-4.393-4.279C112.49,121.623,114.454,119.836,116.883,119.836"/>
	<path clip-path="url(#SVGID_39_)" fill="#153F2A" d="M123.036,116.811h1.56v8.866c0,0.983,0.387,1.16,0.869,1.16
		c0.145,0,0.274-0.017,0.274-0.017v1.385c0,0-0.241,0.031-0.515,0.031c-0.884,0-2.188-0.241-2.188-2.285V116.811z"/>
	<path clip-path="url(#SVGID_39_)" fill="#153F2A" d="M129.844,127.109c1.32,0,2.173-1.383,2.173-2.59v-0.257h-0.403
		c-1.174,0-3.298,0.08-3.298,1.545C128.316,126.466,128.831,127.109,129.844,127.109 M131.647,123.087h0.354v-0.144
		c0-1.337-0.756-1.787-1.786-1.787c-1.255,0-2.269,0.788-2.269,0.788l-0.644-1.142c0,0,1.174-0.966,3.041-0.966
		c2.06,0,3.218,1.127,3.218,3.187v5.149h-1.448v-0.773c0-0.37,0.033-0.643,0.033-0.643h-0.033c0,0-0.66,1.608-2.607,1.608
		c-1.399,0-2.767-0.852-2.767-2.477C126.739,123.2,130.279,123.087,131.647,123.087"/>
	<path clip-path="url(#SVGID_39_)" fill="#153F2A" d="M135.9,120.03h1.512v1.078c0,0.321-0.033,0.595-0.033,0.595h0.033
		c0.322-0.707,1.288-1.867,3.057-1.867c1.915,0,2.8,1.047,2.8,3.122v5.214h-1.561v-4.86c0-1.142-0.241-2.044-1.545-2.044
		c-1.239,0-2.236,0.822-2.574,1.996c-0.097,0.322-0.128,0.691-0.128,1.094v3.814H135.9V120.03z"/>
</g>
</svg>
