<?xml version="1.0" encoding="utf-8"?>
<!-- Generator: Adobe Illustrator 17.1.0, SVG Export Plug-In . SVG Version: 6.00 Build 0)  -->
<!DOCTYPE svg PUBLIC "-//W3C//DTD SVG 1.1//EN" "http://www.w3.org/Graphics/SVG/1.1/DTD/svg11.dtd">
<svg version="1.1" id="Layer_1" xmlns="http://www.w3.org/2000/svg" xmlns:xlink="http://www.w3.org/1999/xlink" x="0px" y="0px"
	 viewBox="0 0 221.5 189.5" enable-background="new 0 0 221.5 189.5" xml:space="preserve">
<g>
	<path fill="#153F2A" d="M131.93,101.21h1.561v8.142h-1.561V101.21z M131.913,97.991h1.578v1.593h-1.578V97.991z"/>
</g>
<g>
	<g>
		<path fill="#153F2A" d="M80.677,126.161c0,0,1.207,1.224,2.897,1.224c1.061,0,1.963-0.596,1.963-1.675
			c0-2.462-5.503-1.931-5.503-5.423c0-1.768,1.529-3.169,3.668-3.169c2.108,0,3.218,1.142,3.218,1.142l-0.723,1.32
			c0,0-1.047-0.981-2.495-0.981c-1.206,0-2.059,0.755-2.059,1.657c0,2.349,5.503,1.722,5.503,5.406c0,1.754-1.351,3.202-3.605,3.202
			c-2.413,0-3.764-1.496-3.764-1.496L80.677,126.161z"/>
	</g>
	<g>
		<path fill="#153F2A" d="M91.559,127.609c1.32,0,2.173-1.383,2.173-2.59v-0.257H93.33c-1.176,0-3.3,0.08-3.3,1.545
			C90.03,126.966,90.545,127.609,91.559,127.609 M93.361,123.587h0.355v-0.144c0-1.337-0.757-1.787-1.787-1.787
			c-1.255,0-2.268,0.788-2.268,0.788l-0.645-1.142c0,0,1.176-0.966,3.043-0.966c2.059,0,3.218,1.127,3.218,3.187v5.149h-1.448
			v-0.773c0-0.37,0.031-0.643,0.031-0.643h-0.031c0,0-0.661,1.608-2.608,1.608c-1.4,0-2.767-0.852-2.767-2.477
			C88.454,123.7,91.993,123.587,93.361,123.587"/>
	</g>
	<g>
		<path fill="#153F2A" d="M97.614,120.53h1.513v1.078c0,0.321-0.033,0.595-0.033,0.595h0.033c0.321-0.707,1.287-1.867,3.057-1.867
			c1.914,0,2.8,1.047,2.8,3.122v5.214h-1.561v-4.86c0-1.142-0.242-2.044-1.544-2.044c-1.24,0-2.237,0.822-2.575,1.996
			c-0.097,0.322-0.13,0.691-0.13,1.094v3.814h-1.56V120.53z"/>
	</g>
	<g>
		<path fill="#153F2A" d="M107.661,121.898h-1.063v-1.255h1.111v-2.349h1.512v2.349h1.965v1.255h-1.965v3.62
			c0,1.625,1.143,1.834,1.739,1.834c0.226,0,0.37-0.032,0.37-0.032v1.385c0,0-0.226,0.031-0.547,0.031
			c-1.047,0-3.122-0.321-3.122-3.041V121.898z"/>
	</g>
	<g>
		<path fill="#153F2A" d="M116.883,127.513c1.545,0,2.8-1.224,2.8-2.928c0-1.69-1.255-2.897-2.8-2.897c-1.529,0-2.8,1.207-2.8,2.897
			C114.083,126.289,115.354,127.513,116.883,127.513 M116.883,120.336c2.429,0,4.393,1.787,4.393,4.249
			c0,2.478-1.964,4.279-4.393,4.279c-2.429,0-4.393-1.801-4.393-4.279C112.49,122.123,114.454,120.336,116.883,120.336"/>
	</g>
	<g>
		<path fill="#153F2A" d="M123.036,117.311h1.56v8.866c0,0.983,0.387,1.16,0.869,1.16c0.145,0,0.274-0.017,0.274-0.017v1.385
			c0,0-0.241,0.031-0.515,0.031c-0.884,0-2.188-0.241-2.188-2.285V117.311z"/>
	</g>
	<g>
		<path fill="#153F2A" d="M129.844,127.609c1.32,0,2.173-1.383,2.173-2.59v-0.257h-0.403c-1.174,0-3.298,0.08-3.298,1.545
			C128.316,126.966,128.831,127.609,129.844,127.609 M131.647,123.587h0.354v-0.144c0-1.337-0.756-1.787-1.786-1.787
			c-1.255,0-2.269,0.788-2.269,0.788l-0.644-1.142c0,0,1.174-0.966,3.041-0.966c2.06,0,3.218,1.127,3.218,3.187v5.149h-1.448v-0.773
			c0-0.37,0.033-0.643,0.033-0.643h-0.033c0,0-0.66,1.608-2.607,1.608c-1.399,0-2.767-0.852-2.767-2.477
			C126.739,123.7,130.279,123.587,131.647,123.587"/>
	</g>
	<g>
		<path fill="#153F2A" d="M135.9,120.53h1.512v1.078c0,0.321-0.033,0.595-0.033,0.595h0.033c0.322-0.707,1.288-1.867,3.057-1.867
			c1.915,0,2.8,1.047,2.8,3.122v5.214h-1.561v-4.86c0-1.142-0.241-2.044-1.545-2.044c-1.239,0-2.236,0.822-2.574,1.996
			c-0.097,0.322-0.128,0.691-0.128,1.094v3.814H135.9V120.53z"/>
	</g>
</g>
<g>
	<path fill="#FFFFFF" d="M183.229,140.732H56.271c-0.341,0-0.674,0.1-0.958,0.287l-14.088,9.256c-1.16,0.762-2.703-0.07-2.703-1.458
		v-8.085V83.915c0-0.964,0.781-1.745,1.745-1.745h142.962c0.964,0,1.745,0.781,1.745,1.745v55.073
		C184.974,139.951,184.193,140.732,183.229,140.732z"/>
	<path fill="#163F2A" d="M40.271,151.907c-0.799,0-1.559-0.306-2.141-0.86c-0.613-0.584-0.95-1.376-0.95-2.229V83.915
		c0-1.702,1.384-3.087,3.086-3.087h142.962c1.702,0,3.087,1.385,3.087,3.087v55.072c0,1.702-1.385,3.087-3.087,3.087H56.271
		c-0.079,0-0.156,0.023-0.222,0.066l-14.087,9.256C41.454,151.73,40.87,151.907,40.271,151.907z M40.267,83.512
		c-0.222,0-0.402,0.181-0.402,0.403v64.902c0,0.117,0.039,0.211,0.118,0.287c0.136,0.128,0.338,0.16,0.507,0.049l14.087-9.256
		c0.506-0.332,1.092-0.507,1.695-0.507h126.957c0.223,0,0.403-0.181,0.403-0.403V83.915c0-0.223-0.181-0.403-0.403-0.403H40.267z"/>
</g>
<g>
	<path fill="#163F2A" d="M65.855,96.838h1.578l5.055,7.389c0.419,0.612,0.95,1.643,0.95,1.643h0.032c0,0-0.113-1.015-0.113-1.643
		v-7.389h1.594v11.365H73.39l-5.07-7.373c-0.419-0.628-0.95-1.658-0.95-1.658h-0.032c0,0,0.112,1.015,0.112,1.658v7.373h-1.594
		V96.838z"/>
	<path fill="#163F2A" d="M81.232,99.864c2.303,0,3.525,1.706,3.525,3.815c0,0.209-0.048,0.676-0.048,0.676h-5.94
		c0.081,1.787,1.353,2.688,2.802,2.688c1.4,0,2.414-0.949,2.414-0.949l0.645,1.143c0,0-1.208,1.159-3.155,1.159
		c-2.56,0-4.314-1.852-4.314-4.267C77.16,101.538,78.915,99.864,81.232,99.864z M83.165,103.181c-0.049-1.4-0.918-2.077-1.965-2.077
		c-1.19,0-2.156,0.741-2.382,2.077H83.165z"/>
	<path fill="#163F2A" d="M89.511,105.032c0,0-0.129,0.257-0.242,0.45l-1.706,2.721h-1.771l2.769-4.186l-2.624-3.96h1.787
		l1.513,2.479c0.129,0.21,0.274,0.483,0.274,0.483h0.032c0,0,0.145-0.273,0.273-0.483l1.513-2.479h1.787l-2.624,3.96l2.769,4.186
		H91.49l-1.706-2.721c-0.113-0.193-0.241-0.45-0.241-0.45H89.511z"/>
	<path fill="#163F2A" d="M95.179,101.426h-1.062v-1.256h1.11v-2.35h1.514v2.35h1.964v1.256H96.74v3.622
		c0,1.626,1.143,1.835,1.738,1.835c0.226,0,0.37-0.032,0.37-0.032v1.385c0,0-0.225,0.032-0.547,0.032
		c-1.047,0-3.123-0.322-3.123-3.043V101.426z"/>
	<path fill="#163F2A" d="M104.841,106.095c0,0,0.917,0.949,2.334,0.949c0.676,0,1.353-0.354,1.353-1.014
		c0-1.497-4.186-1.191-4.186-3.848c0-1.481,1.319-2.318,2.945-2.318c1.787,0,2.624,0.901,2.624,0.901l-0.628,1.176
		c0,0-0.724-0.725-2.012-0.725c-0.676,0-1.336,0.29-1.336,0.998c0,1.465,4.186,1.143,4.186,3.815c0,1.352-1.159,2.366-2.946,2.366
		c-1.996,0-3.091-1.191-3.091-1.191L104.841,106.095z"/>
	<path fill="#163F2A" d="M112.296,101.426h-1.062v-1.256h1.11v-2.35h1.514v2.35h1.964v1.256h-1.964v3.622
		c0,1.626,1.143,1.835,1.738,1.835c0.226,0,0.37-0.032,0.37-0.032v1.385c0,0-0.225,0.032-0.547,0.032
		c-1.047,0-3.123-0.322-3.123-3.043V101.426z"/>
	<path fill="#163F2A" d="M121.973,103.116h0.354v-0.145c0-1.337-0.756-1.787-1.786-1.787c-1.256,0-2.271,0.789-2.271,0.789
		l-0.644-1.144c0,0,1.175-0.966,3.042-0.966c2.061,0,3.22,1.127,3.22,3.188v5.151h-1.448v-0.772c0-0.37,0.032-0.645,0.032-0.645
		h-0.032c0,0-0.66,1.61-2.608,1.61c-1.4,0-2.769-0.854-2.769-2.479C117.062,103.229,120.604,103.116,121.973,103.116z
		 M120.169,107.141c1.32,0,2.174-1.385,2.174-2.592v-0.258h-0.402c-1.176,0-3.301,0.081-3.301,1.546
		C118.64,106.497,119.155,107.141,120.169,107.141z"/>
	<path fill="#163F2A" d="M126.515,101.426h-1.062v-1.256h1.11v-2.35h1.514v2.35h1.964v1.256h-1.964v3.622
		c0,1.626,1.143,1.835,1.738,1.835c0.226,0,0.37-0.032,0.37-0.032v1.385c0,0-0.225,0.032-0.547,0.032
		c-1.047,0-3.123-0.322-3.123-3.043V101.426z"/>
	<path fill="#163F2A" d="M131.925,96.838h1.578v1.594h-1.578V96.838z M131.941,100.058h1.562v8.146h-1.562V100.058z"/>
	<path fill="#163F2A" d="M139.75,99.864c2.431,0,4.395,1.787,4.395,4.25c0,2.479-1.964,4.282-4.395,4.282s-4.395-1.803-4.395-4.282
		C135.355,101.651,137.319,99.864,139.75,99.864z M139.75,107.044c1.546,0,2.801-1.224,2.801-2.93c0-1.69-1.255-2.897-2.801-2.897
		c-1.529,0-2.801,1.207-2.801,2.897C136.949,105.82,138.221,107.044,139.75,107.044z"/>
	<path fill="#163F2A" d="M145.999,100.058h1.513v1.078c0,0.322-0.032,0.596-0.032,0.596h0.032c0.322-0.708,1.288-1.867,3.059-1.867
		c1.916,0,2.802,1.047,2.802,3.123v5.216h-1.562v-4.861c0-1.144-0.242-2.045-1.546-2.045c-1.239,0-2.237,0.821-2.575,1.996
		c-0.097,0.322-0.129,0.692-0.129,1.095v3.815h-1.562V100.058z"/>
	<path fill="#163F2A" d="M156.016,100.058h1.642v1.658h-1.642V100.058z M156.016,106.545h1.642v1.658h-1.642V106.545z"/>
	<path fill="#163F2A" d="M80.678,125.015c0,0,1.208,1.224,2.898,1.224c1.062,0,1.964-0.596,1.964-1.674
		c0-2.463-5.506-1.932-5.506-5.425c0-1.771,1.529-3.172,3.671-3.172c2.108,0,3.219,1.144,3.219,1.144l-0.724,1.319
		c0,0-1.047-0.981-2.495-0.981c-1.208,0-2.061,0.757-2.061,1.658c0,2.35,5.505,1.722,5.505,5.408c0,1.755-1.353,3.204-3.605,3.204
		c-2.415,0-3.768-1.497-3.768-1.497L80.678,125.015z"/>
	<path fill="#163F2A" d="M93.366,122.439h0.354v-0.145c0-1.337-0.756-1.787-1.786-1.787c-1.256,0-2.271,0.789-2.271,0.789
		l-0.644-1.144c0,0,1.175-0.966,3.042-0.966c2.061,0,3.22,1.127,3.22,3.188v5.151h-1.448v-0.772c0-0.37,0.032-0.645,0.032-0.645
		h-0.032c0,0-0.66,1.61-2.608,1.61c-1.4,0-2.769-0.854-2.769-2.479C88.456,122.552,91.998,122.439,93.366,122.439z M91.562,126.464
		c1.32,0,2.174-1.385,2.174-2.592v-0.258h-0.402c-1.176,0-3.301,0.081-3.301,1.546C90.033,125.82,90.549,126.464,91.562,126.464z"/>
	<path fill="#163F2A" d="M97.619,119.381h1.513v1.078c0,0.322-0.032,0.596-0.032,0.596h0.032c0.322-0.708,1.288-1.867,3.059-1.867
		c1.916,0,2.802,1.047,2.802,3.123v5.216h-1.562v-4.861c0-1.144-0.242-2.045-1.546-2.045c-1.239,0-2.237,0.821-2.575,1.996
		c-0.097,0.322-0.129,0.692-0.129,1.095v3.815h-1.562V119.381z"/>
	<path fill="#163F2A" d="M107.667,120.749h-1.062v-1.256h1.11v-2.35h1.514v2.35h1.964v1.256h-1.964v3.622
		c0,1.626,1.143,1.835,1.738,1.835c0.226,0,0.37-0.032,0.37-0.032v1.385c0,0-0.225,0.032-0.547,0.032
		c-1.047,0-3.123-0.322-3.123-3.043V120.749z"/>
	<path fill="#163F2A" d="M116.893,119.188c2.431,0,4.395,1.787,4.395,4.25c0,2.479-1.964,4.282-4.395,4.282
		s-4.395-1.803-4.395-4.282C112.498,120.975,114.462,119.188,116.893,119.188z M116.893,126.367c1.546,0,2.801-1.224,2.801-2.93
		c0-1.69-1.255-2.897-2.801-2.897c-1.529,0-2.801,1.207-2.801,2.897C114.092,125.144,115.363,126.367,116.893,126.367z"/>
	<path fill="#163F2A" d="M123.045,116.161h1.562v8.87c0,0.981,0.387,1.159,0.869,1.159c0.145,0,0.273-0.017,0.273-0.017v1.385
		c0,0-0.241,0.032-0.515,0.032c-0.886,0-2.189-0.241-2.189-2.286V116.161z"/>
	<path fill="#163F2A" d="M131.659,122.439h0.354v-0.145c0-1.337-0.756-1.787-1.786-1.787c-1.256,0-2.271,0.789-2.271,0.789
		l-0.644-1.144c0,0,1.175-0.966,3.042-0.966c2.061,0,3.22,1.127,3.22,3.188v5.151h-1.448v-0.772c0-0.37,0.032-0.645,0.032-0.645
		h-0.032c0,0-0.66,1.61-2.608,1.61c-1.4,0-2.769-0.854-2.769-2.479C126.749,122.552,130.291,122.439,131.659,122.439z
		 M129.855,126.464c1.32,0,2.174-1.385,2.174-2.592v-0.258h-0.402c-1.176,0-3.301,0.081-3.301,1.546
		C128.326,125.82,128.842,126.464,129.855,126.464z"/>
	<path fill="#163F2A" d="M135.911,119.381h1.513v1.078c0,0.322-0.032,0.596-0.032,0.596h0.032c0.322-0.708,1.288-1.867,3.059-1.867
		c1.916,0,2.802,1.047,2.802,3.123v5.216h-1.562v-4.861c0-1.144-0.242-2.045-1.546-2.045c-1.239,0-2.237,0.821-2.575,1.996
		c-0.097,0.322-0.129,0.692-0.129,1.095v3.815h-1.562V119.381z"/>
</g>
</svg>
