<?xml version="1.0" encoding="utf-8"?>
<!-- Generator: Adobe Illustrator 17.1.0, SVG Export Plug-In . SVG Version: 6.00 Build 0)  -->
<!DOCTYPE svg PUBLIC "-//W3C//DTD SVG 1.1//EN" "http://www.w3.org/Graphics/SVG/1.1/DTD/svg11.dtd">
<svg version="1.1" id="Layer_1" xmlns="http://www.w3.org/2000/svg" xmlns:xlink="http://www.w3.org/1999/xlink" x="0px" y="0px"
	 viewBox="0 0 221.5 189.5" enable-background="new 0 0 221.5 189.5" xml:space="preserve">
<g>
	<defs>
		<rect id="SVGID_50_" x="48.104" y="90.917" width="175.903" height="100.482"/>
	</defs>
	<clipPath id="SVGID_38_">
		<use xlink:href="#SVGID_50_"  overflow="visible"/>
	</clipPath>
	<path clip-path="url(#SVGID_38_)" fill="#FFFFFF" d="M160.979,117.088h-40.348c-1.078,0-1.952-0.907-1.952-2.027v-5.64
		c0-1.119,0.874-2.026,1.952-2.026h40.348c1.078,0,1.952,0.907,1.952,2.026v5.64C162.931,116.181,162.057,117.088,160.979,117.088"
		/>
	<path clip-path="url(#SVGID_38_)" fill="none" stroke="#153F2A" stroke-width="2" stroke-miterlimit="10" d="M160.979,117.088
		h-40.348c-1.078,0-1.952-0.907-1.952-2.027v-5.64c0-1.119,0.874-2.026,1.952-2.026h40.348c1.078,0,1.952,0.907,1.952,2.026v5.64
		C162.931,116.181,162.057,117.088,160.979,117.088z"/>
	<path clip-path="url(#SVGID_38_)" fill="#FFFFFF" d="M176.113,132.78l-27.316,29.817c-0.73,0.797-1.968,0.851-2.765,0.122
		l-4.019-3.676c-0.797-0.73-0.852-1.967-0.122-2.764l27.316-29.816c0.73-0.797,1.968-0.852,2.765-0.122l4.019,3.676
		C176.788,130.746,176.843,131.983,176.113,132.78"/>
	<path clip-path="url(#SVGID_38_)" fill="none" stroke="#153F2A" stroke-width="2" stroke-miterlimit="10" d="M176.113,132.78
		l-27.316,29.817c-0.73,0.797-1.968,0.851-2.765,0.122l-4.019-3.676c-0.797-0.73-0.852-1.967-0.122-2.764l27.316-29.816
		c0.73-0.797,1.968-0.852,2.765-0.122l4.019,3.676C176.788,130.746,176.843,131.983,176.113,132.78z"/>
	<path clip-path="url(#SVGID_38_)" fill="#FFFFFF" d="M194.976,189.628h-35.135c-1.08,0-1.955-0.869-1.955-1.942V95.858
		c0-1.072,0.875-1.941,1.955-1.941h35.135c1.08,0,1.955,0.869,1.955,1.941v91.828C196.931,188.759,196.056,189.628,194.976,189.628"
		/>
	<path clip-path="url(#SVGID_38_)" fill="none" stroke="#153F2A" stroke-width="2" stroke-miterlimit="10" d="M194.976,189.628
		h-35.135c-1.08,0-1.955-0.869-1.955-1.942V95.858c0-1.072,0.875-1.941,1.955-1.941h35.135c1.08,0,1.955,0.869,1.955,1.941v91.828
		C196.931,188.759,196.056,189.628,194.976,189.628z"/>
	<path clip-path="url(#SVGID_38_)" fill="#153F2A" d="M190.11,105.394H164.4c-1.06,0-1.92-0.929-1.92-2.076v-0.893
		c0-1.147,0.86-2.076,1.92-2.076h25.71c1.06,0,1.92,0.929,1.92,2.076v0.893C192.03,104.465,191.17,105.394,190.11,105.394"/>
	<path clip-path="url(#SVGID_38_)" fill="none" stroke="#FFFFFF" stroke-width="2" stroke-miterlimit="10" d="M190.11,105.394H164.4
		c-1.06,0-1.92-0.929-1.92-2.076v-0.893c0-1.147,0.86-2.076,1.92-2.076h25.71c1.06,0,1.92,0.929,1.92,2.076v0.893
		C192.03,104.465,191.17,105.394,190.11,105.394z"/>
	<path clip-path="url(#SVGID_38_)" fill="#FFFFFF" d="M190.345,176.457h-26.18c-0.93,0-1.685-0.749-1.685-1.674v-48.562
		c0-0.924,0.755-1.674,1.685-1.674h26.18c0.931,0,1.685,0.75,1.685,1.674v48.562C192.03,175.708,191.276,176.457,190.345,176.457"/>
	<path clip-path="url(#SVGID_38_)" fill="none" stroke="#153F2A" stroke-width="2" stroke-miterlimit="10" d="M190.345,176.457
		h-26.18c-0.93,0-1.685-0.749-1.685-1.674v-48.562c0-0.924,0.755-1.674,1.685-1.674h26.18c0.931,0,1.685,0.75,1.685,1.674v48.562
		C192.03,175.708,191.276,176.457,190.345,176.457z"/>
	<path clip-path="url(#SVGID_38_)" fill="#153F2A" d="M97.191,122.052H49.498c-0.77,0-1.394-0.624-1.394-1.394V92.311
		c0-0.77,0.624-1.394,1.394-1.394h47.693c0.77,0,1.394,0.624,1.394,1.394v28.347C98.585,121.428,97.961,122.052,97.191,122.052"/>
	<path clip-path="url(#SVGID_38_)" fill="#FFFFFF" d="M61.842,101.895c2.039,0,3.082,1.115,3.082,1.115l-0.588,0.888
		c0,0-0.983-0.924-2.447-0.924c-1.895,0-3.13,1.439-3.13,3.238c0,1.812,1.259,3.347,3.143,3.347c1.594,0,2.614-1.104,2.614-1.104
		l0.636,0.852c0,0-1.164,1.343-3.287,1.343c-2.543,0-4.33-1.943-4.33-4.425C57.535,103.766,59.383,101.895,61.842,101.895"/>
	<path clip-path="url(#SVGID_38_)" fill="#FFFFFF" d="M69.377,103.203c0,0-0.192,0.767-0.336,1.199l-0.947,2.687h2.566l-0.935-2.687
		c-0.144-0.432-0.323-1.199-0.323-1.199H69.377z M70.972,108.072h-3.189l-0.84,2.435h-1.224l3.046-8.468h1.248l3.047,8.468h-1.236
		L70.972,108.072z"/>
	<path clip-path="url(#SVGID_38_)" fill="#FFFFFF" d="M77.201,106.105c0.923,0,1.5-0.587,1.5-1.535c0-0.624-0.241-1.067-0.672-1.307
		c-0.229-0.12-0.504-0.192-1.164-0.192h-1.368v3.034H77.201z M74.31,102.039h2.591c0.888,0,1.26,0.072,1.583,0.192
		c0.863,0.325,1.428,1.176,1.428,2.291c0,1.08-0.6,1.991-1.524,2.29v0.025c0,0,0.096,0.107,0.252,0.384l1.799,3.286h-1.344
		l-1.786-3.37h-1.812v3.37H74.31V102.039z"/>
	<path clip-path="url(#SVGID_38_)" fill="#FFFFFF" d="M84.726,109.476c1.907,0,3.154-1.128,3.154-3.215
		c0-2.075-1.259-3.19-3.154-3.19H83.19v6.405H84.726z M82.003,102.039h2.807c2.59,0,4.294,1.548,4.294,4.222
		c0,2.686-1.704,4.246-4.294,4.246h-2.807V102.039z"/>
</g>
<g>
	<defs>
		<rect id="SVGID_52_" x="31.952" y="82.268" width="191.545" height="108.885"/>
	</defs>
	<clipPath id="SVGID_39_">
		<use xlink:href="#SVGID_52_"  overflow="visible"/>
	</clipPath>
</g>
</svg>
