<?xml version="1.0" encoding="utf-8"?>
<!-- Generator: Adobe Illustrator 17.1.0, SVG Export Plug-In . SVG Version: 6.00 Build 0)  -->
<!DOCTYPE svg PUBLIC "-//W3C//DTD SVG 1.1//EN" "http://www.w3.org/Graphics/SVG/1.1/DTD/svg11.dtd">
<svg version="1.1" id="Layer_1" xmlns="http://www.w3.org/2000/svg" xmlns:xlink="http://www.w3.org/1999/xlink" x="0px" y="0px"
	 viewBox="0 0 221.5 188" enable-background="new 0 0 221.5 188" xml:space="preserve">
<g>
	<g>
		<path fill="#FFFFFF" d="M167.728,188.736H55.271c-0.99,0-1.793-0.803-1.793-1.793V93.535c0-0.99,0.803-1.793,1.793-1.793h112.458
			c0.99,0,1.793,0.803,1.793,1.793v93.408C169.522,187.933,168.719,188.736,167.728,188.736z"/>
		<path fill="#163F2A" d="M167.729,189.831H55.271c-1.592,0-2.888-1.296-2.888-2.889V93.534c0-1.592,1.296-2.888,2.888-2.888
			h112.458c1.592,0,2.888,1.296,2.888,2.888v93.408C170.616,188.535,169.32,189.831,167.729,189.831z M55.271,92.836
			c-0.385,0-0.698,0.313-0.698,0.698v93.408c0,0.386,0.313,0.699,0.698,0.699h112.458c0.385,0,0.698-0.313,0.698-0.699V93.534
			c0-0.385-0.313-0.698-0.698-0.698H55.271z"/>
	</g>
	<g>
		<path fill="#FFFFFF" d="M168.972,161.244l-14.818,9.433c-0.229,0.146-0.494,0.223-0.765,0.223H68.828
			c-0.283,0-0.559-0.084-0.794-0.242L54,161.248c-0.395-0.265-0.632-0.71-0.632-1.186l0.106-66.898
			c0.001-0.786,0.639-1.423,1.425-1.423h113.306c0.787,0,1.425,0.638,1.425,1.425v66.875
			C169.631,160.529,169.383,160.982,168.972,161.244z"/>
		<path fill="#163F2A" d="M153.388,171.995h-84.56c-0.502,0-0.987-0.148-1.404-0.429l-14.033-9.409
			c-0.699-0.468-1.117-1.251-1.117-2.095l0.106-66.9c0.004-1.388,1.134-2.516,2.521-2.516h113.306c1.39,0,2.521,1.131,2.521,2.521
			v66.875c0,0.866-0.437,1.66-1.167,2.126l-14.818,9.433C154.337,171.858,153.868,171.995,153.388,171.995z M54.9,92.836
			c-0.183,0-0.331,0.148-0.331,0.331l-0.106,66.897c0,0.109,0.055,0.213,0.146,0.273l14.035,9.411
			c0.056,0.037,0.119,0.057,0.185,0.057h84.56c0.063,0,0.123-0.018,0.177-0.052l14.819-9.434c0.096-0.061,0.153-0.165,0.153-0.278
			V93.167c0-0.183-0.148-0.331-0.331-0.331H54.9z"/>
	</g>
	<g>
		<path fill="#FFFFFF" d="M151.237,170.9H70.899c-0.872,0-1.58-0.707-1.58-1.58V96.267c0-0.872,0.707-1.58,1.58-1.58h80.338
			c0.872,0,1.58,0.707,1.58,1.58v73.053C152.816,170.193,152.109,170.9,151.237,170.9z"/>
		<path fill="#163F2A" d="M151.236,171.995H70.898c-1.475,0-2.674-1.2-2.674-2.675V96.267c0-1.475,1.199-2.674,2.674-2.674h80.338
			c1.475,0,2.675,1.199,2.675,2.674v73.054C153.911,170.795,152.711,171.995,151.236,171.995z M70.898,95.782
			c-0.268,0-0.484,0.217-0.484,0.484v73.054c0,0.268,0.217,0.485,0.484,0.485h80.338c0.268,0,0.485-0.218,0.485-0.485V96.267
			c0-0.268-0.218-0.484-0.485-0.484H70.898z"/>
	</g>
	<g>
		<path fill="#163F2A" d="M127.356,171.995H95.255c-1.263,0-2.29-1.027-2.29-2.29v-2.647c0-1.263,1.027-2.29,2.29-2.29h32.102
			c1.263,0,2.29,1.027,2.29,2.29v2.647C129.646,170.968,128.619,171.995,127.356,171.995z M95.255,166.957
			c-0.056,0-0.101,0.045-0.101,0.101v2.647c0,0.056,0.045,0.101,0.101,0.101h32.102c0.056,0,0.101-0.045,0.101-0.101v-2.647
			c0-0.056-0.045-0.101-0.101-0.101H95.255z"/>
	</g>
	<g>
		<path fill="#FFFFFF" d="M153.752,96.952H69.557c-0.033,0-0.066-0.005-0.097-0.015l-14.091-4.58
			c-0.341-0.111-0.261-0.615,0.097-0.615h112.103c0.358,0,0.439,0.502,0.099,0.614l-13.817,4.58
			C153.82,96.947,153.786,96.952,153.752,96.952z"/>
		<path fill="#163F2A" d="M153.752,98.047H69.391l-0.257-0.065l-14.103-4.584c-0.664-0.216-1.066-0.873-0.957-1.562
			c0.109-0.689,0.695-1.189,1.393-1.189h112.103c0.695,0,1.281,0.499,1.392,1.186c0.11,0.688-0.289,1.345-0.949,1.562l-13.815,4.58
			C154.053,98.022,153.903,98.047,153.752,98.047z M69.682,95.857h83.943l9.115-3.021H60.385L69.682,95.857z"/>
	</g>
	<g>
		<path fill="#163F2A" d="M88.639,151.09H75.453c-1.068,0-1.933-0.865-1.933-1.933V131.32c0-1.068,0.865-1.933,1.933-1.933h13.186
			c1.068,0,1.933,0.865,1.933,1.933v17.837C90.572,150.224,89.706,151.09,88.639,151.09z"/>
	</g>
	<g>
		<path fill="#FFFFFF" d="M151.184,188.914H70.951c-0.902,0-1.632-0.731-1.632-1.632v-14.925c0-0.902,0.731-1.632,1.632-1.632
			h80.232c0.902,0,1.632,0.731,1.632,1.632v14.925C152.816,188.183,152.085,188.914,151.184,188.914z"/>
		<path fill="#163F2A" d="M151.184,190.009H70.951c-1.503,0-2.727-1.224-2.727-2.728v-14.926c0-1.503,1.224-2.727,2.727-2.727
			h80.232c1.504,0,2.728,1.224,2.728,2.727v14.926C153.911,188.785,152.688,190.009,151.184,190.009z M70.951,171.818
			c-0.296,0-0.537,0.241-0.537,0.537v14.926c0,0.297,0.241,0.538,0.537,0.538h80.232c0.297,0,0.538-0.241,0.538-0.538v-14.926
			c0-0.296-0.241-0.537-0.538-0.537H70.951z"/>
	</g>
</g>
<g>
	<g>
		<circle fill="#FFFFFF" cx="111.855" cy="137.328" r="11.244"/>
		<path fill="#163F2A" d="M111.855,149.666c-6.804,0-12.339-5.535-12.339-12.339c0-6.803,5.535-12.338,12.339-12.338
			c6.803,0,12.338,5.535,12.338,12.338C124.193,144.131,118.658,149.666,111.855,149.666z M111.855,127.179
			c-5.597,0-10.149,4.553-10.149,10.148c0,5.597,4.553,10.149,10.149,10.149c5.596,0,10.148-4.553,10.148-10.149
			C122.004,131.731,117.451,127.179,111.855,127.179z"/>
	</g>
</g>
<g>
	<path fill="#FFFFFF" d="M95.5,189v-20.72c0-0.925,1.358-1.28,2.284-1.28h0.034c0.925,0,0.683,0.355,0.683,1.28V189h25v-20.72
		c0-0.925,1.468-1.28,2.393-1.28h0.034c0.925,0,0.573,0.355,0.573,1.28V189h8v-24.476c0-4.97-3.023-9.524-7.993-9.524H97.203
		c-4.97,0-9.703,4.554-9.703,9.524V189H95.5z"/>
	<path fill="#163F2A" d="M135.5,190h-10v-21.72c0-0.09,0.003-0.175,0.007-0.255c-0.527,0.063-0.943,0.23-1.035,0.35L124.5,190h-27
		v-21.72c0-0.094,0.002-0.182,0.005-0.266c-0.554,0.053-0.952,0.233-1.025,0.333L96.5,190h-10v-25.477
		c0-5.508,5.102-10.523,10.703-10.523h29.305c5.841,0,8.992,5.422,8.992,10.523V190z M127.5,188h6v-23.477
		c0-4.132-2.45-8.523-6.992-8.523H97.203c-4.474,0-8.703,4.143-8.703,8.523V188h6v-19.72c0-1.566,1.702-2.28,3.283-2.28
		c0.454,0,0.986,0.053,1.372,0.461c0.415,0.44,0.385,0.974,0.36,1.402c-0.007,0.121-0.016,0.26-0.016,0.417V188h23v-19.72
		c0-1.566,1.759-2.28,3.394-2.28c0.301,0,0.928,0,1.346,0.468c0.396,0.443,0.335,0.978,0.295,1.331
		c-0.015,0.133-0.034,0.292-0.034,0.481V188z"/>
</g>
</svg>
