<?xml version="1.0" encoding="utf-8"?>
<!-- Generator: Adobe Illustrator 17.1.0, SVG Export Plug-In . SVG Version: 6.00 Build 0)  -->
<!DOCTYPE svg PUBLIC "-//W3C//DTD SVG 1.1//EN" "http://www.w3.org/Graphics/SVG/1.1/DTD/svg11.dtd">
<svg version="1.1" id="Layer_1" xmlns="http://www.w3.org/2000/svg" xmlns:xlink="http://www.w3.org/1999/xlink" x="0px" y="0px"
	 viewBox="0 0 221.5 189.5" enable-background="new 0 0 221.5 189.5" xml:space="preserve">
<g>
	<defs>
		<rect id="SVGID_11_" x="0.728" y="80.522" width="192.408" height="109.377"/>
	</defs>
	<clipPath id="SVGID_38_">
		<use xlink:href="#SVGID_11_"  overflow="visible"/>
	</clipPath>
	<path clip-path="url(#SVGID_38_)" fill="#FFFFFF" d="M155.818,123.869H45.841c-0.298,0-0.588,0.087-0.837,0.25l-12.184,8.006
		c-1.013,0.666-2.36-0.061-2.36-1.273v-6.983V83.207c0-0.841,0.682-1.523,1.523-1.523h123.835c0.841,0,1.523,0.682,1.523,1.523
		v39.139C157.341,123.187,156.659,123.869,155.818,123.869"/>
	<path clip-path="url(#SVGID_38_)" fill="#153F2A" d="M31.983,82.847c-0.198,0-0.361,0.161-0.361,0.36v47.644
		c0,0.106,0.036,0.19,0.107,0.258c0.119,0.115,0.3,0.143,0.453,0.044l12.185-8.006c0.438-0.288,0.948-0.44,1.473-0.44h109.978
		c0.199,0,0.361-0.163,0.361-0.362V83.207c0-0.199-0.162-0.36-0.361-0.36H31.983z M31.988,133.54
		c-0.696,0.001-1.358-0.266-1.864-0.748c-0.533-0.508-0.827-1.198-0.827-1.941V83.207c0-1.481,1.205-2.685,2.686-2.685h123.835
		c1.482,0,2.686,1.204,2.686,2.685v39.138c0,1.482-1.204,2.687-2.686,2.687H45.84c-0.07,0-0.138,0.02-0.196,0.059l-12.186,8.006
		C33.017,133.387,32.508,133.54,31.988,133.54"/>
	<path clip-path="url(#SVGID_38_)" fill="#153F2A" d="M45.594,105.504c0,0,1.046,1.06,2.51,1.06c0.921,0,1.701-0.516,1.701-1.451
		c0-2.133-4.768-1.673-4.768-4.699c0-1.532,1.324-2.746,3.178-2.746c1.827,0,2.789,0.99,2.789,0.99l-0.627,1.143
		c0,0-0.906-0.85-2.162-0.85c-1.045,0-1.784,0.655-1.784,1.436c0,2.036,4.768,1.492,4.768,4.684c0,1.521-1.17,2.775-3.123,2.775
		c-2.091,0-3.262-1.296-3.262-1.296L45.594,105.504z"/>
	<path clip-path="url(#SVGID_38_)" fill="#153F2A" d="M55.024,106.758c1.143,0,1.882-1.198,1.882-2.244v-0.223h-0.348
		c-1.019,0-2.859,0.07-2.859,1.339C53.699,106.201,54.145,106.758,55.024,106.758 M56.585,103.273h0.308v-0.125
		c0-1.158-0.657-1.548-1.549-1.548c-1.088,0-1.965,0.683-1.965,0.683l-0.559-0.99c0,0,1.019-0.837,2.636-0.837
		c1.785,0,2.789,0.977,2.789,2.761v4.462H56.99v-0.67c0-0.32,0.027-0.557,0.027-0.557H56.99c0,0-0.572,1.394-2.259,1.394
		c-1.213,0-2.398-0.739-2.398-2.147C52.333,103.371,55.4,103.273,56.585,103.273"/>
	<path clip-path="url(#SVGID_38_)" fill="#153F2A" d="M64.162,105.504c0,0,1.046,1.06,2.51,1.06c0.921,0,1.701-0.516,1.701-1.451
		c0-2.133-4.768-1.673-4.768-4.699c0-1.532,1.324-2.746,3.178-2.746c1.827,0,2.789,0.99,2.789,0.99l-0.627,1.143
		c0,0-0.906-0.85-2.162-0.85c-1.045,0-1.784,0.655-1.784,1.436c0,2.036,4.768,1.492,4.768,4.684c0,1.521-1.17,2.775-3.123,2.775
		c-2.091,0-3.262-1.296-3.262-1.296L64.162,105.504z"/>
	<path clip-path="url(#SVGID_38_)" fill="#153F2A" d="M73.593,106.758c1.143,0,1.882-1.198,1.882-2.244v-0.223h-0.348
		c-1.019,0-2.859,0.07-2.859,1.339C72.268,106.201,72.714,106.758,73.593,106.758 M75.154,103.273h0.308v-0.125
		c0-1.158-0.657-1.548-1.549-1.548c-1.088,0-1.965,0.683-1.965,0.683l-0.559-0.99c0,0,1.019-0.837,2.636-0.837
		c1.785,0,2.789,0.977,2.789,2.761v4.462h-1.255v-0.67c0-0.32,0.027-0.557,0.027-0.557h-0.027c0,0-0.572,1.394-2.259,1.394
		c-1.213,0-2.398-0.739-2.398-2.147C70.902,103.371,73.969,103.273,75.154,103.273"/>
	<path clip-path="url(#SVGID_38_)" fill="#153F2A" d="M78.839,100.624h1.311v0.934c0,0.279-0.028,0.516-0.028,0.516h0.028
		c0.278-0.613,1.115-1.618,2.649-1.618c1.659,0,2.426,0.907,2.426,2.705v4.518h-1.352v-4.211c0-0.99-0.21-1.771-1.338-1.771
		c-1.075,0-1.939,0.712-2.231,1.729c-0.085,0.279-0.113,0.599-0.113,0.948v3.305h-1.352V100.624z"/>
	<path clip-path="url(#SVGID_38_)" fill="#153F2A" d="M87.545,101.809h-0.921v-1.088h0.963v-2.035h1.31v2.035h1.702v1.088h-1.702
		v3.137c0,1.408,0.99,1.589,1.507,1.589c0.195,0,0.32-0.028,0.32-0.028v1.2c0,0-0.195,0.027-0.473,0.027
		c-0.908,0-2.706-0.278-2.706-2.635V101.809z"/>
	<path clip-path="url(#SVGID_38_)" fill="#153F2A" d="M95.538,106.675c1.339,0,2.425-1.06,2.425-2.537
		c0-1.465-1.086-2.51-2.425-2.51c-1.325,0-2.426,1.045-2.426,2.51C93.112,105.615,94.213,106.675,95.538,106.675 M95.538,100.456
		c2.105,0,3.806,1.549,3.806,3.682c0,2.147-1.701,3.708-3.806,3.708c-2.106,0-3.807-1.561-3.807-3.708
		C91.73,102.005,93.432,100.456,95.538,100.456"/>
	<path clip-path="url(#SVGID_38_)" fill="#153F2A" d="M100.868,97.835h1.352v7.683c0,0.851,0.335,1.005,0.753,1.005
		c0.126,0,0.237-0.015,0.237-0.015v1.2c0,0-0.209,0.027-0.446,0.027c-0.766,0-1.896-0.209-1.896-1.98V97.835z"/>
	<path clip-path="url(#SVGID_38_)" fill="#153F2A" d="M106.769,106.758c1.143,0,1.882-1.198,1.882-2.244v-0.223h-0.348
		c-1.019,0-2.859,0.07-2.859,1.339C105.444,106.201,105.89,106.758,106.769,106.758 M108.33,103.273h0.308v-0.125
		c0-1.158-0.657-1.548-1.549-1.548c-1.088,0-1.965,0.683-1.965,0.683l-0.559-0.99c0,0,1.019-0.837,2.636-0.837
		c1.785,0,2.789,0.977,2.789,2.761v4.462h-1.255v-0.67c0-0.32,0.027-0.557,0.027-0.557h-0.027c0,0-0.572,1.394-2.259,1.394
		c-1.213,0-2.398-0.739-2.398-2.147C104.077,103.371,107.145,103.273,108.33,103.273"/>
	<path clip-path="url(#SVGID_38_)" fill="#153F2A" d="M112.015,100.624h1.311v0.934c0,0.279-0.028,0.516-0.028,0.516h0.028
		c0.278-0.613,1.115-1.618,2.649-1.618c1.659,0,2.426,0.907,2.426,2.705v4.518h-1.352v-4.211c0-0.99-0.21-1.771-1.338-1.771
		c-1.074,0-1.938,0.712-2.231,1.729c-0.084,0.279-0.113,0.599-0.113,0.948v3.305h-1.352V100.624z"/>
	<path clip-path="url(#SVGID_38_)" fill="#153F2A" d="M127.317,106.689c1.116,0,2.035-0.921,2.035-2.524
		c0-1.534-0.822-2.524-1.993-2.524c-1.06,0-2.036,0.739-2.036,2.538C125.323,105.434,126.02,106.689,127.317,106.689
		 M124.013,100.624h1.241v0.599c0,0.279-0.028,0.516-0.028,0.516h0.028c0,0,0.599-1.283,2.369-1.283
		c1.898,0,3.096,1.507,3.096,3.696c0,2.244-1.352,3.694-3.192,3.694c-1.549,0-2.162-1.157-2.162-1.157h-0.028
		c0,0,0.028,0.251,0.028,0.613v3.166h-1.352V100.624z"/>
	<path clip-path="url(#SVGID_38_)" fill="#153F2A" d="M135.674,106.675c1.339,0,2.425-1.06,2.425-2.537
		c0-1.465-1.086-2.51-2.425-2.51c-1.325,0-2.426,1.045-2.426,2.51C133.248,105.615,134.349,106.675,135.674,106.675
		 M135.674,100.456c2.105,0,3.806,1.549,3.806,3.682c0,2.147-1.701,3.708-3.806,3.708c-2.106,0-3.807-1.561-3.807-3.708
		C131.867,102.005,133.568,100.456,135.674,100.456"/>
</g>
<rect x="141.089" y="106.243" fill="#153F2A" width="1.421" height="1.436"/>
<g>
	<defs>
		<rect id="SVGID_13_" x="0.728" y="80.522" width="192.408" height="109.377"/>
	</defs>
	<clipPath id="SVGID_39_">
		<use xlink:href="#SVGID_13_"  overflow="visible"/>
	</clipPath>
	<path clip-path="url(#SVGID_39_)" fill="#FFFFFF" d="M154.957,152.542v4.111c0,2.27,5.153,4.11,11.51,4.11s11.51-1.84,11.51-4.11
		v-4.111H154.957z"/>
	<path clip-path="url(#SVGID_39_)" fill="none" stroke="#153F2A" stroke-width="2" stroke-miterlimit="10" d="M154.957,152.542
		v4.111c0,2.27,5.153,4.11,11.51,4.11s11.51-1.84,11.51-4.11v-4.111H154.957z"/>
	<path clip-path="url(#SVGID_39_)" fill="#FFFFFF" d="M177.978,152.542c0,2.27-5.153,4.111-11.51,4.111
		c-6.357,0-11.51-1.841-11.51-4.111s5.153-4.111,11.51-4.111C172.825,148.431,177.978,150.272,177.978,152.542"/>
	
		<ellipse clip-path="url(#SVGID_39_)" fill="none" stroke="#153F2A" stroke-width="2" stroke-miterlimit="10" cx="166.468" cy="152.542" rx="11.51" ry="4.111"/>
	<path clip-path="url(#SVGID_39_)" fill="#FFFFFF" d="M150.326,162.694v4.111c0,2.27,5.153,4.11,11.51,4.11s11.51-1.84,11.51-4.11
		v-4.111H150.326z"/>
	<path clip-path="url(#SVGID_39_)" fill="none" stroke="#153F2A" stroke-width="2" stroke-miterlimit="10" d="M150.326,162.694
		v4.111c0,2.27,5.153,4.11,11.51,4.11s11.51-1.84,11.51-4.11v-4.111H150.326z"/>
	<path clip-path="url(#SVGID_39_)" fill="#FFFFFF" d="M173.346,162.694c0,2.27-5.153,4.111-11.51,4.111
		c-6.357,0-11.51-1.841-11.51-4.111c0-2.27,5.153-4.111,11.51-4.111C168.193,158.583,173.346,160.424,173.346,162.694"/>
	
		<ellipse clip-path="url(#SVGID_39_)" fill="none" stroke="#153F2A" stroke-width="2" stroke-miterlimit="10" cx="161.836" cy="162.694" rx="11.51" ry="4.111"/>
	<path clip-path="url(#SVGID_39_)" fill="#FFFFFF" d="M169.116,160.639v4.111c0,2.27,5.153,4.11,11.51,4.11s11.51-1.84,11.51-4.11
		v-4.111H169.116z"/>
	<path clip-path="url(#SVGID_39_)" fill="none" stroke="#153F2A" stroke-width="2" stroke-miterlimit="10" d="M169.116,160.639
		v4.111c0,2.27,5.153,4.11,11.51,4.11s11.51-1.84,11.51-4.11v-4.111H169.116z"/>
	<path clip-path="url(#SVGID_39_)" fill="#FFFFFF" d="M192.137,160.639c0,2.27-5.153,4.111-11.51,4.111
		c-6.357,0-11.51-1.841-11.51-4.111s5.153-4.111,11.51-4.111C186.984,156.528,192.137,158.369,192.137,160.639"/>
	
		<ellipse clip-path="url(#SVGID_39_)" fill="none" stroke="#153F2A" stroke-width="2" stroke-miterlimit="10" cx="180.627" cy="160.639" rx="11.51" ry="4.111"/>
</g>
<g>
	<defs>
		<polygon id="SVGID_3_" points="164.831,150.955 164.787,154.022 168.135,154.013 168.179,150.946 		"/>
	</defs>
	<clipPath id="SVGID_40_">
		<use xlink:href="#SVGID_3_"  overflow="visible"/>
	</clipPath>
	<path clip-path="url(#SVGID_40_)" fill="#153F2A" d="M167.837,150.947l-2.556,0.007l-0.273,1.497l0.412,0.09
		c0,0,0.362-0.151,0.857-0.152c0.648-0.002,1.149,0.253,1.144,0.611c-0.006,0.369-0.522,0.617-1.125,0.618
		c-0.711,0.002-1.102-0.323-1.102-0.323l-0.401,0.306c0,0,0.498,0.421,1.542,0.418c1.026-0.003,1.806-0.443,1.814-1.02
		c0.008-0.546-0.687-0.982-1.758-0.979c-0.369,0.001-0.65,0.098-0.65,0.098h-0.018c0,0,0.028-0.07,0.039-0.161l0.135-0.636
		l1.935-0.005L167.837,150.947z"/>
</g>
<g>
	<defs>
		<polygon id="SVGID_2_" points="160.196,161.107 160.152,164.175 163.5,164.166 163.544,161.098 		"/>
	</defs>
	<clipPath id="SVGID_41_">
		<use xlink:href="#SVGID_2_"  overflow="visible"/>
	</clipPath>
	<path clip-path="url(#SVGID_41_)" fill="#153F2A" d="M163.211,161.099l-2.565,0.007l-0.273,1.497l0.412,0.09
		c0,0,0.363-0.151,0.858-0.152c0.656-0.002,1.148,0.253,1.142,0.611c-0.005,0.369-0.521,0.617-1.115,0.618
		c-0.72,0.002-1.111-0.323-1.111-0.323l-0.401,0.306c0,0,0.507,0.421,1.551,0.418c1.026-0.003,1.797-0.443,1.805-1.02
		c0.008-0.546-0.678-0.982-1.749-0.979c-0.378,0.001-0.658,0.098-0.658,0.098h-0.018c0,0,0.036-0.07,0.038-0.161l0.135-0.636
		l1.944-0.005L163.211,161.099z"/>
</g>
<g>
	<defs>
		<polygon id="SVGID_1_" points="178.988,159.053 178.944,162.116 182.291,162.107 182.335,159.044 		"/>
	</defs>
	<clipPath id="SVGID_42_">
		<use xlink:href="#SVGID_1_"  overflow="visible"/>
	</clipPath>
	<path clip-path="url(#SVGID_42_)" fill="#153F2A" d="M182.003,159.045l-2.565,0.007l-0.273,1.492l0.412,0.089
		c0,0,0.363-0.15,0.857-0.151c0.648-0.002,1.149,0.253,1.143,0.617c-0.005,0.368-0.521,0.61-1.115,0.612
		c-0.72,0.002-1.111-0.323-1.111-0.323l-0.401,0.311c0,0,0.507,0.415,1.542,0.413c1.035-0.003,1.806-0.438,1.814-1.021
		c0.008-0.54-0.678-0.981-1.749-0.979c-0.378,0.001-0.659,0.098-0.659,0.098h-0.018c0,0,0.037-0.069,0.039-0.155l0.135-0.636
		l1.944-0.005L182.003,159.045z"/>
</g>
</svg>
