<?xml version="1.0" encoding="utf-8"?>
<!-- Generator: Adobe Illustrator 17.1.0, SVG Export Plug-In . SVG Version: 6.00 Build 0)  -->
<!DOCTYPE svg PUBLIC "-//W3C//DTD SVG 1.1//EN" "http://www.w3.org/Graphics/SVG/1.1/DTD/svg11.dtd">
<svg version="1.1" id="Layer_1" xmlns="http://www.w3.org/2000/svg" xmlns:xlink="http://www.w3.org/1999/xlink" x="0px" y="0px"
	 viewBox="0 0 221.5 189.5" enable-background="new 0 0 221.5 189.5" xml:space="preserve">
<g>
	<path fill="#FFFFFF" d="M160.321,116.034H120.11c-1.075,0-1.946-0.871-1.946-1.946v-5.415c0-1.075,0.871-1.946,1.946-1.946h40.211
		c1.075,0,1.946,0.871,1.946,1.946v5.415C162.267,115.163,161.396,116.034,160.321,116.034z"/>
	<path fill="#163F2A" d="M160.321,117.27H120.11c-1.754,0-3.181-1.427-3.181-3.181v-5.416c0-1.754,1.427-3.181,3.181-3.181h40.211
		c1.754,0,3.181,1.427,3.181,3.181v5.416C163.502,115.843,162.075,117.27,160.321,117.27z M120.11,107.963
		c-0.392,0-0.71,0.318-0.71,0.71v5.416c0,0.392,0.318,0.71,0.71,0.71h40.211c0.392,0,0.71-0.318,0.71-0.71v-5.416
		c0-0.392-0.318-0.71-0.71-0.71H120.11z"/>
</g>
<g>
	<path fill="#FFFFFF" d="M175.546,132.203l-27.152,29.66c-0.726,0.793-1.956,0.847-2.749,0.121l-3.994-3.657
		c-0.793-0.726-0.847-1.956-0.121-2.749l27.152-29.66c0.726-0.793,1.956-0.847,2.749-0.121l3.994,3.657
		C176.217,130.179,176.271,131.41,175.546,132.203z"/>
	<path fill="#163F2A" d="M146.959,163.729c-0.797,0-1.56-0.297-2.147-0.836l-3.994-3.655c-0.627-0.573-0.992-1.356-1.03-2.206
		c-0.038-0.849,0.258-1.661,0.831-2.288l27.152-29.659c1.138-1.242,3.247-1.339,4.494-0.198l3.994,3.656
		c1.293,1.185,1.382,3.2,0.198,4.494l-27.152,29.659C148.704,163.353,147.849,163.729,146.959,163.729z M170.117,126.522
		c-0.117,0-0.341,0.029-0.524,0.23l-27.152,29.659c-0.128,0.14-0.194,0.321-0.186,0.511c0.008,0.189,0.09,0.365,0.23,0.493
		l3.994,3.656c0.132,0.121,0.302,0.187,0.479,0.187c0.116,0,0.34-0.029,0.523-0.23l27.152-29.659
		c0.265-0.289,0.245-0.739-0.044-1.005l-3.994-3.655C170.465,126.589,170.295,126.522,170.117,126.522z"/>
</g>
<g>
	<path fill="#FFFFFF" d="M194.554,189.072h-34.968c-1.075,0-1.946-0.871-1.946-1.946V95.103c0-1.075,0.871-1.946,1.946-1.946h34.968
		c1.075,0,1.946,0.871,1.946,1.946v92.023C196.5,188.201,195.629,189.072,194.554,189.072z"/>
	<path fill="#163F2A" d="M194.555,190.308h-34.969c-1.754,0-3.181-1.427-3.181-3.181V95.104c0-1.754,1.427-3.181,3.181-3.181h34.969
		c1.754,0,3.181,1.427,3.181,3.181v92.023C197.735,188.881,196.309,190.308,194.555,190.308z M159.586,94.394
		c-0.392,0-0.71,0.318-0.71,0.71v92.023c0,0.392,0.318,0.71,0.71,0.71h34.969c0.392,0,0.71-0.318,0.71-0.71V95.104
		c0-0.392-0.318-0.71-0.71-0.71H159.586z"/>
</g>
<g>
	<path fill="#163F2A" d="M189.662,104.26H164.17c-1.051,0-1.903-0.852-1.903-1.903v-0.819c0-1.051,0.852-1.903,1.903-1.903h25.492
		c1.051,0,1.903,0.852,1.903,1.903v0.819C191.565,103.408,190.713,104.26,189.662,104.26z"/>
	<path fill="#FFFFFF" d="M189.662,105.496H164.17c-1.73,0-3.139-1.408-3.139-3.14v-0.818c0-1.731,1.408-3.14,3.139-3.14h25.492
		c1.73,0,3.139,1.408,3.139,3.14v0.818C192.801,104.088,191.393,105.496,189.662,105.496z M164.17,100.869
		c-0.368,0-0.668,0.3-0.668,0.669v0.818c0,0.369,0.3,0.669,0.668,0.669h25.492c0.368,0,0.668-0.3,0.668-0.669v-0.818
		c0-0.369-0.3-0.669-0.668-0.669H164.17z"/>
</g>
<g>
	<path fill="#FFFFFF" d="M189.895,175.811h-25.958c-0.923,0-1.671-0.748-1.671-1.671v-48.471c0-0.923,0.748-1.671,1.671-1.671
		h25.958c0.923,0,1.671,0.748,1.671,1.671v48.471C191.565,175.063,190.818,175.811,189.895,175.811z"/>
	<path fill="#163F2A" d="M189.895,177.046h-25.957c-1.603,0-2.906-1.304-2.906-2.905v-48.472c0-1.603,1.304-2.906,2.906-2.906
		h25.957c1.603,0,2.906,1.304,2.906,2.906v48.472C192.801,175.742,191.497,177.046,189.895,177.046z M163.938,125.233
		c-0.24,0-0.436,0.195-0.436,0.436v48.472c0,0.24,0.195,0.435,0.436,0.435h25.957c0.24,0,0.436-0.194,0.436-0.435v-48.472
		c0-0.24-0.195-0.436-0.436-0.436H163.938z"/>
</g>
<g>
	<g>
		<path fill="#163F2A" d="M96.67,121.552H48.977c-0.77,0-1.394-0.624-1.394-1.394V91.811c0-0.77,0.624-1.394,1.394-1.394H96.67
			c0.77,0,1.394,0.624,1.394,1.394v28.347C98.064,120.928,97.44,121.552,96.67,121.552z"/>
	</g>
</g>
<g>
	<g>
		<path fill="#FFFFFF" d="M61.321,101.395c2.039,0,3.082,1.115,3.082,1.115l-0.588,0.888c0,0-0.983-0.924-2.447-0.924
			c-1.895,0-3.13,1.439-3.13,3.238c0,1.812,1.259,3.347,3.143,3.347c1.595,0,2.614-1.104,2.614-1.104l0.636,0.852
			c0,0-1.163,1.343-3.286,1.343c-2.543,0-4.33-1.942-4.33-4.425C57.014,103.266,58.862,101.395,61.321,101.395z"/>
	</g>
	<g>
		<path fill="#FFFFFF" d="M70.451,107.572h-3.189l-0.84,2.435h-1.224l3.046-8.468h1.248l3.047,8.468h-1.236L70.451,107.572z
			 M68.857,102.703c0,0-0.192,0.768-0.336,1.199l-0.947,2.687h2.566l-0.936-2.687c-0.144-0.432-0.323-1.199-0.323-1.199H68.857z"/>
	</g>
	<g>
		<path fill="#FFFFFF" d="M73.789,101.539h2.591c0.888,0,1.26,0.072,1.583,0.192c0.863,0.324,1.428,1.176,1.428,2.291
			c0,1.079-0.6,1.99-1.523,2.29v0.024c0,0,0.096,0.107,0.252,0.384l1.799,3.286h-1.344l-1.786-3.37h-1.812v3.37h-1.188V101.539z
			 M76.68,105.605c0.924,0,1.5-0.588,1.5-1.535c0-0.624-0.24-1.067-0.672-1.308c-0.229-0.12-0.504-0.191-1.164-0.191h-1.367v3.034
			H76.68z"/>
	</g>
	<g>
		<path fill="#FFFFFF" d="M81.482,101.539h2.807c2.591,0,4.294,1.548,4.294,4.222c0,2.687-1.703,4.246-4.294,4.246h-2.807V101.539z
			 M84.204,108.975c1.907,0,3.154-1.128,3.154-3.215c0-2.074-1.259-3.189-3.154-3.189h-1.535v6.404H84.204z"/>
	</g>
</g>
</svg>
