<svg xmlns="http://www.w3.org/2000/svg" width="59.5" height="36.5" viewBox="60.5 0 59.5 36.5" enable-background="new 60.5 0 59.5 36.5"><path fill="#fff" d="M114.318 8.246h1.807l-.426-1.382h-29.274l-.85 1.382h2.015l-2.998 5.129h-7.102s-1.254-.151-1.254 1.276l-.007 3.582-.001-.002h-1.393v2.197c0 .512.409.93.917.93l.458-.004c.149-2.6 2.628-4.662 5.231-4.662 2.604 0 5.074 2.062 5.23 4.658l17.235-.007c.156-2.588 2.627-4.649 5.23-4.649 2.604 0 5.068 2.057 5.231 4.649h1.743v-7.625h-1.795v-5.472h.003zm-21.767 8.477l-4.473.007-1.963-3.356 2.999-5.129h7.581v5.493c-.966.101-2.995.601-4.144 2.985zm5.845-3.007v-5.47h14.221v5.471h-14.221zm-9.583-9.185c0-.758-.615-1.373-1.373-1.373v2.744c.757 0 1.373-.614 1.373-1.371zM81.367 17.417c-2.428 0-4.4 1.997-4.4 4.451 0 2.465 1.972 4.46 4.4 4.46 2.438 0 4.411-1.995 4.411-4.46 0-2.454-1.972-4.451-4.411-4.451zm.001 6.39c-1.056 0-1.905-.868-1.905-1.939 0-1.058.85-1.926 1.905-1.926 1.06 0 1.909.868 1.909 1.926-.001 1.07-.849 1.939-1.909 1.939zm27.688-6.39c-2.428 0-4.399 1.997-4.399 4.451 0 2.465 1.971 4.46 4.399 4.46 2.439 0 4.411-1.995 4.411-4.46 0-2.454-1.972-4.451-4.411-4.451zm.001 6.39c-1.056 0-1.904-.868-1.904-1.939 0-1.058.849-1.926 1.904-1.926 1.061 0 1.91.868 1.91 1.926-.002 1.07-.85 1.939-1.91 1.939z"/></svg>