<?xml version="1.0" encoding="utf-8"?>
<!-- Generator: Adobe Illustrator 17.1.0, SVG Export Plug-In . SVG Version: 6.00 Build 0)  -->
<!DOCTYPE svg PUBLIC "-//W3C//DTD SVG 1.1//EN" "http://www.w3.org/Graphics/SVG/1.1/DTD/svg11.dtd">
<svg version="1.1" id="Layer_1" xmlns="http://www.w3.org/2000/svg" xmlns:xlink="http://www.w3.org/1999/xlink" x="0px" y="0px"
	 viewBox="0 0 221.5 221.5" enable-background="new 0 0 221.5 221.5" xml:space="preserve">
<g>
	<g>
		<path fill="#FFFFFF" stroke="#163F2A" stroke-width="2.5709" stroke-miterlimit="10" d="M79.217,151.082h-8.335
			c-1.059,0-1.918-0.859-1.918-1.918v-12.633c0-1.059,0.859-1.918,1.918-1.918h8.335c1.059,0,1.918,0.859,1.918,1.918v12.633
			C81.135,150.223,80.276,151.082,79.217,151.082z"/>
		<path fill="#FFFFFF" stroke="#163F2A" stroke-width="2.5709" stroke-miterlimit="10" d="M152.327,151.49h-8.618
			c-1.059,0-1.918-0.859-1.918-1.918v-11.448c0-1.059,0.859-1.918,1.918-1.918h8.618c1.059,0,1.918,0.859,1.918,1.918v11.448
			C154.244,150.632,153.386,151.49,152.327,151.49z"/>
	</g>
	<g>
		<path fill="#FFFFFF" stroke="#163F2A" stroke-width="2.5709" stroke-miterlimit="10" d="M70.188,108.706H59.204
			c-0.857,0-1.552-0.695-1.552-1.552v-4.025c0-0.857,0.695-1.552,1.552-1.552h10.984c0.857,0,1.552,0.695,1.552,1.552v4.025
			C71.74,108.011,71.045,108.706,70.188,108.706z"/>
		<path fill="#FFFFFF" stroke="#163F2A" stroke-width="2.5709" stroke-miterlimit="10" d="M164.004,108.706h-10.984
			c-0.857,0-1.552-0.695-1.552-1.552v-4.025c0-0.857,0.695-1.552,1.552-1.552h10.984c0.857,0,1.552,0.695,1.552,1.552v4.025
			C165.557,108.011,164.862,108.706,164.004,108.706z"/>
	</g>
	<path fill="#FFFFFF" stroke="#163F2A" stroke-width="2.5709" stroke-miterlimit="10" d="M154.341,109.53h-0.07
		c-1.097,0-1.559-3.383-1.704-4.022l-4.607-20.282c-0.457-2.011-2.188-3.432-4.18-3.432H80.542c-1.95,0-3.655,1.362-4.153,3.317
		l-5.164,20.282c-0.148,0.582-1.014,4.138-2.282,4.138h-0.075c-2.304,0-4.171,1.936-4.171,4.325v21.599
		c0,2.389,1.867,4.325,4.171,4.325c0,0,25.843,3.101,42.736,3.101s42.736-3.101,42.736-3.101c2.304,0,4.171-1.936,4.171-4.325
		v-21.599C158.512,111.466,156.644,109.53,154.341,109.53z M77.117,107.478l3.801-14.928c0.366-1.439,1.621-2.441,3.056-2.441
		h10.233h36.311h10.233c1.467,0,2.741,1.046,3.077,2.526l3.391,14.928c0.157,0.692,0.087,1.37-0.15,1.967H77.25
		C77.002,108.907,76.933,108.198,77.117,107.478z"/>
	<g>
		<circle fill="#FFFFFF" stroke="#163F2A" stroke-width="2.5709" stroke-miterlimit="10" cx="81.473" cy="120.75" r="5.661"/>
		<circle fill="#FFFFFF" stroke="#163F2A" stroke-width="2.5709" stroke-miterlimit="10" cx="141.735" cy="120.75" r="5.661"/>
	</g>
	<g>
		
			<line fill="none" stroke="#163F2A" stroke-width="2.5709" stroke-miterlimit="10" x1="96.751" y1="120.75" x2="126.458" y2="120.75"/>
		
			<line fill="none" stroke="#163F2A" stroke-width="2.5709" stroke-miterlimit="10" x1="96.751" y1="124.736" x2="126.458" y2="124.736"/>
		
			<line fill="none" stroke="#163F2A" stroke-width="2.5709" stroke-miterlimit="10" x1="96.751" y1="128.721" x2="126.458" y2="128.721"/>
	</g>
	<path fill="#FFFFFF" stroke="#163F2A" stroke-width="2.5709" stroke-miterlimit="10" d="M120.086,76.138h-16.964
		c-1.381,0-2.5-1.119-2.5-2.5v-2.221c0-1.381,1.119-2.5,2.5-2.5h16.964c1.381,0,2.5,1.119,2.5,2.5v2.221
		C122.587,75.018,121.467,76.138,120.086,76.138z"/>
</g>
</svg>
