<?xml version="1.0" encoding="utf-8"?>
<!-- Generator: Adobe Illustrator 17.1.0, SVG Export Plug-In . SVG Version: 6.00 Build 0)  -->
<!DOCTYPE svg PUBLIC "-//W3C//DTD SVG 1.1//EN" "http://www.w3.org/Graphics/SVG/1.1/DTD/svg11.dtd">
<svg version="1.1" id="Layer_1" xmlns="http://www.w3.org/2000/svg" xmlns:xlink="http://www.w3.org/1999/xlink" x="0px" y="0px"
	 viewBox="0 0 221.5 189.5" enable-background="new 0 0 221.5 189.5" xml:space="preserve">
<g>
	<defs>
		<rect id="SVGID_166_" x="69.004" y="69.837" width="83.601" height="119.663"/>
	</defs>
	<clipPath id="SVGID_38_">
		<use xlink:href="#SVGID_166_"  overflow="visible"/>
	</clipPath>
	<path clip-path="url(#SVGID_38_)" fill="#FFFFFF" d="M116.866,86.292h-12.123c-1.04,0-1.883-0.843-1.883-1.883v-0.038
		c0-1.04,0.843-1.883,1.883-1.883h12.123c1.04,0,1.883,0.843,1.883,1.883v0.038C118.749,85.449,117.906,86.292,116.866,86.292"/>
	<path clip-path="url(#SVGID_38_)" fill="none" stroke="#153F2A" stroke-miterlimit="10" d="M116.866,86.292h-12.123
		c-1.04,0-1.883-0.843-1.883-1.883v-0.038c0-1.04,0.843-1.883,1.883-1.883h12.123c1.04,0,1.883,0.843,1.883,1.883v0.038
		C118.749,85.449,117.906,86.292,116.866,86.292z"/>
	<path clip-path="url(#SVGID_38_)" fill="#FFFFFF" d="M98.576,84.39c0,0.831-0.673,1.504-1.504,1.504
		c-0.83,0-1.504-0.673-1.504-1.504c0-0.831,0.674-1.504,1.504-1.504C97.903,82.886,98.576,83.559,98.576,84.39"/>
	<circle clip-path="url(#SVGID_38_)" fill="none" stroke="#153F2A" stroke-miterlimit="10" cx="97.072" cy="84.39" r="1.504"/>
	<path clip-path="url(#SVGID_38_)" fill="#FFFFFF" d="M136.987,130.618h-34.528c-0.752,0-1.361-0.609-1.361-1.36v-9.446
		c0-0.751,0.609-1.36,1.361-1.36h31.089c0.751,0,1.36,0.609,1.36,1.36v7.506l2.508,2.133
		C137.886,129.85,137.603,130.618,136.987,130.618"/>
	<path clip-path="url(#SVGID_38_)" fill="none" stroke="#153F2A" stroke-width="2" stroke-miterlimit="10" d="M136.987,130.618
		h-34.528c-0.752,0-1.361-0.609-1.361-1.36v-9.446c0-0.751,0.609-1.36,1.361-1.36h31.089c0.751,0,1.36,0.609,1.36,1.36v7.506
		l2.508,2.133C137.886,129.85,137.603,130.618,136.987,130.618z"/>
</g>
<g>
	<path fill="#153F2A" d="M110.371,125.135h-1.363l-0.359,1.041h-0.523l1.303-3.619h0.533l1.303,3.619h-0.529L110.371,125.135z
		 M109.689,123.054c0,0-0.082,0.328-0.145,0.513l-0.404,1.148h1.098l-0.4-1.148c-0.062-0.185-0.139-0.513-0.139-0.513H109.689z"/>
	<path fill="#153F2A" d="M111.797,122.557h1.266c0.611,0,1.052,0.338,1.052,0.922c0,0.354-0.175,0.637-0.451,0.779v0.011
		c0.38,0.112,0.595,0.472,0.595,0.877c0,0.682-0.527,1.03-1.164,1.03h-1.297V122.557z M113.062,124.079
		c0.328,0,0.533-0.231,0.533-0.549s-0.193-0.533-0.543-0.533h-0.748v1.082H113.062z M113.119,125.734
		c0.391,0,0.621-0.246,0.621-0.615s-0.246-0.62-0.625-0.62h-0.811v1.235H113.119z"/>
	<path fill="#153F2A" d="M116.643,122.494c0.871,0,1.317,0.478,1.317,0.478l-0.251,0.379c0,0-0.42-0.395-1.047-0.395
		c-0.809,0-1.338,0.615-1.338,1.384c0,0.774,0.539,1.431,1.344,1.431c0.682,0,1.117-0.472,1.117-0.472l0.271,0.364
		c0,0-0.496,0.574-1.404,0.574c-1.086,0-1.851-0.831-1.851-1.892C114.802,123.295,115.592,122.494,116.643,122.494z"/>
	<path fill="#153F2A" d="M119.863,125.734h0.799v-2.338c0-0.112,0.006-0.225,0.006-0.225h-0.01c0,0-0.041,0.082-0.176,0.21
		l-0.338,0.333l-0.307-0.318l0.865-0.84h0.451v3.178h0.79v0.441h-2.081V125.734z"/>
	<path fill="#153F2A" d="M122.365,125.898c0-1.291,1.773-1.477,1.773-2.327c0-0.358-0.271-0.6-0.65-0.6
		c-0.477,0-0.732,0.461-0.732,0.461l-0.375-0.251c0,0,0.328-0.688,1.143-0.688c0.668,0,1.145,0.416,1.145,1.041
		c0,1.189-1.729,1.374-1.738,2.199h1.795v0.441h-2.334C122.375,126.078,122.365,125.986,122.365,125.898z"/>
	<path fill="#153F2A" d="M125.498,125.36c0,0,0.354,0.396,0.877,0.396c0.405,0,0.738-0.272,0.738-0.662
		c0-0.445-0.395-0.666-0.84-0.666h-0.252l-0.117-0.271l0.789-0.929c0.117-0.138,0.225-0.235,0.225-0.235v-0.011
		c0,0-0.107,0.016-0.307,0.016h-1.226v-0.44h2.163v0.322l-0.984,1.133c0.477,0.052,1.062,0.359,1.062,1.062
		c0,0.62-0.488,1.164-1.23,1.164c-0.738,0-1.175-0.492-1.175-0.492L125.498,125.36z"/>
</g>
<g>
	<defs>
		<rect id="SVGID_168_" x="69.004" y="69.837" width="83.601" height="119.663"/>
	</defs>
	<clipPath id="SVGID_39_">
		<use xlink:href="#SVGID_168_"  overflow="visible"/>
	</clipPath>
	<path clip-path="url(#SVGID_39_)" fill="none" stroke="#153F2A" stroke-width="2" stroke-miterlimit="10" d="M144.211,188.5V97.611
		c0-1.738-1.409-3.147-3.147-3.147H80.545c-1.738,0-3.147,1.409-3.147,3.147V188.5H144.211z M139.131,70.837H82.478
		c-6.889,0-12.474,5.585-12.474,12.474V188.5h81.601V83.311C151.605,76.422,146.02,70.837,139.131,70.837z"/>
</g>
</svg>
