<?xml version="1.0" encoding="utf-8"?>
<!-- Generator: Adobe Illustrator 17.1.0, SVG Export Plug-In . SVG Version: 6.00 Build 0)  -->
<!DOCTYPE svg PUBLIC "-//W3C//DTD SVG 1.1//EN" "http://www.w3.org/Graphics/SVG/1.1/DTD/svg11.dtd">
<svg version="1.1" id="Layer_1" xmlns="http://www.w3.org/2000/svg" xmlns:xlink="http://www.w3.org/1999/xlink" x="0px" y="0px"
	 viewBox="0 0 221.5 189.5" enable-background="new 0 0 221.5 189.5" xml:space="preserve">
<path fill="#153F2A" d="M134.153,117.025h1.826v1.785h-1.826V117.025z M134.134,105.816h1.845l-0.112,9.423h-1.604L134.134,105.816z
	"/>
<g>
	<defs>
		<rect id="SVGID_154_" x="30.952" y="82.962" width="191.545" height="108.885"/>
	</defs>
	<clipPath id="SVGID_38_">
		<use xlink:href="#SVGID_154_"  overflow="visible"/>
	</clipPath>
	<path clip-path="url(#SVGID_38_)" fill="#FFFFFF" d="M153.215,154.983v4.111c0,2.27,5.153,4.11,11.51,4.11
		c6.357,0,11.51-1.84,11.51-4.11v-4.111H153.215z"/>
	<path clip-path="url(#SVGID_38_)" fill="none" stroke="#153F2A" stroke-width="2" stroke-miterlimit="10" d="M153.215,154.983
		v4.111c0,2.27,5.153,4.11,11.51,4.11c6.357,0,11.51-1.84,11.51-4.11v-4.111H153.215z"/>
	<path clip-path="url(#SVGID_38_)" fill="#FFFFFF" d="M176.235,154.983c0,2.27-5.153,4.111-11.51,4.111
		c-6.357,0-11.51-1.841-11.51-4.111c0-2.27,5.153-4.111,11.51-4.111C171.082,150.872,176.235,152.713,176.235,154.983"/>
	
		<ellipse clip-path="url(#SVGID_38_)" fill="none" stroke="#153F2A" stroke-width="2" stroke-miterlimit="10" cx="164.725" cy="154.983" rx="11.51" ry="4.111"/>
	<path clip-path="url(#SVGID_38_)" fill="#FFFFFF" d="M148.583,165.135v4.111c0,2.27,5.153,4.11,11.51,4.11
		c6.357,0,11.51-1.84,11.51-4.11v-4.111H148.583z"/>
	<path clip-path="url(#SVGID_38_)" fill="none" stroke="#153F2A" stroke-width="2" stroke-miterlimit="10" d="M148.583,165.135
		v4.111c0,2.27,5.153,4.11,11.51,4.11c6.357,0,11.51-1.84,11.51-4.11v-4.111H148.583z"/>
	<path clip-path="url(#SVGID_38_)" fill="#FFFFFF" d="M171.603,165.135c0,2.27-5.153,4.111-11.51,4.111
		c-6.357,0-11.51-1.841-11.51-4.111c0-2.27,5.153-4.111,11.51-4.111C166.45,161.024,171.603,162.865,171.603,165.135"/>
	
		<ellipse clip-path="url(#SVGID_38_)" fill="none" stroke="#153F2A" stroke-width="2" stroke-miterlimit="10" cx="160.094" cy="165.135" rx="11.51" ry="4.111"/>
	<path clip-path="url(#SVGID_38_)" fill="#FFFFFF" d="M167.374,163.08v4.111c0,2.27,5.153,4.11,11.51,4.11
		c6.357,0,11.51-1.84,11.51-4.11v-4.111H167.374z"/>
	<path clip-path="url(#SVGID_38_)" fill="none" stroke="#153F2A" stroke-width="2" stroke-miterlimit="10" d="M167.374,163.08v4.111
		c0,2.27,5.153,4.11,11.51,4.11c6.357,0,11.51-1.84,11.51-4.11v-4.111H167.374z"/>
	<path clip-path="url(#SVGID_38_)" fill="#FFFFFF" d="M190.394,163.08c0,2.27-5.153,4.111-11.51,4.111
		c-6.357,0-11.51-1.841-11.51-4.111c0-2.27,5.153-4.111,11.51-4.111C185.241,158.969,190.394,160.81,190.394,163.08"/>
	
		<ellipse clip-path="url(#SVGID_38_)" fill="none" stroke="#153F2A" stroke-width="2" stroke-miterlimit="10" cx="178.884" cy="163.08" rx="11.51" ry="4.111"/>
</g>
<g>
	<defs>
		<polygon id="SVGID_156_" points="163.088,153.395 163.044,156.464 166.392,156.454 166.436,153.386 		"/>
	</defs>
	<clipPath id="SVGID_39_">
		<use xlink:href="#SVGID_156_"  overflow="visible"/>
	</clipPath>
	<path clip-path="url(#SVGID_39_)" fill="#153F2A" d="M166.095,153.387l-2.556,0.007l-0.273,1.497l0.412,0.09
		c0,0,0.362-0.151,0.857-0.152c0.648-0.002,1.149,0.253,1.144,0.611c-0.006,0.369-0.522,0.617-1.125,0.618
		c-0.711,0.002-1.102-0.323-1.102-0.323l-0.401,0.306c0,0,0.498,0.421,1.542,0.418c1.026-0.003,1.806-0.443,1.814-1.02
		c0.008-0.546-0.687-0.982-1.758-0.979c-0.369,0.001-0.65,0.098-0.65,0.098h-0.018c0,0,0.028-0.07,0.039-0.161l0.135-0.636
		l1.935-0.005L166.095,153.387z"/>
</g>
<g>
	<defs>
		<polygon id="SVGID_158_" points="158.453,163.547 158.409,166.615 161.757,166.607 161.801,163.538 		"/>
	</defs>
	<clipPath id="SVGID_40_">
		<use xlink:href="#SVGID_158_"  overflow="visible"/>
	</clipPath>
	<path clip-path="url(#SVGID_40_)" fill="#153F2A" d="M161.469,163.539l-2.565,0.007l-0.273,1.497l0.412,0.09
		c0,0,0.363-0.151,0.858-0.152c0.656-0.002,1.148,0.253,1.142,0.611c-0.005,0.369-0.521,0.617-1.115,0.618
		c-0.72,0.002-1.111-0.323-1.111-0.323l-0.401,0.306c0,0,0.507,0.421,1.551,0.418c1.026-0.003,1.797-0.443,1.805-1.02
		c0.008-0.546-0.678-0.982-1.749-0.979c-0.378,0.001-0.658,0.098-0.658,0.098h-0.018c0,0,0.036-0.07,0.038-0.161l0.135-0.636
		l1.944-0.005L161.469,163.539z"/>
</g>
<g>
	<defs>
		<polygon id="SVGID_160_" points="177.245,161.494 177.201,164.556 180.549,164.547 180.593,161.485 		"/>
	</defs>
	<clipPath id="SVGID_41_">
		<use xlink:href="#SVGID_160_"  overflow="visible"/>
	</clipPath>
	<path clip-path="url(#SVGID_41_)" fill="#153F2A" d="M180.261,161.485l-2.565,0.007l-0.273,1.492l0.412,0.089
		c0,0,0.363-0.15,0.857-0.151c0.648-0.002,1.149,0.253,1.143,0.617c-0.005,0.368-0.521,0.61-1.115,0.612
		c-0.72,0.002-1.111-0.323-1.111-0.323l-0.401,0.311c0,0,0.507,0.415,1.542,0.413c1.035-0.003,1.806-0.438,1.814-1.021
		c0.008-0.54-0.678-0.981-1.749-0.979c-0.378,0.001-0.659,0.098-0.659,0.098h-0.018c0,0,0.037-0.069,0.039-0.155l0.135-0.636
		l1.944-0.005L180.261,161.485z"/>
</g>
<g>
	<defs>
		<rect id="SVGID_162_" x="29.268" y="78.536" width="193.229" height="113.311"/>
	</defs>
	<clipPath id="SVGID_42_">
		<use xlink:href="#SVGID_162_"  overflow="visible"/>
	</clipPath>
	<path clip-path="url(#SVGID_42_)" fill="#FFFFFF" d="M172.918,136.91H48.046c-0.335,0-0.662,0.097-0.942,0.28l-13.857,9.02
		c-1.141,0.742-2.658-0.069-2.658-1.421v-7.879V81.543c0-0.939,0.768-1.7,1.716-1.7h140.613c0.948,0,1.716,0.761,1.716,1.7v53.667
		C174.634,136.149,173.866,136.91,172.918,136.91"/>
	<path clip-path="url(#SVGID_42_)" fill="#153F2A" d="M32.305,81.151c-0.219,0-0.397,0.176-0.397,0.393v63.245
		c0,0.114,0.037,0.206,0.116,0.278c0.133,0.124,0.33,0.158,0.498,0.049l13.857-9.02c0.498-0.323,1.074-0.494,1.668-0.494h124.871
		c0.219,0,0.397-0.176,0.397-0.392V81.544c0-0.217-0.178-0.393-0.397-0.393H32.305z M32.309,147.799
		c-0.773,0-1.542-0.305-2.105-0.838c-0.603-0.568-0.936-1.341-0.936-2.172V81.544c0-1.659,1.363-3.009,3.037-3.009h140.613
		c1.674,0,3.036,1.35,3.036,3.009v53.666c0,1.659-1.362,3.007-3.036,3.007H48.047c-0.077,0-0.154,0.023-0.219,0.066l-13.856,9.019
		C33.473,147.627,32.898,147.799,32.309,147.799"/>
</g>
<polygon fill="#153F2A" points="48.943,95.489 45.112,95.489 45.112,94.139 54.341,94.139 54.341,95.489 50.51,95.489 
	50.51,105.212 48.943,105.212 "/>
<g>
	<defs>
		<rect id="SVGID_164_" x="29.268" y="78.536" width="193.229" height="113.311"/>
	</defs>
	<clipPath id="SVGID_44_">
		<use xlink:href="#SVGID_164_"  overflow="visible"/>
	</clipPath>
	<path clip-path="url(#SVGID_44_)" fill="#153F2A" d="M54.06,97.277h1.535v4.736c0,1.097,0.222,1.976,1.504,1.976
		c1.631,0,2.596-1.428,2.596-2.996v-3.716h1.535v7.935h-1.487v-1.051c0-0.329,0.031-0.58,0.031-0.58h-0.031
		c-0.333,0.785-1.378,1.819-2.945,1.819c-1.805,0-2.738-0.941-2.738-3.042V97.277z"/>
	<path clip-path="url(#SVGID_44_)" fill="#153F2A" d="M63.642,97.277h1.489v1.379c0,0.329-0.032,0.596-0.032,0.596h0.032
		c0.363-1.16,1.298-2.069,2.532-2.069c0.205,0,0.396,0.031,0.396,0.031v1.506c0,0-0.206-0.047-0.443-0.047
		c-0.982,0-1.885,0.689-2.248,1.865c-0.143,0.455-0.191,0.942-0.191,1.428v3.246h-1.535V97.277z"/>
	<path clip-path="url(#SVGID_44_)" fill="#153F2A" d="M69.581,97.277h1.489v1.051c0,0.313-0.032,0.58-0.032,0.58h0.032
		c0.316-0.69,1.266-1.82,3.007-1.82c1.883,0,2.754,1.02,2.754,3.043v5.081h-1.535v-4.736c0-1.114-0.238-1.992-1.52-1.992
		c-1.219,0-2.2,0.8-2.532,1.945c-0.096,0.314-0.128,0.674-0.128,1.066v3.717h-1.535V97.277z"/>
	<path clip-path="url(#SVGID_44_)" fill="#153F2A" d="M85.607,104.176c1.298,0,2.138-1.348,2.138-2.524v-0.25h-0.396
		c-1.155,0-3.244,0.077-3.244,1.505C84.105,103.549,84.611,104.176,85.607,104.176 M87.381,100.256h0.348v-0.141
		c0-1.302-0.744-1.741-1.757-1.741c-1.235,0-2.232,0.768-2.232,0.768l-0.633-1.113c0,0,1.155-0.941,2.992-0.941
		c2.026,0,3.165,1.098,3.165,3.105v5.019H87.84v-0.753c0-0.36,0.032-0.628,0.032-0.628H87.84c0,0-0.648,1.569-2.565,1.569
		c-1.377,0-2.722-0.832-2.722-2.415C82.553,100.366,86.035,100.256,87.381,100.256"/>
	<path clip-path="url(#SVGID_44_)" fill="#153F2A" d="M91.85,98.61h-1.045v-1.223h1.091v-2.29h1.489v2.29h1.931v1.223h-1.931v3.529
		c0,1.583,1.124,1.787,1.709,1.787c0.222,0,0.365-0.032,0.365-0.032v1.35c0,0-0.222,0.031-0.539,0.031
		c-1.028,0-3.07-0.313-3.07-2.964V98.61z"/>
	<path clip-path="url(#SVGID_44_)" fill="#153F2A" d="M101.591,98.61h-1.045v-1.223h1.091v-2.29h1.489v2.29h1.931v1.223h-1.931
		v3.529c0,1.583,1.124,1.787,1.709,1.787c0.222,0,0.365-0.032,0.365-0.032v1.35c0,0-0.222,0.031-0.539,0.031
		c-1.028,0-3.07-0.313-3.07-2.964V98.61z"/>
	<path clip-path="url(#SVGID_44_)" fill="#153F2A" d="M106.928,94.139h1.535v4.062c0,0.377-0.032,0.659-0.032,0.659h0.032
		c0.348-0.769,1.361-1.773,2.961-1.773c1.883,0,2.753,1.021,2.753,3.044v5.081h-1.535v-4.737c0-1.113-0.237-1.992-1.52-1.992
		c-1.202,0-2.2,0.816-2.533,1.961c-0.095,0.314-0.126,0.675-0.126,1.05v3.718h-1.535V94.139z"/>
	<path clip-path="url(#SVGID_44_)" fill="#153F2A" d="M121.828,100.319c-0.048-1.364-0.902-2.023-1.931-2.023
		c-1.172,0-2.122,0.722-2.343,2.023H121.828z M119.928,97.088c2.265,0,3.467,1.663,3.467,3.718c0,0.204-0.048,0.658-0.048,0.658
		h-5.841c0.08,1.741,1.33,2.62,2.755,2.62c1.377,0,2.375-0.926,2.375-0.926l0.633,1.113c0,0-1.187,1.129-3.103,1.129
		c-2.517,0-4.243-1.803-4.243-4.155C115.923,98.72,117.649,97.088,119.928,97.088"/>
	<path clip-path="url(#SVGID_44_)" fill="#153F2A" d="M129.339,97.277h1.487v1.051c0,0.313-0.031,0.58-0.031,0.58h0.031
		c0.317-0.69,1.267-1.82,3.009-1.82c1.883,0,2.753,1.02,2.753,3.043v5.081h-1.535v-4.736c0-1.114-0.237-1.992-1.52-1.992
		c-1.218,0-2.2,0.8-2.533,1.945c-0.095,0.314-0.126,0.674-0.126,1.066v3.717h-1.535V97.277z"/>
	<path clip-path="url(#SVGID_44_)" fill="#153F2A" d="M144.239,100.319c-0.048-1.364-0.902-2.023-1.931-2.023
		c-1.172,0-2.121,0.722-2.343,2.023H144.239z M142.339,97.088c2.265,0,3.467,1.663,3.467,3.718c0,0.204-0.047,0.658-0.047,0.658
		h-5.842c0.08,1.741,1.33,2.62,2.755,2.62c1.377,0,2.375-0.926,2.375-0.926l0.633,1.113c0,0-1.187,1.129-3.102,1.129
		c-2.518,0-4.244-1.803-4.244-4.155C138.334,98.72,140.06,97.088,142.339,97.088"/>
	<path clip-path="url(#SVGID_44_)" fill="#153F2A" d="M150.481,102.123c0,0-0.126,0.25-0.237,0.438l-1.678,2.651h-1.742l2.723-4.078
		l-2.581-3.857h1.758l1.488,2.415c0.126,0.204,0.269,0.47,0.269,0.47h0.031c0,0,0.143-0.266,0.269-0.47l1.489-2.415h1.757
		l-2.581,3.857l2.723,4.078h-1.74l-1.679-2.651c-0.11-0.188-0.238-0.438-0.238-0.438H150.481z"/>
	<path clip-path="url(#SVGID_44_)" fill="#153F2A" d="M156.057,98.61h-1.045v-1.223h1.093v-2.29h1.487v2.29h1.932v1.223h-1.932
		v3.529c0,1.583,1.124,1.787,1.711,1.787c0.221,0,0.363-0.032,0.363-0.032v1.35c0,0-0.222,0.031-0.537,0.031
		c-1.03,0-3.072-0.313-3.072-2.964V98.61z"/>
	<path clip-path="url(#SVGID_44_)" fill="#153F2A" d="M84.556,116.108h1.489v1.379c0,0.33-0.032,0.597-0.032,0.597h0.032
		c0.363-1.161,1.298-2.07,2.532-2.07c0.205,0,0.396,0.032,0.396,0.032v1.505c0,0-0.206-0.047-0.443-0.047
		c-0.982,0-1.885,0.689-2.248,1.865c-0.143,0.455-0.191,0.942-0.191,1.428v3.246h-1.535V116.108z"/>
</g>
<path fill="#153F2A" d="M90.495,116.107h1.535v7.935h-1.535V116.107z M90.48,112.97h1.551v1.553H90.48V112.97z"/>
<g>
	<defs>
		<rect id="SVGID_166_" x="29.268" y="78.536" width="193.229" height="113.311"/>
	</defs>
	<clipPath id="SVGID_45_">
		<use xlink:href="#SVGID_166_"  overflow="visible"/>
	</clipPath>
	<path clip-path="url(#SVGID_45_)" fill="#153F2A" d="M99.916,119.904c0-2.071-1.013-2.667-2.263-2.667
		c-1.394,0-2.185,1.004-2.185,2.619c0,1.646,0.887,2.777,2.326,2.777C98.903,122.633,99.916,121.974,99.916,119.904 M97.351,126.019
		c1.393,0,2.533-0.612,2.533-2.226v-0.581c0-0.25,0.016-0.502,0.016-0.502h-0.032c-0.474,0.784-1.219,1.239-2.374,1.239
		c-2.232,0-3.578-1.771-3.578-4.062c0-2.273,1.282-3.968,3.499-3.968c1.931,0,2.516,1.176,2.516,1.176h0.033
		c0,0-0.016-0.109-0.016-0.25v-0.737h1.472v7.606c0,2.619-2.011,3.623-4.037,3.623c-0.965,0-1.963-0.267-2.739-0.659l0.507-1.191
		C95.151,125.487,96.148,126.019,97.351,126.019"/>
	<path clip-path="url(#SVGID_45_)" fill="#153F2A" d="M103.831,112.97h1.535v4.062c0,0.377-0.031,0.659-0.031,0.659h0.031
		c0.349-0.769,1.362-1.773,2.961-1.773c1.883,0,2.754,1.021,2.754,3.044v5.081h-1.535v-4.737c0-1.113-0.238-1.992-1.52-1.992
		c-1.203,0-2.2,0.816-2.532,1.96c-0.096,0.315-0.128,0.676-0.128,1.051v3.718h-1.535V112.97z"/>
	<path clip-path="url(#SVGID_45_)" fill="#153F2A" d="M113.714,117.441h-1.045v-1.223h1.093v-2.29h1.487v2.29h1.932v1.223h-1.932
		v3.528c0,1.584,1.124,1.788,1.71,1.788c0.222,0,0.364-0.032,0.364-0.032v1.35c0,0-0.222,0.031-0.537,0.031
		c-1.03,0-3.072-0.313-3.072-2.964V117.441z"/>
</g>
<rect x="119.052" y="122.428" fill="#153F2A" width="1.615" height="1.615"/>
<g>
	<defs>
		<polygon id="SVGID_168_" points="163.088,153.395 163.044,156.464 166.392,156.454 166.436,153.386 		"/>
	</defs>
	<clipPath id="SVGID_46_">
		<use xlink:href="#SVGID_168_"  overflow="visible"/>
	</clipPath>
	<path clip-path="url(#SVGID_46_)" fill="#153F2A" d="M166.094,153.387l-2.556,0.007l-0.273,1.497l0.412,0.09
		c0,0,0.362-0.151,0.857-0.152c0.648-0.002,1.149,0.253,1.144,0.611c-0.006,0.369-0.522,0.617-1.125,0.618
		c-0.711,0.002-1.102-0.323-1.102-0.323l-0.401,0.306c0,0,0.498,0.421,1.542,0.418c1.026-0.003,1.806-0.443,1.814-1.02
		c0.008-0.546-0.687-0.982-1.758-0.979c-0.369,0.001-0.65,0.098-0.65,0.098h-0.018c0,0,0.028-0.07,0.039-0.161l0.135-0.636
		l1.935-0.005L166.094,153.387z"/>
</g>
<g>
	<defs>
		<polygon id="SVGID_170_" points="158.453,163.547 158.409,166.615 161.757,166.607 161.801,163.538 		"/>
	</defs>
	<clipPath id="SVGID_47_">
		<use xlink:href="#SVGID_170_"  overflow="visible"/>
	</clipPath>
	<path clip-path="url(#SVGID_47_)" fill="#153F2A" d="M161.468,163.539l-2.565,0.007l-0.273,1.497l0.412,0.09
		c0,0,0.363-0.151,0.858-0.152c0.656-0.002,1.148,0.253,1.142,0.611c-0.005,0.369-0.521,0.617-1.115,0.618
		c-0.72,0.002-1.111-0.323-1.111-0.323l-0.401,0.306c0,0,0.507,0.421,1.551,0.418c1.026-0.003,1.797-0.443,1.805-1.02
		c0.008-0.546-0.678-0.982-1.749-0.979c-0.378,0.001-0.658,0.098-0.658,0.098h-0.018c0,0,0.036-0.07,0.038-0.161l0.135-0.636
		l1.944-0.005L161.468,163.539z"/>
</g>
<g>
	<defs>
		<polygon id="SVGID_172_" points="177.245,161.494 177.201,164.556 180.549,164.547 180.593,161.485 		"/>
	</defs>
	<clipPath id="SVGID_48_">
		<use xlink:href="#SVGID_172_"  overflow="visible"/>
	</clipPath>
	<path clip-path="url(#SVGID_48_)" fill="#153F2A" d="M180.26,161.485l-2.565,0.007l-0.273,1.492l0.412,0.089
		c0,0,0.363-0.15,0.857-0.151c0.648-0.002,1.149,0.253,1.143,0.617c-0.005,0.368-0.521,0.61-1.115,0.612
		c-0.72,0.002-1.111-0.323-1.111-0.323l-0.401,0.311c0,0,0.507,0.415,1.542,0.413c1.035-0.003,1.806-0.438,1.814-1.021
		c0.008-0.54-0.678-0.981-1.749-0.979c-0.378,0.001-0.659,0.098-0.659,0.098h-0.018c0,0,0.037-0.069,0.039-0.155l0.135-0.636
		l1.944-0.005L180.26,161.485z"/>
</g>
</svg>
