<?xml version="1.0" encoding="utf-8"?>
<!-- Generator: Adobe Illustrator 17.1.0, SVG Export Plug-In . SVG Version: 6.00 Build 0)  -->
<!DOCTYPE svg PUBLIC "-//W3C//DTD SVG 1.1//EN" "http://www.w3.org/Graphics/SVG/1.1/DTD/svg11.dtd">
<svg version="1.1" id="Layer_1" xmlns="http://www.w3.org/2000/svg" xmlns:xlink="http://www.w3.org/1999/xlink" x="0px" y="0px"
	 viewBox="0 0 221.5 189.5" enable-background="new 0 0 221.5 189.5" xml:space="preserve">
<polygon fill="#FFFFFF" points="90.417,159.14 68.62,121.386 90.417,83.631 134.012,83.631 155.809,121.386 134.012,159.14 "/>
<g>
	<polygon fill="none" stroke="#153F2A" stroke-width="2" stroke-miterlimit="10" points="90.417,159.14 68.62,121.386 
		90.417,83.631 134.012,83.631 155.809,121.386 134.012,159.14 	"/>
	<path fill="#FFFFFF" d="M110.122,141.172h5.032c0.723,0,1.31,0.587,1.31,1.31v4.874c0,0.724-0.587,1.31-1.31,1.31h-5.032
		c-0.723,0-1.31-0.586-1.31-1.31v-4.874C108.812,141.759,109.399,141.172,110.122,141.172 M110.065,94.105h5.073
		c0.73,0,1.319,0.596,1.31,1.325l-0.435,36.947c-0.008,0.717-0.592,1.294-1.31,1.294h-4.133c-0.716,0-1.3-0.575-1.31-1.292
		l-0.505-36.946C108.745,94.702,109.334,94.105,110.065,94.105"/>
	<path fill="none" stroke="#153F2A" stroke-width="2" stroke-miterlimit="10" d="M110.122,141.172h5.032
		c0.723,0,1.31,0.587,1.31,1.31v4.874c0,0.724-0.587,1.31-1.31,1.31h-5.032c-0.723,0-1.31-0.586-1.31-1.31v-4.874
		C108.812,141.759,109.399,141.172,110.122,141.172z M110.065,94.105h5.073c0.73,0,1.319,0.596,1.31,1.325l-0.435,36.947
		c-0.008,0.717-0.592,1.294-1.31,1.294h-4.133c-0.716,0-1.3-0.575-1.31-1.292l-0.505-36.946
		C108.745,94.702,109.334,94.105,110.065,94.105z"/>
</g>
</svg>
