<?xml version="1.0" encoding="utf-8"?>
<!-- Generator: Adobe Illustrator 17.1.0, SVG Export Plug-In . SVG Version: 6.00 Build 0)  -->
<!DOCTYPE svg PUBLIC "-//W3C//DTD SVG 1.1//EN" "http://www.w3.org/Graphics/SVG/1.1/DTD/svg11.dtd">
<svg version="1.1" id="Layer_1" xmlns="http://www.w3.org/2000/svg" xmlns:xlink="http://www.w3.org/1999/xlink" x="0px" y="0px"
	 viewBox="0 0 221.5 189.5" enable-background="new 0 0 221.5 189.5" xml:space="preserve">
<g>
	<rect x="121.859" y="98.43" fill="#153F2A" width="8.465" height="1.72"/>
</g>
<g>
	<rect x="144.978" y="115.316" fill="#153F2A" width="19.092" height="1.72"/>
</g>
<g>
	<rect x="144.978" y="117.876" fill="#153F2A" width="19.092" height="1.72"/>
</g>
<g>
	<rect x="144.978" y="120.437" fill="#153F2A" width="19.092" height="1.72"/>
</g>
<g>
	<g>
		<path fill="#FFFFFF" d="M161.551,148.534H62.923c-0.992,0-1.797-0.869-1.797-1.941V97.694c0-1.072,0.805-1.941,1.797-1.941h98.628
			c0.992,0,1.797,0.869,1.797,1.941v48.899C163.348,147.665,162.543,148.534,161.551,148.534"/>
	</g>
	<g>
		<path fill="#153F2A" d="M161.551,149.534H62.923c-1.542,0-2.797-1.319-2.797-2.941V97.693c0-1.621,1.255-2.94,2.797-2.94h98.628
			c1.542,0,2.797,1.319,2.797,2.94v48.899C164.348,148.215,163.093,149.534,161.551,149.534z M62.923,96.753
			c-0.439,0-0.797,0.422-0.797,0.94v48.899c0,0.52,0.357,0.941,0.797,0.941h98.628c0.439,0,0.797-0.422,0.797-0.941V97.693
			c0-0.519-0.357-0.94-0.797-0.94H62.923z"/>
	</g>
	<g>
		<path fill="#FFFFFF" d="M77.636,143.339h-7.667c-0.92,0-1.666-0.746-1.666-1.667v-7.666c0-0.921,0.746-1.667,1.666-1.667h7.667
			c0.92,0,1.667,0.746,1.667,1.667v7.666C79.303,142.593,78.556,143.339,77.636,143.339"/>
	</g>
	<g>
		<path fill="#153F2A" d="M77.636,144.34h-7.667c-1.47,0-2.666-1.196-2.666-2.667v-7.666c0-1.471,1.196-2.667,2.666-2.667h7.667
			c1.471,0,2.667,1.196,2.667,2.667v7.666C80.303,143.144,79.106,144.34,77.636,144.34z M69.969,133.34
			c-0.367,0-0.666,0.299-0.666,0.667v7.666c0,0.368,0.299,0.667,0.666,0.667h7.667c0.368,0,0.667-0.299,0.667-0.667v-7.666
			c0-0.368-0.299-0.667-0.667-0.667H69.969z"/>
	</g>
	<g>
		<path fill="#FFFFFF" d="M103.259,143.339h-7.667c-0.92,0-1.666-0.746-1.666-1.667v-7.666c0-0.921,0.746-1.667,1.666-1.667h7.667
			c0.92,0,1.667,0.746,1.667,1.667v7.666C104.926,142.593,104.179,143.339,103.259,143.339"/>
	</g>
	<g>
		<path fill="#153F2A" d="M103.259,144.34h-7.667c-1.47,0-2.666-1.196-2.666-2.667v-7.666c0-1.471,1.196-2.667,2.666-2.667h7.667
			c1.471,0,2.667,1.196,2.667,2.667v7.666C105.926,143.144,104.729,144.34,103.259,144.34z M95.592,133.34
			c-0.367,0-0.666,0.299-0.666,0.667v7.666c0,0.368,0.299,0.667,0.666,0.667h7.667c0.368,0,0.667-0.299,0.667-0.667v-7.666
			c0-0.368-0.299-0.667-0.667-0.667H95.592z"/>
	</g>
	<g>
		<path fill="#FFFFFF" d="M128.882,143.339h-7.667c-0.92,0-1.666-0.746-1.666-1.667v-7.666c0-0.921,0.746-1.667,1.666-1.667h7.667
			c0.92,0,1.667,0.746,1.667,1.667v7.666C130.549,142.593,129.802,143.339,128.882,143.339"/>
	</g>
	<g>
		<path fill="#153F2A" d="M128.882,144.34h-7.667c-1.47,0-2.666-1.196-2.666-2.667v-7.666c0-1.471,1.196-2.667,2.666-2.667h7.667
			c1.471,0,2.667,1.196,2.667,2.667v7.666C131.549,143.144,130.353,144.34,128.882,144.34z M121.215,133.34
			c-0.367,0-0.666,0.299-0.666,0.667v7.666c0,0.368,0.299,0.667,0.666,0.667h7.667c0.368,0,0.667-0.299,0.667-0.667v-7.666
			c0-0.368-0.299-0.667-0.667-0.667H121.215z"/>
	</g>
	<g>
		<path fill="#FFFFFF" d="M154.505,143.339h-7.667c-0.92,0-1.666-0.746-1.666-1.667v-7.666c0-0.921,0.746-1.667,1.666-1.667h7.667
			c0.92,0,1.667,0.746,1.667,1.667v7.666C156.172,142.593,155.425,143.339,154.505,143.339"/>
	</g>
	<g>
		<path fill="#153F2A" d="M154.505,144.34h-7.667c-1.47,0-2.666-1.196-2.666-2.667v-7.666c0-1.471,1.196-2.667,2.666-2.667h7.667
			c1.471,0,2.667,1.196,2.667,2.667v7.666C157.172,143.144,155.976,144.34,154.505,144.34z M146.838,133.34
			c-0.367,0-0.666,0.299-0.666,0.667v7.666c0,0.368,0.299,0.667,0.666,0.667h7.667c0.368,0,0.667-0.299,0.667-0.667v-7.666
			c0-0.368-0.299-0.667-0.667-0.667H146.838z"/>
	</g>
	<g>
		<path fill="#FFFFFF" d="M155.125,122.098h-51.728c-0.688,0-1.245-0.597-1.245-1.333v-15.637c0-0.737,0.557-1.334,1.245-1.334
			h51.728c0.687,0,1.245,0.597,1.245,1.334v15.637C156.37,121.501,155.812,122.098,155.125,122.098"/>
	</g>
	<g>
		<path fill="#153F2A" d="M155.125,123.099h-51.728c-1.238,0-2.245-1.047-2.245-2.333v-15.638c0-1.287,1.007-2.334,2.245-2.334
			h51.728c1.238,0,2.245,1.047,2.245,2.334v15.638C157.37,122.052,156.363,123.099,155.125,123.099z M103.397,104.794
			c-0.116,0-0.245,0.137-0.245,0.334v15.638c0,0.196,0.129,0.333,0.245,0.333h51.728c0.116,0,0.245-0.137,0.245-0.333v-15.638
			c0-0.197-0.129-0.334-0.245-0.334H103.397z"/>
	</g>
</g>
<g>
	<path fill="#153F2A" d="M111.027,116.422h1.871v-5.469c0-0.265,0.012-0.528,0.012-0.528h-0.023c0,0-0.097,0.192-0.408,0.492
		l-0.792,0.779l-0.72-0.743l2.027-1.968h1.055v7.437h1.848v1.031h-4.869V116.422z"/>
	<path fill="#153F2A" d="M117.352,115.546c0,0,0.827,0.924,2.051,0.924c0.947,0,1.727-0.636,1.727-1.547
		c0-1.044-0.924-1.56-1.967-1.56h-0.588l-0.275-0.636l1.847-2.171c0.276-0.323,0.528-0.552,0.528-0.552v-0.023
		c0,0-0.252,0.036-0.721,0.036h-2.866v-1.032h5.062v0.756l-2.303,2.65c1.115,0.12,2.482,0.84,2.482,2.483
		c0,1.451-1.139,2.722-2.879,2.722c-1.727,0-2.746-1.151-2.746-1.151L117.352,115.546z"/>
</g>
<g>
	<path fill="#153F2A" d="M123.783,113.207c0-2.435,0.731-4.365,2.986-4.365c2.267,0,2.998,1.931,2.998,4.365
		c0,2.447-0.731,4.39-2.998,4.39C124.515,117.597,123.783,115.654,123.783,113.207z M128.557,113.207
		c0-1.835-0.396-3.273-1.787-3.273c-1.379,0-1.775,1.438-1.775,3.273c0,1.848,0.396,3.299,1.775,3.299
		C128.16,116.506,128.557,115.055,128.557,113.207z"/>
	<path fill="#153F2A" d="M131.439,116.218h1.223v1.235h-1.223V116.218z"/>
</g>
<g>
	<path fill="#153F2A" d="M133.923,113.207c0-2.435,0.731-4.365,2.986-4.365c2.267,0,2.999,1.931,2.999,4.365
		c0,2.447-0.732,4.39-2.999,4.39C134.654,117.597,133.923,115.654,133.923,113.207z M138.696,113.207
		c0-1.835-0.396-3.273-1.787-3.273c-1.379,0-1.774,1.438-1.774,3.273c0,1.848,0.396,3.299,1.774,3.299
		C138.301,116.506,138.696,115.055,138.696,113.207z"/>
	<path fill="#153F2A" d="M141.423,113.207c0-2.435,0.731-4.365,2.986-4.365c2.267,0,2.999,1.931,2.999,4.365
		c0,2.447-0.732,4.39-2.999,4.39C142.154,117.597,141.423,115.654,141.423,113.207z M146.196,113.207
		c0-1.835-0.396-3.273-1.787-3.273c-1.379,0-1.774,1.438-1.774,3.273c0,1.848,0.396,3.299,1.774,3.299
		C145.801,116.506,146.196,115.055,146.196,113.207z"/>
</g>
<g>
	<path fill="#153F2A" d="M68.318,108.985h4.666v1.032h-3.479v2.782h2.963v1.031h-2.963v3.622h-1.188V108.985z"/>
	<path fill="#153F2A" d="M78.769,115.019h-3.19l-0.84,2.435h-1.223l3.046-8.468h1.247l3.047,8.468H79.62L78.769,115.019z
		 M77.174,110.149c0,0-0.192,0.768-0.336,1.199l-0.947,2.687h2.566l-0.936-2.687c-0.145-0.432-0.324-1.199-0.324-1.199H77.174z"/>
</g>
<g>
	<path fill="#153F2A" d="M81.783,108.985h2.59c0.888,0,1.26,0.072,1.584,0.192c0.863,0.324,1.427,1.176,1.427,2.291
		c0,1.079-0.6,1.99-1.523,2.29v0.024c0,0,0.097,0.107,0.252,0.384l1.799,3.286h-1.343l-1.787-3.37h-1.811v3.37h-1.188V108.985z
		 M84.674,113.052c0.923,0,1.498-0.588,1.498-1.535c0-0.624-0.239-1.067-0.672-1.308c-0.227-0.12-0.503-0.191-1.162-0.191h-1.367
		v3.034H84.674z"/>
	<path fill="#153F2A" d="M89.475,108.985h4.918v1.032h-3.73v2.65h3.034v1.031h-3.034v2.723h3.934v1.031h-5.121V108.985z"/>
</g>
</svg>
