<?xml version="1.0" encoding="utf-8"?>
<!-- Generator: Adobe Illustrator 17.1.0, SVG Export Plug-In . SVG Version: 6.00 Build 0)  -->
<!DOCTYPE svg PUBLIC "-//W3C//DTD SVG 1.1//EN" "http://www.w3.org/Graphics/SVG/1.1/DTD/svg11.dtd">
<svg version="1.1" id="Layer_1" xmlns="http://www.w3.org/2000/svg" xmlns:xlink="http://www.w3.org/1999/xlink" x="0px" y="0px"
	 viewBox="0 0 221.5 188" enable-background="new 0 0 221.5 188" xml:space="preserve">
<g>
	<path fill="#FFFFFF" d="M80.239,159.742h-8.341c-1.06,0-1.919-0.851-1.919-1.9v-12.514c0-1.049,0.859-1.899,1.919-1.899h8.341
		c1.06,0,1.919,0.85,1.919,1.899v12.514C82.158,158.891,81.299,159.742,80.239,159.742"/>
	<path fill="none" stroke="#153F2A" stroke-width="2" stroke-miterlimit="10" d="M80.239,159.742h-8.341
		c-1.06,0-1.919-0.851-1.919-1.9v-12.514c0-1.049,0.859-1.899,1.919-1.899h8.341c1.06,0,1.919,0.85,1.919,1.899v12.514
		C82.158,158.891,81.299,159.742,80.239,159.742z"/>
	<path fill="#FFFFFF" d="M150.561,159.172h-8.616c-1.059,0-1.918-0.853-1.918-1.904v-11.366c0-1.051,0.859-1.904,1.918-1.904h8.616
		c1.059,0,1.918,0.853,1.918,1.904v11.366C152.479,158.319,151.62,159.172,150.561,159.172"/>
	<path fill="none" stroke="#153F2A" stroke-width="2" stroke-miterlimit="10" d="M150.561,159.742h-8.616
		c-1.059,0-1.918-0.853-1.918-1.904v-11.366c0-1.051,0.859-1.904,1.918-1.904h8.616c1.059,0,1.918,0.853,1.918,1.904v11.366
		C152.479,158.889,151.62,159.742,150.561,159.742z"/>
	<path fill="#FFFFFF" d="M71.576,118.982H60.643c-0.854,0-1.546-0.714-1.546-1.596v-4.139c0-0.881,0.692-1.596,1.546-1.596h10.933
		c0.853,0,1.545,0.715,1.545,1.596v4.139C73.121,118.268,72.429,118.982,71.576,118.982"/>
	<path fill="none" stroke="#153F2A" stroke-width="2" stroke-miterlimit="10" d="M71.576,118.982H60.643
		c-0.854,0-1.546-0.714-1.546-1.596v-4.139c0-0.881,0.692-1.596,1.546-1.596h10.933c0.853,0,1.545,0.715,1.545,1.596v4.139
		C73.121,118.268,72.429,118.982,71.576,118.982z"/>
	<path fill="#FFFFFF" d="M161.815,118.982h-10.933c-0.854,0-1.546-0.714-1.546-1.596v-4.139c0-0.881,0.692-1.596,1.546-1.596h10.933
		c0.854,0,1.545,0.715,1.545,1.596v4.139C163.36,118.268,162.669,118.982,161.815,118.982"/>
	<path fill="none" stroke="#153F2A" stroke-width="2" stroke-miterlimit="10" d="M161.815,118.982h-10.933
		c-0.854,0-1.546-0.714-1.546-1.596v-4.139c0-0.881,0.692-1.596,1.546-1.596h10.933c0.854,0,1.545,0.715,1.545,1.596v4.139
		C163.36,118.268,162.669,118.982,161.815,118.982z"/>
	<path fill="#FFFFFF" d="M77.882,117.527l3.675-14.475c0.355-1.395,1.568-2.367,2.956-2.367h9.894h35.11h9.894
		c1.418,0,2.65,1.015,2.975,2.45l3.279,14.475c0.152,0.671,0.084,1.328-0.145,1.907H78.011
		C77.771,118.913,77.705,118.225,77.882,117.527 M152.55,119.517h-0.067c-1.061,0-1.508-3.28-1.648-3.9l-4.455-19.666
		c-0.441-1.95-2.115-3.328-4.041-3.328H81.194c-1.885,0-3.534,1.321-4.015,3.216l-4.993,19.666c-0.143,0.564-0.98,4.012-2.206,4.012
		h-0.073c-2.228,0-4.033,1.877-4.033,4.193v20.943c0,2.316,1.805,4.193,4.033,4.193c0,0,24.987,3.007,41.321,3.007
		s41.322-3.007,41.322-3.007c2.227,0,4.033-1.877,4.033-4.193V123.71C156.583,121.394,154.777,119.517,152.55,119.517"/>
	<path fill="none" stroke="#153F2A" stroke-width="2" stroke-miterlimit="10" d="M77.882,117.527l3.675-14.475
		c0.355-1.395,1.568-2.367,2.956-2.367h9.894h35.11h9.894c1.418,0,2.65,1.015,2.975,2.45l3.279,14.475
		c0.152,0.671,0.084,1.328-0.145,1.907H78.011C77.771,118.913,77.705,118.225,77.882,117.527z M152.55,119.517h-0.067
		c-1.061,0-1.508-3.28-1.648-3.9l-4.455-19.666c-0.441-1.95-2.115-3.328-4.041-3.328H81.194c-1.885,0-3.534,1.321-4.015,3.216
		l-4.993,19.666c-0.143,0.564-0.98,4.012-2.206,4.012h-0.073c-2.228,0-4.033,1.877-4.033,4.193v20.943
		c0,2.316,1.805,4.193,4.033,4.193c0,0,24.987,3.007,41.321,3.007s41.322-3.007,41.322-3.007c2.227,0,4.033-1.877,4.033-4.193
		V123.71C156.583,121.394,154.777,119.517,152.55,119.517z"/>
	<path fill="#FFFFFF" d="M87.928,130.331c0,3.138-2.544,5.681-5.681,5.681c-3.138,0-5.681-2.543-5.681-5.681
		c0-3.138,2.543-5.681,5.681-5.681C85.384,124.65,87.928,127.193,87.928,130.331"/>
	<circle fill="none" stroke="#153F2A" stroke-width="2" stroke-miterlimit="10" cx="82.247" cy="130.331" r="5.681"/>
	<path fill="#FFFFFF" d="M145.892,130.331c0,3.138-2.544,5.681-5.681,5.681c-3.138,0-5.681-2.543-5.681-5.681
		c0-3.138,2.543-5.681,5.681-5.681C143.348,124.65,145.892,127.193,145.892,130.331"/>
	<circle fill="none" stroke="#153F2A" stroke-width="2" stroke-miterlimit="10" cx="140.211" cy="130.331" r="5.681"/>
</g>
<line fill="none" stroke="#153F2A" stroke-width="2" stroke-miterlimit="10" x1="96.942" y1="130.393" x2="125.516" y2="130.393"/>
<line fill="none" stroke="#153F2A" stroke-width="2" stroke-miterlimit="10" x1="96.942" y1="134.249" x2="125.516" y2="134.249"/>
<line fill="none" stroke="#153F2A" stroke-width="2" stroke-miterlimit="10" x1="96.942" y1="138.105" x2="125.516" y2="138.105"/>
<g>
	<path fill="#FFFFFF" d="M119.57,87.656h-16.682c-1.358,0-2.459-1.15-2.459-2.568v-2.282c0-1.419,1.101-2.568,2.459-2.568h16.682
		c1.358,0,2.459,1.149,2.459,2.568v2.282C122.029,86.506,120.928,87.656,119.57,87.656"/>
	<path fill="none" stroke="#153F2A" stroke-width="2" stroke-miterlimit="10" d="M119.57,87.656h-16.682
		c-1.358,0-2.459-1.15-2.459-2.568v-2.282c0-1.419,1.101-2.568,2.459-2.568h16.682c1.358,0,2.459,1.149,2.459,2.568v2.282
		C122.029,86.506,120.928,87.656,119.57,87.656z"/>
</g>
</svg>
