<?xml version="1.0" encoding="utf-8"?>
<!-- Generator: Adobe Illustrator 17.1.0, SVG Export Plug-In . SVG Version: 6.00 Build 0)  -->
<!DOCTYPE svg PUBLIC "-//W3C//DTD SVG 1.1//EN" "http://www.w3.org/Graphics/SVG/1.1/DTD/svg11.dtd">
<svg version="1.1" id="Layer_1" xmlns="http://www.w3.org/2000/svg" xmlns:xlink="http://www.w3.org/1999/xlink" x="0px" y="0px" width="37px" height="37px"
	 viewBox="0 0 29.5 29.5" enable-background="new 0 0 29.5 29.5" xml:space="preserve">
<g>
	<g>
		<path fill="#FFFFFF" d="M14.75,24.07c-0.846,0-1.582-0.228-1.92-0.596c-0.087-0.094-0.109-0.23-0.058-0.347
			c0.052-0.118,0.168-0.195,0.297-0.195h3.363c0.129,0,0.245,0.076,0.297,0.195c0.051,0.117,0.029,0.253-0.058,0.347
			C16.332,23.842,15.596,24.07,14.75,24.07z M13.306,23.34c0.286,0.176,0.789,0.324,1.444,0.324c0.655,0,1.158-0.147,1.444-0.324
			H13.306z"/>
	</g>
	<g>
		<path fill="#FFFFFF" d="M16.753,21.362h-4.006c-0.341,0-0.618-0.277-0.618-0.618c0-0.341,0.277-0.618,0.618-0.618h4.006
			c0.341,0,0.618,0.277,0.618,0.618C17.371,21.084,17.094,21.362,16.753,21.362z M12.747,20.532c-0.117,0-0.212,0.095-0.212,0.211
			c0,0.117,0.095,0.212,0.212,0.212h4.006c0.116,0,0.211-0.095,0.211-0.212c0-0.116-0.095-0.211-0.211-0.211H12.747z"/>
	</g>
	<g>
		<path fill="#FFFFFF" d="M16.753,22.741h-4.006c-0.341,0-0.618-0.277-0.618-0.618c0-0.341,0.277-0.618,0.618-0.618h4.006
			c0.341,0,0.618,0.277,0.618,0.618C17.371,22.463,17.094,22.741,16.753,22.741z M12.747,21.911c-0.117,0-0.212,0.095-0.212,0.211
			c0,0.117,0.095,0.212,0.212,0.212h4.006c0.116,0,0.211-0.095,0.211-0.212c0-0.116-0.095-0.211-0.211-0.211H12.747z"/>
	</g>
	<g>
		<path fill="#FFFFFF" d="M16.524,19.925L16.524,19.925h-3.547c-0.372,0-0.839-0.205-1.03-0.78c-0.083-0.247-0.163-0.585-0.24-0.912
			c-0.078-0.328-0.195-0.823-0.261-0.934c-0.039-0.061-0.085-0.14-0.139-0.232c-0.166-0.287-0.417-0.721-0.803-1.12
			c-0.581-0.602-1.18-1.742-1.308-2.49c-0.138-0.803-0.28-2.341,0.315-3.622c0.54-1.161,1.573-2.645,3.431-3.122
			c0.79-0.203,1.297-0.282,1.808-0.282c0.511,0,1.017,0.079,1.808,0.282c1.858,0.477,2.892,1.961,3.432,3.122
			c0.595,1.279,0.453,2.818,0.315,3.622c-0.129,0.749-0.728,1.889-1.308,2.49c-0.386,0.399-0.637,0.833-0.803,1.12
			c-0.054,0.093-0.1,0.172-0.14,0.234c-0.065,0.11-0.183,0.604-0.261,0.932c-0.077,0.327-0.158,0.665-0.241,0.913
			C17.362,19.72,16.896,19.925,16.524,19.925z M14.75,19.11l1.781,0.003l-0.007-0.001c0.184,0,0.24-0.169,0.259-0.224
			c0.071-0.213,0.147-0.534,0.22-0.843c0.143-0.602,0.237-0.981,0.368-1.185c0.034-0.053,0.073-0.122,0.12-0.201
			c0.186-0.321,0.467-0.807,0.922-1.278c0.469-0.486,0.989-1.469,1.091-2.062c0.122-0.71,0.25-2.062-0.251-3.141
			c-0.466-1.002-1.347-2.279-2.897-2.677c-0.718-0.185-1.169-0.257-1.605-0.257c-0.436,0-0.887,0.072-1.605,0.257
			c-1.55,0.398-2.431,1.675-2.897,2.677c-0.503,1.08-0.373,2.431-0.251,3.141c0.102,0.593,0.622,1.576,1.091,2.063
			c0.455,0.471,0.736,0.957,0.922,1.278c0.046,0.079,0.085,0.148,0.119,0.201c0.131,0.203,0.225,0.583,0.368,1.185
			c0.073,0.31,0.149,0.63,0.22,0.843c0.018,0.055,0.075,0.224,0.259,0.224L14.75,19.11z"/>
	</g>
</g>
</svg>
