<?xml version="1.0" encoding="utf-8"?>
<!-- Generator: Adobe Illustrator 17.1.0, SVG Export Plug-In . SVG Version: 6.00 Build 0)  -->
<!DOCTYPE svg PUBLIC "-//W3C//DTD SVG 1.1//EN" "http://www.w3.org/Graphics/SVG/1.1/DTD/svg11.dtd">
<svg version="1.1" id="Layer_1" xmlns="http://www.w3.org/2000/svg" xmlns:xlink="http://www.w3.org/1999/xlink" x="0px" y="0px"
	 viewBox="0 0 221.5 189.5" enable-background="new 0 0 221.5 189.5" xml:space="preserve">
<g>
	<defs>
		<rect id="SVGID_30_" x="-0.493" y="77.681" width="191.489" height="113.311"/>
	</defs>
	<clipPath id="SVGID_38_">
		<use xlink:href="#SVGID_30_"  overflow="visible"/>
	</clipPath>
	<path clip-path="url(#SVGID_38_)" fill="#FFFFFF" d="M154.039,134.852H45.245L33.7,144.916c-1.284,1.12-3.292,0.21-3.292-1.49
		v-8.574V81.193c0-1.093,0.889-1.979,1.985-1.979h121.646c1.381,0,2.501,1.116,2.501,2.494v50.649
		C156.54,133.735,155.42,134.852,154.039,134.852"/>
	<path clip-path="url(#SVGID_38_)" fill="#153F2A" d="M32.393,80.747c-0.246,0-0.447,0.201-0.447,0.446v62.234
		c0,0.131,0.042,0.236,0.13,0.319c0.165,0.155,0.423,0.184,0.611,0.016l11.981-10.443h109.37c0.532,0,0.964-0.431,0.964-0.961
		V81.709c0-0.531-0.432-0.962-0.964-0.962H32.393z M32.405,146.944c-0.895,0-1.782-0.352-2.437-0.966
		c-0.707-0.663-1.098-1.569-1.098-2.551V81.193c0-1.937,1.58-3.513,3.523-3.513h121.645c2.227,0,4.039,1.808,4.039,4.029v50.649
		c0,2.22-1.812,4.028-4.039,4.028H45.821l-11.11,9.685C34.067,146.633,33.247,146.943,32.405,146.944"/>
</g>
<polygon fill="#153F2A" points="50.427,102.099 45.965,102.099 45.965,100.516 56.715,100.516 56.715,102.099 52.253,102.099 
	52.253,113.5 50.427,113.5 "/>
<g>
	<defs>
		<rect id="SVGID_29_" x="-0.493" y="77.681" width="191.489" height="113.311"/>
	</defs>
	<clipPath id="SVGID_39_">
		<use xlink:href="#SVGID_29_"  overflow="visible"/>
	</clipPath>
	<path clip-path="url(#SVGID_39_)" fill="#153F2A" d="M58.216,100.516h1.788v4.763c0,0.442-0.037,0.773-0.037,0.773h0.037
		c0.406-0.901,1.586-2.078,3.449-2.078c2.194,0,3.207,1.196,3.207,3.568v5.958h-1.788v-5.554c0-1.305-0.276-2.336-1.77-2.336
		c-1.401,0-2.563,0.957-2.951,2.3c-0.111,0.367-0.147,0.791-0.147,1.231v4.359h-1.788V100.516z"/>
	<path clip-path="url(#SVGID_39_)" fill="#153F2A" d="M72.144,112.286c1.512,0,2.489-1.581,2.489-2.96v-0.294h-0.461
		c-1.347,0-3.781,0.091-3.781,1.766C70.391,111.551,70.981,112.286,72.144,112.286 M74.208,107.689h0.407v-0.165
		c0-1.527-0.868-2.042-2.048-2.042c-1.438,0-2.599,0.901-2.599,0.901l-0.739-1.306c0,0,1.347-1.103,3.487-1.103
		c2.36,0,3.687,1.288,3.687,3.642v5.885h-1.659v-0.883c0-0.423,0.036-0.736,0.036-0.736h-0.036c0,0-0.757,1.839-2.988,1.839
		c-1.603,0-3.171-0.975-3.171-2.832C68.585,107.818,72.64,107.689,74.208,107.689"/>
	<path clip-path="url(#SVGID_39_)" fill="#153F2A" d="M79.083,104.195h1.733v1.232c0,0.367-0.036,0.68-0.036,0.68h0.036
		c0.369-0.808,1.476-2.134,3.504-2.134c2.194,0,3.207,1.197,3.207,3.569v5.958h-1.788v-5.554c0-1.306-0.276-2.336-1.77-2.336
		c-1.419,0-2.563,0.939-2.951,2.281c-0.111,0.368-0.147,0.79-0.147,1.25v4.359h-1.788V104.195z"/>
</g>
<polygon fill="#153F2A" points="90.208,100.516 91.996,100.516 91.996,107.615 93.306,107.615 95.851,104.195 97.879,104.195 
	94.781,108.295 94.781,108.333 98.229,113.5 96.146,113.5 93.343,109.123 91.996,109.123 91.996,113.5 90.208,113.5 "/>
<g>
	<defs>
		<rect id="SVGID_28_" x="-0.493" y="77.681" width="191.489" height="113.311"/>
	</defs>
	<clipPath id="SVGID_40_">
		<use xlink:href="#SVGID_28_"  overflow="visible"/>
	</clipPath>
	<path clip-path="url(#SVGID_40_)" fill="#153F2A" d="M103.972,115.432c0,0,0.516,0.385,1.087,0.385c0.719,0,1.329-0.514,1.679-1.36
		l0.461-1.067l-3.91-9.195h2.01l2.343,6.087c0.184,0.478,0.349,1.122,0.349,1.122h0.038c0,0,0.147-0.626,0.312-1.104l2.269-6.105
		h1.937l-4.371,10.979c-0.572,1.435-1.714,2.188-3.024,2.188c-1.051,0-1.808-0.57-1.808-0.57L103.972,115.432z"/>
	<path clip-path="url(#SVGID_40_)" fill="#153F2A" d="M118.416,112.176c1.77,0,3.207-1.399,3.207-3.347
		c0-1.931-1.437-3.311-3.207-3.311c-1.752,0-3.209,1.38-3.209,3.311C115.207,110.777,116.664,112.176,118.416,112.176
		 M118.416,103.973c2.784,0,5.033,2.042,5.033,4.856c0,2.832-2.249,4.891-5.033,4.891c-2.785,0-5.034-2.059-5.034-4.891
		C113.382,106.015,115.631,103.973,118.416,103.973"/>
	<path clip-path="url(#SVGID_40_)" fill="#153F2A" d="M125.447,104.195h1.788v5.554c0,1.286,0.259,2.316,1.752,2.316
		c1.9,0,3.024-1.674,3.024-3.512v-4.358h1.789v9.305h-1.733v-1.232c0-0.387,0.036-0.68,0.036-0.68h-0.036
		c-0.387,0.919-1.605,2.132-3.431,2.132c-2.102,0-3.189-1.102-3.189-3.567V104.195z"/>
</g>
<path fill="#153F2A" d="M137.235,111.717h1.826v1.783h-1.826V111.717z M137.217,100.516h1.844l-0.111,9.416h-1.604L137.217,100.516z
	"/>
<g>
	<defs>
		<rect id="SVGID_26_" x="-0.493" y="77.681" width="191.489" height="113.311"/>
	</defs>
	<clipPath id="SVGID_41_">
		<use xlink:href="#SVGID_26_"  overflow="visible"/>
	</clipPath>
	<path clip-path="url(#SVGID_41_)" fill="#FFFFFF" d="M152.817,154.127v4.111c0,2.27,5.153,4.11,11.51,4.11s11.51-1.84,11.51-4.11
		v-4.111H152.817z"/>
	<path clip-path="url(#SVGID_41_)" fill="none" stroke="#153F2A" stroke-width="2" stroke-miterlimit="10" d="M152.817,154.127
		v4.111c0,2.27,5.153,4.11,11.51,4.11s11.51-1.84,11.51-4.11v-4.111H152.817z"/>
	<path clip-path="url(#SVGID_41_)" fill="#FFFFFF" d="M175.837,154.127c0,2.27-5.153,4.111-11.51,4.111
		c-6.357,0-11.51-1.841-11.51-4.111c0-2.27,5.153-4.111,11.51-4.111C170.684,150.016,175.837,151.857,175.837,154.127"/>
	
		<ellipse clip-path="url(#SVGID_41_)" fill="none" stroke="#153F2A" stroke-width="2" stroke-miterlimit="10" cx="164.327" cy="154.127" rx="11.51" ry="4.111"/>
	<path clip-path="url(#SVGID_41_)" fill="#FFFFFF" d="M148.185,164.28v4.111c0,2.27,5.153,4.11,11.51,4.11s11.51-1.84,11.51-4.11
		v-4.111H148.185z"/>
	<path clip-path="url(#SVGID_41_)" fill="none" stroke="#153F2A" stroke-width="2" stroke-miterlimit="10" d="M148.185,164.28v4.111
		c0,2.27,5.153,4.11,11.51,4.11s11.51-1.84,11.51-4.11v-4.111H148.185z"/>
	<path clip-path="url(#SVGID_41_)" fill="#FFFFFF" d="M171.205,164.28c0,2.27-5.153,4.111-11.51,4.111
		c-6.357,0-11.51-1.841-11.51-4.111c0-2.27,5.153-4.111,11.51-4.111C166.052,160.169,171.205,162.01,171.205,164.28"/>
	
		<ellipse clip-path="url(#SVGID_41_)" fill="none" stroke="#153F2A" stroke-width="2" stroke-miterlimit="10" cx="159.695" cy="164.28" rx="11.51" ry="4.111"/>
	<path clip-path="url(#SVGID_41_)" fill="#FFFFFF" d="M166.976,162.224v4.111c0,2.27,5.153,4.11,11.51,4.11s11.51-1.84,11.51-4.11
		v-4.111H166.976z"/>
	<path clip-path="url(#SVGID_41_)" fill="none" stroke="#153F2A" stroke-width="2" stroke-miterlimit="10" d="M166.976,162.224
		v4.111c0,2.27,5.153,4.11,11.51,4.11s11.51-1.84,11.51-4.11v-4.111H166.976z"/>
	<path clip-path="url(#SVGID_41_)" fill="#FFFFFF" d="M189.996,162.224c0,2.27-5.153,4.111-11.51,4.111
		c-6.357,0-11.51-1.841-11.51-4.111c0-2.27,5.153-4.111,11.51-4.111C184.843,158.113,189.996,159.954,189.996,162.224"/>
	
		<ellipse clip-path="url(#SVGID_41_)" fill="none" stroke="#153F2A" stroke-width="2" stroke-miterlimit="10" cx="178.486" cy="162.224" rx="11.51" ry="4.111"/>
</g>
<g>
	<defs>
		<polygon id="SVGID_24_" points="162.691,152.54 162.646,155.609 165.994,155.599 166.038,152.531 		"/>
	</defs>
	<clipPath id="SVGID_42_">
		<use xlink:href="#SVGID_24_"  overflow="visible"/>
	</clipPath>
	<path clip-path="url(#SVGID_42_)" fill="#153F2A" d="M165.697,152.532l-2.556,0.007l-0.273,1.497l0.412,0.09
		c0,0,0.362-0.151,0.857-0.152c0.648-0.002,1.149,0.253,1.144,0.611c-0.006,0.369-0.522,0.617-1.125,0.618
		c-0.711,0.002-1.102-0.323-1.102-0.323l-0.401,0.306c0,0,0.498,0.421,1.542,0.418c1.026-0.003,1.806-0.443,1.814-1.02
		c0.008-0.546-0.687-0.982-1.758-0.979c-0.369,0.001-0.65,0.098-0.65,0.098h-0.018c0,0,0.028-0.07,0.039-0.161l0.135-0.636
		l1.935-0.005L165.697,152.532z"/>
</g>
<g>
	<defs>
		<polygon id="SVGID_25_" points="158.055,162.692 158.011,165.76 161.359,165.752 161.403,162.683 		"/>
	</defs>
	<clipPath id="SVGID_44_">
		<use xlink:href="#SVGID_25_"  overflow="visible"/>
	</clipPath>
	<path clip-path="url(#SVGID_44_)" fill="#153F2A" d="M161.071,162.684l-2.565,0.007l-0.273,1.497l0.412,0.09
		c0,0,0.363-0.151,0.858-0.152c0.656-0.002,1.148,0.253,1.142,0.611c-0.005,0.369-0.521,0.617-1.115,0.618
		c-0.72,0.002-1.111-0.323-1.111-0.323l-0.401,0.306c0,0,0.507,0.421,1.551,0.418c1.026-0.003,1.797-0.443,1.805-1.02
		c0.008-0.546-0.678-0.982-1.749-0.979c-0.378,0.001-0.658,0.098-0.658,0.098h-0.018c0,0,0.036-0.07,0.038-0.161l0.135-0.636
		l1.944-0.005L161.071,162.684z"/>
</g>
<g>
	<defs>
		<polygon id="SVGID_27_" points="176.847,160.639 176.803,163.701 180.151,163.692 180.195,160.63 		"/>
	</defs>
	<clipPath id="SVGID_45_">
		<use xlink:href="#SVGID_27_"  overflow="visible"/>
	</clipPath>
	<path clip-path="url(#SVGID_45_)" fill="#153F2A" d="M179.863,160.63l-2.565,0.007l-0.273,1.492l0.412,0.089
		c0,0,0.363-0.15,0.857-0.151c0.648-0.002,1.149,0.253,1.143,0.617c-0.005,0.368-0.521,0.61-1.115,0.612
		c-0.72,0.002-1.111-0.323-1.111-0.323l-0.401,0.311c0,0,0.507,0.415,1.542,0.413c1.035-0.003,1.806-0.438,1.814-1.021
		c0.008-0.54-0.678-0.981-1.749-0.979c-0.378,0.001-0.659,0.098-0.659,0.098h-0.018c0,0,0.037-0.069,0.039-0.155l0.135-0.636
		l1.944-0.005L179.863,160.63z"/>
</g>
</svg>
