<?xml version="1.0" encoding="utf-8"?>
<!-- Generator: Adobe Illustrator 17.1.0, SVG Export Plug-In . SVG Version: 6.00 Build 0)  -->
<!DOCTYPE svg PUBLIC "-//W3C//DTD SVG 1.1//EN" "http://www.w3.org/Graphics/SVG/1.1/DTD/svg11.dtd">
<svg version="1.1" id="Layer_1" xmlns="http://www.w3.org/2000/svg" xmlns:xlink="http://www.w3.org/1999/xlink" x="0px" y="0px"
	 viewBox="0 0 221.5 189.5" enable-background="new 0 0 221.5 189.5" xml:space="preserve">
<g>
	<defs>
		<rect id="SVGID_22_" x="0.566" y="77.208" width="156.39" height="113.298"/>
	</defs>
	<clipPath id="SVGID_38_">
		<use xlink:href="#SVGID_22_"  overflow="visible"/>
	</clipPath>
	<path clip-path="url(#SVGID_38_)" fill="#FFFFFF" d="M152.938,134.37H44.123l-11.545,10.062c-1.284,1.119-3.292,0.21-3.292-1.49
		v-8.572V80.722c0-1.094,0.889-1.98,1.985-1.98h121.667c1.37,0,2.481,1.108,2.481,2.474v50.68
		C155.419,133.262,154.308,134.37,152.938,134.37"/>
	<path clip-path="url(#SVGID_38_)" fill="#153F2A" d="M31.271,80.275c-0.247,0-0.447,0.2-0.447,0.446v62.22
		c0,0.134,0.042,0.237,0.129,0.319c0.165,0.154,0.422,0.181,0.613,0.018l11.98-10.442h109.391c0.521,0,0.943-0.423,0.943-0.941
		v-50.68c0-0.518-0.422-0.94-0.943-0.94H31.271z M31.283,146.458c-0.895,0-1.782-0.352-2.436-0.964
		c-0.708-0.665-1.098-1.571-1.098-2.553v-62.22c0-1.938,1.58-3.513,3.522-3.513h121.666c2.216,0,4.019,1.797,4.019,4.007v50.68
		c0,2.21-1.803,4.007-4.019,4.007H44.7l-11.111,9.685C32.944,146.148,32.125,146.458,31.283,146.458"/>
	<path clip-path="url(#SVGID_38_)" fill="#153F2A" d="M63.189,106.641c1.568,0,2.527-0.973,2.527-2.536
		c0-1.563-0.959-2.482-2.508-2.482h-2.655v5.018H63.189z M58.727,100.04h4.758c2.379,0,4.093,1.6,4.093,4.065
		c0,2.462-1.714,4.118-4.093,4.118h-2.932v4.799h-1.826V100.04z"/>
	<path clip-path="url(#SVGID_38_)" fill="#153F2A" d="M72.361,111.807c1.512,0,2.489-1.581,2.489-2.96v-0.293h-0.461
		c-1.346,0-3.78,0.091-3.78,1.765C70.609,111.072,71.199,111.807,72.361,111.807 M74.426,107.211h0.406v-0.165
		c0-1.527-0.867-2.042-2.047-2.042c-1.439,0-2.6,0.902-2.6,0.902l-0.738-1.306c0,0,1.346-1.103,3.486-1.103
		c2.36,0,3.687,1.287,3.687,3.641v5.883h-1.659v-0.883c0-0.422,0.037-0.735,0.037-0.735h-0.037c0,0-0.757,1.838-2.988,1.838
		c-1.603,0-3.171-0.974-3.171-2.831C68.802,107.34,72.858,107.211,74.426,107.211"/>
	<path clip-path="url(#SVGID_38_)" fill="#153F2A" d="M79.299,103.718h1.733v1.617c0,0.386-0.037,0.699-0.037,0.699h0.037
		c0.425-1.361,1.512-2.427,2.951-2.427c0.239,0,0.461,0.038,0.461,0.038v1.765c0,0-0.24-0.056-0.517-0.056
		c-1.143,0-2.194,0.809-2.618,2.188c-0.166,0.533-0.222,1.103-0.222,1.673v3.806h-1.788V103.718z"/>
	<path clip-path="url(#SVGID_38_)" fill="#153F2A" d="M89.021,111.807c1.512,0,2.489-1.581,2.489-2.96v-0.293h-0.461
		c-1.346,0-3.78,0.091-3.78,1.765C87.269,111.072,87.859,111.807,89.021,111.807 M91.086,107.211h0.406v-0.165
		c0-1.527-0.867-2.042-2.047-2.042c-1.439,0-2.6,0.902-2.6,0.902l-0.738-1.306c0,0,1.346-1.103,3.486-1.103
		c2.36,0,3.687,1.287,3.687,3.641v5.883h-1.659v-0.883c0-0.422,0.037-0.735,0.037-0.735h-0.037c0,0-0.756,1.838-2.988,1.838
		c-1.603,0-3.171-0.974-3.171-2.831C85.462,107.34,89.518,107.211,91.086,107.211"/>
	<path clip-path="url(#SVGID_38_)" fill="#153F2A" d="M105.071,111.716c1.475,0,2.692-1.215,2.692-3.328
		c0-2.023-1.088-3.329-2.636-3.329c-1.402,0-2.692,0.975-2.692,3.346C102.435,110.061,103.356,111.716,105.071,111.716
		 M100.701,103.718h1.641v0.791c0,0.366-0.037,0.679-0.037,0.679h0.037c0,0,0.793-1.692,3.135-1.692
		c2.508,0,4.093,1.987,4.093,4.874c0,2.959-1.788,4.871-4.223,4.871c-2.046,0-2.858-1.525-2.858-1.525h-0.036
		c0,0,0.036,0.33,0.036,0.808v4.174h-1.788V103.718z"/>
	<path clip-path="url(#SVGID_38_)" fill="#153F2A" d="M116.122,111.698c1.77,0,3.209-1.398,3.209-3.346
		c0-1.931-1.439-3.31-3.209-3.31c-1.752,0-3.208,1.379-3.208,3.31C112.914,110.3,114.37,111.698,116.122,111.698 M116.122,103.497
		c2.784,0,5.034,2.042,5.034,4.855c0,2.831-2.25,4.89-5.034,4.89c-2.784,0-5.034-2.059-5.034-4.89
		C111.088,105.539,113.338,103.497,116.122,103.497"/>
</g>
<path fill="#153F2A" d="M123.911,111.239h1.826v1.783h-1.826V111.239z M123.892,100.04h1.845l-0.111,9.414h-1.605L123.892,100.04z"
	/>
</svg>
