<?xml version="1.0" encoding="utf-8"?>
<!-- Generator: Adobe Illustrator 17.1.0, SVG Export Plug-In . SVG Version: 6.00 Build 0)  -->
<!DOCTYPE svg PUBLIC "-//W3C//DTD SVG 1.1//EN" "http://www.w3.org/Graphics/SVG/1.1/DTD/svg11.dtd">
<svg version="1.1" id="Layer_1" xmlns="http://www.w3.org/2000/svg" xmlns:xlink="http://www.w3.org/1999/xlink" x="0px" y="0px"
	 viewBox="0 0 221.5 188" enable-background="new 0 0 221.5 188" xml:space="preserve">
<g>
	<defs>
		<rect id="SVGID_90_" x="71.835" y="80.262" width="151.105" height="111.238"/>
	</defs>
	<clipPath id="SVGID_38_">
		<use xlink:href="#SVGID_90_"  overflow="visible"/>
	</clipPath>
	<path clip-path="url(#SVGID_38_)" fill="#FFFFFF" d="M77.613,162.377h-2.968c-0.999,0-1.809-0.593-1.809-1.325v-24.686
		c0-0.732,0.81-1.325,1.809-1.325h2.968c0.999,0,1.809,0.593,1.809,1.325v24.686C79.422,161.784,78.612,162.377,77.613,162.377"/>
	<path clip-path="url(#SVGID_38_)" fill="none" stroke="#153F2A" stroke-width="2" stroke-miterlimit="10" d="M77.613,162.377
		h-2.968c-0.999,0-1.809-0.593-1.809-1.325v-24.686c0-0.732,0.81-1.325,1.809-1.325h2.968c0.999,0,1.809,0.593,1.809,1.325v24.686
		C79.422,161.784,78.612,162.377,77.613,162.377z"/>
	<path clip-path="url(#SVGID_38_)" fill="#FFFFFF" d="M131.633,113.189h-10.008c-0.591,0-1.071-0.554-1.071-1.238v-0.504
		c0-0.684,0.48-1.238,1.071-1.238h10.008c0.591,0,1.071,0.554,1.071,1.238v0.504C132.704,112.636,132.224,113.189,131.633,113.189"
		/>
	<path clip-path="url(#SVGID_38_)" fill="none" stroke="#153F2A" stroke-width="2" stroke-miterlimit="10" d="M131.633,113.189
		h-10.008c-0.591,0-1.071-0.554-1.071-1.238v-0.504c0-0.684,0.48-1.238,1.071-1.238h10.008c0.591,0,1.071,0.554,1.071,1.238v0.504
		C132.704,112.636,132.224,113.189,131.633,113.189z"/>
	<path clip-path="url(#SVGID_38_)" fill="#FFFFFF" d="M144.959,113.189h-10.008c-0.591,0-1.071-0.554-1.071-1.238v-0.504
		c0-0.684,0.48-1.238,1.071-1.238h10.008c0.591,0,1.071,0.554,1.071,1.238v0.504C146.03,112.636,145.55,113.189,144.959,113.189"/>
	<path clip-path="url(#SVGID_38_)" fill="none" stroke="#153F2A" stroke-width="2" stroke-miterlimit="10" d="M144.959,113.189
		h-10.008c-0.591,0-1.071-0.554-1.071-1.238v-0.504c0-0.684,0.48-1.238,1.071-1.238h10.008c0.591,0,1.071,0.554,1.071,1.238v0.504
		C146.03,112.636,145.55,113.189,144.959,113.189z"/>
	<path clip-path="url(#SVGID_38_)" fill="#FFFFFF" d="M127.926,142.267h-15.504c-0.812,0-1.471-0.645-1.471-1.439v-15.769
		c0-0.795,0.659-1.439,1.471-1.439h15.504c0.812,0,1.471,0.644,1.471,1.439v15.769C129.397,141.622,128.738,142.267,127.926,142.267
		"/>
	<path clip-path="url(#SVGID_38_)" fill="none" stroke="#153F2A" stroke-width="2" stroke-miterlimit="10" d="M127.926,142.267
		h-15.504c-0.812,0-1.471-0.645-1.471-1.439v-15.769c0-0.795,0.659-1.439,1.471-1.439h15.504c0.812,0,1.471,0.644,1.471,1.439
		v15.769C129.397,141.622,128.738,142.267,127.926,142.267z"/>
	<path clip-path="url(#SVGID_38_)" fill="#FFFFFF" d="M77.612,146.129h-2.968c-0.999,0-1.809-0.744-1.809-1.663v-13.921
		c0-0.919,0.81-1.663,1.809-1.663h2.968c0.999,0,1.809,0.744,1.809,1.663v13.921C79.421,145.385,78.611,146.129,77.612,146.129"/>
	<path clip-path="url(#SVGID_38_)" fill="none" stroke="#153F2A" stroke-width="2" stroke-miterlimit="10" d="M77.612,146.129
		h-2.968c-0.999,0-1.809-0.744-1.809-1.663v-13.921c0-0.919,0.81-1.663,1.809-1.663h2.968c0.999,0,1.809,0.744,1.809,1.663v13.921
		C79.421,145.385,78.611,146.129,77.612,146.129z"/>
	<path clip-path="url(#SVGID_38_)" fill="#FFFFFF" d="M113.505,142.267H80.824c-0.717,0-1.316-0.544-1.379-1.252l-1.689-19.004
		c-0.071-0.803,0.566-1.494,1.379-1.494h36.059c0.812,0,1.45,0.691,1.378,1.494l-1.689,19.004
		C114.82,141.723,114.222,142.267,113.505,142.267"/>
	<path clip-path="url(#SVGID_38_)" fill="none" stroke="#153F2A" stroke-width="2" stroke-miterlimit="10" d="M113.505,142.267
		H80.824c-0.717,0-1.316-0.544-1.379-1.252l-1.689-19.004c-0.071-0.803,0.566-1.494,1.379-1.494h36.059
		c0.812,0,1.45,0.691,1.378,1.494l-1.689,19.004C114.82,141.723,114.222,142.267,113.505,142.267z"/>
	<path clip-path="url(#SVGID_38_)" fill="#FFFFFF" d="M81.255,88.68h31.818c0.724,0,1.325,0.549,1.38,1.26l2.139,27.786
		c0.061,0.791-0.574,1.465-1.38,1.465H79.116c-0.805,0-1.44-0.674-1.38-1.465l2.139-27.786C79.93,89.229,80.531,88.68,81.255,88.68"
		/>
	<path clip-path="url(#SVGID_38_)" fill="none" stroke="#153F2A" stroke-width="2" stroke-miterlimit="10" d="M81.255,88.68h31.818
		c0.724,0,1.325,0.549,1.38,1.26l2.139,27.786c0.061,0.791-0.574,1.465-1.38,1.465H79.116c-0.805,0-1.44-0.674-1.38-1.465
		l2.139-27.786C79.93,89.229,80.531,88.68,81.255,88.68z"/>
	<path clip-path="url(#SVGID_38_)" fill="#FFFFFF" d="M105.944,108.344H88.385c-0.55,0-1.025-0.385-1.141-0.923l-2.206-10.257
		c-0.157-0.728,0.397-1.416,1.14-1.416h21.973c0.743,0,1.297,0.688,1.14,1.416l-2.207,10.257
		C106.968,107.959,106.493,108.344,105.944,108.344"/>
	<path clip-path="url(#SVGID_38_)" fill="none" stroke="#153F2A" stroke-width="2" stroke-miterlimit="10" d="M105.944,108.344
		H88.385c-0.55,0-1.025-0.385-1.141-0.923l-2.206-10.257c-0.157-0.728,0.397-1.416,1.14-1.416h21.973
		c0.743,0,1.297,0.688,1.14,1.416l-2.207,10.257C106.968,107.959,106.493,108.344,105.944,108.344z"/>
	<path clip-path="url(#SVGID_38_)" fill="#FFFFFF" d="M115.508,122.927H78.821c-0.997,0-1.805-0.869-1.805-1.94v-1.902
		c0-1.071,0.808-1.94,1.805-1.94h36.687c0.997,0,1.806,0.869,1.806,1.94v1.902C117.314,122.058,116.505,122.927,115.508,122.927"/>
	<path clip-path="url(#SVGID_38_)" fill="none" stroke="#153F2A" stroke-width="2" stroke-miterlimit="10" d="M115.508,122.927
		H78.821c-0.997,0-1.805-0.869-1.805-1.94v-1.902c0-1.071,0.808-1.94,1.805-1.94h36.687c0.997,0,1.806,0.869,1.806,1.94v1.902
		C117.314,122.058,116.505,122.927,115.508,122.927z"/>
	<path clip-path="url(#SVGID_38_)" fill="#FFFFFF" d="M118.514,88.432v-0.561c0-0.796-0.409-1.53-1.068-1.916l-3.743-2.191
		c-0.308-0.18-0.654-0.275-1.006-0.275H97.164H81.631c-0.352,0-0.698,0.095-1.005,0.275l-3.743,2.191
		c-0.659,0.386-1.068,1.12-1.068,1.916v0.561c0,1.077,0.826,1.949,1.846,1.949h39.007C117.687,90.381,118.514,89.509,118.514,88.432
		"/>
	<path clip-path="url(#SVGID_38_)" fill="none" stroke="#153F2A" stroke-width="2" stroke-miterlimit="10" d="M118.514,88.432
		v-0.561c0-0.796-0.409-1.53-1.068-1.916l-3.743-2.191c-0.308-0.18-0.654-0.275-1.006-0.275H97.164H81.631
		c-0.352,0-0.698,0.095-1.005,0.275l-3.743,2.191c-0.659,0.386-1.068,1.12-1.068,1.916v0.561c0,1.077,0.826,1.949,1.846,1.949
		h39.007C117.687,90.381,118.514,89.509,118.514,88.432z"/>
	<path clip-path="url(#SVGID_38_)" fill="#FFFFFF" d="M138.095,128.662h-9.598c-0.854,0-1.569-0.629-1.655-1.455l-1.538-14.823
		c-0.08-0.776,0.418-1.493,1.187-1.715c1.58-0.456,4.324-1.127,6.799-1.127c2.503,0,5.278,0.734,6.851,1.222
		c0.744,0.232,1.217,0.944,1.138,1.7l-1.53,14.743C139.664,128.033,138.949,128.662,138.095,128.662"/>
	<path clip-path="url(#SVGID_38_)" fill="none" stroke="#153F2A" stroke-width="2" stroke-miterlimit="10" d="M138.095,128.662
		h-9.598c-0.854,0-1.569-0.629-1.655-1.455l-1.538-14.823c-0.08-0.776,0.418-1.493,1.187-1.715c1.58-0.456,4.324-1.127,6.799-1.127
		c2.503,0,5.278,0.734,6.851,1.222c0.744,0.232,1.217,0.944,1.138,1.7l-1.53,14.743
		C139.664,128.033,138.949,128.662,138.095,128.662z"/>
	<path clip-path="url(#SVGID_38_)" fill="#FFFFFF" d="M137.035,123.86h-7.486c-0.769,0-1.394-0.629-1.394-1.406v-3.903
		c0-0.776,0.625-1.406,1.394-1.406h7.486c0.77,0,1.394,0.63,1.394,1.406v3.903C138.429,123.231,137.805,123.86,137.035,123.86"/>
	<path clip-path="url(#SVGID_38_)" fill="none" stroke="#153F2A" stroke-width="2" stroke-miterlimit="10" d="M137.035,123.86
		h-7.486c-0.769,0-1.394-0.629-1.394-1.406v-3.903c0-0.776,0.625-1.406,1.394-1.406h7.486c0.77,0,1.394,0.63,1.394,1.406v3.903
		C138.429,123.231,137.805,123.86,137.035,123.86z"/>
	<path clip-path="url(#SVGID_38_)" fill="#FFFFFF" d="M128.97,151h0.041c1.118,0,2.025-0.774,2.025-1.728V130.61
		c0-0.954-0.907-1.728-2.025-1.728h-0.041c-1.119,0-2.025,0.774-2.025,1.728v18.662C126.945,150.226,127.851,151,128.97,151"/>
	<path clip-path="url(#SVGID_38_)" fill="none" stroke="#153F2A" stroke-width="2" stroke-miterlimit="10" d="M128.97,151h0.041
		c1.118,0,2.025-0.774,2.025-1.728V130.61c0-0.954-0.907-1.728-2.025-1.728h-0.041c-1.119,0-2.025,0.774-2.025,1.728v18.662
		C126.945,150.226,127.851,151,128.97,151z"/>
	<path clip-path="url(#SVGID_38_)" fill="#FFFFFF" d="M137.573,151h0.041c1.118,0,2.025-0.774,2.025-1.728V130.61
		c0-0.954-0.907-1.728-2.025-1.728h-0.041c-1.118,0-2.025,0.774-2.025,1.728v18.662C135.548,150.226,136.455,151,137.573,151"/>
	<path clip-path="url(#SVGID_38_)" fill="none" stroke="#153F2A" stroke-width="2" stroke-miterlimit="10" d="M137.573,151h0.041
		c1.118,0,2.025-0.774,2.025-1.728V130.61c0-0.954-0.907-1.728-2.025-1.728h-0.041c-1.118,0-2.025,0.774-2.025,1.728v18.662
		C135.548,150.226,136.455,151,137.573,151z"/>
	<path clip-path="url(#SVGID_38_)" fill="#FFFFFF" d="M134.776,162.377h-2.968c-0.999,0-1.809-0.593-1.809-1.325v-24.686
		c0-0.732,0.81-1.325,1.809-1.325h2.968c0.999,0,1.809,0.593,1.809,1.325v24.686C136.585,161.784,135.775,162.377,134.776,162.377"
		/>
	<path clip-path="url(#SVGID_38_)" fill="none" stroke="#153F2A" stroke-width="2" stroke-miterlimit="10" d="M134.776,162.377
		h-2.968c-0.999,0-1.809-0.593-1.809-1.325v-24.686c0-0.732,0.81-1.325,1.809-1.325h2.968c0.999,0,1.809,0.593,1.809,1.325v24.686
		C136.585,161.784,135.775,162.377,134.776,162.377z"/>
	<path clip-path="url(#SVGID_38_)" fill="#FFFFFF" d="M146.585,81.478c-0.247-0.141-0.525-0.216-0.808-0.216h-12.485h-12.485
		c-0.283,0-0.561,0.075-0.809,0.216l-3.008,1.719c-0.53,0.303-0.858,0.879-0.858,1.503v3.738c0,0.949,0.746,1.718,1.667,1.718
		h30.986c0.92,0,1.667-0.769,1.667-1.718V84.7c0-0.624-0.329-1.2-0.859-1.503L146.585,81.478z"/>
	<path clip-path="url(#SVGID_38_)" fill="none" stroke="#153F2A" stroke-width="2" stroke-miterlimit="10" d="M146.585,81.478
		c-0.247-0.141-0.525-0.216-0.808-0.216h-12.485h-12.485c-0.283,0-0.561,0.075-0.809,0.216l-3.008,1.719
		c-0.53,0.303-0.858,0.879-0.858,1.503v3.738c0,0.949,0.746,1.718,1.667,1.718h30.986c0.92,0,1.667-0.769,1.667-1.718V84.7
		c0-0.624-0.329-1.2-0.859-1.503L146.585,81.478z"/>
</g>
</svg>
