<?xml version="1.0" encoding="utf-8"?>
<!-- Generator: Adobe Illustrator 17.1.0, SVG Export Plug-In . SVG Version: 6.00 Build 0)  -->
<!DOCTYPE svg PUBLIC "-//W3C//DTD SVG 1.1//EN" "http://www.w3.org/Graphics/SVG/1.1/DTD/svg11.dtd">
<svg version="1.1" id="Layer_1" xmlns="http://www.w3.org/2000/svg" xmlns:xlink="http://www.w3.org/1999/xlink" x="0px" y="0px"
	 viewBox="0 0 221.5 221.5" enable-background="new 0 0 221.5 221.5" xml:space="preserve">
<g>
	<path fill="#FFFFFF" stroke="#163F2A" stroke-width="2.5709" stroke-miterlimit="10" d="M76.98,149.63h-2.627
		c-0.884,0-1.601-0.578-1.601-1.292v-24.081c0-0.714,0.717-1.292,1.601-1.292h2.627c0.884,0,1.601,0.578,1.601,1.292v24.081
		C78.582,149.052,77.865,149.63,76.98,149.63z"/>
	<g>
		<path fill="#FFFFFF" stroke="#163F2A" stroke-width="2.5709" stroke-miterlimit="10" d="M129.721,100.61h-9.286
			c-0.549,0-0.993-0.445-0.993-0.993v-0.405c0-0.549,0.445-0.993,0.993-0.993h9.286c0.549,0,0.993,0.445,0.993,0.993v0.405
			C130.714,100.165,130.269,100.61,129.721,100.61z"/>
		<path fill="#FFFFFF" stroke="#163F2A" stroke-width="2.5709" stroke-miterlimit="10" d="M142.76,100.61h-9.286
			c-0.549,0-0.993-0.445-0.993-0.993v-0.405c0-0.549,0.445-0.993,0.993-0.993h9.286c0.549,0,0.993,0.445,0.993,0.993v0.405
			C143.753,100.165,143.308,100.61,142.76,100.61z"/>
	</g>
	<path fill="#FFFFFF" stroke="#163F2A" stroke-width="2.5709" stroke-miterlimit="10" d="M126.088,129.588h-14.654
		c-0.768,0-1.39-0.622-1.39-1.39v-15.226c0-0.768,0.622-1.39,1.39-1.39h14.654c0.768,0,1.39,0.622,1.39,1.39v15.226
		C127.478,128.966,126.856,129.588,126.088,129.588z"/>
	<path fill="#FFFFFF" stroke="#163F2A" stroke-width="2.5709" stroke-miterlimit="10" d="M76.98,133.438h-2.627
		c-0.884,0-1.601-0.717-1.601-1.601v-13.408c0-0.884,0.717-1.601,1.601-1.601h2.627c0.884,0,1.601,0.717,1.601,1.601v13.408
		C78.581,132.721,77.865,133.438,76.98,133.438z"/>
	<path fill="#FFFFFF" stroke="#163F2A" stroke-width="2.5709" stroke-miterlimit="10" d="M111.978,129.588H80.519
		c-0.69,0-1.266-0.527-1.327-1.215l-1.626-18.434c-0.069-0.779,0.545-1.449,1.327-1.449h34.712c0.782,0,1.395,0.67,1.327,1.449
		l-1.626,18.434C113.245,129.061,112.669,129.588,111.978,129.588z"/>
	<path fill="#FFFFFF" stroke="#163F2A" stroke-width="2.5709" stroke-miterlimit="10" d="M80.934,76.762h30.629
		c0.697,0,1.275,0.537,1.328,1.231l2.059,27.166c0.059,0.773-0.553,1.433-1.328,1.433H78.875c-0.775,0-1.387-0.66-1.328-1.433
		l2.059-27.166C79.659,77.299,80.238,76.762,80.934,76.762z"/>
	<path fill="#FFFFFF" stroke="#163F2A" stroke-width="2.5709" stroke-miterlimit="10" d="M104.617,95.781H87.88
		c-0.524,0-0.977-0.366-1.087-0.878l-2.104-9.752c-0.149-0.693,0.378-1.346,1.087-1.346h20.944c0.709,0,1.236,0.654,1.087,1.346
		l-2.104,9.752C105.594,95.415,105.141,95.781,104.617,95.781z"/>
	<path fill="#FFFFFF" stroke="#163F2A" stroke-width="2.5709" stroke-miterlimit="10" d="M113.917,110.314H78.581
		c-0.961,0-1.739-0.779-1.739-1.739v-1.706c0-0.961,0.779-1.739,1.739-1.739h35.336c0.961,0,1.739,0.779,1.739,1.739v1.706
		C115.656,109.535,114.877,110.314,113.917,110.314z"/>
	<path fill="#FFFFFF" stroke="#163F2A" stroke-width="2.5709" stroke-miterlimit="10" d="M116.831,76.1v-0.512
		c0-0.727-0.394-1.396-1.03-1.749l-3.608-2c-0.297-0.164-0.63-0.251-0.969-0.251H96.249H81.274c-0.339,0-0.673,0.086-0.969,0.251
		l-3.608,2c-0.636,0.352-1.03,1.022-1.03,1.749V76.1c0,0.983,0.797,1.78,1.78,1.78h37.605
		C116.034,77.88,116.831,77.083,116.831,76.1z"/>
	<path fill="#FFFFFF" stroke="#163F2A" stroke-width="2.5709" stroke-miterlimit="10" d="M136.112,116.03h-9.022
		c-0.803,0-1.475-0.608-1.555-1.406l-1.446-14.325c-0.076-0.75,0.393-1.443,1.115-1.657c1.486-0.441,4.065-1.089,6.392-1.089
		c2.352,0,4.962,0.708,6.439,1.181c0.7,0.224,1.144,0.912,1.07,1.643l-1.438,14.247C137.587,115.422,136.915,116.03,136.112,116.03z
		"/>
	<path fill="#FFFFFF" stroke="#163F2A" stroke-width="2.5709" stroke-miterlimit="10" d="M135.036,111.245h-6.877
		c-0.707,0-1.28-0.573-1.28-1.28v-3.554c0-0.707,0.573-1.28,1.28-1.28h6.877c0.707,0,1.28,0.573,1.28,1.28v3.554
		C136.316,110.671,135.743,111.245,135.036,111.245z"/>
	<g>
		<path fill="#FFFFFF" stroke="#163F2A" stroke-width="2.5709" stroke-miterlimit="10" d="M127.371,138.292h0.034
			c0.926,0,1.677-0.751,1.677-1.677v-18.11c0-0.926-0.751-1.677-1.677-1.677h-0.034c-0.926,0-1.677,0.751-1.677,1.677v18.11
			C125.694,137.542,126.445,138.292,127.371,138.292z"/>
		<path fill="#FFFFFF" stroke="#163F2A" stroke-width="2.5709" stroke-miterlimit="10" d="M135.789,138.292h0.034
			c0.926,0,1.677-0.751,1.677-1.677v-18.11c0-0.926-0.751-1.677-1.677-1.677h-0.034c-0.926,0-1.677,0.751-1.677,1.677v18.11
			C134.112,137.542,134.863,138.292,135.789,138.292z"/>
	</g>
	<path fill="#FFFFFF" stroke="#163F2A" stroke-width="2.5709" stroke-miterlimit="10" d="M132.911,149.63h-2.627
		c-0.884,0-1.601-0.578-1.601-1.292v-24.081c0-0.714,0.717-1.292,1.601-1.292h2.627c0.884,0,1.601,0.578,1.601,1.292v24.081
		C134.512,149.052,133.795,149.63,132.911,149.63z"/>
	<path fill="#FFFFFF" stroke="#163F2A" stroke-width="2.5709" stroke-miterlimit="10" d="M144.366,69.57
		c-0.238-0.132-0.505-0.201-0.776-0.201h-11.992h-11.992c-0.272,0-0.539,0.069-0.776,0.201l-2.889,1.602
		c-0.509,0.282-0.825,0.818-0.825,1.4v3.482c0,0.884,0.717,1.601,1.601,1.601h29.763c0.884,0,1.601-0.717,1.601-1.601v-3.482
		c0-0.582-0.316-1.118-0.825-1.4L144.366,69.57z"/>
</g>
</svg>
