<?xml version="1.0" encoding="utf-8"?>
<!-- Generator: Adobe Illustrator 17.1.0, SVG Export Plug-In . SVG Version: 6.00 Build 0)  -->
<!DOCTYPE svg PUBLIC "-//W3C//DTD SVG 1.1//EN" "http://www.w3.org/Graphics/SVG/1.1/DTD/svg11.dtd">
<svg version="1.1" id="Layer_1" xmlns="http://www.w3.org/2000/svg" xmlns:xlink="http://www.w3.org/1999/xlink" x="0px" y="0px"
	 viewBox="0 0 221.5 221.5" enable-background="new 0 0 221.5 221.5" xml:space="preserve">
<g>
	<circle fill="#FFFFFF" stroke="#163F2A" stroke-width="2.5709" stroke-miterlimit="10" cx="116.709" cy="65.133" r="9.448"/>
	<path fill="#FFFFFF" stroke="#163F2A" stroke-width="2.5709" stroke-miterlimit="10" d="M114.001,78.901l10.615,19.158
		c0.173,0.312,0.477,0.531,0.828,0.596l18.113,3.346c0.566,0.105,0.977,0.599,0.977,1.174v3.993c0,0.737-0.661,1.298-1.389,1.178
		l-22.111-3.645c-0.313-0.052-0.593-0.226-0.778-0.484l-4.151-5.813c-0.591-0.828-1.882-0.584-2.13,0.402l-3.312,13.154
		c-0.076,0.303-0.031,0.625,0.127,0.895l12.265,20.962c0.106,0.182,0.163,0.388,0.163,0.599l0.11,30.28
		c0.002,0.661-0.533,1.199-1.194,1.199h-7.516c-0.66,0-1.194-0.535-1.194-1.194V141.98c0-0.255-0.082-0.504-0.234-0.71
		l-9.846-13.327c-0.567-0.767-1.76-0.593-2.084,0.304l-13.13,36.402c-0.171,0.473-0.619,0.788-1.122,0.789l-7.515,0.011
		c-0.785,0.001-1.358-0.743-1.156-1.501l19.353-72.75c0.247-0.93-0.65-1.755-1.556-1.432l-8.24,2.942
		c-0.55,0.196-0.878,0.762-0.774,1.337l1.85,15.986c0.103,0.893-0.595,1.677-1.494,1.677h-3.055c-0.748,0-1.38-0.553-1.479-1.294
		l-2.72-20.342c-0.106-0.568,0.21-1.13,0.75-1.336l29.368-11.167C111.719,77.233,113.163,77.759,114.001,78.901z"/>
</g>
</svg>
