<?xml version="1.0" encoding="utf-8"?>
<!-- Generator: Adobe Illustrator 17.1.0, SVG Export Plug-In . SVG Version: 6.00 Build 0)  -->
<!DOCTYPE svg PUBLIC "-//W3C//DTD SVG 1.1//EN" "http://www.w3.org/Graphics/SVG/1.1/DTD/svg11.dtd">
<svg version="1.1" id="Layer_1" xmlns="http://www.w3.org/2000/svg" xmlns:xlink="http://www.w3.org/1999/xlink" x="0px" y="0px"
	 viewBox="0 0 221.5 189.5" enable-background="new 0 0 221.5 189.5" xml:space="preserve">
<g>
	<rect x="106.933" y="102.039" fill="#153F2A" width="64.768" height="1.776"/>
	<g>
		<path fill="#FFFFFF" d="M175.367,108.652h-4.284c-0.714,0-1.293-0.579-1.293-1.293v-8.864c0-0.714,0.579-1.293,1.293-1.293h4.284
			c0.714,0,1.293,0.579,1.293,1.293v8.864C176.66,108.073,176.081,108.652,175.367,108.652"/>
		<path fill="#153F2A" d="M171.083,98.091c-0.224,0-0.405,0.181-0.405,0.404v8.864c0,0.224,0.181,0.405,0.405,0.405h4.284
			c0.224,0,0.405-0.181,0.405-0.405v-8.864c0-0.223-0.181-0.404-0.405-0.404H171.083z M175.367,109.54h-4.284
			c-1.203,0-2.182-0.978-2.182-2.181v-8.864c0-1.202,0.979-2.181,2.182-2.181h4.284c1.203,0,2.181,0.979,2.181,2.181v8.864
			C177.548,108.562,176.57,109.54,175.367,109.54"/>
		<path fill="#FFFFFF" d="M107.451,108.652h-4.084c-0.77,0-1.393-0.624-1.393-1.393v-8.664c0-0.769,0.623-1.393,1.393-1.393h4.084
			c0.769,0,1.393,0.624,1.393,1.393v8.664C108.844,108.028,108.22,108.652,107.451,108.652"/>
		<path fill="#153F2A" d="M103.367,98.091c-0.278,0-0.505,0.226-0.505,0.503v8.665c0,0.279,0.227,0.505,0.505,0.505h4.084
			c0.278,0,0.505-0.226,0.505-0.505v-8.665c0-0.277-0.227-0.503-0.505-0.503H103.367z M107.451,109.54h-4.084
			c-1.257,0-2.281-1.023-2.281-2.281v-8.665c0-1.257,1.024-2.28,2.281-2.28h4.084c1.258,0,2.281,1.023,2.281,2.28v8.665
			C109.732,108.517,108.709,109.54,107.451,109.54"/>
		<path fill="#FFFFFF" d="M162.884,154.243h-4.369c-0.78,0-1.412-0.632-1.412-1.413v-9.164c0-0.78,0.632-1.413,1.412-1.413h4.369
			c0.78,0,1.413,0.633,1.413,1.413v9.164C164.297,153.611,163.664,154.243,162.884,154.243"/>
		<path fill="#153F2A" d="M158.516,143.141c-0.29,0-0.525,0.235-0.525,0.524v9.165c0,0.289,0.235,0.524,0.525,0.524h4.368
			c0.29,0,0.525-0.235,0.525-0.524v-9.165c0-0.289-0.235-0.524-0.525-0.524H158.516z M162.884,155.13h-4.368
			c-1.269,0-2.301-1.032-2.301-2.3v-9.165c0-1.268,1.032-2.3,2.301-2.3h4.368c1.269,0,2.301,1.032,2.301,2.3v9.165
			C165.185,154.098,164.153,155.13,162.884,155.13"/>
		<path fill="#FFFFFF" d="M120.119,154.243h-4.369c-0.78,0-1.412-0.632-1.412-1.413v-9.164c0-0.78,0.632-1.413,1.412-1.413h4.369
			c0.78,0,1.412,0.633,1.412,1.413v9.164C121.531,153.611,120.899,154.243,120.119,154.243"/>
		<path fill="#153F2A" d="M115.75,143.141c-0.289,0-0.524,0.235-0.524,0.524v9.165c0,0.289,0.235,0.524,0.524,0.524h4.369
			c0.289,0,0.524-0.235,0.524-0.524v-9.165c0-0.289-0.235-0.524-0.524-0.524H115.75z M120.119,155.13h-4.369
			c-1.268,0-2.3-1.032-2.3-2.3v-9.165c0-1.268,1.032-2.3,2.3-2.3h4.369c1.268,0,2.3,1.032,2.3,2.3v9.165
			C122.419,154.098,121.387,155.13,120.119,155.13"/>
		<path fill="#FFFFFF" d="M167.038,142.516c0,2.442-1.6,4.422-3.575,4.422H115.17c-1.974,0-3.575-1.98-3.575-4.422V82.768
			c0-2.443,1.601-4.423,3.575-4.423h48.293c1.975,0,3.575,1.98,3.575,4.423V142.516z"/>
		<path fill="#153F2A" d="M115.171,79.233c-1.482,0-2.687,1.586-2.687,3.534v59.749c0,1.948,1.205,3.534,2.687,3.534h48.293
			c1.481,0,2.687-1.586,2.687-3.534V82.767c0-1.948-1.206-3.534-2.687-3.534H115.171z M163.464,147.826h-48.293
			c-2.462,0-4.463-2.383-4.463-5.31V82.767c0-2.928,2.001-5.31,4.463-5.31h48.293c2.461,0,4.463,2.382,4.463,5.31v59.749
			C167.927,145.443,165.925,147.826,163.464,147.826"/>
		<path fill="#FFFFFF" d="M159.076,91.606h-10.418h-18.683h-10.418c-1.159,0-2.1,0.944-2.1,2.109v5.538v9.33v5.538
			c0,1.164,0.941,2.108,2.1,2.108h10.418h18.683h10.418c1.16,0,2.1-0.944,2.1-2.108v-5.538v-9.33v-5.538
			C161.176,92.55,160.236,91.606,159.076,91.606"/>
		<path fill="#153F2A" d="M119.557,92.494c-0.668,0-1.212,0.548-1.212,1.221v20.406c0,0.673,0.544,1.22,1.212,1.22h39.519
			c0.668,0,1.212-0.547,1.212-1.22V93.715c0-0.673-0.544-1.221-1.212-1.221H119.557z M159.076,117.117h-39.519
			c-1.647,0-2.988-1.344-2.988-2.996V93.715c0-1.653,1.341-2.997,2.988-2.997h39.519c1.648,0,2.988,1.344,2.988,2.997v20.406
			C162.064,115.773,160.724,117.117,159.076,117.117"/>
		<path fill="#FFFFFF" d="M143.683,86.842h-8.732c-0.711,0-1.287-0.576-1.287-1.287v-1.143c0-0.711,0.576-1.287,1.287-1.287h8.732
			c0.711,0,1.287,0.576,1.287,1.287v1.143C144.97,86.266,144.394,86.842,143.683,86.842"/>
		<path fill="#153F2A" d="M134.951,84.013c-0.221,0-0.399,0.179-0.399,0.399v1.143c0,0.22,0.178,0.399,0.399,0.399h8.732
			c0.219,0,0.398-0.179,0.398-0.399v-1.143c0-0.22-0.179-0.399-0.398-0.399H134.951z M143.683,87.73h-8.732
			c-1.2,0-2.176-0.976-2.176-2.175v-1.143c0-1.2,0.976-2.175,2.176-2.175h8.732c1.199,0,2.174,0.975,2.174,2.175v1.143
			C145.857,86.754,144.882,87.73,143.683,87.73"/>
		<path fill="#FFFFFF" d="M123.618,133.612c0,1.935-1.569,3.503-3.503,3.503c-1.935,0-3.504-1.568-3.504-3.503
			s1.569-3.503,3.504-3.503C122.049,130.109,123.618,131.677,123.618,133.612"/>
		<path fill="#153F2A" d="M120.115,130.996c-1.442,0-2.616,1.174-2.616,2.616c0,1.441,1.174,2.615,2.616,2.615
			c1.441,0,2.615-1.174,2.615-2.615C122.73,132.17,121.556,130.996,120.115,130.996 M120.115,138.003
			c-2.421,0-4.392-1.97-4.392-4.391c0-2.421,1.971-4.392,4.392-4.392c2.421,0,4.391,1.971,4.391,4.392
			C124.506,136.033,122.536,138.003,120.115,138.003"/>
		<path fill="#FFFFFF" d="M162.023,133.421c0,1.935-1.568,3.503-3.503,3.503s-3.504-1.568-3.504-3.503s1.569-3.503,3.504-3.503
			S162.023,131.486,162.023,133.421"/>
		<path fill="#153F2A" d="M158.52,130.805c-1.441,0-2.615,1.174-2.615,2.616s1.174,2.615,2.615,2.615
			c1.442,0,2.616-1.173,2.616-2.615S159.962,130.805,158.52,130.805 M158.52,137.812c-2.421,0-4.391-1.969-4.391-4.391
			c0-2.421,1.97-4.392,4.391-4.392c2.421,0,4.392,1.971,4.392,4.392C162.912,135.843,160.941,137.812,158.52,137.812"/>
	</g>
	<rect x="128.742" y="129.886" fill="#153F2A" width="21.15" height="1.776"/>
	<rect x="128.742" y="132.724" fill="#153F2A" width="21.15" height="1.776"/>
	<rect x="128.742" y="135.561" fill="#153F2A" width="21.15" height="1.776"/>
	<g>
		<path fill="#FFFFFF" d="M93.11,156.29h-4.468c-0.798,0-1.445-0.647-1.445-1.445v-9.373c0-0.798,0.647-1.444,1.445-1.444h4.468
			c0.798,0,1.445,0.646,1.445,1.444v9.373C94.555,155.643,93.908,156.29,93.11,156.29"/>
		<path fill="#153F2A" d="M88.643,144.916c-0.307,0-0.557,0.25-0.557,0.557v9.372c0,0.307,0.25,0.557,0.557,0.557h4.467
			c0.307,0,0.557-0.25,0.557-0.557v-9.372c0-0.307-0.25-0.557-0.557-0.557H88.643z M93.11,157.178h-4.467
			c-1.286,0-2.333-1.047-2.333-2.333v-9.372c0-1.286,1.047-2.333,2.333-2.333h4.467c1.286,0,2.333,1.047,2.333,2.333v9.372
			C95.443,156.131,94.396,157.178,93.11,157.178"/>
		<path fill="#FFFFFF" d="M53.468,156.29H49c-0.798,0-1.445-0.647-1.445-1.445v-9.373c0-0.798,0.647-1.444,1.445-1.444h4.468
			c0.798,0,1.445,0.646,1.445,1.444v9.373C54.913,155.643,54.266,156.29,53.468,156.29"/>
		<path fill="#153F2A" d="M49,144.916c-0.306,0-0.556,0.25-0.556,0.557v9.372c0,0.307,0.25,0.557,0.556,0.557h4.468
			c0.307,0,0.557-0.25,0.557-0.557v-9.372c0-0.307-0.25-0.557-0.557-0.557H49z M53.468,157.178H49c-1.286,0-2.332-1.047-2.332-2.333
			v-9.372c0-1.286,1.046-2.333,2.332-2.333h4.468c1.286,0,2.333,1.047,2.333,2.333v9.372
			C55.801,156.131,54.754,157.178,53.468,157.178"/>
		<path fill="#FFFFFF" d="M95.831,137.69v-5.783c0-0.998-0.809-1.807-1.807-1.807H90.27v-5.782c0-0.998-0.809-1.807-1.807-1.807
			H53.775c-0.998,0-1.807,0.809-1.807,1.807v5.782h-3.753c-0.998,0-1.807,0.809-1.807,1.807v5.783H95.831z"/>
		<path fill="#153F2A" d="M47.296,136.802h47.647v-4.894c0-0.507-0.413-0.919-0.919-0.919h-4.642v-6.671
			c0-0.506-0.413-0.919-0.919-0.919H53.775c-0.507,0-0.919,0.413-0.919,0.919v6.671h-4.641c-0.507,0-0.919,0.412-0.919,0.919
			V136.802z M96.719,138.578h-51.2v-6.67c0-1.487,1.209-2.696,2.696-2.696h2.865v-4.894c0-1.486,1.209-2.695,2.695-2.695h34.688
			c1.486,0,2.695,1.209,2.695,2.695v4.894h2.866c1.486,0,2.695,1.209,2.695,2.696V138.578z"/>
	</g>
	<rect x="48.409" y="115.856" fill="#153F2A" width="45.419" height="1.776"/>
	<g>
		<path fill="#FFFFFF" d="M95.276,120.613H92.38c-0.483,0-0.874-0.391-0.874-0.874v-5.992c0-0.482,0.391-0.874,0.874-0.874h2.896
			c0.483,0,0.874,0.392,0.874,0.874v5.992C96.15,120.222,95.759,120.613,95.276,120.613"/>
		<path fill="#153F2A" d="M95.262,113.747l-2.882,0.014l0.014,5.978l2.868-0.014V113.747z M95.276,119.725v0.888V119.725z
			 M95.276,121.501H92.38c-0.971,0-1.762-0.791-1.762-1.762v-5.992c0-0.972,0.791-1.763,1.762-1.763h2.896
			c0.971,0,1.762,0.791,1.762,1.763v5.992C97.038,120.71,96.247,121.501,95.276,121.501"/>
		<path fill="#FFFFFF" d="M49.791,120.613H47.03c-0.52,0-0.941-0.421-0.941-0.941v-5.857c0-0.52,0.421-0.942,0.941-0.942h2.761
			c0.52,0,0.941,0.422,0.941,0.942v5.857C50.732,120.192,50.311,120.613,49.791,120.613"/>
		<path fill="#153F2A" d="M47.03,113.761l-0.053,5.91l2.814,0.054c0.029,0,0.054-0.025,0.054-0.054v-5.857L47.03,113.761z
			 M49.791,121.501H47.03c-1.009,0-1.829-0.821-1.829-1.83v-5.857c0-1.008,0.82-1.83,1.829-1.83h2.761c1.009,0,1.83,0.822,1.83,1.83
			v5.857C51.621,120.68,50.8,121.501,49.791,121.501"/>
		<path fill="#FFFFFF" d="M91.873,109.2c0,0.998-0.809,1.807-1.807,1.807H52.173c-0.998,0-1.808-0.809-1.808-1.807v-5.966
			c0-0.999,0.81-1.807,1.808-1.807h37.893c0.998,0,1.807,0.808,1.807,1.807V109.2z"/>
		<path fill="#153F2A" d="M52.173,102.315c-0.507,0-0.919,0.412-0.919,0.919v5.966c0,0.507,0.412,0.92,0.919,0.92h37.893
			c0.506,0,0.919-0.413,0.919-0.92v-5.966c0-0.507-0.413-0.919-0.919-0.919H52.173z M90.066,111.896H52.173
			c-1.486,0-2.695-1.209-2.695-2.696v-5.966c0-1.486,1.209-2.695,2.695-2.695h37.893c1.486,0,2.695,1.209,2.695,2.695v5.966
			C92.761,110.687,91.552,111.896,90.066,111.896"/>
		<path fill="#FFFFFF" d="M87.041,110.976H55.144c-0.317,0-0.584,0.239-0.618,0.554l-1.129,10.292
			c-0.04,0.368,0.248,0.69,0.618,0.69h34.209c0.371,0,0.66-0.324,0.617-0.693l-1.183-10.293
			C87.622,111.213,87.357,110.976,87.041,110.976"/>
		<path fill="#153F2A" d="M54.312,121.623h33.613l-1.122-9.759h-31.42L54.312,121.623z M88.224,123.399H54.016
			c-0.429,0-0.838-0.183-1.124-0.501c-0.286-0.319-0.423-0.746-0.378-1.171l1.13-10.294c0.084-0.767,0.729-1.346,1.5-1.346h31.897
			c0.768,0,1.414,0.576,1.499,1.34l1.184,10.29c0.049,0.427-0.087,0.856-0.373,1.176C89.065,123.215,88.654,123.399,88.224,123.399"
			/>
		<path fill="#FFFFFF" d="M83.697,110.976H58.5c-0.251,0-0.461,0.239-0.488,0.554l-0.892,10.292c-0.032,0.368,0.196,0.69,0.488,0.69
			h27.023c0.294,0,0.522-0.324,0.488-0.693l-0.934-10.293C84.156,111.213,83.946,110.976,83.697,110.976"/>
		<path fill="#153F2A" d="M58.03,121.623h26.18l-0.886-9.759h-24.45L58.03,121.623z M84.632,123.399H57.608
			c-0.369,0-0.715-0.155-0.975-0.438c-0.292-0.319-0.437-0.762-0.397-1.216l0.892-10.292c0.066-0.778,0.655-1.366,1.372-1.366
			h25.197c0.712,0,1.302,0.584,1.373,1.359l0.934,10.292c0.041,0.457-0.104,0.902-0.396,1.222
			C85.348,123.243,85.002,123.399,84.632,123.399"/>
		<path fill="#FFFFFF" d="M62.471,127.634c0,1.555-1.26,2.815-2.815,2.815s-2.815-1.26-2.815-2.815c0-1.554,1.26-2.815,2.815-2.815
			S62.471,126.08,62.471,127.634"/>
		<path fill="#153F2A" d="M59.656,125.708c-1.062,0-1.927,0.864-1.927,1.927c0,1.062,0.865,1.926,1.927,1.926
			c1.062,0,1.927-0.864,1.927-1.926C61.583,126.572,60.718,125.708,59.656,125.708 M59.656,131.337
			c-2.042,0-3.703-1.661-3.703-3.702c0-2.042,1.661-3.704,3.703-3.704c2.042,0,3.703,1.662,3.703,3.704
			C63.359,129.676,61.698,131.337,59.656,131.337"/>
		<path fill="#FFFFFF" d="M85.398,127.634c0,1.555-1.26,2.815-2.815,2.815s-2.815-1.26-2.815-2.815c0-1.554,1.26-2.815,2.815-2.815
			S85.398,126.08,85.398,127.634"/>
		<path fill="#153F2A" d="M82.583,125.708c-1.062,0-1.927,0.864-1.927,1.927c0,1.062,0.865,1.926,1.927,1.926
			c1.062,0,1.927-0.864,1.927-1.926C84.51,126.572,83.645,125.708,82.583,125.708 M82.583,131.337c-2.042,0-3.703-1.661-3.703-3.702
			c0-2.042,1.661-3.704,3.703-3.704c2.042,0,3.703,1.662,3.703,3.704C86.286,129.676,84.625,131.337,82.583,131.337"/>
	</g>
	<rect x="68.85" y="129.519" fill="#153F2A" width="1.776" height="11.862"/>
	<rect x="66.025" y="129.519" fill="#153F2A" width="1.776" height="11.862"/>
	<rect x="63.201" y="129.519" fill="#153F2A" width="1.776" height="11.862"/>
	<rect x="71.674" y="129.519" fill="#153F2A" width="1.776" height="11.862"/>
	<rect x="77.323" y="129.519" fill="#153F2A" width="1.776" height="11.862"/>
	<rect x="74.498" y="129.519" fill="#153F2A" width="1.776" height="11.862"/>
	<g>
		<path fill="#FFFFFF" d="M96.916,150.159H45.194c-0.563,0-1.019-0.456-1.019-1.019v-10.422c0-0.563,0.456-1.019,1.019-1.019h51.722
			c0.563,0,1.019,0.456,1.019,1.019v10.422C97.935,149.703,97.479,150.159,96.916,150.159"/>
		<path fill="#153F2A" d="M45.194,138.586c-0.072,0-0.131,0.059-0.131,0.131v10.423c0,0.072,0.059,0.13,0.131,0.13h51.722
			c0.072,0,0.131-0.058,0.131-0.13v-10.423c0-0.072-0.059-0.131-0.131-0.131H45.194z M96.916,151.046H45.194
			c-1.052,0-1.907-0.855-1.907-1.906v-10.423c0-1.052,0.855-1.907,1.907-1.907h51.722c1.052,0,1.907,0.855,1.907,1.907v10.423
			C98.823,150.191,97.968,151.046,96.916,151.046"/>
	</g>
	<rect x="47.555" y="146.608" fill="#153F2A" width="46.999" height="1.776"/>
	<g>
		<path fill="#FFFFFF" d="M121.885,110.849c0,4.059-3.291,7.35-7.35,7.35c-4.059,0-7.35-3.291-7.35-7.35
			c0-4.059,3.291-7.35,7.35-7.35C118.594,103.499,121.885,106.79,121.885,110.849"/>
		<circle fill="none" stroke="#153F2A" stroke-width="2" stroke-miterlimit="10" cx="114.536" cy="110.849" r="7.35"/>
		<path fill="#FFFFFF" d="M112.429,121.56l8.258,14.903c0.134,0.243,0.37,0.413,0.643,0.463l14.091,2.604
			c0.441,0.081,0.76,0.465,0.76,0.914v3.106c0,0.573-0.514,1.01-1.08,0.917l-17.2-2.835c-0.244-0.041-0.462-0.176-0.605-0.377
			l-3.23-4.522c-0.46-0.644-1.463-0.455-1.657,0.313l-2.576,10.233c-0.06,0.236-0.024,0.486,0.099,0.696l9.541,16.307
			c0.083,0.142,0.127,0.302,0.128,0.466l0.085,23.556c0.002,0.514-0.415,0.932-0.929,0.932h-5.847c-0.513,0-0.929-0.416-0.929-0.929
			V170.63c0-0.198-0.064-0.392-0.182-0.552l-7.66-10.368c-0.441-0.597-1.369-0.461-1.621,0.237l-10.214,28.318
			c-0.133,0.368-0.482,0.613-0.873,0.614l-5.846,0.008c-0.611,0.001-1.056-0.577-0.899-1.168l15.055-56.594
			c0.192-0.723-0.506-1.366-1.21-1.114l-6.41,2.289c-0.428,0.153-0.683,0.593-0.602,1.04l1.439,12.436
			c0.08,0.695-0.463,1.305-1.163,1.305h-2.376c-0.581,0-1.073-0.43-1.15-1.007l-2.116-15.824c-0.083-0.442,0.163-0.879,0.583-1.039
			l22.846-8.688C110.653,120.262,111.777,120.671,112.429,121.56"/>
		<path fill="none" stroke="#153F2A" stroke-width="2" stroke-miterlimit="10" d="M112.429,121.56l8.258,14.903
			c0.134,0.243,0.37,0.413,0.643,0.463l14.091,2.604c0.441,0.081,0.76,0.465,0.76,0.914v3.106c0,0.573-0.514,1.01-1.08,0.917
			l-17.2-2.835c-0.244-0.041-0.462-0.176-0.605-0.377l-3.23-4.522c-0.46-0.644-1.463-0.455-1.657,0.313l-2.576,10.233
			c-0.06,0.236-0.024,0.486,0.099,0.696l9.541,16.307c0.083,0.142,0.127,0.302,0.128,0.466l0.085,23.556
			c0.002,0.514-0.415,0.932-0.929,0.932h-5.847c-0.513,0-0.929-0.416-0.929-0.929V170.63c0-0.198-0.064-0.392-0.182-0.552
			l-7.66-10.368c-0.441-0.597-1.369-0.461-1.621,0.237l-10.214,28.318c-0.133,0.368-0.482,0.613-0.873,0.614l-5.846,0.008
			c-0.611,0.001-1.056-0.577-0.899-1.168l15.055-56.594c0.192-0.723-0.506-1.366-1.21-1.114l-6.41,2.289
			c-0.428,0.153-0.683,0.593-0.602,1.04l1.439,12.436c0.08,0.695-0.463,1.305-1.163,1.305h-2.376c-0.581,0-1.073-0.43-1.15-1.007
			l-2.116-15.824c-0.083-0.442,0.163-0.879,0.583-1.039l22.846-8.688C110.653,120.262,111.777,120.671,112.429,121.56z"/>
	</g>
</g>
</svg>
