<?xml version="1.0" encoding="utf-8"?>
<!-- Generator: Adobe Illustrator 17.1.0, SVG Export Plug-In . SVG Version: 6.00 Build 0)  -->
<!DOCTYPE svg PUBLIC "-//W3C//DTD SVG 1.1//EN" "http://www.w3.org/Graphics/SVG/1.1/DTD/svg11.dtd">
<svg version="1.1" id="Layer_1" xmlns="http://www.w3.org/2000/svg" xmlns:xlink="http://www.w3.org/1999/xlink" x="0px" y="0px"
	 viewBox="0 0 221.5 189.5" enable-background="new 0 0 221.5 189.5" xml:space="preserve">
<g>
	<g>
		<g>
			<path fill="#FFFFFF" d="M129.981,168.863h-29.904c-3.636,0-6.584-2.946-6.584-6.579V87.058c0-3.634,2.948-6.579,6.584-6.579
				h29.904c3.636,0,6.584,2.945,6.584,6.579v75.226C136.565,165.917,133.617,168.863,129.981,168.863"/>
			<path fill="none" stroke="#153F2A" stroke-width="2" stroke-miterlimit="10" d="M129.981,168.863h-29.904
				c-3.636,0-6.584-2.946-6.584-6.579V87.058c0-3.634,2.948-6.579,6.584-6.579h29.904c3.636,0,6.584,2.945,6.584,6.579v75.226
				C136.565,165.917,133.617,168.863,129.981,168.863z"/>
			<path fill="none" stroke="#153F2A" stroke-miterlimit="10" d="M117.979,162.036c0,1.629-1.32,2.949-2.949,2.949
				c-1.629,0-2.95-1.32-2.95-2.949c0-1.628,1.321-2.949,2.95-2.949C116.659,159.087,117.979,160.408,117.979,162.036
				 M108.752,87.659c0,0.564-0.457,1.021-1.021,1.021c-0.565,0-1.022-0.457-1.022-1.021c0-0.565,0.457-1.022,1.022-1.022
				C108.295,86.637,108.752,87.094,108.752,87.659z M118.309,88.68h-6.417c-0.55,0-0.997-0.453-0.997-1.011v-0.021
				c0-0.558,0.447-1.011,0.997-1.011h6.417c0.55,0,0.997,0.453,0.997,1.011v0.021C119.306,88.227,118.859,88.68,118.309,88.68z"/>
			<path fill="#FFFFFF" d="M131.008,156.265H99.051c-0.918,0-1.662-0.743-1.662-1.66V94.838c0-0.917,0.744-1.66,1.662-1.66h31.957
				c0.918,0,1.662,0.743,1.662,1.66v59.767C132.67,155.522,131.926,156.265,131.008,156.265"/>
			<path fill="none" stroke="#153F2A" stroke-width="2" stroke-miterlimit="10" d="M131.008,156.265H99.051
				c-0.918,0-1.662-0.743-1.662-1.66V94.838c0-0.917,0.744-1.66,1.662-1.66h31.957c0.918,0,1.662,0.743,1.662,1.66v59.767
				C132.67,155.522,131.926,156.265,131.008,156.265z"/>
		</g>
		<polygon fill="#FFFFFF" points="121.822,88.445 111.81,78.433 95.882,94.362 79.954,78.433 69.942,88.445 85.871,104.373 
			69.942,120.302 79.954,130.313 95.882,114.385 111.81,130.313 121.822,120.302 105.894,104.373 		"/>
		<polygon fill="none" stroke="#153F2A" stroke-width="2" stroke-miterlimit="10" points="121.822,88.445 111.81,78.433 
			95.882,94.362 79.954,78.433 69.942,88.445 85.871,104.373 69.942,120.302 79.954,130.313 95.882,114.385 111.81,130.313 
			121.822,120.302 105.894,104.373 		"/>
	</g>
</g>
</svg>
