<?xml version="1.0" encoding="utf-8"?>
<!-- Generator: Adobe Illustrator 17.1.0, SVG Export Plug-In . SVG Version: 6.00 Build 0)  -->
<!DOCTYPE svg PUBLIC "-//W3C//DTD SVG 1.1//EN" "http://www.w3.org/Graphics/SVG/1.1/DTD/svg11.dtd">
<svg version="1.1" id="Layer_1" xmlns="http://www.w3.org/2000/svg" xmlns:xlink="http://www.w3.org/1999/xlink" x="0px" y="0px"
	 viewBox="0 0 221.5 189.5" enable-background="new 0 0 221.5 189.5" xml:space="preserve">
<g>
	<path fill="#FFFFFF" stroke="#163F2A" stroke-width="2" stroke-miterlimit="10" d="M120.848,72.629h-18.36
		c-1.331,0-2.41-1.079-2.41-2.41v-9.321c0-1.331,1.079-2.41,2.41-2.41h18.36c1.331,0,2.41,1.079,2.41,2.41v9.321
		C123.258,71.55,122.179,72.629,120.848,72.629z"/>
	<path fill="#FFFFFF" stroke="#163F2A" stroke-width="2" stroke-miterlimit="10" d="M143.559,162.019H79.776
		c-1.516,0-2.745-1.229-2.745-2.745V78.902c0-1.516,1.229-2.745,2.745-2.745h63.782c1.516,0,2.745,1.229,2.745,2.745v80.372
		C146.303,160.79,145.075,162.019,143.559,162.019z"/>
	<g>
		<path fill="#FFFFFF" stroke="#163F2A" stroke-width="2" stroke-miterlimit="10" d="M98.001,169.298h-4.282
			c-1.147,0-2.076-0.93-2.076-2.076v-4.665c0-1.147,0.93-2.076,2.076-2.076h4.282c1.147,0,2.076,0.93,2.076,2.076v4.665
			C100.077,168.368,99.147,169.298,98.001,169.298z"/>
		<path fill="#FFFFFF" stroke="#163F2A" stroke-width="2" stroke-miterlimit="10" d="M129.617,169.298h-4.282
			c-1.147,0-2.076-0.93-2.076-2.076v-4.665c0-1.147,0.93-2.076,2.076-2.076h4.282c1.147,0,2.076,0.93,2.076,2.076v4.665
			C131.693,168.368,130.763,169.298,129.617,169.298z"/>
	</g>
	<g>
		<path fill="#FFFFFF" stroke="#163F2A" stroke-width="2" stroke-miterlimit="10" d="M98.001,115.732h-4.282
			c-1.147,0-2.076-0.93-2.076-2.076v-4.665c0-1.147,0.93-2.076,2.076-2.076h4.282c1.147,0,2.076,0.93,2.076,2.076v4.665
			C100.077,114.802,99.147,115.732,98.001,115.732z"/>
		<path fill="#FFFFFF" stroke="#163F2A" stroke-width="2" stroke-miterlimit="10" d="M129.617,115.732h-4.282
			c-1.147,0-2.076-0.93-2.076-2.076v-4.665c0-1.147,0.93-2.076,2.076-2.076h4.282c1.147,0,2.076,0.93,2.076,2.076v4.665
			C131.693,114.802,130.763,115.732,129.617,115.732z"/>
	</g>
	<path fill="#FFFFFF" stroke="#163F2A" stroke-width="2" stroke-miterlimit="10" d="M136.932,156.874c0,2.69-2.181,4.87-4.87,4.87
		H91.273c-2.69,0-4.87-2.181-4.87-4.87v-26.787c0-2.69,2.181-4.87,4.87-4.87h40.789c2.69,0,4.87,2.181,4.87,4.87V156.874z"/>
	<path fill="#FFFFFF" stroke="#163F2A" stroke-width="2" stroke-miterlimit="10" d="M136.932,138.611c0,2.69-2.181,4.87-4.87,4.87
		H91.273c-2.69,0-4.87-2.181-4.87-4.87v-8.523c0-2.69,2.181-4.87,4.87-4.87h40.789c2.69,0,4.87,2.181,4.87,4.87V138.611z"/>
	<path fill="#FFFFFF" stroke="#163F2A" stroke-width="2" stroke-miterlimit="10" d="M140.256,65.138h-28.19h-0.796h-28.19
		c-3.525,0-6.382,2.857-6.382,6.382l6.382,30.317c0.862,3.288,3.655,8.377,7.18,8.377h20.477h1.862h20.477
		c3.525,0,6.319-5.089,7.18-8.377l6.382-30.317C146.638,67.996,143.781,65.138,140.256,65.138z"/>
	<line fill="#FFFFFF" stroke="#163F2A" stroke-width="2" stroke-miterlimit="10" x1="82.589" y1="99.51" x2="140.746" y2="99.51"/>
	<circle fill="#FFFFFF" stroke="#163F2A" stroke-width="2" stroke-miterlimit="10" cx="111.667" cy="99.51" r="3.723"/>
</g>
</svg>
