<?xml version="1.0" encoding="utf-8"?>
<!-- Generator: Adobe Illustrator 17.1.0, SVG Export Plug-In . SVG Version: 6.00 Build 0)  -->
<!DOCTYPE svg PUBLIC "-//W3C//DTD SVG 1.1//EN" "http://www.w3.org/Graphics/SVG/1.1/DTD/svg11.dtd">
<svg version="1.1" id="Layer_1" xmlns="http://www.w3.org/2000/svg" xmlns:xlink="http://www.w3.org/1999/xlink" x="0px" y="0px"
	 viewBox="0 0 221.5 189.5" enable-background="new 0 0 221.5 189.5" xml:space="preserve">
<g>
	<g>
		<g>
			<path fill="#FFFFFF" d="M153.257,111.315c0,7.361-5.967,13.328-13.329,13.328c-7.361,0-13.328-5.967-13.328-13.328
				s5.967-13.329,13.328-13.329C147.29,97.986,153.257,103.954,153.257,111.315"/>
			<circle fill="none" stroke="#153F2A" stroke-width="2" stroke-miterlimit="10" cx="139.928" cy="111.315" r="13.329"/>
			<path fill="#FFFFFF" d="M112.177,142.765v38.869c0,1.085,0.88,1.964,1.965,1.964h5.344c1.085,0,1.965-0.879,1.965-1.964V147.17
				c0-1.085,0.88-1.965,1.966-1.965h0.04c1.085,0,1.965,0.88,1.965,1.965l0.044,43.33h28.969v-43.33c0-1.085,0.88-1.965,1.965-1.965
				h0.04c1.085,0,1.965,0.88,1.965,1.965v34.464c0,1.085,0.88,1.964,1.966,1.964h5.343c1.086,0,1.966-0.879,1.966-1.964v-38.869
				c0-5.829-4.728-10.554-10.559-10.554h-34.385C116.904,132.211,112.177,136.936,112.177,142.765"/>
			<path fill="none" stroke="#153F2A" stroke-width="2" stroke-miterlimit="10" d="M112.177,142.765v38.869
				c0,1.085,0.88,1.964,1.965,1.964h5.344c1.085,0,1.965-0.879,1.965-1.964V147.17c0-1.085,0.88-1.965,1.966-1.965h0.04
				c1.085,0,1.965,0.88,1.965,1.965l0.044,43.33h28.969v-43.33c0-1.085,0.88-1.965,1.965-1.965h0.04c1.085,0,1.965,0.88,1.965,1.965
				v34.464c0,1.085,0.88,1.964,1.966,1.964h5.343c1.086,0,1.966-0.879,1.966-1.964v-38.869c0-5.829-4.728-10.554-10.559-10.554
				h-34.385C116.904,132.211,112.177,136.936,112.177,142.765z"/>
		</g>
		<polygon fill="#FFFFFF" points="92.687,107.198 76.356,107.198 76.356,100.131 57.306,114.664 76.356,129.197 76.356,122.129 
			92.687,122.129 		"/>
		<polygon fill="none" stroke="#153F2A" stroke-width="2" stroke-miterlimit="10" points="92.687,107.198 76.356,107.198 
			76.356,100.131 57.306,114.664 76.356,129.197 76.356,122.129 92.687,122.129 		"/>
	</g>
</g>
</svg>
