<?xml version="1.0" encoding="utf-8"?>
<!-- Generator: Adobe Illustrator 17.1.0, SVG Export Plug-In . SVG Version: 6.00 Build 0)  -->
<!DOCTYPE svg PUBLIC "-//W3C//DTD SVG 1.1//EN" "http://www.w3.org/Graphics/SVG/1.1/DTD/svg11.dtd">
<svg version="1.1" id="Layer_1" xmlns="http://www.w3.org/2000/svg" xmlns:xlink="http://www.w3.org/1999/xlink" x="0px" y="0px"
	 viewBox="0 0 221.5 188" enable-background="new 0 0 221.5 188" xml:space="preserve">
<g>
	<g>
		<g>
			<line fill="#FFFFFF" x1="139.592" y1="79.424" x2="206.493" y2="79.424"/>
			<rect x="139.592" y="78.507" fill="#163F2A" width="66.901" height="1.835"/>
		</g>
		<g>
			<path fill="#FFFFFF" d="M210.28,85.337h-4.425c-0.738,0-1.335-0.598-1.335-1.335v-9.156c0-0.738,0.598-1.335,1.335-1.335h4.425
				c0.738,0,1.335,0.598,1.335,1.335v9.156C211.615,84.74,211.017,85.337,210.28,85.337z"/>
			<path fill="#163F2A" d="M210.28,86.255h-4.425c-1.243,0-2.253-1.01-2.253-2.253v-9.156c0-1.242,1.01-2.252,2.253-2.252h4.425
				c1.243,0,2.253,1.01,2.253,2.252v9.156C212.533,85.244,211.522,86.255,210.28,86.255z M205.855,74.428
				c-0.231,0-0.418,0.187-0.418,0.417v9.156c0,0.231,0.187,0.418,0.418,0.418h4.425c0.231,0,0.418-0.187,0.418-0.418v-9.156
				c0-0.23-0.187-0.417-0.418-0.417H205.855z"/>
		</g>
		<g>
			<path fill="#FFFFFF" d="M140.128,85.337h-4.219c-0.795,0-1.439-0.644-1.439-1.439v-8.95c0-0.795,0.644-1.439,1.439-1.439h4.219
				c0.795,0,1.439,0.644,1.439,1.439v8.95C141.566,84.693,140.922,85.337,140.128,85.337z"/>
			<path fill="#163F2A" d="M140.127,86.255h-4.218c-1.299,0-2.356-1.057-2.356-2.356v-8.95c0-1.299,1.057-2.355,2.356-2.355h4.218
				c1.299,0,2.356,1.056,2.356,2.355v8.95C142.483,85.198,141.426,86.255,140.127,86.255z M135.909,74.428
				c-0.288,0-0.521,0.234-0.521,0.52v8.95c0,0.288,0.234,0.521,0.521,0.521h4.218c0.288,0,0.521-0.234,0.521-0.521v-8.95
				c0-0.287-0.234-0.52-0.521-0.52H135.909z"/>
		</g>
	</g>
	<g>
		<g>
			<path fill="#FFFFFF" d="M197.386,132.43h-4.513c-0.806,0-1.459-0.653-1.459-1.459v-9.466c0-0.806,0.653-1.459,1.459-1.459h4.513
				c0.806,0,1.459,0.653,1.459,1.459v9.466C198.845,131.776,198.192,132.43,197.386,132.43z"/>
			<path fill="#163F2A" d="M197.385,133.347h-4.512c-1.311,0-2.377-1.066-2.377-2.376v-9.467c0-1.31,1.066-2.376,2.377-2.376h4.512
				c1.311,0,2.377,1.066,2.377,2.376v9.467C199.762,132.281,198.696,133.347,197.385,133.347z M192.873,120.963
				c-0.299,0-0.542,0.243-0.542,0.541v9.467c0,0.298,0.243,0.541,0.542,0.541h4.512c0.299,0,0.542-0.243,0.542-0.541v-9.467
				c0-0.298-0.243-0.541-0.542-0.541H192.873z"/>
		</g>
		<g>
			<path fill="#FFFFFF" d="M153.212,132.43H148.7c-0.806,0-1.459-0.653-1.459-1.459v-9.466c0-0.806,0.653-1.459,1.459-1.459h4.513
				c0.806,0,1.459,0.653,1.459,1.459v9.466C154.671,131.776,154.018,132.43,153.212,132.43z"/>
			<path fill="#163F2A" d="M153.212,133.347h-4.513c-1.31,0-2.376-1.066-2.376-2.376v-9.467c0-1.31,1.066-2.376,2.376-2.376h4.513
				c1.31,0,2.376,1.066,2.376,2.376v9.467C155.588,132.281,154.522,133.347,153.212,133.347z M148.699,120.963
				c-0.298,0-0.541,0.243-0.541,0.541v9.467c0,0.298,0.243,0.541,0.541,0.541h4.513c0.298,0,0.541-0.243,0.541-0.541v-9.467
				c0-0.298-0.243-0.541-0.541-0.541H148.699z"/>
		</g>
	</g>
	<g>
		<path fill="#FFFFFF" d="M201.677,120.317c0,2.523-1.653,4.568-3.692,4.568h-49.884c-2.039,0-3.692-2.045-3.692-4.568V58.601
			c0-2.523,1.653-4.568,3.692-4.568h49.884c2.039,0,3.692,2.045,3.692,4.568V120.317z"/>
		<path fill="#163F2A" d="M197.985,125.802h-49.884c-2.542,0-4.61-2.461-4.61-5.485V58.601c0-3.024,2.068-5.485,4.61-5.485h49.884
			c2.542,0,4.61,2.461,4.61,5.485v61.716C202.595,123.341,200.527,125.802,197.985,125.802z M148.101,54.95
			c-1.53,0-2.775,1.638-2.775,3.65v61.716c0,2.013,1.245,3.65,2.775,3.65h49.884c1.53,0,2.775-1.638,2.775-3.65V58.601
			c0-2.013-1.245-3.65-2.775-3.65H148.101z"/>
	</g>
	<g>
		<path fill="#FFFFFF" d="M193.453,67.731h-10.761h-19.299h-10.761c-1.198,0-2.169,0.975-2.169,2.178v5.72v9.637v5.72
			c0,1.203,0.971,2.178,2.169,2.178h10.761h19.299h10.761c1.198,0,2.169-0.975,2.169-2.178v-5.72v-9.637v-5.72
			C195.622,68.706,194.651,67.731,193.453,67.731z"/>
		<path fill="#163F2A" d="M193.453,94.082h-40.82c-1.702,0-3.087-1.389-3.087-3.095V69.909c0-1.707,1.385-3.096,3.087-3.096h40.82
			c1.702,0,3.086,1.389,3.086,3.096v21.078C196.539,92.693,195.155,94.082,193.453,94.082z M152.633,68.648
			c-0.691,0-1.252,0.566-1.252,1.261v21.078c0,0.695,0.562,1.26,1.252,1.26h40.82c0.69,0,1.251-0.565,1.251-1.26V69.909
			c0-0.695-0.562-1.261-1.251-1.261H152.633z"/>
	</g>
	<g>
		<path fill="#FFFFFF" d="M177.552,62.81h-9.02c-0.734,0-1.329-0.595-1.329-1.329v-1.181c0-0.734,0.595-1.329,1.329-1.329h9.02
			c0.734,0,1.329,0.595,1.329,1.329v1.181C178.882,62.214,178.287,62.81,177.552,62.81z"/>
		<path fill="#163F2A" d="M177.553,63.727h-9.02c-1.239,0-2.247-1.008-2.247-2.247v-1.181c0-1.239,1.008-2.247,2.247-2.247h9.02
			c1.238,0,2.246,1.008,2.246,2.247v1.181C179.799,62.719,178.791,63.727,177.553,63.727z M168.533,59.887
			c-0.228,0-0.412,0.185-0.412,0.412v1.181c0,0.228,0.185,0.412,0.412,0.412h9.02c0.227,0,0.411-0.185,0.411-0.412v-1.181
			c0-0.228-0.185-0.412-0.411-0.412H168.533z"/>
	</g>
	<g>
		<g>
			<circle fill="#FFFFFF" cx="153.208" cy="111.119" r="3.619"/>
			<path fill="#163F2A" d="M153.208,115.655c-2.501,0-4.536-2.034-4.536-4.536s2.035-4.536,4.536-4.536
				c2.501,0,4.536,2.035,4.536,4.536S155.709,115.655,153.208,115.655z M153.208,108.418c-1.49,0-2.702,1.212-2.702,2.702
				c0,1.489,1.212,2.701,2.702,2.701c1.489,0,2.701-1.212,2.701-2.701C155.909,109.63,154.697,108.418,153.208,108.418z"/>
		</g>
		<g>
			<circle fill="#FFFFFF" cx="192.878" cy="110.922" r="3.619"/>
			<path fill="#163F2A" d="M192.878,115.458c-2.501,0-4.536-2.034-4.536-4.536s2.034-4.536,4.536-4.536
				c2.501,0,4.536,2.035,4.536,4.536S195.379,115.458,192.878,115.458z M192.878,108.221c-1.489,0-2.701,1.212-2.701,2.702
				c0,1.489,1.212,2.701,2.701,2.701c1.49,0,2.702-1.212,2.702-2.701C195.579,109.433,194.367,108.221,192.878,108.221z"/>
		</g>
	</g>
	<g>
		<g>
			<line fill="#FFFFFF" x1="162.119" y1="108.188" x2="183.966" y2="108.188"/>
			<rect x="162.12" y="107.271" fill="#163F2A" width="21.846" height="1.835"/>
		</g>
		<g>
			<line fill="#FFFFFF" x1="162.119" y1="111.119" x2="183.966" y2="111.119"/>
			<rect x="162.12" y="110.202" fill="#163F2A" width="21.846" height="1.835"/>
		</g>
		<g>
			<line fill="#FFFFFF" x1="162.119" y1="114.05" x2="183.966" y2="114.05"/>
			<rect x="162.12" y="113.132" fill="#163F2A" width="21.846" height="1.835"/>
		</g>
	</g>
</g>
<g>
	<g>
		<g>
			<path fill="#FFFFFF" d="M122.491,108.484h-4.18c-0.746,0-1.351-0.605-1.351-1.351v-8.768c0-0.746,0.605-1.351,1.351-1.351h4.18
				c0.746,0,1.351,0.605,1.351,1.351v8.768C123.842,107.879,123.237,108.484,122.491,108.484z"/>
			<path fill="#163F2A" d="M122.491,109.315h-4.179c-1.203,0-2.182-0.979-2.182-2.182v-8.768c0-1.203,0.979-2.182,2.182-2.182h4.179
				c1.203,0,2.182,0.979,2.182,2.182v8.768C124.673,108.336,123.694,109.315,122.491,109.315z M118.312,97.844
				c-0.287,0-0.521,0.234-0.521,0.521v8.768c0,0.287,0.234,0.521,0.521,0.521h4.179c0.287,0,0.521-0.234,0.521-0.521v-8.768
				c0-0.287-0.234-0.521-0.521-0.521H118.312z"/>
		</g>
		<g>
			<path fill="#FFFFFF" d="M85.407,108.484h-4.18c-0.746,0-1.351-0.605-1.351-1.351v-8.768c0-0.746,0.605-1.351,1.351-1.351h4.18
				c0.746,0,1.351,0.605,1.351,1.351v8.768C86.759,107.879,86.154,108.484,85.407,108.484z"/>
			<path fill="#163F2A" d="M85.407,109.315h-4.18c-1.203,0-2.182-0.979-2.182-2.182v-8.768c0-1.203,0.978-2.182,2.182-2.182h4.18
				c1.203,0,2.182,0.979,2.182,2.182v8.768C87.589,108.336,86.61,109.315,85.407,109.315z M81.227,97.844
				c-0.286,0-0.52,0.234-0.52,0.521v8.768c0,0.287,0.234,0.521,0.52,0.521h4.18c0.287,0,0.521-0.234,0.521-0.521v-8.768
				c0-0.287-0.234-0.521-0.521-0.521H81.227z"/>
		</g>
	</g>
	<g>
		<path fill="#FFFFFF" d="M125.036,91.084v-5.409c0-0.934-0.757-1.69-1.69-1.69h-3.511v-5.409c0-0.934-0.757-1.69-1.69-1.69h-32.45
			c-0.934,0-1.69,0.757-1.69,1.69v5.409h-3.511c-0.934,0-1.69,0.757-1.69,1.69v5.409H125.036z"/>
		<path fill="#163F2A" d="M125.867,91.915H77.971v-6.24c0-1.391,1.131-2.522,2.522-2.522h2.681v-4.578
			c0-1.391,1.131-2.522,2.521-2.522h32.45c1.391,0,2.522,1.131,2.522,2.522v4.578h2.681c1.391,0,2.522,1.131,2.522,2.522V91.915z
			 M79.633,90.253h44.573v-4.578c0-0.474-0.386-0.86-0.86-0.86h-4.342v-6.24c0-0.474-0.386-0.86-0.86-0.86h-32.45
			c-0.474,0-0.859,0.386-0.859,0.86v6.24h-4.342c-0.474,0-0.86,0.386-0.86,0.86V90.253z"/>
	</g>
	<g>
		<g>
			<line fill="#FFFFFF" x1="80.676" y1="71.489" x2="123.163" y2="71.489"/>
			<rect x="80.675" y="70.659" fill="#163F2A" width="42.488" height="1.662"/>
		</g>
		<g>
			<path fill="#FFFFFF" d="M124.517,75.11h-2.709c-0.452,0-0.818-0.366-0.818-0.818v-5.605c0-0.452,0.366-0.818,0.818-0.818h2.709
				c0.452,0,0.818,0.366,0.818,0.818v5.605C125.335,74.744,124.969,75.11,124.517,75.11z"/>
			<path fill="#163F2A" d="M124.517,75.94h-2.709c-0.909,0-1.649-0.74-1.649-1.649v-5.605c0-0.909,0.74-1.649,1.649-1.649h2.709
				c0.909,0,1.649,0.74,1.649,1.649v5.605C126.166,75.2,125.426,75.94,124.517,75.94z M124.517,74.279v0.831V74.279L124.517,74.279
				L124.517,74.279z M124.504,68.687l-2.696,0.013l0.013,5.592l2.683-0.013V68.687z"/>
		</g>
		<g>
			<path fill="#FFFFFF" d="M81.967,75.11h-2.583c-0.486,0-0.881-0.394-0.881-0.881V68.75c0-0.486,0.394-0.881,0.881-0.881h2.583
				c0.486,0,0.881,0.394,0.881,0.881v5.479C82.848,74.715,82.454,75.11,81.967,75.11z"/>
			<path fill="#163F2A" d="M81.967,75.94h-2.583c-0.944,0-1.711-0.768-1.711-1.712V68.75c0-0.944,0.767-1.712,1.711-1.712h2.583
				c0.944,0,1.712,0.768,1.712,1.712v5.479C83.679,75.172,82.911,75.94,81.967,75.94z M79.384,68.699l-0.049,5.529l2.633,0.05
				c0.028,0,0.05-0.023,0.05-0.05V68.75L79.384,68.699z"/>
		</g>
	</g>
	<g>
		<path fill="#FFFFFF" d="M121.334,64.433c0,0.934-0.757,1.69-1.69,1.69H84.195c-0.934,0-1.69-0.757-1.69-1.69v-5.581
			c0-0.934,0.757-1.69,1.69-1.69h35.448c0.934,0,1.69,0.757,1.69,1.69V64.433z"/>
		<path fill="#163F2A" d="M119.643,66.954H84.195c-1.39,0-2.521-1.131-2.521-2.522v-5.582c0-1.39,1.131-2.521,2.521-2.521h35.448
			c1.391,0,2.522,1.131,2.522,2.521v5.582C122.165,65.823,121.034,66.954,119.643,66.954z M84.195,57.992
			c-0.474,0-0.859,0.385-0.859,0.859v5.582c0,0.474,0.385,0.86,0.859,0.86h35.448c0.474,0,0.86-0.386,0.86-0.86v-5.582
			c0-0.474-0.386-0.859-0.86-0.859H84.195z"/>
	</g>
	<g>
		<path fill="#FFFFFF" d="M116.814,66.094H86.974c-0.297,0-0.546,0.223-0.578,0.518l-1.056,9.629
			c-0.038,0.344,0.232,0.645,0.578,0.645h32.002c0.347,0,0.617-0.303,0.577-0.648l-1.107-9.629
			C117.357,66.315,117.109,66.094,116.814,66.094z"/>
		<path fill="#163F2A" d="M117.92,77.715H85.919c-0.401,0-0.784-0.171-1.051-0.469c-0.268-0.299-0.396-0.698-0.353-1.095l1.056-9.63
			c0.079-0.717,0.682-1.258,1.404-1.258h29.839c0.719,0,1.322,0.539,1.403,1.253l1.107,9.627c0.046,0.399-0.081,0.8-0.348,1.1
			C118.707,77.543,118.322,77.715,117.92,77.715z M86.196,76.054h31.444l-1.049-9.13H87.198L86.196,76.054z"/>
	</g>
	<g>
		<path fill="#FFFFFF" d="M113.685,66.094H90.114c-0.234,0-0.431,0.223-0.456,0.518l-0.834,9.629
			c-0.03,0.344,0.183,0.645,0.456,0.645h25.28c0.274,0,0.488-0.303,0.456-0.648l-0.874-9.629
			C114.115,66.315,113.918,66.094,113.685,66.094z"/>
		<path fill="#163F2A" d="M114.559,77.715h-25.28c-0.346,0-0.669-0.145-0.912-0.41c-0.273-0.299-0.409-0.713-0.372-1.137
			l0.834-9.628c0.062-0.728,0.613-1.278,1.283-1.278h23.571c0.666,0,1.218,0.546,1.284,1.27l0.874,9.629
			c0.038,0.428-0.097,0.844-0.371,1.143C115.23,77.569,114.906,77.715,114.559,77.715z M89.674,76.054h24.491l-0.828-9.13H90.464
			L89.674,76.054z"/>
	</g>
	<g>
		<g>
			<circle fill="#FFFFFF" cx="91.196" cy="81.678" r="2.633"/>
			<path fill="#163F2A" d="M91.196,85.141c-1.91,0-3.464-1.554-3.464-3.463s1.554-3.464,3.464-3.464s3.464,1.554,3.464,3.464
				S93.105,85.141,91.196,85.141z M91.196,79.875c-0.994,0-1.803,0.809-1.803,1.803s0.809,1.802,1.803,1.802
				s1.803-0.808,1.803-1.802S92.189,79.875,91.196,79.875z"/>
		</g>
		<g>
			<circle fill="#FFFFFF" cx="112.643" cy="81.678" r="2.633"/>
			<path fill="#163F2A" d="M112.643,85.141c-1.91,0-3.464-1.554-3.464-3.463s1.554-3.464,3.464-3.464s3.464,1.554,3.464,3.464
				S114.553,85.141,112.643,85.141z M112.643,79.875c-0.994,0-1.803,0.809-1.803,1.803s0.809,1.802,1.803,1.802
				s1.803-0.808,1.803-1.802S113.637,79.875,112.643,79.875z"/>
		</g>
	</g>
	<g>
		<g>
			<line fill="#FFFFFF" x1="100.627" y1="83.441" x2="100.627" y2="94.537"/>
			<rect x="99.796" y="83.441" fill="#163F2A" width="1.662" height="11.096"/>
		</g>
		<g>
			<line fill="#FFFFFF" x1="97.985" y1="83.441" x2="97.985" y2="94.537"/>
			<rect x="97.154" y="83.441" fill="#163F2A" width="1.662" height="11.096"/>
		</g>
		<g>
			<line fill="#FFFFFF" x1="95.343" y1="83.441" x2="95.343" y2="94.537"/>
			<rect x="94.512" y="83.441" fill="#163F2A" width="1.662" height="11.096"/>
		</g>
		<g>
			<g>
				<line fill="#FFFFFF" x1="103.269" y1="83.441" x2="103.269" y2="94.537"/>
				<rect x="102.439" y="83.441" fill="#163F2A" width="1.662" height="11.096"/>
			</g>
		</g>
		<g>
			<line fill="#FFFFFF" x1="108.553" y1="83.441" x2="108.553" y2="94.537"/>
			<rect x="107.723" y="83.441" fill="#163F2A" width="1.662" height="11.096"/>
		</g>
		<g>
			<line fill="#FFFFFF" x1="105.911" y1="83.441" x2="105.911" y2="94.537"/>
			<rect x="105.08" y="83.441" fill="#163F2A" width="1.662" height="11.096"/>
		</g>
	</g>
	<g>
		<path fill="#FFFFFF" d="M126.052,102.748H77.667c-0.526,0-0.953-0.427-0.953-0.953v-9.75c0-0.526,0.427-0.953,0.953-0.953h48.385
			c0.526,0,0.953,0.427,0.953,0.953v9.75C127.005,102.322,126.578,102.748,126.052,102.748z"/>
		<path fill="#163F2A" d="M126.051,103.579H77.667c-0.984,0-1.784-0.8-1.784-1.783v-9.75c0-0.984,0.8-1.784,1.784-1.784h48.384
			c0.984,0,1.784,0.8,1.784,1.784v9.75C127.836,102.779,127.036,103.579,126.051,103.579z M77.667,91.923
			c-0.067,0-0.123,0.055-0.123,0.123v9.75c0,0.067,0.055,0.122,0.123,0.122h48.384c0.067,0,0.123-0.054,0.123-0.122v-9.75
			c0-0.067-0.055-0.123-0.123-0.123H77.667z"/>
	</g>
	<g>
		<g>
			<line fill="#FFFFFF" x1="123.842" y1="100.257" x2="79.876" y2="100.257"/>
			<rect x="79.876" y="99.427" fill="#163F2A" width="43.966" height="1.662"/>
		</g>
	</g>
</g>
<g>
	<g>
		<g>
			<circle fill="#FFFFFF" cx="30.667" cy="117.664" r="6.742"/>
			<path fill="#163F2A" d="M30.667,125.323c-4.223,0-7.659-3.436-7.659-7.659c0-4.223,3.436-7.659,7.659-7.659
				s7.659,3.436,7.659,7.659C38.327,121.887,34.89,125.323,30.667,125.323z M30.667,111.839c-3.212,0-5.825,2.613-5.825,5.825
				s2.613,5.825,5.825,5.825s5.825-2.613,5.825-5.825S33.879,111.839,30.667,111.839z"/>
		</g>
	</g>
	<g>
		<path fill="#FFFFFF" d="M16.486,133.972v19.872c0,0.555,0.45,1.004,1.004,1.004h2.731c0.555,0,1.004-0.45,1.004-1.004v-17.62
			c0-0.555,0.45-1.004,1.004-1.004h0.02c0.555,0,1.004,0.45,1.004,1.004v46.172c0,0.555,0.45,1.004,1.004,1.004h3.056
			c0.555,0,1.004-0.45,1.004-1.004v-18.499c0-0.555,0.45-1.004,1.004-1.004h2.688c0.555,0,1.004,0.45,1.004,1.004v18.499
			c0,0.555,0.45,1.004,1.004,1.004h3.056c0.555,0,1.004-0.45,1.004-1.004v-46.172c0-0.555,0.45-1.004,1.004-1.004h0.02
			c0.555,0,1.004,0.45,1.004,1.004v17.62c0,0.555,0.45,1.004,1.004,1.004h2.731c0.555,0,1.004-0.45,1.004-1.004v-19.872
			c0-2.98-2.416-5.396-5.396-5.396H21.881C18.901,128.576,16.486,130.992,16.486,133.972z"/>
		<path fill="#163F2A" d="M37.076,184.317H34.02c-1.06,0-1.922-0.862-1.922-1.922v-18.499c0-0.048-0.039-0.088-0.088-0.088h-2.687
			c-0.048,0-0.088,0.039-0.088,0.088v18.499c0,1.06-0.862,1.922-1.922,1.922h-3.056c-1.06,0-1.922-0.862-1.922-1.922v-46.172
			c0-0.116-0.193-0.082-0.194,0v17.62c0,1.06-0.863,1.922-1.922,1.922h-2.73c-1.06,0-1.922-0.862-1.922-1.922v-19.872
			c0-3.481,2.832-6.314,6.313-6.314h17.572c3.481,0,6.313,2.833,6.313,6.314v19.872c0,1.06-0.862,1.922-1.922,1.922h-2.73
			c-1.06,0-1.922-0.862-1.922-1.922v-17.62c0.001-0.116-0.194-0.082-0.194,0v46.172C38.998,183.456,38.136,184.317,37.076,184.317z
			 M29.324,161.975h2.687c1.06,0,1.922,0.863,1.922,1.922v18.499c0,0.047,0.039,0.087,0.087,0.087h3.056
			c0.047,0,0.087-0.039,0.087-0.087v-46.172c0-1.06,0.862-1.922,1.922-1.922c1.08,0,1.942,0.863,1.942,1.922v17.62
			c0,0.047,0.039,0.087,0.088,0.087h2.73c0.047,0,0.087-0.039,0.087-0.087v-19.872c0-2.47-2.009-4.479-4.478-4.479H21.881
			c-2.469,0-4.478,2.009-4.478,4.479v19.872c0,0.047,0.039,0.087,0.087,0.087h2.73c0.048,0,0.088-0.039,0.088-0.087v-17.62
			c0-1.06,0.862-1.922,1.922-1.922c1.08,0,1.942,0.863,1.942,1.922v46.172c0,0.047,0.039,0.087,0.087,0.087h3.056
			c0.047,0,0.087-0.039,0.087-0.087v-18.499C27.401,162.837,28.264,161.975,29.324,161.975z"/>
	</g>
</g>
<g>
	<path fill="#FFFFFF" d="M61.517,189.197h-1.305c-0.689,0-1.247-0.559-1.247-1.247V37.124c0-0.689,0.559-1.247,1.247-1.247h1.305
		c0.689,0,1.247,0.559,1.247,1.247v150.825C62.765,188.638,62.206,189.197,61.517,189.197z"/>
	<path fill="#163F2A" d="M61.518,190.114h-1.305c-1.194,0-2.165-0.971-2.165-2.165V37.124c0-1.193,0.971-2.164,2.165-2.164h1.305
		c1.193,0,2.164,0.971,2.164,2.164v150.825C63.682,189.143,62.711,190.114,61.518,190.114z M60.213,36.794
		c-0.182,0-0.331,0.148-0.331,0.33v150.825c0,0.182,0.149,0.331,0.331,0.331h1.305c0.182,0,0.33-0.149,0.33-0.331V37.124
		c0-0.182-0.148-0.33-0.33-0.33H60.213z"/>
</g>
</svg>
